<?xml version="1.0" standalone="no"?>
<!DOCTYPE svg PUBLIC "-//W3C//DTD SVG 20010904//EN"
 "http://www.w3.org/TR/2001/REC-SVG-20010904/DTD/svg10.dtd">
<svg version="1.0" xmlns="http://www.w3.org/2000/svg"
 width="16pt" height="16pt" viewBox="0 0 16 16"
 preserveAspectRatio="xMidYMid meet">
<metadata>
Created by potrace 1.11, written by Peter Selinger 2001-2013
</metadata>
<g transform="translate(0.000000,16) scale(0.100000,-0.100000)"
fill="#000000" stroke="none">
<path d="M1945 5979 c-342 -33 -797 -168 -1053 -313 -407 -230 -678 -620 -748
-1077 -20 -133 -14 -320 15 -434 48 -185 157 -339 284 -399 67 -31 192 -52
257 -42 140 21 234 148 200 270 -45 163 -276 223 -411 107 -23 -19 -52 -57
-65 -84 l-23 -50 -31 49 c-53 84 -72 162 -77 319 -4 106 -1 162 12 230 88 472
413 834 893 994 450 150 908 169 1347 56 667 -171 998 -590 972 -1230 -20
-473 -168 -730 -526 -909 -180 -91 -499 -171 -805 -202 l-69 -7 6 734 c4 522
9 746 17 774 12 39 67 100 139 153 17 13 31 29 31 37 0 26 -50 124 -69 134
-15 9 -86 -22 -397 -174 -468 -229 -447 -218 -458 -247 -19 -52 30 -130 88
-142 14 -4 38 -8 52 -11 36 -8 69 -47 96 -114 l23 -56 0 -1372 0 -1372 -21
-28 c-11 -15 -47 -46 -78 -69 -32 -22 -62 -48 -68 -58 -14 -25 42 -141 71
-149 16 -4 74 21 194 83 95 49 273 136 397 195 124 58 233 116 242 127 50 58
-11 158 -104 172 -65 10 -111 54 -132 125 -14 46 -16 116 -16 449 l0 395 178
-6 c340 -11 558 -79 709 -221 86 -80 134 -164 183 -321 107 -340 188 -534 317
-761 252 -443 616 -760 1028 -896 207 -69 292 -82 540 -82 217 -1 270 4 430
40 313 71 617 226 764 390 241 271 185 649 -113 773 -87 36 -151 40 -211 12
-169 -78 -165 -324 7 -395 101 -42 227 5 276 104 l20 40 13 -32 c8 -18 14 -65
13 -103 -1 -219 -213 -400 -605 -519 -177 -53 -310 -70 -514 -63 -135 4 -190
10 -271 31 -425 106 -729 366 -961 821 -104 204 -177 405 -252 696 -63 245
-106 349 -196 474 -50 69 -181 199 -242 239 l-42 28 103 52 c146 74 247 147
356 256 229 228 358 510 391 855 17 188 -7 417 -63 595 -196 619 -790 1053
-1547 1130 -119 12 -365 11 -496 -1z"/>
</g>
</svg>
