<svg version="1.1" id="_x35_08_xA0_Image_1_" xmlns="http://www.w3.org/2000/svg" xmlns:xlink="http://www.w3.org/1999/xlink"
	 x="0px" y="0px" viewBox="0 0 89.4 206.4" style="enable-background:new 0 0 89.4 206.4;" xml:space="preserve">
<g>
	<g>
		<path d="M30.3,58c0-0.2,0-0.5-0.1-0.7c-0.4-1.4-1.3-2.6-2-3.8c-0.5-0.8-1-1.7-1.5-2.5c0-0.1-0.1-0.1-0.2-0.2
			c-0.4-0.4-0.7-0.9-1.1-1.3c-0.9-1.1-1.8-2.2-2.6-3.3c-0.4-0.6-0.8-1.2-0.7-2.1c0.1-0.8,0.1-1.6,0.4-2.2c0.5-0.9,1-1.7,1.7-2.5
			c0.9-1,1.9-1.8,2.9-2.6c0.5-0.4,1.1-0.7,1.6-1.1c0.8-0.6,1.8-0.9,2.7-1.2c1.5-0.4,3-0.8,4.5-1.1c0.8-0.2,1.6-0.3,2.4-0.4
			c0.3,0,0.7,0,1,0c0.2,0,0.5,0.1,0.7,0c0.3-0.1,0.5-0.3,0.2-0.5c-0.8-0.7-1-1.6-0.9-2.6c0-0.2,0-0.5,0-0.7c-0.1-0.6,0.1-1,0.6-1.4
			c0.3-0.2,0.4-0.5,0.6-0.8c0.4-0.5,0.7-1,1.2-1.4c0.4-0.3,0.9-0.4,1.4-0.6c0.2-0.1,0.5-0.3,0.8-0.5c-0.2-0.3-0.4-0.7-0.7-1
			c-0.7-0.7-0.8-1.6-0.6-2.5s0.6-1.8,0.9-2.7c0.4-1.3,0.9-2.6,1.3-3.9c0.3-1.2,0.6-2.4,0.8-3.6c0.2-0.9,0.6-1.8,1.9-1.4
			c0.3,0.1,0.6,0,0.9,0c0.4,0,0.8,0.1,0.9,0.6c0.2,0.9,0.5,1.7,0.7,2.6c0.2,0.8,0.5,1.7,0.7,2.5c0.3,1,0.5,2.1,0.8,3.1
			c0.2,0.5,0.5,1,0.7,1.5c0.3,1,0.4,2.1-0.3,3c-0.4,0.6-0.9,1.2-1.3,1.9c0.2,0.1,0.6,0.3,0.9,0.4c0.4,0.2,0.8,0.5,1.2,0.6
			c0.8,0.4,1.1,1.1,1.7,1.6c0.8,0.7,1.1,1.5,0.9,2.4c-0.1,1-0.4,1.9-1.1,2.8c-0.2,0.2-0.2,0.5-0.3,0.7c0.2,0,0.4,0.1,0.7,0.1
			c1.3,0.2,2.7,0.4,4,0.7c0.6,0.1,1.1,0.5,1.6,0.8c1.6,0.8,3.1,1.7,4.6,2.6c0.6,0.3,1.2,0.7,1.8,1.1c0.2,0.2,0.4,0.5,0.6,0.7
			c0.8,1,1.9,1.8,2.3,3.1c0.1,0.2,0.3,0.4,0.5,0.6c0.8,1,0.6,2.3,1.2,3.5c0.1,0.2,0.2,0.6-0.3,0.7c-0.1,0-0.1,0.2-0.2,0.3
			c-0.3,0.4-0.5,0.9-0.9,1.2c-0.7,0.7-1.5,1.4-2.2,2.1c-1,1-1.9,2.1-2.8,3.2c-0.5,0.6-0.8,1.4-1.2,2.1c-0.3,0.5-0.7,0.9-0.9,1.4
			c-0.2,0.3-0.5,0.6-0.3,1c0,0.1,0,0.2-0.1,0.3c-0.6,0.7-0.7,1.7-1.2,2.5c-0.6,0.9-1.2,1.9-1.2,3.1c0,0.5-0.3,0.9-0.3,1.4
			c-0.2,1.2-0.4,2.3-0.6,3.5c-0.2,1-0.3,2-0.4,3c0,0.1,0,0.1,0,0.2c-0.1,1.4-0.2,2.7-0.2,4.1c0,1.1,0,2.1,0,3.2
			c0,0.9,0.5,1.5,0.9,2.1c0.5,0.8,0.5,1.3-0.4,1.9c-0.4,0.3-1,0.5-1.1,0.8c-0.1,0.4,0.2,0.9,0.3,1.3c0.1,0.3,0.2,0.7,0.1,1
			c-0.1,0.5,0.2,0.6,0.6,0.7c0.9,0.3,1.8,0.6,2.7,0.9c0.2,0.1,0.4,0.3,0.6,0.4c0.5,0.7,1.2,1.3,1.3,2.2c0.1,0.8,0.9,0.5,1.3,0.7
			c0.1,0.1,0.3,0.1,0.4,0.2c0.5,0.2,1.1,0.5,1.6,0.7c1,0.3,1.8,0.9,2.7,1.5c1.1,0.7,1.9,1.5,2.3,2.8c0.2,0.5,0.7,0.8,0.8,1.3
			c0.2,1,0.8,2,0.4,3.1c-0.1,0.3-0.2,0.6-0.4,0.9c-0.7,1.3-1.5,2.7-2.8,3.5c-0.6,0.4-1.3,0.6-1.9,0.9c-0.8,0.3-1.7,0.5-2.5,0.7
			c-1.8,0.3-3.5,0.6-5.3,0.9c-0.4,0.1-0.8-0.1-1.2,0c-0.1,0-0.4,0.3-0.4,0.5c0,1.2,0,2.3-0.1,3.5c0,0.8-0.1,1.7-0.1,2.5
			c0,0.5-0.1,0.9-0.1,1.4c0,1.8-0.1,3.7-0.1,5.5c0,0.9,0.1,1.9,0.1,2.8s0,1.7,0,2.6c0.1,1.8,0.3,3.6,0.5,5.4
			c0.1,1.2,0.1,2.4,0.3,3.6c0.1,1.3,0.3,2.5,0.5,3.8c0.2,1.4,0.4,2.8,0.7,4.2c0.2,0.7,0.6,1.3,0.8,2c0.2,0.8,0.2,1.6,0.4,2.4
			c0.3,1,0.6,2,1,3.1c0.5,1.6,1,3.1,1.6,4.7c0.3,0.9,0.7,1.7,1.1,2.6c0.6,1.1,1.2,2.3,1.8,3.4c0.6,1,1.3,1.9,2,2.8
			c0.4,0.5,0.5,0.9,0.2,1.8c1.3,0.8,2.7,1.6,4,2.5c0.5,0.3,0.9,0.6,1.3,0.9c0.7,0.5,1.4,1,2.1,1.6c0.3,0.2,0.6,0.6,0.8,0.8
			c1.6,1.7,2.5,3.7,2.3,6.1c0,0.7-0.2,1.3-0.2,2c0,0.2,0,0.4,0.1,0.6c0.8,1,1,2.2,1,3.5c0,1.2,0.1,2.3,0.1,3.5s0,2.5,0,3.7
			c0,0.4-0.8,1.1-1.3,1.3c-1,0.4-2.1,0.9-3.1,1.4c-0.3,0.1-0.7,0.3-1,0.4c-0.9,0.3-1.8,0.7-2.7,1c-0.2,0.1-0.5,0.2-0.7,0.4
			c-0.5,0.4-1,0.2-1.7,0c0.1-2.8,0.2-5.6,0.3-8.4c0,0,0.1,0,0.2-0.1c0,2.7-0.2,5.3,0.2,7.9c0.1,0,0.1,0,0.2,0c0-1.3,0-2.7,0-4
			c0-1.4,0-2.7,0.2-4.1c0.1,0,0.1,0,0.2,0c0,0.9,0,1.8,0,2.7s0,1.7-0.1,2.6c0,0.5,0,0.9,0,1.4c0,0.4,0,0.8,0.4,1.2
			c0-1.3,0-2.5,0-3.7c0-0.7,0.1-1.3,0.1-2c0-0.1,0.1-0.2,0.2-0.3c0.1,0.1,0.2,0.2,0.2,0.3c0,1.3-0.1,2.6-0.1,3.9
			c0,0.5,0.1,1,0.1,1.5c0.1,0,0.1,0,0.2,0c0-0.1,0.1-0.3,0.1-0.4c0-1.6,0-3.3,0-4.9c0-0.2,0.1-0.3,0.1-0.6c-0.3-0.6-0.2-2.4,0.3-2.5
			c0,0.2,0,0.4,0,0.7c0,2.2,0,4.5,0,6.7c0,0.2,0.1,0.4,0.1,0.7c0.1,0,0.2,0,0.3,0c0-0.7,0-1.4,0-2.1c0-2,0-4.1,0-6.1
			c0-0.1-0.1-0.3-0.2-0.3c-0.3-0.1-1.1,0.6-1.1,1c0,0.6,0,1.1,0,1.7c0,0.2-0.2,0.3-0.2,0.5c-0.1,0-0.1,0-0.2-0.1
			c0-0.4,0.1-0.8,0.1-1.2s0-0.8,0-1.2c-1.1,0.4-2.1,0.8-3.1,1.1c-1.2,0.3-2.4,0.5-3.7,0.8c-0.9,0.2-1.8,0.4-2.8,0.6
			c-1.4,0.2-2.8,0.5-4.2,0.7c-1.7,0.2-3.3,0.3-5,0.5c-1,0.1-2,0.1-3,0.1c-1.9,0.1-3.8,0.2-5.7,0.2c-1.1,0-2.3-0.1-3.4-0.1
			c-0.5,0-1.1,0.2-1.6,0.4c5.3,0.1,10.6,0.1,15.8-0.5c0,0.1,0,0.2,0,0.2c-1.4,0.1-2.8,0.3-4.3,0.4c-1.4,0.1-2.8,0.2-4.2,0.2
			s-2.8,0-4.1,0c0,0.3,0.1,0.6,0.1,0.9c0,1.2,0,2.4,0,3.6c0,0.7,0.1,1.4,0,2.2c0,0.3-0.2,0.7-0.3,1.1c0.1,0,0.4,0.1,0.6,0
			c0.1,0,0.1-0.4,0.1-0.6c0-0.7,0-1.3,0-2c0-1.3,0-2.5,0-3.8c0-0.4,0-0.8,0-1.3c0.3,0,0.7,0,1.1,0c0,2.4,0,4.8,0,7.3
			c-0.1,0-0.3,0.1-0.5,0.2v0.1c0.6,0,1.3,0,1.9,0c0.1,0,0.2-0.2,0.2-0.3c0-0.7-0.1-1.4-0.1-2.1c0-1.5,0-2.9,0-4.4
			c0-0.9,0.1-1,0.9-0.7c0,0.4-0.1,0.8-0.1,1.2c0,1.1,0.1,2.2,0.1,3.2c0,0.9-0.1,1.8-0.1,2.8c0,0.1,0.1,0.3,0.2,0.3
			c0.9,0,1.8-0.1,2.6-0.2c-0.2-2.6,0-5.1-0.1-7.6c0.3,0,0.6,0,0.8,0c0,1.9,0,3.9,0,5.9c0,0.4,0.1,0.9,0.1,1.3c0,0.1-0.2,0.3-0.4,0.4
			c0.4,0,0.8,0,1.2,0v-0.1c-0.2,0-0.3-0.1-0.5-0.1c0-1,0-2,0-3c0-1.3,0-2.7,0-4c0-0.2,0.1-0.4,0.2-0.5c0.2-0.1,0.4-0.1,0.6,0
			c0.1,0,0.1,0.3,0.1,0.5c0,0.8,0,1.6,0,2.5c0,1.1,0,2.2,0,3.3c0,0.4,0,0.8,0.1,1.1c0,0.1,0.3,0.3,0.5,0.3c0.6,0,1.2-0.1,1.8-0.1
			c0.3,0,0.5-0.4,0.4-0.8c0-0.1-0.1-0.3-0.1-0.4c0-2.2,0-4.3,0-6.5c0-0.1,0-0.2,0-0.3c0.2,0,0.4,0,0.6,0c0,2.6,0,5.2,0,7.9
			c0.9-0.1,1.8-0.2,2.6-0.4c0-1.7,0-3.2,0-4.8c0-1,0.1-1.9,0.1-2.9c0-0.1,0.2-0.3,0.4-0.4c0.1,0.2,0.2,0.3,0.2,0.5
			c0,1.9-0.1,3.9-0.1,5.8c0,0.5,0,1,0,1.4c0,0.1,0.2,0.3,0.3,0.2c0.1,0,0.3-0.2,0.3-0.3c0-2.2,0-4.4-0.1-6.6c0-0.3,0-0.5,0-0.8
			c0-0.2,0.2-0.4,0.3-0.6c0.1,0,0.2,0,0.3,0.1c0,0.3,0,0.7,0,1c0,0.8,0,1.5,0,2.3c0,0.6-0.1,1.2-0.1,1.8c0,0.3,0.1,0.5,0.1,0.8
			c0,0.6,0,1.2,0,1.9c0,0.3,0,0.5,0.4,0.3c0.3-0.2,0.7-0.1,1-0.2c0.1,0,0.2-0.2,0.2-0.4c0-0.6-0.1-1.2,0.1-1.8
			c0.1-0.6-0.1-1.3-0.1-1.9c0-1.3,0.1-2.5,0.1-3.8c0-0.4,0.2-0.5,0.6-0.4c-0.1,2.7-0.2,5.4-0.2,8.3c1.8-0.4,3.4-0.8,5-1.1
			c0.3-0.1,0.5-0.2,0.3-0.6c-0.1-0.1,0-0.3,0-0.5c0-2.3,0.1-4.5,0-6.8c0-0.5,0.2-0.5,0.5-0.7c0,2.8,0,5.5,0,8.3
			c0.3-0.1,0.4-0.1,0.4-0.5c-0.1-0.7,0-1.5,0-2.3c0-0.6,0-1.2,0-1.8c0-1.1,0-2.2,0.1-3.2c0-0.2,0.2-0.5,0.4-0.7
			c0.1,1.4,0.2,2.7,0,4.1c-0.1,1.4,0,2.7,0,4.1c0.1,0,0.2,0,0.3,0c0.1-0.2,0.2-0.4,0.2-0.6c0-1.6,0-3.2,0-4.8c0-0.9,0-1.7,0-2.6
			c0-0.2,0.2-0.4,0.4-0.6c0.1,0,0.1,0.1,0.2,0.1c0,0.6-0.1,1.2-0.1,1.8s0,1.2,0,1.7c0,1.1-0.1,2.1-0.1,3.2c0,0.4,0.1,0.8,0.1,1.2
			c0,0.1,0.2,0.1,0.4,0.2c0-0.4-0.1-0.6-0.1-0.9c0-1.2,0.1-2.4,0.1-3.6c0-1.1,0-2.1,0-3.2c0-0.4,0.1-0.6,0.5-0.6c0,2.7,0,5.5,0,8.3
			c0.2,0.1,0.5,0.2,1,0.3c-1.2,0.3-2.3,0.6-3.3,0.8c-0.6,0.2-1.2,0.3-1.8,0.5c-0.9,0.2-1.8,0.3-2.6,0.5c-0.9,0.2-1.8,0.4-2.6,0.5
			c-0.9,0.2-1.9,0.3-2.8,0.4c-1.7,0.1-3.3,0.2-5,0.3c-0.9,0.1-1.7,0.2-2.6,0.2c-0.6,0-1.2-0.1-1.8-0.1c-1.3,0-2.7,0-4,0.1
			c-0.9,0-1.8,0.1-2.6,0.1c-0.6,0-1.1,0-1.7,0c-1.3-0.1-2.6-0.1-4-0.2c-1.7-0.1-3.4-0.1-5.1-0.2c-1-0.1-2.1-0.2-3.1-0.4
			c-0.5-0.1-1.1-0.2-1.6-0.2c-1,0-2-0.3-3-0.6c-0.6-0.2-1.2-0.2-1.8-0.3c-0.6-0.1-1.1-0.4-1.7-0.6c-1.1-0.4-2.2-0.8-3.3-1.1
			c-2.1-0.6-4-1.5-5.9-2.6c-0.3-0.2-0.7-0.4-1-0.7s-0.5-0.6-0.6-0.9c-0.1-1.7-0.2-3.5-0.1-5.2c0-1.5,0.2-3.1,0.4-4.6
			c0.1-0.7,0.5-1.3,0.8-2c0.2-0.5,0.5-0.9,0-1.4c-0.1-0.1-0.1-0.3-0.1-0.5c0-0.4,0.1-0.8,0.1-1.1c0.1-2.4,1.1-4.4,3-5.9
			c0.7-0.5,1.5-1,2.3-1.4c1.4-0.8,2.9-1.5,4.4-2.2c0.6-0.3,1.3-0.5,2.1-0.8c-0.2-0.6,0.2-1.1,0.6-1.6c0.6-0.8,1.2-1.6,1.7-2.5
			c0.6-1.1,1.2-2.2,1.8-3.4c0.5-1.1,1.1-2.1,1.5-3.2c0.3-0.6,0.4-1.3,0.7-1.9c0.4-1.1,0.9-2.1,1.3-3.3c0.4-1.1,0.6-2.3,0.8-3.5
			c0.2-1.1,0.5-2.2,0.7-3.3c0.3-1.6,0.7-3.3,1-4.9c0-0.1,0-0.2,0.1-0.3c0.5-0.9,0.3-2,0.4-3c0.1-1.3,0.3-2.7,0.5-4
			c0.1-1,0.2-1.9,0.3-2.9s0.3-1.9,0.3-2.9c0-0.5-0.1-0.9-0.1-1.4c0-1.2,0.1-2.4,0.1-3.6c0-0.3,0-0.6,0-0.9c0-0.7,0-1.5,0-2.2
			c-0.1-1.9-0.2-3.8-0.3-5.8c-0.1-0.9-0.1-1.8-0.1-2.7c-0.1-0.6-0.2-1.2-0.3-1.9c-0.1-0.7-0.7-1-1.3-1.1c-0.4-0.1-0.7,0.1-1.1,0.1
			c-0.3,0-0.5,0-0.8-0.1c-1.4-0.4-2.9-0.7-4.3-1.2c-0.6-0.2-1.1-0.5-1.7-0.8c-0.5-0.2-1-0.5-1.6-0.8c-1-0.5-1.9-1.2-2.4-2.3
			c-0.4-0.8-0.9-1.6-1.2-2.4c-0.4-1,0-1.8,0.7-2.5c0.5-0.6,0.8-1.3,1.2-2c0.8-1.4,2-2.2,3.5-2.6c1.2-0.3,2.4-0.8,3.6-1.3
			c0.2-0.1,0.4-0.4,0.4-0.6c0.1-0.5,0.4-0.8,0.7-1.1c1-1,2.3-1.3,3.4-1.9c0.2-0.1,0.5-0.2,0.8-0.2c0.6,0,0.9-0.3,1-0.8
			s0.1-1,0.2-1.5c0.1-0.5-0.2-0.7-0.5-0.9c-0.7-0.4-1.1-1.7-0.7-2.4c0.2-0.3,0.6-0.6,1-0.8c0.4-0.2,0.5-0.4,0.5-0.8
			c0.1-0.6,0.2-1.2,0.2-1.9c0-0.4-0.2-0.7-0.2-1.1c-0.1-0.9-0.3-1.8-0.4-2.7c-0.1-1.4-0.2-2.7-0.4-4.1c-0.2-1.5-0.5-3-0.5-4.5
			c0-0.6-0.3-1-0.4-1.5c-0.2-0.6-0.2-1.3-0.4-2c-0.2-1-0.5-2-0.7-2.9c0-0.2-0.2-0.3-0.2-0.5c-0.2-0.4-0.3-0.7-0.4-1.1
			C30.4,57.9,30.4,58,30.3,58z M68.6,42.8c0-0.8-0.5-1.3-1.2-1.6C67.8,41.7,68.2,42.2,68.6,42.8c0.6,1.3,1,2.8,1.1,4.3
			c0.1-0.1,0.1-0.2,0.1-0.2c0-1.3-0.4-2.6-0.9-3.8C68.9,42.9,68.7,42.8,68.6,42.8z M65.7,168.9c-0.1,0-0.2,0-0.3,0.1
			c-2.7,1.1-5.4,2-8.3,2.3c-1.9,0.2-3.9,0.6-5.8,0.8c-2,0.2-4,0.4-6.1,0.6c-0.5,0.1-1.1,0.1-1.6,0.1c-0.8,0-1.6,0.1-2.3,0
			c-1.2-0.1-2.4-0.2-3.7-0.4c-1.6-0.2-3.2-0.5-4.8-0.7c-0.8-0.1-1.5-0.3-2.2-0.5c-0.9-0.3-1.8-0.5-2.7-0.9c-0.8-0.3-1.6-0.6-2.4-0.9
			c-1.1-0.5-2.1-1-3.1-1.7c-0.4-0.3-0.6-0.4-1.1-0.3c-0.3,0.1-0.7,0.3-1.1,0.5c0.2,0.1,0.2,0.1,0.2,0.1c0.1,0,0.1,0,0.2-0.1
			c0.7-0.3,1.4-0.7,1.9,0.2c0,0.1,0.1,0.1,0.2,0.1c1.1,0.5,2.1,1,3.2,1.5c0.6,0.3,1.2,0.7,1.8,0.8c1.3,0.4,2.7,0.7,4,1
			c1.3,0.3,2.6,0.6,3.9,0.8s2.6,0.3,3.9,0.5c-0.6,0.9-1.3,1.8-1.7,2.8c-0.8,1.8-1.4,3.6-1.4,5.6c0,1.2,0.1,2.4,0.2,3.6
			c0,0.3,0.2,0.5,0.3,0.8c0.1,0,0.1,0,0.2,0c-0.2-2.2-0.5-4.4,0-6.6c0.5-2.2,1.4-4.2,2.8-6.1c-0.2,0.5-0.5,0.9-0.7,1.4
			c-0.5,1.3-0.9,2.5-1.3,3.8c-0.2,1-0.3,2-0.4,3c0,0.4,0.1,0.8,0.1,1.2c0,0.2-0.2,0.3-0.2,0.5c0.1,0.4,0.2,0.9,0.3,1.3
			c0.1,0.3,0.2,0.6,0.3,0.9c0.5-0.7-0.1-1.4,0.1-2.1c0.6-0.2,0.7,0.3,0.8,0.7c0.1,0.6,0.3,1.1,0.4,1.7c0.1,0,0.1,0,0.2,0
			c-0.1-0.7-0.2-1.5-0.3-2.2c0.1,0,0.2,0,0.2-0.1c0.8,1.2,0.3,2.8,1.2,3.9c0.1,0,0.1,0,0.2,0c-0.2-1.2-0.5-2.5-0.7-3.7
			c0.5,0,0.6,0.1,0.7,0.7c0,0.6,0.1,1.2,0.6,1.7c0.1,0,0.1,0,0.2,0c-0.1-0.4-0.2-0.8-0.3-1.3c0.6,0,0.6,0.4,0.6,0.7
			c0.1,0.4,0.2,0.7,0.2,1.1c0.1,0,0.2,0,0.3,0c0-0.3,0.1-0.5,0.1-0.8c0.3,0,0.6,0,0.9,0c0.8,0.1,1.6-0.2,2.4,0.1
			c0.4,0.1,1-0.2,1.5-0.3c0.8-0.1,1.6-0.1,2.4-0.2c0.4,0,0.6,0.1,0.6,0.5c0,0.2,0,0.4,0,0.5c-1.6,0.1-3.1,0.2-4.5,0.6
			c0.5,0.1,0.9,0.1,1.4,0c1-0.1,1.9-0.2,2.9-0.2c0.8,0,1.5-0.4,2.3,0.1c0.3-0.3,0.7-0.8,1-0.2c0.3-0.1,0.5-0.3,0.8-0.4
			c0.4-0.1,0.8-0.1,0.7-0.7c0-0.1,0-0.3,0.1-0.4c0.2-0.1,0.4-0.3,0.6-0.3c0,0,0.2,0.3,0.3,0.4c0,0.2,0,0.4,0,0.6
			c0,0.2,0.1,0.3,0.1,0.5c0.6-1.5,0.6-1.5,0.9-1.5c0,0.3,0.1,0.6,0.1,0.9c0.1,0,0.2,0,0.2,0c0.1-0.6,0.2-1.1,0.3-1.7
			c0-0.2,0.2-0.4,0.3-0.6c0.1,0,0.2,0,0.2,0.1c0,0.8,0,1.6,0,2.3c0.2-0.1,0.3-0.2,0.3-0.3c0.1-1,0.3-1.9,0.2-2.9
			c-0.1-1.8-0.3-3.7-1-5.4c-0.3-0.8-0.6-1.6-0.9-2.3c-0.4-0.9-0.9-1.8-1.4-2.7c0.2-0.1,0.4-0.1,0.6-0.2c2.3,4.3,4,8.8,3.2,13.8
			c0.2-0.1,0.4-0.2,0.5-0.4c0.1-0.5,0.1-0.9,0.1-1.4c0.1-1.6-0.2-3.2-0.5-4.7c-0.5-2.4-1.6-4.7-2.8-6.9c-0.1-0.1,0-0.3-0.1-0.5
			c0.2,0.1,0.5,0.1,0.5,0.2c0.7,1.3,1.4,2.6,2,3.9c0.4,1,0.6,2.1,0.9,3.1c0.5,1.7,0.7,3.4,0.4,5.2c0,0.3,0,0.7,0,1.2
			c1.4-1.7,0-9.2-3.2-13.7c0.5-0.2,0.8-0.2,1,0.4c0.7,1.5,1.5,3,2.2,4.6c0.3,0.8,0.5,1.6,0.7,2.5c0.2,1.1,0.5,2.2,0.6,3.4
			c0.1,0.7-0.1,1.4-0.2,2.1c0,0.2,0.1,0.4,0.1,0.6c0.1,0,0.2,0,0.3-0.1c0.8-5.1-1.3-9.4-3.8-13.8c0.2,0,0.4,0,0.5,0.1
			c2.8,4.2,4.8,8.7,4.1,14c0.2-0.2,0.4-0.4,0.5-0.7c0.1-0.7,0.1-1.4,0.1-2.1c0-1.5-0.3-2.9-0.8-4.3c-0.4-1.3-1-2.6-1.6-3.8
			c-0.6-1.1-1.3-2.2-2.1-3.4c0.4,0.1,0.8,0,0.9,0.2c0.5,0.5,0.9,1.1,1.3,1.6c1.3,2,2.6,4,3.4,6.2c0.3,1,0.5,1.9,0.5,3
			c0,0.7,0,1.3,0,2.2c0.1-0.2,0.2-0.3,0.2-0.5c0.4-1.5,0.3-3-0.2-4.5c-0.3-0.9-0.7-1.7-1.1-2.5c-0.8-1.3-1.6-2.7-2.5-4
			c-0.4-0.6-0.9-1.2-1.5-1.9c0.1,0,0.3,0,0.4,0c3.6,3.5,6.1,7.6,6,13c0.2-0.3,0.3-0.3,0.3-0.4c0.1-0.4,0.2-0.9,0.1-1.3
			c-0.2-1-0.4-2.1-0.7-3.1c-0.7-2.5-2.2-4.5-3.7-6.5c-0.5-0.6-1.1-1.2-1.7-1.8c0.4-0.3,0.7-0.2,1,0.2c0.1,0.2,0.2,0.3,0.4,0.5
			c0.7,0.7,1.4,1.4,2,2.2c1.1,1.5,2,3.2,2.6,4.9c0.5,1.4,0.9,2.7,0.6,4.2c0,0.1,0.1,0.3,0.2,0.4c0.2-0.2,0.2-0.4,0.3-0.6
			c0.2-1.1-0.1-2.1-0.3-3.1c-0.6-2.2-1.7-4.2-3.1-6.1c-0.7-0.9-1.3-1.8-2.3-2.4c-0.2-0.1-0.3-0.3-0.6-0.6c0.7,0,1.2-0.6,1.8-0.1
			c1.1,1,2.1,1.9,3.1,3c1.4,1.5,2.6,3.2,3.2,5.2c0.3,0.9,0.3,1.8,0.4,2.7c0.1,0.6,0,1.1,0,1.7c0.1,0.1,0.1,0.2,0.2,0.2
			c0-0.1,0-0.3,0.1-0.4c0-0.5,0.1-1,0.1-1.6c0.1-1.8-0.5-3.5-1.5-5c-0.9-1.4-2-2.7-3.1-4c-0.7-0.8-1.7-1.5-2.6-2.3
			c0.4,0,0.7,0,1,0.1s0.6,0.4,0.9,0.6c2.3,1.7,4,3.8,5.2,6.4c0.7,1.4,1.3,2.9,1,4.5c0,0.3,0,0.6,0,0.9c0.1-0.1,0.3-0.1,0.3-0.2
			c0.1-0.6,0.2-1.1,0.2-1.7c0-0.4-0.1-0.8-0.3-1.2c-0.3-0.9-0.5-1.9-1-2.7c-0.6-1.1-1.3-2.1-2.1-3.1c-0.8-0.9-1.7-1.7-2.5-2.5
			c-0.5-0.5-1.1-0.8-1.7-1.2c0.4-0.2,0.6-0.3,1-0.1c1.6,1.1,3,2.4,4.3,3.9c1.6,1.9,2.9,3.9,3.1,6.5c0,0.6,0.1,1.1,0.2,1.7
			c0.2-0.1,0.3-0.3,0.3-0.4c0.1-2-0.5-3.8-1.5-5.5c-0.4-0.7-0.9-1.4-1.4-2c-0.9-1-1.9-2-2.9-3c-0.6-0.6-1.3-1-2.1-1.5
			c0.3-0.1,0.5-0.2,0.6-0.3C65.4,169.2,65.6,169,65.7,168.9c0.3,0.1,0.6,0.2,0.8,0.4c0.9,0.6,1.8,1.2,2.6,2c0.8,0.7,1.6,1.5,2.4,2.3
			c0.7,0.8,1.3,1.8,1.9,2.7c0.5,0.8,1,1.6,1.1,2.6c0.1,0.7,0.2,1.4,0.3,2.2c0.2-0.1,0.3-0.3,0.3-0.4c0-0.9-0.1-1.7-0.3-2.5
			c-0.6-1.8-1.7-3.2-2.9-4.6c-1.3-1.5-2.7-2.9-4.5-3.9c-0.4-0.2-0.6-0.5-1-0.8c0.3-0.3,0.5-0.4,0.7-0.6c0,0,0-0.1-0.1-0.1
			C66.6,168.4,66.2,168.7,65.7,168.9z M49.4,170.2c-0.2,0-0.4,0-0.5-0.1s-0.2-0.3-0.3-0.4c-0.1-0.1,0-0.3,0-0.5
			c-0.1-0.4-0.4-0.8,0.4-0.8c-0.3-0.2-0.5-0.3-0.7-0.4c0.2-0.2,0.3-0.3,0.5-0.4c-0.5-0.4-0.5-1.3-0.2-1.8c-0.2-0.2-0.4-0.4-0.4-0.6
			c-0.1-0.8-0.2-1.6-0.3-2.5c-0.2-2-0.3-4-0.5-6c0-0.3-0.1-0.6-0.2-0.8c-0.1,0-0.1,0-0.2,0c0,0.5,0.1,1,0.1,1.5
			c0.1,1.6,0.2,3.2,0.2,4.8c0,0.7,0.1,1.3,0.1,2c0,0.2-0.1,0.3-0.1,0.5c-0.1-0.2-0.3-0.3-0.4-0.5c-0.1-1.5-0.2-2.9-0.4-4.4
			c-0.1-0.9-0.2-1.8-0.3-2.7h-0.1c0,0.2,0,0.5,0,0.7c0,0.9,0,1.9,0.1,2.8c0,0.9,0.1,1.9,0.2,2.8c0,0.1-0.1,0.3-0.2,0.3
			c-0.1,0-0.3,0-0.4-0.1c-0.1-0.1-0.1-0.3-0.1-0.4c-0.1-1.7-0.2-3.4-0.2-5.2c0-0.4-0.1-0.8-0.2-1.1c-0.1,1.4-0.1,2.8-0.1,4.1
			c0,0.8,0,1.7,0,2.5c0,0.1-0.1,0.2-0.2,0.3c-0.1-0.1-0.2-0.2-0.3-0.3c-0.1-0.8-0.1-1.6-0.1-2.4c0-0.7,0-1.4-0.1-2.1
			c0-0.3-0.1-0.6-0.1-0.8c-0.1,0-0.1,0-0.2,0c0,1.9,0,3.8,0,5.7c-0.6,0-0.7-0.3-0.7-0.7c0-0.9,0-1.7,0-2.6c0-0.5-0.2-1.1-0.2-1.6
			c-0.1,0-0.2,0-0.3,0c0,1.7,0,3.3,0,5.1c-0.8-0.5-0.5-1.2-0.5-1.7c-0.1-0.5,0-1.1,0-1.6s-0.1-1.1-0.1-1.6c-0.1,0.2-0.2,0.4-0.2,0.7
			c-0.1,1.9-0.2,3.9-0.2,5.8c0,0.7-0.1,1.3-0.1,2c0,0.2-0.2,0.3-0.3,0.4l-0.1-0.1c0.1-1.3,0.4-2.5,0.4-3.8c0.1-1.3,0-2.6,0-3.9
			c-0.1,0-0.1,0-0.2,0c-0.1,1.4-0.2,2.8-0.3,4.2c-0.1,1.1-0.3,2.2-0.4,3.3c-0.1,0.6-0.5,1-0.4,1.7c0.1,0.4-0.3,0.5-0.7,0.3
			c0.5-2.9,1.1-5.7,0.8-8.6c-0.1,0.2-0.1,0.4-0.2,0.5c-0.1,1-0.1,2.1-0.3,3.1c-0.3,1.9-0.8,3.7-1.2,5.6c-0.1,0.6-0.3,0.6-0.8,0.4
			c0.8-2.3,1.4-4.7,1.3-7.2c-0.3,0.9-0.6,1.9-0.7,2.8c-0.1,1.4-0.7,2.7-1.1,4.1c0,0.2-0.4,0.2-0.6,0.4c0-0.2-0.1-0.4-0.1-0.6
			c0.3-1.1,0.6-2.2,0.9-3.3c0.1-0.3,0-0.6,0-0.8c-0.1,0-0.1,0-0.2,0c-0.1,0.1-0.2,0.3-0.2,0.4c-0.3,1-0.5,2.1-0.8,3.1
			c-0.1,0.3-0.2,0.6-0.4,0.9c-0.1,0.1-0.3,0.1-0.5,0.2c0-0.2-0.1-0.3-0.1-0.5c0.1-0.5,0.4-0.9,0.5-1.4c0.1-0.4,0.1-0.8,0.2-1.2
			c-0.5,0.9-0.8,1.8-1.2,2.6c-0.1,0.2-0.4,0.2-0.5,0.3c0-0.2-0.1-0.4-0.1-0.5c0-0.3,0.1-0.6,0.2-0.9c-0.3,0.3-0.5,0.7-0.7,1
			c-0.1,0.1-0.3,0.2-0.5,0.3c0-0.2-0.1-0.4,0-0.6c0.1-0.3,0.2-0.7,0.2-1c-0.1,0-0.1,0-0.2,0c-0.1,0.1-0.3,0.3-0.3,0.4
			c-0.2,0.6-0.4,1.1-1.2,0.8c0,0,0,0-0.1,0.1c0.1,0.1,0.2,0.2,0.4,0.2c0.7,0.2,1.5,0.3,2.2,0.4c1.4,0.2,2.8,0.5,4.2,0.6
			c0.6,0.1,1.2,0.1,1.8,0.1s1.2,0,1.8,0c1.3,0,2.6,0.2,3.9,0.1c1.6-0.1,3.1-0.3,4.7-0.5c1-0.1,2.1-0.2,3.1-0.4
			c1.2-0.2,2.4-0.5,3.6-0.7c1-0.2,2-0.4,3-0.8c1.2-0.4,2.4-0.8,3.6-1.3c1-0.5,1.9-1.1,2.8-1.6c-0.3-0.5-0.6-1-0.8-1.4
			c-0.7-1.2-1.5-2.5-2.2-3.8c-1-2-1.9-3.9-2.7-6c-0.8-2-1.4-4-2-6c-0.3-1.1-0.7-2.2-0.9-3.3c-0.3-1.4-0.5-2.9-0.7-4.3
			c-0.3-2.2-0.7-4.3-1-6.5c-0.3-2.1-0.5-4.3-0.7-6.4c-0.1-0.6-0.2-1.3-0.2-1.9c-0.1-1.1-0.1-2.1-0.2-3.2c0-1,0-2,0-2.9
			c0,0-0.1-0.1-0.2-0.1c0,0.2,0,0.3,0,0.4c0,1.8,0,3.5,0.1,5.3c0,1,0.1,2.1,0.2,3.1c0.1,1.3,0.3,2.6,0.5,3.8
			c0.1,1.1,0.2,2.1,0.4,3.2c0.2,1.2,0.4,2.4,0.6,3.6c0.2,1.6,0.4,3.2,0.8,4.7c0.6,2.5,1.3,5.1,2,7.6c0.6,1.9,1.3,3.8,2.1,5.7
			c0.8,1.7,1.7,3.3,2.6,5c0.5,1,1.2,2,1.7,2.9c0.1,0.2,0.3,0.5,0,0.6c-0.2,0.1-0.5,0-0.6-0.2c-0.3-0.3-0.5-0.7-0.8-1.1
			c-0.6-1-1.1-2-1.7-3c-0.5-0.9-1-1.8-1.4-2.7c-0.5-1.1-1-2.1-1.3-3.3c-0.2-1-0.8-1.9-1.1-2.9c-0.3-0.9-0.6-1.8-0.9-2.7
			c-0.4-1.4-0.9-2.8-1.3-4.2c-0.4-1.6-0.7-3.2-1-4.8c-0.2-1.3-0.4-2.6-0.5-3.9c-0.1-0.8,0-1.5,0-2.3c0-0.7-0.1-1.4-0.2-2.1
			c0-0.1-0.1-0.1-0.2-0.2c-0.1,0-0.1,0-0.2,0.1c0.5,12.1,4,23.4,10.3,33.8c-0.5,0.5-0.8,0.6-1.1,0.2c-0.5-0.7-1-1.4-1.3-2.1
			c-0.9-1.8-1.7-3.6-2.5-5.4c-0.4-1-0.8-2-1.2-3s-0.6-2-1-3c-0.5-1.4-0.9-2.8-1.4-4.2c-0.3-1-0.6-1.9-0.8-2.9
			c-0.3-1.4-0.6-2.9-0.8-4.3c-0.2-1.3-0.5-2.6-0.6-4c-0.1-1.3-0.2-2.7-0.3-4c0-0.3-0.1-0.7-0.2-1c-0.1,0-0.1,0-0.2,0
			c0.1,0.8,0.1,1.5,0.2,2.3c0.1,0.9,0.1,1.8,0.2,2.7c0.2,1.4,0.4,2.8,0.6,4.1c0.4,2,0.7,4,1.2,5.9c0.2,1,0.6,2,1,3.1
			c0.6,2,1.2,4,1.9,5.9c0.6,1.6,1.2,3.1,1.9,4.7c0.5,1.1,1,2.2,1.5,3.2c0.4,0.8,1,1.7,1.5,2.5c-0.4,0-0.7,0.6-1,0
			c-0.7-1.1-1.4-2.2-2-3.4c-0.5-0.9-0.9-1.8-1.2-2.7c-0.7-1.7-1.3-3.4-1.9-5.1c-0.4-1.1-0.7-2.2-1.1-3.3c-0.3-1.1-0.7-2.1-1-3.2
			c-0.4-1.9-0.8-3.8-1.1-5.7c-0.3-1.7-0.5-3.4-0.8-5.1c-0.1-0.8-0.2-1.6-0.3-2.5c0-0.1-0.1-0.2-0.2-0.3c-0.1,0.2-0.1,0.3-0.1,0.4
			c0.2,1.6,0.3,3.2,0.6,4.8c0.3,1.9,0.5,3.7,0.9,5.6c0.4,1.9,0.9,3.7,1.5,5.5c0.6,2.1,1.3,4.3,2,6.4c0.8,2.1,1.7,4.1,2.6,6.1
			c0.3,0.7,0.7,1.4,1.1,2c0.6,0.8,0.5,1-0.3,1.3c0,0,0,0-0.1,0c-0.2-0.1-0.5-0.1-0.5-0.3c-0.4-0.7-0.7-1.4-1.1-2.1
			c-0.5-1.2-1.1-2.4-1.6-3.7c-0.6-1.8-1.2-3.5-1.8-5.3c-0.4-1.4-0.9-2.7-1.2-4.1c-0.6-2.5-1.1-5-1.6-7.5c-0.3-1.4-0.4-2.8-0.6-4.1
			c0-0.2-0.1-0.4-0.2-0.5c-0.1,0-0.1,0-0.2,0c0.2,1.6,0.3,3.1,0.6,4.7c0.3,2,0.7,3.9,1.1,5.9c0.4,1.8,0.9,3.7,1.5,5.5
			c0.6,1.9,1.2,3.7,1.9,5.5s1.4,3.6,2.2,5.4c0.4,0.9,0.4,0.9-0.6,1.4c-0.1-0.2-0.3-0.4-0.4-0.7c-0.6-1.5-1.2-3-1.8-4.5
			c-0.4-1.2-0.8-2.4-1.1-3.6c-0.5-1.9-1.1-3.7-1.5-5.6c-0.4-1.7-0.7-3.4-1.1-5c-0.2-1.2-0.5-2.4-0.7-3.6c-0.3-1.8-0.5-3.6-0.7-5.3
			c-0.1,0-0.1,0-0.2,0c0.1,0.6,0.1,1.1,0.2,1.7c0.2,1.7,0.3,3.4,0.6,5.1c0.3,1.8,0.7,3.5,1.1,5.2c0.2,1,0.5,2.1,0.7,3.1
			c0.2,0.9,0.4,1.9,0.7,2.8c0.5,1.6,0.9,3.1,1.5,4.7c0.5,1.5,1,3.1,1.7,4.5c0.5,1.1,0.5,1.2-0.6,1.4c-0.1,0-0.2,0.1-0.4,0.1
			c-0.4-1.1-0.9-2.1-1.3-3.2c-0.3-0.8-0.4-1.7-0.7-2.5c-0.2-0.6-0.4-1.2-0.6-1.9c-0.4-1.6-0.7-3.3-1-4.9c-0.2-1.1-0.5-2.3-0.6-3.4
			c-0.2-1.3-0.4-2.5-0.6-3.8c-0.2-1.2-0.4-2.4-0.5-3.7c-0.1-0.6-0.2-1.1-0.2-1.7c-0.1,0-0.2,0-0.3,0c1,8.5,2.2,17,5.2,25.3
			c-0.4,0-1,0.1-1.2-0.1c-0.3-0.3-0.5-0.9-0.6-1.4c-0.3-1-0.6-2.1-0.9-3.1c-0.3-1-0.6-2-0.8-3c-0.3-1.7-0.6-3.5-0.9-5.2
			c-0.1-0.8-0.3-1.7-0.5-2.5c-0.1-0.9-0.2-1.7-0.4-2.6c-0.2-1.3-0.4-2.6-0.6-3.8c-0.1-0.8-0.2-1.7-0.2-2.5c-0.1-0.6-0.1-1.2-0.2-1.9
			c0-0.2-0.1-0.3-0.1-0.5c-0.1,0.2-0.2,0.3-0.1,0.4c0.2,1.8,0.3,3.7,0.5,5.5c0.1,0.9,0.2,1.8,0.3,2.6c0.1,0.9,0.3,1.9,0.5,2.8
			c0.2,1.3,0.3,2.6,0.5,3.9c0.3,1.6,0.6,3.3,1,4.9c0.5,2.1,0.9,4.2,1.8,6.1c0.2,0.4,0.3,0.7-0.4,0.8c-0.4,0.1-0.5,0-0.6-0.3
			c-0.2-0.4-0.3-0.8-0.4-1.2c-0.4-1.9-0.9-3.8-1.2-5.7c-0.3-1.6-0.7-3.3-0.9-5c-0.3-2.3-0.6-4.5-0.8-6.8c-0.2-1.4-0.2-2.9-0.4-4.4
			c0-0.3-0.1-0.6-0.1-0.9c-0.1,0.6-0.1,1.1-0.1,1.7c0,1.3,0,2.6,0.1,3.9c0.1,1.6,0.4,3.2,0.6,4.9c0.1,0.7,0.2,1.5,0.3,2.2
			c0.2,0.9,0.3,1.7,0.5,2.6c0.3,1.4,0.5,2.9,0.8,4.3c0.3,1.5,0.7,2.9,1.1,4.4c0,0.2,0,0.5-0.1,0.5c-0.2,0-0.5,0-0.7-0.1
			c-0.1-0.1-0.2-0.3-0.3-0.5c-0.3-1.4-0.7-2.8-0.9-4.1c-0.4-1.9-0.7-3.8-1-5.7c-0.2-1.4-0.3-2.9-0.5-4.3c-0.2-1.8-0.4-3.7-0.6-5.5
			c0-0.4-0.1-0.8-0.2-1.1c-0.1,0-0.1,0-0.2,0c0,0.4,0,0.7,0,1.1c0.1,1.2,0.2,2.5,0.4,3.7c0.1,1.3,0.2,2.6,0.4,3.8
			c0.1,1.1,0.3,2.1,0.5,3.2c0.2,1.6,0.5,3.2,0.8,4.8c0.3,1.5,0.7,3,1,4.5c0,0.2-0.2,0.4-0.2,0.6c-0.2-0.1-0.5-0.3-0.6-0.4
			c-0.3-1-0.5-2-0.7-3c-0.2-0.8-0.4-1.5-0.5-2.3c-0.2-1.1-0.4-2.2-0.5-3.4c-0.2-1.5-0.4-2.9-0.6-4.4c-0.1-1-0.2-1.9-0.3-2.9
			s-0.2-2-0.2-3.1c0-0.2,0.1-0.4,0.1-0.6c-0.1-1.1-0.2-2.1-0.2-3.2c-0.1-2.8-0.2-5.7-0.2-8.5c0-0.2,0-0.3-0.1-0.5
			c-0.1,0-0.1,0-0.2,0c0,0.9,0,1.8,0,2.7c0,1.2,0,2.4,0,3.5c0.1,2,0.2,3.9,0.3,5.9c0,0.9,0,1.8,0,2.7c0.1,1.3,0.2,2.6,0.3,3.9
			c0.2,1.5,0.3,3,0.5,4.5c0.2,1.2,0.5,2.5,0.7,3.7c0.3,1.6,0.6,3.2,0.9,4.7c0.1,0.5,0.1,0.5-0.1,0.5c-0.3,0-0.6,0.2-0.7-0.4
			c-0.2-1.5-0.5-3-0.8-4.5c-0.1-0.6-0.2-1.2-0.2-1.8c-0.1-0.8-0.2-1.7-0.3-2.5c-0.1-1.3-0.3-2.6-0.5-3.9c-0.1-1.3-0.2-2.6-0.3-3.9
			c0-0.2-0.1-0.3-0.2-0.5c0,5.9,0.7,11.8,1.7,17.6c-0.4,0-0.6,0.1-0.9,0.1C48.6,170.5,48.6,170.5,49.4,170.2z M34.7,117
			c-0.1,0-0.1,0-0.2,0c0,0.2,0,0.4,0,0.6c0,1.3,0.1,2.6,0.1,3.8c0,1.4-0.1,2.8-0.2,4.3c-0.1,1.5-0.1,3-0.2,4.4c-0.2,2-0.3,4-0.6,6.1
			c-0.3,2.2-0.6,4.4-1.1,6.6c-0.6,2.8-1.4,5.5-2.2,8.3c-0.4,1.5-0.9,3-1.5,4.4c-0.5,1.3-1.1,2.5-1.7,3.7c-0.6,1.3-1.2,2.7-1.9,4
			c-0.5,1-1.1,2-1.7,2.9c-0.1,0-0.1-0.1-0.2-0.1c2-4.1,4.3-8,5.4-12.5c-0.1,0-0.3,0.1-0.3,0.2c-0.4,1.1-0.8,2.1-1.2,3.2
			c-0.6,1.5-1.1,3-1.8,4.4c-0.8,1.5-1.7,2.9-2.5,4.4c-0.2,0.3-0.2,0.4,0.1,0.6c0.3,0.2,0.5,0.6,0.8,0.8c0.1,0.1,0.2,0.1,0.4,0.2
			c0.1,0.1,0.3,0.1,0.4,0.1c0.4,0.2,0.8,0.5,1.2,0.7c1.6,0.6,3.2,1.2,4.8,1.7c0.1,0,0.2-0.1,0.3-0.1c0-0.1,0-0.1,0-0.2
			c-0.8-0.2-1.7-0.5-2.6-0.8c0.3-0.7,0.5-1.4,0.8-2.1H29c-0.4,0.7-0.7,1.4-1,2c-0.6-0.1-0.7-0.3-0.4-0.8c0.2-0.3,0.4-0.6,0.6-1
			c0.5-1.2,1-2.3,1.5-3.5c0-0.1-0.1-0.2-0.2-0.4c-0.7,2-1.5,3.7-2.7,5.3c-0.1-0.2-0.2-0.4-0.1-0.5c0.3-0.5,0.6-1,0.8-1.5
			c0.8-1.7,1.6-3.5,2.4-5.2c0.3-0.6,0.4-1.2,0.6-1.8c0.3-0.9,0.7-1.9,1-2.8c-0.1,0-0.2-0.1-0.2-0.1c-1.2,4.1-2.8,8-5.2,11.6
			c-0.3-0.2-0.6-0.4-0.9-0.5c0.4-0.7,0.7-1.3,1.1-2c0.6-1.2,1.3-2.3,1.9-3.5c0.7-1.7,1.4-3.4,2-5.1c0.5-1.4,1-2.9,1.4-4.4
			c0.5-1.6,0.9-3.3,1.3-5c0.4-2,0.9-4,0.9-6.1c0-1.5,0.3-2.9,0.5-4.4c0.2-1.6,0.4-3.2,0.5-4.8c0-0.8-0.2-1.7-0.2-2.6
			c0-1.4,0.2-2.7,0.2-4.1c0-2.3,0-4.5,0-6.8C34.9,118.1,34.8,117.6,34.7,117z M51.7,45.9c0,1.4,0,2.8,0,4.1c0,0.5-0.1,0.9-0.1,1.4
			c0.3,0,0.6,0,1,0c-0.7,0-0.5-0.5-0.5-0.9c0-0.3,0.1-0.7,0.1-1c-0.1-1.6-0.2-3.2-0.4-4.8c-0.1-0.5-0.3-1-0.5-1.5c0,0-0.1,0-0.1,0.1
			c0.1,0.5,0.2,1,0.4,1.4c-0.9,0.1-1.1-0.1-0.8-0.8c-0.2-0.4-0.3-0.7-0.4-1c-0.1-0.1-0.2-0.3-0.3-0.3c-0.2-0.1-0.4,0-0.6,0
			c0-0.5-0.4-0.4-0.7-0.5c-0.3,0-0.7,0-1,0c-0.6,0-1.2,0.1-1.9,0.1c0,0.1,0,0.1,0,0.2c0.6,0,1.2,0.1,1.7,0.1c0,0.1,0,0.1,0,0.2
			c-0.8,0-1.7,0.1-2.5,0.1c1.3,0.1,2.7,0.1,4,0.1c0.2,0,0.4,0,0.6,0c0.2,0,0.5-0.1,0.5,0c0.1,0.2,0.1,0.5,0.2,0.7
			c-0.1,0-0.1,0.1-0.2,0.1c-0.5-0.8-1.3-0.4-2-0.5c-0.4,0-0.8,0-1.2,0c-1,0-2,0.1-3.1,0.1c0.1,0.1,0.2,0.2,0.3,0.3
			c-0.5,0.3-0.9,0.2-1.1-0.5c-0.3,0.3-0.5,0.6-0.5,1.1c0.1,0.5-0.2,1.1-0.2,1.6c-0.1,1.6-0.2,3.3-0.2,4.9c0,0.2,0.1,0.4,0.2,0.6
			c0.1,0,0.1,0,0.2,0c0-0.4,0-0.7,0.1-1.1c0-1.4,0.1-2.9,0.1-4.3c0-0.4,0.4-0.5,0.5-0.3c0.2,0.2,0.8-0.2,0.7,0.5
			c-0.1,0.9-0.1,1.9-0.1,2.8c0,0.8,0,1.6,0,2.5c0.2,0,0.3,0,0.4,0c0-1-0.1-1.9-0.1-2.8c0-0.8,0.1-1.6,0.1-2.4c0-0.4,0.2-0.5,0.5-0.5
			s0.4,0.2,0.4,0.4c0,0.8,0,1.7,0,2.5c0,0.9-0.1,1.7-0.1,2.6c0,0.1,0.1,0.2,0.2,0.2c0.1,0,0.1,0,0.2-0.1c0-1.3,0-2.6,0-4
			c0-0.4,0.1-0.7,0-1.1c-0.1-0.7-0.1-0.7,0.7-0.6c-0.1,1.9-0.1,3.8-0.2,5.6c0.2-0.1,0.2-0.2,0.2-0.3c0.1-0.9,0.2-1.8,0.2-2.7
			c0-0.8,0.2-1.6-0.1-2.4c0-0.1,0.1-0.3,0.1-0.3c0.2-0.1,0.4-0.1,0.5,0c0.1,0,0.2,0.2,0.2,0.3c-0.3,0.5,0.1,1,0,1.6
			c-0.1,1.3-0.2,2.6-0.3,3.9c0.3,0.1,0.4-0.1,0.4-0.5c0-1.3,0.1-2.6,0.1-3.9c0-0.3,0-0.7,0-1.2c0,0,0.2-0.1,0.5-0.3c0,2,0,3.9,0,5.9
			c0.2-0.2,0.3-0.2,0.3-0.3c0.1-0.9,0.1-1.7,0.1-2.6c0-0.6-0.1-1.1-0.1-1.7c0-0.4,0.2-0.5,0.5-0.4c0.1,0,0.3,0.3,0.3,0.5
			c0,0.4,0,0.7-0.1,1.1c0,1,0,2-0.1,2.9c0,0.1,0,0.2,0,0.4l0.2,0.1c0.1-0.1,0.2-0.3,0.2-0.4c0-0.5,0-0.9,0-1.4c0-0.9,0-1.8,0-2.7
			c0-0.2,0.2-0.3,0.3-0.5c0.1,0.1,0.4,0.3,0.4,0.4c0.1,0.4,0,0.7,0,1.1c0,0.6,0,1.2,0,1.8c0,0.5,0,1,0,1.5c0.1,0,0.2,0,0.2,0
			c0-0.2,0-0.4,0-0.7c0-1.1,0.1-2.3,0.1-3.4c0-0.3,0-0.6,0-0.9c0-0.1-0.2-0.4-0.2-0.4c0.2-0.2,0.4-0.3,0.8-0.5c0,1.3,0,2.4,0,3.5
			c0,0.7-0.1,1.4-0.1,2.1c0,0.1,0.1,0.2,0.3,0.4c0-0.6,0.1-1,0.1-1.5c0-1.2,0.1-2.4,0-3.5C50.9,45.7,50.9,45.7,51.7,45.9z
			 M56.6,65.8c-0.1,0-0.1,0-0.2,0c0,0.3-0.1,0.6-0.1,0.9c-0.3,2.2-0.6,4.5-0.8,6.7c-0.1,1.4-0.1,2.8-0.1,4.2c0,1,0.1,1.9,0.1,2.9
			c0,0.2-0.2,0.3-0.3,0.5c-0.1-0.1-0.4-0.3-0.4-0.4c0-1.6,0-3.3,0-4.9c0-1.1,0.1-2.1,0.2-3.2c0.1-1,0.2-1.9,0.3-2.9
			c0-0.5,0.1-1,0.1-1.5c-0.1,0-0.2,0-0.3,0c-0.2,2.2-0.4,4.3-0.5,6.5c-0.1,2-0.1,4-0.1,6c0,0.2-0.1,0.3-0.1,0.5c-0.1,0-0.1,0-0.2,0
			c-0.2-2,0.1-4.1,0.1-6.1c0-2.1,0.1-4.1,0.2-6.2c-0.1,0-0.1,0-0.2,0c-0.1,0.9-0.2,1.8-0.3,2.8c-0.1,1.7-0.1,3.3-0.1,5
			c0,1.4-0.1,2.7-0.1,4.1c0,0.2-0.3,0.4-0.4,0.7c-0.1-0.2-0.3-0.5-0.3-0.7c0-1,0-1.9,0.1-2.9c0-0.2,0-0.5,0-0.7
			c-0.6,1.4-0.3,2.8-0.4,4.3c-0.4,0-0.6,0.1-0.5-0.5c0.1-0.7,0.1-1.4,0.1-2.1c-0.1,0-0.1,0-0.2,0c0,0.1-0.1,0.3-0.1,0.4
			c0,0.6,0,1.2-0.1,1.9c0,0.2-0.3,0.3-0.4,0.5c-0.1-0.2-0.2-0.4-0.2-0.6c0.1-2,0.2-3.9,0.2-5.9c0-0.8,0-1.6,0-2.4
			c0-1.9,0.1-3.8,0.1-5.7c0-0.1,0-0.3-0.1-0.4c-0.1,0.1-0.2,0.2-0.2,0.2c0,1.7-0.1,3.3-0.1,5c0,1.3-0.1,2.6-0.1,3.9
			c-0.1,1.4-0.2,2.8-0.2,4.1c0,0.4,0,0.8-0.1,1.2c0,0.2-0.3,0.3-0.4,0.5c-0.1-0.1-0.4-0.2-0.4-0.4c0-0.4,0-0.8,0-1.2
			c0.1-1.9,0.2-3.9,0.3-5.8c0-0.9,0-1.9,0-2.8c0-0.4,0-0.9,0-1.3c-0.1,0-0.1,0-0.2,0c-0.1,3.9-0.2,7.7-0.4,11.7
			c2.7-0.1,5.4-0.4,8.1-0.8c-0.6-1.3-0.1-2.7-0.4-3.9c-0.1,0.2-0.1,0.4-0.1,0.5c0,1,0,1.9,0,2.9c0,0.2-0.2,0.3-0.3,0.5
			c-0.1-0.2-0.3-0.3-0.3-0.5c0-0.7,0-1.5,0-2.2c0-0.6-0.1-1.3-0.1-1.9c0.1-1.8,0.2-3.6,0.4-5.4c0.1-1.2,0.3-2.3,0.4-3.5
			c0.1-0.8,0.2-1.5,0.3-2.3c-0.1,0-0.2,0.1-0.2,0.1c-0.3,1.6-0.6,3.2-0.8,4.9c-0.2,1.8-0.3,3.6-0.3,5.4c-0.1,1.7,0,3.3-0.1,5
			c0,0.2-0.1,0.4-0.1,0.6C56.1,81,56,80.9,56,80.8C55.6,75.6,55.7,70.7,56.6,65.8z M78.8,182.8l-0.1-0.1c-0.1,0-0.1,0-0.2,0
			c-1.2,0.8-2.3,1.6-3.7,2c-1.1,0.4-2.1,0.9-3.1,1.3c-1.3,0.5-2.6,0.9-3.9,1.3c-1.6,0.5-3.3,0.8-4.9,1.2c-0.9,0.2-1.7,0.3-2.6,0.4
			c-0.6,0.1-1.1,0.3-1.7,0.3c-1.7,0.2-3.3,0.4-5,0.5c-2.1,0.2-4.2,0.3-6.3,0.4c-0.9,0-1.8,0-2.7,0c-0.1,0-0.3-0.1-0.4-0.1
			c0.1-0.1,0.1-0.1,0.2-0.2c0.1,0,0.1,0,0.2,0c1.4,0,2.9,0,4.3,0c1.4-0.1,2.9-0.2,4.3-0.4c2-0.2,4-0.5,6-0.8c1-0.2,2.1-0.4,3.1-0.6
			c1-0.2,1.9-0.4,2.9-0.7s1.9-0.6,2.9-0.9c1.1-0.3,2.2-0.5,3.2-0.9c1.2-0.4,2.4-0.8,3.5-1.4c0.9-0.4,1.8-1,2.7-1.5
			c0-0.1,0-0.1-0.1-0.2c-0.2,0-0.3,0-0.5,0.1c-0.6,0.4-1.1,0.9-1.8,1.1c-2.1,0.8-4.2,1.5-6.3,2.2c-1.4,0.4-2.8,0.7-4.1,1.1
			c-1.4,0.4-2.7,0.8-4.2,1c-1.1,0.1-2.2,0.5-3.3,0.7c-1.5,0.2-3,0.4-4.6,0.6c-0.9,0.1-1.8,0.2-2.6,0.2c-0.8,0.1-1.6,0.1-2.4,0.1
			c-0.7,0-1.4-0.1-2.2-0.1c-0.6,0-1.2,0.1-1.7,0.1c-0.1,0-0.2-0.2-0.4-0.3c-0.1,0.2-0.2,0.3-0.3,0.5c0.2,0,0.4,0.1,0.5,0.1
			c0,0.1,0,0.1,0,0.2c-0.7,0-1.5,0-2.2,0c-0.6,0-1.1-0.2-1.7-0.3c-0.2,0-0.4,0-0.6,0.1c-0.2,0-0.4,0.1-0.6,0c-0.7,0-1.3-0.1-2-0.1
			c-1.1,0-2.3-0.2-3.4-0.2c-0.6,0-1.3-0.1-1.9-0.1v0.1c0.1,0,0.2,0.1,0.3,0.1c1,0.1,1.9,0.1,2.9,0.2c1.1,0.1,2.1,0.2,3.2,0.3
			c0.7,0.1,1.5,0.1,2.2,0.1c1.3,0.1,2.7,0.1,4,0.1c1.6,0,3.1,0,4.7,0c0.9,0,1.8,0,2.7,0c1.2-0.1,2.3-0.2,3.5-0.3
			c0.9-0.1,1.8-0.1,2.7-0.2c1.3-0.2,2.6-0.4,3.9-0.6c2.7-0.5,5.4-1,7.9-2c1.9-0.7,4-1.1,5.8-2.2c1-0.6,2-1.1,3-1.6
			C78.4,183.2,78.6,182.9,78.8,182.8z M55.1,99.3c-0.1,0-0.1,0.1-0.2,0.1c-0.1-0.1-0.3-0.2-0.4-0.4c-0.2-0.7-0.4-1.5-0.6-2.2
			c-0.1-0.5-0.2-1-0.3-1.5c-0.1,0-0.2,0-0.3,0.1c0.3,1.4,0.5,2.7,0.8,4.1L54,99.6c-0.2-0.1-0.4-0.2-0.5-0.4
			c-0.3-0.9-0.5-1.7-0.7-2.6c-0.1-0.5-0.2-1.1-0.3-1.6c-0.1,0-0.1,0-0.2,0c-0.2,1.6,0.6,3,0.6,4.7c-0.3-0.1-0.6-0.2-0.6-0.4
			c-0.2-1-0.3-2.1-0.5-3.1c0-0.1-0.1-0.2-0.2-0.4c0,0.6,0,1.1,0.1,1.6c0.1,0.6,0.2,1.2,0.2,1.7c0,0.2-0.2,0.4-0.2,0.6
			c-0.1-0.2-0.4-0.3-0.4-0.5c-0.2-1-0.3-2.1-0.4-3.1c0-0.3-0.1-0.5-0.1-0.8c-0.1,0-0.1,0-0.2,0c0,0.5,0,1.1,0,1.6
			c0.1,0.8,0.2,1.5,0.3,2.3c0,0.2-0.1,0.4-0.2,0.5c-0.1,0.1-0.4,0.1-0.4,0c-0.1-0.1-0.1-0.3-0.1-0.5c0-0.1,0-0.2,0-0.4
			c-0.1-1-0.2-1.9-0.3-2.9c0-0.1-0.1-0.2-0.3-0.4c0,1.5,0,2.9,0,4.5c-0.3-0.3-0.5-0.4-0.5-0.6c-0.1-1.1-0.2-2.3-0.3-3.4
			c0-0.1,0-0.3-0.1-0.4c-0.1,0-0.1,0-0.2,0c0,1.4,0,2.8,0,4.2c-0.1,0-0.2,0-0.3,0c0-1.4-0.1-2.8-0.1-4.2c-0.1,0-0.2,0-0.3,0
			c0,0.3,0,0.5,0,0.8c0,1,0,2,0,3c0,0.2-0.2,0.3-0.3,0.5c-0.1-0.2-0.3-0.3-0.3-0.5c0-0.8,0-1.5,0-2.3c0-0.5-0.1-0.9-0.1-1.4
			c-0.1,0-0.1,0-0.2,0c0,1.2,0,2.4,0,3.6c0,0.2-0.2,0.5-0.2,0.7c-0.1,0-0.2,0-0.3,0c-0.1-1.4-0.1-2.8-0.2-4.2c-0.1,0-0.1,0-0.2,0
			c0,0.1,0,0.2,0,0.4c0,1.1-0.1,2.2-0.1,3.3c0,0.2-0.2,0.4-0.3,0.5c-0.1-0.2-0.3-0.4-0.3-0.6c0-0.3,0.1-0.7,0.1-1
			c0-0.5,0.2-1.1-0.2-1.6C45,97.1,45,97.3,45,97.6c-0.1,0.7-0.1,1.4-0.2,2.1c0,0.1-0.2,0.3-0.3,0.4c-0.1-0.2-0.2-0.3-0.2-0.5
			c0-1,0.1-2,0.1-3c0-0.1-0.1-0.3-0.1-0.4c-0.3,1.4-0.1,2.7-0.7,4.1c0.9,0,1.8,0,2.6,0c1.5-0.1,2.9-0.2,4.4-0.3c0.7,0,1.5,0,2.3-0.1
			c1.4-0.2,2.8-0.4,4.2-0.6c0.8-0.1,1.7-0.3,2.5-0.4c0.8-0.2,1.7-0.4,2.5-0.7c0.9-0.3,1.7-0.6,2.6-1c0.1-0.1,0.3-0.3,0.3-0.3
			c-0.3-0.4-0.7-0.8-1-1.1l-0.1,0.1c0.2,0.3,0.3,0.5,0.4,0.8c0.1,0.2,0,0.4,0,0.5c-0.2,0-0.5,0-0.6-0.1c-0.3-0.3-0.4-0.6-0.6-0.9
			c-0.2-0.2-0.4-0.4-0.6-0.7l-0.1,0.1c0.4,0.6,0.8,1.2,1.2,1.9c-0.3,0.3-0.5,0.2-0.7-0.2c-0.3-0.5-0.6-1-1-1.5
			c-0.1,0-0.1,0.1-0.2,0.1c0.3,0.6,0.7,1.2,1,1.9c-0.2,0.1-0.4,0.2-0.5,0.3c-0.3-0.4-0.5-0.8-0.8-1.1c-0.1,0-0.1,0.1-0.2,0.1
			c0.1,0.2,0.2,0.4,0.3,0.7c0.1,0.1,0,0.3,0.1,0.4c-0.1-0.1-0.2-0.1-0.3-0.2c-0.2-0.3-0.4-0.5-0.6-0.8l-0.1,0.1
			c0.2,0.3,0.3,0.7,0.5,1L61,98.4c-0.1-0.1-0.3-0.2-0.4-0.3c0,0.1,0,0.1,0,0.2c-0.2,0.1-0.3,0.2-0.5,0.3c-0.5,0.1-1.1,0.2-1.6,0.4
			c-0.5,0.2-0.6-0.1-0.7-0.4c-0.3-0.8-0.6-1.6-0.9-2.4c-0.1-0.3-0.2-0.6-0.2-0.8c-0.1,0-0.1,0-0.2,0.1c0.3,1.1,0.6,2.1,0.9,3.2
			c0,0.2,0,0.4,0,0.6c-0.2-0.1-0.5-0.1-0.6-0.2c-0.2-0.3-0.3-0.7-0.4-1.1c-0.2-0.8-0.4-1.6-0.6-2.5c-0.3,1.4,0.4,2.6,0.6,4
			c-0.9-0.3-0.8-1-1-1.6s-0.4-1.2-0.5-1.8c-0.1,0-0.1,0-0.2,0.1C54.6,97,54.8,98.2,55.1,99.3z M55.8,90.4c0,0.1,0,0.1,0,0.2
			c2,0,4.1,0,6.1,0c0,0.1,0,0.1,0.1,0.2c-0.1,0.1-0.2,0.1-0.4,0.1c-1.5,0-2.9-0.1-4.4-0.1c-1,0-1.9,0.1-2.9,0.1c-1.1,0-2.1,0-3.2,0
			c-0.2,0-0.4,0-0.5,0c0,0.1,0,0.2,0,0.2c3.7,0,7.3,0,11,0c0,0.1,0.1,0.2,0.1,0.3c-0.2,0.1-0.4,0.3-0.6,0.3c-0.6,0-1.2,0-1.7,0
			c-1.1,0-2.2,0.1-3.3,0.1c-1.2,0-2.5-0.1-3.7-0.1c-0.3,0-0.5,0-0.8,0c0,0.1,0,0.1,0,0.2c2.9,0.1,5.8,0.2,8.7,0.3c0,0.1,0,0.1,0,0.2
			c-0.2,0-0.5,0.1-0.7,0.1c-1.6,0-3.1-0.1-4.7-0.1c-1.2,0-2.5,0-3.7,0c-1.3,0-2.6-0.2-3.9-0.2c-1.7-0.1-3.4-0.1-5.2-0.1
			c-1,0-1.9-0.1-2.9-0.1c-0.8,0-1.7,0-2.5,0c-0.7,0-1.3,0.1-2,0.1c0,0.1,0,0.1,0,0.2c0.1,0,0.3,0.1,0.4,0.1c0.7,0,1.4-0.1,2.1-0.1
			c1.8,0,3.6,0.1,5.4,0.2c1.7,0,3.4,0.1,5,0.1c1.3,0.1,2.6,0.2,3.9,0.2c1.2,0.1,2.5,0.1,3.7,0.1c0.4,0,0.8,0,1.3,0
			c0,0.1,0,0.2,0,0.2c-1.7,0-3.4,0-5.1,0c-1.7,0-3.3-0.1-5-0.1s-3.5,0-5.2-0.1s-3.3-0.1-5,0c0.9,0.1,1.7,0.1,2.6,0.1
			c1.3,0.1,2.6,0.2,3.9,0.2c0.4,0,0.7-0.1,1.1,0c0.9,0,1.7,0.1,2.6,0.1c0.7,0,1.5,0,2.2,0.1c1.2,0.1,2.4,0.1,3.6,0.2
			c1.2,0.1,2.5-0.2,3.7,0.2c0.2,0.1,0.4,0,0.5,0c1.5-0.3,3-0.7,4.4-1.4c1.1-0.5,1.5-1.1,1.3-2.1C60,90.4,57.9,90.4,55.8,90.4z
			 M29,101.8c0,0.1,0,0.1-0.1,0.2c0.2,0.1,0.5,0.2,0.7,0.2c0.5,0.1,1,0.1,1.6,0.1c0.3,0,0.7-0.1,1-0.1c0.6,0,1.2,0.1,1.8,0.1
			c0.5,0,1.1-0.1,1.6,0c0.8,0,1.5,0.2,2.3,0.2c1.7,0.1,3.4,0.1,5.1,0.2c1.2,0,2.3,0.2,3.5,0.2c1,0,2.1,0,3.1,0
			c0.2,0,0.4,0.1,0.6,0.1c0,0.1,0,0.1,0,0.2c-6.2-0.2-12.5-0.4-18.7-0.6v0.1c2.2,0.3,4.5,0.6,6.7,0.9c0-0.1,0-0.1,0-0.2
			c-0.5-0.1-1.1-0.1-1.6-0.2c0-0.1,0-0.1,0-0.2c2.1,0.1,4.2,0.2,6.3,0.3c0,0.1,0,0.1,0,0.2c-0.5,0-1.1,0-1.6,0v0.1
			c0.5,0.1,1,0.1,1.5,0.2c0,0.1,0.1,0.3,0.1,0.5c0.1-0.3,0.2-0.4,0.2-0.5c2.1,0.1,4.2,0.1,6.3,0.2c0-0.1,0-0.1,0-0.2
			c-1.8-0.1-3.6-0.2-5.4-0.2c0-0.1,0-0.1,0-0.2c2.4,0.1,4.9,0.1,7.3,0.2v0.1c-0.4,0-0.8,0.1-1.2,0.1v0.1c1.9-0.1,3.8-0.3,5.6-0.4
			c0-0.1,0-0.1,0-0.2c-0.5,0-0.9,0-1.4,0s-0.9-0.1-1.4-0.1s-0.9,0-1.4,0c-0.4,0-0.8-0.1-1.2-0.1c0-0.1,0-0.2,0-0.2
			c0.2,0,0.4,0.1,0.6,0.1c1.5,0.1,2.9,0.1,4.4,0.1c0.4,0,1-0.2,1.3,0.1c0.4,0.3,0.7,0.2,1,0.2s0.5-0.1,0.8-0.1
			c0.8-0.1,1.5-0.2,2.3-0.3c0-0.1,0-0.1,0-0.2c-0.6,0-1.1,0-1.7,0c-1.1,0-2.2,0-3.2-0.1c-1.2,0-2.3-0.1-3.5-0.2s-2.5-0.1-3.7-0.1
			c-2-0.1-4.1-0.2-6.1-0.2c-1.2,0-2.4,0-3.6,0c-1,0-1.9-0.1-2.9-0.1c-1.1,0-2.1,0-3.2,0C31.8,101.9,30.4,101.9,29,101.8z M25.2,99.8
			L25.2,99.8c0.2,0.1,0.4,0.2,0.5,0.2c0.5,0,1-0.1,1.5-0.1c2.6,0,5.1,0,7.7,0.1c1.2,0,2.4,0.2,3.5,0.4c0.3,0,0.6,0.1,1,0.2
			c-5-0.1-9.9-0.2-14.8-0.2c0,0.1,0,0.1,0,0.2c0.6,0,1.2,0,1.7,0c2.1,0.1,4.2,0.1,6.3,0.2s4.1,0.1,6.2,0.2c1.1,0,2.1,0.1,3.2,0.1
			c2,0.1,4,0.2,6.1,0.3c1.2,0,2.4,0,3.6,0.1c2.5,0.1,5,0.2,7.4,0.3c1,0,2.1,0,3.1,0c0.3,0,0.7,0,1,0c1.2,0.1,2.4,0.2,3.5,0.2
			c0.6,0,0.7-0.1,0.8-0.5c-0.1,0-0.1-0.1-0.2-0.1c-1.7,0-3.4-0.1-5.1-0.1c-1.2,0-2.4-0.1-3.7-0.1c-1.2,0-2.3,0.1-3.5,0.1
			c-1.3,0-2.6-0.1-3.9-0.2c-0.9-0.1-1.8-0.2-2.7-0.2c-1.1,0-2.3,0-3.4,0c-0.9,0-1.8-0.1-2.7-0.1c-1.7,0.1-3.3-0.3-5-0.6
			c-1-0.2-1.9-0.3-2.9-0.5c0.1,0.1,0.2,0.2,0.2,0.2C31.7,99.8,28.5,99.8,25.2,99.8z M45.1,90.9c0,0.1,0,0.2,0,0.2
			c0.4,0,0.9-0.1,1.3-0.1c1.7,0,3.4-0.2,5.1-0.6c1.6-0.4,3.3-0.5,5-0.8c0.9-0.1,1-0.3,1-1.2c0-0.8,0-1.7,0-2.5c0-0.1,0-0.2-0.1-0.3
			h-0.1c-0.1,1.2-0.1,2.4-0.2,3.6c-0.1,0-0.1,0-0.2,0c0-1.5-0.1-3-0.1-4.5c-0.1,0-0.1,0-0.2,0c-0.2,1.6,0.1,3.2-0.3,4.8
			c-0.1-0.1-0.2-0.2-0.2-0.4c0-1.4,0-2.9,0-4.3c0-0.2,0.4-0.4,0.4-0.4c0.4,0.4,0.4-0.2,0.6-0.2c-2.8,0.3-5.7,0.6-8.5,0.9
			c2.2,0.2,4.3-0.2,6.4-0.4c0,1.7,0,3.3,0,4.8c0,0.1-0.2,0.3-0.3,0.3c-0.2-0.1-0.4-0.2-0.4-0.3c-0.1-0.3,0-0.5,0-0.8c0-1,0-2,0-3
			c-0.2,0.4-0.3,0.8-0.3,1.2c0,0.9,0,1.8-0.1,2.7c0,0.1-0.2,0.3-0.3,0.3s-0.3-0.1-0.4-0.3c-0.1-0.1,0-0.3,0-0.4c0-1.2,0-2.4,0-3.7
			C53.1,85.7,53,85.9,53,86c0,0.5,0,1,0,1.4c0,0.7,0,1.5,0,2.2c0,0.2-0.2,0.3-0.2,0.5c-0.1,0-0.1-0.1-0.2-0.1c0-1.3,0-2.5,0-3.8
			c-0.1,0.1-0.2,0.1-0.2,0.2c0,1.1-0.1,2.1-0.1,3.2c0,0.4-0.1,0.7-0.7,0.7c0-1.5,0-3,0-4.5c-0.1,0-0.1,0-0.2,0
			c0,0.5-0.1,1.1-0.1,1.6c0,0.9,0,1.8-0.1,2.7c0,0.1-0.2,0.2-0.3,0.3c-0.1-0.1-0.2-0.2-0.2-0.3c0-0.5,0.1-1,0.1-1.5
			c0-0.6,0-1.2,0-1.8c-0.1,0-0.1,0-0.2,0c0,0.9-0.1,1.8-0.1,2.7c0,1,0,1-1,1.2c-0.4-1.5,0.3-3.1-0.1-4.6c-0.1,1.6-0.3,3.2-0.4,4.7
			C47.6,90.7,46.4,90.8,45.1,90.9z M64.2,102.5c0-0.1,0-0.2,0-0.2c-0.3,0-0.5-0.1-0.8-0.1c-1.5,0-2.9,0-4.4,0c-1.3,0-2.7-0.2-4-0.2
			c-0.9,0-1.8,0-2.7-0.1c-1.2,0-2.4-0.1-3.7-0.2c-1.8-0.1-3.5-0.2-5.3-0.2c-1.2,0-2.4,0-3.6,0c-1.1,0-2.2-0.1-3.2-0.1
			c-1.7,0-3.4,0-5-0.1c-1.8-0.1-3.5-0.2-5.3-0.2c-0.1,0-0.2,0.2-0.4,0.4c0.9-0.2,1.6,0.1,2.3,0c0.9-0.1,1.9,0.1,2.8,0.1
			c0.6,0,1.1,0,1.7,0c1.5,0,3,0.1,4.6,0.1c0.8,0,1.6,0.1,2.5,0.2c1.2,0.1,2.3,0.1,3.5,0.1c1.4,0.1,2.8,0.2,4.2,0.2
			c1.3,0.1,2.6,0.1,3.9,0.1c1.8,0.1,3.6,0.2,5.4,0.2c2,0.1,3.9,0.1,5.9,0.2C63,102.7,63.6,102.6,64.2,102.5z M74.5,185.8
			c0.1,0,0.2,0.1,0.3,0.1c-0.1,0.9-0.1,1.8-0.1,2.7c0,1.5,0,2.9,0.1,4.4c0,0.3-0.2,0.7,0.4,0.9c0-0.2,0-0.4,0-0.5c0-1.8,0-3.7,0-5.5
			c0-0.5,0-1,0-1.5c0-0.4,0-0.9,0.7-0.9c0,0.3-0.1,0.6-0.1,0.9c0,2.1,0,4.2,0,6.3c0,0.3,0.1,0.6,0.2,0.9c0.1,0,0.2,0,0.2,0
			c0-0.3,0-0.6,0-0.9c0-0.1-0.1-0.3-0.1-0.4c0-1.3,0.1-2.5,0.1-3.8c0-0.9,0-1.8,0-2.7c0-0.3,0.2-0.5,0.3-0.8c0.1,0,0.1,0,0.2,0.1
			c0,2.7,0,5.4,0,8.1c0.2-0.1,0.4-0.1,0.4-0.1c0-2.8,0-5.6,0-8.5c-1.2,0.6-2.3,1.1-3.3,1.5c0,2.9,0,5.7,0,8.5c0.1,0,0.1,0.1,0.2,0.1
			c0.1-0.1,0.3-0.3,0.3-0.4c0-1.7-0.1-3.4-0.1-5.1c0-0.8,0-1.7,0.1-2.5C74.3,186.3,74.4,186.1,74.5,185.8z M34.9,93.5
			c0.6,0.1,1.1,0.1,1.4,0.3c1.3,0.6,2.7,0.5,4,0.7c0.9,0.2,1.9,0.1,2.9,0.1c1.2,0,2.4,0,3.7,0c1.2,0,2.4-0.2,3.5-0.2
			c1.1-0.1,2.3-0.1,3.5-0.2c0.5,0,1-0.1,1.5-0.2c-0.1-0.1-0.2-0.2-0.2-0.2c-1.2,0.2-2.4,0.1-3.6,0c-1.6-0.1-3.3-0.1-4.9-0.1
			c-0.9,0-1.9-0.1-2.8-0.1c-1.9-0.1-3.8-0.2-5.6-0.3c-1-0.1-1.9,0.2-2.9-0.1C35.3,93.2,35.2,93.4,34.9,93.5z M28.9,153.2v0.1
			c0.1-0.2,0.2-0.3,0.3-0.5c0.3-0.8,0.5-1.5,0.8-2.3c0.1-0.4,0.3-0.8,0.5-1.2c0.3-1.1,0.6-2.3,0.8-3.4c0.3-1.5,0.7-3.1,1-4.6
			c0.3-2,0.9-3.9,0.9-5.9c0-0.5,0.1-1.1,0.2-1.6c0.1-0.9,0.3-1.8,0.4-2.7c0.1-1,0.1-2,0.2-2.9c0.1-0.8,0.2-1.6,0.2-2.4
			c0-1.1,0-2.2,0-3.3c0-0.4,0-0.7,0-1.1c0-1.1,0-2.1,0-3.2c0-0.7-0.1-1.5-0.1-2.2c0-0.4,0-0.8,0-1.2c-0.1,0-0.1,0-0.2,0
			c0,1.6,0,3.3,0,4.9c-0.3,0-0.5,0.1-0.3,0.4c0.4,0.7,0.3,1.4,0.3,2.1c0,1-0.1,2.1-0.1,3.1c0,0.9-0.1,1.7-0.1,2.6
			c0,0.4-0.1,0.9-0.1,1.3c-0.1,0.8-0.2,1.6-0.3,2.3c-0.1,0.9-0.1,1.7-0.3,2.6c-0.2,1.4-0.4,2.8-0.6,4.1c-0.3,1.7-0.5,3.3-0.8,5
			s-0.8,3.3-1.2,5C29.9,149.8,29.4,151.5,28.9,153.2z M45.8,104.8c-0.1,0-0.1,0-0.2,0c0,0.8,0,1.7-0.1,2.5c0,0.1,0,0.3-0.1,0.4
			s-0.3,0-0.4,0c-0.2-0.1-0.4-0.3-0.4-0.5c-0.1-0.7-0.1-1.4-0.2-2.1c0-0.1-0.1-0.3-0.1-0.4c-0.1,0-0.1,0-0.2,0c0,1,0,2,0,3
			c-0.6-0.1-1.2,0-1.2-0.7c0-0.5,0.1-1,0.2-1.4c0-0.3,0.1-0.7,0.1-1c-0.1,0-0.2,0-0.3,0c-0.2,1-0.3,2.1-0.5,3.1
			c-0.1,0-0.1,0.1-0.2,0.1c-0.2-0.3-0.6-0.6-0.6-0.9c-0.1-0.5,0-1.1,0-1.7c0-0.2,0.1-0.5,0.1-0.7c-0.1,0-0.2,0-0.2,0
			c-0.1,0.8-0.1,1.7-0.2,2.5c0,0.2-0.1,0.6-0.2,0.6c-0.3,0-0.7,0.1-0.7-0.4c0-0.4-0.1-0.7-0.2-1.1c0-0.2-0.1-0.3-0.2-0.5
			c-0.1,0-0.1,0-0.2,0.1c0,0.5,0,0.9,0,1.4c0,0.2-0.1,0.3-0.2,0.5c-0.1-0.1-0.4-0.2-0.4-0.4c-0.1-0.5-0.2-1.1-0.3-1.6
			c-0.1,0-0.1,0-0.2,0c0,0.3-0.1,0.6-0.1,0.9c0.1,0.9,0.1,1-0.6,1c-0.4-1.3-0.4-1.3-0.8-1.3c0,0.1,0.1,0.1,0.1,0.2
			c0,0.3,0.1,0.7,0.1,1c0,0-0.2,0.1-0.3,0.1c-0.1-0.3-0.2-0.6-0.2-0.9c0-0.1,0-0.1,0-0.2c-0.1-0.3-0.3-0.6-0.4-0.9
			c-0.1,0-0.1,0.1-0.2,0.1c0,0.3,0.1,0.7,0.1,1c0,0.2-0.2,0.5-0.2,0.7c-0.2-0.2-0.3-0.4-0.4-0.7c-0.1-0.2-0.1-0.5-0.2-0.7
			c-0.1,0-0.1,0-0.2,0c0,0.2,0,0.4,0,0.6s0.2,0.6-0.2,0.5c-0.2,0-0.4-0.3-0.5-0.5c-0.2-0.3-0.3-0.7-0.4-1c-0.1,0.1-0.2,0.2-0.2,0.4
			c0,0.3,0.2,0.6,0,0.8c-0.1,0.1-0.5,0.1-0.9,0.2c0.3,0.1,0.4,0.2,0.6,0.2c1.4,0.2,2.9,0.3,4.3,0.5c1.4,0.1,2.7,0.3,4.1,0.4
			c1.2,0.1,2.3,0.1,3.5,0.1c0.2,0,0.4,0,0.5,0C45.9,106.9,45.9,105.8,45.8,104.8z M61,103.6c0.2,1.4-0.1,3.4-0.7,3.5
			c0.2-1.2,0.2-2.3-0.4-3.3c0,1.2,0.2,2.3-0.5,3.4c-0.1-1.1,0.2-2.2-0.6-3.2c0,1.1,0.4,2.2-0.3,3.4c-0.1-0.2-0.2-0.4-0.2-0.5
			c0-0.5,0.1-1,0.1-1.5c0-0.4-0.2-0.7-0.3-1.1c-0.1,0-0.1,0-0.2,0c0,0.1,0,0.2,0,0.3c0,0.8,0,1.6,0,2.5c0,0.1-0.2,0.2-0.3,0.3
			c-0.1-0.1-0.3-0.2-0.3-0.3c0-0.6,0-1.3,0-1.9c0-0.4-0.1-0.8-0.2-1.2c-0.1,0-0.1,0-0.2,0c0,0.1-0.1,0.2-0.1,0.2c0,1,0,2-0.1,3
			c0,0.1-0.2,0.3-0.3,0.4c-0.1,0-0.1,0-0.2-0.1c0-0.2,0-0.5,0-0.7c-0.1-0.8-0.1-1.6-0.2-2.4c0-0.1-0.1-0.2-0.2-0.3
			c0,0.1-0.1,0.3-0.1,0.4c0,0.9,0,1.8,0,2.7c0,0.2-0.2,0.3-0.4,0.5c-0.1,0-0.1,0-0.2-0.1c-0.1-1,0.2-2-0.5-2.9c0,1,0,2,0,3.1
			c2.1,0.1,4.2-0.3,6.3-0.6C61.2,106,61.6,104.7,61,103.6z M39,122.8L39,122.8c-0.1,0.9-0.1,1.9-0.1,2.8c0,0.8-0.1,1.7-0.1,2.5
			c-0.1,1.5-0.1,3.1-0.3,4.6c-0.1,1.3-0.3,2.6-0.5,3.9c-0.1,1.1-0.2,2.1-0.4,3.2c-0.3,1.7-0.6,3.5-0.9,5.2c-0.3,1.8-0.6,3.5-0.9,5.3
			c-0.1,0.6-0.2,1.2-0.3,1.7c0.1,0,0.2,0,0.2,0c1.7-8.1,3.1-16.2,3.5-24.4c0.1,0.2,0.1,0.5,0.2,0.7h0.1c0-0.6,0-1.2,0-1.7h-0.1
			c0,0.2-0.1,0.5-0.1,0.7h-0.1C39.1,125.8,39.1,124.3,39,122.8z M32.2,170.7c0,0.1,0,0.1-0.1,0.2c0.1,0,0.1,0.1,0.2,0.1
			c0.7,0.1,1.4,0.3,2.1,0.4c0.9,0.2,1.7,0.4,2.6,0.5c1,0.1,2.1,0.2,3.1,0.3c1.5,0.1,2.9,0.3,4.4,0.3c1.2,0,2.4-0.1,3.6-0.2
			c1.2-0.1,2.4-0.2,3.6-0.4c1.1-0.2,2.2-0.4,3.3-0.6c1.7-0.3,3.4-0.6,5-1c1.3-0.3,2.6-0.7,3.9-1.2c1.4-0.6,2.7-1.3,4-2.2
			c0.1-0.1,0.2-0.2,0.3-0.3c-0.2,0-0.2,0-0.3,0c-1.8,1.3-3.8,2.2-6,2.8c-2.4,0.7-4.9,1.1-7.4,1.6c-1.9,0.4-3.7,0.6-5.6,0.8
			c-2.1,0.2-4.3,0.2-6.4,0.2c-3,0-6-0.5-9-1.2C33.1,170.8,32.7,170.7,32.2,170.7z M11,183.6c-0.1,0-0.2,0-0.3,0c0,3,0,6,0,9
			c-0.1,0-0.2,0-0.3,0c0-3.1,0-6.1,0-9.2c-0.1,0-0.2,0-0.3,0c0,0.2-0.1,0.3-0.1,0.5c0,2.6,0.1,5.2,0.1,7.8c0,0.3,0,0.8,0.2,1
			c0.4,0.4,1,0.7,1.6,1.1c0-3.1,0-6.1,0-9.2c0.5,0.3,0.9,0.5,1.3,0.7c0-0.1,0.1-0.1,0.1-0.2c-0.5-0.3-1.1-0.5-1.6-0.8
			c0,0.6-0.1,1.2-0.1,1.8c0,1,0,1.9,0,2.9c0,0.5-0.1,1.1-0.1,1.6c0,0.8,0.1,1.6,0.1,2.4c0,0.1-0.2,0.2-0.2,0.3
			c-0.1-0.1-0.2-0.2-0.2-0.4s0-0.3,0-0.5c0-0.7,0.1-1.4,0.1-2.1c0-1.2-0.1-2.4-0.1-3.6c0-0.8,0.1-1.7,0.1-2.5
			C11.2,184,11,183.8,11,183.6z M67.8,165.8c0.1,0,0.2,0,0.3-0.1c-0.1-0.2-0.1-0.5-0.2-0.7c-0.7-1.1-1.5-2.2-2.1-3.3
			c-0.8-1.4-1.6-2.9-2.2-4.4c-0.5-1.2-0.9-2.4-1.3-3.6c-0.5-1.4-1-2.9-1.5-4.3c-0.6-2.1-1.2-4.1-1.6-6.2c-0.3-1.5-0.5-3-0.8-4.6
			c-0.2-1.2-0.4-2.5-0.6-3.8c-0.1,0.2-0.2,0.3-0.2,0.4C58.8,146.2,62,156.5,67.8,165.8z M38.1,151.9c1.3-3,3.1-23.2,2.1-25.8
			C40.4,134.7,39.2,143.3,38.1,151.9z M56.6,51.3c-0.1-0.4-0.1-0.8-0.1-1.1c0-0.6,0.1-1.2,0.1-1.8c0-0.7-0.2-1.4-0.3-2.1
			c-0.2-1.1-0.5-2.1-1.1-3.1C55,43.1,54.9,43,54.8,43c0.2,0.7,0.5,1.3,0.7,1.9c0.5,1.9,0.7,3.8,0.5,5.8c0,0.2-0.2,0.4-0.4,0.4
			c-0.3,0-0.4-0.2-0.2-0.5c0-0.1,0-0.2,0-0.3c0.1-2.3-0.1-4.5-1-6.7c-0.2-0.4-0.5-0.8-0.8-1.2c1.2,2.3,2,7.8,1.1,8.8
			c-0.1-0.2-0.3-0.4-0.3-0.6c-0.1-1.1,0-2.3-0.2-3.4c-0.2-1.2-0.6-2.3-1-3.4c-0.1-0.3-0.4-0.6-0.7-0.9c1.3,2.7,1.7,5.4,1.4,8.4
			C54.9,51.3,55.8,51.3,56.6,51.3z M78.7,183.5c-0.1,0-0.1,0-0.2,0c-0.1,0.1-0.2,0.3-0.2,0.4c0,1.2,0.1,2.4,0.1,3.6
			c0,1-0.1,1.9-0.1,2.9c0,0.6-0.2,1.2,0.4,1.7c0-1.7,0-3.4,0-5.1c0.1,0,0.1,0,0.2,0c0.4,0.7,0,1.5,0.1,2.3s0,1.7,0,2.5
			c0.1,0,0.1,0,0.2,0c0.1-0.1,0.2-0.3,0.2-0.4c0-1.2-0.1-2.3-0.1-3.5c0-0.3,0-0.6,0-0.8c0-0.1,0.1-0.1,0.2-0.2
			c0,0.1,0.1,0.1,0.1,0.2c0,0.9,0,1.7,0,2.6c0,0.4,0.1,0.8,0.2,1.2h0.1c0-2.6,0-5.2,0-7.8c-0.1,0-0.2,0-0.3,0c0,1.2,0,2.3,0,3.5
			c-0.1,0-0.2,0-0.4,0c0-1.1,0-2.2,0-3.3c-0.1,0-0.2,0-0.3,0c0,1,0,2.1,0,3.1c-0.1,0-0.1,0-0.2,0C78.7,185.4,78.7,184.5,78.7,183.5z
			 M39.3,152.6c1.1-1,2.5-23.3,1.5-25.2c0,1.3,0,2.5,0,3.7c0,1,0,2,0,3c-0.1,2.6-0.2,5.2-0.4,7.7c-0.1,1.3-0.2,2.6-0.4,3.9
			c-0.2,1.9-0.4,3.8-0.6,5.7C39.4,151.8,39.4,152.1,39.3,152.6z M37.8,98.2c-0.1,0-0.1,0-0.2-0.1c-0.1,0.2-0.2,0.5-0.3,0.7
			s-0.4,0.5-0.5,0.4c-1-0.1-2-0.4-3-0.5c-1.1-0.2-1.1-0.2-1.3-1.2c-0.2,0.5-0.5,0.8-1,0.3c0-0.2,0.1-0.5,0.1-0.8
			c-0.5,0.4-0.5,1.1,0.1,1.2c0.7,0.2,1.4,0.4,2,0.5c1,0.2,2.1,0.4,3.1,0.6c1.1,0.2,2.1,0.3,3.2,0.4c1,0.1,2.1,0.2,3.2,0.3
			c-0.1-1.5,0.5-2.9,0.1-4.4c-0.2,1.4-0.4,2.8-0.6,4.1c-0.4-0.1-0.6-0.1-0.8-0.1c0.2-1.1,0.3-2.2,0.5-3.3c-0.1,0-0.1,0-0.2,0
			c-0.5,1.1-0.2,2.4-1,3.5c-0.6-0.8,0.3-1.5-0.1-2.2c-0.2,0.7-0.4,1.3-0.6,2c-0.3-0.1-0.4-0.2-0.6-0.2c0.1-0.6,0.3-1.2,0.4-1.8
			c-0.1,0-0.1,0-0.2,0c-0.2,0.5-0.4,1.1-0.6,1.6c-0.1,0.4-0.4,0.4-0.5,0.2c0.1-0.6,0.1-1,0.2-1.5c-0.2,0.1-0.3,0.2-0.3,0.3
			c-0.1,0.3-0.2,0.6-0.3,0.9c0,0.1-0.2,0.1-0.4,0.2c0-0.1,0-0.2,0-0.4c0.1-0.4,0.2-0.9,0.3-1.3c-0.5,0.4-0.4,1.2-1,1.6
			c-0.1,0-0.1-0.1-0.2-0.1C37.6,99,37.7,98.6,37.8,98.2z M13.7,185.8c1.6,0.7,3,1.3,4.5,1.8c1.4,0.5,2.9,0.9,4.4,1.3
			c1.4,0.4,2.9,0.7,4.3,1.1c0-0.1,0-0.2,0.1-0.2c-4.6-1.2-9.1-2.3-13.6-4.4c0.1,3-0.5,5.9,0,8.8c0.3-1,0.2-2.1,0.2-3.1
			c0-1.1,0.1-2.2,0.1-3.2c0.1-0.1,0.3-0.2,0.5-0.3c-0.1,0-0.1,0-0.2,0C13.9,187,13.8,186.5,13.7,185.8z M36.9,153.3
			c0.2-0.6,0.4-1.3,0.6-1.9c0.2-1.4,0.4-2.9,0.6-4.3c0.3-2,0.6-3.9,0.8-5.9c0.2-1.2,0.3-2.5,0.4-3.7c0.1-2,0.2-4,0.4-5.9
			c0-0.2-0.1-0.3-0.1-0.5c-0.1,0-0.1,0-0.2,0C39.1,138.6,37.9,145.9,36.9,153.3z M40.4,150.8c0.1,0,0.2,0,0.3,0
			c0.7-7,1.5-13.9,0.8-20.9c-0.1,0.5-0.1,0.9-0.1,1.4c0,1.2,0,2.4,0,3.6c0,1.7,0,3.3-0.1,5c-0.1,1.8-0.3,3.5-0.5,5.3
			c-0.1,1.1-0.2,2.2-0.3,3.3C40.5,149.2,40.5,150,40.4,150.8z M46.7,82.1c-2.8,0-5.4,0-8,0c0.1,0.2,0.2,0.2,0.3,0.2s0.2-0.1,0.3-0.1
			c1,0,2,0.1,3,0.1s2-0.1,3-0.1c1.2,0,2.5,0.2,3.7,0.2c1.1,0,2.3-0.1,3.4-0.2c1.4-0.2,2.8-0.4,4.3-0.6c0.1,0,0.2-0.1,0.3-0.1v-0.1
			c-3.3,0.3-6.6,1-10,0.7c0-0.7,0-1.5,0-2.3c-0.6,0.6,0.2,1.6-0.7,1.9C46.4,81.7,46.5,81.9,46.7,82.1z M50.5,126c-0.1,0-0.1,0-0.2,0
			c0,0.2-0.1,0.4-0.1,0.6c0,1.7,0.1,3.5,0.1,5.2c0,1.3,0,2.6,0,4c0,1.3,0.1,2.7,0.2,4c0.1,0.9,0.1,1.7,0.3,2.6
			c0,0.1,0.2,0.2,0.4,0.4c0-0.3-0.1-0.5-0.1-0.7c-0.1-0.6-0.1-1.2-0.1-1.8c-0.1-2.3-0.2-4.5-0.2-6.8c0-0.8,0-1.6,0-2.4
			c0-1.5-0.1-3-0.1-4.5C50.5,126.4,50.5,126.2,50.5,126z M69.4,100.6c-0.3,0-0.6-0.1-0.8-0.1c-1.7,0-3.4,0-5.2,0
			c-1.4,0-2.8,0-4.3-0.1c-0.8,0-1.7-0.2-2.5-0.2c-0.7,0-1.3,0.1-2,0.2c-1,0.1-2,0.2-3,0.3v0.1c0.7,0,1.5,0,2.2,0c1.8,0,3.5,0,5.3,0
			c0.8,0,1.6,0,2.4,0c1.1,0,2.3,0,3.4,0.1c1,0,2,0.1,3,0.1C68.4,101,69,101.4,69.4,100.6z M49.7,30.2c0.1-0.7,0.1-1.4,0.2-2.1
			c-0.1,0-0.2,0-0.2,0c0,0.2-0.1,0.3-0.1,0.5S49.5,29,49.4,29c-0.1,0.1-0.3,0-0.5-0.1c0.2-0.2,0.3-0.4,0.4-0.5c-0.1,0-0.1,0-0.2,0
			c0-0.2,0-0.4-0.1-0.6c-0.1-0.1-0.2-0.3-0.3-0.3c-0.9,0-1.7,0.1-2.6,0.1c-0.1,0-0.3,0.1-0.4,0.1c0.1,0.1,0.1,0.2,0.2,0.2
			c0.2,0,0.4-0.1,0.6-0.1c0.1,0,0.3,0.2,0.4,0.3c-0.1,0.1-0.2,0.2-0.4,0.3c-0.1,0-0.2,0-0.3,0c-0.1,0.1-0.4,0.1-0.4,0.3
			c0,0.3,0,0.6,0,0.9c0.1,0,0.1,0,0.2,0c0-0.1,0.1-0.2,0.1-0.4c0-0.2,0.1-0.4,0.1-0.7c0.1,0,0.4,0.1,0.4,0.1c0,0.2-0.1,0.5-0.1,0.7
			v0.1c0.3,0.3,1.4-0.6,0.9,0.8C48.2,30.2,48.9,30.2,49.7,30.2z M41.8,148.2c0.1,0,0.1,0,0.2,0.1c0.1-0.1,0.2-0.2,0.2-0.4
			c0.1-1.1,0.2-2.1,0.2-3.2c0.1-1.3,0.2-2.6,0.2-3.9c0.1-1.9,0.1-3.8,0.2-5.8c0-0.8,0-1.6-0.1-2.3c0-0.6-0.1-1.1-0.2-1.7
			c-0.1,0-0.1,0-0.2,0C42.6,136.7,42.3,142.4,41.8,148.2z M26.2,187.7v-0.1c-0.3-0.1-0.6-0.3-1-0.3c-2-0.5-4-0.9-6-1.5
			c-2.4-0.7-4.6-1.6-6.7-3c-0.4-0.2-0.8-0.4-1.2-0.6c0,0.1-0.1,0.1-0.1,0.2c0.2,0.1,0.3,0.3,0.5,0.4c0.5,0.3,0.9,0.6,1.4,0.8
			c0.9,0.5,1.8,1,2.8,1.4c0.9,0.4,1.9,0.7,2.9,1c0.8,0.3,1.6,0.5,2.4,0.6c1,0.2,2.1,0.4,3.1,0.6C25.1,187.5,25.6,187.6,26.2,187.7z
			 M34.6,184.4c0-0.9-0.2-1.9-0.1-2.8c0.1-1,0.2-1.9,0.5-2.9c0.3-0.9,0.6-1.8,1.1-2.6c0.4-0.8,1-1.6,1.6-2.4
			C35.1,174.8,32.8,182.7,34.6,184.4z M75.7,181.4c0.1,0,0.2,0,0.3,0c0.1-0.5,0.2-1,0.2-1.5c-0.1-0.8-0.2-1.6-0.3-2.4
			c-0.3-1.6-1.1-2.9-2.2-4c-0.8-0.8-1.7-1.5-2.7-2.2c-1-0.8-2.2-1.4-3.2-2.1c0,0.1-0.1,0.1-0.1,0.2c0.1,0.1,0.2,0.2,0.4,0.3
			c2.1,1.4,4.3,2.8,6,4.8c1.3,1.6,1.9,3.5,1.9,5.6C75.8,180.5,75.7,180.9,75.7,181.4z M38.6,173.2c-1,1-1.8,2.2-2.3,3.5
			s-0.9,2.6-0.9,4.1c0,2.2,0.1,3.6,0.8,4C35.1,180.5,36.4,176.8,38.6,173.2z M62,170.7c-0.1,0.1-0.1,0.1-0.2,0.2
			c1.7,1.6,3.2,3.3,4.4,5.3c1.3,2,1.7,4.2,2.1,6.5c0.2-0.3,0.2-0.5,0.2-0.8c-0.2-1.1-0.4-2.3-0.7-3.4c-0.3-1.2-1-2.2-1.7-3.2
			c-0.8-1-1.6-2-2.4-3C63.1,171.7,62.5,171.2,62,170.7z M67.4,167.8c0.1,0.2,0.1,0.3,0.2,0.4c1,0.8,2,1.7,3.1,2.4
			c1.7,1.2,3.4,2.4,4.7,4.1c1.1,1.6,1.7,3.3,1.5,5.2c0,0.2-0.1,0.5-0.1,0.7c0.1,0,0.2,0,0.3,0c0.1-0.3,0.1-0.6,0.2-0.9
			c0-0.3,0-0.5-0.1-0.8c0-0.5,0.1-1-0.1-1.5c-0.5-1.7-1.5-3.2-2.8-4.5c-1.4-1.4-3.2-2.4-4.9-3.6C68.8,168.9,68.2,168.3,67.4,167.8z
			 M73.6,181.3c0.1,0,0.2,0,0.3-0.1c-0.1-0.8-0.1-1.6-0.2-2.4c-0.1-1.4-0.7-2.7-1.6-3.8c-1-1.2-2.1-2.4-3.2-3.5
			c-0.8-0.8-1.8-1.3-2.7-2c0,0-0.1,0-0.3-0.1c0.2,0.3,0.3,0.4,0.4,0.5c1,0.8,1.9,1.6,2.9,2.3c1.4,1.1,2.4,2.5,3.3,4
			c0.8,1.4,1.1,2.9,1,4.5C73.4,181,73.6,181.2,73.6,181.3z M32.8,185.5c0.1,0,0.2,0,0.2,0c-0.4-4.2,0.6-8,3.1-11.3
			c-2.7,2.8-3.7,6.2-3.6,10C32.6,184.6,32.7,185.1,32.8,185.5z M37.5,75.9c-0.1,0-0.1,0-0.2,0c0,0.3,0.1,0.7,0.1,1
			c0,1.1-0.1,2.2-0.1,3.4c0,0.8-0.2,0.9-0.8,0.5c0-2.7,0-5.4,0-8.1c-0.1,0-0.2,0-0.3,0c0,2.7,0,5.5,0,8.4c1.4,0.1,3,0.3,4.5,0.5
			c0-0.1,0-0.1,0-0.2c-0.1-0.1-0.3-0.2-0.4-0.2c-0.8-0.1-1.6-0.2-2.4-0.2c-0.3,0-0.4,0-0.4-0.4c0-1.1,0.1-2.1,0.1-3.2
			C37.6,77,37.5,76.5,37.5,75.9z M31.2,47.2c-0.1,0-0.1,0-0.2-0.1c-0.1,0.6-0.2,1.1-0.4,1.7c-0.2,0.7-0.1,0.8,0.6,1
			c1.3,0.3,2.6,0.6,3.9,0.9c0.6,0.1,1.3,0.2,1.8,0.3c-0.1-0.5-0.2-0.9-0.4-1.4c-0.1,0.5-0.2,0.8-0.3,1.2c-0.5-0.2-0.9-0.3-0.7-0.9
			c0.1-0.2,0-0.5-0.1-0.7c-0.1,0-0.1,0-0.2,0c0,0.4-0.1,0.8-0.1,1.2c-0.6,0-0.8-0.4-0.7-0.9c0-0.1-0.1-0.3-0.1-0.4
			c-0.1,0-0.1,0-0.2,0c0,0.2,0,0.4-0.1,0.6c0,0.1-0.1,0.4-0.2,0.4c-0.2,0-0.5-0.1-0.7-0.1C33,50,33,49.8,33,49.7
			c0.1-0.4,0.1-0.9,0.2-1.3c-0.1,0-0.2,0-0.2,0c-0.1,0.4-0.2,0.8-0.2,1.1c0,0.4-0.2,0.5-0.5,0.4c-0.3,0-0.5-0.2-0.4-0.6
			c0.1-0.6,0.2-1.2,0.3-1.8c-0.1,0-0.1,0-0.2,0c-0.2,0.6-0.3,1.1-0.5,1.7c-0.1,0.4-0.3,0.5-0.6,0.4c-0.3-0.1-0.5-0.2-0.4-0.6
			C31,48.4,31,47.8,31.2,47.2z M70.2,100.2c0-0.1,0-0.1,0-0.2c-0.2-0.1-0.3-0.2-0.5-0.2c-1.5,0-3,0-4.4,0.1c-0.7,0-1.3,0-2,0
			c-1.7-0.1-3.5-0.2-5.2,0.1c-0.1,0-0.2,0.1-0.3,0.1v0.1C61.9,100.2,66.1,100.2,70.2,100.2z M20.2,168.3c0-0.1-0.1-0.1-0.1-0.2
			c-0.2,0.1-0.3,0.1-0.5,0.2c-0.8,0.4-1.5,0.7-2.2,1.2c-1.2,0.7-2.4,1.3-3.5,2.3c-1.2,1.1-2,2.5-2.6,4c-0.4,1.1-0.6,2.2-0.4,3.4
			c0.1,0,0.1,0,0.2,0l0.1-0.1c-0.2-1.1,0.3-2.1,0.5-3.2c0.4-1.5,1.1-2.8,2.3-3.7c1.6-1.2,3.4-2.2,5.1-3.2
			C19.4,168.6,19.8,168.5,20.2,168.3z M49.7,133.5c-0.1,0-0.1,0-0.2,0c-0.1,4.7,0.3,9.5,0.5,14.2c0.1,0,0.2,0,0.3,0
			C50,142.9,49.8,138.2,49.7,133.5z M69.1,168.3c0,0.1-0.1,0.1-0.1,0.2c0.9,0.6,1.7,1.1,2.6,1.7c1.9,1.3,3.8,2.6,5.1,4.5
			c1,1.6,1.5,3.2,1.1,5.1c0,0.1,0,0.2,0,0.3s0,0.2,0,0.3c0.4-0.8,0.4-1.3,0.3-2.7c-0.2-2.1-1.3-3.7-2.8-5s-3.1-2.3-4.7-3.5
			C70.1,168.9,69.6,168.6,69.1,168.3z M58.9,39.8C58.9,39.8,58.9,39.9,58.9,39.8c0,0.2,0.1,0.3,0.2,0.4c1.7,1.3,2.5,3.2,3.1,5.2
			c0.4,1.5,0.7,3,0.7,4.5c0,0.1,0.2,0.2,0.3,0.3c0.1-0.1,0.2-0.2,0.2-0.2c-0.1-1.1-0.2-2.2-0.4-3.3c-0.2-0.9-0.6-1.7-0.8-2.5
			c-0.5-1.6-1.4-3-2.7-4.1C59.3,40,59.1,39.9,58.9,39.8z M61.4,50.6c-0.1-0.5-0.1-1-0.2-1.5c-0.2-1-0.3-1.9-0.6-2.9s-0.6-2.1-1.1-3
			c-0.4-0.7-1-1.3-1.6-2c-0.1-0.1-0.3-0.2-0.4-0.3c0,0.2,0.1,0.2,0.1,0.3c1.4,1.1,2,2.7,2.4,4.4c0.3,1.1,0.6,2.2,0.6,3.3
			c0,0.6,0.4,1.3-0.3,1.8c0.1,0.1,0.1,0.1,0.1,0.1C60.9,50.8,61.2,50.7,61.4,50.6z M61.2,39.6L61.2,39.6c0,0.2,0,0.3,0.1,0.4
			c1.9,1.4,2.7,3.3,3.3,5.5c0.3,1,0.3,2.1,0.5,3.2c0.1,0.4,0.2,0.8,0.2,1.2c0.1,0,0.1,0,0.2,0c0.2-1.7-0.2-3.4-0.7-5
			C64.3,42.6,63.2,40.8,61.2,39.6z M61.4,39.1c0,0.1-0.1,0.1-0.1,0.2c0.3,0.2,0.6,0.4,0.9,0.6c0.6,0.5,1.3,1,1.9,1.6
			c0.8,0.9,1.4,1.8,1.8,3c0.2,0.9,0.5,1.7,0.7,2.6c0.1,0.6,0.1,1.1,0.1,1.7c0,0.1,0.2,0.2,0.3,0.3c0.1-0.1,0.3-0.2,0.2-0.3
			c-0.1-0.7-0.1-1.5-0.4-2.2c-0.3-1-0.5-1.9-1-2.9C65,42.2,64,41,62.7,39.9C62.4,39.6,61.9,39.3,61.4,39.1z M62.1,50.8
			c0.2-0.2,0.3-0.3,0.4-0.5c0-0.3,0-0.6,0-0.9c-0.2-1-0.4-1.9-0.6-2.9c-0.4-2.4-1.4-4.5-3.2-6.1c-0.1-0.1-0.3-0.2-0.4-0.4
			c-0.1,0-0.1,0.1-0.2,0.1C61.2,43,61.9,46.7,62.1,50.8z M60.4,39.9c-0.1,0.1-0.1,0.1-0.2,0.2c1.6,1.2,2.4,2.8,3,4.6
			c0.7,1.8,1.1,3.6,0.9,5.5c0.4,0,0.4,0,0.4-0.4c0-1.7-0.4-3.4-0.9-5c-0.6-1.7-1.4-3.3-2.7-4.5C60.8,40.1,60.6,40,60.4,39.9z
			 M60.2,50.9c-0.2-1.3-0.3-2.4-0.4-3.6c-0.2-1.7-0.7-3.2-1.7-4.6c-0.1-0.2-0.3-0.3-0.5-0.4c1.7,2.6,2,5.5,1.9,8.5
			c-0.2,0-0.3,0.1-0.5,0.1c0,0.1,0,0.1,0,0.2C59.4,51,59.8,50.9,60.2,50.9z M12.4,185.5c-0.2,3-0.3,5.8,0,8.7c0.1,0,0.2,0,0.3,0
			c0-2.7,0-5.4,0-8.2C12.7,185.9,12.6,185.7,12.4,185.5z M40.2,199.2c0.1,0,0.1,0,0.2,0c0-2.5,0-5.1,0-7.6c0.2-0.1,0.4-0.1,0.5-0.2
			c0-0.1,0-0.1-0.1-0.2c-0.5,0.1-1,0.2-1.5,0.4v0.1c0.2,0,0.4,0,0.5,0C40.2,194.2,39.7,196.7,40.2,199.2z M30.9,96.4
			c-0.1,0-0.1,0-0.2-0.1c-0.1,0.3-0.3,0.5-0.4,0.7c-0.1,0.1-0.3,0.1-0.4,0.2c0-0.2-0.1-0.3-0.1-0.5c0.1-0.3,0.2-0.6,0.3-0.9
			c-0.2,0.2-0.3,0.4-0.5,0.6c-0.1,0.1-0.4,0.2-0.6,0.2c0-0.2-0.2-0.4-0.1-0.6c0.1-0.3,0.2-0.5,0.4-0.7c-0.1,0-0.1-0.1-0.2-0.1
			c-0.1,0.2-0.3,0.4-0.4,0.6c-0.2,0.5-0.4,0.4-0.7,0.1c-0.3-0.3-0.1-0.5,0.1-0.8c0.3-0.5,0.6-0.9,0.8-1.4c-0.1,0-0.1-0.1-0.2-0.1
			c-0.3,0.5-0.7,1-1,1.5c-0.1,0.1-0.4,0.3-0.5,0.2c-0.2-0.1-0.3-0.3-0.4-0.5c0-0.1,0-0.2,0.1-0.4c-0.7,0.4-0.6-0.1-0.7-0.5
			c-0.1,0.2-0.2,0.4-0.1,0.6c0.4,0.5,0.8,1,1.3,1.3c0.8,0.6,1.7,1.1,2.6,1.5c0.1,0.1,0.5-0.1,0.6-0.2C30.7,97.1,30.8,96.7,30.9,96.4
			z M56.3,41.9c1.9,2.8,1.9,6,1.9,9.2c0.2-0.2,0.3-0.4,0.3-0.6c0-1,0-2.1-0.1-3.1c-0.1-1.6-0.4-3.1-1.2-4.4
			C57,42.6,56.6,42.3,56.3,41.9z M70.9,99.5c0-0.1,0-0.2,0-0.2c-0.2,0-0.3-0.1-0.5-0.1c-0.5,0-1,0-1.4,0c-1,0-2,0.1-2.9,0.1
			c-0.8,0-1.6,0-2.4,0c-0.5,0-1.1,0-1.5-0.1c-0.5-0.1-0.8,0.1-1.2,0.4C64.3,99.5,67.6,99.5,70.9,99.5z M59.3,62.3
			c-0.1,0-0.1,0-0.2-0.1c-0.2,0.7-0.5,1.4-0.6,2.1c-0.3,1.4-0.5,2.8-0.7,4.3c-0.2,1.7-0.4,3.4-0.6,5.1c0,0.2,0.1,0.3,0.2,0.5
			C57.6,70.2,58.2,66.2,59.3,62.3z M77.9,183.8c-0.2,0.2-0.6,0.4-0.6,0.6c0,0.7,0.1,1.5,0.1,2.2c0,1.8,0,3.6,0,5.5
			c0,0.5,0,0.6,0.4,0.6C77.9,189.8,77.9,186.9,77.9,183.8z M43.9,84.4L43.9,84.4c-0.4-0.2-0.8-0.3-1.1-0.3c-1,0-1.9,0-2.9,0
			c-1.3-0.1-2.6-0.4-3.8-0.5c-0.5-0.1-1.1-0.2-1.6-0.3c-0.1,0-0.3,0-0.4,0.1v0.2c0.1,0,0.3,0,0.4,0.1c0.2,0,0.3,0,0.5,0
			c0.8,0.2,1.6,0.4,2.4,0.5c1,0.2,2,0.3,3,0.4C41.5,84.5,42.7,84.4,43.9,84.4z M52.4,131.2c0.1,0,0.1,0,0.2,0c0-3.8,0-7.5,0-11.3
			c-0.1,0-0.1,0-0.2,0C52.4,123.7,52.4,127.4,52.4,131.2z M14.8,186.6c-0.1,0-0.2,0-0.2,0c0,2.8,0,5.6,0,8.3c0.1,0,0.2,0,0.2,0
			c0-1,0.1-2.1,0.1-3.1c0-1.7,0.1-3.4,0.1-5.1C15,186.7,14.8,186.7,14.8,186.6z M41.3,191.4c0.1,2.6,0.1,5.1,0.2,7.7
			c0.1,0,0.2,0,0.2,0c0-0.2,0-0.4,0-0.5c0-1.1-0.1-2.2-0.1-3.3c0-1,0.1-2.1,0.1-3.1c0-0.4-0.1-0.6,0.4-0.7c-0.2-0.1-0.3-0.1-0.4-0.1
			C41.5,191.3,41.4,191.4,41.3,191.4z M55.8,42.5c-0.1,0-0.2,0.1-0.3,0.1c1.9,2.6,1.8,5.6,1.6,8.7c0.2,0,0.5,0,0.7-0.1
			c-0.1-0.3-0.2-0.5-0.2-0.8c0-0.4,0-0.8,0-1.2c0-1.4,0-2.7-0.5-4C56.7,44.2,56.2,43.4,55.8,42.5z M63.4,184.8c1-1,0-6.9-1.4-8.2
			C63.2,179.1,63.6,181.8,63.4,184.8z M16,195.6c0-2.5,0.3-4.9,0.1-7.4C15.7,189.1,15.6,194.8,16,195.6z M34.8,42.8
			c0.6-0.3,1.2-0.5,1.5-0.9c0.5-0.7,0.5-1.1,0.1-1.4c-0.2,0.2-0.5,0.3-0.7,0.5c-0.1-0.1-0.2-0.2-0.3-0.2c-0.3-0.1-0.6-0.3-0.8-0.2
			c-0.3,0.3,0.1,0.4,0.2,0.6c0.1,0.3,0.5,0.7,0,1.1C34.8,42.3,34.8,42.6,34.8,42.8z M52.1,42.9c-0.1,0-0.1,0-0.2,0.1
			c1.4,2.7,1.5,5.5,1.2,8.4c0.5,0,0.5,0,0.4-0.4c0-0.1,0-0.2,0-0.3c0.3-2.2-0.1-4.4-0.8-6.5C52.6,43.8,52.4,43.4,52.1,42.9z
			 M17.8,170.9c1.1-1.3,2.6-1.5,4-2.3c-1.4-0.3-6.9,3.1-7.8,4.8c1.1-0.9,2.3-1.8,3.5-2.7C17.7,170.9,17.8,170.9,17.8,170.9z
			 M38.9,191c0-0.1,0-0.2,0-0.3c-2.9-0.1-5.8-0.2-8.7-0.3c0,0.1,0,0.1,0,0.2C33.2,190.9,36,191.1,38.9,191z M31.3,183.3
			c0.2-1.2,0.2-2.5,0.5-3.7c0.4-1.2,1.1-2.3,1.7-3.4c-0.3,0-0.9,0.6-1.6,2.2C31.1,180.2,30.7,182.4,31.3,183.3z M61.9,103.6
			c-0.1,0-0.1,0-0.2,0c0,1.2,0,2.4,0,3.6c0.4-0.1,0.9-0.2,1.4-0.3c0-0.3-0.1-0.5-0.1-0.6c0-0.6,0.1-1.2,0.1-1.8
			c0-0.7-0.1-0.8-0.5-0.9c0.3,1.5,0.2,3-0.4,3.4C62.1,105.8,62.3,104.6,61.9,103.6z M71.1,98.8c-0.5-0.4-7.6-0.3-8,0
			C65.7,98.8,68.4,98.8,71.1,98.8z M15.5,173.6l0.1,0.1c2.2-1.8,4.6-3.1,7.2-4.3c-0.2-0.1-0.4-0.2-0.5-0.1c-0.5,0.2-1,0.5-1.5,0.8
			c-1.5,0.9-3.1,1.9-4.6,2.8C15.9,173.1,15.7,173.4,15.5,173.6z M49,72.4L49,72.4c-0.1,0.1-0.1,0.2-0.1,0.3c0,2.3-0.1,4.5-0.1,6.8
			c0,0.6-0.1,1.1-0.1,1.7c0,0.2,0,0.3,0,0.5c0.2,0,0.3,0,0.5,0C49,78.5,49,75.4,49,72.4z M65,95.3c0.3,0.3,0.5,0.7,0.8,0.9
			c0.3,0.2,0.6,0.5,0.9,0.5c1.2,0,2.3-0.1,3.5-0.2c0.1,0,0.1-0.1,0.3-0.3c-1,0.1-1.8,0.1-2.6,0.2c-0.5,0-1,0.1-1.4,0
			c-0.3-0.1-0.4-0.5-0.7-0.9c1.1-0.1,2.3-0.1,3.5-0.2c0-0.1,0-0.2,0-0.2C67.8,95.1,66.5,95.2,65,95.3z M14.3,180.1
			c-0.1-2.3,1.1-4,2.6-5.6c-0.7,0.1-2.1,1.7-2.6,3C14.1,178.4,13.8,179.3,14.3,180.1z M32.1,177.1c0-0.1-0.1-0.1-0.1-0.2
			c-0.2,0.1-0.4,0.2-0.5,0.4c-1,1.7-2.2,3.4-1.6,5.6C30.1,180.7,30.7,178.7,32.1,177.1z M39,193.1c-0.5,0.2-0.6,5,0,6
			C39,197,39,195,39,193.1z M65.3,103c0.1,0.5,0.2,1.1,0.2,1.6s-0.2,1-0.3,1.5c-0.2-0.8,0.1-1.6-0.4-2.3c-0.1,1-0.2,1.9-0.3,2.9
			c0.3-0.1,0.4-0.3,0.6-0.3c0.6,0,0.6-0.4,0.6-0.9c0-0.1,0-0.2,0-0.4C65.9,104.4,65.6,103.7,65.3,103z M37.5,199.2
			c0.1,0,0.2,0,0.3,0c0-1.8,0-3.6,0-5.3c-0.1,0-0.1,0-0.2,0C37.4,195.6,37.4,197.4,37.5,199.2z M30.8,176.8c-1.1,0.7-1.6,1.9-2,3.1
			c-0.2,0.5,0,1.6,0.4,2C28.7,179.8,29.8,178.3,30.8,176.8z M47.5,143.5c-0.1,0-0.1,0-0.2,0c0,2.5,0.1,4.9,0.3,7.4
			c0.1,0,0.1,0,0.2,0C47.7,148.5,47.6,146,47.5,143.5z M40.9,51.5c-0.1-2.5,0-4.8,0.5-7.2C41.2,44.5,41,44.7,41,45
			c-0.1,1.4-0.3,2.9-0.4,4.4c0,0.6-0.1,1.2-0.1,1.8c0,0.1-0.1,0.2-0.2,0.3C40.6,51.5,40.7,51.5,40.9,51.5z M42.2,90.8
			c-0.8-0.2-1.6-0.3-2.3-0.5c-0.5-0.1-1-0.1-1.6-0.2c-0.4-0.1-0.8-0.2-0.5-0.8c0.1-0.4,0-1,0-1.5c-0.1,0-0.1,0-0.2,0
			c-0.1,0.6-0.2,1.3-0.2,2c-0.3,0-0.5-0.1-0.9-0.1C37.2,90.3,41.3,91.1,42.2,90.8z M71.1,98.1c-0.4-0.4-5.7-0.4-6.6,0
			C66.7,98.1,68.9,98.1,71.1,98.1z M17.3,190.1c-0.1-0.1-0.2-0.2-0.3-0.2c0,0.1-0.1,0.3-0.1,0.4c0,1.6,0,3.2-0.1,4.8
			c0,0.1,0.1,0.2,0.1,0.3c0.1,0,0.1-0.1,0.2-0.1C17.2,193.6,17.2,191.9,17.3,190.1z M53.7,124c0.1,0,0.1,0,0.2,0c0-2.4,0-4.8,0-7.2
			c-0.1,0-0.1,0-0.2,0C53.7,119.2,53.7,121.6,53.7,124z M44.6,83c0,0.1,0,0.1,0,0.2c0.6,0,1.2,0,1.7,0c1.4,0,2.7,0.1,4.1,0.1
			c0.1,0,0.2-0.1,0.4-0.3C48.7,83,46.6,83,44.6,83z M64.8,95c1.1-0.5,2.3-0.1,3.2-0.6c-0.9,0-1.9,0-2.8,0.2
			c-0.5,0.1-0.6-0.2-0.9-0.5c1-0.1,1.9-0.1,2.8-0.2c0-0.1,0-0.1,0-0.2c-1,0.1-2,0.1-3.1,0.2C64.3,94.3,64.6,94.7,64.8,95z
			 M9.5,185.7c-0.4,0.6-0.4,5.7,0,6.2C9.5,189.8,9.5,187.8,9.5,185.7z M53.7,104.4c-0.1,0-0.1,0.1-0.2,0.1c0,0.1,0.1,0.1,0.1,0.2
			c0.1,1,0.3,2-0.2,3c0,0,0.2,0.2,0.3,0.2c0.2,0,0.3-0.1,0.4-0.1c0-0.6,0.2-1.2,0.1-1.8C54.1,105.5,54.3,104.8,53.7,104.4z M38.5,59
			L38.5,59c-1.9-0.5-3.7-0.9-5.7-1.4c0.2,0.3,0.4,0.4,0.5,0.6c0-0.1,0-0.1,0-0.2C35.1,58.2,36.7,58.8,38.5,59z M70.9,97.3
			c-0.4-0.4-4.4-0.3-5,0C67.5,97.3,69.2,97.3,70.9,97.3z M18.4,195.7c0.1,0,0.2,0,0.3,0c0-0.5,0-1,0-1.4c0-0.5-0.1-1-0.1-1.5
			c0.1-1,0.1-1-0.2-1.2C18.4,192.9,18.4,194.3,18.4,195.7z M52.9,107.9c0-0.6,0-1.2,0-1.7s0.1-1.1-0.4-1.5c0.1,1.1,0.2,2.2-0.4,3.3
			C52.4,107.9,52.7,107.9,52.9,107.9z M35.6,75.9c-0.1,0-0.1,0-0.2,0c0,0.2,0,0.4,0,0.6c0,0.9,0,1.9,0,2.8c0,0.6-0.1,1.2-0.1,1.8
			c0,0,0.2,0,0.4,0C35.6,79.2,35.6,77.6,35.6,75.9z M68,46.3c0.2-1-1.7-4.6-2.6-4.9C66.7,42.9,67.4,44.6,68,46.3z M48,81.7
			c0-1.6,0-3.1,0-4.6c-0.1,0-0.1,0-0.2,0c-0.1,1.5-0.2,3.1-0.3,4.6C47.6,81.7,47.8,81.7,48,81.7z M50.4,21.6c0.1,0,0.1,0,0.2,0
			c0-0.7,0-1.3,0-2c0.1,0,0.2,0,0.3,0c0.1,0.8,0.2,1.6,0.3,2.4c0.4-0.7,0.1-1.3,0-2c-0.2-0.8-0.5-0.9-1.1-0.5
			C50.2,20.3,50.3,20.9,50.4,21.6z M47.9,107.9c-0.7-0.5-0.7-1-0.6-1.6c0.1-0.5,0.1-1.1,0.1-1.6c-0.1,0-0.1,0-0.2,0
			c-0.6,1.1-0.1,2.3-0.3,3.4C47.2,108,47.5,108,47.9,107.9z M48.6,104.5c-0.7,1.2,0,2.3-0.3,3.4c0.3,0,0.7,0,1.2,0
			c-0.3-0.2-0.6-0.3-0.6-0.3c-0.1-0.8-0.1-1.7-0.2-2.5C48.7,104.9,48.6,104.8,48.6,104.5z M13.3,179.4c-0.2-1.7,0.4-3.1,1.3-4.5
			C13.4,175.5,12.6,178.4,13.3,179.4z M50.2,105c-0.1,0-0.1,0-0.2,0c0,0.2-0.1,0.5-0.1,0.7c-0.1,0.7,0,1.4-0.1,2
			c-0.1,0.4,0.1,0.4,0.4,0.3c0.1,0,0.2-0.1,0.3-0.1C50.3,107,50.3,106,50.2,105z M64,106.7c0-0.6,0-1.1,0-1.7s-0.1-1.1-0.1-1.7
			c-0.1,0-0.1,0-0.2,0c-0.1,1.1-0.2,2.3-0.3,3.4C63.7,106.7,63.9,106.7,64,106.7z M51,83c1.5,0.2,4.6-0.4,5-0.9
			C54.4,82.4,52.7,82.7,51,83z M53,71.1c0.1,0,0.2,0,0.3,0c0.1-1.7,0.3-3.4,0.4-5.1c-0.1,0-0.1,0-0.2,0C53.3,67.7,53.2,69.4,53,71.1
			z M51.5,104.7L51.5,104.7c-0.2,1.1-0.2,2.2-0.3,3.3c0.3,0,0.5,0.1,0.5-0.4c-0.1-0.7,0-1.4,0-2.1C51.7,105.2,51.6,104.9,51.5,104.7
			z M28.2,178.8c-0.9,0.8-1.2,2.3-0.5,3.1C27.9,180.9,28.1,179.8,28.2,178.8z M12.5,175.4c-0.3,1.3-0.6,2.5-0.8,3.7
			c0.1,0,0.1,0,0.2,0c0.3-1.3,0.7-2.5,1-3.9C12.7,175.4,12.6,175.4,12.5,175.4z M39.5,46.4c-0.6,1.5-0.6,3-0.4,4.6
			C39.3,49.4,39.4,47.9,39.5,46.4z M27.7,44.2c-0.1,0-0.2,0.1-0.2,0.1c-0.5,1.1-1.1,2.2-1.6,3.3c0,0.1,0.1,0.3,0.2,0.4
			C26.7,46.7,27.2,45.5,27.7,44.2z M47.4,91.8c-0.5-0.3-3.9-0.3-4.3,0C44.6,91.8,45.9,91.8,47.4,91.8z M46.3,62.3L46.3,62.3
			c1.3,0.1,2.6,0.1,3.9,0.1c0-0.1,0-0.2,0-0.3C49,62.2,47.7,62.3,46.3,62.3z M50.5,62.1c0,0.1,0,0.2,0,0.2c1.4-0.1,2.8-0.3,4.2-0.4
			c0-0.1,0-0.2,0-0.2C53.4,61.9,52,62,50.5,62.1z M28.6,44.9c0,0-0.1,0-0.1-0.1c-0.2,0.3-0.4,0.6-0.5,0.9c-0.3,0.8-0.6,1.7-1,2.5
			c0,0.1,0.1,0.2,0.2,0.3c0.1-0.1,0.2-0.1,0.2-0.2c0.1-1.1,0.5-2,1-3C28.5,45.1,28.5,45,28.6,44.9z M36.5,66.9c0.1,0,0.2,0,0.2-0.1
			c-0.3-1.4-0.6-2.9-0.9-4.3c-0.1,0-0.1,0-0.2,0C35.9,64,36.2,65.5,36.5,66.9z M30.9,56.3c0.5,1.4,1,2.8,1.4,4.1
			C32.5,59.8,31.4,56.7,30.9,56.3z M38.8,58.8c0,0.1,0,0.2,0,0.3c1.3,0.1,2.5,0.3,3.8,0.4c0-0.1,0-0.1,0-0.2
			C41.3,59.1,40.1,59,38.8,58.8z M38.3,162.2c-0.8-1-0.8-1-1.4-0.2c0.3,0.2,0.7,0.4,1,0.6C38,162.4,38.1,162.3,38.3,162.2z
			 M42.6,30.6c-0.4-1.1-0.2-2.1,0.2-3.2C42,28.1,41.9,30.1,42.6,30.6z M57.2,124.1L57.2,124.1c0.1-1.4,0.1-2.8,0.1-4.2h-0.1
			C57.2,121.3,57.2,122.7,57.2,124.1z M52.5,67.5c-0.1,0-0.1,0-0.2,0c0,1.3,0,2.6,0,3.9c0.1,0,0.1,0,0.2,0
			C52.5,70.1,52.5,68.8,52.5,67.5z M35.5,71.9c-0.1,0-0.1,0-0.2,0L35.2,72c0,1.2,0.1,2.4,0.1,3.6c0,0,0.1,0.1,0.3,0.2
			C35.7,74.4,35.6,73.1,35.5,71.9z M30.5,46.1c-0.1,0-0.1,0-0.2-0.1c-0.3,1-0.7,2-1,3.1c0,0.1,0.1,0.2,0.2,0.3
			C29.9,48.3,30.2,47.2,30.5,46.1z M51.2,59.4c0.7-0.1,1.4-0.1,2.1-0.2c-0.1-0.2-0.1-0.4-0.2-0.4c-0.4,0.1-0.7,0.3-1,0.3
			C51.5,59,52,58.4,51.6,58C51.5,58.5,51.4,58.9,51.2,59.4z M48.4,86.7c-0.1,0-0.2,0-0.3,0c0,1.2,0,2.5,0,3.7l0,0
			C48.2,89.2,48.3,87.9,48.4,86.7z M37.7,51.2c0.2,0,0.5,0,0.8,0c-0.6-0.1-0.4-0.6-0.4-0.9c0-0.4,0-0.8,0-1.1s0-0.7,0.1-1
			c-0.1,0-0.1,0-0.2,0C37.8,49.1,37.7,50.2,37.7,51.2z M23.3,177.2c0-0.1,0-0.1,0-0.2c-0.5,0-0.9-0.2-1-0.8
			c-0.2,0.2-0.4,0.4-0.5,0.6c-0.1,0.2,0,0.5,0,0.8c0.1,0,0.4-0.1,0.4-0.1c0-0.3,0.3-0.2,0.5-0.3C22.8,177.2,23.1,177.2,23.3,177.2z
			 M31.7,105c-0.5,0.9-0.2,1.5,0.6,1.7c0.2,0,0.3,0,0.5,0c0-0.2-0.1-0.3-0.1-0.5c-0.2,0.1-0.4,0.2-0.5,0.3
			C32,106,31.8,105.6,31.7,105z M78.3,181.2c0.6-0.4,0.9-2.9,0.5-3.2C78.6,179,78.5,180.1,78.3,181.2z M65.3,41.2L65.3,41.2
			c-0.9-1.1-1.9-2-3.2-2.6C63.2,39.4,64.2,40.3,65.3,41.2z M58.8,89.8L58.8,89.8c1,0.1,2,0.1,3,0.1c0-0.1,0-0.2,0-0.2
			c-0.8,0-1.6-0.1-2.4-0.1C59.2,89.6,59,89.8,58.8,89.8z M40.9,31.9C40.9,31.9,40.9,31.8,40.9,31.9c0-0.1,0-0.1,0-0.2
			c-0.5-1-0.8-1.9-0.2-3c0,0-0.1-0.2-0.2-0.3C39.9,29.9,40.1,31.3,40.9,31.9z M50,15.4c-0.1,0-0.1,0-0.2,0c0.2,1,0.5,2,0.7,2.9
			c0.1,0,0.1,0,0.2-0.1C50.4,17.3,50.5,16.3,50,15.4z M34.2,60.3c-0.1,0-0.1,0-0.2,0.1c0.3,1.1,0.6,2.1,0.9,3.2c0.1,0,0.1,0,0.2-0.1
			C34.8,62.5,34.7,61.4,34.2,60.3z M43.5,38.4c0,0.1,0,0.2,0,0.2c1,0,2,0,3,0c-0.5-0.1-1-0.2-1.5-0.2S44,38.4,43.5,38.4z M58.6,68.4
			c-0.4,0.6-0.7,3.5-0.4,3.8C58.4,71,58.5,69.7,58.6,68.4z M41,28.8c-0.4,0.4-0.2,2.1,0.5,2.5C41.3,30.5,41.1,29.6,41,28.8z
			 M36.9,70C36.9,70,37,70,36.9,70c0.2,0,0.3-0.2,0.3-0.3c0-0.5-0.1-1-0.2-1.5c-0.1-0.3-0.2-0.6-0.3-0.9c-0.1,0-0.1,0-0.2,0.1
			C36.6,68.2,36.8,69.1,36.9,70z M38.3,122.3c0-0.3,0.1-0.5,0-0.7c0-0.3,0.2-0.7-0.3-0.7c-0.3,0-0.5,0.3-0.4,0.6
			C37.8,121.8,37.9,122.3,38.3,122.3z M62.2,37c0,0.1-0.1,0.1-0.1,0.2c1,0.6,1.9,1.1,2.9,1.7c0-0.1,0.1-0.1,0.1-0.2
			C64.1,38.1,63.1,37.6,62.2,37z M36.9,86.4c-0.1,0-0.2,0-0.3,0c-0.1,0.9-0.2,1.7-0.2,2.6c0.1,0,0.2,0,0.3,0
			C36.7,88.2,36.8,87.3,36.9,86.4z M59.7,56.1c-0.8,0.9-1.2,2.3-0.8,2.6C59.1,57.8,59.4,57,59.7,56.1z M52.7,76.5c0.1,0,0.1,0,0.2,0
			c0.1-1.1,0.2-2.2,0.2-3.4c-0.1,0-0.1,0-0.2,0C52.9,74.2,52.8,75.4,52.7,76.5z M31.6,90.2c-0.4,0.4,0,1.4,0.9,1.8
			c-0.2-0.2-0.4-0.4-0.6-0.7c0.3,0,0.5,0,0.7,0c0-0.1,0-0.1,0-0.2c-0.3,0-0.6,0.1-0.8,0C31.7,90.8,31.7,90.5,31.6,90.2z M52.3,75.2
			c-0.1,0-0.2,0-0.2,0c0,1,0,2.1,0,3.1h0.1C52.2,77.2,52.3,76.2,52.3,75.2z M18.6,177c-0.1,0.3-0.2,0.6-0.3,0.9
			c-0.2-0.1-0.4-0.2-0.5-0.3c0,0.1-0.1,0.1-0.1,0.2c0.2,0.1,0.5,0.3,0.7,0.4c0.2,0,0.3-0.2,0.5-0.4C18.7,177.6,19.2,177,18.6,177z
			 M41.1,28.4c0.5-0.5,0.9-1,1.4-1.5C41.8,26.9,41,27.7,41.1,28.4z M69.7,95.9c0-0.1,0-0.2,0-0.3c-0.9,0-1.9,0.1-2.8,0.1v0.1
			C67.8,95.9,68.7,95.9,69.7,95.9z M55.1,58.9c0,0.1,0,0.1,0.1,0.2c0.4,0,0.7-0.1,1-0.1c0-0.5,0-1,0.1-1.5
			C55.6,57.9,56.2,59.1,55.1,58.9z M49.3,19.7c-0.4,0.6,0.1,1.3,0.1,2C49.7,21,49.5,20.4,49.3,19.7z M26.9,43.1
			c-0.6,0.2-1.2,1.2-1.4,2.5C26,44.7,26.4,43.9,26.9,43.1z M34.8,74.8L34.8,74.8c-0.1,1-0.1,2-0.1,3h0.1
			C34.8,76.8,34.8,75.8,34.8,74.8z M59,88.9c0,0.1,0,0.1,0,0.2c0.7,0,1.4,0,2.3,0C60.5,88.6,59.7,88.8,59,88.9z M46.9,86.7
			c-0.1,0-0.1,0-0.2,0c-0.1,0.8-0.1,1.6-0.2,2.4c0.1,0,0.1,0,0.2,0C46.8,88.3,47.2,87.5,46.9,86.7z M56.5,58.9
			c1.2,0,1.6-0.5,1.6-1.9c-0.1,0.3-0.3,0.5-0.3,0.7c0,0.6-0.2,1.1-1,1C56.7,58.7,56.6,58.8,56.5,58.9z M23.8,196.9
			c0.3-0.2,0.5-0.4,0.7-0.6c-0.4-0.3-1-0.3-1.1-0.1C23.4,196.5,23.7,196.7,23.8,196.9z M66.2,106c0.6-0.1,0.7-0.9,0.3-1.9
			C66.4,104.8,66.3,105.4,66.2,106z M52.6,67.3c0-0.9-0.1-1.7-0.1-2.4c-0.1,0-0.2,0-0.2,0c0,0.7,0,1.4,0,2.2
			C52.3,67.1,52.4,67.2,52.6,67.3z M49.8,35.9c0,0.1,0,0.1,0,0.2c0.8-0.2,1.7-0.2,2.5-0.6c0-0.1,0-0.1,0-0.2
			C51.4,35.5,50.6,35.7,49.8,35.9z M36,85.9c-0.1,0-0.1,0-0.2,0c0,0.8-0.5,1.5-0.1,2.3C35.8,87.4,35.9,86.7,36,85.9z M34.8,73.5
			c0-0.8-0.1-1.6-0.1-2.4C34.4,71.3,34.4,72.8,34.8,73.5z M57.6,130.3c0-0.6,0-0.9,0-1.3c0-0.4,0-0.8,0-1.2c-0.1,0-0.2,0-0.2,0
			C57.4,128.6,57.2,129.4,57.6,130.3z M34.9,80.8c0-0.7,0-1.3,0-1.9C34.5,80.2,34.5,80.5,34.9,80.8z M45.1,59.6c0-0.1,0-0.1,0-0.2
			c-0.7,0-1.5-0.1-2.2-0.1c0,0.1,0,0.1,0,0.2C43.6,59.5,44.3,59.6,45.1,59.6z M68.2,46.6L68.2,46.6c-0.1,0.5-0.1,1.1-0.1,1.6
			c0,0.1,0.1,0.2,0.2,0.3c0.1-0.1,0.2-0.2,0.2-0.2C68.3,47.7,68.3,47.1,68.2,46.6z M17.1,178.5c-0.1,0-0.3-0.1-0.3-0.1
			c-0.1,0.4-0.9,0.6-0.6,1.4C16.5,179.3,16.8,178.9,17.1,178.5z M22.7,181.7c0.1,0,0.1,0.1,0.2,0.1c0.3,0,0.7-0.1,1-0.1
			c0-0.1,0-0.2,0-0.3c-0.3,0-0.6-0.1-0.8-0.1C22.9,181.3,22.8,181.5,22.7,181.7z M28.7,47.3C28.7,47.3,28.6,47.3,28.7,47.3
			c-0.3,0.5-0.4,1-0.6,1.5c0.2,0.1,0.4,0.2,0.5,0.2c0-0.3,0-0.6,0-0.9C28.6,47.9,28.7,47.6,28.7,47.3z M55.8,65.3
			c-0.1,0-0.2,0-0.2,0c-0.1,0.7-0.2,1.3-0.4,2c0.1,0,0.1,0,0.2,0C55.5,66.6,55.7,66,55.8,65.3z M33.8,110.4c-0.1,0-0.1,0-0.2,0
			c0,0.6,0,1.2,0,1.8c0.1,0,0.1,0,0.2,0C33.8,111.6,33.8,111,33.8,110.4z M58.3,36.5c0-0.1,0-0.2,0.1-0.2c-0.5-0.2-1.1-0.4-1.6-0.7
			c0,0.1-0.1,0.2-0.1,0.3C57.3,35.7,57.6,36.5,58.3,36.5z M49.9,35.2c0,0.1,0,0.1,0,0.2c0.7-0.2,1.3-0.4,2-0.5c0-0.1,0-0.1-0.1-0.2
			C51.3,34.9,50.6,35,49.9,35.2z M57.4,76.4c0-0.6,0-1.2,0-1.8C57,75.2,57.1,76.3,57.4,76.4z M35.9,70.1c0.1,0,0.2,0,0.3,0
			c0-0.5-0.1-1.1-0.1-1.6c-0.1,0-0.1,0-0.2,0C35.9,69.1,35.9,69.6,35.9,70.1z M65.7,93.2L65.7,93.2c-0.6-0.1-1.2-0.1-1.8-0.1v0.1
			C64.5,93.2,65.1,93.2,65.7,93.2z M36.3,70.6c-0.1,0-0.2,0-0.3,0c0.1,0.6,0.1,1.2,0.2,1.7c0.1,0,0.1,0,0.2,0
			C36.3,71.7,36.3,71.2,36.3,70.6z M68.2,103.3L68.2,103.3c-0.2,0.6-0.2,1.2-0.2,1.8c0,0.1,0.2,0.1,0.3,0.2
			C68.2,104.6,68.2,103.9,68.2,103.3z M67.4,105.7c0-0.6,0-1.1,0-1.7C67.1,104.6,67,105.4,67.4,105.7z M39.5,128.7L39.5,128.7
			c-0.1,0.7-0.1,1.3-0.1,2h0.1C39.5,130.1,39.5,129.4,39.5,128.7z M49.6,17.3c0,0.5,0,0.9,0,1.3C50.2,18.5,50.2,18.5,49.6,17.3z
			 M60.3,56.9c-0.6,0.7-0.8,1.4-0.6,1.8C59.9,58.1,60.1,57.5,60.3,56.9z M28,105.6c0,0.1,0,0.2-0.1,0.2c0.6,0.1,1.2,0.2,1.8,0.3
			c0-0.1,0-0.1,0-0.2C29.2,105.8,28.6,105.7,28,105.6z M61.3,58.8c-0.1,0-0.1,0-0.2-0.1c-0.2,0.6-0.4,1.2-0.7,1.8
			c0.1,0,0.1,0,0.2,0.1C60.8,60,61,59.4,61.3,58.8z M34.4,92.2c-0.7,0-1.2-0.1-1.8-0.1C32.9,92.4,33.7,92.5,34.4,92.2z M48.1,91.7
			c0,0.1,0,0.1,0,0.2c0.7,0,1.4,0,2.1,0v-0.1C49.5,91.8,48.8,91.7,48.1,91.7z M35.1,85.8c-0.1,0-0.1,0-0.2,0
			c-0.1,0.6-0.1,1.2-0.2,1.8c0.1,0,0.1,0,0.2,0C35,87,35.1,86.4,35.1,85.8z M25,47.2c0.1,0,0.1,0,0.2,0c0.1-0.5,0.2-1.1,0.4-1.6
			C25.1,46.1,25,46.7,25,47.2z M56.4,83.1c0,0.1,0,0.1,0,0.2c0.5-0.1,1.1-0.1,1.3-0.8C57.3,82.7,56.9,82.9,56.4,83.1z M46,62.5
			L46,62.5c-0.6-0.1-1.2-0.1-1.8-0.1v0.1C44.8,62.5,45.4,62.5,46,62.5z M37.4,73.9L37.4,73.9c-0.1,0.6-0.1,1.1-0.1,1.7h0.1
			C37.4,75,37.4,74.4,37.4,73.9z M43.9,39.4c0-0.1,0-0.1,0-0.2c-0.5,0-1,0-1.5,0c0,0.1,0,0.1,0,0.2C42.9,39.4,43.4,39.4,43.9,39.4z
			 M44.5,188c0-0.7-0.2-0.8-1-0.7C43.9,187.6,44.1,187.8,44.5,188z M34.7,93.4c0-0.1,0.1-0.2,0.1-0.2c-0.5-0.2-1-0.4-1.5-0.6
			c0,0.1-0.1,0.1-0.1,0.2C33.7,93,34.2,93.2,34.7,93.4z M32.9,61.7c-0.1,0-0.2,0-0.3,0.1c0.1,0.4,0.2,0.7,0.3,1.1
			c0.1,0,0.2,0,0.3-0.1C33,62.4,33,62,32.9,61.7z M36.9,61.2c0,0.1,0,0.1,0,0.2c0.5,0.1,1,0.2,1.5,0.3c0-0.1,0-0.2,0-0.3
			C37.9,61.4,37.4,61.3,36.9,61.2z M67,40.6L67,40.6c-0.3-0.5-0.8-0.8-1.2-1.2c0,0.1-0.1,0.1-0.1,0.2C66.1,39.8,66.5,40.2,67,40.6z
			 M33.5,110.1c0.1,0,0.2,0,0.2,0c-0.1-0.5-0.1-0.9-0.2-1.4c-0.1,0-0.1,0-0.2,0C33.4,109.2,33.4,109.7,33.5,110.1z M43.1,186.4
			L43.1,186.4c-0.3,0.2-0.6,0.5-0.9,0.9c0.3,0.1,0.5,0.1,0.6,0.1C42.9,187,43,186.7,43.1,186.4z M40.3,62c0-0.1,0-0.1,0-0.2
			c-0.5-0.1-1.1-0.1-1.6-0.2v0.1C39.2,61.9,39.7,62.1,40.3,62z M55,187.6c-0.4-0.1-0.6-0.3-0.8-0.3c-0.1,0-0.3,0.2-0.4,0.3
			c0,0,0.1,0.2,0.2,0.2C54.3,187.8,54.5,187.8,55,187.6z M57.6,132.7L57.6,132.7c0-0.6,0-1.2,0-1.8c-0.1,0-0.1,0-0.2,0
			C57.5,131.5,57.5,132.1,57.6,132.7z M54.3,66.8c0.1,0,0.2,0,0.2,0c0.1-0.5,0.1-1,0.2-1.5c-0.1,0-0.1,0-0.2,0
			C54.5,65.8,54.4,66.3,54.3,66.8z M54.7,132.9c0-0.4,0-0.9,0-1.3C54.4,131.8,54.4,132.4,54.7,132.9z M34.2,68c-0.1,0-0.1,0-0.2,0
			c0.1,0.5,0.2,1.1,0.3,1.6c0.1,0,0.1,0,0.2,0C34.4,69,34.3,68.5,34.2,68z M41.4,91.6C41.4,91.7,41.4,91.7,41.4,91.6
			c0.5,0.1,1,0.1,1.5,0.1v-0.1C42.3,91.6,41.8,91.6,41.4,91.6z M39.4,33.4c0,0.1,0,0.2,0,0.2c0.4,0,0.8-0.1,1.2-0.1v-0.1
			C40.2,33.4,39.8,33.4,39.4,33.4z M51.6,130.8c0-0.5,0.1-0.9,0.1-1.3C51.3,129.5,51.2,130.3,51.6,130.8z"/>
		<path d="M48.8,199c-0.3-0.1-0.5-0.1-0.8-0.2v-0.1c0.1,0,0.2,0,0.5,0c-0.3-0.1-0.4-0.2-0.5-0.2c0-1-0.1-1.9-0.1-2.9
			c0-1.2,0-2.3,0.1-3.5c0-0.1,0.3-0.3,0.5-0.4c0,0,0.3,0.2,0.3,0.4c0,0.9-0.1,1.7-0.1,2.6C48.7,196.1,48.8,197.5,48.8,199
			C48.8,198.8,48.8,198.9,48.8,199z"/>
		<path d="M53.6,191.2c0,2.5,0,5,0,7.5c-0.5,0.1-0.8-0.1-0.8-0.6c0-1.7,0-3.4,0-5.2c0-0.4,0-0.9,0-1.3
			C52.8,191.2,52.9,191.1,53.6,191.2z"/>
		<path d="M59.6,198.1c-0.1-0.3-0.2-0.6-0.2-0.8c-0.1-1.2-0.1-2.3-0.1-3.5s0.1-2.3,0.1-3.5c0.2,0,0.4,0,0.5,0c0,2.6,0,5.2,0,7.9
			C59.8,198.1,59.7,198.1,59.6,198.1z"/>
		<path d="M56.2,190.9c0.2,0,0.4-0.1,0.6-0.1c0,2.6,0,5.2,0,7.9c-0.6,0-0.6-0.2-0.6-0.7c0-2.3,0-4.6,0-6.8
			C56.2,191,56.2,190.9,56.2,190.9z"/>
		<path d="M44.9,199.1c-0.6-0.4-0.4-1.1-0.4-1.6c-0.1-0.8,0-1.6,0-2.4c0-1,0.1-2,0.1-3c0-0.6,0.3-0.5,0.7-0.5c0,1,0,1.9,0,2.9
			c0,0.9,0,1.8,0.1,2.7c0,0.5,0,1,0,1.5C45.2,198.8,45,199,44.9,199.1z"/>
		<path d="M62.3,189.7c-0.1,1.1-0.1,2.1-0.2,3.2c0,1.5-0.1,3-0.1,4.5c0,0.6-0.2,0.5-0.6,0.5c0-0.9,0-1.7,0-2.5
			c0-1.1,0.1-2.2,0.1-3.3c0-0.5,0-1.1,0-1.6C61.5,189.9,61.8,189.8,62.3,189.7z"/>
		<path d="M55.1,191c0.3-0.1,0.5-0.1,0.8-0.2c-0.1,0.6-0.1,1.1-0.1,1.6c0,1.8,0,3.6,0,5.4c0,0.1,0,0.2,0,0.3
			c-0.1,0.2-0.2,0.3-0.3,0.4c-0.1-0.1-0.3-0.3-0.3-0.4c0-0.7-0.1-1.4-0.1-2.1c0-1.2,0-2.3,0.1-3.5C55.1,192.1,55.1,191.5,55.1,191z"
			/>
		<path d="M47.5,191.5c0.3,1.1,0.1,6.7-0.3,7.2c-0.1-0.3-0.2-0.5-0.2-0.7c0-0.6,0-1.2,0-1.7c0-1.4-0.1-2.8,0-4.2
			C46.9,191.8,47.2,191.7,47.5,191.5z"/>
		<path d="M52.3,191.2c0,1.3,0.1,2.6,0,3.8s0.5,2.5-0.2,3.9c-0.2-0.3-0.3-0.5-0.3-0.6c0-0.8,0-1.6,0-2.3c0-0.4-0.1-0.8-0.1-1.2
			c0-1,0.1-2.1,0.1-3.1C51.9,191.5,52.1,191.3,52.3,191.2z"/>
		<path d="M64.9,189.2c0,0.2,0.1,0.4,0.1,0.6c0,1.4,0.1,2.8,0.1,4.2c0,1,0.1,1.9,0.1,2.9c0,0.1-0.2,0.3-0.4,0.4
			c-0.1-0.1-0.3-0.2-0.3-0.3c0-0.6,0-1.2,0-1.8c0-1.8,0-3.5,0-5.3c0-0.2,0.1-0.5,0.2-0.7C64.7,189.1,64.8,189.2,64.9,189.2z"/>
		<path d="M64.1,189.4c-0.1,0.7-0.2,1.3-0.1,2c0,1.9,0.1,3.8,0.1,5.7c0,0.1-0.2,0.3-0.3,0.4c-0.1-0.1-0.3-0.3-0.3-0.4
			c0-1.3,0-2.6,0-3.9c0-1.1,0.1-2.2,0.1-3.3c0-0.2,0.2-0.4,0.3-0.6C64,189.4,64,189.4,64.1,189.4z"/>
		<path d="M62.5,197.6c0.1-2.6,0.1-5.2,0.2-7.8c0-0.1,0.2-0.2,0.3-0.4c0.1,0.3,0.1,0.5,0.1,0.7c0,2.3-0.1,4.7-0.1,7
			c0,0.2-0.2,0.4-0.3,0.5C62.6,197.7,62.5,197.6,62.5,197.6z"/>
		<path d="M65.8,197c-0.6-0.9-0.5-7.6,0-8.2C65.8,191.6,65.8,194.3,65.8,197z"/>
		<path d="M47.5,167.7c-0.4-0.3-0.4-0.5-0.1-0.8c-0.1-0.2-0.1-0.4-0.2-0.6c0.1,0,0.3-0.1,0.4-0.1c0.1,0.2,0.2,0.5,0.2,0.7
			c0,0.3,0,0.7,0,1c0,0.2-0.1,0.4-0.2,0.6c0,0-0.3-0.1-0.4-0.1C47.3,168.1,47.4,167.9,47.5,167.7z"/>
		<path d="M42.4,166c0-0.2,0.1-0.3,0.1-0.4c0.1-0.3,0.4-0.5,0.1-0.8c-0.1-0.1,0.1-0.3,0.2-0.5h0.3c0.1,0.1,0.1,0.3,0.1,0.4
			c0,0.4,0,0.8,0,1.1c0,0.1-0.2,0.3-0.4,0.4C42.7,166.3,42.5,166.1,42.4,166z"/>
		<path d="M44,166.2c-0.4-0.3-0.5-0.6-0.2-0.9c0.1-0.1,0.4-0.1,0.4-0.1C44.5,165.6,44.5,165.9,44,166.2z"/>
		<path d="M48.2,170.6c-0.2,0.4-0.4,0.6-0.5,0.9c-0.1-0.2-0.3-0.3-0.4-0.5C47.2,170.5,47.6,170.5,48.2,170.6z"/>
		<path d="M46.3,166c-0.4-0.2-0.6-0.5-0.4-0.9c0-0.1,0.4-0.1,0.5,0C46.6,165.4,46.7,165.7,46.3,166z"/>
		<path d="M47.7,169.7c-0.2-0.3-0.5-0.5-0.5-0.6c0-0.2,0.3-0.3,0.5-0.4c0.1,0.2,0.3,0.3,0.3,0.5C48,169.2,47.8,169.4,47.7,169.7z"/>
		<path d="M42.5,167.3c0.6,0.1,0.6,0.1,0.5,0.8C42.4,168.2,42.4,168.2,42.5,167.3z"/>
		<path d="M46.2,171.5c-0.1-0.1-0.2-0.3-0.2-0.4c0-0.2,0.2-0.3,0.3-0.4c0.1,0.2,0.3,0.3,0.4,0.5c0,0.1-0.1,0.2-0.2,0.3
			C46.4,171.4,46.3,171.5,46.2,171.5z"/>
		<path d="M44.5,167.6c-0.3,0.2-0.4,0.3-0.5,0.3s-0.3-0.2-0.3-0.3s0.2-0.3,0.3-0.4C44.1,167.3,44.2,167.4,44.5,167.6z"/>
		<path d="M44.6,164.8c-0.2,0.1-0.3,0.2-0.5,0.1c-0.2-0.1-0.3-0.3-0.5-0.4c0.1-0.1,0.3-0.3,0.4-0.4c0.1,0.1,0.2,0.2,0.3,0.4
			C44.5,164.6,44.6,164.7,44.6,164.8z"/>
		<path d="M47.5,164.8c0,0.4,0,0.7,0,1.1C46.9,165.5,46.9,165.3,47.5,164.8z"/>
		<path d="M45.5,165.5c-0.1,0.2-0.2,0.4-0.3,0.6c-0.1-0.2-0.2-0.3-0.2-0.5s0.1-0.4,0.2-0.5C45.2,165.2,45.3,165.3,45.5,165.5z"/>
		<path d="M46.8,169.5c-0.3,0-0.5-0.1-0.8-0.1c0-0.1,0-0.3,0-0.5C46.6,168.6,46.6,169.4,46.8,169.5z"/>
		<path d="M41.6,169.1c0,0.3,0.1,0.6,0.2,1c-0.2-0.1-0.6-0.2-0.6-0.3c0-0.2,0.1-0.5,0.1-0.7C41.4,169.1,41.5,169.1,41.6,169.1z"/>
		<path d="M43.1,169.5c-0.3,0.2-0.4,0.3-0.5,0.3s-0.2-0.2-0.3-0.2c0.1-0.2,0.3-0.3,0.4-0.4C42.7,169.1,42.9,169.3,43.1,169.5z"/>
		<path d="M45.5,171.2c-0.2,0.1-0.3,0.2-0.5,0.3c-0.1-0.1-0.2-0.3-0.2-0.4c0-0.1,0.2-0.2,0.3-0.3C45.2,170.8,45.3,171,45.5,171.2z"
			/>
		<path d="M44,170.9c-0.1,0.2-0.1,0.4-0.2,0.6c0,0-0.2,0-0.4-0.1c0.1-0.2,0.2-0.5,0.2-0.7C43.8,170.8,43.9,170.8,44,170.9z"/>
		<path d="M44.8,167.8c0.1-0.3,0.1-0.5,0.2-0.9C45.5,167.4,45.5,167.6,44.8,167.8z"/>
		<path d="M45.8,167.1c0.5-0.1,0.7-0.1,0.7,0.3c0,0.1-0.2,0.2-0.3,0.3C46.1,167.6,46,167.4,45.8,167.1z"/>
		<path d="M44.2,169.7c-0.2-0.1-0.4-0.2-0.6-0.3c0.1-0.2,0.2-0.3,0.4-0.6c0.1,0.3,0.2,0.5,0.3,0.7C44.3,169.6,44.2,169.7,44.2,169.7
			z"/>
		<path d="M39.7,170.6c0.2-0.1,0.4-0.3,0.6-0.3c0.1,0,0.2,0.2,0.3,0.3c-0.2,0.1-0.5,0.2-0.7,0.3C39.8,170.7,39.7,170.6,39.7,170.6z"
			/>
		<path d="M46.3,164.8c-0.1-0.2-0.3-0.3-0.4-0.5c0,0,0.2-0.2,0.3-0.3c0.1,0.2,0.2,0.5,0.3,0.7C46.4,164.7,46.4,164.8,46.3,164.8z"/>
		<path d="M43.7,166.8c0.3-0.6,0.3-0.6,0.9,0.3C44.2,167,44,166.9,43.7,166.8z"/>
		<path d="M46.6,166.2c-0.1,0.2-0.2,0.4-0.3,0.5c-0.1-0.1-0.2-0.2-0.4-0.2c0.1-0.2,0.3-0.3,0.4-0.5
			C46.5,166.1,46.6,166.1,46.6,166.2z"/>
		<path d="M52.9,172.4c0.5-0.3,0.8-0.3,1,0.2c1,1.9,1.9,3.9,2.3,6.1c0.2,1.1,0.3,2.2,0.4,3.4c0,0.1-0.2,0.3-0.3,0.3
			s-0.3-0.1-0.3-0.3c-0.3-1.5-0.4-3-0.8-4.5C54.9,175.7,54.3,173.9,52.9,172.4z"/>
		<path d="M54.4,171.9c0.2,0.3,0.4,0.5,0.6,0.8c0.6,1.2,1.3,2.5,1.7,3.8c0.6,1.8,1.2,3.6,1.1,5.6c0,0.3,0.1,0.7,0.1,1
			c-0.4,0.1-0.6,0-0.6-0.4c0-1.6-0.2-3.2-0.6-4.7c-0.4-1.4-0.8-2.9-1.7-4.2c-0.3-0.4-0.5-0.9-0.7-1.3c-0.1-0.1,0-0.3,0-0.4
			C54.2,172,54.3,172,54.4,171.9z"/>
		<path d="M44,173.1c0,2.5,0,5.1,0,7.6c-0.1,0-0.3,0.1-0.6,0.1c0-0.6-0.1-1.2-0.1-1.8c0.1-1.6,0.2-3.2,0.3-4.8c0-0.4,0-0.8,0.1-1.2
			C43.7,173.1,43.8,173.1,44,173.1z"/>
		<path d="M52,172.4c0.9-0.4,1,0.5,1.2,0.9c0.9,1.6,1.5,3.4,2,5.2c0,0.1,0,0.2,0,0.3c-0.5,0.1-0.7,0.1-0.9-0.5
			c-0.4-1.4-0.9-2.7-1.4-4.1C52.6,173.5,52.3,173,52,172.4z"/>
		<path d="M38.8,182.7c-0.2,0-0.5,0-0.7,0c-0.1,0,0-0.3,0-0.5c0-0.7-0.1-1.5,0-2.2c0.3-2,0.6-3.9,1.5-5.7c0.2-0.3,0.3-0.7,0.4-1
			c0.1-0.1,0.2-0.2,0.4-0.2C39.2,176.1,38.5,179.2,38.8,182.7z"/>
		<path d="M41.9,173.2c-0.6,1.9-1,3.8-1.1,5.8c0,0.9-0.1,1.7-0.1,2.6c0,0.2-0.2,0.3-0.3,0.5c-0.1-0.2-0.3-0.3-0.3-0.5
			c0.1-1.6,0.2-3.2,0.4-4.7c0.1-1.1,0.4-2.1,0.6-3.2C41.2,173.4,41.3,172.9,41.9,173.2z"/>
		<path d="M43.3,172.9c-0.2,1.5-0.4,2.8-0.6,4.1c0,0.2,0,0.3,0,0.5c0,1,0,1.9,0,2.9c0,0.2-0.1,0.4-0.2,0.5c-0.1,0.1-0.4,0-0.4,0
			c-0.1-0.1-0.1-0.3-0.1-0.5c0-0.7,0-1.4,0.1-2.1c0.2-1.6,0.5-3.2,0.7-4.9C42.9,173.2,43.1,173.1,43.3,172.9z"/>
		<path d="M47,179.2c-0.5,0.2-0.7,0.1-0.7-0.5c-0.2-1.6-0.4-3.2-0.6-4.8c0-0.3-0.2-0.6-0.3-0.9c0.4-0.1,0.7-0.2,0.8,0.5
			c0.4,1.8,0.7,3.5,0.7,5.3C46.9,178.9,47,179,47,179.2z"/>
		<path d="M49.2,179.1c-0.2,0-0.4,0-0.7,0c-0.3-2.1-0.4-4.3-1.5-6.3c0.3,0,0.5,0,0.7,0C48.6,174.9,49,177,49.2,179.1z"/>
		<path d="M48.2,172.6c0.2,0.2,0.5,0.4,0.6,0.6c0.5,1.8,0.9,3.6,1.3,5.4c0,0.1-0.1,0.3-0.2,0.4c-0.1-0.1-0.3-0.2-0.4-0.4
			c-0.3-1.7-0.6-3.4-1.2-5.1c-0.1-0.3-0.2-0.6-0.3-0.9C48.1,172.8,48.2,172.7,48.2,172.6z"/>
		<path d="M41.4,182c-0.1-0.2-0.2-0.4-0.2-0.6c-0.1-2.1,0.1-4.2,0.6-6.3c0.1-0.5,0.2-1.1,0.3-1.6c0-0.1,0.2-0.2,0.3-0.3
			c0.1,0.1,0.2,0.3,0.2,0.4c-0.2,1-0.4,2.1-0.6,3.1c-0.1,0.7-0.2,1.4-0.2,2.1c0,0.9,0,1.7,0,2.6c0,0.2,0,0.4-0.1,0.6
			C41.5,182,41.4,182,41.4,182z"/>
		<path d="M47.8,179.4c-0.1-0.2-0.3-0.4-0.4-0.6c-0.3-1.7-0.5-3.4-0.7-5.1c0-0.1-0.1-0.2-0.2-0.3c0-0.1,0-0.3,0-0.4
			c0.1,0.1,0.4,0.1,0.4,0.2c0.2,0.6,0.5,1.2,0.6,1.8c0.2,1.4,0.3,2.7,0.5,4.1c0,0.1,0,0.2,0,0.2C47.9,179.3,47.8,179.3,47.8,179.4z"
			/>
		<path d="M49,172.8c0.1-0.1,0.2-0.1,0.4-0.2c0.9,2.1,1.5,4.1,1.8,6.3c-0.6,0.1-0.6,0-0.7-0.5c-0.3-1.5-0.7-3-1.1-4.5
			C49.3,173.5,49.1,173.2,49,172.8z"/>
		<path d="M41,173.2c-0.1,0.5-0.2,1-0.4,1.4c-0.3,1-0.6,2.1-0.8,3.1c-0.2,1.3-0.1,2.6-0.2,3.9c0,0.1-0.1,0.3-0.2,0.4
			c-0.1-0.1-0.2-0.3-0.2-0.4c0.1-1.4,0.2-2.7,0.3-4.1c0.1-1.5,0.7-2.8,1.2-4.1c0-0.1,0.1-0.1,0.1-0.2C40.9,173.2,41,173.2,41,173.2z
			"/>
		<path d="M51.2,172.5c0.3-0.3,0.5,0,0.6,0.3c0.4,0.9,0.9,1.9,1.2,2.8c0.4,1,0.7,2,1,3c-0.1,0-0.1,0.1-0.2,0.1
			c-0.1-0.1-0.3-0.2-0.4-0.3c-0.5-1.3-0.9-2.6-1.4-3.9C51.9,173.9,51.6,173.3,51.2,172.5z"/>
		<path d="M51.8,179c-0.6-2.1-1.3-4.3-1.9-6.4c0,0,0.2,0.1,0.3,0.2c0.7,1.4,1.4,2.8,1.6,4.4c0.1,0.4,0.2,0.9,0.3,1.3
			c0,0.2,0,0.3,0,0.5C51.9,179,51.8,179,51.8,179z"/>
		<path d="M53.1,178.9c-0.4,0.1-0.6-0.1-0.7-0.5c-0.4-1.8-0.8-3.6-1.8-5.2c-0.1-0.2-0.2-0.3-0.4-0.5c0.2-0.1,0.3-0.2,0.5-0.3
			C51.9,174.4,52.5,176.7,53.1,178.9z"/>
		<path d="M44.6,173.2c0.2,2.5,0.3,5,0.5,7.5c-0.6,0-0.6,0-0.6-0.4c0-0.8,0-1.6,0-2.4c-0.1-1.3-0.2-2.7-0.2-4c0-0.2,0-0.4,0-0.6
			C44.4,173.2,44.5,173.2,44.6,173.2z"/>
		<path d="M44.9,173c0.1,0.1,0.3,0.2,0.3,0.3c0.2,1.1,0.3,2.1,0.5,3.2c0.1,0.6,0.2,1.3,0.2,1.9c0,0.2,0,0.5,0,0.7
			c0,0.1-0.2,0.2-0.3,0.2c-0.1-0.1-0.2-0.2-0.2-0.3c-0.1-1.2-0.1-2.4-0.3-3.6C45,174.6,44.9,173.8,44.9,173
			C44.9,173.1,44.9,173,44.9,173z"/>
		<path d="M55.8,182.3c-0.8,0.2-0.8-0.4-0.7-0.7s0.1-0.4-0.1-0.5c-0.1-0.1-0.1-0.3-0.1-0.4c-0.1-0.4-0.2-0.7-0.2-1.1
			c0-0.2,0-0.6,0.2-0.7c0.3-0.1,0.6,0.1,0.6,0.4C55.5,180.4,55.6,181.4,55.8,182.3z"/>
		<path d="M45,184.5c0.1-0.1,0.4-0.2,0.7-0.3c0,0.3,0,0.5,0,0.7c-0.7,0-1.3,0.1-1.9,0.1c-0.2,0-0.3-0.1-0.5-0.1v-0.3
			c0.1-0.1,0.3-0.2,0.5-0.2C44.2,184.3,44.5,184.4,45,184.5z"/>
		<path d="M54.5,183.4c-0.1,0.8-0.1,1.4-0.2,2c0,0.1-0.2,0.2-0.3,0.3c-0.1-0.1-0.2-0.3-0.1-0.4c0-0.3,0.1-0.5,0.2-0.8
			c0-0.2-0.1-0.5-0.1-0.8C54,183.6,54.2,183.5,54.5,183.4z"/>
		<path d="M55.6,183.3c-0.1-0.1-0.2-0.1-0.2-0.2c-0.1-0.1-0.2-0.1-0.4-0.2c0.1-0.1,0.2-0.3,0.3-0.3s0.4,0.1,0.4,0.2
			c0.1,0.3,0,0.7,0,1c0,0.4-0.2,0.5-0.5,0.4c-0.1,0-0.2-0.2-0.3-0.3c0.2-0.1,0-0.7,0.5-0.5C55.4,183.5,55.5,183.4,55.6,183.3z"/>
		<path d="M53.2,181.6c-0.2-0.3-0.4-0.5-0.5-0.7c0-0.1,0.2-0.3,0.3-0.4c0.1,0.1,0.3,0.2,0.4,0.4c0,0.4,0,0.8,0,1.2
			c0,0.2-0.1,0.3-0.2,0.4c-0.1-0.1-0.4-0.2-0.4-0.3c0-0.2,0.1-0.4,0.2-0.5C53,181.6,53.2,181.6,53.2,181.6z"/>
		<path d="M53.4,184.7c0,0.2,0,0.5-0.1,0.7c0,0.1-0.3,0.3-0.3,0.3c-0.2-0.1-0.4-0.2-0.4-0.4C52.6,184.9,52.8,184.6,53.4,184.7z"/>
		<path d="M51.4,184.8c0,0.3,0,0.6,0,0.8c0,0.1-0.2,0.3-0.3,0.3s-0.3-0.1-0.4-0.2C50.5,185.4,50.9,184.8,51.4,184.8z"/>
		<path d="M47.1,180.7c-0.4-0.2-0.9-0.3-0.7-0.9c0-0.1,0.2-0.2,0.3-0.3c0.1,0.1,0.3,0.2,0.3,0.4C47.1,180.2,47.1,180.4,47.1,180.7z"
			/>
		<path d="M51.2,180.3c-1,0.1-0.4-0.6-0.6-1C51.3,179.3,51.3,179.3,51.2,180.3z"/>
		<path d="M49.1,180.5c-0.3-0.1-0.7-0.2-0.5-0.7c0.1-0.2,0.3-0.2,0.4-0.4c0.1,0.3,0.2,0.6,0.3,1C49.2,180.4,49.1,180.5,49.1,180.5z"
			/>
		<path d="M54.4,181.4c-0.4-0.1-0.7-0.2-0.6-0.7c0-0.1,0.2-0.2,0.4-0.3c0.2,0.3,0.3,0.6,0.5,0.9C54.5,181.4,54.4,181.4,54.4,181.4z"
			/>
		<path d="M54.8,182.1c-0.3,0.2-0.5,0.3-0.6,0.3s-0.3-0.2-0.3-0.4c-0.1-0.3,0.1-0.5,0.4-0.5C54.4,181.6,54.6,181.8,54.8,182.1z"/>
		<path d="M42.9,181.9c-0.3,0-0.5,0-0.7,0c-0.1-0.3-0.1-0.5-0.2-0.8c0.2,0,0.4,0,0.7,0C42.7,181.4,42.8,181.6,42.9,181.9z"/>
		<path d="M46,180.9c-0.3-0.2-0.5-0.4-0.6-0.5c0-0.3,0.1-0.5,0.2-0.8c0.1,0.1,0.4,0.1,0.4,0.2C46,180.1,46,180.4,46,180.9z"/>
		<path d="M54.2,179c0,0.4,0,0.8-0.1,1.1c-0.2,0-0.4-0.1-0.4-0.1C53.7,179.6,53.4,179.2,54.2,179z"/>
		<path d="M48,180.6c-0.2-0.1-0.3-0.1-0.4-0.2c-0.1,0-0.2,0-0.2,0c0.2-0.8,0.2-0.8,0.6-0.9C48,179.9,48,180.2,48,180.6z"/>
		<path d="M50.2,180.3c-0.6,0.2-0.6,0.1-0.5-0.9C50.1,179.4,50.1,179.4,50.2,180.3z"/>
		<path d="M52.2,180.2c-0.6,0-0.6,0-0.5-0.9C52.2,179.3,52.3,179.3,52.2,180.2z"/>
		<path d="M48.5,183.7c0.1-0.3,0.2-0.6,0.3-0.8c0-0.1,0.3-0.1,0.3-0.1c0.1,0.2,0.1,0.5,0.2,0.7C49.1,183.6,48.9,183.6,48.5,183.7z"
			/>
		<path d="M44.1,183.6c-0.3,0.2-0.5,0.3-0.5,0.3c-0.2-0.1-0.3-0.3-0.4-0.5c0-0.1,0.2-0.2,0.3-0.4C43.7,183.2,43.8,183.3,44.1,183.6z
			"/>
		<path d="M52.8,183.6c0.2,0,0.3,0,0.5,0c0,0.3,0,0.5,0,0.8C52.7,184.5,52.7,184.5,52.8,183.6z"/>
		<path d="M52.6,180.2c0-0.4,0.1-0.7,0.1-1c0.1,0.1,0.4,0.1,0.4,0.2C53.1,179.7,53.4,180.1,52.6,180.2z"/>
		<path d="M44,181.9c-0.5-0.1-0.8-0.2-0.6-0.7C44,181,44.1,181.1,44,181.9z"/>
		<path d="M50.3,183.9c-0.1,0.3,0.2,0.7-0.3,0.8c-0.1,0-0.4-0.2-0.4-0.3C49.6,184,49.8,183.7,50.3,183.9z"/>
		<path d="M48,183.8c-0.2-0.1-0.4-0.3-0.6-0.4c0.1-0.1,0.3-0.3,0.4-0.4c0.1,0.2,0.2,0.4,0.4,0.6C48.1,183.7,48.1,183.7,48,183.8z"/>
		<path d="M51.4,184.6c-0.2-0.1-0.5-0.1-0.6-0.3c0-0.2,0.1-0.4,0.2-0.7c0.1,0,0.1,0,0.2,0c0.1,0.3,0.2,0.5,0.3,0.8
			C51.5,184.5,51.4,184.6,51.4,184.6z"/>
		<path d="M47,183.8c-0.2-0.1-0.5-0.1-0.7-0.2c0.1-0.2,0.1-0.6,0.3-0.6c0.5-0.1,0.2,0.5,0.5,0.6C47,183.7,47,183.7,47,183.8z"/>
		<path d="M51.6,183.2c-0.2,0.2-0.4,0.3-0.5,0.4c-0.1-0.2-0.3-0.4-0.4-0.6c0,0,0.2-0.3,0.3-0.2C51.3,182.9,51.4,183,51.6,183.2z"/>
		<path d="M42.4,183.1c0.7,0,0.4,0.6,0.6,0.9C42.3,183.9,42.1,183.7,42.4,183.1z"/>
		<path d="M56.8,183.4c0,0.3,0,0.6-0.1,0.9c-0.1,0-0.2,0-0.2,0.1c-0.1-0.2-0.3-0.4-0.3-0.6c0-0.1,0.3-0.3,0.4-0.4
			C56.7,183.3,56.7,183.4,56.8,183.4z"/>
		<path d="M49.2,184c-0.1,0.3,0.2,0.8-0.4,0.7c-0.1,0-0.3-0.1-0.3-0.2C48.4,184,48.8,184,49.2,184z"/>
		<path d="M51,181.6c0.2,0.3,0.3,0.5,0.3,0.6s-0.2,0.3-0.2,0.4c-0.1-0.2-0.3-0.3-0.4-0.5C50.6,182.1,50.8,181.9,51,181.6z"/>
		<path d="M46,184.4c0.3-0.1,0.6-0.1,0.8-0.2c0,0.2,0,0.4-0.1,0.5C46.6,184.9,46.3,185,46,184.4z"/>
		<path d="M49.4,181c-0.1,0.2-0.3,0.4-0.4,0.6c-0.1-0.1-0.3-0.2-0.4-0.3c0.2-0.2,0.3-0.3,0.5-0.5C49.2,180.8,49.3,180.9,49.4,181z"
			/>
		<path d="M51.3,180.6c0,0.3,0,0.5,0,0.8c-0.2-0.1-0.4-0.1-0.6-0.2c-0.1-0.1-0.1-0.4-0.1-0.4C50.9,180.8,51.1,180.7,51.3,180.6z"/>
		<path d="M51.6,185.9c0.1-0.4,0.1-0.6,0.2-0.9c0-0.1,0.1-0.1,0.2-0.2c0,0,0.1,0.1,0.2,0.1C52.3,185.2,52,185.8,51.6,185.9z"/>
		<path d="M49.2,181.8c0.2,0.5,0.2,0.8-0.2,0.7c-0.1,0-0.2-0.2-0.3-0.3C48.8,182.1,49,182,49.2,181.8z"/>
		<path d="M41.4,184.2c-0.1-0.5-0.1-0.8-0.2-1.3C41.9,183.3,42,183.6,41.4,184.2z"/>
		<path d="M50.3,182.8c-0.2,0.2,0.3,0.7-0.3,0.7c-0.1,0-0.3-0.2-0.3-0.3C49.6,182.8,49.8,182.7,50.3,182.8z"/>
		<path d="M52.2,180.6c0.1,0.3,0.1,0.5,0.2,0.8l-0.1,0.1c-0.2-0.1-0.4-0.2-0.4-0.3C51.9,181,52,180.8,52.2,180.6
			C52,180.6,52.1,180.6,52.2,180.6z"/>
		<path d="M52.2,181.7c0,0.3,0.1,0.5,0.2,1c-0.3-0.1-0.6-0.2-0.6-0.3c0-0.2,0.1-0.4,0.2-0.7C52.1,181.7,52.1,181.7,52.2,181.7z"/>
		<path d="M46.3,181.2c0.2-0.1,0.4-0.1,0.6-0.2c0.1,0.2,0.2,0.5,0.2,0.7l-0.1,0.1c-0.2-0.1-0.4-0.3-0.6-0.4
			C46.3,181.4,46.3,181.3,46.3,181.2z"/>
		<path d="M45.9,183.1c-0.1,0.3-0.2,0.5-0.3,0.8c-0.1,0-0.2,0-0.2,0c0-0.2-0.1-0.5-0.1-0.6s0.3-0.2,0.4-0.2
			C45.8,183,45.8,183.1,45.9,183.1z"/>
		<path d="M50.4,181.5c-0.7,0.2-0.6-0.3-0.7-0.5c0,0,0.2-0.1,0.3-0.2C50.1,181,50.2,181.2,50.4,181.5z"/>
		<path d="M46.1,181.8c-0.5,0-0.8-0.1-0.7-0.5c0-0.1,0.2-0.2,0.3-0.3C45.8,181.2,45.9,181.5,46.1,181.8z"/>
		<path d="M53,182.5c0.2,0.3,0.3,0.4,0.5,0.6c-0.1,0.1-0.3,0.3-0.3,0.2c-0.1-0.1-0.3-0.2-0.3-0.3C52.8,182.9,52.9,182.7,53,182.5z"
			/>
		<path d="M47.6,181.8c0-0.4,0-0.7,0-1C48.3,181.2,48.3,181.2,47.6,181.8z"/>
		<path d="M47.2,182.3c-0.2,0.2-0.4,0.4-0.5,0.4c-0.2,0-0.3-0.2-0.4-0.4c0.1-0.1,0.2-0.3,0.4-0.3C46.8,182,47,182.2,47.2,182.3z"/>
		<path d="M52.2,183.6c-0.2-0.2-0.3-0.4-0.5-0.6c0,0,0.2-0.2,0.3-0.3c0.1,0.2,0.3,0.5,0.4,0.7C52.4,183.4,52.3,183.5,52.2,183.6z"/>
		<path d="M51.9,184.5c0-0.2,0-0.5,0-0.8c0.2,0.1,0.4,0.2,0.4,0.2c0,0.2-0.1,0.5-0.2,0.7C52,184.6,51.9,184.5,51.9,184.5z"/>
		<path d="M47.8,184.9c-0.1-0.2-0.3-0.3-0.4-0.5c0.1-0.1,0.2-0.2,0.4-0.3c0.1,0.2,0.2,0.4,0.3,0.6C48,184.8,47.9,184.8,47.8,184.9z"
			/>
		<path d="M44.7,180.9c0.1,0.3,0.2,0.5,0.2,0.6s-0.2,0.2-0.3,0.3c-0.1-0.1-0.2-0.3-0.2-0.4C44.4,181.3,44.6,181.2,44.7,180.9z"/>
		<path d="M50,182.7c-0.2-0.2-0.4-0.4-0.3-0.5c0-0.1,0.2-0.3,0.3-0.4c0.1,0.1,0.3,0.2,0.3,0.3C50.3,182.3,50.2,182.5,50,182.7z"/>
		<path d="M23.9,166.6c0-0.2,0-0.4,0.1-0.6c1.2-1.6,2-3.3,2.7-5.1c0.3-0.6,0.7-1.2,1-1.8c0.1-0.3,0.2-0.6,0.3-0.9
			c0.6-1.4,1.2-2.7,1.7-4.1c0.5-1.3,0.8-2.6,1.2-4c0.5-1.6,1-3.1,1.4-4.7c0.4-1.4,0.6-2.8,0.9-4.2c0.3-1.8,0.6-3.6,0.8-5.4
			c0.2-1.7,0.4-3.4,0.6-5c0.5,1-1.4,13.3-2.9,18.5c-1.8,6.1-4.2,11.9-7.6,17.3C24,166.6,24,166.6,23.9,166.6z"/>
		<path d="M33.8,142.8c-0.2,0.9-0.3,1.8-0.5,2.7c-0.5,2-0.9,4-1.5,6c-0.5,1.7-1,3.4-1.7,5c-0.9,2.3-1.9,4.6-3,6.9
			c-0.5,1.2-1.3,2.2-1.9,3.3c-0.1,0.1-0.1,0.2-0.2,0.3s-0.3,0.1-0.3,0c-0.1,0-0.1-0.2-0.1-0.3c0.2-0.5,0.5-1,0.8-1.4
			c1.1-1.8,2.1-3.7,2.9-5.7c0.4-1,1-1.9,1.4-2.8c0.5-1.1,0.8-2.3,1.2-3.4c0.6-1.9,1.2-3.9,1.7-5.8c0.4-1.5,0.7-3,1-4.4
			c0-0.1,0.1-0.2,0.2-0.3C33.7,142.8,33.7,142.8,33.8,142.8z"/>
		<path d="M45.7,44.8c-0.7,0-1.4,0-2,0c-0.3,0-0.5,0.1-0.8,0c-0.1,0-0.3-0.3-0.2-0.3c0.1-0.2,0.3-0.4,0.4-0.4c0.8,0,1.6,0,2.4,0
			C46,44.2,45.9,44.6,45.7,44.8z"/>
		<path d="M44,45.3c0.2-0.1,0.4-0.2,0.6-0.2c0.9,0,1.8,0,2.7,0c0.1,0,0.2,0.1,0.2,0.2c0,0.1,0.1,0.3,0,0.3c-0.1,0.1-0.3,0.1-0.4,0.1
			c-0.6-0.2-1.1,0-1.7,0c-0.5,0-1.1-0.1-1.6-0.1C44,45.4,44,45.3,44,45.3z"/>
		<path d="M48.7,44.4c-0.1,0.1-0.2,0.3-0.5,0.6c-0.2-0.3-0.3-0.6-0.4-0.9c0.6,0,1-0.1,1.6-0.1c0,0.2,0.1,0.5,0.2,0.7
			c-0.1,0-0.3,0.1-0.4,0.1C49,44.7,48.9,44.6,48.7,44.4z"/>
		<path d="M47.8,44.7c-0.2,0-0.3,0.1-0.5,0.1s-0.5,0-0.7,0s-0.3,0-0.4-0.1c-0.1-0.1-0.1-0.3,0-0.4c0.1-0.1,0.2-0.2,0.4-0.2
			s0.5,0,0.7,0c0.2,0.1,0.4,0.2,0.6,0.3C47.8,44.5,47.8,44.6,47.8,44.7z"/>
		<path d="M47.8,45.5c0.3-0.5,0.4-0.6,0.8-0.4c0.1,0.1,0.3,0,0.5,0s0.3,0,0.5,0c0.1,0,0.1,0.3,0.1,0.3c-0.1,0.1-0.3,0.2-0.5,0.2
			C48.8,45.6,48.3,45.6,47.8,45.5z"/>
		<path d="M43.9,45c-0.1,0.3-0.2,0.5-0.3,0.6c-0.3,0-0.6,0-0.9-0.1c0,0-0.1-0.2,0-0.3S42.9,45,43,45C43.2,45,43.5,45,43.9,45z"/>
		<path d="M45.1,43.7c0.8,0,1.6,0,2.4,0v0.1c-0.8,0.1-1.6,0.1-2.3,0.2C45.1,43.8,45.1,43.8,45.1,43.7z"/>
		<path d="M50.5,44.7c-0.6,0.2-0.8,0.1-0.8-0.3c0-0.1,0.2-0.3,0.4-0.4C50.2,44.1,50.4,44.4,50.5,44.7z"/>
		<path d="M48.9,46.1c-0.2,0.2-0.4,0.4-0.5,0.4c-0.2,0-0.3-0.2-0.5-0.4c0.1-0.1,0.3-0.4,0.4-0.4C48.5,45.7,48.6,45.9,48.9,46.1z"/>
		<path d="M49.3,46.6c-0.2-0.3-0.2-0.4-0.4-0.7c0.3,0,0.5-0.1,0.6-0.1s0.3,0.3,0.3,0.4C49.7,46.4,49.5,46.5,49.3,46.6z"/>
		<path d="M51.6,45c0,0.3,0,0.4,0,0.7c-0.3-0.1-0.5-0.2-0.8-0.3c0,0,0-0.2,0-0.3C51.1,45.1,51.3,45,51.6,45z"/>
		<path d="M50.6,45.7c-0.3-0.1-0.5-0.2-0.8-0.3c0-0.1,0-0.1,0-0.2c0.2,0,0.4-0.2,0.5-0.1c0.2,0.1,0.2,0.3,0.4,0.4
			C50.6,45.5,50.6,45.6,50.6,45.7z"/>
		<path d="M55.8,89.5c-0.4-0.2-0.5-0.9-0.4-1.8c0.1-1,0.1-2.1,0.1-3.1c0,0,0.2-0.1,0.3-0.1C55.8,86.2,55.8,87.8,55.8,89.5z"/>
		<path d="M37,93.7c1.5,0.1,3,0.1,4.5,0.2c0,0.1,0,0.1,0,0.2C40,94.1,38.5,94.2,37,93.7z"/>
		<path d="M48.8,94.4c-0.8,0.1-1.7,0.1-2.5-0.2c0.8,0,1.7,0,2.5,0C48.8,94.3,48.8,94.3,48.8,94.4z"/>
		<path d="M44.3,94.2c-0.5,0-1,0-1.5,0v-0.1C43.3,94.1,43.8,94.1,44.3,94.2C44.3,94.1,44.3,94.1,44.3,94.2z"/>
		<path d="M49.4,29.3c0,0.2,0,0.5,0,0.5c-0.5,0.1-1,0.2-1.5,0.3c0-0.1-0.1-0.1-0.1-0.2c0.1-0.2,0.2-0.4,0.4-0.4
			c0.1,0,0.3,0.2,0.5,0.3c0.1-0.1,0.3-0.3,0.5-0.4C49.3,29.3,49.3,29.3,49.4,29.3z"/>
		<path d="M48.9,27.9c-0.2,0.2-0.3,0.4-0.4,0.4c-0.3,0.1-0.7,0.1-1.1,0.1c-0.1,0-0.2-0.2-0.2-0.3c0-0.1,0.1-0.3,0.2-0.3
			C47.8,27.8,48.2,27.9,48.9,27.9z"/>
	</g>
</g>
</svg>
