<svg version="1.1" id="Layer_1" xmlns="http://www.w3.org/2000/svg" xmlns:xlink="http://www.w3.org/1999/xlink" x="0px" y="0px"
	 viewBox="0 0 454.5 855" style="enable-background:new 0 0 454.5 855;" xml:space="preserve">
<g>
	<g>
		<path class="finger-svg" d="M116.1,513c-3.1-2.3-6.5-4.3-9.2-6.9c-1.4-1.4-1.9-3.8-2.8-5.7c-0.5-1.1-1.1-2.2-1.7-3.2
			c-1-1.5-1.1-1.5-3.1-0.8c0.1,0.2,0.1,0.5,0.2,0.7c6,9,10.5,19,17.5,27.4c0.2,0.3,0.4,0.7,0.7,1.4c-4.7-2-8-5.2-10.4-9.2
			c-2.4-3.9-4.5-7.9-6.9-12.2c-0.7,3.4-0.2,6.3,1.2,9.1c4,7.7,9.1,14.7,15.3,20.8c0.9,0.8,1.9,1.5,2.8,2.3c-0.3,0.3-0.5,0.6-0.8,0.8
			c-8.5-5.5-16-12.1-21.6-21c-1.7,1.5-1.2,2.8-0.3,4c5.2,7,10.5,13.7,17.3,19.3c0.8,0.7,1.7,1.4,2.5,2.1c1.9,1.8,2.1,2.2,1.3,5.3
			c-3.6-2.6-7.2-5.2-10.7-7.8c-0.3-0.2-0.8-0.7-0.7-1c0.5-3-1.8-4.1-3.5-5.6c-0.1,0-0.3,0-0.3,0.1c-3.4,4-3.5,4.3,0.5,7.7
			c5.4,4.7,11.1,8.9,16.5,13.5c1.9,1.6,3.4,3.7,5.5,6c0.8-0.4,2.2-1.1,3.7-1.8c4.2-2.1,7.4-1.6,11,2c-1.5,0.6-3.8,0.2-4.4,3
			c2.7-0.2,5.1-0.4,7.8-0.6c-0.7,1.8-1.2,3.3-1.9,5c1.3,0.3,2.4,0.5,3.6,0.7c-2.6,1.7-4.6,1.6-7.5,1c-3.2-0.7-6.6-0.7-9.8-1.4
			c-3.9-0.8-7.6-1.9-11.4-3c-2-0.6-3.4-1.8-4.1-3.8c-0.6-1.8-1.6-2.1-3.5-1.8c-1.4,0.2-3.2,0-4.4-0.7c-3.2-1.8-6.2-3.9-9.2-6
			c-3.1-2.1-5.1-5-6.7-8.3c-6.7-14.4-8.4-29.7-6.8-45.3c0.4-3.8,2.2-7.4,3.6-11c1-2.8,2.5-5.4,2.1-8.5c-0.1-0.6,0.2-1.3,0.5-1.9
			c2.8-7.2,5.4-14.4,8.3-21.5c3-7.3,5.4-14.7,6.8-22.5c0.6-3.4,0.3-6.6-1.2-9.7c-1.3-2.8-1.7-5.8-1.9-8.9c-0.4-4.5-1.6-9.1-3-13.4
			c-2.1-6.6-4-13.2-3.4-20.7c0.8,1,1.4,1.8,2.4,3c0-2.4,0-4.4,0-6.6c-1.5,0.7-2.9,1.3-4.3,2c-4-7.2-3.5-15.2-5-23.3
			c-0.8,1.4-1.3,2.4-2.1,3.8c-1.1-2.7-2.4-5-2.9-7.5c-1.2-5.3-1.9-10.8-2.9-16.1c-0.3-1.6-0.8-3.2-1.5-4.7
			c-1.8-3.6-2.6-7.3-2.5-11.3c0.1-2.2-0.6-4.4-0.9-6.6c-0.8-4.7-1.8-9.5-2.3-14.2c-0.4-3.2-0.1-6.6-0.1-9.8c0-0.7,0-1.5-0.3-2.1
			c-2-4.2-2.1-8.7-2.6-13.3c-0.9-9.7-2-19.5-3-29.2c-0.3-3.1-0.8-6.1,1.1-9c0.4-0.6,0-1.9-0.2-2.9c-1-4.9-2.3-9.8-1.6-15
			c0.6-4,0.4-8.2,1.8-11.9c2.2-5.8,1.9-11.8,2.6-17.8c0.4-3.3,1.8-6.5,2.8-9.7c0.3-1,0.6-1.9,0.9-3.1c-3.4-0.5-6.7-0.8-9.9-1.6
			c-5.4-1.3-10.7-2.7-16-4.4c-2.7-0.8-4.6-2.4-4.3-5.8c0.2-1.8-0.7-3.8-1.5-5.6c-0.2,0.8-0.3,1.7-0.5,2.5c-0.6,3.2-1.5,3.8-4.4,2.3
			c-2.1-1-4.2-2.4-5.8-4c-2.9-3-5.5-6.3-8-9.6c-4.3-5.8-5.5-12.6-6.1-19.5c-0.1-1.1-0.3-2.3-0.4-3.4c0-5.6,0-11.2,0-16.9
			c0.1-0.9,0.4-1.8,0.4-2.8c0-6-0.1-11.9,0-17.9c0.2-7.7,1-15.4,0.9-23.1c0-11.3-0.5-22.6-0.8-33.9c0-1.9,0-3.8,0-5.9
			c1.2,0.3,2.1,0.5,3.5,0.8C18.9,25.8,18,25,17,24.1c0.5-0.4,0.9-0.8,1.4-1.1c6.7-4.2,13.9-6.1,21.8-4.1c2,0.5,4,0.8,5.8,1.5
			c3.3,1.2,6.3,1.1,8.7-1.9c1.1-1.3,2.4-1.3,3.9-0.4c1.3,0.8,2.6,1.4,4.1,2.2c0.2-1.3,0.1-2.3,0.5-3.2c0.2-0.6,0.9-1.5,1.5-1.6
			c2.8-0.2,5.7-0.5,8.4,0c7.3,1.1,14.7,2.2,21.8,4.1c10.2,2.7,17.9-1.3,25.1-7.7c0.4,0,0.9,0,1.3,0c1.1,0.5,2.4,0.9,3.4,1.6
			c1.9,1.5,3.5,3.2,5.3,4.7c0.1-0.4,0.3-1.1,0.3-1.8c0-2.2,1.1-2.7,3-2.5c3.1,0.4,6.1,0.8,9.2,1.2c2.5,0.3,4.6,1.5,6.4,3.3
			c1.5,1.6,3.1,3.1,4.4,4.7c6,7.5,12,15.1,17.9,22.7c2.2,2.8,4.6,4,8.4,3.7c-8.7-9.9-18.1-18.9-25.8-29.8c1.8-0.2,3.3-0.3,4.8-0.6
			c1.9-0.4,3.1,0.3,4.4,1.8c6.6,7.9,13.3,15.7,20.1,23.5c1.4,1.6,3.1,3,4.9,4.2c1.7,1.2,3.7,1.3,5.8,0.4c-0.3-0.5-0.5-0.8-0.7-1
			c-5.8-5.5-11.5-11.1-17.3-16.6c-2-2-4.1-3.9-5.9-6c-1-1.2-1.4-2.8-1.9-4.2c-0.1-0.4,0.7-1.4,1.2-1.5c3.9-0.8,7.8-1.5,11.7-2.1
			c0.6-0.1,1.5,0.1,1.9,0.5c1.7,2.1,3.9,4.1,4.9,6.5c1.4,3.7,4.1,6.1,6.8,8.7c5.2,4.9,10.1,10,13.3,16.6c0.2,0.4,0.7,0.8,1.1,0.9
			c2.4,0.3,4.9,0.5,7.5,0.7c-2.9-2.8-5.8-5-8-7.8c-8-10-15.7-20.2-23.6-30.3c-0.1-0.1,0-0.3-0.1-0.4c0.9-0.4,1.8-0.8,2.7-1.1
			c0.3,0,0.6,0,0.9,0c2.4,2.9,5.1,5.5,7.1,8.7c5.4,9.1,12.7,16.9,20,24.9c1.5,1.7,3,2,5,0.2c-8.2-8-15.2-16.9-20.5-26.8
			c2.7-1.1,5.3-2.1,8.4-3.3c3.6,4.3,7.8,8.6,11.2,13.6c1.9,2.8,4,5.3,6.3,7.8c5.6,6.1,11.2,12.2,16.9,18.2c1.5,1.7,3,3.4,5,3.7
			c-7.1-12.3-18.5-21.6-26.9-33.7c2.6-1,5.2-0.9,5.4-4c1.8,2.4,3.3,4.5,4.9,6.4c1.9,2.2,4,4.3,5.9,6.5c1.7,2.1,3,4.4,4.8,6.4
			c1.2,1.3,2.8,2.3,4.3,3.4c0.4,0.3,0.6,0.7,0.9,1.1c1.9,2.6,3.6,5.3,5.6,7.8c1.1,1.5,2.8,2.6,2.5,4.8c0,0.3,0.3,0.9,0.6,1
			c2.4,0.7,4.9,1.4,7.3,2c0.1-0.2,0.3-0.5,0.4-0.7c-0.3-0.8-0.5-1.8-1-2.5c-1.7-2.2-3.5-4.4-5.4-6.4c-1.2-1.2-2-2.4-1.5-4.2
			c0.3-1.1,0.3-2.3,0.6-4c-1.3,1.6-2.1,2.7-3.2,4c-2.5-1.8-5.3-3.1-7.2-5.2c-3.9-4.6-7.4-9.6-11-14.4c-0.9-1.3-1.7-2.7-2.5-4
			c-0.6-1-0.2-1.6,0.8-2c3.4-1.6,7-2.1,10.7-1.7c0.6,0.1,1.5,0.9,1.5,1.4c0.2,4.1,3.5,4.3,6.3,5.4c-1.1-2.8-2.2-5.4-3.2-8.2
			c2.7-0.7,4.2,0,5.3,2c1.8,3.4,3.6,6.6,6.5,9.4c4.4,4.2,8,9.3,11.7,14.1c5.6,7.2,11.6,14.1,15.4,22.6c0.2,0.5,0.7,1,1.2,1.2
			c4.3,1.5,8.7,2.9,13.1,4.3c0.2-0.4,0.5-0.8,0.7-1.2c-7.8-1.4-10.2-8-14.1-13.2c-1.7-2.2-3.9-4.1-5.4-6.5
			c-3.4-5.3-7.9-9.6-12.3-14.2c-4.2-4.3-7.8-9.2-11.6-13.8c0.1-0.2,0.2-0.4,0.4-0.6c5.3,0.4,10.5,0.8,15.8,1.3
			c0.5,0.1,1.1,1,1.5,1.6c0.9,1.5,1.6,3.1,2.6,4.4c1.7,2.2,3.8,4.2,5.5,6.5c4.4,5.9,8.7,12,13,18c3.3,4.7,6.5,9.5,9.8,14.2
			c1.1,1.6,0.7,2.6-1.1,3.2c-0.7,0.2-1.3,0.6-2.2,1.1c5.6,1.7,10.8,3.2,16.4,4.8c-1.7-1.8-3-3.2-4.3-4.7c-2.6-2.9-5.1-5.9-5.8-9.9
			c-0.1-0.7-0.7-1.5-1.3-1.9c-5-3.4-8.2-8.4-11.4-13.3c-3.3-5-6.8-9.8-10.3-14.6c-2.3-3.2-4.1-6.4-3-10c13.7,18.5,27.5,37.2,41.4,56
			c2.8-3.1,2.9-3.2,0.8-6c-5.4-7.3-10.7-14.6-16.1-21.9c-2.3-3.1-3.8-6.4-4.4-10.2c-0.2-1.1-0.5-2.1-0.8-3.6
			c-0.8,1.4-1.2,2.2-1.9,3.4c-3.5-6.8-9.2-12.2-8.3-20.5c0.4-0.2,0.9-0.3,1.3-0.5c3.2-1,3.2-0.9,5,1.8c1.5,2.2,3.1,4.4,4.6,6.5
			c2.7,3.7,5.4,7.3,8,11c6,8.4,11.9,16.8,17.9,25.2c0.1,0.1,0.3,0.2,0.7,0.4c0.1-2.8,0.3-5.4-1.3-7.8c-4-6-7.9-12-11.9-18
			c-0.5-0.8-1.2-2-1.8-2c-1.6,0-2-1.2-2.6-2.2c-3.3-5.1-6.1-10.4-10.7-14.5c-1.4-1.2-2.1-3.2-3-4.9c-0.7-1.3-0.4-2.5,0.9-3.3
			c0.3,0,0.6,0,0.9,0c1.1,0.9,2.5,1.6,3.3,2.7c3.6,4.8,7.4,9.4,10.5,14.5c4.6,7.4,10.1,14,15.8,20.4c-1.3-5.5-3.4-10.7-6.7-15.3
			c-2.8-3.9-6-7.5-9.1-11.2c-2-2.4-3.6-4.9-3.9-8.3c1.3-0.3,2.5-0.5,3.9-0.9c-0.3,1.2-0.6,2.1-0.9,3.3c1.4,0.1,2.7,0.6,3.6,0.1
			c1.1-0.6,1.8-2,2.7-3.1c2.4,2.2,4.8,4.5,7.4,6.9c0.7-1.5,1.4-2.8,2-4.1c1.4,0.4,2.6,0.7,3.7,1.2c4.8,2.2,9.5,2.1,14.6,0.8
			c8.4-2.1,16.9-2.7,25.4-0.5c6,1.5,6.5,2.2,6.5,8.5c0,1.4,0,2.7,0,4.3c2.2-1.9,3.1-3.8,1.5-6.4c-0.6-1-0.7-2.3-0.8-3.5
			c0-0.4,0.5-1.1,0.9-1.2c2.2-0.7,7.7,1.3,9.2,3.2c0.9,1.1,1.9,2.2,2.9,3.2c0.2-0.1,0.3-0.2,0.5-0.4c-0.1-2-0.3-4-0.3-6
			c0-0.7,0.3-1.6,0.8-1.9c2.3-1.7,4.6-3.3,7-4.7c0.9-0.6,2.1-0.8,3.2-0.9c1.6-0.2,2.3,0.5,2.1,2.3c-0.8,9.3-1.4,18.5-2.2,27.8
			c-0.8,9.3-1.4,18.7-2.7,27.9c-1,7-1.6,14-1.9,21c-0.1,3.4-0.9,6.9-2,10.1c-1.1,3-1.4,6-1,9.1c0.5,3.4,0,6.7-0.9,10
			c-1.9,6.8-3.6,13.8-5.3,20.7c-1.1,4.4-2.8,8.5-6,11.8c-0.5,0.5-1,1-1.4,1.7c-4.5,8.4-11.7,14.6-18.2,21.3c-0.3,0.3-0.7,0.6-1.2,1
			c-0.3-1.3-0.6-2.4-1-4c-1.1,5.6-1.1,5.6-6,7.4c-1.9,0.7-3.9,1.6-5.8,2.4c-1.5,0.7-1.8,1.6-0.5,3c1.3,1.4,2.6,2.9,3.6,4.6
			c4.6,8.3,9.3,16.5,13.6,25c3.9,7.8,7.4,15.9,11.1,23.9c2.7,5.7,5.9,11.3,7.9,17.2c4,11.6,8.9,22.8,14.3,33.8
			c3.1,6.3,5.8,12.7,7.2,19.6c0.3,1.6,0.7,3.3,1.6,4.7c1.1,1.9,1,3.5,0.1,5.3c-1,2.2-1.3,4.5-0.1,7.2c0.7-2,1.3-3.6,2-5.6
			c0.6,1.9,1.1,3.4,1.6,4.9c1.6,5.1,3.6,10.2,4.8,15.4c1.3,5.9,2.9,11.6,5.4,17.2c3.9,9,7.4,18.3,11.1,27.4c0.2,0.4,0.4,0.8,0.7,1.3
			c0,1.2,0,2.3,0,3.5c-1.3,2.2-1.7,4.6-1.6,7.2c0.4,9.9,1,19.9,0.8,29.8c-0.3,16.3-1.1,32.5-1.8,48.8c0,0.6-0.1,1.2-0.1,1.8
			c-0.2,0-0.4,0-0.6,0c-5-14.5-3.8-29.5-4.1-44.5c0.2-0.1,0.5-0.1,0.7-0.2c0.5,1,1.1,2,1.7,3.3c-0.5-3.6-0.9-6.9-1.4-10.2
			c-3.7,7.7-11.9,8.9-18.6,12.7c0.5,1.3,0.9,2.7,1.5,3.8c0.9,1.7,0.4,2.6-1.2,3.3c-1.2,0.5-2.2,1.2-3.8,2.1c4.1,1,7.6,1.9,10.7,2.6
			c-1.2,3.3-2.3,6.6-3.5,9.9c-0.2,0.5-0.6,1-1.1,1.2c-3.8,1.4-7.6,2.7-11.3,4.1c-1.7,0.6-3.5,1.2-5.4,1.8c0.9,1.2,1.5,2.1,2.6,3.5
			c2.4-6.3,7.1-5.1,11.7-4.4c-0.5,3.6-0.7,4-3.9,4.5c-3,0.5-6.1,0.7-8.9,1c3.1,2,6.8,4.3,10.8,6.9c-4,0.6-7.5,1.3-9.6,4.8
			c1.9,0.5,3.6,0.9,5.3,1.3c2.3,0.7,2.6,1.2,2.2,3.8c-0.8-0.9-1.5-1.8-2.3-2.8c-2.1,4-5.7,4.2-9.1,3.5c-2.9-0.7-5,0.6-7.3,1.4
			c0.7,0.3,1.3,0.4,1.9,0.5c3.6,0.7,4.6,2.7,3.3,6.1c-0.3,0.8,0.1,2,0.4,2.9c0.6,1.4,1.5,2.7,2.4,4.3c-3.7,0.5-6.8,0.2-9.8-0.8
			c-2.3-0.8-2.9-0.5-4,2c3.4,1.3,6.8,2.6,10.1,3.9c0,0.2,0.1,0.5,0.1,0.7c-3,1.3-6.1,2.6-9.1,3.9c0.9,3.1,1.3,3.5,4.6,3.9
			c0.8,0.1,1.7-0.1,2.3,0.2c0.7,0.3,1.3,1,2,1.6c-0.7,0.4-1.4,1.2-2.1,1.2c-2.9,0.3-5.8,0.2-8.6,0.5c-0.7,0.1-1.5,1.1-2,1.8
			c-0.1,0.2,0.8,1.3,1.4,1.7c1.6,0.9,2.7,2.1,2.5,3.9c-0.2,2-2,1.7-3.3,2.1c-1.6,0.4-3.2,0.6-5.3,1c5.3,3.6,11.6,1.5,16.3,5.6
			c-1.9,1-3.7,2-5.5,3c0-0.2,0-0.5,0-0.7c-1-0.6-1.9-1.6-2.9-1.7c-3.7-0.2-7.5-0.1-11.2,0c-0.7,0-1.4,0.6-2.1,0.9
			c0,0.2,0.1,0.4,0.1,0.6c5.4,0.5,10.4,1.9,15.2,4.7c-0.5,0.7-0.8,1.3-1.3,1.7c-2,1.9-3.6,1.7-5.1-0.6c-0.2-0.3-0.7-0.7-1-0.7
			c-2.1,0.2-4.3,0.2-6.4,2c2.8,1.6,5.4,3,7.9,4.5c2,1.2,4.1,1.4,6.4,1c3.3-0.7,3.9-0.2,5.3,3.2c-6.6,0-13.2,0-19.7,0
			c0.6,0.9,1.2,1.3,1.9,1.7c2.6,1.2,5.2,2.4,7.9,3.5c1.5,0.7,2.2,1.6,1.9,3.7c-4.6-1.3-9.2-2-14.1-1.2c2.4,2.7,5.4,3.3,8.7,3.9
			c-1.1,1.9-2.1,3.6-3.1,5.1c-4.2-0.2-6.7-3-8.9-6.1c-2.4,3.7-2.1,4.8,1.1,6.6c3.6,1.9,7.4,3.3,11.5,3.3c2.4,0,4,1.3,5.2,3.4
			c-2.4,1.1-4.6,1.3-7.1,0.1c-2.8-1.3-5.8-2.2-8.6-3.3c-3.2-1.3-5.5,0.1-8,2.6c6.1,2.5,12.1,5,18.3,7.5c-4.5,0.4-8.6,0.8-12.7,1.3
			c0,0.2,0,0.4-0.1,0.6c3.5,1.3,7,2.6,10.5,3.9c1.5,0.6,2.9,1.2,4.3,1.9c0.5,0.2,0.6,1,0.9,1.5c-0.5,0.3-1,0.8-1.4,0.8
			c-2.3-0.2-4.6-0.2-6.8-0.9c-2.3-0.7-4.4-0.7-6.8,0.5c0.8,0.5,1.4,0.8,2.1,1.1c2.5,1.3,5,2.5,7.5,3.9c1.5,0.8,2.5,2.1,2.2,4.2
			c-3.4-1-6.6-2-9.9-2.9c-1-0.3-2.2-0.8-3.1-0.5c-0.8,0.2-1.6,1.2-1.9,2.1c-0.4,1.2,0.7,1.4,1.6,1.7c4.2,1.3,8.3,2.6,12.5,4.1
			c1.8,0.6,2.6,2.1,2.4,4.1c-3.6,0.3-7.2-0.9-11.3,0.3c1.1,0.9,1.7,1.5,2.4,1.9c2.4,1.2,4.7,2.4,7.2,3.5c1,0.4,1.9,0.7,1.5,2.1
			c-0.4,1.6-1.5,1-2.4,0.8c-3-0.5-5.9-1.1-8.9-1.7c0.1,4,3.4,5.1,6,6.7c-0.1,0.1-0.2,0.3-0.4,0.4c-2.9-0.2-5.8-0.5-8.6-0.7
			c0.5,0.8,1.1,1.3,1.8,1.6c3.5,1.5,7,3.1,10.5,4.6c3.3,1.4,6.7,2.6,10,4c0.5,0.2,1.1,1,1,1.3c-0.1,0.5-0.8,1.1-1.3,1.2
			c-0.8,0.1-1.7-0.1-2.6-0.2c-1.6-0.2-3.2-0.8-4.7-0.7c-3.9,0.4-7.4-0.5-10.5-3c-0.1-0.1-0.3,0-0.5,0c-0.7,0.9-1.5,1.8-2.6,3.1
			c2.9,1,5.5,1.9,8.1,2.9c0.8,0.3,1.9,1,2,1.5c0.1,0.8-0.6,1.8-1.2,2.5c-0.8,0.8-1.8,1.3-3.1,2.2c1.1,0.6,1.8,1.1,2.5,1.4
			c3.9,1.4,7.9,2.7,11.9,4c1.2,0.4,2.3,0.6,1.9,2.2c-0.3,1.4-0.2,2.9-2.5,2.9c-3.9-0.1-7.8,0.2-12.3,0.4c1.9,1.6,3.4,2.8,5,4.2
			c-0.9,0.7-1.7,1.1-2.4,1.8c-1.5,1.6-3.1,3.2-4.4,5c-1.1,1.5-0.8,2.9,1.1,3.8c1.5,0.7,2.8,1.6,4.7,2.6c-3.2,1.4-3.7,4.2-4.2,6.8
			c-0.4,2-1.4,3.2-3.6,3.5c-0.7,0.1-1.4,0.9-2,1.4c0.8,0.8,1.6,2.3,2.4,2.3c3.6-0.1,5,2.2,6.5,4.7c-5.3,3.4-8.8-1.7-13.4-2.5
			c1.5,1.6,3.3,2.9,4.8,4.4c1.8,1.9,3.2,4,4.8,6.1l0.1-0.1c-2,0.3-3.9,0.6-6.2,1c2,3.3,5.5,3.6,8,5.7c-1.3,2.1-2.6,4.2-4,6.4
			c3,2.1,6.5,3.2,7.5,7.4c-1.7,0.2-3.1,0.4-4.6,0.5c-1.6,0.1-2.3,0.8-2.4,2.4c-0.1,1.9-0.3,3.7-0.6,5.6c-0.3,1.8,0.4,2.8,1.9,3.6
			c4.5,2.4,9.3,3.5,14.3,3.8c4.6,0.2,9.3,1.4,13.7-0.9c0.2-0.1,0.4,0,0.6,0c3.1,5.2,2.4,9.1-1.7,9.8c-1-2.4-0.4-4.7,0.8-7.1
			c-1.7,0.6-3.2,1.5-4.8,2.2c-1.4,0.6-2.9,1.4-4.3,1.4c-4.5,0-9.1-0.5-13.6-0.7c-0.9,0-1.8,0-2.7,0c-0.1,0.3-0.2,0.5-0.3,0.8
			c1.6,1.3,3.1,2.5,4.7,3.8c1,0.8,2.1,1.6,1.5,3.2c-0.7,1.6-1.9,2.2-3.6,2.1c-0.2-0.7-0.3-1.4-0.4-1.7c-3-0.2-5.7-0.5-8.8-0.7
			c1.7,1.6,3.1,2.8,4.5,4.1c1.3,1.3,2.7,2.5,4,3.8c-1.8,0.9-3.5,1.6-4.9,2.7c-1.5,1.1-1.2,2.2,0.6,2.7c2.1,0.6,4.3,1.1,6.6,1.7
			c-1.2,1.8-2.2,3.4-3.3,5c-2.2-0.8-4.2-1.5-6.1-2.2c-2.5,3.5-2.4,4.9,0.1,7.4c0.6-1.5,1.2-3,1.9-4.8c0.5,1.1,0.7,1.9,1.1,2.4
			c0.6,0.6,1.5,1.3,2.2,1.1c2-0.4,2.8,0.4,3,2.2c0.1,0.9,0.3,1.8,0.5,3c-1.7-0.3-3.1-0.7-4.6-0.8c-0.9-0.1-1.8,0.4-2.7,0.6
			c0.5,0.8,0.7,2,1.4,2.4c1.7,1.1,3.6,2.1,5.5,2.8c1.4,0.5,2.9,0.7,4.5,1c-0.8,1.5-1.4,2.9-2.1,4.2c-2.8-0.4-5.4-1.9-8.6-0.4
			c3,1.3,5.2,3,4.8,6.4c-2.7,0.2-5.3,0.3-7.8,0.4c1.8,3,4.3,5.6,4.9,8.7c1,4.6,3.6,6.9,7.6,8.4c0.6,0.2,1.1,0.7,1.8,0.8
			c2.2,0.6,2.5,2.3,2.6,4.2c0.1,1.4-0.4,1.8-1.8,1.5c-2-0.3-4-0.5-6-0.8c-0.2,0.2-0.3,0.3-0.5,0.5c3.7,1.9,4.1,5.2,4.1,8.7
			c0,1.7,0.7,3.1,2.7,3.7c3,0.9,5.9,1.9,8.7,3.1c2.2,0.9,4.1,1,6.1-0.2c3.1-1.8,6.2-3.5,9.6-5.3c-1.1,4.7-3.6,8-7.7,10
			c-1.4,0-2.9,0-4.3,0c-4.4-0.9-8.8-1.6-13.1-2.6c-3-0.7-5.6-2.1-6.6-5.3c0-0.1,0-0.3,0-0.5c0.4-0.1,0.9-0.2,1.7-0.4
			c-0.4-1.8-0.9-3.7-1.3-5.5c-0.2,0-0.3,0-0.5,0c-0.3,1.7-0.7,3.5-1.1,5.6c-0.7-1.2-1.1-2.2-1.7-2.9c-0.8-1.1-1.6-2.4-2.7-2.9
			c-2.2-1-3.6-2.7-4.5-4.8c-1.4-3.4-2.7-7-3.9-10.5c-0.2-0.5-0.3-1-0.4-1.4c-2.3-7.9-4.8-15.6-6.7-23.6c-2.1-8.8-1.8-17.7-1.3-26.7
			c0.1-2.3,0.8-4.2,2.5-5.8c1.2-1.2,1.2-2.4,0.8-4.1c-0.8-3.2-1.1-6.5-1.5-9.8c-1-8.1-2.1-16.1-2.8-24.2c-0.8-9-1.3-18-1.7-26.9
			c-0.4-9.4-0.6-18.8-0.9-28.3c-0.1-2.8,1-5.2,2.7-7.4c0.8-1.1,1.7-2.1,2.3-2.9c-3.9-5.8-6.4-11.8-7.4-18.4
			c-0.2-1.3-0.8-2.5-1.2-3.7c-1.4-3.4-2.9-6.8-4.1-10.2c-0.3-0.9,0.1-2.2,0.3-3.2c0.6-3.6,1.4-7.1,1.9-10.7c0.1-0.8-0.3-1.7-0.5-2.5
			c-0.2-0.2-0.4-0.3-0.6-0.5c-0.2,0.4-0.4,0.9-0.6,1.3c-2.7,4.1-5.4,8.2-8.1,12.2c-0.3,0.4-1.2,0.9-1.4,0.8c-0.6-0.4-1-1-1.3-1.7
			c-0.1-0.3,0.1-0.8,0.4-1.2c3.3-5.6,6.4-11.5,10.1-16.8c2.4-3.4,1.5-6.5,1.1-9.9c0-0.3-0.9-0.5-1.3-0.6c-1.8-0.3-3.5-0.5-5.7-0.8
			c6.4-6.2,7.6-13.9,10-21.3c0.8,0.6,1.7,1.1,3,2c-0.6-1.7-1-3-1.6-4.1c-1-2.2-1-4.4-0.3-6.7c2.3-7.3,0.2-13.5-4.9-18.9
			c-1.1-1.2-2.5-2.2-3.6-3.4c-2.2-2.2-5-2.4-7.8-1.9c-0.8,0.1-1.7,0.8-2.2,1.5c-2.9,4.3-5.1,8.9-5.1,14.4c0,6.4-0.7,12.8-1.1,19.2
			c0,0.4-0.1,0.9-0.2,1.3c-1.6,7.9,0.6,12.8,7.6,16.9c0.5,0.3,1.1,0.6,1.5,0.9c-4.3,0-8.7,0.1-13.1-0.1c-1.1,0-2.2-0.6-3.1-1.3
			c-2.9-2.1-6.1-3.2-10-3.8c0.9,1,1.5,1.7,2.2,2.4c2.7,3,2.9,6.4,0.2,9.3c-3.2,3.5-5,7.4-6.5,11.9c-1.7,5.3-4.6,10.3-7.4,15.3
			c0.1-5.5-1.5-11.1,1.9-16.2c2.8-4.2,2.8-9.3,3.4-14.2c0.4-3.3,1-6.7,1.5-10.2c1.1,0.3,2.3,0.5,4,1c-0.8-1-1.1-1.6-1.6-2.1
			c-5.8-5.4-9.3-11.9-10.9-19.6c-0.6-3.2-1.8-6.2-2.9-9.3c-0.6-1.7-0.6-3.1,0.6-4.6c0.7-0.8,1.2-1.9,2-3c-0.7-0.1-1.1-0.2-1.6-0.2
			c-2,0.1-3-0.5-2.3-2.8c0.2-0.8,0.1-1.7,0-2.6c-0.5-4.2-1.2-4.7-5.4-4.5c-2,0.1-4,0.2-6,0.3c-0.2,0-0.3-0.2-0.9-0.7
			c3-1.2,5.7-2.3,8.4-3.2c1.7-0.5,2.3-1.3,1.9-3.1c-0.7-2.7,0.2-5.2,1.3-7.7c1.5-3.2,2.8-6.5,2.2-10.3c-3.7,0-7.3,0-11,0
			c0-0.1-0.1-0.3-0.1-0.4c2.2-0.8,4.5-1.7,6.7-2.5c1.5-0.6,3-1.1,4.4-1.9c1.6-0.9,1.7-2.4,0.1-3.1c-2.5-1.2-5-2.1-7.6-2.9
			c-0.7-0.2-1.7,0.4-2.6,0.5c-6.3,0.3-11.8-1.8-16.9-5.5c-3.7-2.7-3.8-2.5-7.9,0.5c4.1,0.1,5.9,3.2,8.4,5.4c1.6,1.4,3.7,2.4,5.6,3.6
			c2.1,1.2,4.3,2.4,6.5,3.6c-0.1,0.2-0.2,0.5-0.2,0.7c-1,0-2.1,0.3-3,0c-3.3-1.1-6.6-2.3-9.9-3.6c-0.7-0.3-1.6-1-1.8-1.7
			c-0.8-2.1-2.3-2.7-4.4-2.9c-1.1-0.1-2.1-0.9-3.2-1.2c-1.4-0.4-2.8-0.6-4.4-0.6c4.1,4.8,8,9.5,13.4,12.7c2.5,1.5,3.1,2.3,3.6,5
			c-1.8-0.7-3.4-1.4-5-2c-8.8-3.4-15.2-9.3-19.6-17.6c-1.3-2.4-1.4-4.5,0.8-6.6c1.8,2.8,3.7,5.6,5.5,8.4c0.2-0.1,0.4-0.1,0.6-0.2
			c-0.7-4.9-1.4-9.8-2.1-14.9c-0.6,0.6-1.3,1.3-1.9,2c-1.4,1.5-2.7,3-4.1,4.5c-3.8,4.3-4.1,4.5-1,9.2c2.7,4.1,6.1,7.8,9.5,11.4
			c3.3,3.5,7,6.6,10.9,10.2c-6.5-1.6-11.7-4.6-16.6-8.8c-0.3,3.6-0.8,6.7-3.3,9.1c4.8,4.9,11.7,7.7,13.7,15.1c-3,1.6-4.5,1.5-7-0.6
			c-2.8-2.3-5.6-4.5-8.4-6.7c-0.7-0.5-1.5-0.8-2.4-1c2.5,3.2,6.1,6.1,3.6,11.2c1.3-0.3,2.1-0.6,2.9-0.5c1.3,0.1,2.9,0.1,3.9,0.8
			c3.7,2.8,7.1,5.8,11.1,9.2c-7-1.7-13.1-3.9-18.6-7.5c-0.1,0.1-0.3,0.3-0.4,0.4c0.8,1.1,1.5,2.4,2.6,3.4c3.6,3.4,7.4,6.7,11.1,10
			c-2.8,2-4.1,1.9-6.8-0.1c-3.1-2.3-6.3-4.5-9.5-6.8c-1.8,2.6-1.8,3.5,0.3,5.3c3,2.4,6.1,4.6,9.1,6.8c1,0.7,2.4,1.4,1.6,2.8
			c-0.4,0.7-2.1,1.2-2.9,0.9c-2.2-0.8-4.2-2-6.4-3c-0.2,1.8-0.5,3.8-0.8,6.1c0.7-0.3,1.2-0.4,1.6-0.6c1.3-0.9,2.3-0.5,3.5,0.5
			c1.5,1.3,3,2.5,4.7,3.4c3.1,1.7,3.2,1.7,1.3,5.6c-4.8-3-9.7-5.9-14.3-8.7c-0.5,2.5,1,5,3.7,6.7c2.9,1.8,5.6,4,8.6,6.2
			c-5.1,2.1-8.7-0.8-12.6-2.1c5.2,5,11,9.3,15.3,15.8c-2.2,0-3.9,0-5.6,0c-0.3,0-0.9-0.1-1-0.3c-1.5-3.2-4.6-2.2-7.6-3.3
			c1,1.9,1.7,3.3,2.4,4.7c-2.7,1.1-2.8,1.1-7.9-1c0,2.7,0,5.4,0,8.7c2.9-3.6,5.3-1.8,7.6-0.2c2.4,1.7,4.9,3.3,7.2,5.1
			c3.2,2.5,3,3.8-0.6,5.5c-0.2,0.1-0.3,0.3-0.6,0.5c4,5.1,10.9,6.9,14.7,12.2c-0.1,0.2-0.2,0.4-0.4,0.6c-2.9-0.6-5.8-1.3-9.3-2
			c2.9,3.5,5.3,6.9,9.3,8.1c3,0.9,4.4,2.4,4.2,5.5c0,0.5,0.2,1,0.3,1.8c1.7-1.4,3.3-2.6,5-4c0.8,1.4,1.6,2.8,2.4,4.3
			c-1,0.3-2,0.4-2.7,0.9c-0.8,0.5-1.3,1.4-1.9,2.1c0.7,0.4,1.4,1.1,2.2,1.2c3.4,0.8,3.8,1.1,3.4,4.3c-2.4-0.6-4.8-1.2-7.6-1.8
			c2,3,4.4,5,7.4,5.8c5.3,1.4,10.6,2.3,16,3.4c1.5,0.3,3.1,0.4,5,0.7c-0.2,2.5-0.4,4.9-0.6,7.6c-3.3-1.3-6.2-2.7-9.2-3.6
			c-2.2-0.7-4.5-0.9-6.7-1c-5.4-0.2-10.2-1.7-14.1-5.5c-1.5-1.4-2.9-2.5-4.9-3.2c-11.6-4.3-23.4-14.4-23.2-29.6
			c0-0.2-0.1-0.4-0.3-0.8c-2.9,1.3-3.6-1-4.6-2.9c-4.7-9.1-6.7-19-7.8-29c-1-8.4-1-17-1.4-25.4c-0.1-1.4,0.3-2.9,0.5-4.3
			c0.2,0,0.4,0,0.6,0c0.4,1.2,0.8,2.4,1.3,4.2c1.2-2,2.2-3.6,3.2-5.3c-0.3-0.1-0.5-0.2-0.6-0.2c-3,1-3.3,0.9-3.4-2.1
			c-0.2-6.3-0.4-12.7-0.1-19c0.1-2.4,1.2-4.9,2-7.2c0.4-1.2,0.2-1.8-0.9-2.4c-1.5-0.8-2.9-1.8-4.5-2.9c1.3-2.3,2.6-4.5,3.9-6.7
			c-3.4-2.6-9.1-1.7-10.3-7.1c-0.3,0-0.5-0.1-0.6-0.1c-3.3,1.3-3.3,1.3-5.7-1.4c-0.9-1-1.7-1.9-2.8-3.1c-0.4,1.5-0.8,2.6-1.2,3.7
			c-0.4,1.2-0.2,1.8,1.2,2.1c0.7,0.1,1.5,1.1,1.6,1.8c0.2,1.4,0.1,2.9,0.1,5c-4.5-3.8-9.9-5.6-12.8-10.8c-0.7-1.3-2.7-2-3.5-3.3
			c-2-3.1-3.6-6.5-5.5-9.8c-1.2-2.1-2.6-4-3.8-6c-0.4,0.2-0.7,0.4-1.1,0.5c1.6,3.8,2.8,7.7,4.8,11.3s4.7,6.8,7,10.3
			c0.9,1.3,1.8,2.7,2.2,4.1c0.2,0.8-0.4,2.2-1.1,2.6c-0.7,0.4-2.3,0.4-2.8-0.1c-4.4-3.9-8.2-8.2-9-14.3c-0.1-0.7-0.4-1.4-0.8-1.9
			c-1.7-2-3.4-3.8-5.7-5.5c1,2.8,1.8,5.7,3,8.4c1.5,3.3,3.4,6.5,5,9.8c1.2,2.3,0.7,4.6-0.9,7.4c-1.8-3.1-3.6-5.7-4.7-8.5
			c-0.9-2.3-2.1-3-4.4-2.7c2,2.6,4,5.1,5.8,7.8c2.7,4,5.2,8.1,8,12.1c1.5,2.1,3.2,4.1,5,5.9c2.6,2.6,2.7,2.5,0.1,5.1
			c-2.5-2.4-5.3-4.6-7.5-7.3c-1.2-1.4-1.4-3.7-2.1-5.8c-1.6,0.2-3.3,0.5-5.3,0.8c1.8,2.4,3.4,4.6,5,6.8c2.2,2.9,4.1,5.8,5.4,9.3
			c0.8,2.1,3,3.8,4.7,5.9c-0.8,1-1.8,2.2-2.7,3.3c-1.9-2.1-3.7-4.1-5.4-6.2c-0.4-0.5-0.3-1.5-0.3-2.2s0.3-1.5,0.6-2.6
			c-4.8,0.7-7.3-2.6-10.3-4.9c-0.1,0.1-0.3,0.2-0.4,0.4c2.5,4.3,5.1,8.6,7.6,12.8c1.6,2.6,3.3,5.2,4.9,7.9c1.1,1.8,0.9,2.4-1.1,4.1
			c-3.4-2.9-5.3-7.6-10.4-9.5c0.6,1.1,1,1.8,1.4,2.4c2.2,3.6,4.3,7.2,4.9,11.4c0.1,0.6,0.4,1.3,0.8,1.7c1.7,1.8,3.6,3.4,5.3,5.2
			c0.5,0.5,0.7,1.1,1.4,2.2c-5.2-0.3-8.1-3.8-11.6-6.2c-0.2,0.1-0.5,0.3-0.7,0.4c0.4,1.2,0.6,2.7,1.3,3.7c3.4,4.3,7.1,8.5,10.6,12.8
			c0.8,1,1.4,2.3,2.1,3.4c-0.2,0.2-0.4,0.4-0.7,0.5c-1.4-1-2.7-2.4-4.3-2.9c-5.8-2.1-8.1-7.2-10.8-12c-1-1.9-2.1-3.8-3.3-5.6
			c-0.3-0.5-1.4-0.5-2.1-0.8c0,0.7-0.4,1.6-0.1,2.1c3.8,6.7,7.5,13.5,12.7,19.2c3.5,3.8,5,6.4,5.6,9.5c-4.1-1.9-8.4-3.1-10.4-7.6
			c-0.2-0.6-0.7-1.2-1.2-1.5c-2.3-1.4-3.2-3.6-4.1-5.9c-0.2-0.5-0.4-0.9-0.8-1.7c-0.5,2-0.9,3.7-1.5,5.7c-0.8-1.1-1.4-1.8-2.2-2.8
			c-0.5,1-0.8,1.9-1.5,3.3c4.5-0.8,5.9,2.7,8.3,4.8c2.6,2.2,5.2,4.4,7.9,6.4c2,1.5,3.2,3.3,3.3,5.7c0.2,3.1,1.5,5.5,3.9,7.4
			c0.7,0.6,1.4,1.3,2.1,1.8c3,2.1,3.4,5.1,2.9,8.5c-5.1-2.4-10.1-4.6-12.6-10.2c-1.5-3.2-3.6-6-7-8c0,1.8,0,3.3,0,5.6
			c-3.3-3.9-7-7-9-11s-3.8-8.6-3.4-13.4c0.1-1.7-0.3-2.9-1.9-3.9c-1-0.6-1.6-2.3-2-3.6c-1.1-4.5-2-9-3.1-13.5
			c-0.4-1.5-1.2-3-1.4-4.5c-0.2-2.2-0.2-4.6,0.1-6.8c2-10.9,4.1-21.8,6.2-32.6c0.7-3.5,1.5-7,2.4-10.5c0.6-2.2,1.5-4.3,2.4-6.9
			c0.8,1.4,1.4,2.4,2,3.5c0.1,0,0.3,0,0.4,0c0-0.8,0-1.7-0.1-2.5c-0.6-4.2,0.5-8,2.9-11.5c2.4-3.6,4.8-7.2,7.1-10.8
			c0.7-1.1,1.4-2.3,2.2-3.7c-3.9-0.8-7.4-1.9-10.3-5.2c3.3,1,6.1,1.8,8.9,2.6c2.2,0.7,4.1,0.2,5.5-1.7c1.9-2.6,3.9-5.1,6-7.6
			c2-2.5,4-4.9,6-7.3c1.4-1.7,2.9-3.4,4.3-5.1c0.6-0.9,1-2,1.5-3.2c-1.3-0.3-2.2-0.4-3.1-0.6c-1.5-0.4-2.6-1.5-2.2-2.9
			c0.2-0.7,1.9-1.2,3-1.3c0.9-0.1,1.8,0.7,2.8,1.1c0.9,0.4,1.8,0.8,2.8,1.1c1.2,0.3,2.1-0.1,2.5-1.3c0.4-1.2,0.3-2.4-1.1-2.9
			c-2.5-1-5-1.9-7.4-2.9c-0.7-0.3-1.3-0.5-2.2-0.9c0.4-1.6,0.7-3.2,1.2-5.1c2.5,1.2,4.9,2.4,7.2,3.5c1.4,0.7,2.8,1.5,4.3,2.1
			c1.1,0.4,2.4,1.1,3.3,0.8c2.6-0.9,4-3,4.4-5.2c-5.1-1.1-11,0.1-15.5-4.7c1.4-0.7,2.3-1.1,3.5-1.7c-1.6-1.1-2.9-2.1-4.6-3.3
			c-0.2,1.6-0.4,2.8-0.5,4.2c-7.1-4.2-13.1-9.4-18.4-15.9c-1.3,2.6-0.8,4.6,0.7,6.1c3.4,3.3,6.9,6.5,10.5,9.6c1.2,1.1,2.7,1.8,4.5,3
			c-2.3,1.3-4.3,2.4-6.3,3.5c-0.3,0.2-1-0.2-1.4-0.5c-2.9-2.3-5.7-4.5-8.5-6.9c-3.5-3-6.1-6.5-5.1-11.6c0.5-2.2,0.5-4.4,0.8-6.9
			c2.6,0.6,4.2-0.7,5.9-2.3c2.4-2.2,5.2-3.9,8.8-2.1c1.1,0.6,2.2,0.3,2.9-0.9c0.4-0.6,0.8-1.1,1.7-2.2c0,2.7,0,4.8,0,7.4
			c2.5-1.1,4.7-1.6,6-3.7c0.3-0.5,1.2-0.9,1.9-1.1c1.1-0.3,2.4,0,3.4-0.5c3.1-1.4,6-2.9,9.2-4.1c-4.8,4.6-9.6,9.2-14.5,13.9
			c0.1,0.1,0.1,0.2,0.2,0.3c3.5-1.4,7-2.8,10.5-4.2c0.1,0.1,0.2,0.3,0.3,0.4c-2.2,2.6-4.3,5.2-6.6,7.8c-0.3,0.3-1.1,0.4-1.5,0.3
			c-2.5-0.8-5.1-1.4-7.6-2.5c-1.5-0.7-2.7-2-4-3c-0.6,1.2-0.1,2.3,1.1,3.3c4.8,3.8,9.9,5.6,16.1,3.6c5.5-1.7,10.5-4.2,15.3-7.4
			c1.7-1.2,2.1-2.6,1.3-4.5c-0.7-1.7-1.5-3.4-2.1-5.2c-2.1-6.6-6.8-10.1-13.5-10.7c-2.1-0.2-4.5,0.4-6.4,1.4
			c-4.6,2.2-9,4.9-13.5,7.3c-1.1,0.6-2.3,1.1-3.6,1.8c-0.7-1.9-1.4-3.7-2.1-5.4c-5.3,5.3-11.6,9.2-17.7,13.2
			c-3.2,2.1-6.2,4.4-9.2,6.8c-1.1,0.8-1.4,1.9-1.1,3.4c0.4,2.3,0.4,4.7,0.6,7.1c0.1,0.8,0,1.7,0.4,2.3c0.4,0.6,1.2,0.9,1.9,1.3
			c0.3-0.6,0.8-1.2,0.7-1.7c-0.2-2.9-0.5-5.7-1-8.6c-0.3-1.5,0.4-1.9,1.5-2.3s1.6,0.1,2.2,1.1c2.2,3.6,4.6,7.1,6.9,10.7
			c0.5,0.8,0.9,1.7,1.4,2.5c1.2,1.9,1.2,3.6-0.8,5.2c-2.2-0.9-4.5-1.8-6.7-2.7c-0.2,0.2-0.3,0.3-0.5,0.5c0.5,1,0.9,2,1.4,2.9
			c1.8,3.3,3.6,6.5,5.5,9.7c0.4,0.6,1.1,1.2,1.8,1.4c1.9,0.4,2.2,1.6,2,3.2c-0.1,1-0.1,2.1-0.2,3.7c-5.1-5.4-10.2-10.1-14.3-15.5
			c-2.8-3.7-4.2-8.5-6.1-12.8c-0.3-0.8-0.2-1.8-0.2-2.8c0-1.3,0-2.5,0-4.4c-2.5,1.9-4.5,3.4-6.9,5.2c3.1,0.3,4,2.2,4.7,4.3
			c1.9,5.7,4.4,11.1,8.1,15.9c1.5,2.1,2.2,4.9,4,6.6c2.2,2.1,1.8,4.4,1.8,7.5c-3.3-3.4-6.3-6.3-9.2-9.4c-1.8-2-3.6-4.1-5-6.5
			c-1.5-2.4-2.6-5.1-3.5-7.7c-0.7-1.9-0.9-2.4-3.2-2.7c0.5,1.8,0.6,3.8,1.5,5.2c5.3,8.5,10.8,17,16.3,25.4c0.2,0.3,0.5,0.7,0.9,0.8
			c2.6,0.5,3.3,2.1,2,4.9c-1.5-1-3-1.9-4.7-3c0.7-0.6,1.2-1,1.3-1.1c-4.8-4.3-9.6-8.6-14.3-13c-0.7-0.6-1-1.8-1.1-2.8
			c-0.2-2.4-0.1-4.7-0.1-7.4c-1.9,0.5-4.1,2.2-5.9-0.4c-0.2,0.1-0.4,0.2-0.6,0.3c0.3,1.9,0.1,4,0.9,5.7c2.1,4.1,4.7,8.1,7.1,12
			c1.8,2.9,3.6,5.8,5.3,8.7c-0.2,0.2-0.5,0.4-0.7,0.6c-0.9-0.6-2-1.1-2.8-1.7c-3.6-2.8-8-4.7-9.7-9.4c-0.6-1.7-0.9-3.4-1.4-5.1
			c-0.2-0.7-0.7-2-1.1-2c-2.9-0.2-3.3-2.3-3.9-4.4c-0.1-0.3-0.2-0.7-0.8-0.9c0.1,1.8,0,3.6,0.5,5.2c1.1,3.4,2.3,6.8,3.9,10
			c1,2,2.9,3.6,4.4,5.4c0.5,0.5,1.1,1,1.4,1.6c1.5,3.1,3,6.3,4.3,9.6c-6.7-6.2-14.4-11.4-17.7-20.4c-0.2,0-0.4,0-0.5,0.1
			c-1,2.7-2.1,5.4-3.1,8.1c0.1,0.1,0.3,0.1,0.4,0.2c0.9-1.1,1.7-2.2,2.8-3.6c5.1,8,10.6,15.6,14.5,24c-0.2,0.1-0.4,0.3-0.5,0.4
			c-2.8-3-5.6-6.1-8.4-9.1c-1-1.1-2.2-2-3.3-3c-1-0.9-2.3-1.6-3-2.8c-1.3-2.1-2.9-2-5-1.3c4.5,6.8,12.3,11.5,12.2,20.8
			c-4.3-1.7-5.5-3.1-6.3-7.2c-2.5-0.2-2.5-0.2-3.4-2.8c-0.2-0.7-1-1.2-1.6-1.8c-0.8-0.8-1.8-1.5-2.4-2.5c-1.1-2-2-4.1-3-6.2
			c-0.1-0.3-0.4-0.5-0.7-0.9c-1.5,1.7-1.4,3.3-0.5,5c1.8,3.3,3.6,6.6,5.4,9.8c0.8,1.4,1.5,2.8,2.1,4.3c0.9,2.1,0.8,3.5-0.7,6.6
			c-4-5.5-7.9-10.7-11.8-15.9c-0.2,0.1-0.4,0.3-0.7,0.4c2.2,8.4,9.3,14.3,11.7,22.8c-3-0.9-5.8-1.9-7.6-4.3c-2-2.4-3.4-5.3-5.1-7.9
			c-1.6-2.5-3.2-5-4.9-7.6c-0.5,0.6-0.7,0.7-0.7,0.7c3,8,5.3,16.3,11.7,22.6C115.1,507.6,117.5,509.7,116.1,513L116.1,513z
			 M247.2,293.9c0.5-0.8,0.8-1.2,1.1-1.6c5.9-8.5,11.8-17.1,17.8-25.5c1.1-1.5,2.7-2.7,4.4-3.6c1-0.5,1.5-0.8,1.8-1.9
			c1.2-4.8,4.9-7.8,8.7-11.4c0.1,1.6,0.1,2.7,0.3,3.8c0.8,3.7-0.6,6.3-3.5,8.8c-2.5,2.2-4.9,4.9-6.2,7.9c-3,7-7.3,12.9-12.9,17.9
			c-1.8,1.6-3,3.2-3,5.7c0,1.1-0.4,2.3-1,3.2c-2.9,4.5-4.6,9.4-6,14.5c-0.4,1.7-1.4,3.2-1.9,4.8c-1,3-1.9,6-2.7,9.1
			c-0.4,1.6-0.4,3.2-0.6,4.8c-4.3,0.9-5.5,0.2-6.3-3.9c-0.2-1.2-0.2-2.6,0.1-3.8c1.1-4.7,2.1-9.4,3.5-14c1.1-3.4,2.3-6.9,4.3-9.8
			c1.5-2.1,1.1-3.3-0.2-5.4c-2.1,5.1-4.4,9.7-6,14.6s-2.8,9.8-5.3,14.7c-1.6-2.7-2.1-5.2-1.4-8c0.2-0.9,0.1-2.5-0.5-2.8
			c-2.6-1.6-5.4-2.8-8.2-4.1c0,0.3-0.1,0.4-0.1,0.5c0.2,0.5,0.4,0.9,0.5,1.4c3.5,9.2,7.7,18.2,14.1,25.9c1,1.2,1.4,2.9,3.6,2.6
			c0.7-0.1,1.6,0.8,2.3,1.5c2,1.9,3.9,3.8,5.9,5.7c7.5,7.3,14.9,14.6,22.5,21.8c4.2,3.9,8.7,7.6,14.2,9.3c5.8,1.8,10.7,4.9,15.3,8.6
			c1.7,1.3,3.5,2.5,5.4,3.5c1.3,0.7,2.7,1.2,4.1,1.8c0.2-0.2,0.4-0.4,0.6-0.6c-0.8-1.2-1.5-2.6-2.5-3.7c-1.8-1.9-3.3-4-3-6.5
			c0.4-2.6,1.5-5.2,2.7-7.6c1.4-3,3.2-5.9,4.9-8.8c1.1-1.9,2.1-3.8,3.4-5.5c0.5-0.7,1.4-1.4,2.2-1.5c1.8-0.2,2.7-1,3.1-2.7
			c0.3-1,0.8-2,1.3-3c1.5-3.1,3.3-5.7,7.4-5.5c0.8,0,2.1-1.2,2.3-2c1-4.3,4.5-5.2,7.8-6.7c1.3,5.3-1.1,8.7-5.1,11.3
			c-0.4,0.2-0.7,0.6-1.1,0.7c-3.2,0.8-4.8,3.3-6.7,5.7c-2.2,2.8-4.8,5.2-7.1,7.8c-2.5,2.9-4.1,6.3-4.6,10.1c1.6-1.8,3-3.6,4.3-5.6
			c1.8-2.6,3.8-4.8,6.8-6.1c1-0.4,1.9-1.7,2.5-2.7c1.1-2.1,3-3.1,5.3-2.5c0.7,0.2,1.7-0.2,2.3-0.7c0.6-0.4,0.9-1.3,1.3-2
			c2-3.3,3.9-4.1,8-3.4c-1.7,3.1-4.1,5.5-6.7,7.8c-4.1,3.6-8.1,7.4-12,11.2c-1.9,1.9-2.2,3.4-1.8,6.2c2.5-2.6,4.7-5.1,7.3-7.3
			c2.5-2.1,5.2-4,7.9-5.8c1.5-1.1,3.4-1.7,4.8-2.9c1.6-1.5,3.1-1.9,5.4-0.1c-3.9,3.7-7.7,7.2-11.5,10.9c-3.7,3.6-7.5,7.2-11.3,10.9
			c2.8,1.4,3.3,1.4,5-0.2c2-1.9,4-4,6-5.9c2.1-2,4.6-3.1,7.6-3.6c-1.6,5.1-5.5,7.7-9.8,9.9c3.5,0.4,6.6-0.2,9.5-2
			c5.2-3.2,5.5-3.1,7.1,2.8c0.1,0.2,0,0.4,0,1.1c-4.8,0.1-8.6,2.8-13,4.8c1,0.7,2.1,1.1,3.2,1.3c1.7,0.3,3.5,0.2,5.2,0.5
			c1.4,0.2,2.2-0.2,2.9-1.5c1.3-2.4,1.8-2.4,4.3-0.8c-0.5,1.4-1.1,2.7-1.6,4.2c-0.5,1.4-1.4,1.5-2.8,1.5c-3.5,0.1-7,0.7-10.6,1.1
			c-0.1,0-0.1,0.2-0.3,0.6c2.9,1.2,4.9,3.3,4.9,7.1c1.4-1.7,2.4-2.9,3.7-4.4c0.2,2.7,0.3,4.8,0.5,7.3c-3.5-1.5-6.9-2.7-10.7-1.4
			c3.8,0.4,3.2,3.8,4.3,6.3c0.6-1.3,1.1-2.3,1.7-3.4c1.6,1.1,3.1,2.1,4.6,3.2c-1.2,1.8-2.2,3.4-3.3,4.9c-1.5-0.9-2.7-1.7-4-2.4
			c-1.3-0.7-2.7-1.4-4.1-2c-1.2-0.5-2.5-0.9-3.8-1.4c-0.1,0.3-0.3,0.6-0.4,0.8c4,2.8,8,5.7,12.2,8.6c-0.7,1.1-1.6,2.3-2.3,3.4
			c-2.2-1.2-4.2-2.2-6.2-3.3c-1.7-0.9-3.4-1.8-5-2.9c-0.8-0.5-1.2-1.5-2.1-2.7c-0.8,3.2,0.1,4.9,2.2,6.2c5,3.2,10,6.5,15,9.8
			c2.1,1.4,2.4,2.5,1.3,4.3s-2.7,0.9-4,0.3c-3.3-1.5-6.4-3.2-9.6-4.9c-0.5-0.3-1.1-0.5-1.6-0.7c2.3,2.8,4.9,5.2,7.5,7.6
			c1.3,1.2,2.9,2.2,4.4,3.1c3.5,2.1,7.1,4,10.7,6c0.7,0.4,1.3,1.1,1.9,1.7c-2,1.5-3,1.7-5.2,0.9c-2.9-1-5.8-2.1-8.7-3.2
			c-0.5-0.2-1.1-0.4-1.6-0.6s-1-0.3-1.6-0.5c4.7,4.9,11.2,7.2,16.4,12.3c-1.8,0-2.9,0-4.5,0c1.7,3.9,3.2,7.5,4.7,11.1
			c-4.6,1.2-7.5-1.8-10.7-3.9c0-0.2,0-0.4,0-0.6c1.2-0.2,2.5-0.4,4.3-0.7c-0.8-0.9-1.4-2-2.1-2c-1.3-0.2-3.3-0.2-3.7,0.5
			c-1,1.7-2.1,1.4-3.4,1c-1.2-0.3-2.3-0.5-3.9-0.9c3.7,4.9,7.2,9.4,10.7,13.9c-7.1-1-12.6-4.7-17.5-9.4c3.8,6.8,10.2,11.9,11.9,20.2
			c-6.6-4.3-13.1-8.6-19.3-12.6c3.4,6,10.1,10.8,10.7,19.3c-8.1-2.3-12.9-8.5-18.5-13.9c0.7,1.9,1.6,3.6,2.7,5.2
			c2.9,4.1,5.9,8.2,8.8,12.2c1.1,1.6,1.4,3.1,0,4.7c-5.2-3.8-9.7-8.4-15.2-11.8c-0.2,0.2-0.4,0.4-0.6,0.6c3.9,4.9,7.9,9.8,11.9,14.8
			c-1,1.1-2,2.2-3,3.5c-5-3.8-9.9-7.4-14.7-11c0.2,0.9,0.5,1.6,1,2.2c2.5,3.1,5,6.1,7.6,9.1c2.5,2.8,4.7,5.6,5.4,9.5
			c-6.8-1-10.8-6-15.5-10.1c0.3,1.2,0.7,2.2,1.4,3.1c4,4.9,8.1,9.7,12.2,14.6c1.1,1.4,2.1,2.9,3.2,4.4c-9.7-2.7-18-6.7-20.1-18
			c-0.6,1.4-1.1,2.7-1.8,3.9c-0.7,1.3-0.5,2.3,0.6,3.4c2.5,2.6,4.9,5.2,7.4,7.9c3,3.3,6.1,6.7,9.1,10.2c0.9-0.6,1.9-1.1,2.8-1.6
			c2.3-1.2,4.1-2.7,3.9-5.6c-0.1-1.5,1.2-1.9,2.4-1.9c2.7,0.1,5.5,0.2,8.2,0.7c5,0.9,9.1,3.8,13.2,6.6c0.6,0.4,1.4,0.9,1.9,0.7
			c2.5-1.1,5-2.1,6.4-4.8c1.4-2.8,3.3-5.4,5-8c2.2-3.4,4.6-6.8,6.8-10.2c3-4.7,5.9-9.6,9-14.2c3.6-5.3,7.4-10.5,11.1-15.7
			c0.2-0.3,0.4-0.6,0.7-0.8c0.3-0.2,0.9-0.4,1.1-0.3c0.3,0.1,0.5,0.7,0.5,1.1c-0.1,0.9-0.4,1.8-0.6,2.7c0.1,0,0.3,0.1,0.4,0.1
			c1.2-1.7,2.4-3.5,3.6-5.3c-1.1-0.7-1.9-1.2-2.5-1.5c1.2-3.6,2.9-7,3.5-10.5c0.8-5.6,0.8-11.3,1.3-17c0.2-2,0.5-4,0.9-5.9
			c0.6-2.9,1.3-5.9,2-8.8c0.8-3.3,1.6-6.7,2.6-10c2.1-6.9,4.8-13.6,6.2-20.6c1.2-6,1.4-12.3,3.1-18.2c0.2-0.6,0.2-1.3,0.1-1.9
			c-0.7-6.2-1.6-12.4-2.1-18.7c-0.7-8.7-1-17.4-1.5-26.1c-0.1-0.9-0.3-2.1-0.9-2.8c-4.4-5.1-6.9-11.2-9.8-17.2
			c-3.2-6.7-6.9-13.1-10.3-19.6c-2.1-3.9-4.3-7.8-6.3-11.8c-2.6-5.2-5-10.5-7.6-15.7c-0.6-1.2-1.3-2.3-2.1-3.7
			c1.5-0.1,2.7-0.1,4.1-0.2c-0.6-1.8-1.1-3.4-1.7-5.4c-0.7,0.9-1.1,1.5-1.5,2.1c-0.5,0.6-0.9,1.2-1.6,2.2
			c-4.3-9.2-11.3-16.9-11.4-27.6c-0.4,1.1-0.8,2.2-1.4,3.7c-0.7-1.2-1.3-2.1-1.8-3c-2.3-3.8-4.3-7.9-7-11.4
			c-6.6-8.2-12.1-17.2-16.9-26.5c-0.7-1.4-1.1-3-1.6-4.6c0.2-0.2,0.4-0.3,0.6-0.5c1.4,1,3,1.9,4.1,3.1c1.8,1.9,3.3,4.2,5,6.2
			c2.8,3.2,5.7,6.4,8.5,9.5c0.2-0.2,0.4-0.3,0.6-0.5c-0.8-1.5-1.5-3-2.5-4.4c-4-6.1-8.2-12-12.1-18.1c-3.5-5.4-6.9-11-10.3-16.5
			c-1.2-2-1.6-4.1-0.9-6.4c7.3,9,14.6,17.8,21.6,26.8c3.4,4.4,6.5,9,9.1,13.9c2.5,4.7,5.9,8.4,9.3,12.4c0.1-0.4,0-0.7-0.1-1
			c-2.1-7.1-6.5-13-10.5-19c-5.5-8.3-11.9-15.9-17.9-23.8c-2.1-2.7-3.1-5.3-0.9-8.4c0.1-0.1,0-0.4,0-0.1c-3.3-2.6-6.4-4.9-9.4-7.4
			c-1.6-1.4-3.1-2.6-5.4-2.9c-0.9-0.1-1.9-0.6-2.4-1.3c-1.4-1.7-3.2-2.1-5.2-1.9c-3.1,0.2-6.3,0.4-9.7,0.6c0.6-1.6,1.2-3,1.9-4.6
			c-1.7-1.1-3.4-2.3-5.1-3.2c-0.6-0.3-1.7-0.4-2.4-0.1c-8.3,3.4-16.5,7.1-23.7,12.6c-6.1,4.7-12.5,9-18.8,13.5
			c-0.8,0.6-1.7,1-2.8,1.7c0.3-1.9,0.6-3.5,0.7-5c0.2-3.4,1.8-6.1,4.6-7.9c2.6-1.7,5.4-3,8.2-4.2c2.2-0.9,3.7-2.2,4.8-4.4
			c0.5-1.1,1.8-2,3-2.5c1.9-0.7,4-1,6.1-1.5c3.6-0.9,3.6-1,4.6,2.7c1.1-0.8,2.1-1.6,3.4-2.5c-3.9-0.9-2.9-3.6-2.5-6.2
			c-0.8,0.1-1.4,0.1-2,0.2c-6,1.4-11.3,4.4-16.3,8c-2,1.4-4.1,2.7-6.2,3.9c-1.6,1-3.3,1.6-4.6-0.8c-0.2,0.4-0.4,0.5-0.5,0.7
			c-1.9,5.5-5.9,9.3-10,13c-2.3,2.1-4.9,3.7-5.9,7c-0.2,0.7-1.1,1.3-1.8,1.8c-1.7,1.3-3.4,2.4-5.1,3.6c-1.2,0.9-2.6,1.8-3.3,3
			c-2.5,4.1-4.9,8.3-7.2,12.6c-0.5,1-0.5,2.3-0.8,3.5c0.3,0.2,0.6,0.3,0.9,0.5c2.1-2.6,4.8-5,6.3-8c1.6-3.2,3.7-5.5,6.5-7.5
			c1.4-1,2.6-2.4,3.7-3.8c2.3-3,4.3-6,6.5-9c4.4,2.8,5.3,4.8,3.1,7.8c-2.9,3.8-6.3,7.2-9.6,11c-0.7-1.3-1.2-2.2-1.9-3.5
			c-0.3,1.3-0.5,2.2-0.6,3.1c-0.5,3.3-2.2,5.8-4.3,8.3c-3,3.5-5.6,7.3-8.1,11.1c-1.7,2.6-2.9,5.4-4.4,8.1c-2.1,3.8-4.3,7.5-6.4,11.2
			c-0.6,1.1-1.3,2.1-2.1,3.5c-0.9-1.2-1.5-2-2.2-2.9c-1.2,12.2,3,44.5,6.8,50.7c0.4-5.8,0.8-11.2,1.2-17.1c-0.5,0.8-0.8,1.3-1.1,1.7
			c-0.3,0.4-0.6,0.8-1,1.5c-1.3-8-1.4-15.4,3.4-22.2c-0.2,0-0.4-0.1-0.6-0.1c-1.7,1.5-3.4,3-5.1,4.6c-2.5-2.6-3.1-5.6-2-8.7
			c1.2-3.2,2.5-6.4,4.2-9.4c4.2-7.2,8.7-14.3,13.1-21.3c0.9-1.4,2.3-2.5,3.5-3.7c0.9-0.8,2.1-1.5,2.7-2.4c2.6-4.5,6.3-8,10.4-11.1
			c1.8-1.4,3.4-2.8,4.9-4.7c3.5-4.6,8-8.4,12-12.5c0.2,0.2,0.4,0.4,0.6,0.5c0.6,8.8-6.8,12.8-11.2,18.9c-1-1.1-1.7-1.9-2.8-3.1
			c-0.5,1.8-0.8,3.2-1.3,4.5c-0.7,1.6-1.4,3.2-2.4,4.5c-1.1,1.5-2.7,2.6-3.9,4c-4.2,4.7-8.4,9.4-11.1,15.1c-1.5,3.3-5.4,4.4-6.4,8.2
			c-0.8,3.4-2.3,6.6-3.6,9.9c-0.2,0.6-0.5,1.3-0.9,2.3c1.8-0.4,3.3-0.7,4.7-1.1c0.5-0.2,0.9-0.8,1.1-1.3c0.9-2.5,1.5-5.2,2.4-7.7
			c0.6-1.6,1.8-2.4,3.7-2.5c0.8-0.1,1.9-0.9,2.3-1.7c1.7-2.9,2.8-6.2,4.7-8.9c2.8-3.9,6.1-7.4,9.3-11c3-3.5,6.1-6.9,9.2-10.3
			c0.4-0.4,0.8-0.7,1.6-1.2c0,2.5,0.4,4.8-0.1,6.7c-1.6,6-6.4,9.4-11,12.8c-1.5,1.1-2.5,2-2.8,3.8c-0.4,2.3-1.6,4-3.4,5.5
			c-4.2,3.6-7.7,7.8-9.3,13.2c-0.8,2.7-2.6,4.8-5.1,6.2c-0.8,0.4-1.7,1.1-1.9,1.9c-0.9,3.2-1.7,6.5-2.5,9.8c0.6-0.1,0.9-0.3,1.1-0.6
			c7.8-10.5,15.5-21.1,23.5-31.5c2.3-3,5.1-5.6,7.8-8.3c1.5-1.6,3.1-3,4.6-4.6c3-3.2,6-6.4,9.1-9.7c0.7,1.3,1.1,2.1,1.7,3.4
			c0.4-1.4,0.5-2.4,0.9-3.3c0.5-1.1,1-2.6,1.9-3c3.5-1.6,5.5-4.5,7.6-7.4c2-2.7,4.6-4.7,8.2-3.7c0.6-1.7,0.8-3.7,1.9-4.8
			c1.2-1.2,3.2-1.5,5.1-2.3c-0.1,2.8-1,4.8-2.8,6.3c-2.2,1.7-4.6,3.1-6.9,4.8c-0.7,0.5-1.7,1.2-1.9,1.9c-0.4,1.7-1.6,2.3-3,2.9
			c-2.1,0.9-3.6,2-3.6,4.8c0,1.3-1.2,2.7-2.2,3.7c-0.9,0.9-2.3,1.5-3.5,2.1c-2.7,1.2-4.7,2.9-5.3,6.1c-0.5,2.5-2.6,3.2-5,3.9
			c0.5-1.5,0.9-2.7,1.3-3.9c-0.2-0.1-0.4-0.1-0.6-0.2c-0.8,1.9-1.5,3.9-2.4,5.7c-0.3,0.6-1.2,1.5-1.5,1.4c-1.9-0.7-2,0.6-2.4,1.8
			c-0.3,1-0.5,2-1.1,2.8c-2.8,4.4-6.1,8.4-10.5,11.3c-0.7,0.5-1.2,1.4-1.6,2.2c-1.8,3.8-3.2,7.9-5.3,11.5
			c-6,10.2-11.8,20.5-16.2,31.4c-1.1,2.7-2.3,4.5-5.6,3.8c-0.1,0-0.2,0.1-0.6,0.3c0.7,3.7,1.4,7.4,2.1,11.3c1.2-0.2,1.9-0.4,2.6-0.5
			c2.3,3.7,0.4,9.2,5.7,11.6c-0.3-5.3-2-9.7-4.6-13.9c-0.8-1.2-0.7-2.2-0.1-3.6c1.4-3,2.6-6.1,3.7-9.2c1-2.7,1.6-5.5,2.9-8.1
			c2.1-4.5,4.5-8.9,7-13.1c1.5-2.5,3.5-4.7,5.3-7c1-1.3,2.4-2.4,2.9-3.9c1.8-5.7,6.3-9,10.8-12.2c1.5-1.1,2.2-2.2,2.5-3.9
			c0.3-1.6,0.8-3.5,1.8-4.7c1.7-1.9,4-3.3,6-5c1.4-1.2,2.9-2.4,3.9-3.8c2.5-3.4,5.4-6.4,9-8.6c1.1-0.6,2.5-0.7,3.7-1
			c-2.1,4.5-4,8.6-6.8,12c-1.7,2.1-3.8,4.7-7.5,3.7c-1.4,6.1-5.8,10.2-9.6,14.8c-0.7-1.3-1.2-2.3-1.7-3.2c-0.8,2.8-1.2,5.7-2.5,8
			c-2.3,3.9-5.2,7.4-7.9,11c-0.4,0.5-1.2,0.8-1.7,1.3c-0.5,0.4-1.2,0.9-1.4,1.4c-1.5,3.8-2.9,7.7-4.4,11.4c-2.4,6-5,12-7.5,18
			c3-1.3,3.6-6.1,8.7-3.8c-2.5-3.7-0.8-6.6,0.3-9.5c0.6-1.7,1.3-3.4,2-5c1.8-4.1,4.7-7.4,7.7-11.1c0.4,1.8,0.8,3.2,1.1,4.5
			c0.5-3-0.1-6.2,2.3-9.4c0.9,1.9,1.5,3.3,2.4,5.2c0.4-8.2,3.1-14.8,8.8-20c2.1,9.1-2.4,15.8-7.9,22.3c-1,1.1-1.9,2.3-2.7,3.6
			c-1.3,2.1-2.6,4.3-3.8,6.5c-2.4,4.2-4.9,8.4-7.2,12.7c-1.7,3.2-2.9,6.8-4.7,9.9c-1.4,2.4-1.1,4.4-0.1,6.9c1.9-4.2,3.5-8.2,5.5-12
			c1.9-3.6,4.1-6.9,6.2-10.3c2.2-3.4,4.4-6.7,6.7-10c1.7-2.5,3.5-4.9,5.4-7.2c1.4-1.7,3-3.2,4.4-4.9c2.4-3,4.7-6.1,7.1-9.1
			c2.3-2.8,4.7-5.4,7-8.2c2.1-2.6,4.1-5.2,6.2-7.9c0.6,5.2-0.6,9.8-3.8,13.6c-0.9,1.1-2.7,1.7-4.1,1.9c-1.8,0.2-2.5,0.9-2.3,2.6
			c0.3,3.1-1,5.6-2.9,7.9c-2.6,3.1-5.3,6.2-7.8,9.6c-4.4,6-8.7,12.2-12.9,18.4C246.9,287.2,246.1,290.2,247.2,293.9z M225.3,66.2
			c0.2,2.4-0.8,2.9-2.3,2.8c-7.9-0.4-15.8-0.7-23.7-1.1c-3.7-0.2-7.3-1.2-10.9-1.2c-4.4-0.1-8.9,0.6-13.4,0.6
			c-1.6,0-3.1-0.8-4.7-1.1c-1.2-0.2-2.6-0.8-3.5-0.4c-4.3,1.9-8.4,1.7-12.9,0.9c-3.1-0.6-6.7,0.6-10,1.3c-4.4,0.8-8.6,2.4-13.1,0.6
			c-0.6-0.2-1.5,0.1-2.2,0.4c-1.2,0.4-2.3,1.2-3.5,1.3c-7.1,0.7-14.2,1.2-21.3,1.8c-5.2,0.5-10.3,0.9-15.4,1.6
			c-4.8,0.7-9.4,2.3-14.3,1.2c-0.5-0.1-1.2,0.5-1.8,0.9c-1.1,0.7-2.1,1.6-3.3,2c-2.7,1-5.7,1.7-8.4,2.8c-3.8,1.6-7.7,3.3-11.3,5.3
			c-2.2,1.2-4.6,2.8-6,4.8c-3,4.3-5.5,8.9-8.1,13.5c-0.8,1.4-1.1,3.1-1.2,4.8c-0.3,3.5-0.4,7-0.5,10.5c-0.1,0-0.3,0.1-0.4,0.1
			c-1.2-4-2.5-8-3.7-12.2c-0.8,2.4-1.4,4.8-2.3,7c-0.4,1-1,2.3-1.9,2.8c-1.9,1.1-1.6,2.4-1,4.1c1.5-1.1,2.9-2.1,4.7-3.4
			c-0.4,5.2,1,9.4,2.8,13.6c0.6,1.4,0.4,3.2,0.7,4.8c0.2,1.1,0.4,2.4,1.1,3c5.1,4.3,10.1,8.8,16.2,11.8c5.6,2.8,10.9,6.1,16.4,9.2
			c1,0.6,1.8,1.5,2.7,2.2c-0.1,0.2-0.2,0.5-0.3,0.7c-2.1-0.5-4.4-0.7-6.3-1.5c-3.8-1.7-7.5-3.6-11.1-5.7c-3.2-1.8-6.1-4.1-9.2-6.1
			c-1.3-0.8-2.6-1.7-4.4-0.4c1.5,1.1,2.8,2.1,4.2,3.1c4.9,3.7,9.9,7.2,14.6,11.2c2.2,1.9,4.3,3.4,7.1,3.6c2.4,0.2,4.9,0.1,7.3,0.1
			c0.5,0,1.2-0.5,1.4-0.9c2.1-4.6,4.5-9.1,5.9-13.9c1.2-3.9,1.1-8.1,1.7-12.4c-6.2,0.5-11.8,0.9-17.3,1.3c0,1.1,0,2,0,2.9
			c-0.3,0-0.4,0.1-0.6,0.1c-1.4-0.4-2.9-0.9-4.3-1.3c-7.6-2.1-14.1-5.7-18.1-12.8c-1.6-2.7-3.5-5.3-5.2-8c-0.3-0.4-0.5-1-0.8-1.7
			c3.1,0,5.2,1.5,7.1,3.2c4.8,4.2,10,7.8,15.9,10.3c1.1,0.4,2.5,0.5,3.7,0.2c2.6-0.6,5.1-1.5,7.7-2.2c0.8-0.2,2-0.2,2.7,0.2
			c1.8,1.2,3.6,1,5.6,0.5c5.4-1.4,10.9-1.9,16.5-1.2c0.6,0.1,1.2,0,1.8,0c0.5-2.8,0.5-2.8-3.5-2.7c-0.5-1.8,0.1-3.1,2-3.7
			c5.8-1.8,11.5-3.8,17.4-5.2c7.1-1.6,14.5-2.4,21.7-4c11.4-2.4,22.7-5.3,34.5-5.1c0.7,0,1.5-0.3,2-0.6c2.7-1.9,5.7-2.4,8.8-2.5
			c5.4-0.1,10.8,0.1,16.2-0.2c8-0.5,16.1-1.7,24.1-2.1c6.7-0.3,13.5,0,20.3,0.1c9.9,0.1,19.9,0.2,29.8,0.5
			c9.1,0.3,18.1,1.4,26.7,4.7c3.5,1.4,5.8,3.3,5.9,7.3c0,0.3,0.2,0.6,0.3,1c0.2,0.1,0.4,0.2,0.6,0.2c0.8-1.6,1.6-3.1,2.4-4.8
			c19.6,8.8,37.9,19.7,53.3,35.5c0.7-2.2,1-4.4,2-6.1c1.2-2.1,0.7-3.8-0.2-5.7c-3.1-6.5-6.1-13.1-9.4-19.4
			c-3.8-7.2-8.7-13.6-16.4-17.2c-1.8-0.9-3.3-2.3-5-3.4c-3.1-2.1-6.2-4.3-9.4-6.1c-3.6-2-7.4-4-11.3-5.3c-5.4-1.9-11-3.2-16.6-4.8
			c-3.5-1-6.9-2.2-10.4-2.7c-3-0.5-6-0.4-6.5-4.3c0-0.1-0.1-0.3-0.2-0.4c-0.7-1-1.6-1-1.9,0.1c-0.5,1.8-1.5,1.6-2.8,1.1
			c-1-0.4-2.1-0.6-3.1-0.9c-7.2-1.9-14.5-1.9-21.9-2c-1.6,0-2.5-0.4-2.8-2.1c-0.2-1-0.7-1.9-1.1-2.9C231.7,72.4,228.9,72,225.3,66.2
			z M303.7,470.4c2.5-2.5,4.8-4.6,4.3-8.3c-0.1-0.8,0.5-1.9,1.1-2.7c0.8-1.2,2-2.1,2.9-3.2c0.4-0.6,0.9-1.8,0.7-2
			c-0.6-0.6-1.6-1-2.4-1c-1,0-2,0.5-3,0.8c3.2-2.4,2.5-5.8,2.6-9c0.1-1.6-0.6-2.5-2-3.3c-2.2-1.2-4.3-2.7-6.6-3.7
			c-3.3-1.5-6.7-2.9-10.2-3.9c-1.5-0.4-3.5-0.3-5,0.3c-7,2.8-9.7,9.5-13.7,15.1c6.9-2,11.2-8.2,18.2-11c-1.7,2.3-3.1,4.1-4.4,6
			c-2.3,3.2-4.7,6.4-8.6,8c-0.6,0.2-1.1,1.3-1.2,2c-0.1,1.1,0.1,2.2,0.2,3.7c3.7-3.3,7-6.5,10.5-9.4s7.3-5.4,10.9-8.1
			c0.1,0.2,0.3,0.4,0.4,0.5c-0.2,0.4-0.4,0.9-0.7,1.2c-6,5.8-11.9,11.7-18,17.4c-0.8,0.8-2.1,1.3-3.3,1.5c-2.5,0.5-3,1.1-1.9,3.4
			c3.5,7.4,6.7,8.9,14.5,7.6c-0.1-0.5-0.1-1-0.2-1.5c-0.8-2.2-0.1-3.9,1.8-5.2c1.8-1.3,3.4-2.7,5.1-4c3-2.3,6-4.6,9-6.8
			c0.2,0.2,0.4,0.4,0.6,0.6c-4,4.5-8.1,9-12.1,13.5c0.1,0.1,0.1,0.2,0.2,0.3c4.2-2.6,8.3-5.1,12.8-7.9
			C305.3,464.6,304.6,467.3,303.7,470.4z M124.2,277.1c0.2-3.5,0.3-6.7,0.6-9.8c0.1-1.1,0.6-2.2,1.2-3.1c1.9-2.8,4.1-5.4,5.7-8.3
			c4-7.2,8.5-14,13.8-20.3c8-9.5,15.9-19.2,23.9-28.7c4.5-5.4,9.1-10.6,11.4-17.6c1.5-4.5,4.3-8.5,6.7-13c-0.7,0.5-1.4,0.7-1.8,1.2
			c-2.1,2.1-4.3,4.1-6.2,6.3c-8.4,10.3-16.7,20.6-25,30.9c-3.9,4.8-7.9,9.5-11.5,14.5c-9,12.4-15.7,26.3-23.1,39.7
			c-1.2,2.2-2.2,4.6-3,6.9c-2.3,6.7-4.4,13.4-6.7,20.1c-0.2,0.5-0.3,1.1-0.5,1.8c3.3-1.5,3.4-4.5,4.3-7.1c1.4,0.9,2.6,1.7,4.2,2.6
			c-0.1-2.1-0.2-3.7-0.3-5.8c-1.2,1.1-2.1,1.8-3.5,3c2-5.2,3.8-9.8,5.6-14.5C121.6,276.3,122.8,276.7,124.2,277.1z M118.4,320.1
			c-0.3-2.6-1.1-5.2-0.8-7.6c0.4-2.5,1.8-4.8,2.8-7.2c0.1-0.1,0.1-0.3,0.2-0.4c3.4-7.8,6.7-15.6,10.1-23.4c0.9-2.1,1.9-4.2,3.1-6.1
			c1.5-2.6,3.6-4.9,4.9-7.6c4.8-9.7,10.8-18.5,17.2-27.1c0.5-0.6,1.1-1.4,1.7-1.5c3.1-0.6,4-2.8,4.3-5.4c0.2-1.4,0.8-2.3,2.3-2.3
			c1.7,0,2.6-1,3.2-2.4c1.9-4.8,5.1-8.8,8.5-12.7c2.7-3,5.5-5.9,4.2-10.4c-0.2-0.8-0.3-2-0.8-2.2c-1.2-0.6-2,0.3-2.7,1.4
			c-1.5,2.4-3,4.9-4.9,7.1c-3.9,4.6-8,9-11.9,13.7c-2.3,2.7-4.6,5.6-6.5,8.6c-5.6,8.8-11.1,17.7-16.4,26.7
			c-3.2,5.4-6.2,10.9-8.9,16.5c-1.4,2.9-1.9,6.2-3.3,9.1c-2.7,5.4-5.9,10.6-6.1,16.9c0,0.5-0.3,1-0.5,1.4c-3.7,8.9-6.7,18.1-9,27.4
			c-0.1,0.5-0.2,1-0.4,1.5c5.1-4.4,5-11,7.6-16.6C117.1,318.2,117.8,319.2,118.4,320.1z M110,270.3c0.3,0.1,0.5,0.2,0.8,0.3
			c1.7-3.1,3.5-6.1,5.2-9.3c2.3-4.5,4.2-9.3,6.9-13.7c13.7-22.9,30.7-43.3,47.4-63.9c7.4-9,15.3-17.7,20.1-28.5
			c0.3-0.6,0.5-1.2,0.8-1.8c-0.2-0.1-0.3-0.2-0.5-0.4c-1.1,1.1-2.6,2.1-3.4,3.4c-4.6,7.4-10.7,13.3-16.5,19.7
			c-7,7.8-14,15.6-21,23.4c-0.4,0.4-0.7,0.9-1,1.4c-1.7,2.5-3.5,4.9-5.2,7.4c-1.3,1.8-2.7,3.6-3.8,5.5c-2.4,3.9-4.6,7.8-6.9,11.7
			c-1.7,2.9-3.4,5.8-5.2,8.7c-2.2,3.6-4.3,7.3-6.9,10.6c-4.6,5.9-7.6,12.5-9.6,19.6C110.5,266.3,110.4,268.3,110,270.3z
			 M121.2,334.5c0.7-1.1,1.3-1.9,1.7-2.8c1.2-3.2,2.4-6.5,3.3-9.8c2.6-9.6,7.5-18.2,12.1-26.9c2.2-4.1,4-8.3,6-12.4
			c1.4-3,2.6-6.1,4.4-8.9c5.1-8,10.3-16,15.9-23.7c5-6.9,10.4-13.4,15.8-20c2.3-2.7,2.7-5.8,2.6-9.1c0-0.6-0.6-1.2-1-1.8
			c-0.6,0.4-1.3,0.7-1.6,1.2c-1.8,2.4-3.3,5.1-5.2,7.4c-13.3,16.9-25.4,34.6-35.9,53.3c-4.5,8.1-8.5,16.4-10.4,25.5
			c-1.5,7.2-3.8,14-7.2,20.5C120.5,329.4,120.1,331.7,121.2,334.5z M229.7,444.2c0.6,3.4,1.6,7.1,3.7,10.3c0.4,0.6,1.4,0.9,2.2,1
			c4,0.8,7.5-0.5,10.9-2.4c4.7-2.6,9.4-5.3,14-8.1c4.2-2.5,5-5.2,2.7-9.6c-0.7-1.4-1.5-2.8-2.5-4c-0.7-0.9-1.8-1.6-2.9-2
			c-2.3-0.9-4.9-1.4-7.1-2.5c-4.8-2.5-9.3-2.6-14.1,0.1c-1.4,0.8-3,1.1-4.4,1.7c-0.5,0.2-1.2,0.7-1.3,1.2c-0.7,2.4-1.3,4.8-2,7.9
			c3.8-1.6,7-3,10.8-4.7c-2.8,3.3-5.2,6.1-7.6,9c0.2,0.2,0.3,0.4,0.5,0.6c2.8-1.9,5.7-3.7,8.5-5.6c3.3-2.1,6.6-4.1,9.9-6.2
			c0.2,0.3,0.4,0.5,0.6,0.8c-4.2,4.6-8.4,9.3-12.7,13.9c7.6-0.8,12.7-6.4,19.6-9.4c-0.3,0.9-0.3,1.8-0.8,2.2
			c-5.8,4.8-11.7,9.4-17.9,14.3C236.4,449.8,233,447,229.7,444.2z M155.3,291.6c0.5-2.4,0.4-4.8,1.4-6.6c2.7-4.8,5.8-9.4,8.9-14
			c3.2-4.8,6.5-9.5,9.8-14.2c0.8-1.2,1.6-2.5,2.6-4.1c0.7,2.1,1.3,3.8,2,5.9c0.5-2.7,0.8-4.9,1.3-7c0.7-3.1,1.6-6.1,2.2-9.2
			c0.1-0.7-0.4-1.7-1-2.2c-0.2-0.2-1.5,0.2-1.9,0.6c-4.1,5.8-8.1,11.7-12.3,17.5c-3.6,5-7.3,10-10.9,15c-1.5,2.1-2.9,4.4-4.2,6.7
			c-2.7,5.2-5.2,10.6-7.9,15.8c-3.2,6.1-6.6,12.1-9.7,18.3c-1,2.1-1.3,4.5-1.9,6.8c-0.8,3-1.4,6.1-2.2,9.1c-0.8,3-2.2,5.8-2.6,8.9
			c-0.9,6.5-1.4,13-3.4,19.3c0,0.1,0.1,0.4,0.4,1.3c0.9-1.4,1.7-2.3,2-3.3c0.6-2.4,1.1-4.8,1.4-7.2c1.7-11.7,5.2-22.8,10.5-33.4
			c3.5-6.9,6.9-13.9,10.4-20.9C151.4,292.5,152.8,290.9,155.3,291.6z M106.1,249.8c0.3,0.2,0.5,0.5,0.8,0.7c1.1-0.9,2.5-1.6,3.2-2.8
			c5.4-9.5,10.5-19.1,17-28c3-4.1,5.7-8.5,8.3-12.8c1.9-3.1,3.1-6.6,5.2-9.4c5.9-7.8,12.1-15.4,18.4-22.9
			c8.4-10,19.2-17.8,27.6-27.9c1.5-1.8,1.7-3.6,1.2-5.8c-2.2,1.6-4.3,3.3-6.2,5.1c-1.7,1.6-3.3,3.4-4.9,5.1c-2.4,2.5-4.8,5-7.1,7.5
			c-3.6,4-7.2,8-10.8,12c-6.1,6.8-12.3,13.5-18.3,20.4c-1.4,1.5-2.3,3.5-3.5,5.2c-1.6,2.4-3,4.9-4.7,7.2c-3.2,4.1-6.3,8.2-7.9,13.2
			c-0.3,1-1.3,1.9-2,2.7c-1.3,1.6-3,2.9-3.9,4.7c-2.9,5.5-5.6,11-8.2,16.6C108.6,243.6,107.4,246.7,106.1,249.8z M156.5,145.9
			c-3-1.2-4.6-0.3-6.2,1.2c-2.6,2.5-5.4,5-8,7.5c-3.9,3.8-8.3,7.3-11.5,11.6c-9.2,12.4-18,25.1-26.8,37.8
			c-8.5,12.1-14.6,25.4-20.2,39c-0.3,0.6-0.4,1.3-0.6,2c0.7-0.5,1.2-1.1,1.6-1.8c3.5-6,7.1-12,10.4-18.1c2.7-4.9,5-9.9,7.5-14.8
			c0.6-1.1,1.4-2.2,2.1-3.2c2.4-3.2,4.9-6.2,7.2-9.4c2.7-3.8,5.3-7.7,8.1-11.4c1.5-1.9,3.4-3.4,5.2-5.1c0.9,1,1.6,1.7,2.7,2.8
			c-0.3-1.5-0.4-2.4-0.8-3.2c-0.9-1.9-0.3-3.3,1-4.8c4-4.9,7.6-10.2,11.7-14.9c3.1-3.6,6.8-6.7,10.2-9.9
			C152.1,149.3,154.1,147.8,156.5,145.9z M134.6,370.9c0.3,0.1,0.5,0.1,0.8,0.2c0.7-1.7,1.5-3.3,1.9-5c1.7-7.2,3.6-14.4,4.9-21.7
			c2.1-12.2,8.6-22.8,12.5-34.4c3.4-10,9.4-18.8,15.4-27.4c4.4-6.2,9.2-12.2,13.7-18.3c0.4-0.6,0.4-1.5,0.6-2.2c-1-0.1-2-0.3-3-0.3
			c-0.3,0-0.6,0.4-0.8,0.7c-4,5-8.3,9.8-11.8,15.2c-3.9,6-7,12.5-10.4,18.9c-0.9,1.6-1.7,3.1-2.5,4.8c-2.7,5.5-5.5,10.9-8,16.5
			c-5.2,11.6-8.1,23.9-10.7,36.3c-0.9,4.4-1.6,8.9-2.3,13.4C134.6,368.5,134.7,369.7,134.6,370.9z M107.1,157.9
			c-8.3,10.7-16.8,21.2-21.7,34.1c1.4-0.9,2.4-2.2,3.5-3.5c4.7-5.9,9.4-11.8,14.2-17.7c1.5-1.8,3.1-3.6,4.8-5.2
			c2.5-2.4,5.4-4.6,7.7-7.2c0.9-1,1.1-3,0.8-4.4c-0.1-0.6-2.3-0.8-3.6-0.9c-0.6,0-1.4,0.5-1.8,1.1c-2,2.5-4.8,2.8-7.7,3.1
			c-3.5,0.4-7.1,1.2-10.5,2.3c-2.8,0.9-4.6,3-5,6.2c-0.2,1.4-0.9,2.9-1.7,4.1c-1.8,2.8-3.9,5.4-5.8,8c-1.1,1.5-2.3,3-3.5,4.6
			c0.5,0.1,0.6,0.1,0.7,0.1c4.6-3.4,9.5-6.6,12.3-11.8C93.6,163.8,99.5,159.8,107.1,157.9z M95.2,250.8c0.2,0.1,0.5,0.2,0.7,0.4
			c2-3.6,4.3-7.1,5.8-11c3.7-9.3,8-18.2,13.7-26.4c5.1-7.3,10-14.8,15.1-22.1c6.2-8.7,12.5-17.3,18.8-25.8c1.9-2.5,4.1-4.7,6.2-7.1
			c-0.1-0.2-0.3-0.4-0.4-0.6c-1.6,1-3.6,1.6-4.8,2.9c-3.2,3.6-6.1,7.4-9.1,11.1c-0.5,0.6-0.9,1.3-1.5,1.9c-1.7,1.9-3.7,3.6-5.2,5.7
			c-7.4,10.9-14.7,21.9-22.1,32.8c-6.8,10-11.9,21-17.5,31.7C94,246.6,94.6,248.6,95.2,250.8z M140.4,382.9c0.2,0.1,0.4,0.3,0.6,0.4
			c0.7-0.8,1.8-1.5,2.1-2.4c0.7-1.7,1.1-3.6,1.4-5.4c0.8-4.2,1.3-8.6,2.4-12.7c1.4-5,3.4-9.8,5.1-14.7c0.8-2.4,2-4.7,2.3-7.2
			c0.6-5.5,2.4-10.5,4.9-15.3c7.9-14.9,16-29.8,24-44.7c0.4-0.7,0.7-1.3,1.1-1.9c-0.2-0.2-0.4-0.4-0.6-0.6c-1.1,1-2.5,1.8-3.3,2.9
			c-1.9,2.7-3.5,5.6-5.1,8.5c-1.7,3-3.2,6.1-5.2,9c-7.2,10.4-12.6,21.8-16.3,33.7c-5.1,16.2-9,32.9-13.4,49.3
			C140.4,382.2,140.5,382.5,140.4,382.9z M186.6,295.1c-5.2,2.2-7.2,3.9-9.5,7.9c-1.3,2.3-2.5,4.6-3.5,6.9
			c-2.2,5.5-4.3,11.1-6.5,16.7c-1.2,3.1-2.7,6-3.9,9.1c-1.9,5.1-3.5,10.3-5.5,15.4c-1.4,3.6-1.5,7.2-0.7,11.2
			c0.3-0.4,0.5-0.6,0.5-0.8c2.9-9.4,5.9-18.8,8.8-28.2c0.4-1.3,0.8-2.5,2.5-2.4c1.4,0.1,1.5-0.8,1.8-1.9c1.4-4.5,2.8-8.9,4.5-13.3
			c1.5-3.9,3.8-7.3,6.7-10.4c0.8,1,1.5,1.8,2.1,2.6c0.3,0,0.5-0.1,0.8-0.1C185.3,303.7,185.9,299.6,186.6,295.1z M228.9,178.9
			c0.7-1.2,1.3-2.2,1.8-3.3c2-3.9,4.5-7.3,8.4-9.6c1.2-0.7,2.2-1.8,3.2-2.9c2.3-2.3,4.5-4.8,6.9-7.1c0.9-0.9,2.4-1.5,3.6-1.6
			c2-0.2,3.2-1.1,4-2.8c0.5-0.9,1-1.7,1.5-2.6c0.7-1.5,1.8-2.2,3.5-1.8c1.7,0.4,2.8-0.3,3.5-1.7c0.6-1.1,1.3-2.2,2.1-3.5
			c-3.4-0.7-6.5-1.4-9.6-2c-1.4-0.3-2,0.5-1.5,1.7c1.1,2.6,0.1,4.1-2,5.5c-1.1,0.7-2.1,1.7-3.2,2.6c-5.1,4.1-10.1,8.3-13.9,13.8
			c-1,1.4-2.6,2.5-4,3.5c-3.6,2.4-5.6,6-8,9.5C226.6,177.5,227.6,178.1,228.9,178.9z M248.1,124.3c0.9-2.8,1.7-5.1,2.5-7.4
			c-1.7,1.6-3,3.4-4.6,4.9c-0.6,0.6-1.7,1.2-2.6,1.1c-4.1-0.4-8.1-0.9-12.2-1.4c-3.7-0.5-7.3,0.5-10.9,1.5c0.9,0.5,1.8,0.8,2.8,0.9
			c6.9,0.4,13.8,0.5,20.7,1.2c8.9,0.9,17.8,2.4,26.7,3.7c2.5,0.4,5,0.8,7.4,1.3c2.2,0.4,2.8,1.3,2.1,3.5c-0.3,1.1-0.9,2.1-1.5,3.6
			c3.4,0.6,6.8,1.3,10.1,1.9c0-0.2,0.1-0.4,0.1-0.5c-1.3-0.8-2.8-1.5-3.9-2.6c-0.7-0.6-1.2-1.8-1.1-2.7c0-0.5,1.3-1.1,2.1-1.3
			c1.6-0.3,3.2-0.4,4.9-0.6c0-0.3,0-0.5,0.1-0.8C276.5,128.8,263,123.3,248.1,124.3z M252.5,479.7c0.4-1.7,0.6-3.3,1.1-4.8
			c0.8-2,2.2-2.2,3.6-0.6c0.8,1,1.6,2.1,2.2,3.2c3.6,5.8,8.7,9.7,15.1,11.9c3.1,1.1,6.2,1.9,7.6,4.6c3.2-0.5,6-1.2,8.9-1.2
			c3.4-0.1,4.8-1.9,5.6-4.6c-4.2,0.2-8.5,0.5-12.7,0.5c-4.7,0-9.1-1.1-12.9-4.2c-2.6-2.1-5.4-3.8-8.1-5.8c-0.8-0.6-1.4-1.6-1.7-2.5
			c-0.9-2.9-1.7-5.9-2.7-9.7c-3.8,3.9-7.2,7.4-11,11.2C249.7,478.6,251.1,479.2,252.5,479.7z M99.5,189.1c3.1,1.3,3.9,1,5.3-1.8
			c0.2-0.3,0.3-0.7,0.5-1c5.9-10.1,12.1-19.9,21.3-27.5c1.5-1.2,2.5-3,3.9-4.2c1.6-1.4,3.4-2.5,5.1-3.7c0.5-0.4,1.6-0.8,1.6-1
			c-0.3-0.9-0.7-1.9-1.3-2.6c-0.2-0.2-1.2,0.1-1.7,0.4c-1.8,1-3.4,2.4-5.2,2.9c-2,0.6-3,1.7-3.7,3.5c-1.6,4.3-4.7,7.4-7.6,10.9
			c-0.7-1.5-1.2-2.6-2-4.2C112.7,172,104.8,179.8,99.5,189.1z M187.3,315.4c-1.8,0.2-3.5-0.5-4.5,1.3c-1.3,2.6-2.8,5.2-4,7.9
			c-2.7,6.2-5.6,12.3-7.8,18.7c-2.1,6.2-3.4,12.7-5,19.1c-0.1,0.4-0.1,0.7-0.2,1.2c2.9-1.4,3.5-4.1,4.2-6.6c0.8-2.5,1.6-5.1,2.5-7.6
			c0.6-1.7,1.4-3.3,1.8-5c1.6-6.3,3.8-12.5,7.7-17.7C184.6,323.3,186,319.6,187.3,315.4z M228.9,159c-0.2-0.2-0.4-0.3-0.6-0.5
			c-2.7,2.5-5.6,4.8-8,7.6c-4.5,5.3-8.7,10.9-13.2,16.2c-2.7,3.2-4.8,6.8-6.5,10.6s-4.1,7.2-6.2,10.8c-0.2,0.3-0.5,0.7-0.7,1
			c0.1,0.2,0.2,0.3,0.4,0.5c0.6-0.4,1.4-0.7,1.9-1.2c1.2-1.4,2.2-3,3.3-4.5c5.3-7.5,10.6-15.1,15.9-22.6c0.6-0.8,1.4-1.6,2.5-2.8
			c0.7,2.1,1.2,3.7,1.7,5.4c0.2-0.8,0.4-1.6,0.4-2.3c0.1-4.6,1.7-8.5,4.9-11.9c1.2-1.3,2.2-2.8,3.2-4.3
			C228.3,160.4,228.6,159.7,228.9,159z M267.4,468.1c-1,2.3-0.3,3.8,1.1,5c3.2,2.7,6.4,5.3,9.6,8c2.5,2.1,5.3,3.1,8.5,3.4
			c2.6,0.3,5.1,0.6,7.7,0.9c0.7,0.1,1.7,0.1,2-0.3c2-2.3,3.2-5.1,4.2-8.5c-1.2,0.4-2,0.7-2.9,0.8c-4.4,0.8-8.9,1.6-13.3,2.3
			c-0.7,0.1-1.5,0-2.1-0.3c-2.5-1.3-5-2.6-7.3-4.1c-1.9-1.3-3.7-2.9-5.4-4.4C268.7,470.2,268.2,469.2,267.4,468.1z M200.1,173.9
			c0.2,0.3,0.4,0.6,0.6,1c1.1-0.6,2.4-1,3.2-1.9c4.7-4.8,9.2-9.7,13.8-14.5c1.1-1.2,2.2-2.6,3.5-3.5c5.4-3.8,9.5-8.9,13.7-13.9
			c0.4-0.5,0.7-1,1.1-1.6c-3.2-1.2-5-0.8-7,1.6c-0.7,0.9-1.2,2-1.9,2.9c-3.9,4.5-7.3,9.6-11.9,13.2
			C209.1,162,205.6,168.8,200.1,173.9z M108.4,269.9c-1.4,2.2-3,4.1-3.8,6.3c-2.4,7-4.5,14.1-6.5,21.1c-1,3.4-1.6,7-2.6,10.4
			c-1.1,3.7-0.7,7.4-0.1,11.1c1.2-4,2.1-7.9,3-11.9c2.1-9.3,4.1-18.7,9.2-27c0.8-1.3,1.2-2.7,1.8-4.2
			C110,273.8,109.9,272,108.4,269.9z M217.6,499.2c3.5-0.4,6.4,0.2,8.5,3.2c-2.6,0.4-5.5,1.2-7.9,0.5c-3.4-0.9-6.4-3-9.6-4.6
			c2.6,6.5,9.5,7.9,14.4,11.9c3.5-4.3,4.8-9,5-14.3c-3.3-0.9-6.5-1.7-9.9-2.6C217.9,495.4,217.8,497.1,217.6,499.2z M212.5,139.4
			c1.3,3.3,0.5,5.8-1.3,8c-2.8,3.3-5.7,6.6-8.8,9.7c-2.4,2.4-4.1,5-5.3,8.2c0.7-0.4,1.3-0.9,1.9-1.5c5.3-4.9,10.5-9.8,15.8-14.7
			c1-0.9,2-1.9,3.2-2.5c2.8-1.4,3.4-4,4.6-6.6C219.2,139.8,216.2,139.6,212.5,139.4z M318,544.9c1.1-1.5,1.8-2.5,2.4-3.4
			c1.8-3,1.6-4-1.7-5c-4.9-1.4-9-4.2-12.7-7.5c-1.4-1.3-2.9-2.5-4.3-3.7c-0.3,0.2-0.5,0.3-0.8,0.5c0.7,1.5,1.2,3.4,2.3,4.5
			C308,535.1,312.9,539.8,318,544.9z M239.8,474.7c0.6-1.5,1.2-3.2,1.9-5.2c-7.1-0.2-13.1-2.9-19.2-5.5c-2.5-1-3.3-0.5-3.7,2.3
			c1.7,1.2,3.3,2.7,5.2,3.4C229,471.5,234.3,473,239.8,474.7z M338.9,159.9c0.3-0.1,0.6-0.2,0.9-0.3c-0.4-1.3-0.3-3.1-1.1-3.9
			c-2.7-2.3-5.6-4.5-8.8-6.2c-5.1-2.7-9.5-5.7-9.9-12.1c0-0.5-0.2-0.9-0.4-1.5c-2,1.7-0.9,3.8-0.9,5.9c-2-0.8-3.8-1.5-5.7-2.3
			c4.3,4.6,8.8,8.7,14.3,11.7c2.9,1.6,5.6,3.7,8.3,5.7C336.8,157.7,337.8,158.9,338.9,159.9z M229.4,157.2c0.2,0.2,0.4,0.3,0.6,0.5
			c4.4-3.4,8.8-6.9,13.3-10.3c2.4-1.8,5-3.4,7.4-5.2c0.6-0.4,0.9-1.2,1.1-1.9c0-0.1-0.7-0.8-1-0.8c-2.6,0.1-5.3-0.2-7.3,1.9
			C238.7,146.7,234.1,151.9,229.4,157.2z M345,86.5c-1.5-0.6-2.4-1-3.4-1.4c1.5,2,3.3,3.7,5.3,5c0.8,0.5,2.3,0.2,3.4-0.1
			c0.3-0.1,0.5-1.8,0.2-2.5c-1.2-2.5-2.1-5.3-4-7.3c-3.5-3.8-5.9-8.1-7.1-13.1c-0.1-0.6-0.4-1.1-0.7-2C337.6,73.2,343.5,79,345,86.5
			z M80.5,230.3c1.5-7,4.5-13.3,8.5-19.2c2.6-3.9,5.3-7.9,7.9-11.9c0.5-0.7,0.8-1.6,1.2-2.4c-2.2-1-3-0.7-4.2,1.4c-1.7,3-3.4,6-5,9
			c-3,5.6-5.9,11.3-8.8,17C79.1,226.3,79.4,228.3,80.5,230.3z M196.6,218.8c0.1,0.2,0.3,0.3,0.4,0.5c0.7-0.3,1.6-0.4,2.2-0.9
			c0.6-0.6,1-1.5,1.5-2.4c0.5,0.9,1,1.6,1.5,2.4c0.4-6.5,3.6-11.6,7-16.8c1-1.5,2-3,2.8-4.6c0.3-0.5,0.1-1.3,0.2-1.9
			c-0.6,0.3-1.4,0.4-1.7,0.8c-1.6,2-2.8,4.2-4.5,6.1C201.4,206.8,199.8,213.2,196.6,218.8z M360.2,58.5c-0.2,0.2-0.5,0.4-0.7,0.6
			c2.7,8.9,8.8,15.9,13.8,23.6c0.3-3.7,1-7.3-0.4-11.3c-1.2,1.1-2.1,1.9-3,2.8c-0.5-0.9-0.9-1.6-1.3-2.4c-2-3.6-4-7.3-6.1-10.9
			C361.9,60,361,59.3,360.2,58.5z M251,460.6c-1.9-0.2-3.6-0.5-5.4-0.6c-3.9-0.1-7.9-0.2-11.8-0.2c-0.5,0-1.3,0.4-1.4,0.7
			c-0.1,0.6,0,1.5,0.4,2c0.5,0.5,1.3,0.8,2.1,1c3.6,0.8,7.2,1.6,10.9,2.4c0.5,0.1,1.4,0,1.7-0.3C248.7,463.9,249.8,462.2,251,460.6z
			 M427.9,425.7c-4.5,1.5-9.1,1.5-12.9,4.2c-1.1,0.8-2.3,1.4-3.6,1.7c-2.4,0.6-2.6,0.8-1.8,3c2-0.4,4-0.9,6-1.3
			c2.5-0.5,5-0.7,7.4-1.3C426.1,431.2,427.9,429,427.9,425.7z M359.9,46.1c4.3,6.8,8.6,13.4,12.8,20.1c0.3-0.1,0.6-0.3,1-0.4
			c-0.6-2.5-0.7-5.2-1.9-7.3c-2.2-3.9-4.9-7.6-7.5-11.3C363.2,45.9,361.9,45.4,359.9,46.1z M54.1,78.5c-0.1-0.3-0.3-0.7-0.4-1
			c-2.8,1-5.7,1.9-8.5,2.9c-3.2,1.2-6.4,2.4-9.6,3.7c-0.5,0.2-1.2,0.5-1.3,0.9c-0.7,2.4-1.3,4.8-1.9,7.3c0.2,0.1,0.4,0.1,0.6,0.2
			c0.2-0.2,0.5-0.3,0.6-0.5c2-3.7,5.7-5.3,9.1-7.1C46.5,82.7,50.2,80.6,54.1,78.5z M230.6,488.4c-2.1-1.8-4.1-3.4-6-5
			c-0.1-0.1-0.4-0.2-0.6-0.2c-2,0-4,0-6.4,0c0.5,1.2,0.7,2.9,1.7,3.8c2.9,2.4,6.1,4.4,9.3,6.7C229.5,491.6,230.1,489.8,230.6,488.4z
			 M220.2,47.1c-0.2,0.1-0.3,0.2-0.5,0.3c0.3,1.5,0.2,3.3,0.9,4.5c2.4,4,6.4,6.4,9.7,9.8c1.2-2.7,2.1-5.2,0-7
			C227.2,51.9,223.6,49.6,220.2,47.1z M284.1,66.4c-4.1-6.1-9.2-10.5-14.2-15.2c0.9,2.7,2.1,5.3,3.6,7.7c0.9,1.6,1.2,2.8-0.1,4.2
			c-0.3,0.3-0.4,0.7-0.6,1C276.4,64.8,279.9,65.6,284.1,66.4z M179.2,359.6c2.2-5.2,4.6-10.9,7-16.6c0.6-1.5,1.2-2.9,1.6-4.5
			c0.2-0.6-0.2-1.3-0.3-1.9c-0.7,0.2-1.6,0.1-2.2,0.5c-0.6,0.5-1.1,1.4-1.4,2.1c-1.2,2.8-2.2,5.6-3.4,8.4
			C179,351.7,178.4,355.9,179.2,359.6z M196.4,493.9c3,1.1,4.7-0.6,6.6-1.7c2-1.2,3.8-2.5,5.7-3.9c2.4,2.2,4.6,4.3,7,6.6
			c0.9-4,0.9-4-2.3-5.7c-1.8-0.9-3.4-1.8-3.2-4.3c0-0.4-0.5-1.1-0.9-1.2c-1.8-0.5-3.8,0.8-4.2,2.7c-0.4,2-1.4,3.3-3.3,4.1
			C200.1,491.4,198.5,492.6,196.4,493.9z M254.7,31.1c-0.2,0.1-0.3,0.3-0.5,0.4c4.4,6.7,8.8,13.4,13.3,20.3c1.4-1.4,1.9-2.6,1.1-4.1
			c-1-1.9-1.9-3.9-3.2-5.6c-2.8-3.4-5.8-6.5-8.8-9.7C256.1,31.9,255.4,31.6,254.7,31.1z M180.9,479.2c0.1,0.7,0.1,1,0.2,1.2
			c2.4,4.7,4.8,9.5,7.2,14.2c0.2,0.4,0.8,0.8,1.2,0.7c0.8-0.1,1.9-0.3,2.2-0.9c0.3-0.5,0.1-1.7-0.4-2.3c-3.3-3.9-6.7-7.7-6.7-13.2
			c0-0.4-1.3-1.3-1.8-1.1C182.1,478,181.4,478.8,180.9,479.2z M410.1,425.8c2.1,0.4,3.7,0.7,5.5,1.1c0.1-0.3,0.4-0.6,0.3-0.8
			c-0.4-2.7,1.5-3.6,3.6-4.2c3-0.9,6-1.9,9-2.7c1.4-0.4,1.8-1.3,1.4-2.4c-0.3-0.6-1.3-1-2.1-1.2c-0.6-0.1-1.4,0.2-2.1,0.5
			c-4.5,2.4-9,4.9-13.5,7.5C411.5,424,410.9,424.9,410.1,425.8z M172.4,140c-4.9,4.6-9.7,9.1-14.5,13.7c-0.6,0.6-1,1.5-1.4,2.3
			c0.2,0.2,0.4,0.4,0.6,0.6c1.1-0.5,2.3-0.9,3.3-1.7c3.8-3.1,7.5-6.2,11.2-9.5C173.9,143.3,173.9,142.8,172.4,140z M210.5,449.8
			c-0.2-0.2-0.5-0.4-0.7-0.7c-3.5,2.4-7.1,4.7-10.5,7.2c-2.6,1.9-2.6,2.5-1.5,5.9c0.9-1.2,1.7-2.3,2.5-3.3c1.2-1.5,1.9-1.4,2.7,0.3
			c0.4,0.8,0.9,1.6,1.4,2.4c0.2-0.1,0.5-0.2,0.7-0.2c0-2.6,0-5.3,0-8.2c1.6,1.1,3,1.9,5.1,3.2C210.3,453.9,210.4,451.8,210.5,449.8z
			 M59.6,53.4c-0.4,3.5-0.7,7.1-1.1,10.8c3.9-0.8,8.1,0.1,12.2-2.9C66,59.5,61.1,58.7,59.6,53.4z M351.3,51.1
			c0.3-0.1,0.5-0.2,0.8-0.2c-0.4-1.9-0.5-4-1.4-5.6c-2.9-5.3-6.2-10.4-9.3-15.5c-0.1-0.2-0.3-0.3-0.6-0.5
			C341.1,34.1,347.1,46.4,351.3,51.1z M276,135.6c-1.8-1.6-20.1-4.1-26-3.6C252.1,134.7,271.9,137.4,276,135.6z M212.3,419.8
			c-1.9,1.3-3.7,2.5-5.6,3.9c2.8,2.4,5.2,4.7,7.8,6.6c0.6,0.5,2.1,0.3,2.9-0.1s1.3-1.4,1.9-2.2c-0.8-0.6-1.5-1.5-2.4-1.6
			c-3.6-0.6-4.8-2.6-4.4-6C212.5,420.3,212.5,420.2,212.3,419.8z M195.8,151.9c2.2-2,4.3-3.8,6.4-5.6s4.3-3.5,6.4-5.2
			c-0.2-0.3-0.3-0.6-0.5-0.9c-3,0.5-6,1-9,1.5c-0.3,0.1-0.8,0.5-0.9,0.8C197.4,145.5,196.6,148.6,195.8,151.9z M329.4,399.4
			c-0.2,0.8-0.4,1.6-0.5,2.4c-0.6,4.2-1.1,8.4-1.7,12.6c-0.4,2.6-0.7,5.3,0.4,7.5c1.2-4.5,2.1-9.3,3.9-13.8
			C332.8,404.6,331.5,402.1,329.4,399.4z M352.8,77.6c2.3-4.2,2.1-4.7-0.7-8.2c-2.1-2.5-3.8-5.2-5.7-7.8c-0.4-0.6-0.8-1.2-1.5-2.1
			C344.9,63.7,347.4,69.2,352.8,77.6z M88.8,290.7c2.7-0.7,7.9-14.2,7.3-19.7c-1.3,1.5-2.9,2.9-3.4,4.7
			C91.2,280.6,90.1,285.6,88.8,290.7z M236.3,478.9c-4.7-1.1-9-2-13.5-3c0.8,4,1.2,4.4,4.8,4.6c1.9,0.1,3.3,0.8,3.9,2.8
			c0.1,0.4,0.4,0.7,0.7,1.2C233.5,482.7,234.7,481.1,236.3,478.9z M109.1,299.5c-3.9,3.8-6.1,13.6-4,18.2c1.7-5.1,3.1-10.4,4.4-15.6
			C109.7,301.5,109.3,300.7,109.1,299.5z M300.5,547.9c-0.1,0.1-0.3,0.2-0.4,0.3c0.3,0.8,0.4,1.7,0.9,2.3c1.9,2,3.8,4.1,5.9,5.9
			c2.1,1.8,5,2.9,4.9,6.8c1.9-2.9,2.1-4.9,0.6-6.1C308.6,553.9,304.6,550.9,300.5,547.9z M348.2,150c0.1-0.2,0.3-0.3,0.4-0.5
			c-1.5-4.8-6.3-6.3-9.4-9.5c-3.2-3.3-7.3-5.8-11-8.7c-0.1,0.1-0.2,0.3-0.4,0.4c2,3.4,4.8,6.3,8.3,8.1c3.1,1.6,5.3,4,7.6,6.4
			c0.7,0.8,1.4,1.6,2.2,2.3C346.7,149.2,347.5,149.6,348.2,150z M386,51c0.6-0.7,1.6-1.7,2.3-2.8c0.3-0.4,0.4-1.3,0.1-1.8
			c-1.8-3-3.7-6-5.6-8.9c-0.3-0.4-1.2-0.4-1.8-0.6c-0.1,0.6-0.4,1.4-0.2,1.9C382.6,42.9,384.3,46.9,386,51z M121.8,336.7
			c-1.3,1.2-3,2-3.3,3.2c-1.2,4.7-2.1,9.5-3.1,14.3c2.1,0,2.9-0.8,3.3-2.5C119.7,346.9,120.7,342.2,121.8,336.7z M379.6,50.9
			c-0.2,0.1-0.5,0.2-0.7,0.3c1.6,3.5,3.1,7,4.8,10.5c0.6,1.1,1.3,2.8,3,1.8c1.5-0.8,2-2.5,1.4-4.1c-0.3-0.8-1.1-1.6-1.9-1.9
			C382.9,56.4,380.9,54.1,379.6,50.9z M301.7,536.9c-0.2,0.2-0.4,0.5-0.7,0.7c3.2,4.7,7.3,8.4,11.8,11.7c0.4,0.3,1.5-0.2,2.2-0.4
			c-0.1-0.7,0-1.7-0.4-2c-1.1-0.9-2.5-1.4-3.6-2.3c-2.1-1.6-4.2-3.4-6.3-5.1C303.7,538.7,302.8,537.8,301.7,536.9z M146.5,36.5
			c0.6,6.8,5.5,9.1,10.3,11.6C155.4,42.6,150.5,40.2,146.5,36.5z M134.7,439.3c0.1-4.6,1.8-7.4,6.5-8.3c1.7-0.3,2-1.9,1.5-4.2
			c-4,2.7-7.7,5.2-11.5,7.7C132.5,436.2,133.6,437.7,134.7,439.3z M295.9,131.3c-0.2,0.2-0.4,0.4-0.6,0.6c0.8,1.1,1.4,2.6,2.4,3.2
			c1.9,1.1,2.9,2.6,3.7,4.6c0.3,0.8,0.7,1.5,1.1,2.3c1.9-1.6,0.6-2.8-0.2-3.8c1.5-0.3,2.9-0.6,4.3-1c0-0.3,0.1-0.6,0.1-0.9
			C303.1,134.6,299.5,133,295.9,131.3z M214.7,420c7.8-1.9,14.6-6.6,14.5-10.1C223.8,412.3,219.5,416,214.7,420z M161.3,520.7
			c2.4,3.4,4.8,6.8,7.1,10.2c1.1-3,0.1-5.6-1.3-8.2C165.2,519.3,165.1,519.3,161.3,520.7z M122.2,40.2c3,7.3,4.9,9.1,8.8,8.3
			C130.1,44.5,125.5,40.1,122.2,40.2z M359.8,18.5c-2.3,3.3-2.2,3.8-0.3,6.3c1.8,2.3,3.4,4.6,5.1,7c0.3,0.4,0.4,0.9,0.6,1.3
			c0.3-0.2,0.6-0.5,0.9-0.7C365.8,27.1,361.2,23.7,359.8,18.5z M163.4,551.7c0.3-0.1,0.5-0.2,0.8-0.3c-1.4-3.8-2.7-7.7-4.3-12
			C157.3,545.4,157.9,549.5,163.4,551.7z M104.5,49.5c0.3-0.1,0.5-0.2,0.8-0.3c-0.1-0.8,0-1.7-0.4-2.3c-0.8-1.3-1.8-2.6-2.8-3.8
			c-2-2.3-3.2-4.8-2.9-7.9c0-0.3-0.1-0.6-0.2-1.1c-2.8,4.5-2.8,4.5,0.1,8.4c0.7,1,1.4,2,2.2,2.9C102.4,46.9,103.5,48.2,104.5,49.5z
			 M243.6,136.5c-0.3-3.8,3.3-2.2,5.1-4.4c-4.3-0.5-8.1-0.9-11.9-1.3c-0.1,0.3-0.2,0.6-0.2,0.8C237.9,134.5,241.1,134.7,243.6,136.5
			z M103.8,254.5c-4.7,3.2-6.7,9-4.6,12.7c1.6-3.4,3.2-6.7,4.6-9.9C104.1,256.7,103.8,255.8,103.8,254.5z M346.1,25.1
			c-0.2,0.2-0.4,0.3-0.6,0.5c0.2,1.9,0.4,3.8,0.7,5.7c0.3,2,1.7,3,3.7,2.7c0.5-0.1,1.2-1.1,1.1-1.5c-0.7-2.1-1.6-4.2-2.6-6.1
			C348.1,25.7,346.9,25.5,346.1,25.1z M165,539.5c0.8-3.5,0.2-6.5-1.5-9.2c-0.4-0.6-1.8-0.6-2.8-0.9c-0.2,0.7-0.6,1.4-0.5,2
			C160.8,534.6,162.3,537.2,165,539.5z M256.4,454.6c0.2,0.2,0.4,0.5,0.6,0.7c4.8-4.4,9.6-8.8,14.4-13.1c-0.2-0.2-0.4-0.5-0.6-0.7
			C264.7,444.3,260.7,449.7,256.4,454.6z M192,351.2c-0.2-0.3-0.6-1.2-0.7-1.2c-0.7,0.2-1.8,0.5-2,1.1c-0.7,2.1-1.2,4.3-1.7,6.4
			c-0.2,1.1-0.3,2.5,1.1,2.5c0.7,0,2-1,2.2-1.7C191.4,356.1,191.6,353.8,192,351.2z M50.5,57.8c1.6-2.8,1.6-4.1,0.3-8.1
			c-0.4-1.4-1.1-2.1-2.7-1.4c-0.6,0.3-1.3,0.4-2.2,0.6C47.4,51.8,48.9,54.6,50.5,57.8z M216.5,191.6c1.5-1.7,2.8-3.4,4.3-5
			s3.3-2.9,2.9-6.2c-2.7,2.3-5,4.2-7.2,6.3c-0.4,0.3-0.4,1.2-0.4,1.8C216.1,189.5,216.3,190.5,216.5,191.6z M367.5,97.8
			c1.6-4.9-1.5-8.2-3.7-12.2C361.4,91.2,365.7,94.1,367.5,97.8z M420.1,409.5c0.1,0.2,0.1,0.4,0.2,0.5c2.2,0.1,4.5,0.3,6.7,0.3
			c1.5,0,2.9-1.7,2.6-3c-0.5-1.7-2.1-1.8-3.3-1.3C424.1,407,422.1,408.3,420.1,409.5z M221.2,451c-3.7,1.5-4,3.1-1.4,5.2
			c1.9,1.5,3.9,2.8,5.9,4.2c0.7-1.9,0.6-2.6-1-3.7C222.7,455.4,220.8,454,221.2,451z M209.6,461.7c-0.2,0-0.5,0.1-0.7,0.1
			c0.1,1.5-0.3,3.4,0.4,4.6c1.1,1.9,3,3.4,4.6,5.2C215.3,466.8,211.9,464.5,209.6,461.7z M208,477c-0.1,0.2-0.2,0.4-0.3,0.6
			c1.6,2,3,4.1,5.9,4.4c0.7,0.1,1.5-0.5,2.3-0.8c-0.4-0.9-0.6-2.5-1.3-2.7C212.5,477.7,210.2,477.4,208,477z M153.4,372.1
			c-0.9,2.7-1.9,5.2-2.6,7.8c-0.2,0.6,0.4,1.3,0.6,2c0.5-0.4,1.1-0.8,1.6-1.2c0.3-0.3,0.5-0.9,0.7-1.3
			C155.5,376.5,155.5,375.1,153.4,372.1z M367.6,687.5c-0.3-2-0.6-3.4-0.9-4.8c-0.1-0.7-0.5-1.2-0.8-1.9c-0.8,0.4-2,0.6-2.2,1.2
			c-0.4,1.3-0.9,3.2-0.3,4C364.1,686.9,366,687,367.6,687.5z M315.5,574.6c-0.3-1.3-0.3-2.5-0.8-3c-1.9-1.9-4-3.5-6.1-5.3
			C308.6,570.6,310.8,573.2,315.5,574.6z M213.8,33.1c1.8-1.6,3-4.9,1.9-5.9c-1-1-2.8-1.2-4.2-1.7c-0.1,0.2-0.2,0.4-0.3,0.6
			C212,28.3,212.8,30.6,213.8,33.1z M307.1,432.7c2,2.3,4,4.7,6.2,7.3C314.1,434.5,313.3,433.7,307.1,432.7z M206,133
			c5.3,1.5,7.1,1.9,8-1.3c-1.5-0.6-3-1.2-4.2-1.7C208.3,131.1,207.1,132.1,206,133z M54.4,23.7c0.9,3.2,1.8,6,2.7,9.1
			C59.8,27.5,59.2,25.3,54.4,23.7z M423.3,385.1c1.7-2.4,3.8-4.2,4.5-7c-1.2,0.3-2.3,0.8-3.3,1.3
			C421.3,381.2,421.3,381.4,423.3,385.1z M364.9,535.6c2.1-2.8,4.7-5,4.8-8.8C364.5,530.3,363.8,531.6,364.9,535.6z M370.5,42.2
			c2.1-2.8,1.3-4.8-3.6-8.4C366.6,35.7,368.6,40.3,370.5,42.2z M74.4,45.1c-1.2,2.2-0.4,5.9,1.4,7.1c0.7,0.5,1.9,0.1,3.4,0.1
			C77.4,49.6,76,47.5,74.4,45.1z M429.2,397.1c-0.1-0.1-0.3-0.2-0.4-0.3c-2.3,1.1-4.6,2.3-6.9,3.4c0,0.2,0.1,0.4,0.1,0.6
			c1.4,0.4,2.9,0.8,4.3,1.1c0.3,0.1,1-0.3,1.1-0.6C428,400,428.6,398.5,429.2,397.1z M359.1,231.5c2.1,3.4,3.9,6.4,5.8,9.6
			C366.4,238.3,362.8,232.5,359.1,231.5z M101.7,472.6c-2.6,1.9-2.7,4.3-3.8,6.5c1.4,0.4,2.6,0.8,3.8,1.1
			C101.7,477.8,101.7,475.5,101.7,472.6z M384.4,80.2c-1.8-2.5-3.4-4.8-5.1-7.2c-0.2,0.5-0.3,0.6-0.3,0.7c0.2,1.5,0.5,3,0.8,4.4
			C380.3,80.9,381,81.2,384.4,80.2z M193.5,470.1c-0.2-2.4-0.3-4.3-0.4-6.2c-2.1,0-3.6,1.3-3.6,3.6
			C189.6,469.9,191.9,469.2,193.5,470.1z M367.5,664.8c0.5,1.9,1,3.6,1.5,5.7c1.7-2.1,3-3.8,4.6-5.7
			C371.4,664.8,369.6,664.8,367.5,664.8z M142.1,138.7c-3.9,0.5-8.2-0.1-11.6,2.8C136.7,141.8,141.3,140.7,142.1,138.7z
			 M383.3,252.4c-2.1,2-2.5,4.5-1.2,6.8C385.4,258.1,385.9,255.9,383.3,252.4z M127.7,394c0.2,1.4,0.3,2.6,0.5,3.9
			c0.1,0.5,0.1,1.1,0.4,1.4c0.4,0.5,0.9,0.9,1.4,1.4c0.4-0.5,1.1-0.9,1.3-1.5C132.1,396.7,131.3,395.6,127.7,394z M195.2,482.7
			c-2-1.8-3.8-3.4-6.1-5.5c0.5,1.9,0.8,3.2,1.2,4.5C191,484.5,192.1,484.8,195.2,482.7z M315.7,464.8c5.3-0.9,6.4-2.6,4.3-6.2
			C318.4,460.9,317.1,462.9,315.7,464.8z M132.6,26.6c-0.7,1.9-1.3,3.4-2,5.2c1.6,0.6,2.9,1,4.5,1.6C135.5,30.6,134,28.9,132.6,26.6
			z M328.1,424.7c-1.8,6-1,8,2.6,7.6C329.8,429.7,329,427.2,328.1,424.7z M284.1,121.4c2.5-4,1.6-6.5-2.7-8.1
			C282.4,116.2,283.2,118.5,284.1,121.4z M110.6,557.3c0.3-3.3-2-5.6-7.9-7.7C105.3,552.1,107.8,554.6,110.6,557.3z M184,475.3
			c1.5-0.4,2.9-0.8,4.2-1.2c0.7-0.2,1.3-0.5,1.9-0.7c-0.5-0.7-0.8-1.7-1.5-2c-1.5-0.8-2.9-0.6-3.6,1.4
			C184.8,473.6,184.3,474.4,184,475.3z M30.2,31c-2.2,0.7-3.9,1.2-5.9,1.8c1.2,1.5,2.3,2.8,3.6,4.4C28.7,35.1,29.3,33.3,30.2,31z
			 M81.5,50.3c0,3.4,2.8,5,6.5,3.6C86.3,51.6,83.8,51.2,81.5,50.3z M78.5,285.7c-2.5,0-3.6,1.4-4.3,5.7
			C77.1,291,78.2,289.5,78.5,285.7z M387.3,292.8c2.2-1.3,3.3-4.1,2.3-6.1C386.2,287.9,386.1,288.1,387.3,292.8z M191.1,291.4
			c1.8-2.4,2.6-5,2.3-8.1C190.4,286,189.7,288.3,191.1,291.4z M207.4,65c3.9-1.8,4.5-3.7,2.2-6.3C207.6,60.3,207.9,62.7,207.4,65z
			 M140.8,30.6c1.4,2.4,2.5,4.4,3.8,6.7c1.2-1.6,1.3-2.8,0.4-4.1C144.1,31.9,143.4,30.3,140.8,30.6z M109.4,416.8
			c2.8-4.1,2.6-7.3,0-8.3C109.4,411.1,109.4,413.6,109.4,416.8z M221.7,114.1c-0.2-0.1-0.4-0.3-0.6-0.4c-1.3,1.8-2.7,3.7-4.2,5.7
			C220,119.7,222.3,116.9,221.7,114.1z M203.9,289.2c1.2-2.5,3.2-3.9,3.1-6.6C203.1,283.5,202.6,284.5,203.9,289.2z M164.5,128.1
			c3.7-0.2,4.3-2.4,1.8-6.9C165.7,123.6,165.1,125.7,164.5,128.1z M171.1,546.8c-1.6-2.4-3-4.5-4.6-6.9
			C166,543.7,168.2,547.2,171.1,546.8z M106.4,381.8c-0.5,3.4,1.8,4.9,4.5,6.7C111.3,384.7,108.1,383.8,106.4,381.8z M115.6,45.2
			c0.2-0.1,0.4-0.3,0.6-0.4c-0.9-3.8-4-6.1-6.2-9c-0.2,0.1-0.4,0.3-0.6,0.4C111.4,39.3,113.5,42.3,115.6,45.2z M185.7,118.8
			c0.6-3.7-0.5-5.2-4.5-5.9C181.8,115.8,184.9,116.5,185.7,118.8z M206.3,303.5c-0.1-0.1-0.2-0.2-0.4-0.3c-1.1,1.9-2.3,3.7-3.4,5.6
			c2.8,1.5,3,1.4,3.4-1.3C206.1,306.2,206.2,304.8,206.3,303.5z M125.6,361.3c-0.3,0-0.6-0.1-0.8-0.1c-0.1,2.6-0.3,5.3-0.4,8.4
			C126.5,367.3,126.9,363.5,125.6,361.3z M105.2,24.2c-0.2-0.2-0.4-0.5-0.6-0.7c-1.1,0.6-2.2,1.2-3.2,1.9c0.6,1,1.4,2.8,1.7,2.8
			C105,27.6,105,25.8,105.2,24.2z M78.1,250.9c0.3,0,0.6,0.1,0.9,0.1c0.7-1.4,1.4-2.8,1.9-4.3c0.1-0.4-0.6-1.1-1-1.7
			c-0.6,0.4-1.7,0.8-1.7,1.2C77.9,247.8,78.1,249.3,78.1,250.9z M227.5,289.2c-2.8,1.7-3.2,4.7-4,7.5
			C226.1,294.9,227.2,292.3,227.5,289.2z M302.7,142.7c-0.1,0.2-0.2,0.3-0.3,0.5c2.1,1.4,4.2,2.7,6.5,4.2
			C309.4,144.7,307.1,143.2,302.7,142.7z M402.4,298.7c-0.3,0.2-0.5,0.3-0.8,0.5c0.2,1.3,0.2,2.5,0.5,3.8c0.2,0.6,0.9,1,1.3,1.5
			c0.5-0.8,1.5-1.7,1.3-2.2C404.2,300.9,403.2,299.9,402.4,298.7z M355.7,52.5c-0.2,0.3-0.3,0.6-0.5,0.8c1,1.2,0.9,3.5,3.1,3.3
			c0.5-0.1,1-1.5,1.4-2.3C358.5,53.7,357.1,53.1,355.7,52.5z M178.9,23.2c-0.2-0.2-0.4-0.4-0.6-0.6c-1.7,0.6-3.4,1.2-5,1.8
			c0,0.2,0,0.5,0,0.7c1.3,0.4,2.7,1.3,3.9,1.1C177.9,25.9,178.3,24.2,178.9,23.2z M206.6,474.4c-1.1-2.5-3.5-3.3-5.5-4.6
			C201.2,473.1,203.1,474.8,206.6,474.4z M88.1,538.2c1,1.1,1.8,2,3.1,3.5c0.2-2.7,0.4-4.7,0.5-6.8c-0.2,0-0.4-0.1-0.6-0.1
			C90.2,535.8,89.3,536.9,88.1,538.2z M359.1,552.1c1.1-2.9,2.1-5.3,3-7.8c-2.1-0.4-3,0.3-3,2.2
			C359.1,548.2,359.1,549.9,359.1,552.1z M94.5,493.6c0.3,0.2,0.6,0.5,0.9,0.7c0.7-0.7,1.7-1.3,2-2.2c0.5-1.5,0.4-3.1-1.5-4.2
			C95.4,489.9,95,491.7,94.5,493.6z M212.5,293c-1.7,0.3-3,0.6-4.4,0.8c0.6,1.7,1.1,3.1,1.7,5C210.8,296.6,211.6,295,212.5,293z
			 M392.9,114c-0.2,3.9,0.5,6.2,3.2,6C396.5,117.4,394.7,116,392.9,114z M232.9,567.2c-3.3-0.2-5,2.5-3.7,5.8
			C230.5,571,231.7,569.2,232.9,567.2z M21.8,99.2c0.1,0,0.3-0.1,0.4-0.1c0.3-2.1,0.7-4.1,0.8-6.2c0-0.5-0.7-1-1.1-1.6
			c-0.3,0.5-1,1-1,1.5C21.2,95,21.5,97.1,21.8,99.2z M401.9,448.9c-3,3.1-2.9,3.8,0.8,6.9C402.4,453.3,402.2,451.3,401.9,448.9z
			 M202.5,226.5c-0.2-0.1-0.5-0.3-0.7-0.4c-1.1,1.9-2.2,3.7-3.4,5.8C201.6,231.9,202.7,230.2,202.5,226.5z M235.5,496.1
			c-0.3,0.3-0.7,0.6-1,0.8c0.7,1.5,1.2,3.1,2.1,4.5c0.2,0.4,1.4,0.2,2.1,0.3c-0.1-0.6,0-1.3-0.3-1.7
			C237.5,498.7,236.4,497.4,235.5,496.1z M101.3,453.5c-1.7,2.1-3,3.8-4.4,5.5C100.4,459.6,101.1,458.7,101.3,453.5z M327,29.3
			c2-3.5,1.2-5.2-2.4-6.1C325.4,25.1,326.1,27,327,29.3z M117.2,31c-0.2,0.1-0.4,0.2-0.6,0.4c0.5,1.5,0.8,3,1.4,4.4
			c0.2,0.4,1.1,0.6,1.7,0.8c0.1-0.6,0.6-1.4,0.4-1.8C119.2,33.4,118.2,32.2,117.2,31z M165.2,510.5c1.3,1.8,2.4,3.3,3.6,5.1
			C169.8,510.7,169.3,510,165.2,510.5z M193.5,132.4c0,0.2,0,0.4-0.1,0.5c1.8,0.7,3.6,1.3,5.6,2.1c0.2-1.1,0.3-1.9,0.5-3
			C197.3,132.2,195.4,132.3,193.5,132.4z M218.3,203.9c-3.7,0.7-4.3,2.3-2.7,6C216.5,207.9,217.3,206.1,218.3,203.9z M88.4,271.1
			c2.7,0.1,4.3-3,3-6C90.3,267.3,89.4,269.1,88.4,271.1z M322.3,456c0.2,0.1,0.4,0.2,0.6,0.3c1.3-1.4,2.6-2.7,3.7-4.1
			c0.2-0.3,0-1,0-1.5c-0.5,0-1.3-0.1-1.5,0.1C324.2,452.6,323.3,454.3,322.3,456z M158.3,392.5c-1.2-0.6-2.2-1-3.6-1.7
			c0.1,2.1,0.2,3.8,0.4,6C156.3,395.1,157.2,393.9,158.3,392.5z M147.6,46.7c-1.2,1.9-1.9,3.1-2.7,4.4c0.1,0.2,0.3,0.4,0.4,0.6
			c1.3-0.5,2.7-1.1,4-1.6C148.9,49.1,148.4,48.1,147.6,46.7z M315.5,570.2c0.3,0.1,0.6,0.1,0.8,0.2c0.4-1.2,1.1-2.5,1-3.7
			c-0.1-0.7-1.4-1.3-2.1-2c-0.2,0.2-0.4,0.3-0.7,0.5C314.8,566.8,315.1,568.5,315.5,570.2z M193.1,299.4c0.8,1,1.3,1.7,2,2.7
			c1.3-1.7,2.3-3.1,3.4-4.4c-0.1-0.1-0.2-0.2-0.3-0.3C196.6,298,195,298.6,193.1,299.4z M93.8,57.5c-1.3-1.2-2.8-1.8-4.6-1.2
			c-0.2,0,0,1.8,0,1.8c1.4,0.1,2.9,0,4.3,0C93.6,58,93.7,57.9,93.8,57.5z M22.1,54.3c-0.3,1.3-0.6,2.2-0.6,3c0,0.6,0.3,1.5,0.7,1.7
			c0.6,0.2,1.6,0.1,2.2-0.2c0.2-0.1,0.1-1.3-0.2-1.8C23.8,56.1,23.1,55.4,22.1,54.3z M253.7,481.3c-0.2,0.2-0.4,0.3-0.6,0.5
			c0.8,1.6,1.5,3.3,2.4,4.9c0.2,0.4,1.2,0.3,1.8,0.5c0-0.6,0.2-1.4-0.1-1.8C256.2,483.9,254.9,482.6,253.7,481.3z M199.4,477.1
			c0.1-2.2-0.7-3.1-3.6-3.8C195.5,476.2,196.2,477.1,199.4,477.1z M135.8,375.7c2.5-0.2,3.6-1.1,3.5-3.2c0-0.5-0.4-0.9-0.7-1.4
			c-0.5,0.2-1.2,0.4-1.4,0.7C136.7,373,136.3,374.2,135.8,375.7z M320.5,127.1c2.7,4.7,4.2,5.5,6,3.2
			C324.7,129.3,322.8,128.3,320.5,127.1z M383.3,272.9c1.3,4.4,2.8,5.7,5.1,4.6C386.6,275.9,385,274.4,383.3,272.9z M418,359.1
			c0.3,0.1,0.6,0.3,0.8,0.4c0.5-0.8,1.3-1.5,1.4-2.3c0.2-1.2,0.7-2.7-1.5-3.7C418.6,355.5,418.3,357.3,418,359.1z M112.7,51.3
			c0.7-1.8,1.3-3.1,1.9-4.7c-1.4-0.2-2.6-0.3-4.1-0.5C111.3,48.1,111.9,49.5,112.7,51.3z M360,230.9c0.2-0.1,0.5-0.2,0.7-0.3
			c-0.9-2-1.7-4-2.6-6C357.1,227.6,357.6,229,360,230.9z M420.3,393.9c0.1,0.2,0.3,0.3,0.4,0.5c2.3-1.2,4.8-2.3,6.1-4.6
			c-0.2-0.2-0.4-0.5-0.6-0.7C424.3,390.6,422.3,392.3,420.3,393.9z M200.5,333.3c-0.2-0.1-0.3-0.2-0.5-0.2c-2.5,2.2-3.2,5.1-3.2,8.4
			C198,338.7,199.3,336,200.5,333.3z M115.6,338.6c0.2,0.1,0.4,0.1,0.6,0.2c0.7-1.2,1.4-2.4,1.9-3.7c0.1-0.4-0.5-1.1-0.8-1.7
			c-0.5,0.4-1.2,0.7-1.3,1.1C115.7,335.9,115.7,337.3,115.6,338.6z M89,326c-0.2,2.5-1.7,4.6-0.1,6.8C90.7,331,90.8,329.3,89,326z
			 M278.6,432.6c-2.2,0.3-3.3,2-3.2,4.7C277.4,436.5,278.7,435.2,278.6,432.6z M65,75.1c0-0.2-0.1-0.4-0.1-0.6
			c-3.1,0.5-6.2,1-9.2,1.5c0,0.2,0.1,0.4,0.1,0.5C59,76.9,62,76.2,65,75.1z M299.7,142.6c0.1-0.3,0.2-0.5,0.3-0.8
			c-2-0.8-3.9-1.6-5.9-2.4C296,142.6,297.5,143.3,299.7,142.6z M182.7,60.2c-1.8,0.3-3.1,0.6-4.7,0.8c1,1.4,1.8,2.4,2.7,3.6
			C181.4,63.1,181.9,61.9,182.7,60.2z M367.2,787.7c-0.1-0.2-0.2-0.3-0.4-0.5c-0.9,0.7-2.5,1.2-2.6,2c-0.2,1,0.7,2.3,1.1,3.5
			c0.1-0.1,0.3-0.1,0.4-0.2C366.3,791,366.8,789.4,367.2,787.7z M373.1,101.8c2.8-0.2,3.9-2.1,3-5
			C375.1,98.4,374.1,100.1,373.1,101.8z M80.4,275.1c0.8,2.3,1.7,4.7,2.7,7.5C85,278.8,81.8,277.2,80.4,275.1z M333.3,86
			c2-2.2,1-3.4-3.6-4.7C331,83,332.1,84.4,333.3,86z M72.9,205c-1.6,0.4-2.9,0.7-4.4,1.1c1,1.3,1.7,2.2,2.7,3.5
			C71.8,208,72.2,206.7,72.9,205z M375.4,113.6c0.6,1.8,1.1,3.2,1.8,5.2c0.7-1.8,1.2-2.9,1.9-4.4
			C377.8,114.1,376.8,113.9,375.4,113.6z M181.1,124.6c-2.6,0.1-4.9,0.3-7.1,0.4C178.6,127,179.9,126.9,181.1,124.6z M43.6,39.4
			c2.5-2.8,2-3.8-2.1-4.8C42.3,36.2,42.9,37.7,43.6,39.4z M413.1,404.8c2.3-4.2,2.2-4.6-1.4-5.1
			C412.1,401.3,412.6,402.9,413.1,404.8z M404.3,35.5c0.8-1.9,1.7-3.8,2.7-6.3C404,30.6,403.5,31.8,404.3,35.5z M73.9,262.9
			c0.2,0,0.4-0.1,0.6-0.1c0.3-1.5,0.6-3,1.1-5.3c-1.3,0.7-2.8,1.2-2.8,1.5C72.9,260.4,73.5,261.7,73.9,262.9z M140.5,47.9
			c-0.9,1.8-1.8,3.6-2.6,5.2c1.2-0.5,2.6-1.2,4.1-1.8C141.4,50,140.9,48.9,140.5,47.9z M154.8,369.6c0.2,0,0.4,0.1,0.6,0.1
			c0.5-1.1,1.1-2.2,1.3-3.3c0.1-0.4-0.7-1-1.1-1.6c-0.4,0.4-1.2,0.8-1.2,1.3C154.4,367.2,154.6,368.4,154.8,369.6z M306.8,485.5
			c0.2,0,0.5-0.1,0.7-0.1c0.7-2.5-0.3-4.6-1.7-6.5c-0.2,0.1-0.4,0.1-0.6,0.2C305.7,481.1,306.3,483.3,306.8,485.5z M249.3,362.3
			c-1.6,3.6-1.3,4.3,2.1,6C250.7,366.2,250.1,364.5,249.3,362.3z M246.3,628.9c-3.2-0.1-4,1.7-2.7,5.2
			C244.5,632.3,245.3,630.7,246.3,628.9z M352.6,92.4c1.8,0.9,3.5,1.7,5.4,2.6C358,92.5,357.2,92.1,352.6,92.4z M203.6,274.2
			c0.2,0.1,0.5,0.1,0.7,0.2c0.2-1.4,0.5-2.8,0.6-4.2c0-0.3-0.7-0.7-1.1-1.1c-0.2,0.4-0.7,0.9-0.7,1.3
			C203.2,271.7,203.5,273,203.6,274.2z M118.3,359.6c1.2,1.6,2.1,3,3.2,4.5C122.5,360.9,121.9,360.1,118.3,359.6z M244.4,64.5
			c-0.2-4.6-0.9-5.4-3.5-4.4C241.9,61.5,242.9,62.8,244.4,64.5z M158.4,183.6c-0.2-0.2-0.4-0.5-0.7-0.7c-0.7,0.3-1.8,0.6-1.9,1
			c-0.2,1.1,0,2.2,0.1,3.4c0.2,0,0.5,0.1,0.7,0.1C157.2,186.1,157.8,184.9,158.4,183.6z M284.2,387.5c2-4.1,1.9-5.5-0.4-6
			C283.9,383.6,284.1,385.5,284.2,387.5z M357.4,536c0,2.3,0,4.1,0,5.9C359.6,540.6,359.6,539.2,357.4,536z M199.7,258.7
			c0.2,0.2,0.4,0.3,0.6,0.5c2.6-0.6,3.1-1.4,1.9-4.1C201.2,256.4,200.4,257.6,199.7,258.7z M83.2,304.2c-1.3,0.4-2.6,0.7-2.6,0.9
			c0.1,1.5,0.5,3,0.8,4.4c0.2,0,0.3,0,0.5-0.1C82.2,308,82.6,306.4,83.2,304.2z M108.7,444c1.1,2.1,2.1,4,3.2,6.1
			C112.9,447.2,112.2,446,108.7,444z M291.7,526.1c0.1,0,0.2,0.1,0.3,0.1c0.3-1.6,0.6-3.2,0.8-4.8c0.1-0.5-0.4-1-0.6-1.5
			c-0.3,0.5-0.9,1-0.9,1.6C291.3,523,291.5,524.5,291.7,526.1z M197,248.5c-3,0.8-3.2,1.8-1.6,5.2
			C195.9,251.9,196.4,250.4,197,248.5z M368.9,248c1-3.1,0.4-4.8-2.2-6.8C367.4,243.6,368.1,245.6,368.9,248z M91,257.1
			c1.1-1.4,2.2-2.9,3.4-4.4C91.7,252.3,91,253.2,91,257.1z M347.9,106.8c-0.2,0.1-0.4,0.2-0.5,0.2c0.2,1.1,0.2,2.2,0.5,3.2
			c0.1,0.4,1,0.5,1.5,0.8c0.2-0.5,0.6-1.2,0.4-1.6C349.3,108.5,348.6,107.7,347.9,106.8z M362.6,583.9c-1.5-1-2.8-1.8-4.5-2.9
			C360,585.4,360.6,585.8,362.6,583.9z M85.6,35.1c2.1-3.2,2.5-4.8-0.5-4.7C85.3,32,85.5,33.6,85.6,35.1z M269.4,386.6
			c0.4-1.3,0.7-2.1,0.8-2.9c0.1-0.6,0.1-1.5-0.2-1.9c-0.3-0.3-1.2-0.1-2.2-0.1C268.4,383.5,268.8,384.8,269.4,386.6z M359.2,709.6
			c0.8,1.4,1.5,2.5,2.4,4.2c0.2-2,0.3-3.4,0.5-5.1C361.1,709,360.4,709.2,359.2,709.6z M105.2,55c0.6,1.9,1,3.4,1.4,4.8
			c0.2,0,0.4,0,0.6,0c0.2-1.4,0.4-2.8,0.4-4.2C107.5,55.4,106.3,55.3,105.2,55z M229.7,132.1c3.3,2.4,3.7,2.5,4.7,0
			C232.9,132.1,231.5,132.1,229.7,132.1z M233.2,353.1c0.2,0,0.4,0,0.5-0.1c0-1.2,0.1-2.4-0.1-3.5c0-0.2-1.6-0.1-2.8-0.2
			C231.8,351,232.5,352,233.2,353.1z M116.9,450.6c-1.7,1.9-3.1,3.4-4.5,4.9C114.6,454.7,116.7,453.9,116.9,450.6z M81.6,63.4
			c-3.2,0.5-3.3,1.3-0.8,4.5C81,66.3,81.3,64.9,81.6,63.4z M95.7,360.4c0.2,0,0.3-0.1,0.5-0.1c0.3-1.4,0.6-2.7,0.9-4.3
			c-1.1,0.1-1.8,0.1-2.8,0.2C94.8,357.8,95.3,359.1,95.7,360.4z M321.5,63.7c1.5-2.8,0.8-3.8-2.6-4.1
			C319.8,61,320.5,62.2,321.5,63.7z M119.7,394.1c0.2,0,0.4,0,0.6,0c0.1-1.3,0.3-2.6,0.3-3.8c0-0.2-1.3-0.3-2.6-0.5
			C118.6,391.5,119.2,392.8,119.7,394.1z M75.7,34.7c-2.2,1-2.8,2.8-1.5,5.1C74.7,38.2,75.1,36.7,75.7,34.7z M187.1,329.4
			c0.1,0,0.3,0,0.4,0c0.1-1.2,0.3-2.5,0.3-3.7c0-0.5-0.7-1-1-1.5c-0.2,0.5-0.7,1.1-0.6,1.5C186.4,327,186.8,328.2,187.1,329.4z
			 M189.8,61.3c3.1,1.6,5.2,1.6,6.3,0C194,61.3,192.1,61.3,189.8,61.3z M241.2,380c0.2,0,0.4,0.1,0.5,0.1c0.8-1.2,1.6-2.4,2.3-3.6
			c-1.2-0.3-2.6-0.3-2.8,0.1C241,377.7,241.2,378.9,241.2,380z M314.1,375.9c-2.8,1.9-2.6,4.1-1.9,7.1
			C312.9,380.4,313.5,378.4,314.1,375.9z M387.8,501.4c1.1-3.1,0.4-3.9-2.6-3.6C386,499,386.8,500.1,387.8,501.4z M102.5,267.9
			c-0.3,0.4-0.5,0.7-0.8,1.1c0.8,0.6,1.5,1.3,2.3,1.8c0.1,0.1,0.8-0.7,1.2-1.1C104.3,269.1,103.4,268.5,102.5,267.9z M90.5,515.8
			c-0.6-2.9-1.7-3.3-4.3-1.8C87.7,514.6,88.9,515.1,90.5,515.8z M340.4,46.7c0.9-1.4,1.7-2.5,2.7-3.9
			C339.4,43.3,339.3,43.4,340.4,46.7z M190.7,366.7c1.7-3.6,1.5-4.1-1.3-4.8C189.8,363.4,190.2,364.8,190.7,366.7z M322.2,84.7
			c-1.2,0.3-2.1,0.5-3.4,0.9c1.3,1,2.2,1.8,3.4,2.7C322.2,87.1,322.2,86.1,322.2,84.7z M340.5,54.1c-1.2,0.1-1.9,0.2-3,0.2
			c0.6,1.4,1.1,2.5,1.8,4.1C339.8,56.8,340.1,55.7,340.5,54.1z M92.6,44.9c1.1,1.6,1.9,2.8,2.8,4.1C96.5,46.6,96.2,46.1,92.6,44.9z
			 M142.5,396.1c0-1.4,0-2.8,0-4.4C140.4,393.7,140.4,394.1,142.5,396.1z M321.4,421.8c-0.3,0.1-0.7,0.2-1,0.3
			c0.5,1.7,1,3.5,1.5,5.2c0.3-0.1,0.6-0.2,1-0.3C322.4,425.3,321.9,423.6,321.4,421.8z M202.3,323.1c0.7-4.5,0.5-4.7-2.2-3.7
			C200.8,320.5,201.4,321.6,202.3,323.1z M301.8,556.8c-0.4,0-0.7,0.1-1.1,0.1c0.2,1.6,0.3,3.1,0.5,4.7
			C301.6,560,303.2,558.3,301.8,556.8z M317.6,150.8c1.6,1.5,2.9,2.7,4.3,4C322.7,152.7,321.4,151.5,317.6,150.8z M144.4,412.4
			c0.5,1.5,1,2.8,1.6,4.5C147.6,413.6,147.5,413.3,144.4,412.4z M134.1,351.4c-0.2-0.1-0.5-0.1-0.7-0.2c-2,1.1-1.3,2.8-0.9,4.4
			c0.2,0,0.4,0.1,0.6,0.1C133.4,354.2,133.8,352.8,134.1,351.4z M118.8,143.9c0.2,0.4,0.5,0.8,0.7,1.1c0.9-0.5,1.8-1.1,2.7-1.6
			c-0.3-0.5-0.6-1-0.9-1.4C120.6,142.6,119.7,143.3,118.8,143.9z M215.5,444.1c-1.3,0.5-2.6,1-4.4,1.7
			C215.7,446.6,216,446.5,215.5,444.1z M366.8,652.9c0.2,0,0.4,0,0.6,0c0.1-1.1,0.3-2.1,0.2-3.2c0-0.2-1.3-0.3-2.4-0.6
			C366,650.8,366.4,651.9,366.8,652.9z M223.9,359c-2.1,0.6-2.2,1.4-1,5.3C223.3,362.3,223.6,360.7,223.9,359z M120.9,407.7
			c0.2,0,0.4,0,0.6,0c0.3-0.9,0.7-1.9,0.8-2.8c0-0.4-0.6-0.9-0.9-1.3c-0.3,0.5-0.9,0.9-0.9,1.4C120.4,405.9,120.7,406.8,120.9,407.7
			z M194.8,325.6c0.7-1.4,1.2-2.6,1.9-4C193.2,322.8,193.1,323,194.8,325.6z M265.5,275.7c0.7-1.6,1.1-2.8,1.6-4
			C264.6,271.4,264.5,271.7,265.5,275.7z M103.3,467.5c0.5,1.6,0.9,2.8,1.3,4.2C106.3,468.8,106.2,468.3,103.3,467.5z M98.1,318.5
			c0.5,2.2,0.8,3.8,1.2,5.7C100.9,321.9,100.1,320.4,98.1,318.5z M258,405.4c-1.4,0.7-2.4,1.2-3.9,1.9c1.5,0.4,2.5,0.7,3.7,1.1
			C257.8,407.5,257.9,406.8,258,405.4z M278.3,37.8c0.2,1.9,0.4,3.6,0.5,5.2C280,41.2,280.3,39.5,278.3,37.8z M227.1,539.5
			c0.7,1.7,1.1,2.8,1.6,3.9c0.6-1,0.9-2.1,0.9-3.2C229.5,540,228.3,539.8,227.1,539.5z M74.1,24.6c-1.1,0-1.9,0-3.2,0
			c1,1.2,1.7,2.1,2.6,3.3C73.8,26.5,73.9,25.6,74.1,24.6z M343.5,163.3c-0.2-0.1-0.4-0.1-0.6-0.2c-0.5,0.8-1,1.5-1.4,2.3
			c-0.1,0.3,0.2,0.8,0.3,1.2c0.5-0.2,1.3-0.3,1.3-0.5C343.4,165.2,343.4,164.2,343.5,163.3z M228.4,383.4c0.2,0,0.3-0.1,0.5-0.1
			c0.1-1.3,0.3-2.5,0.5-4.3c-1,0.4-1.9,0.8-1.9,0.9C227.7,381.1,228.1,382.2,228.4,383.4z M343.3,214.7c0.4-2.7-0.4-3.7-3.2-4.6
			C341.1,211.6,342,213,343.3,214.7z M202.1,383.6c1.2-2.8,0.6-3.7-2.1-3.6C200.7,381.2,201.3,382.4,202.1,383.6z M214.7,447.7
			c0,1.7,0,3,0,4.6c0.9-0.6,1.6-1.1,2.4-1.6C216.3,449.6,215.7,448.9,214.7,447.7z M117.8,243.4c-2.8,0.1-3.3,0.8-2.6,3.7
			C116.1,245.8,116.8,244.8,117.8,243.4z M225.5,203.2c0.2,0.1,0.4,0.1,0.6,0.2c0.4-0.9,0.9-1.8,1.2-2.8c0.1-0.3-0.6-0.7-1-1.1
			c-0.3,0.3-0.8,0.7-0.8,1C225.4,201.4,225.5,202.3,225.5,203.2z M352.3,154.5c0.8,1.1,1.5,2,2.2,2.9c0.1-0.1,0.3-0.1,0.4-0.2
			c-0.1-1.1-0.2-2.2-0.3-3.5C353.7,154,353.1,154.2,352.3,154.5z M89.6,42.3c0.6-2.5-1.1-3.5-2.8-4.4C87.8,39.4,88.7,40.9,89.6,42.3
			z M80.7,250.6c0.3,1.4,0.6,2.5,0.9,3.8C83.6,251.6,83.5,251.3,80.7,250.6z M83.1,157.3c0.8,1.2,1.6,2.4,2.6,4
			C86.6,158.5,84.9,157.9,83.1,157.3z M367.3,237.1c0.2,0,0.4,0,0.7,0.1c0-0.9,0.2-1.9-0.1-2.7c-0.1-0.4-1.2-0.5-2.4-1
			C366.3,235.2,366.8,236.1,367.3,237.1z M86.9,58.2c0-0.2,0-0.4,0-0.7c-1.5,0-3,0-4.5,0C83.8,59.2,85.3,58.8,86.9,58.2z
			 M326.9,400.5c-1.7-1.5-3-2.6-4.5-4C323.3,399.5,324.2,400.4,326.9,400.5z M234.6,604.7c-0.3,0.3-0.6,0.5-0.9,0.8
			c0.5,0.7,0.9,1.4,1.4,2.1c0.5-0.4,1.1-0.8,1.6-1.1C236,605.9,235.3,605.3,234.6,604.7z M94.5,297.4c-2.3,1.6-2.4,2.5-0.6,4.6
			C94.2,300.5,94.3,299.1,94.5,297.4z M369.3,155.1c0.1-1.5,0.3-2.9,0.4-4.8C367.6,152.1,368.2,153.6,369.3,155.1z M186.8,385.5
			c0.5-1.3,0.8-2,1.2-3.1c-1-0.2-1.7-0.3-2.8-0.5C185.7,383.2,186.1,384.1,186.8,385.5z M117.6,378.4c0.9,1.1,1.7,2.1,2.7,3.4
			C120.4,378.6,120.1,378.3,117.6,378.4z M197.7,181.7c-2.6-0.6-3-0.1-2.8,2.4C195.9,183.2,196.8,182.4,197.7,181.7z M366.4,566
			c0.3-1.1,0.7-2,0.5-2.1c-0.8-0.6-1.7-0.9-2.6-1.4c-0.1,0.2-0.2,0.3-0.3,0.5C364.6,563.8,365.3,564.6,366.4,566z M229.6,112.4
			c2.9,0.5,3.3,0.1,3-2.7C231.6,110.7,230.7,111.5,229.6,112.4z M84.8,268.9c0.4,1.1,0.8,1.9,1.3,3.2c0.6-1.4,1-2.2,1.4-3.2
			C86.6,268.9,85.9,268.9,84.8,268.9z M90.9,149.6c0.7,1.5,1.1,2.4,1.5,3.3c0.6-0.8,0.9-1.7,0.9-2.5C93.2,150.1,92.1,150,90.9,149.6
			z M136.8,399.4c-0.3,0-0.7,0.1-1,0.1c0.2,1.6,0.4,3.2,0.6,4.8c0.1,0,0.3,0,0.4,0C136.8,402.6,136.8,401,136.8,399.4z M175.1,377.6
			c-2.1,1.1-2.2,2.2-0.9,4C174.5,380.3,174.8,379.2,175.1,377.6z M243.2,24.4c0,1.9,0,3.3,0,5.1C244.9,27.7,244.8,26.3,243.2,24.4z
			 M351.6,194.5c1,0.4,2,0.9,3.4,1.4C354.6,192.8,353,193.8,351.6,194.5z M282.8,405.4c1.1-3.3,0.9-3.9-1.2-3.6
			C281.9,402.8,282.3,403.9,282.8,405.4z M209.6,373.1c0.1,0,0.3-0.1,0.4-0.1c0.1-0.9,0.3-1.8,0.2-2.7c0-0.3-0.6-0.6-1.1-0.7
			c-0.1,0-0.7,0.6-0.6,0.8C208.8,371.4,209.2,372.2,209.6,373.1z M361.1,631.6c0.6-1.4,1.1-2.6,1.7-4
			C360.1,628.2,360,628.5,361.1,631.6z M121.1,136.8c-0.2-0.1-0.3-0.1-0.5-0.2c-0.8,0.6-1.6,1.2-2.4,1.8c0.8,0.7,1.6,1,1.7,0.9
			C120.4,138.6,120.7,137.7,121.1,136.8z M102.7,327.5c1.5-3.1,1.3-3.7-0.8-4.1C102.1,324.6,102.3,325.8,102.7,327.5z"/>
		<path class="finger-svg" d="M210.1,612.1c2.8,1.8,4.6-0.7,6.7-1.1c0.6,1.7,0.3,2-2.3,3.1c-1.4,0.6-2.9,1.2-4.5,1.9
			c2.1,1.9,4.2,2.9,6.9,2.4c2.1-0.4,4.3-0.6,6.4-0.8c0.6-0.1,1.2,0,2.1,0c-5.9,5.1-27.5,5.1-32.3,0.5c1.2-1.8,2.3-3.7,3.4-5.4
			c2.9,1.6,5.5,3.1,8.3,4.7c1.2-2,2.2-3.6,3.3-5.4c-5.9-1.9-12.1-1.2-18.4-3.6c4-1.2,7.3-2.1,10.9-1.8s7.2-0.2,10.8-0.4
			c1.1,0,2.4-0.2,2.7,1.4c0.4,1.6-0.3,2.6-1.8,3.2C211.6,611.3,210.9,611.6,210.1,612.1z"/>
		<path class="finger-svg" d="M193.7,527.7c-5.3-3.8-10.9-7.2-15.1-12.8c1.7-1.1,3.4-2.2,5.1-3.4c1.1,2,2.1,3.8,3.3,5.8
			c2.6-2.4,5-4.7,7.6-7.1c1.4,2.2,3,4,3.1,7.2c-1.7-0.2-3-0.6-4.4-0.6c-0.9,0-2.2,0.1-2.6,0.7c-0.4,0.6-0.3,1.9,0.1,2.8
			c1.1,2.4,2.4,4.7,3.6,7C194,527.4,193.8,527.5,193.7,527.7z"/>
		<path class="finger-svg" d="M335.5,576.3c3-10,5.9-19.9,8.8-29.8c0.2,0,0.5,0,0.7,0.1c0.1,0.6,0.2,1.1,0.2,1.7
			c-0.6,8.8-1.8,17.6-4.4,26.1C339.6,578.2,339.2,578.2,335.5,576.3z"/>
		<path class="finger-svg" d="M308.4,649c1.3-6.3,3.5-11.4,8.2-15.1c3.9-3.1,7.4-6.5,9.6-11.2c0.6-1.3,2.1-2.2,3.4-3
			c-0.1,2.9-1.5,5.2-3.2,7.3c-4.1,5.2-8.4,10.4-12.6,15.6C312.3,644.6,310.5,646.6,308.4,649z"/>
		<path class="finger-svg" d="M172.6,433.1c-2.2-3.1-3.9-6.5-6.5-8.9c-3.4-3.1-2.8-6.4-2-10c0.2-1.1,1.3-2,1.9-3c0.3,0.1,0.5,0.1,0.8,0.2
			c0.4,1.4,0.8,2.8,1.1,4.2c0.8,4,1.7,7.7,5,10.7C176.2,429.2,176,429.9,172.6,433.1z"/>
		<path class="finger-svg" d="M261.6,527c-6.9-1.9-12.8-4.3-16.2-10.2c-0.8-1.3,0-3.5,0-5.2c0.3-0.1,0.6-0.2,0.9-0.3
			C251.3,516.4,256.2,521.5,261.6,527z"/>
		<path class="finger-svg" d="M174.6,442c1.8,0.2,3.5,0.2,5,0.7c0.9,0.3,1.8,1.3,2.1,2.2c0.8,2.3,2.4,3.5,4.6,4.1c1.4,0.4,2.9,1,4.2,1.7
			c0.4,0.2,0.6,1,0.9,1.5c-0.5,0.2-1,0.7-1.4,0.6c-2.1-0.2-4.3-0.4-6.4-0.8c-0.5-0.1-1.4-0.6-1.5-1c-0.4-2-2-2.5-3.6-3
			C174.6,446.8,174.5,446.6,174.6,442z"/>
		<path class="finger-svg" d="M296.8,656.7c-0.7-1.5-1.2-2.8-1.7-4c-1.1-2.7-1.2-2.9,1.4-4c1.4-0.6,3-0.9,4.5-1.3c1.4-0.3,2.8-0.6,4-0.9
			c0.2,0.7,0.7,1.6,0.6,2.4c-0.2,0.9-0.7,2-1.4,2.5C301.9,653.2,299.4,654.8,296.8,656.7z"/>
		<path class="finger-svg" d="M167,438.3c1.6-0.8,3-1.6,4.6-2.4c0.9,1,1.8,1.8,2.5,2.8c0.6,0.8,1.9,1.7,0.5,2.9c-1.4,1.2-4,1.6-4.9,0.5
			C168.7,441,167.9,439.7,167,438.3z"/>
		<path class="finger-svg" d="M123.8,494.8c5.7,0.3,6.3,5.3,8.9,8.4C128.7,504.2,126.5,500.5,123.8,494.8z"/>
		<path class="finger-svg" d="M189,443.8c-1.6-0.7-3.2-1.2-4.6-2c-0.7-0.4-1.4-1.3-1.6-2.1c-0.4-1.3,0.1-2.1,1.7-1.6
			c0.5,0.2,1.1,0.3,1.7,0.4C190.5,439.3,190.5,439.3,189,443.8z"/>
		<path class="finger-svg" d="M254.2,612.1c-1.4-0.7-2.7-1.3-4-1.9c-3-1.5-3.1-1.9-0.7-4.8c1.3,0.8,2.7,1.5,4,2.4
			C255.9,609.1,255.9,609.5,254.2,612.1z"/>
		<path class="finger-svg" d="M179,431.9c1.3,0.9,2.4,1.7,3.6,2.6c-0.9,1.9-1.8,3.6-2.7,5.3C176,436.6,175.9,435.4,179,431.9z"/>
		<path class="finger-svg" d="M219.8,611.4c-0.6-2-1.1-3.4-1.7-5.4c0.9-0.2,2.2-0.8,3.1-0.5c1.4,0.4,2.8,4,1.9,4.8
			C222.3,611,220.8,611.1,219.8,611.4z"/>
		<path class="finger-svg" d="M281.4,644.6c-2.5,0.1-5.1,0.3-7.8,0.4c0-1.5,0-2.7,0-4.3c2.7,1,5.3,2,7.9,3
			C281.4,644,281.4,644.3,281.4,644.6z"/>
		<path class="finger-svg" d="M252.1,579.7c-2.5-0.1-4.6-0.3-6.6-0.4c-0.1-0.2-0.3-0.4-0.4-0.7c1.1-0.9,2.2-2.4,3.4-2.4
			C249.9,576.1,251.3,577.4,252.1,579.7z"/>
		<path class="finger-svg" d="M246.4,595.6c2.2,1.2,3.8,2,5.5,2.9c0,0.3-0.1,0.5-0.1,0.8c-1.8,0.4-3.5,0.8-5.4,1.3
			C246.4,598.9,246.4,597.6,246.4,595.6z"/>
		<path class="finger-svg" d="M286.2,513.5c-3.2,0-6.4,0-9.6,0c3.2-1.2,6.3-2.8,9.6-0.8C286.2,513,286.2,513.3,286.2,513.5z"/>
		<path class="finger-svg" d="M262,620.4c1.6,0.9,3.2,1.8,5.1,2.9c-1.8,1.7-3.6,1.7-4.9,1c-0.7-0.4-0.6-2.2-0.9-3.4
			C261.5,620.7,261.8,620.5,262,620.4z"/>
		<path class="finger-svg" d="M285.9,643c2.4,0.3,4.8,0.5,7.1,0.8c0,0.3,0,0.6,0,0.8c-1.8,1-3.9,1.2-5.9,0.8c-0.6-0.1-1.1-1.2-1.6-1.8
			C285.6,643.4,285.7,643.2,285.9,643z"/>
		<path class="finger-svg" d="M256.5,592.5c-1.9,0-3.9,0-5.8-0.1c-0.2,0-0.6-0.8-0.5-1.1c0.2-0.5,0.8-1.3,1.1-1.3c1.8,0.2,3.6,0.7,5.4,1
			C256.6,591.6,256.5,592,256.5,592.5z"/>
		<path class="finger-svg" d="M151,470c1.4,0.3,2.7,0.4,3.9,0.9c0.6,0.2,0.9,1.1,1.4,1.6c-0.6,0.3-1.2,0.7-1.8,0.8
			C151.6,473.4,151,472.8,151,470z"/>
		<path class="finger-svg" d="M272.3,633.3c1.8,0.5,3.4,0.8,4.9,1.4c0.4,0.2,0.6,1.1,0.8,1.7c-0.6,0.2-1.3,0.6-1.7,0.5
			C274.6,636.4,272.7,635.9,272.3,633.3z"/>
		<path class="finger-svg" d="M219.6,594.9c0.2,1.9,0.7,3.5-1,4.4c-0.4,0.2-1.9-0.9-2.1-1.7C215.9,595.3,218,595.6,219.6,594.9z"/>
		<path class="finger-svg" d="M166.6,459.3c1,0.5,2.1,1,3.1,1.6c0.5,0.4,0.9,1,1.3,1.6c0,0.1-0.6,0.9-1,0.8c-0.8,0-1.8-0.1-2.3-0.6
			c-0.7-0.8-1-2-1.5-3C166.3,459.6,166.4,459.4,166.6,459.3z"/>
		<path class="finger-svg" d="M157.5,474.1c1,0.6,2,1,2.9,1.7c0.5,0.4,0.8,1.1,1.1,1.6c-0.5,0.3-0.9,0.8-1.4,0.8c-0.6,0-1.5-0.3-1.8-0.7
			c-0.6-0.9-0.8-2.1-1.2-3.1C157.2,474.4,157.3,474.2,157.5,474.1z"/>
		<path class="finger-svg" d="M116.1,513c2.7,1.6,5.5,3.2,6.4,6.4c-0.2,0.2-0.5,0.4-0.7,0.6C119.8,517.7,118,515.4,116.1,513L116.1,513z"/>
		<path class="finger-svg" d="M248.3,558.4c2.2,1.2,4.5,1.7,5.7,4.1C251,562.3,249.3,561.1,248.3,558.4z"/>
		<path class="finger-svg" d="M205.5,512.4c1.2,0.5,2.4,1,4.3,1.8c-1.4,0.9-2.3,1.4-3.5,2.1c-0.5-1.4-0.9-2.4-1.2-3.5
			C205.3,512.7,205.4,512.5,205.5,512.4z"/>
		<path class="finger-svg" d="M274.2,522.2c1.6-0.3,3.3-0.6,4.9-0.9c0.3,2.3,0,2.6-2,2.2c-1-0.2-2-0.5-3-0.8
			C274.1,522.5,274.1,522.4,274.2,522.2z"/>
		<path class="finger-svg" d="M142.6,490.7c-0.7-1.8-1.4-3.5-2.1-5.3C143.6,486.7,144.1,488.1,142.6,490.7z"/>
		<path class="finger-svg" d="M265.2,535.1c-2.3,1.9-3.9,1.8-6.4,0C260.9,535.1,262.8,535.1,265.2,535.1z"/>
		<path class="finger-svg" d="M266.6,529.7c1.6-0.1,3.2-0.2,4.7-0.2c0.3,0,0.5,0.5,0.8,0.8c-0.3,0.2-0.7,0.6-0.9,0.6
			c-1.5-0.2-3.1-0.4-4.6-0.7C266.6,530,266.6,529.9,266.6,529.7z"/>
		<path class="finger-svg" d="M121.3,506.7c-0.6-1.1-1.2-2.1-2-3.5c1.1-0.1,1.8-0.2,2.8-0.3c-0.1,1.4-0.2,2.5-0.3,3.7
			C121.7,506.6,121.5,506.7,121.3,506.7z"/>
		<path class="finger-svg" d="M172.8,403.8c1.1-0.3,2.1-0.6,3.8-1.1c-0.6,1.2-0.9,2.3-1.3,2.3c-0.9,0.1-1.8-0.4-2.7-0.7
			C172.7,404.1,172.7,404,172.8,403.8z"/>
		<path class="finger-svg" d="M257.2,531c-0.5,1.8-0.8,2.9-1.1,4c-0.2,0-0.3,0-0.5,0.1c-0.2-1.1-0.4-2.2-0.4-3.3
			C255.2,531.6,256.1,531.4,257.2,531z"/>
		<path class="finger-svg" d="M216.3,404.3c0.7-0.2,1.5-0.6,2.2-0.6c0.5,0,1,0.5,1.4,0.8c-0.4,0.3-0.9,0.8-1.3,0.8c-0.8,0-1.5-0.3-2.3-0.5
			C216.3,404.7,216.3,404.5,216.3,404.3z"/>
		<path class="finger-svg" d="M212.3,598.7c2.8,0,3,0.3,1.6,3.1C213.3,600.7,212.9,599.8,212.3,598.7z"/>
		<path class="finger-svg" d="M191.2,601.6c-0.8-1-1.4-1.9-2.1-2.8C191.8,598.5,192.1,599,191.2,601.6z"/>
		<path class="finger-svg" d="M429.4,714.8c-2.5-3.3-3.6-6.5-3.3-10.1c0-0.5,0.8-1.2,1.2-1.2c1.6,0.1,1.9-0.7,1.7-2
			c-0.2-2.2,0.1-4.7-2.7-5.8c-0.3-0.1-0.7-1.1-0.6-1.6c2.6-11.3,2.6-22.7,1.6-34.2c-0.6-7.3-0.1-14.6,0.7-22
			c0.9-7.8,1-15.7,1.6-23.5c0.6-9,1.6-18.1,2-27.1c0.2-4.1-0.6-8.2-0.7-12.3c-0.2-5.1-0.2-10.2-0.2-15.3c0.1-10.9,0.3-21.8,0.5-32.6
			c0.1-5.5,0.4-10.9,0.7-16.4c0.1-1,0.4-2.1,0.6-3.1c0.2,0,0.4,0,0.7-0.1c0.5,2.7,1.3,5.4,1.3,8.2c0.4,15.9,1.4,31.8,0.8,47.7
			c-0.5,13.6-0.3,27.1-0.2,40.6c0,5.7-0.8,11.5-1.2,17.2c-0.3,5.4-0.5,10.8-0.7,16.2c-0.1,2.1-0.2,4-2.9,3.9
			c4.1,9,2.4,18.6,2.8,27.8c0.1,1.3-0.4,2.7-1,3.9c-1.1,2.2-1.4,4.4-1.4,6.9c-0.1,8.1-0.3,16.1-0.6,24.2
			C430.1,707.6,429.7,710.9,429.4,714.8z"/>
		<path class="finger-svg" d="M429.5,719.3c0.2,1.2,0.4,2.4,0.4,3.5c0,11.2,0.1,22.5-0.1,33.7c0,2.2-0.9,4.3-1.4,6.4
			c-0.8,3.6-2.1,7.3-2.2,10.9c-0.4,8.3-1.9,16.4-4.3,24.4c-0.7,2.5-0.9,5.1-1.4,7.6c-0.3,1.7-0.5,3.4-1,5.1
			c-1.2,4.2-2.7,8.3-3.9,12.5c-0.6,1.9-1.7,3.2-4.1,3.8c0.9-3,1.7-5.7,2.6-8.4c1.9-5.3,2.8-10.8,2.8-16.5c0-3.7,0.7-7.5,1.8-11
			c3.8-11.6,5.4-23.4,5-35.5c-0.4-11.6,1.2-22.8,4.1-33.9c0.2-0.9,0.7-1.8,1-2.7C429,719.3,429.2,719.3,429.5,719.3z"/>
		<path class="finger-svg" d="M398.3,736.4c-4.2,1.6-18-0.3-22-3.2c0.8-1.4,1.6-2.8,2.5-4.4c1.8,1,3.3,2,5,2.7c3.7,1.6,7.4,3.3,11.6,1.7
			C396.8,732.7,398.1,734.3,398.3,736.4z"/>
		<path class="finger-svg" d="M435.5,482.1c-0.3,6.2-0.6,12.2-0.9,18.3c-0.2,0-0.4,0-0.6,0c-0.7-5.3-3.3-10.3-2-15.9
			C432.6,482,432.7,481.8,435.5,482.1z"/>
		<path class="finger-svg" d="M415.3,441.5c2.9-0.5,5.4-1.1,7.9-1.4c0.8-0.1,1.6,0.6,2.4,1c-0.4,0.8-0.7,1.7-1.3,2.2
			c-1.6,1.2-3.4,2.1-5.2,3.3C417.9,444.9,416.8,443.4,415.3,441.5z"/>
		<path class="finger-svg" d="M381,807.4c1.5,0.5,2.9,1,4.3,1.6c2.9,1.1,3,1.5,1.2,4.5c-2.5-0.7-5-1.4-7.8-2.2
			C379.4,809.9,380.2,808.7,381,807.4z"/>
		<path class="finger-svg" d="M378.3,711.8c1.6,1,3,1.6,4.1,2.6c1.4,1.2,1.1,2.7-0.8,3.1c-1.4,0.4-2.8,0.5-4.6,0.8
			C377.5,716.2,377.9,714.3,378.3,711.8z"/>
		<path class="finger-svg" d="M390.1,532.8c0.4-2.5,1.5-3.2,3.2-3.3c1.1-0.1,2.3-0.2,3.4-0.1c0.7,0.1,1.7,0.6,1.8,1.1
			c0.1,1-0.2,2.3-1.6,2.3C394.8,532.8,392.6,532.8,390.1,532.8z"/>
		<path class="finger-svg" d="M381.9,644.2c2.3,1.1,4.2,2.1,6.8,3.4c-3.3,0.8-5.9,1.4-9.1,2.1C380.5,647.8,381.1,646.1,381.9,644.2z"/>
		<path class="finger-svg" d="M388,727c-1.4,0.3-2.9,0.5-4.3,0.8c-1.5,0.3-2.3-0.3-2.3-1.9c0-1.7,1.1-2.6,2.4-2.3c1.6,0.4,3,1.6,4.5,2.4
			C388.2,726.3,388.1,726.7,388,727z"/>
		<path class="finger-svg" d="M381.9,765.8c-1.2-1.9-2.2-3.5-3.4-5.4c1.7-0.3,3.2-0.5,4.6-0.7c1.5-0.2,1.8,0.6,1.3,1.8
			C383.8,762.9,382.9,764.2,381.9,765.8z"/>
		<path class="finger-svg" d="M374.2,704.5c1-0.3,2-0.8,2.9-0.7s2.1,0.7,2.5,1.4c0.8,1.3-0.1,2.5-1.3,2.9c-0.7,0.2-2-0.1-2.5-0.6
			C375.2,706.7,373.4,706.2,374.2,704.5C374.3,704.5,374.2,704.5,374.2,704.5z"/>
		<path class="finger-svg" d="M381.9,803.6c-1.3-2.5-2.4-4.6-3.7-7.2c2.4,0.8,4.3,1.5,6.4,2.2C383.8,800.2,383,801.7,381.9,803.6z"/>
		<path class="finger-svg" d="M400.6,512.5c-1,2.6-2.9,3.8-5.1,3c-0.6-0.2-1.1-1.1-1.2-1.7c-0.1-0.4,0.7-1.2,1.2-1.3
			C397.1,512.4,398.7,512.5,400.6,512.5z"/>
		<path class="finger-svg" d="M398,494.8c1.7,0.4,3.2,0.7,4.5,1.2c0.5,0.2,1,0.9,1,1.4s-0.6,1.1-1.1,1.3C399.7,499.9,398.8,499.1,398,494.8
			z"/>
		<path class="finger-svg" d="M386.8,771.7c-1.7,0.7-3.3,1.3-5.5,2.2c0.4-1.9,0.8-3.4,1.2-5.2c1.6,0.8,2.9,1.5,4.2,2.2
			C386.7,771.2,386.7,771.4,386.8,771.7z"/>
		<path class="finger-svg" d="M382.8,570.2c2.5,0.8,4.2,1.4,5.9,2c0,0.4,0,0.7,0,1.1c-1.6,0.3-3.2,0.9-4.7,0.8
			C383.6,574,383.3,571.9,382.8,570.2z"/>
		<path class="finger-svg" d="M382.6,587.5c1.4,0.6,2.8,1.1,4.2,1.7c0,0.3,0,0.7,0,1c-1.4,0.4-2.7,0.9-4.1,1.3c-0.3-1.2-0.5-2.3-0.8-3.5
			C382.1,587.9,382.3,587.7,382.6,587.5z"/>
		<path class="finger-svg" d="M385,698.9c-4,1.2-4.9,0.7-5.5-3.2C381.5,696.4,383.4,696.9,385,698.9z"/>
		<path class="finger-svg" d="M375.3,686c1.5,0.9,3.1,1.7,4.6,2.6c0,0.2,0,0.5-0.1,0.7c-0.9,0.3-2.4,1.2-2.7,0.9c-1-1-1.6-2.5-2.4-3.7
			C375,686.3,375.2,686.1,375.3,686z"/>
		<path class="finger-svg" d="M395.1,548.5c-3.4,1.7-4.5,1.1-5.3-2.5C391.6,546.8,393.2,547.6,395.1,548.5z"/>
		<path class="finger-svg" d="M381.7,604.9c3.8,1.1,3.9,1.4,1.6,5C382.7,608.2,382.3,606.7,381.7,604.9z"/>
		<path class="finger-svg" d="M382.4,707.1c1.8,0.8,3.1,1.4,4.6,2.1C384.6,711.3,383.3,710.8,382.4,707.1z"/>
		<path class="finger-svg" d="M384.2,828.1c1.5,1,2.7,1.8,4.1,2.7C385.5,831.8,383.9,830.9,384.2,828.1z"/>
		<path class="finger-svg" d="M399.2,525.7c-0.6-0.9-1.2-1.7-2-2.9c1-0.3,1.8-0.6,2.9-1c-0.2,1.5-0.3,2.6-0.4,3.8
			C399.5,525.6,399.3,525.7,399.2,525.7z"/>
		<path class="finger-svg" d="M387.8,805.2c-0.5-1.5-0.9-2.5-1.3-3.7c1.2,0,2.1,0,3.4,0C389.2,802.7,388.6,803.7,387.8,805.2z"/>
		<path class="finger-svg" d="M385.7,782.9c-1-0.5-1.9-1-2.9-1.6c0-0.2,0-0.4,0.1-0.7c1,0,2.1-0.1,3,0.1c0.2,0,0.2,1.2,0.3,1.8
			C386.1,782.7,385.9,782.8,385.7,782.9z"/>
		<path class="finger-svg" d="M384.2,614.7c0.9-0.3,1.4-0.5,2.3-0.8c0.1,1.4,0.2,2.5,0.2,3.6c-0.2,0.1-0.3,0.1-0.5,0.2
			C385.6,616.8,385,615.9,384.2,614.7z"/>
		<path class="finger-svg" d="M221.4,24.8c-1.2-1.5-2-2.5-2.8-3.6c-0.7-1.1,0.4-4.7,1.5-5.1c1.1-0.4,3.1,1.3,2.8,2.6
			C222.6,20.6,222,22.4,221.4,24.8z"/>
		<path class="finger-svg" d="M323,292.8c0.7,2.1,0.2,3.8-0.9,5.1c-2.6,2.9-5.5,5.6-8.3,8.5c-0.7,0.7-1.4,1.4-1.9,2.2
			c-1.4,2.1-2.5,4.4-4.1,6.2c-5.1,5.9-10.2,11.7-15.5,17.4c-2.9,3.2-3.1,7.1-3.6,11.2c0.6-0.1,1.1-0.2,1.5-0.3
			c3.3-0.7,5.5,1.6,4.4,4.8c-1.5,4.3-3.3,8.4-4.9,12.7c-1,2.8-1.9,5.6-2.9,8.4c-0.5,1.6-1.4,2.7-3.2,2.6c-1.7,0-1.9-1.4-2.1-2.5
			c-0.6-2.3-1.9-3.1-4.2-3.1c-3.6-0.1-5.4-3-4.1-6.4c1.1-3,2.2-6.1,3.3-9.1c0.4-1,0.5-2.4,2.1-2.2c1.6,0.2,2.4,1,2.6,2.6
			c0.3,2.6,0.6,5.3,0.8,7.9c2.2-1.7,3.9-6.2,2.9-8.7c-1.7-4.5-3.6-8.9-5.5-13.3c-0.5-1.1-1.6-1.9-2.4-3c-2.2,8.8-4.2,17-6.3,25.4
			c-1.8-0.6-3.2-1-4.9-1.5c0.9-3.1,1.5-6.2,2.6-9.1c2.2-5.6,4.5-11.2,7-16.7c1.1-2.4,2.8-4.7,4.6-6.8c2-2.4,3.9-4.7,5-7.7
			c0.7-2,2.2-3.9,3.6-5.6c6.2-7.2,12.4-14.4,18.8-21.5c2-2.2,4.3-4,6.5-6.1c1.4,2,1.7,3.7,0.2,5.5c-1.7,2.2-3.5,4.4-5.3,6.8
			c-0.7-1-1.4-1.8-2.3-2.9c0.3,2.4,0.6,4.4,0.8,6.6c-1.7-0.3-3.2-0.5-4.6-0.8c-0.1,0.2-0.3,0.3-0.3,0.4c0.5,4.5-1.8,7.5-4.8,10.5
			c-2.7,2.8-4.9,6.1-7.4,9.2c-1.9,2.4-3.7,4.8-5.6,7.1c-1.4,1.7-2.5,3.5-2.1,5.7c2.3-0.8,4.5-1.5,6.7-2.3c0.4-0.2,0.9-0.8,0.9-1.3
			c0.4-3.6,2.4-6.4,5-8.5c3.6-3,6.4-6.6,9.1-10.3c2.2-3,4-6.4,7.9-7.6c0.6-0.2,1-1,1.5-1.5c2.2-2.2,4.3-4.4,6.5-6.6
			C321.3,293.7,322.1,293.4,323,292.8z"/>
		<path class="finger-svg" d="M250,340.7c-1-0.7-1.9-1.3-2.7-1.8c-2.1-1.3-2.9-3.2-2.2-5.6c1.7-5.7,3.1-11.5,5.4-17
			c3.2-7.7,6.8-15.2,10.6-22.7c1.5-3,3.9-5.5,5.8-8.3c1.5-2.2,2.7-4.5,4.1-6.7c0.9-1.5,1.8-3.1,2.9-4.4c1.2-1.4,2.8-2.5,4.2-3.7
			c2.3-2,4.1-4.3,4.7-7.5c0.6-3.6,3.1-6,6.5-7.2c1.9-0.7,2.9-1.8,3.8-3.5c0.6-1.2,1.9-2,2.9-3c2.6-2.4,5.2-4.9,7.8-7.3
			c1.9-1.8,3.7-3.8,5.7-5.5c1.3-1.1,2.4-0.6,2.4,1.2c0,1.3-0.2,2.9-1,3.8c-2,2.3-4.3,4.6-6.8,6.5c-1.5,1.2-2.9,2.2-3.8,3.9
			c-2,4-4.4,7.7-8.2,10.4c-1,0.7-1.5,2-2.1,3.1c-1.2,2.3-2.3,4.8-3.6,7.1c-0.9,1.7-2.2,2.9-4.3,3.3c-0.8,0.2-1.6,0.9-2.1,1.6
			c-2.5,3.4-4.8,7-7.2,10.5c-0.1,0.1-0.2,0.3-0.3,0.3c-3.2,1.3-4.1,4-4.1,7.7c-1.2-1.3-1.9-2.1-2.6-2.9c-0.1,0.1-0.3,0.1-0.4,0.2
			c0.1,0.7,0,1.5,0.3,1.9c1.4,1.8,0.7,3.4-0.3,5c-5.4,8.5-9.5,17.6-12.3,27.3C251.7,331.6,251,336,250,340.7z M250.9,327.5
			c-0.3-0.1-0.5-0.2-0.8-0.2c-0.5,1.5-1,3-1.4,4.5c0.3,0.1,0.5,0.2,0.8,0.3C250,330.5,250.5,329,250.9,327.5z"/>
		<path class="finger-svg" d="M309.8,257.7c-2.3,4.3-4.7,8.5-8.8,11.5c-1.7,1.3-3.1,3.4-4.1,5.4c-1.9,3.8-3.8,7.5-7,10.5
			c-1.8,1.7-3,4.1-4.6,6c-1.8,2.1-3.7,4.1-5.5,6.2c-0.6,0.7-1,1.7-1.5,2.6c-1.7,3.5-3.1,7.1-5.1,10.4c-5.5,8.9-10.5,18-12.9,28.3
			c-0.6,2.4-1.6,4.8-2.7,7c-1,2.2-2.5,2.1-3.9,0.2c-1.2-1.6-1.4-3.2-0.8-5.2c2.1-6.9,3.9-13.8,6-20.7c0.6-2.1,1.5-4.2,2.6-6.1
			c4.5-8.1,9.3-16,15.6-23c1.7-1.9,2.8-4.3,4.4-6.1c1.8-1.9,3.9-3.4,5.9-5.2c0.6-0.5,1.1-1.2,1.5-1.9c0.8-1.4,1.2-3.2,2.2-4.3
			c4.9-4.9,10.1-9.7,15.2-14.4c0.8-0.8,2-1.2,3-1.8C309.5,257.3,309.7,257.5,309.8,257.7z"/>
		<path class="finger-svg" d="M292.5,370.8c-0.5,1.3-0.9,2.3-1.4,3.2c-0.2,0.4-0.8,0.6-1.3,0.9c-0.3-0.5-0.8-1.1-0.8-1.5
			c0.5-2.8,0.7-5.8,2-8.3c3.5-7.1,7-14.3,11.3-20.8c5.8-8.6,14-15,22-21.5c0.9-0.7,2.1-1,3.4-1.2c-2.6,4.5-4.3,9.3-8.4,12.8
			c-3.5,3-6.1,7-9.3,10.4c-1.6,1.8-3.5,3.3-5.3,5c-0.3,0.2-0.6,0.5-0.7,0.8c-2.7,5.9-5.3,11.9-7.9,17.8c0.3,0.2,0.6,0.4,0.8,0.6
			c2.3-2.8,5-5.4,6.9-8.4c4.2-6.9,9.3-12.9,15.3-18.4c1.2-1.1,2.7-2.1,4.4-3.4c-0.7,4.9-2.7,8.7-5.3,12.2c-0.4,0.6-1.5,0.9-2.2,0.9
			c-1.5,0-2.4,0.7-3,2c-0.8,1.8-1.5,3.6-2.3,5.4c-1.7,4-3.4,7.9-5,11.9c-0.8,2.1-1.4,4.4-1.9,6.6c-0.4,1.4-0.4,3-2.3,3.2
			c-2,0.3-3.4-0.6-4.3-2.2c-0.4-0.7-0.5-1.6-0.8-2.4c-0.2-0.5-0.4-1.3-0.5-1.3C293.5,374.9,293.3,372.8,292.5,370.8z"/>
		<path class="finger-svg" d="M263.2,353.7c-1.6-3.2-3.3-5.9-1.6-10c2.4-5.6,3.8-11.6,5.4-17.5c0.8-3,2.2-5.4,4.5-7.6
			c2.3-2.2,4.1-5,5.7-7.7c1.7-2.8,3-5.9,4.5-8.8c3.5,1.5,4.5,3,3.7,6.4c-0.6,2.5-1.3,5.4-3,7.3c-7.8,8.7-11.5,19.5-16.1,29.9
			C265.2,348.2,264.3,350.9,263.2,353.7z"/>
		<path class="finger-svg" d="M299,343.6c-1.9-0.8-3.6-1.4-5.5-2.2c0.6-1.1,1.2-2.1,1.7-3c1.2-2.2,2.6-4.3,3.7-6.6c1.8-3.8,4.1-6.8,7.9-8.8
			c1.5-0.8,2.5-2.2,4.1-3.6c0.6,0.7,1.4,1.5,2.2,2.4c0.6-2.1,1.2-4.2,1.9-6.2c0.3-0.9,1-2,1.7-2.4c1-0.5,2.3-0.4,3.4-0.6
			c0.1,0.9,0.5,2,0.1,2.7c-2.6,6.1-6,11.7-11.5,15.9c-1.7,1.3-3,3.2-4.4,4.9C302.5,338.4,300.8,341,299,343.6z M307.2,326
			c-4.1,3.4-4.5,4.4-2.1,5.4C305.8,329.8,306.4,328.1,307.2,326z"/>
		<path class="finger-svg" d="M287.1,214.8c-1.1,5.9-4,10.4-8.9,13.8c-1.6,1.1-2.8,3.2-3.7,5.1c-2.5,4.7-6,8.4-10.2,11.5
			c-0.2,0.1-0.5,0.1-1.2,0.2c0.3-4.4-1.5-8.8,2.2-12.5c1.5-1.5,2.4-3.4,3.9-4.9c1.1-1.1,2.6-2.1,4.1-2.5c1.9-0.6,3.3-1.6,4.2-3.4
			c0.3-0.7,0.8-1.4,1-2.1C279.8,215.7,283.1,214.7,287.1,214.8z M267.9,238.7c0.7-1.6,1.3-3.1,2-4.9
			C266.4,235.3,266.2,235.8,267.9,238.7z"/>
		<path class="finger-svg" d="M305.9,275.9c0.5,4,0.4,7-1.9,9.7c-1.1,1.2-1.8,2.7-2.9,4c-0.7,0.9-1.4,2.2-2.4,2.4c-2.8,0.8-3.3,2.9-4.1,5.3
			c-0.8,2.4-2.3,4.6-3.8,6.7c-0.4,0.7-1.8,1.3-2.4,1.1c-0.7-0.2-1.4-1.4-1.5-2.2c-0.5-4.3,0.3-8,3.8-11.1c2.4-2.1,4-5,6.2-7.3
			C299.7,281.7,302.6,279.1,305.9,275.9z"/>
		<path class="finger-svg" d="M259.7,192.7c2.2-2,4.1-3.8,6.1-5.6c3.5-3.1,7.2-6.1,10.6-9.4c1.8-1.7,3.7-2.5,6.2-2.5c1.6,0,1.9,0.8,1.4,2
			c-0.4,0.9-0.9,1.9-1.6,2.5c-2.3,2.1-4.8,4.1-7.1,6.3c-2.5,2.3-4.8,4.9-7.2,7.3c-1.4,1.4-2.9,2.7-4.4,4.1
			C262.4,196,261.2,194.6,259.7,192.7z"/>
		<path class="finger-svg" d="M262.4,181.8c1-4.9,2.7-8.8,5.9-11.8c0.9-0.9,2.8-0.8,4.3-1c1.6-0.2,2.6-0.9,3.8-2c2.6-2.4,5.7-4.2,8.7-6.2
			c0.3-0.2,1.5,0.2,1.8,0.6c0.3,0.4,0.3,1.6,0,1.8c-2.3,1.9-4.6,3.9-7,5.5c-1.1,0.8-2.8,0.8-3.9,1.6c-1.5,1.1-3,2.4-4,3.9
			C269.5,177.7,266.4,179.8,262.4,181.8z"/>
		<path class="finger-svg" d="M285.5,177c-0.3-2.8,0.1-4.8,2-6.3c1-0.7,1.9-1.5,3-2.1c0.7-0.4,2.1-0.7,2.4-0.3c0.6,0.8,1.2,2.2,0.9,2.9
			c-0.5,1.3-1.6,2.6-2.7,3.4C289.5,175.6,287.6,176.1,285.5,177z"/>
		<path class="finger-svg" d="M294.6,222.5c0,4.2-3.7,9.1-7.2,9.8c-0.6,0.1-1.3-0.1-1.8-0.4c-0.2-0.2-0.1-1.1,0.1-1.5
			c1.3-2.8,3-5.3,5.7-6.8C292.3,223,293.4,222.9,294.6,222.5z"/>
		<path class="finger-svg" d="M279.4,208.5c2.1-4.9,3.8-9.8,9.4-11.3C289.5,201.4,285.2,206.6,279.4,208.5z"/>
		<path class="finger-svg" d="M291.6,240.6c-0.5,5.2-3.9,8.8-7.3,12.9c-0.3-1.7-0.6-3-0.6-4.2c0-0.8,0.3-2,0.9-2.3c1.8-0.9,2.3-2.5,3.1-4.1
			c0.6-1.2,2.3-1.9,3.5-2.9C291.3,240.2,291.5,240.4,291.6,240.6z"/>
		<path class="finger-svg" d="M356.7,363.2c-0.2,2.2-0.4,4.4-0.7,6.6c-0.1,0.4-0.7,0.8-1.2,1c-0.8,0.3-1.7,0.5-2.5,0.6
			c-0.9,0.1-1.8,0-2.7,0c0.2-1,0.2-2.1,0.8-2.9c1.1-1.6,2.4-3,3.7-4.4c0.5-0.5,1.3-0.8,1.9-1.1C356.3,362.9,356.5,363,356.7,363.2z"
			/>
		<path class="finger-svg" d="M305.8,212.8c0,4.4-5.3,9.1-9.7,8.6C298.5,217.6,300.7,213.7,305.8,212.8z"/>
		<path class="finger-svg" d="M304.2,229.8c-2.7,3.6-5,6.7-7.5,10.1c-0.9-1.2-1.7-2.2-2.7-3.5C297.1,234.1,299,230.2,304.2,229.8z"/>
		<path class="finger-svg" d="M297.8,205.2c-2.8,3.8-4.4,8.2-9.1,9.8C288.7,210.3,292.8,205.7,297.8,205.2z"/>
		<path class="finger-svg" d="M298.3,164.7c2.6-1,4.9-1.9,7.8-3c-0.7,4.2-3.9,6.1-6.1,9.4C299.4,168.7,298.9,166.8,298.3,164.7z"/>
		<path class="finger-svg" d="M300.4,188.3c0.1,2.4-4.9,6.9-9.8,8.9C291.9,192.1,296.1,190.2,300.4,188.3z"/>
		<path class="finger-svg" d="M294.5,181.5c0.8-5.2,4.1-6.8,9-7.4C301.4,178.2,297.6,179.3,294.5,181.5z"/>
		<path class="finger-svg" d="M289.5,162.8c0-1.7-0.4-3.6,0.1-3.8c1.9-0.9,4-1.7,6.1-1.8c1.1-0.1,0.7,1.2,0,1.9c-0.3,0.3-0.6,0.6-1,0.8
			C293.3,160.7,291.8,161.6,289.5,162.8z"/>
		<path class="finger-svg" d="M326.5,339.1c0.4-2.5,0.7-4.9,3-6.2c0.7-0.4,1.7-0.1,2.6-0.2c-0.3,0.8-0.4,1.8-0.9,2.4
			C329.8,336.6,328.1,337.8,326.5,339.1z"/>
		<path class="finger-svg" d="M328.3,305.9c-0.1,3-1.7,4.7-4.1,5.7c-1.7-3-1.6-3.4,1.4-4.6C326.4,306.6,327.2,306.3,328.3,305.9z"/>
		<path class="finger-svg" d="M309.4,273.2c1-3.9,1.8-4.4,5.6-3.9C314.2,272.5,312.1,274,309.4,273.2z"/>
		<path class="finger-svg" d="M348.2,418.4c1.9,0.2,3.1,0.2,4.3,0.4c0.6,0.1,1.2,0.5,1.5,1c0.1,0.2-0.4,1.1-0.8,1.3c-1,0.5-2.5,1.3-3.1,1
			C349.2,421.5,349,420,348.2,418.4z"/>
		<path class="finger-svg" d="M352.2,431.3c2.2,0.2,4.4,0.4,7,0.7c-1.1,2.2-2.6,2.4-3.9,2.1c-1.2-0.2-2.3-1.2-3.5-1.8
			C352,432,352.1,431.7,352.2,431.3z"/>
		<path class="finger-svg" d="M352.4,398.4c1.6,0.4,2.7,0.4,3.5,1c0.5,0.4,0.9,1.4,0.8,2.2c0,0.5-0.8,1-1.2,1.6c-0.6-0.5-1.3-0.9-1.6-1.5
			C353.3,400.9,353,399.9,352.4,398.4z"/>
		<path class="finger-svg" d="M356.9,412.1c-1,0.2-2.5,0.8-3,0.4c-0.9-0.7-1.2-2.2-1.7-3.3c0.2-0.2,0.4-0.4,0.7-0.6
			c1.4,0.9,2.8,1.8,4.2,2.6C357,411.6,356.9,411.9,356.9,412.1z"/>
		<path class="finger-svg" d="M309.6,159.7c0.9,0.5,1.8,0.9,2.6,1.4c0.5,0.4,0.9,1,1.1,1.6c0,0.1-0.7,0.8-1.1,0.8c-0.7-0.1-1.6-0.3-2-0.8
			c-0.6-0.7-0.7-1.8-1.1-2.7C309.3,160,309.5,159.8,309.6,159.7z"/>
		<path class="finger-svg" d="M260.4,200.2c-0.4-0.9-0.7-1.8-1.2-2.9c0.9-0.1,1.6-0.2,2.7-0.4c-0.4,1.3-0.7,2.3-0.9,3.3
			C260.7,200.2,260.6,200.2,260.4,200.2z"/>
		<path class="finger-svg" d="M249.7,171.7c-0.2,1.4-0.4,2.6-0.6,4C247.4,173.4,247.5,172.8,249.7,171.7z"/>
		<path class="finger-svg" d="M84.7,108.6c0.4,1.2,0.8,2.2,1.1,3.3c0.8,2.8,0.3,4.8-2.2,6.1c-10.7,5.8-21.5,10.8-34.2,7.5
			c-2.9-0.7-4.9-1.7-5.8-4.7c-1-3-2.4-5.9-3.4-8.8c-0.3-1-0.5-2.5-0.1-3.3c2.1-3.7,4.2-7.5,6.8-10.9c2-2.6,5-3.8,8.5-3
			c1.8,0.4,3.2-0.2,4-1.8c1.1-2.1,2.5-2.3,4.7-1.4c2.1,0.8,4.5,1.2,6.7,1c6-0.6,10,2.5,13.7,6.4c1.4,1.5,2.5,3.5,3.4,5.5
			c1.1,2.3,0.5,3.2-2,3.7C85.5,108.4,85.2,108.5,84.7,108.6z M58.3,100.3c1.5,0.6,2.8,1.2,4.2,1.6c3.5,0.9,6,2.8,7.5,6.2
			c0.9,2.2,2.6,2.2,3.7,0.1c0.5-1,0.6-2.8,0-3.8c-0.9-1.9-2.3-3.6-3.7-5.2C66.5,95.3,61.4,95.7,58.3,100.3z M45.5,106.7
			c-3,0.4-3.6,1.4-2.4,4.2C45.4,110.1,46,109.2,45.5,106.7z M73.3,113.6c-0.1-0.1-0.2-0.3-0.3-0.4c-0.9,0.5-1.9,0.9-2.6,1.7
			c-0.2,0.3,0.5,1.4,1,2.6C72.2,115.8,72.8,114.7,73.3,113.6z"/>
		<path class="finger-svg" d="M144.9,77.6c3.2-0.8,6.4-1.9,9.7-2.4c13.6-1.8,27.1-1.8,40.7-0.3c4.9,0.5,9.8,0.5,14.7,1
			c4.6,0.4,9.1,1.1,13.7,1.8c0.7,0.1,1.3,0.6,1.9,0.9c-0.7,0.4-1.5,1.2-2.1,1.2c-4.1-0.2-8.2-0.6-12.3-1c-5.4-0.6-10.9-1.3-16.3,0.4
			c-0.9,0.3-2.3-0.1-3.2-0.7c-1.4-0.9-2.8-1.2-4.5-0.9c-13.3,2.3-26.7,2.3-40.1,1.3c-0.7-0.1-1.4-0.3-2.1-0.4
			C145,78.2,145,77.9,144.9,77.6z"/>
		<path class="finger-svg" d="M242.2,82.3c3.1-2.4,6.2-3,10-2.1c11.9,2.8,23.8,5.3,35.8,7.9c0.6,0.1,1.3,0.3,1.9,0.5
			c2.5,0.8,2.6,1.2,1.3,3.6c-3.7-1.1-7.3-2.5-11.1-3.4c-9.2-2-18.5-3.9-27.8-5.6C249,82.6,245.6,82.6,242.2,82.3z"/>
		<path class="finger-svg" d="M115.7,80.5c7.9-2.9,15.4-4.5,23.1-4.9c0.6,0,1.3,0,1.7,0.3c0.9,0.6,1.6,1.5,2.4,2.2
			c-0.8,0.6-1.5,1.5-2.4,1.7c-7,1.9-14.2,2.2-21.4,1.6C118.2,81.4,117.3,81,115.7,80.5z"/>
		<path class="finger-svg" d="M322.8,102.7c6.9,4.8,13.9,9,19.5,15.5C338.7,118.9,324,106.9,322.8,102.7z"/>
		<path class="finger-svg" d="M89.5,84.5c4.8-3,10-4.1,15.5-3.4c-0.9,3.6-1.5,4-4.9,3.9C96.6,84.9,93.1,84.7,89.5,84.5z"/>
		<path class="finger-svg" d="M64.8,142.9c2.2,0.4,4.2,0.6,6.1,1.1c0.6,0.2,0.9,1.2,1.3,1.8c-0.6,0.4-1.1,0.8-1.8,1c-0.4,0.2-1,0-1.5,0
			C65.4,146.7,65.4,146.7,64.8,142.9z"/>
		<path class="finger-svg" d="M291.1,458.6c-2.6,2.6-5.1,5.4-7.9,7.8c-0.7,0.6-2.6-0.1-4.4-0.2c3.3-4.4,7.2-6.7,11.6-8.3
			C290.6,458.1,290.9,458.4,291.1,458.6z"/>
		<path class="finger-svg" d="M290.9,456.6c3.9-3.3,7.7-6.5,11.4-9.7c0.2,0.1,0.3,0.2,0.5,0.3c-0.3,0.7-0.4,1.6-0.9,2.2
			c-1.9,2.3-3.9,4.6-6,6.8C294.5,457.6,292.8,457.5,290.9,456.6z"/>
	</g>
</g>
</svg>
