<svg version="1.1" id="Layer_1" xmlns="http://www.w3.org/2000/svg" xmlns:xlink="http://www.w3.org/1999/xlink" x="0px" y="0px"
	 viewBox="0 0 329 284" style="enable-background:new 0 0 329 284;" xml:space="preserve">
<path d="M319.2,228.6c-1.1-2.4-2.7-4.4-4.2-5.8c-1.5-1.5-3.1-2.4-4.3-3.1c-0.6-0.4-1.2-0.6-1.7-0.8s-0.9-0.4-1.3-0.5
	c-0.7-0.2-1-0.4-1-0.4l0,0c-1.4-0.6-2.9-1-4.5-1c-5.9,0-10.7,4.8-10.7,10.7s4.8,10.7,10.7,10.7c5.1,0,9.4-3.6,10.5-8.5
	c0.2,0.4,0.5,0.8,0.7,1.3c1.6,3.3,1.7,8.2-0.5,13c-1.1,2.4-2.8,4.8-5,7c-1.1,1.1-2.4,2.1-3.7,3l-1,0.7l-1.2,0.7l-0.6,0.4h-0.1
	c0.2-0.1,0,0,0,0l-0.1,0.1l-0.3,0.2l-1.2,0.7c-6.3,3.5-13.9,6.3-22.1,8.1c-8.2,1.8-17.1,2.3-25.9,1.2c-8.9-1.2-17.7-4-25.5-8.7
	c-7.9-4.6-14.7-11.1-20.3-18.4c-5.6-7.4-10.1-15.8-13.7-24.4c-3.6-8.7-6.4-17.7-8.5-26.5c-0.3-1.1-0.5-2.3-0.8-3.4
	c-0.3-1.4-0.7-2.8-1.2-4.2c-0.9-2.8-1.9-5.6-3.2-8.2c-1.3-2.7-2.9-5.2-4.6-7.6c-1.8-2.4-3.7-4.6-5.8-6.6c-2.7-2.6-5.6-4.7-8.6-6.5
	c2.3-1,4.7-2,7.1-3.3c5.2-2.7,10.4-6.3,15.2-10.8s9.1-10,12.5-16.2c1.7-3.1,3.1-6.4,4.3-9.7c1.2-3.4,2.1-6.8,2.8-10.3
	c0.6-3.5,1.1-7.1,1.2-10.6c0.1-0.9,0.1-1.8,0.1-2.7v-2.9l-0.1-2.3c0-0.4,0-0.8-0.1-1.3l-0.1-1.5c-0.3-3.8-0.9-7.4-1.7-11.1
	s-2-7.3-3.5-10.9c-2.9-7.1-7-13.9-12.1-19.8c-10.1-11.8-23.4-20.2-37.3-25.1c-13.9-4.9-28.4-6.7-42.4-6.1c-14,0.5-27.4,3.2-39.9,7.3
	c-3.1,1-6.2,2.1-9.1,3.3c-3,1.2-5.8,2.5-8.8,3.9c-5.9,3-11.1,6.5-15.8,10.6c-9.3,8.1-15.9,18-19.9,27.9S6.3,79.9,6.7,88.6
	s2.6,16.4,6.4,21.9c1.8,2.8,4.1,4.9,6.3,6.5c2.2,1.5,4.4,2.4,6.2,2.9s3.2,0.7,4.1,0.7c0.5,0,0.9,0,1.1,0.1c0.7,0.1,1.4,0.2,2.1,0.2
	c6.9,0,12.4-4.9,12.4-11s-5.6-11-12.4-11c-6.6,0-12,4.6-12.4,10.4c-0.6-0.7-1.2-1.5-1.8-2.4c-2.8-4.2-4.6-10.7-4.6-18.3
	s1.7-16.3,5.6-24.9c3.9-8.5,10.1-16.9,18.5-23.5c4.2-3.3,8.9-6.2,14-8.4c2.5-1.1,5.3-2.2,8.1-3.1c2.8-0.9,5.7-1.8,8.6-2.5
	c11.6-3,24-4.2,36.4-3.6c6.2,0.3,12.3,1.2,18.3,2.5s11.9,3.1,17.4,5.5c11,4.8,20.6,12.1,26.5,21.2s8.3,19.6,8.6,29.8v0.9
	c0,0.3,0,0.6,0,1v2.3c0-0.1,0,0.3,0-0.1v0.1V86v0.5v1c0,0.7,0,1.3-0.1,2c-0.1,2.6-0.4,5.1-0.7,7.6c-0.4,2.4-0.8,4.8-1.3,7.1
	c-0.6,2.3-1.2,4.4-2.1,6.5c-3.2,8.3-9.1,14.8-16.2,19.3c-7,4.6-14.9,7.3-22.1,9.2c-3.6,0.9-7.1,1.7-10.3,2.3s-6.3,1.1-9,1.4
	c-3.2,0.4-6,0.7-8.3,0.9c0-26.7,0.1-54.8,0.1-67.8c0.1-2,0.3-5.9,0.4-6.1c0.3-2.1,1.6-5.8,5.6-8.1l2.1-1.3c1-0.6,1.4-1.9,0.9-3
	l-2-4.3c-0.6-1.2-2-1.7-3.2-1.1c-2,1-16.2,8.4-28.7,14.3c-1.7,0.8-6.6,3.2-7.2,3.4c-0.2,0-0.3,0.1-0.4,0.2l-1.3,0.6
	c-3.4,1.3-3.7,3.8-2.7,6.1c0.9,2.1,3,3.6,5.4,3.6c6.3-0.1,7.9,11.2,7.8,15.4l0.1,122.8c-0.1,1.8-0.3,4.9-0.3,5.1
	c-0.3,2.1,0.4,4.6-5.6,8.1l-2.1,1.3c-1,0.6-1.4,1.9-0.9,3l2,4.3c0.6,1.2,2,1.7,3.2,1.1c2-1,16.2-8.4,28.7-14.3
	c1.7-0.8,6.6-3.2,7.2-3.4c0.2,0,0.3-0.1,0.4-0.2l1.3-0.6c3.3-1.3,3.7-3.8,2.8-6s-3.1-3.7-5.5-3.9c-3.9-0.3-7.5-3.1-8-12.1
	c0-6.9,0-20.6,0-36.7c3.4,0,7.1,0.1,11.1,0.2c5.7,0.2,12,0.9,18.1,2.7c6.1,1.7,11.9,4.5,16.2,8.8c2.2,2.1,4.1,4.6,5.6,7.6
	c0.8,1.5,1.5,3.1,2.1,4.8c0.3,0.9,0.6,1.7,0.8,2.7c0.4,1.2,0.7,2.4,1.1,3.6c2.9,9.8,6.6,19.8,11.7,29.5c5,9.7,11.3,19.2,19.1,27.4
	c7.8,8.2,17.1,15.2,27.4,19.9c10.2,4.7,21.1,7.1,31.5,7.5c10.4,0.5,20.4-1,29.4-3.4c9-2.5,17.1-6.1,24.1-10.5l1.3-0.8l0.7-0.5
	l0.6-0.4l1.1-0.8l1.3-1c1.6-1.4,3.1-2.7,4.4-4.2c2.7-2.9,4.7-6.2,6-9.6s1.9-6.8,1.7-10C321.1,233.9,320.4,231,319.2,228.6z"/>
</svg>
