<svg version="1.1" id="Layer_1" xmlns="http://www.w3.org/2000/svg" xmlns:xlink="http://www.w3.org/1999/xlink" x="0px" y="0px"
	 viewBox="0 0 1226.9 316.5" style="enable-background:new 0 0 1226.9 316.5;" xml:space="preserve">
<path d="M857.2,241.7c0,2.8,0,15.9,0,21.3h0c0,0,0,0,0,0.1c0,0.1,0,0.1,0,0.2c0,0.3,0.1,0.6,0.1,0.8
	c0,0.3,0.3,0.5,0.5,0.7c0.3,0.3,0.9,0.6,1.6,0.8c0,0,0.1,0,0.2,0c0.8,0,1.6,0,2,0.2c0.6,0.6,0.8,2.3-0.7,2.2h-0.3c0,0-0.1,0-0.1,0
	c-0.1,0-0.3,0-0.5-0.1c-0.8-0.1-1.6-0.1-2.3-0.2c-1.2-0.1-2.1-0.1-2.5-0.1c-3.2,0-5.8,0.1-7.8,0.4c-0.1,0-0.5,0-1,0
	c-0.3,0-0.6-0.2-0.6-0.5v-1.1c0-0.3,0.2-0.5,0.5-0.5l0.6-0.1c1.1-0.1,1.8-0.2,2.1-0.4c0.3-0.2,0.9-0.5,1.2-0.9
	c0-0.1,0.1-0.2,0.2-0.5c0.2-0.6,0.3-1.2,0.3-1.8v-21l0-0.6c0,0-5.1,3.4-5.7,3.3c-0.9-0.2-1.4-1.5-1-1.8c9.9-6,7.9-7.2,9.6-7.2
	c2.1,0,3.2,0.1,3.2,0.1s0.6-0.2,0.7,1.1C857.3,236.5,857.2,239.9,857.2,241.7z"/>
<path d="M371.7,259c-0.4-0.1-0.9-0.1-1.1,0.5c-2.2,5.2-3.4,6.1-16.9,5.6c0,0-1.2-0.7-1.2-4.2c0-1.1,0-3.7,0-6.8
	c0.5,0.1,0.9,0.1,1.4,0.2c0.4,0.1,0.8,0.1,1.2,0.2c0.4,0.1,0.8,0.1,1.2,0.1c0.8,0.1,1.6,0.1,2.4,0.1c0.8,0,1.6-0.1,2.3-0.3
	c0.8-0.2,1.5-0.4,2.1-0.8c0.6-0.4,1.2-0.8,1.5-1.3c0.4-0.5,0.6-0.9,0.7-1.2c0.1-0.3,0.2-0.6,0.3-0.8c0.1-0.2,0.1-0.3,0.1-0.3
	l-0.4-0.3c0,0-0.1,0.1-0.3,0.2c-0.2,0.1-0.4,0.2-0.7,0.4c-0.3,0.2-0.6,0.4-1,0.5c-0.4,0.1-0.8,0.2-1.2,0.3c-0.4,0-1,0-1.5,0
	c-0.6,0-1.2-0.1-1.9-0.2c-0.7-0.1-1.4-0.2-2.1-0.3c-0.4-0.1-0.7-0.1-1.1-0.2c-0.4-0.1-0.7-0.1-1.1-0.2c-0.7-0.1-1.4-0.2-2-0.2
	c0-3.4,0-6.9,0-9.1h0c0,0,0,0,0-0.1c0-0.1,0-0.1,0-0.2c0-0.3,0.1-0.6,0.1-0.7c0-0.2,0.3-0.5,0.5-0.6c0.3-0.3,0.8-0.6,1.5-0.8
	c0,0,0.1,0,0.2,0c2,0,4.6,0.1,7.7,0.6c5.3,0.8,4.3,4.5,6.1,4.5c1.1,0,1.4-1.4,0.4-6c-0.5-2.4-2.4-1.7-6-1.7c-2.9,0-9.4,0.5-10.1,0.6
	c-1.2,0.1-2,0.1-2.4,0.1c-3.1,0-5.6-0.1-7.5-0.3c-0.1,0-0.3,0-0.7,0c-0.4,0-0.7,0.3-0.7,0.7v0.7c0,0.4,0.3,0.7,0.6,0.7l0.4,0
	c1,0.1,1.7,0.2,2,0.4c0.3,0.2,0.9,0.5,1.1,0.9c0,0,0.1,0.2,0.2,0.4c0.2,0.6,0.3,1.2,0.3,1.8v9.7c-0.3,0.2-0.5,0.3-0.8,0.5
	c-1.1,0.8-1.8,1.7-2.2,2.3c-0.2,0.3-0.3,0.6-0.4,0.8c0,0.1-0.1,0.2-0.1,0.2c0,0.1,0,0.1,0,0.1l0.4,0.3c0,0,0,0,0.1,0
	c0,0,0.1-0.1,0.2-0.1c0.2-0.1,0.4-0.2,0.7-0.3c0.5-0.2,1.3-0.5,2.1-0.7v7.1c0,0,0.1,3.7-1.9,4.1c-0.2,0.1-1.7,0.2-2.3,0.3
	s-0.3,1-0.4,1.5c-0.1,0.5,2.1,0.2,3.4,0.3c2.1,0.1,18.1-0.5,20.9,0s5.4-0.2,5.7-3.1c0.2-1.8,0.8-4.2,0.8-4.9
	C372.3,259.4,372.1,259.1,371.7,259z"/>
<path d="M392.4,236.2c0.7,0.2,1.2,0.8,1.3,1.4c0.1,0.4,0.1,0.9,0.2,1.4c0.2,1.7,0.3,3,0.3,3.9c0,0.3,0,0.7-0.1,0.9
	s-0.7,0.1-0.7,0.1l-0.9-0.1c-0.4,0-0.8-0.3-0.9-0.7c0,0,0,0,0-0.1c-0.2-0.9-1.2-2.9-2-3.7c-1.3-1.3-2.8-2-4.5-2
	c-1.6,0-2.9,0.4-3.9,1.3c-1,0.8-1.4,1.9-1.4,3.1c0,1.1,0.5,2.1,1.4,3c0.9,1,2.9,1.9,5.9,2.8c1,0.3,2.2,0.8,3.7,1.4
	c1.4,0.7,2.5,1.4,3.3,2.1c1,1,1.7,2,2.1,2.9c0.4,0.9,0.6,2.1,0.6,3.5c0,1.5-0.3,3.1-0.9,4.6c-0.3,0.8-0.8,1.5-1.5,2.2
	c-0.5,0.5-1.3,1.1-2.3,1.7c-1,0.7-2.1,1.1-3.3,1.4c-1.1,0.3-2.6,0.4-4.3,0.4c-1.2,0-2.5-0.2-4.1-0.5c0,0-0.1,0-0.1,0l-3-0.9
	c-0.8-0.2-1.4-0.4-1.6-0.6c-0.1-0.1-0.2-0.3-0.2-0.5c0-0.2,0-1.6-0.1-3.6c0-1.1,0-1.8,0-2.3l0,0c0-0.5,0.4-0.9,0.9-1l0.7,0
	c0.4,0,0.8,0.2,0.9,0.6c0.7,1.5,1.1,2.4,1.3,2.7c0.5,0.8,1.1,1.5,1.7,2c0.6,0.5,1.4,0.9,2.2,1.2c0.9,0.3,1.8,0.5,2.8,0.5
	c0.9,0,1.9-0.2,3-0.6c1.1-0.4,1.9-1,2.6-1.9c0.7-0.9,1-1.8,1-2.8c0-1.2-0.6-2.3-1.7-3.4c-0.7-0.6-2.6-1.5-5.6-2.6
	c-3.1-1.1-5.2-2-6.4-2.9c-1.2-0.8-2.1-2-2.8-3.4c-0.7-1.4-1-2.8-1-4.1c0-2.6,0.9-4.8,2.8-6.7c1.9-1.8,4.7-2.7,8.4-2.7
	c0.8,0,2,0.1,3.5,0.4C390.4,235.6,391.3,235.9,392.4,236.2z"/>
<path d="M428,238.4c-0.2-1-0.8-2.5-1.6-2.7c-1-0.2-2.3,1.5-8.5,1.4h-9.9c0,0-1.8,0.2-3.5-0.3c-1.5-0.5-3-2.2-4-1.5
	c-0.8,0.5-1.5,3.3-1.6,4.5c-0.1,1.8-0.8,4.2-0.8,4.8c0,0.4,0.2,0.7,0.5,0.8c0.4,0.1,0.8,0.1,1.1-0.5c1.5-3.5,2.5-5,7.1-5.5h2.7
	c0.4,0,0.8,0.4,0.8,0.8l0.1,22.3c0,0.6-0.1,1.2-0.3,1.7c-0.1,0.2-0.2,0.4-0.2,0.4c-0.3,0.4-0.8,0.7-1.1,0.9c-0.3,0.2-1,0.3-2,0.4
	l-0.5,0.1c-0.3,0-0.5,0.3-0.5,0.5v1.1c0,0.3,0.2,0.5,0.5,0.5c0.5,0,0.8,0,0.9,0c1.9-0.2,4.4-0.3,7.4-0.3c0.4,0,1.2,0,2.4,0.1
	c0.7,0.1,1.4,0.1,2.2,0.2c0.2,0,0.3,0,0.5,0.1c0,0,0.1,0,0.1,0h0.3c1.4,0.1,1.3-1.6,0.7-2.1c-0.4-0.2-1.1-0.2-1.9-0.2
	c-0.1,0-0.1,0-0.2,0c-0.7-0.2-1.2-0.4-1.5-0.8c-0.2-0.2-0.5-0.4-0.5-0.6c0-0.1-0.1-0.5-0.1-0.7c0-0.1,0-0.1,0-0.2c0,0,0,0,0-0.1h0
	c0-4.4-0.1-18-0.1-23.2c0-0.4,0.4-0.8,0.8-0.8h0.5c0,0,2.4,0.3,3.7,0.5c5.2,0.8,4.2,4.5,6,4.4C428.7,244.3,429,242.9,428,238.4z"/>
<path d="M450.1,242.2c-0.4-0.9-1-1.8-1.6-2.5l-0.3-0.3c-0.1-0.1-0.2-0.2-0.3-0.3l-0.5-0.5c-0.4-0.3-0.7-0.6-1.1-0.8
	c-0.8-0.5-1.6-0.9-2.5-1.2c-0.3-0.1-0.5-0.2-0.8-0.2c-0.3-0.1-0.6-0.1-1-0.2c-0.3,0-0.6-0.1-0.8-0.1c-0.1,0-0.2,0-0.3,0
	c-1.1,0-2.1,0-2.1,0s-8.3-0.2-8.4,0.1c-0.2,0.3-0.2,0.8,0.1,0.9c0.4,0.1,1.3,0.2,1.5,0.2c1.2,0.3,1.2,2.6,1.2,2.6v12.8
	c0,0.4-0.1,0.7-0.2,1.1c-0.1,0.2-0.1,0.2-0.1,0.3c-0.2,0.3-0.5,0.5-0.7,0.6c-0.2,0.1-0.6,0.2-1.3,0.3l-0.3,0c-0.2,0-0.3,0.2-0.3,0.3
	v0.7c0,0.2,0.2,0.3,0.3,0.3c0.3,0,0.5,0,0.6,0c1.2-0.1,2.8-0.2,4.8-0.2c0.3,0,0.8-0.1,1.6-0.1c0.7,0,1.1,0.1,1.4,0.1c0,0,0,0,0,0
	c0.9,0.1,1.6,0.1,2.5,0.1c0.9,0,1.6-0.1,2.5-0.4c0.9-0.3,1.7-0.7,2.5-1.2c0.4-0.2,0.8-0.6,1.1-0.8l0.5-0.5c0.1-0.1,0.2-0.2,0.3-0.3
	l0.3-0.3c0.7-0.7,1.2-1.6,1.6-2.5c0.4-0.9,0.7-2.3,0.8-3.3c0-0.2,0-0.5,0-0.8C450.9,245,450.5,243.2,450.1,242.2z M446.9,246.5
	c0,0.7-0.1,1.7-0.3,2.3c-0.1,0.7-0.3,1.3-0.6,2l-0.1,0.2c0,0.1-0.1,0.1-0.1,0.2l-0.3,0.5c-0.2,0.3-0.4,0.6-0.7,0.9
	c-0.2,0.3-0.5,0.6-0.8,0.8c-0.3,0.2-0.6,0.5-0.9,0.7c-0.7,0.4-1.2,0.5-2,0.6c-0.8,0.1-1.6,0-2.4-0.1c-0.1,0-0.3-0.1-0.4-0.1
	c-0.5-0.1-0.8-0.2-1-0.4c-0.1-0.1-0.3-0.3-0.3-0.4c0-0.1,0-0.3,0-0.5c0,0,0-0.1,0-0.1c0,0,0,0,0,0c0-3.3,0-11.3,0-13
	c0-1.1,0.2-1.8,0.4-2.2c0.1-0.2,0.2-0.3,0.4-0.5c0.2-0.1,0.5-0.1,0.7-0.2c0.8-0.2,1.6-0.2,2.4-0.1c0.8,0.1,1.5,0.3,2.2,0.7
	c0.3,0.2,0.6,0.4,0.9,0.7c0.3,0.3,0.6,0.5,0.8,0.8c0.3,0.3,0.4,0.6,0.7,0.9l0.3,0.5c0.1,0.1,0.1,0.2,0.1,0.2l0.1,0.2
	c0.3,0.7,0.5,1.3,0.6,2c0.1,0.7,0.2,1.6,0.3,2.3C446.9,245.9,446.9,246.4,446.9,246.5z"/>
<path d="M825.5,234.5c-6,0-10.9,7.7-10.9,17.1s4.9,17.1,10.9,17.1s10.9-7.7,10.9-17.1S831.5,234.5,825.5,234.5z
	 M829.4,259.8c-0.3,2.2-0.4,5.8-3.6,6.4c-3.2,0.5-4.1-4-4.1-6.6c0-2.6-0.4-15.1,0.2-18.1c0.5-3,1.7-4.6,4-4.5c0,0,2.9-0.1,3.4,4.4
	C829.8,245.9,829.7,257.6,829.4,259.8z"/>
<path d="M888.4,234.7c0,0-14,1.8-17.4,13.8c-3.4,12,2.7,18.3,6.8,19.4s12-0.3,12.9-7.6c0.9-7.3-2.6-12.3-7.9-11.9
	c-5.3,0.4-4.4,1.9-4.4,2.2c0,0.3,0.8,0.5,1.2,0.3c0.5-0.2,4.3-0.7,5.1,4.2s0,10.6-2.7,11.1c-2.7,0.5-5.1,0.4-5.6-5.9
	c-0.5-6.3,0.3-14.9,3.7-18.4c3.4-3.5,7.3-4.8,9.2-5.2C891.1,236.4,890.4,234.2,888.4,234.7z"/>
<path d="M787,244.9h0.5c0.4,0,0.7-0.3,0.7-0.6c0.3-1.7,1.6-6.4,6.6-5.8c6.2,0.7,4.7,8.9,3.3,11.3
	c-1.4,2.4-5.1,7.2-12.9,15.9c-0.1,0.1-0.2,0.3-0.2,0.5v0.9c0,0.4,0.3,0.7,0.7,0.7h19.3c0.5,0,0.8-0.3,0.9-0.8l1.1-7.5
	c0.1-0.4-0.2-0.7-0.6-0.7l-1.1,0c-0.2,0-0.4,0.2-0.5,0.4l-0.6,1.8h-10.9c-0.2,0-0.2-0.2-0.1-0.3c1.9-1.7,11.1-10.1,12.1-14.1
	c1.2-4.5,0.3-11.6-9.4-11.7c-8.5-0.1-9.7,6.8-9.6,9.2C786.3,244.6,786.6,244.9,787,244.9z"/>
<path d="M450,260.5h-19c-0.8,0-1-0.5-1-1.1c0-0.6,0.2-1.1,1-1.1h19c0.8,0,0.9,0.5,0.9,1.1
	C450.9,260.1,450.7,260.5,450,260.5z"/>
<g>
	<path d="M314.6,202.3c-1.1,0-1.4,1.4-0.5,1.9c1.2,0.6,2.3,1.4,3.4,2.2h170.2l3.8-2.6c0.7-0.5,0.3-1.5-0.5-1.5
		L314.6,202.3z"/>
	<path d="M917.4,206.4c0.5,0,1-0.1,1.4-0.4c1.3-0.7,2.5-1.5,3.9-1.9c1-0.3,0.8-1.8-0.3-1.8H753.9c-0.8,0-1.1,1-0.5,1.5
		l3.8,2.6H917.4z"/>
	<path d="M323.8,209.9c-0.3,0-0.3,0.1-0.3,0.1c-0.2,0.6,0.6,0.9,1.2,1.4c0.3,0.3,0.8,0.5,1.3,0.5l148.5,0
		c0.3,0,0.5-0.1,0.7-0.2l1.9-1.3c0.2-0.2,0.1-0.5-0.2-0.5C404.2,209.9,327.8,209.9,323.8,209.9z"/>
	<path d="M911.1,211.9c0.4,0,0.8-0.2,1.1-0.4c0.5-0.5,0.7-0.6,1.3-1.1c0.1-0.1,0.1-0.3,0.1-0.4
		c-0.1-0.1-0.2-0.2-0.6-0.2c-5.8,0-74.4,0-145.3,0c-0.4,0-0.6,0.6-0.2,0.8l1.4,1c0.2,0.2,0.5,0.2,0.8,0.2L911.1,211.9z"/>
	<path d="M267.2,297.5c-1.3,0.8-2.6,1.6-4,2.2c-1.1,0.5-0.7,1.9,0.6,1.9h227.3c0.8,0,1.1-1,0.5-1.5l-3.8-2.6H267.2z"/>
	<path d="M973.7,299.8c-1.5-0.5-3-1.2-4.5-1.9c-0.5-0.3-1.2-0.4-1.8-0.4H757.2l-3.8,2.6c-0.7,0.5-0.3,1.5,0.5,1.5
		l219.4,0C974.4,301.6,974.8,300.2,973.7,299.8z"/>
	<path d="M286.3,291.9c-0.5,0-1,0.2-1.4,0.5c-0.6,0.5-1.6,0.8-1.3,1.4c0,0,0.1,0.1,0.4,0.1c4.9,0,99.2-0.1,192.8-0.1
		c0.3,0,0.4-0.4,0.2-0.5l-1.9-1.3c-0.2-0.1-0.5-0.2-0.7-0.2H286.3z"/>
	<path d="M952.8,294c0.4,0,0.6-0.1,0.6-0.2c0.1-0.1,0-0.3-0.1-0.4c-0.6-0.4-0.8-0.6-1.4-1.1c-0.4-0.3-0.8-0.4-1.3-0.4
		H769.7c-0.3,0-0.6,0.1-0.8,0.2l-1.4,1c-0.4,0.2-0.2,0.8,0.3,0.8C859.4,294,945.6,294,952.8,294z"/>
</g>
<path d="M752.8,268.3c-1-0.3-2-0.2-2.5,1.1c-5,12.1-7.8,14-38.8,13c0,0-2.7-1.6-2.7-9.5c0-2.5,0-8.6,0-15.7
	c1,0.1,2.1,0.2,3.2,0.4c0.9,0.1,1.7,0.3,2.6,0.4c0.9,0.1,1.9,0.2,2.8,0.3c1.8,0.2,3.7,0.2,5.5,0.1c1.8-0.1,3.6-0.3,5.4-0.7
	c1.7-0.4,3.4-1,4.9-1.8c1.5-0.8,2.7-1.9,3.5-2.9c0.8-1,1.3-2,1.7-2.8c0.3-0.8,0.5-1.4,0.7-1.8c0.1-0.4,0.2-0.7,0.2-0.7
	c0-0.1,0-0.3-0.1-0.4c-0.2-0.3-0.5-0.4-0.8-0.2c0,0-0.2,0.1-0.6,0.4c-0.4,0.2-0.9,0.6-1.6,1c-0.7,0.4-1.4,0.9-2.3,1.2
	c-0.9,0.3-1.8,0.5-2.8,0.6c-1,0.1-2.2,0.1-3.5-0.1c-1.3-0.1-2.7-0.3-4.3-0.5c-1.5-0.3-3.1-0.5-4.8-0.8c-0.8-0.1-1.6-0.3-2.5-0.4
	c-0.8-0.1-1.7-0.3-2.6-0.4c-1.5-0.2-3.1-0.4-4.7-0.4c0-7.9,0-15.8,0-20.9h0c0-0.1,0-0.1,0-0.2c0-0.2,0-0.3,0-0.4
	c0-0.6,0.2-1.4,0.2-1.7c0-0.6,0.7-1,1.1-1.4c0.8-0.7,1.9-1.3,3.5-1.8c0.1,0,0.2,0,0.4-0.1c4.6,0,10.5,0.1,17.7,1.3
	c12.1,1.9,9.8,10.4,14,10.3c2.4-0.1,3.2-3.3,0.8-13.9c-1.2-5.4-5.6-3.9-13.7-3.8c-6.6,0-21.6,1.2-23.2,1.4c-2.8,0.2-4.6,0.3-5.6,0.3
	c-7.2,0-12.9-0.3-17.3-0.8c-0.3,0-0.8,0-1.7-0.1c-0.9,0-1.7,0.7-1.7,1.7v1.6c0,0.8,0.6,1.6,1.5,1.7l0.8,0.1c2.4,0.2,3.9,0.5,4.7,0.9
	c0.8,0.4,2,1.2,2.6,2.1c0.1,0.1,0.2,0.4,0.4,0.9c0.5,1.3,0.8,2.7,0.8,4.2V251c-0.6,0.4-1.2,0.7-1.8,1.1c-2.5,1.8-4.1,3.8-5,5.3
	c-0.5,0.7-0.7,1.4-0.9,1.8c-0.1,0.2-0.1,0.4-0.2,0.5c0,0.1-0.1,0.2-0.1,0.2c0,0.2,0,0.3,0.1,0.5c0.2,0.3,0.5,0.4,0.8,0.2
	c0,0,0.1,0,0.1-0.1c0.1-0.1,0.2-0.1,0.4-0.2c0.4-0.2,0.9-0.5,1.6-0.8c1.2-0.5,2.9-1.2,4.8-1.7v16.4c0,0,0.2,8.5-4.3,9.5
	c-0.6,0.1-3.9,0.4-5.3,0.8c-1.4,0.4-0.8,2.4-1,3.3c-0.2,1.1,4.7,0.5,7.9,0.7c4.9,0.3,41.7-1.2,48-0.1s12.5-0.5,13-7.1
	c0.3-4.2,1.8-9.8,1.9-11.3C754.1,269.2,753.6,268.5,752.8,268.3z"/>
<path d="M697.2,213.2c0,0,0-0.1,0-0.2c0-0.1,0-0.3,0-0.5c0.1-0.5,0.2-1.2,0.4-2c0.5-1.7,1.5-4,3.5-6.4
	c1.9-2.4,4.8-4.7,8.3-6.3c1.7-0.9,3.6-1.5,5.5-2c1.9-0.5,3.9-0.9,5.8-1.1c0.9-0.1,1.8-0.1,2.7-0.2c0.8-0.1,1.7-0.1,2.5-0.2
	c1.6-0.1,3.2-0.3,4.8-0.4c1.5-0.2,3-0.3,4.3-0.5c1.3-0.2,2.5-0.5,3.4-0.8c1-0.3,1.8-0.7,2.6-1.3c0.8-0.5,1.4-1.2,1.9-1.7
	c0.6-0.6,1-1,1.3-1.3c0.3-0.3,0.5-0.5,0.5-0.5c0.2-0.2,0.6-0.2,0.8,0c0.1,0.1,0.2,0.3,0.2,0.4c0,0,0,0.2,0,0.7c0,0.4,0,1.1-0.2,2
	c-0.1,0.8-0.4,1.9-0.9,3.1c-0.5,1.2-1.5,2.6-2.7,3.7c-1.2,1.2-2.7,2.1-4.3,3c-1.6,0.8-3.3,1.4-5,2c-1.7,0.5-3.5,0.9-5.4,1.2
	c-0.9,0.2-1.8,0.3-2.8,0.4c-0.9,0.1-1.8,0.2-2.7,0.3c-1.6,0.1-3.2,0.4-4.7,0.6c-1.5,0.2-3,0.6-4.4,0.9c-1.4,0.4-2.7,0.8-4,1.3
	c-1.3,0.5-2.4,1-3.5,1.5c-2.1,1.1-3.9,2.3-5.1,3.2c-0.6,0.5-1.1,0.9-1.4,1.2c-0.2,0.1-0.3,0.3-0.3,0.3c-0.1,0.1-0.1,0.1-0.1,0.1
	c-0.2,0.2-0.6,0.3-0.8,0C697.2,213.5,697.2,213.4,697.2,213.2z"/>
<path d="M678.8,218.9c-1.2-5.4-5.6-3.9-13.7-3.8c-6.6,0-21.6,1.2-23.2,1.4c-2.8,0.2-4.6,0.3-5.6,0.3
	c-7.2,0-12.9-0.3-17.3-0.8c-0.3,0-0.8,0-1.7-0.1c-0.9,0-1.7,0.7-1.7,1.7v1.6c0,0.8,0.6,1.6,1.5,1.7l0.8,0.1c2.4,0.2,3.9,0.5,4.7,0.9
	c0.8,0.4,2,1.2,2.6,2.1c0.1,0.1,0.2,0.4,0.4,0.9c0.5,1.3,0.8,2.7,0.8,4.2v22.2c-0.6,0.4-1.2,0.7-1.8,1.1c-2.5,1.8-4.1,3.8-5,5.3
	c-0.5,0.7-0.7,1.4-0.9,1.8c-0.1,0.2-0.1,0.4-0.2,0.5c0,0.1-0.1,0.2-0.1,0.2c0,0.2,0,0.3,0.1,0.5c0.2,0.3,0.5,0.4,0.8,0.2
	c0,0,0.1,0,0.1-0.1c0.1-0.1,0.2-0.1,0.4-0.2c0.4-0.2,0.9-0.5,1.6-0.8c1.2-0.5,2.9-1.2,4.8-1.7v4.7l0,0v12.9c0,1.4-0.3,2.7-0.8,4
	c-0.2,0.6-0.4,0.9-0.4,1c-0.6,0.9-1.8,1.7-2.6,2.1c-0.8,0.4-2.3,0.7-4.7,0.9l-1.2,0.1c-0.6,0.1-1.1,0.6-1.1,1.2v2.5
	c0,0.7,0.6,1.2,1.2,1.2c1.1,0,1.8-0.1,2.1-0.1c4.4-0.5,10.2-0.8,17.3-0.8c1,0,2.8,0.1,5.6,0.3c1.6,0.2,3.3,0.3,5.1,0.5
	c0.4,0,0.7,0.1,1.1,0.1c0.1,0,0.2,0,0.2,0h0.7c3.3,0.3,3-3.6,1.7-4.9c-0.9-0.5-2.7-0.5-4.4-0.5c-0.2,0-0.3-0.1-0.4-0.1
	c-1.6-0.4-2.7-1-3.5-1.8c-0.4-0.4-1.1-0.9-1.1-1.4c0-0.3-0.1-1.1-0.2-1.7c0-0.1,0-0.3,0-0.4c0-0.1,0-0.1,0-0.2h0c0-2.8,0-6.5,0-10.6
	c0-1.3,0-2.8,0-4.4c0-1.7,0-3.5,0-5.4c1,0.1,2.1,0.2,3.2,0.4c0.9,0.1,1.7,0.3,2.6,0.4c0.9,0.1,1.9,0.2,2.8,0.3
	c1.8,0.2,3.7,0.2,5.5,0.1c1.8-0.1,3.6-0.3,5.4-0.7c1.7-0.4,3.4-1,4.9-1.8c1.5-0.8,2.7-1.9,3.5-2.9c0.8-1,1.3-2,1.7-2.8
	c0.3-0.8,0.5-1.4,0.7-1.8c0.1-0.4,0.2-0.7,0.2-0.7c0-0.1,0-0.3-0.1-0.4c-0.2-0.3-0.5-0.4-0.8-0.2c0,0-0.2,0.1-0.6,0.4
	c-0.4,0.2-0.9,0.6-1.6,1c-0.7,0.4-1.4,0.9-2.3,1.2c-0.9,0.3-1.8,0.5-2.8,0.6c-1,0.1-2.2,0.1-3.5-0.1c-1.3-0.1-2.7-0.3-4.3-0.5
	c-1.5-0.3-3.1-0.5-4.8-0.8c-0.8-0.1-1.6-0.3-2.5-0.4c-0.8-0.1-1.7-0.3-2.6-0.4c-1.5-0.2-3.1-0.4-4.7-0.4c0-7.9,0-15.8,0-20.9h0
	c0-0.1,0-0.1,0-0.2c0-0.2,0-0.3,0-0.4c0-0.6,0.2-1.4,0.2-1.7c0-0.6,0.7-1,1.1-1.4c0.8-0.7,1.9-1.3,3.5-1.8c0.1,0,0.2,0,0.4-0.1
	c4.6,0,10.5,0.1,17.7,1.3c12.1,1.9,9.8,10.4,14,10.3C680.4,232.7,681.1,229.5,678.8,218.9z"/>
<path d="M528.4,269.2c-0.6,0.9-4.2,7.7-5.1,8.8c-0.9,1.1-1.9,2.1-2.9,2.9c-0.5,0.4-1.1,0.8-1.6,1.1
	c-0.3,0.1-0.6,0.3-0.8,0.4c-0.3,0.1-0.5,0.2-0.9,0.4c-1.5,0.5-2.8,0.9-4.3,1.2c-2.9,0.6-5.8,0.8-8.6,0.5c-2.8-0.4-5.5-1.2-7.9-2.6
	c-1.2-0.6-2.3-1.5-3.4-2.4c-1-1-2-1.9-2.9-3c-0.9-1-1.6-2.2-2.4-3.4l-1.1-1.8c-0.2-0.4-0.3-0.6-0.4-0.9l-0.4-0.8
	c-1.1-2.4-1.8-4.9-2.3-7.3c-0.5-2.4-0.9-5.8-1-8.5c0-0.6,0-3.4,0-4c0.1-2.5,0.5-6,1-8.5c0.5-2.4,1.2-4.9,2.3-7.3l0.4-0.8
	c0.1-0.3,0.2-0.5,0.4-0.9l1.1-1.8c0.8-1.1,1.5-2.4,2.4-3.4c0.9-1.1,1.9-2,2.9-3c1.1-0.9,2.2-1.7,3.4-2.4c2.4-1.4,5.1-2.2,7.9-2.6
	c2.8-0.3,5.7-0.1,8.6,0.5c1.4,0.3,2.8,0.7,4.3,1.2c0.4,0.1,0.7,0.2,0.9,0.4c0.3,0.1,0.6,0.3,0.8,0.4c0.6,0.3,1.1,0.7,1.6,1.1
	c1,0.8,2,1.8,2.9,2.9c0.8,1.1,4.4,7.9,5.1,8.8c0.7,1,3,1.6,4.1,0.4c1.1-1.4-0.2-12.1-1.4-12.9l-0.5-0.3c-1.6-1.1-5.7-3.1-7.3-3.9
	c-0.8-0.4-1.6-0.7-2.5-1c-0.4-0.1-0.9-0.3-1.3-0.4c-0.5-0.1-0.9-0.2-1.3-0.3c-1.5-0.3-3.1-0.6-4.7-0.8c-3.2-0.5-6.4-0.8-9.7-0.6
	c-3.3,0.1-6.6,0.7-9.8,1.8c-3.2,1-6.4,2.5-9.2,4.5c-1.5,0.9-2.8,2-4.2,3.1l-1.9,1.7c-0.3,0.2-0.6,0.6-1,1l-1,1
	c-2.5,2.7-4.5,5.8-6,9.3c-1.5,3.4-2.5,8.3-2.8,12c-0.1,0.9-0.1,1.8-0.2,2.8c0,1,0.1,1.9,0.2,2.8c0.3,3.7,1.3,8.6,2.8,12
	c1.5,3.4,3.5,6.6,6,9.3l1,1c0.3,0.3,0.7,0.7,1,1l1.9,1.7c1.4,1.1,2.7,2.2,4.2,3.1c2.8,2,6,3.4,9.2,4.5c3.2,1,6.5,1.7,9.8,1.8
	c3.3,0.2,6.5-0.1,9.7-0.6c1.6-0.2,3.2-0.5,4.7-0.8c0.3-0.1,0.8-0.2,1.3-0.3c0.5-0.1,0.9-0.2,1.3-0.4c0.9-0.3,1.7-0.6,2.5-1
	c1.6-0.7,5.7-2.7,7.3-3.9l0.5-0.3c1.2-0.8,2.5-11.5,1.4-12.9C531.4,267.6,529.1,268.2,528.4,269.2z"/>
<path d="M609.9,284l-0.8-0.1c-2.4-0.2-3.9-0.5-4.7-0.9c-0.8-0.4-1.4-1.1-2-2c-0.3-0.5-2-5.3-5.1-12.1l-6.1-15.2
	L581,230.1c-2.6-6.9-4.2-10.9-4.6-12c-0.3-0.8-0.5-1.6-0.8-2.3c-0.2-0.6-0.8-1.1-1.5-1.1c-0.7,0-1.2,0-1.7,0c-0.3,0-0.9,0-1.9,0.1
	c-0.5,0-0.9,0.3-1,0.8c-0.9,2.4-8,22.3-8.8,24.3c-0.8,2-1.5,3.9-2.1,5.6l-4.7,12.5c-1.9,0.8-3.7,1.7-5.1,2.7c-2.5,1.8-4.1,3.8-5,5.3
	c-0.5,0.7-0.7,1.4-0.9,1.8c-0.1,0.2-0.1,0.4-0.2,0.5c0,0.1-0.1,0.2-0.1,0.2c0,0.2,0,0.3,0.1,0.5c0.2,0.3,0.5,0.4,0.8,0.2
	c0,0,0.1,0,0.1-0.1c0.1-0.1,0.2-0.1,0.4-0.2c0.4-0.2,0.9-0.5,1.6-0.8c1.3-0.6,3-1.2,5-1.7c-2.3,6.4-4.1,11.5-5.3,13.7
	c-0.5,0.9-0.9,1.5-1.4,1.8c-0.7,0.6-3.1,1.6-7.1,3.2c-0.6,0.2-1.1,0.8-1.1,1.5c0,0.3,0,0.6,0,0.9c0,1,0.8,1.8,1.8,1.7
	c1-0.1,2.1-0.2,3.3-0.4c2.1-0.3,4.7-0.4,7.6-0.4c2.9,0,5.9,0.1,8.9,0.4c1.7,0.2,3,0.3,3.9,0.4c0.9,0.1,1.7-0.6,1.8-1.6
	c0-0.4,0-0.7,0-0.9c0-0.1,0-0.3,0-0.5c-0.1-0.7-0.7-1.3-1.4-1.4c-0.3-0.1-0.7-0.1-1.1-0.1c-0.8-0.1-1.5-0.2-2-0.4
	c-2.4-0.2-4.1-0.7-5.1-1.6c-0.7-0.5-1-1.1-1-1.8c0-1.1,0.3-3.6,0.9-5.3c0.6-1.7,1.4-4.2,2.3-7.5c0.3-1,0.5-1.7,0.7-2.3
	c0,0,0-0.1,0-0.1l0.1-0.3c0.9-0.1,1.7-0.1,2.6-0.1c1.5,0,3,0.1,4.5,0.2c1.5,0.2,3.1,0.3,4.7,0.6c0.9,0.1,1.7,0.3,2.6,0.4
	c0.9,0.1,1.9,0.2,2.8,0.3c1.8,0.2,3.7,0.2,5.5,0.1c0.4,0,0.9,0,1.3-0.1c1,2.4,1.8,4.6,2.4,6.4l1.7,4.6c0.1,0.1,0.1,0.3,0.1,0.4
	c0.1,0.6,0.1,1.7,0.1,2.1c0,0.6-0.2,1-0.6,1.4c-0.8,0.7-1.9,1.3-3.5,1.8c-0.5,0.1-2.1,0.4-4.8,0.7c-0.8,0.1-1.5,0.8-1.4,1.7
	c0,0.4,0,0.9,0,1.4c0,0.9,0.8,1.6,1.7,1.6l2.2,0c0.1,0,0.2,0,0.2,0c1.2-0.2,2.9-0.4,5.2-0.5c3.3-0.2,5.5-0.3,6.5-0.3
	c7.2,0,12.9,0.3,17.3,0.8c0.3,0,0.8,0,1.7,0.1c0.9,0,1.7-0.7,1.7-1.7v-1.6C611.4,284.9,610.7,284.1,609.9,284z M575.2,257.2
	c-0.8-0.1-1.6-0.3-2.5-0.4c-0.8-0.1-1.7-0.3-2.6-0.4c-1.9-0.3-3.9-0.4-5.9-0.4c-1.4,0-2.8,0.1-4.1,0.3l4.5-12.8l1.6-4
	c0.6-1.4,2.5-1.4,3.1,0c0.5,1.3,1.1,2.6,1.7,4l6,14C576.4,257.4,575.8,257.3,575.2,257.2z"/>
<path d="M1217.2,196.7c-1.5-2.9-3.7-5.3-6.1-7.1c-2.5-1.8-5.2-3.1-8-4.1c-5.6-1.9-11.6-2.3-17.3-1.7
	c-0.7,0.1-1.4,0.2-2.2,0.3l-2,0.4l-2.2,0.5l-2.1,0.5c-2.7,0.7-5.4,1.6-8,2.6c-6.7,2.5-13.1,5.3-19.3,8.3c-6.1-5.3-11.8-11-17.1-16.9
	c-5.5-6-10.7-12.3-15.8-18.5l0.1-4.4c0-0.8,0-2.1,0-3.9l-0.4-26.6c0-1.7-0.1-3.3-0.1-4.6c-0.3-4.2-0.4-10-0.3-17.3
	c0.1-3.3,0.1-5.5,0-6.4c-0.1-1.8-0.1-2.9-0.1-3.2c0-1,0.2-1.8,0.5-2.4c0.2-0.4,0.5-0.6,0.8-0.9c0.7-0.4,1.9-1.2,3.6-2.1
	c0.5-0.3,2.4-0.8,5.6-1.5c0.6-0.1,1.1-0.3,1.6-0.5c1.2-0.4,1.9-1.5,1.9-2.8v0c0-1.6-1.4-3-3-2.9l-0.2,0l-16.7,0.2l-14.8,0.2
	c-0.1,0.1-1.3,0.3-1.7,1c-1.9,3.2,1.5,4.5,1.5,4.5c1.1,0.4,2.5,0.7,4.1,1c3.8,0.6,6.2,1.5,7.2,2.6c0.6,0.7,1,2.7,1,6
	c0,1,0.2,4.8,0.7,11.4c0.2,3.4,0.4,7.2,0.3,11.3c0,2.6,0,4.9,0.1,7c0,3.5,0.2,19.1,0.1,24.3c-4.3-5.3-8.5-10.6-12.7-15.7
	c-5.8-7.3-11.4-14.3-16.9-21.2c-4.9-6.6-9.3-14.2-14.5-20.9c-2.6-3.4-5.5-6.5-8.5-9.5c-3-2.9-6.4-5.6-10-7.7
	c-7.3-4.3-15.4-6.7-22.7-7.9c-0.9-0.1-1.8-0.3-2.8-0.4l-1.4-0.1c-0.4,0-0.8,0-1.2-0.1l-1.2-0.1l-0.1,0c-0.3,0-0.2,0-0.3,0l-0.3,0
	l-0.6,0c-0.8,0-1.6,0-2.4,0c-1.6,0-3.2,0.1-4.7,0.2c-1.6,0.2-3.1,0.2-4.6,0.5c-6,0.8-11.4,2.5-15.8,5.2c-4.4,2.7-7.4,6.4-9.4,9.9
	c-1.9,3.5-2.6,6.9-3.3,9.5c-0.9,3.6-0.6,6.9-0.5,8.7c0,0.1,0,0.2,0,0.3c0,0.2,0,0.4,0,0.7c0,0,0,0.1,0,0.1l0,0
	c0.4,5.5,5,9.8,10.5,9.8c2.7,0,6.2-3.7,6.2-6.1c0.1,0.3,1,4,1,4.3c0.2,1.1,0.5,2,0.6,3.1c0.2,1,0.3,1.9,0.5,2.8
	c0.1,0.9,0.2,1.8,0.3,2.6c0.2,1.6,0.3,3.1,0.4,4.4c0.1,1.3,0.1,2.3,0.1,3.2c0,1.6,0.1,2.5,0.1,2.6c0,0.5,0,1.4-0.1,2.9
	c0,0.5,0,1.1,0,1.8c0,0.6-0.1,1-0.1,1.7c-0.1,1.2-0.1,2.4-0.3,4.1c-0.1,0.8-0.2,1.7-0.3,2.6c-0.1,0.9-0.3,1.9-0.5,2.8
	c-0.1,1-0.3,2-0.6,3.1c-0.2,1.1-0.4,2.2-0.8,3.3c-1.2,4.6-3.1,9.7-6.6,14.6c-0.5,0.6-0.9,1.2-1.4,1.8c-0.5,0.6-1,1.1-1.6,1.7
	c-1,1.2-2.3,2.1-3.6,3.1c-2.7,1.8-5.7,3.4-9.2,4.1l-1.3,0.3c-0.4,0.1-0.9,0.1-1.3,0.1c-0.8,0.1-1.6,0.1-2.5,0.2
	c-1.9-0.2-4.1-0.2-5.7-0.7c-1.7-0.3-3.4-1.1-5.1-1.8c-1.6-0.9-3.3-1.8-4.7-3c-1.5-1.1-2.8-2.6-4.1-3.9c-1.2-1.6-2.4-3-3.3-4.7
	c-1-1.6-1.8-3.4-2.6-5.1l-1-2.7c-0.4-0.9-0.6-1.8-0.8-2.7c-2.1-7.3-2.8-14.9-2.9-22.4l0-0.7l0-0.1l0-0.3l0.1-1.7l0-1.7l0-0.8l0-0.4
	l0-0.3c0.2-1.7,0.1-3.3,0.4-5.2c0.3-3.7,1.1-7.4,1.9-11c0.9-3.7,2.3-7.2,4.2-10.5c1.8-3.3,4.3-6.3,7.2-8.7c0.8-0.6,1.5-1.1,2.3-1.7
	c0.8-0.5,1.6-0.9,2.4-1.4c0.8-0.5,1.7-0.8,2.5-1.1c0.9-0.3,1.7-0.7,2.6-0.8c0.9-0.2,1.8-0.4,2.7-0.6c0.9-0.1,1.8-0.1,2.7-0.2l0.7,0
	l0.3,0l0,0l0.1,0l1.5,0.1c0.9,0.1,2,0.1,2.8,0.3c1.4,0.3,6.7-4.6,3.8-5.9c-1.1-0.1-2.2-0.3-3.2-0.4c-1.1-0.2-2-0.1-3-0.2l-1.5-0.1
	l-0.2,0l-0.3,0l-0.1,0l-0.4,0l-0.8,0c-1.1,0.1-2.2,0.1-3.2,0.2c-1.1,0.2-2.2,0.3-3.3,0.5c-4.3,0.8-8.8,2-13,4.1
	c-4.2,2.1-8.4,4.6-12.1,7.9c-1,0.8-1.8,1.7-2.7,2.6l-1.3,1.3c-0.4,0.5-0.8,1-1.2,1.4c-0.8,1-1.7,1.9-2.4,3c-0.7,1-1.5,2.1-2.2,3.2
	c-2.7,4.4-5,9.2-6.2,14.2c-0.8,2.4-1.1,5.3-1.6,8.1l-0.1,0.5l0,0.4l-0.1,0.8l-0.1,1.7l-0.1,1.7l0,0.4l0,0.6l0,0.2l0,1
	c0.1,2.6,0.2,5.2,0.7,7.8c0.3,2.6,1.1,5.1,1.8,7.6c1.6,4.9,3.8,9.7,6.7,13.9c0.7,1.1,1.4,2.1,2.3,3.1c0.8,1,1.6,2,2.4,2.9
	c1.8,1.8,3.4,3.7,5.4,5.2c1.8,1.7,3.9,3,5.8,4.4c2.1,1.2,4.1,2.5,6.2,3.5c2.1,1.1,4.3,1.8,6.4,2.6c2.2,0.5,4.3,1.3,6.7,1.5
	c2.4,0.5,4.2,0.4,6.3,0.5l0.1,0c0,0,0.4,0,0.3,0l0.2,0l0.4,0l0.8,0l1.6-0.1c0.5,0,1.1,0,1.6-0.1l1.6-0.3c4.2-0.5,8.1-1.9,11.9-3.4
	c1.8-0.9,3.7-1.7,5.3-2.7c0.8-0.5,1.7-1,2.5-1.5c0.8-0.6,1.6-1.1,2.3-1.7c6.2-4.5,11-9.9,14.3-15.3c0.9-1.3,1.6-2.7,2.3-4
	c0.7-1.3,1.4-2.6,1.8-3.9c0.5-1.3,1-2.5,1.4-3.7c0.4-1.2,0.7-2.4,1-3.5c0.7-2.1,1-4.4,1.2-6.2c0.1-0.9,0.3-1.9,0.4-2.5
	c0-0.6,0.1-1.2,0.1-1.8c0.1-2.1,0.2-3.2,0.2-3.2l0-0.4c0,0-0.1-1.3-0.2-3.7c0-0.6-0.1-1.3-0.1-2c-0.1-0.7-0.2-1.6-0.4-2.4
	c-0.3-1.8-0.6-3.8-1.3-6c-1.1-4.4-3.3-9.7-6.8-15.1c-1.6-2.4-5.5-7.2-9.7-8.9c-5.9-2.3-12.6-1.5-15.9,0.5c0,0-0.3,0.2-0.8,0.6
	c0-0.3,0.1-0.4,0-0.4c0.3-2,0.8-4.2,2-6.6c1.5-3,4-6.2,7.8-8.3c3.8-2.2,8.7-3.4,14.1-3.6c1.3-0.1,2.8,0,4.2,0
	c1.4,0.1,2.9,0.2,4.3,0.4c0.7,0.1,1.5,0.2,2.2,0.3l0.6,0.1l0.3,0c0,0,0.2,0,0,0l0.1,0l1.2,0.3c0.4,0.1,0.8,0.2,1.2,0.3l1,0.4
	l0.9,0.4l1,0.5c2.6,1.3,5.1,3.3,7.2,5.7c1.5,1.6,2.9,3.4,4.2,5.3l0.4,38.6l-0.2,24.6v4.2c0,1.8-0.2,6.7-0.5,14.7
	c-0.1,2.8-0.5,4.5-1.3,5.1c-0.7,0.6-3.1,0.9-6.9,0.9c-0.4,0-0.8,0-1.2,0c-1.3-0.1-2.1-0.1-2.4-0.1c-0.3,0-0.7,0-1.1,0
	c-1.4,0.1-2.5,1.3-2.5,2.7c0,0.1,0,0.3,0,0.4c0,0.3,0,0.5,0,0.8c0,1.4,1.2,2.5,2.6,2.5h0c0.3,0,1.7-0.1,4.4-0.3
	c2.7-0.2,8-0.4,15.9-0.5c0.1,0,0.2,0,0.3,0c8.5,0.7,13.5,1.1,15.1,1.1l0.2,0c1.5,0,2.7-1.3,2.6-2.8l-0.1-1.6c-0.1-1.1-0.8-2-1.8-2.2
	c0,0,0,0,0,0c-0.1,0-0.3,0-0.4-0.1c-5.2-0.3-9-0.7-11.3-1.2c-0.9-0.2-1.6-0.8-1.9-1.6c-0.2-0.4-0.3-0.8-0.4-1.1
	c-0.2-0.5-0.3-1.5-0.4-2.8c-0.4-4.8-0.7-9.3-0.8-13.5l-0.5-9.8c0-0.1,0-0.1,0-0.2l0.1-5.3c0-1.8,0-3.6-0.1-5.3l-0.6-37
	c2.3,3.1,4.7,6.2,7.2,9.6c5,6.4,10.1,13.1,15.5,20c0.7,0.9,1.5,1.9,2.3,2.9c0.7,0.8,1.4,1.7,2.1,2.5c1.3,1.6,2.6,3.3,3.9,5.1
	c2.7,3.7,5.5,7.4,8.2,11.1c5.6,7.6,11.7,15.3,18.6,22.6c6.9,7.3,14.4,14.5,22.5,21.2c4.7,3.9,9.7,7.7,14.9,11.2
	c-17.7,9.1-34.8,18.5-51.3,27.3c-17.8,9.5-35.1,18.2-51.8,25.5c-16.7,7.3-33.1,12.9-48.7,14.6c-7.7,0.9-15.4,0.8-22.5,0.3
	c-7.2-0.5-13.9-1.6-19.8-3.4c-6-1.8-11.2-4.4-15-7.8c-3.9-3.3-6.3-7.4-7.2-11.3c-0.9-4-0.4-7.7,0.6-10.7c0.8-2.3,1.9-4.2,3-5.8
	c1.4,4.3,5.4,7.4,10.1,7.4c5.8,0,10.6-4.7,10.6-10.6c0-5.8-4.7-10.6-10.6-10.6c-2.6,0-4.9,0.9-6.8,2.4c-0.2,0.1-0.3,0.1-0.4,0.2l0,0
	c0,0-0.2,0.1-0.5,0.3c-0.3,0.2-0.8,0.5-1.4,1c-1.2,0.9-2.9,2.3-4.8,4.5c-1.8,2.2-3.8,5.1-5.2,9.1c-1.4,3.9-2.1,8.9-1,14.2
	c1.1,5.4,4.2,10.8,8.9,15.1c4.7,4.3,10.7,7.4,17.3,9.7c6.6,2.3,13.8,3.7,21.4,4.5c3.8,0.4,7.7,0.7,11.7,0.8c4,0.1,8.2,0.1,12.4-0.2
	c16.8-1.1,34.7-5.3,52.6-11.9c17.9-6.5,35.7-15.8,53.4-26.1c17.7-10.3,35.2-22,53.3-33.1c0.1-0.1,0.2-0.1,0.3-0.2
	c1.1,0.6,2.2,1.2,3.3,1.8c4.9,2.6,10,4.9,15.3,6.8c5.3,1.8,10.9,3.2,16.7,3.7c2.9,0.2,5.8,0.2,8.6,0c1.3,0,2.8-0.1,4.2-0.2
	c1.4-0.1,2.8-0.2,4.2-0.4c2.8-0.4,5.6-0.9,8.4-1.9c2.8-0.9,5.6-2.2,8.1-4.1c2.5-1.9,4.7-4.6,5.7-8
	C1219.3,203.3,1218.7,199.6,1217.2,196.7z M1212.7,205.1c-0.5,1.9-1.9,3.5-3.7,4.9c-3.7,2.7-8.7,4-13.7,4.6
	c-1.3,0.2-2.5,0.3-3.8,0.3c-1.3,0.1-2.5,0.1-3.9,0.1c-2.5-0.1-5-0.6-7.4-1.2c-8.7-2.2-16.7-6.8-23.8-12.2c0.3-0.2,0.6-0.4,1-0.5
	c4.7-2.5,9.4-4.9,14.2-6.9c2.4-1,4.9-1.9,7.3-2.7l1.8-0.5l1.8-0.5l2-0.4c0.5-0.1,1.2-0.2,1.8-0.3c5-0.7,10.1-0.5,14.8,1
	c4.6,1.5,8.9,4.5,10.8,8.4C1213.1,201.2,1213.3,203.2,1212.7,205.1z"/>
<path d="M322.2,83.4l1.2,0.1c3.5,0.3,5.7,0.8,6.9,1.4c1.2,0.6,2.3,1.7,3.2,3.1c0.2,0.3,0.4,0.9,1.1,2.7
	c1.1,2.8,3.2,8.1,6.1,14.5l8.6,21.4l14.3,33.2c3.7,9.7,5.9,15.4,6.5,17.1c0.4,1.1,0.8,2.2,1.1,3.3c0.2,0.6,0.8,1,1.4,1
	c0.9,0,1.7,0.1,2.3,0.1c0.4,0,1.3,0,2.6-0.1c0.3,0,0.6-0.2,0.7-0.5c0.3-0.9,1.3-3.6,2.6-7.2c3.4-9.4,9-25.1,9.8-27.1
	c1.1-2.8,2.1-5.4,3-7.9l9.7-25.9c1-2.6,1.8-5,2.7-7.3c2.6-7.2,4.7-12.8,6.1-15.6c0.7-1.3,1.5-2.2,2.3-2.8c1.1-0.9,4.4-2.4,10.1-4.6
	c0.6-0.2,1-0.8,1-1.4c0-0.5,0-0.9,0-1.2c0-0.4-0.2-0.8-0.5-1.1c-0.3-0.3-0.7-0.4-1.2-0.4c-1.3,0.1-2.9,0.3-4.7,0.5
	c-3,0.4-6.6,0.6-10.9,0.6c-4.1,0-8.4-0.2-12.6-0.6c-2.3-0.2-4.2-0.4-5.5-0.5c-0.8,0-1.6,0.6-1.7,1.4c0,0.5-0.1,0.9-0.1,1.2
	c0,0.2,0,0.3,0.1,0.5c0.1,0.7,0.6,1.2,1.3,1.3c0.5,0.1,1,0.1,1.5,0.2c1.2,0.1,2.2,0.3,2.9,0.5c3.4,0.3,5.9,1.1,7.5,2.3
	c1.2,0.9,1.8,2,1.8,3.2c0,1.7-0.5,5.3-1.4,7.7c-0.9,2.4-2,5.9-3.3,10.5c-0.4,1.4-0.7,2.5-1,3.3l-0.1,0.2l-2.1,5.4l-9,25.8l-2.2,5.6
	c-0.5,1.2-1.6,2-2.9,2c-1.3,0-2.5-0.7-3-2c-0.7-1.8-1.5-3.7-2.3-5.6l-8.6-20.2c-4.1-9.1-7-16.4-8.8-21.8l-2.4-6.5
	c-0.1-0.3-0.2-0.5-0.2-0.8c-0.1-0.9-0.1-2.5-0.1-3c0-1,0.4-1.9,1.1-2.6c1.2-1.2,2.9-2.1,5.3-2.7c0.8-0.2,3-0.5,6.9-1.1
	c0.8-0.1,1.4-0.8,1.3-1.6l-0.1-2c0-0.8-0.7-1.5-1.6-1.5h-3.1c-0.1,0-0.1,0-0.2,0c-1.7,0.3-4.2,0.5-7.4,0.8c-4.7,0.3-7.8,0.5-9.3,0.5
	c-10.1,0-18.3-0.4-24.6-1.1c-0.3,0-1.1-0.1-2.3-0.1c0,0,0,0,0,0c-0.4,0-0.8,0.2-1.1,0.4c-0.3,0.3-0.5,0.7-0.5,1.1v2.2
	C320.8,82.7,321.4,83.3,322.2,83.4z"/>
<path d="M857.9,183.2c1.6,0,2.6-0.1,3-0.1c6.2-0.7,14.4-1.1,24.5-1.1c1.4,0,4,0.1,7.9,0.4c2.3,0.2,4.7,0.4,7.2,0.6
	c0.5,0.1,1,0.1,1.5,0.2c0.1,0,0.2,0,0.3,0h1c4.7,0.4,4.2-5.1,2.3-6.9c-1.3-0.7-3.8-0.7-6.2-0.8c-0.2,0-0.4-0.1-0.6-0.1
	c-2.2-0.6-3.9-1.5-4.9-2.5c-0.6-0.6-1.5-1.3-1.5-2c0-0.4-0.2-1.5-0.2-2.4c0-0.2,0-0.4,0-0.6c0-0.1,0-0.2,0-0.2c0-16.9,0-58,0-66.8
	c0-5.8,1-9.2,2-11.2c0.7-1.4,2.2-2.4,3.8-2.5c2.1-0.2,3.8-0.3,5.1-0.3c1.9-0.1,3.4-1.7,3.4-3.6c-0.2-4-6.2-3.9-6.2-3.9
	s-42.5-1-43.4,0.3c-0.8,1.3-1.2,4.3,0.8,4.8c2,0.5,6.7,0.9,7.5,1.1c6.3,1.4,6.1,13.4,6.1,13.4l0,65.8c0,1.9-0.4,3.8-1.1,5.6
	c-0.3,0.8-0.5,1.3-0.6,1.4c-0.9,1.3-2.6,2.4-3.6,2.9c-1.1,0.6-3.3,1-6.6,1.3l-1.8,0.2c-0.9,0.1-1.5,0.8-1.5,1.7v3.5
	C856.2,182.4,857,183.2,857.9,183.2z"/>
<path d="M746.9,108c1.4,0.4,2.8,0.3,3.5-1.6c4.8-11.5,8.2-16.4,23.2-18h8.8c1.5,0,2.7,1.2,2.7,2.7l0.2,73.2
	c0,1.9-0.4,3.8-1.1,5.6c-0.3,0.8-0.5,1.3-0.6,1.4c-0.9,1.3-2.6,2.4-3.6,2.9c-1.1,0.6-3.3,1-6.6,1.3l-1.8,0.2
	c-0.9,0.1-1.5,0.8-1.5,1.7v3.5c0,1,0.8,1.7,1.8,1.7c1.6,0,2.6-0.1,3-0.1c6.2-0.7,14.4-1.1,24.5-1.1c1.4,0,4,0.1,7.9,0.4
	c2.3,0.2,4.7,0.4,7.2,0.6c0.5,0.1,1,0.1,1.5,0.2c0.1,0,0.2,0,0.3,0h1c4.7,0.4,4.2-5.1,2.3-6.9c-1.3-0.7-3.8-0.7-6.2-0.8
	c-0.2,0-0.4-0.1-0.6-0.1c-2.2-0.6-3.9-1.5-4.9-2.5c-0.6-0.6-1.5-1.3-1.5-2c0-0.4-0.2-1.5-0.2-2.4c0-0.2,0-0.4,0-0.6
	c0-0.1,0-0.1,0-0.2h0c0-14.6-0.2-59.1-0.3-76.1c0-1.5,1.2-2.7,2.7-2.7h1.7c0,0,7.8,0.8,12.3,1.5c17.1,2.7,13.8,14.7,19.8,14.5
	c3.4-0.1,4.5-4.7,1.2-19.6c-0.8-3.4-2.6-8.3-5.2-8.9c-3.2-0.7-7.6,5-28,4.6h-32.7c0,0-6,0.8-11.6-1.1c-4.9-1.6-9.7-7.1-13.2-4.9
	c-2.7,1.6-4.8,10.9-5.1,14.9c-0.5,5.9-2.6,13.8-2.7,15.9C745,106.6,745.7,107.7,746.9,108z"/>
<path d="M533.9,85.8l1.2,0.1c3.3,0.3,5.5,0.8,6.6,1.3c1.1,0.6,2.8,1.6,3.6,2.9c0.1,0.2,0.3,0.6,0.6,1.3
	c0.7,1.9,1.1,3.9,1.1,5.9v64.1c0,0,0.2,12-6.1,13.4c-0.8,0.2-5.5,0.6-7.5,1.1c-2,0.5-1.1,3.4-1.4,4.7c-0.3,1.5,6.7,0.7,11.1,1
	c6.9,0.5,58.9-1.6,67.8-0.1s17.6-0.7,18.4-10c0.5-5.9,2.6-13.8,2.7-15.9c0-1.2-0.7-2.2-1.8-2.5c-1.4-0.4-2.8-0.3-3.5,1.6
	c-7.1,17-11,19.7-54.8,18.3c0,0-3.9-2.2-3.9-13.5c0-8.8,0-48.3,0-65.2h0c0-0.1,0-0.1,0-0.2c0-0.2,0-0.4,0-0.6c0-0.9,0.2-2,0.2-2.4
	c0-0.8,0.9-1.5,1.5-2c1.1-1,2.7-1.9,4.9-2.5c0.1,0,0.3-0.1,0.6-0.1c6.4-0.1,10.8-8.2,3.8-7.6h-1c-0.1,0-0.2,0-0.3,0
	c-0.4,0.1-0.9,0.1-1.5,0.2c-2.5,0.2-4.9,0.4-7.2,0.6c-3.9,0.3-26.1,0-32.3-0.7c-0.4,0-1.1-0.1-2.3-0.1c-1.3,0-2.4,1-2.4,2.4v2.2
	C531.8,84.7,532.7,85.7,533.9,85.8z"/>
<path d="M423.1,123.4l-0.1,0.5l0,0.4l-0.1,0.8l-0.1,1.7l-0.1,1.7l0,0.4l0,0.6l0,0.2l0,1c0.1,2.6,0.2,5.2,0.7,7.8
	c0.3,2.6,1.1,5.1,1.8,7.6c1.6,4.9,3.8,9.7,6.7,13.9c0.7,1.1,1.4,2.1,2.3,3.1c0.8,1,1.6,2,2.4,2.9c1.8,1.8,3.4,3.7,5.4,5.2
	c1.8,1.7,3.9,3,5.8,4.4c2.1,1.2,4.1,2.5,6.2,3.5c2.1,1.1,4.3,1.8,6.4,2.6c2.2,0.5,4.3,1.3,6.7,1.5c2.4,0.5,4.2,0.4,6.3,0.5l0.1,0
	c0,0,0.4,0,0.3,0l0.2,0l0.4,0l0.8,0l1.6-0.1c0.5,0,1.1,0,1.6-0.1l1.6-0.3c4.2-0.5,8.1-1.9,11.9-3.4c1.8-0.9,3.7-1.7,5.3-2.7
	c0.8-0.5,1.7-1,2.5-1.5c0.8-0.6,1.6-1.1,2.3-1.7c6.2-4.5,11-9.9,14.3-15.3c0.9-1.3,1.6-2.7,2.3-4c0.7-1.3,1.4-2.6,1.8-3.9
	c0.5-1.3,1-2.5,1.4-3.7c0.4-1.2,0.7-2.4,1-3.5c0.7-2.1,1-4.4,1.2-6.2c0.1-0.9,0.3-1.9,0.4-2.5c0-0.6,0.1-1.2,0.1-1.8
	c0.1-2.1,0.2-3.2,0.2-3.2l0-0.4c0,0-0.1-1.3-0.2-3.7c0-0.6-0.1-1.3-0.1-2c-0.1-0.7-0.2-1.6-0.4-2.4c-0.3-1.8-0.6-3.8-1.3-6
	c-1.1-4.4-3.3-9.7-6.8-15.1c-1.6-2.4-5.5-7.2-9.7-8.9c-5.9-2.3-12.6-1.5-15.9,0.5c0,0-6.5,3.9-6.4,10.1c0,5.8,4.7,10.6,10.6,10.6
	c2.7,0,6.2-3.7,6.2-6.1c0.1,0.3,1,4,1,4.3c0.2,1.1,0.5,2,0.6,3.1c0.2,1,0.3,1.9,0.5,2.8c0.1,0.9,0.2,1.8,0.3,2.6
	c0.2,1.6,0.3,3.1,0.4,4.4c0.1,1.3,0.1,2.3,0.1,3.2c0,1.6,0.1,2.5,0.1,2.6c0,0.5,0,1.4-0.1,2.9c0,0.5,0,1.1,0,1.8
	c0,0.6-0.1,1-0.1,1.7c-0.1,1.2-0.1,2.4-0.3,4.1c-0.1,0.8-0.2,1.7-0.3,2.6c-0.1,0.9-0.3,1.9-0.5,2.8c-0.1,1-0.3,2-0.6,3.1
	c-0.2,1.1-0.4,2.2-0.8,3.3c-1.2,4.6-3.1,9.7-6.6,14.6c-0.5,0.6-0.9,1.2-1.4,1.8c-0.5,0.6-1,1.1-1.6,1.7c-1,1.2-2.3,2.1-3.6,3.1
	c-2.7,1.8-5.7,3.4-9.2,4.1l-1.3,0.3c-0.4,0.1-0.9,0.1-1.3,0.1c-0.8,0.1-1.6,0.1-2.5,0.2c-1.9-0.2-4.1-0.2-5.7-0.7
	c-1.7-0.3-3.4-1.1-5.1-1.8c-1.6-0.9-3.3-1.8-4.7-3c-1.5-1.1-2.8-2.6-4.1-3.9c-1.2-1.6-2.4-3-3.3-4.7c-1-1.6-1.8-3.4-2.6-5.1l-1-2.7
	c-0.4-0.9-0.6-1.8-0.8-2.7c-2.1-7.3-2.8-14.9-2.9-22.4l0-0.7l0-0.1l0-0.3l0.1-1.7l0-1.7l0-0.8l0-0.4l0-0.3c0.2-1.7,0.1-3.3,0.4-5.2
	c0.3-3.7,1.1-7.4,1.9-11c0.9-3.7,2.3-7.2,4.2-10.5c1.8-3.3,4.3-6.3,7.2-8.7c0.8-0.6,1.5-1.1,2.3-1.7c0.8-0.5,1.6-0.9,2.4-1.4
	c0.8-0.5,1.7-0.8,2.5-1.1c0.9-0.3,1.7-0.7,2.6-0.8c0.9-0.2,1.8-0.4,2.7-0.6c0.9-0.1,1.8-0.1,2.7-0.2l0.7,0l0.3,0l0,0l0.1,0l1.5,0.1
	c0.9,0.1,2,0.1,2.8,0.3c1.4,0.3,6.7-4.6,3.8-5.9c-1.1-0.1-2.2-0.3-3.2-0.4c-1.1-0.2-2-0.1-3-0.2l-1.5-0.1l-0.2,0l-0.3,0l-0.1,0
	l-0.4,0l-0.8,0c-1.1,0.1-2.2,0.1-3.2,0.2c-1.1,0.2-2.2,0.3-3.3,0.5c-4.3,0.8-8.8,2-13,4.1c-4.2,2.1-8.4,4.6-12.1,7.9
	c-1,0.8-1.8,1.7-2.7,2.6l-1.3,1.3c-0.4,0.5-0.8,1-1.2,1.4c-0.8,1-1.7,1.9-2.4,3c-0.7,1-1.5,2.1-2.2,3.2c-2.7,4.4-5,9.2-6.2,14.2
	C423.8,117.7,423.5,120.6,423.1,123.4z"/>
<path d="M629.6,84.6c0.2,0,0.4,0,0.6,0c5.8,0.2,9.3,1.1,10.4,2.8c0.8,1.2,1.2,6.3,1.2,15.3v38.1c0,7.4,0.4,13,1.1,17
	c1.1,5.8,3,10.4,5.9,14c2.9,3.6,7.1,6.5,12.7,8.7s12.3,3.3,20.1,3.3c6.9,0,12.9-0.8,18-2.4c5.1-1.6,9.4-3.7,12.9-6.4
	c3.4-2.7,6.1-5.6,8-8.8c1.2-2.1,2.2-5,2.9-8.7c0.7-3.7,1.1-11,1.1-21.8l-0.2-16.2c-0.1-3.9,0.4-29.5,0.4-30.5c0-1.3,0.4-2.3,1.1-3
	c0.3-0.3,1.6-0.7,4.9-1.2c0.1,0,0.1,0,0.2,0c1.4-0.1,2.7-0.2,4-0.5c1.2-0.3,2.1-1.3,2.1-2.5l0-0.1c0-0.7-0.1-3.2-0.4-3.5
	c-0.3-0.4-1.4-0.4-1.4-0.4c-4.4,0.5-9.8,0.7-14.6,0.7L706,77.8h-3.3c-1.5,0-2.7,1.2-2.7,2.7c0,0-0.3,2.3,0.2,3
	c0.3,0.6,0.5,0.7,1,0.8c0.5,0.1,6.8-0.2,6.8-0.2c2,0,3.8,0.8,5.5,2.5c1,1.1,1.5,3.2,1.7,6.3l0.3,4.2c1.3,16.2,1.4,30.7,1.4,43.6
	c0,7.4-0.5,12.9-1.4,16.4c-0.7,2.6-2,5.3-3.8,8.2c-0.9,1.4-2.4,2.9-4.6,4.6c-2.2,1.7-4.5,2.9-7,3.6c-4.2,1.3-8.7,2-13.6,2
	c-4.1,0-8.3-1.1-12.5-3.4c-2.9-1.6-5.2-3.8-6.8-6.6c-2.2-3.8-3.4-8.7-3.6-14.5l-1-20c0-0.1,0-0.1,0-0.2l-0.1-20c0-0.1,0-0.2,0-0.2
	l0.1-7.4l-0.1-2.9c-0.1-1.1-0.1-2.5-0.1-4.2c0-5.6,0.3-8.8,0.9-9.5c0.9-1.2,2.8-1.8,5.6-1.8c3,0,7.5,0,8.1-0.4s0.7-1.7,0.7-1.7
	l-0.1-3.8c0,0,0-0.6-0.4-0.8c-0.4-0.2-2.6-0.1-5.6,0c-3,0-6.4,0.2-10.3,0.3c-3.9,0.2-7.8,0.3-11.9,0.3c-1.2,0-5.1-0.2-11.8-0.6
	c-2.8-0.2-5.4-0.2-8-0.2c-1.5,0-2.8,1.3-2.7,2.8l0,1.2C627,83.4,628.1,84.6,629.6,84.6z"/>
<path d="M220.1,86.4l1.2,0.1c3.3,0.3,5.5,0.8,6.6,1.3c1.1,0.6,2.8,1.6,3.6,2.9c0.1,0.2,0.3,0.6,0.6,1.3
	c0.7,1.9,1.1,3.9,1.1,5.9v31.4c-0.9,0.5-1.7,1-2.5,1.6c-3.5,2.5-5.8,5.4-7,7.5c-0.6,1-1,2-1.3,2.6c-0.1,0.3-0.2,0.6-0.3,0.7
	c-0.1,0.2-0.1,0.3-0.1,0.3c-0.1,0.2,0,0.5,0.1,0.7c0.3,0.4,0.8,0.5,1.2,0.2c0,0,0.1,0,0.2-0.1c0.1-0.1,0.3-0.2,0.6-0.3
	c0.5-0.3,1.3-0.7,2.3-1.1c1.7-0.8,4.1-1.6,6.8-2.3v23.1c0,0,0.2,12-6.1,13.4c-0.8,0.2-5.5,0.6-7.5,1.1c-2,0.5-1.1,3.4-1.4,4.7
	c-0.3,1.5,6.7,0.7,11.1,1c6.9,0.5,58.9-1.6,67.8-0.1s17.6-0.7,18.4-10c0.5-5.9,2.6-13.8,2.7-15.9c0-1.2-0.7-2.2-1.8-2.5
	c-1.4-0.4-2.8-0.3-3.5,1.6c-7.1,17-11,19.7-54.8,18.3c0,0-3.9-2.2-3.9-13.5c0-3.5,0-12.1,0-22.2c1.5,0.2,3,0.3,4.5,0.6
	c1.2,0.2,2.4,0.4,3.7,0.5c1.3,0.2,2.6,0.3,3.9,0.4c2.6,0.2,5.2,0.3,7.8,0.2c2.6-0.1,5.1-0.4,7.6-0.9c2.5-0.6,4.8-1.4,6.9-2.5
	c2.1-1.1,3.8-2.7,5-4.1c1.2-1.5,1.9-2.9,2.3-4c0.5-1.1,0.7-2,0.9-2.6c0.2-0.6,0.3-0.9,0.3-0.9c0-0.2,0-0.4-0.1-0.6
	c-0.2-0.4-0.7-0.6-1.1-0.3c0,0-0.3,0.2-0.8,0.5c-0.5,0.3-1.3,0.8-2.2,1.4c-0.9,0.6-2,1.2-3.2,1.6c-1.2,0.5-2.5,0.7-4,0.8
	c-1.4,0.1-3.1,0.1-5-0.1c-1.8-0.1-3.9-0.4-6-0.7c-2.2-0.4-4.4-0.7-6.7-1.1c-1.2-0.2-2.3-0.4-3.5-0.6c-1.2-0.2-2.4-0.5-3.7-0.6
	c-2.2-0.3-4.4-0.5-6.6-0.5c0-11.2,0-22.3,0-29.5h0c0-0.1,0-0.1,0-0.2c0-0.2,0-0.4,0-0.6c0-0.9,0.2-2,0.2-2.4c0-0.8,0.9-1.5,1.5-2
	c1.1-1,2.7-1.9,4.9-2.5c0.1,0,0.3-0.1,0.6-0.1c6.4-0.1,14.9,0.2,25,1.8c17.1,2.7,13.8,14.7,19.8,14.5c3.4-0.1,4.5-4.7,1.2-19.6
	c-1.7-7.7-7.9-5.5-19.4-5.4c-9.3,0.1-30.5,1.7-32.8,1.9c-3.9,0.3-6.5,0.4-7.9,0.4c-10.1,0-18.2-0.4-24.5-1.1c-0.4,0-1.1-0.1-2.3-0.1
	c-1.3,0-2.4,1-2.4,2.4V84C218,85.2,218.9,86.2,220.1,86.4z"/>
<path d="M320.2,229.8c-1.1-2.4-2.7-4.4-4.2-5.8c-1.5-1.5-3.1-2.4-4.3-3.1c-0.6-0.4-1.2-0.6-1.7-0.8
	c-0.5-0.2-0.9-0.4-1.3-0.5c-0.7-0.2-1-0.4-1-0.4l0,0c-1.4-0.6-2.9-1-4.5-1c-5.9,0-10.7,4.8-10.7,10.7c0,5.9,4.8,10.7,10.7,10.7
	c5.1,0,9.4-3.6,10.5-8.5c0.2,0.4,0.5,0.8,0.7,1.3c1.6,3.3,1.7,8.2-0.5,13c-1.1,2.4-2.8,4.8-5,7c-1.1,1.1-2.4,2.1-3.7,3l-1,0.7
	l-1.2,0.7l-0.6,0.4l-0.1,0c0.2-0.1,0,0,0,0l-0.1,0.1l-0.3,0.2l-1.2,0.7c-6.3,3.5-13.9,6.3-22.1,8.1c-8.2,1.8-17.1,2.3-25.9,1.2
	c-8.9-1.2-17.7-4-25.5-8.7c-7.9-4.6-14.7-11.1-20.3-18.4c-5.6-7.4-10.1-15.8-13.7-24.4c-3.6-8.7-6.4-17.7-8.5-26.5
	c-0.3-1.1-0.5-2.3-0.8-3.4c-0.3-1.4-0.7-2.8-1.2-4.2c-0.9-2.8-1.9-5.6-3.2-8.2c-1.3-2.7-2.9-5.2-4.6-7.6c-1.8-2.4-3.7-4.6-5.8-6.6
	c-2.7-2.6-5.6-4.7-8.6-6.5c2.3-1,4.7-2,7.1-3.3c5.2-2.7,10.4-6.3,15.2-10.8c4.8-4.5,9.1-10,12.5-16.2c1.7-3.1,3.1-6.4,4.3-9.7
	c1.2-3.4,2.1-6.8,2.8-10.3c0.6-3.5,1.1-7.1,1.2-10.6c0.1-0.9,0.1-1.8,0.1-2.7l0-2.9l-0.1-2.3c0-0.4,0-0.8-0.1-1.3l-0.1-1.5
	c-0.3-3.8-0.9-7.4-1.7-11.1c-0.8-3.7-2-7.3-3.5-10.9c-2.9-7.1-7-13.9-12.1-19.8c-10.1-11.8-23.4-20.2-37.3-25.1
	c-13.9-4.9-28.4-6.7-42.4-6.1c-14,0.5-27.4,3.2-39.9,7.3c-3.1,1-6.2,2.1-9.1,3.3c-3,1.2-5.8,2.5-8.8,3.9c-5.9,3-11.1,6.5-15.8,10.6
	c-9.3,8.1-15.9,18-19.9,27.9c-4,9.9-5.6,19.7-5.2,28.4c0.4,8.7,2.6,16.4,6.4,21.9c1.8,2.8,4.1,4.9,6.3,6.5c2.2,1.5,4.4,2.4,6.2,2.9
	c1.8,0.5,3.2,0.7,4.1,0.7c0.5,0,0.9,0,1.1,0.1c0.7,0.1,1.4,0.2,2.1,0.2c6.9,0,12.4-4.9,12.4-11s-5.6-11-12.4-11
	c-6.6,0-12,4.6-12.4,10.4c-0.6-0.7-1.2-1.5-1.8-2.4c-2.8-4.2-4.6-10.7-4.6-18.3c0-7.6,1.7-16.3,5.6-24.9
	c3.9-8.5,10.1-16.9,18.5-23.5c4.2-3.3,8.9-6.2,14-8.4c2.5-1.1,5.3-2.2,8.1-3.1c2.8-0.9,5.7-1.8,8.6-2.5c11.6-3,24-4.2,36.4-3.6
	c6.2,0.3,12.3,1.2,18.3,2.5c6,1.3,11.9,3.1,17.4,5.5c11,4.8,20.6,12.1,26.5,21.2c5.9,9.1,8.3,19.6,8.6,29.8l0,0.9c0,0.3,0,0.6,0,1
	l0,2.3c0-0.1,0,0.3,0-0.1l0,0.1l0,0.2l0,0.5l0,1c0,0.7,0,1.3-0.1,2c-0.1,2.6-0.4,5.1-0.7,7.6c-0.4,2.4-0.8,4.8-1.3,7.1
	c-0.6,2.3-1.2,4.4-2.1,6.5c-3.2,8.3-9.1,14.8-16.2,19.3c-7,4.6-14.9,7.3-22.1,9.2c-3.6,0.9-7.1,1.7-10.3,2.3c-3.2,0.6-6.3,1.1-9,1.4
	c-3.2,0.4-6,0.7-8.3,0.9c0-26.7,0.1-54.8,0.1-67.8c0.1-2,0.3-5.9,0.4-6.1c0.3-2.1,1.6-5.8,5.6-8.1l2.1-1.3c1-0.6,1.4-1.9,0.9-3
	l-2-4.3c-0.6-1.2-2-1.7-3.2-1.1c-2,1-16.2,8.4-28.7,14.3c-1.7,0.8-6.6,3.2-7.2,3.4c-0.2,0-0.3,0.1-0.4,0.2l-1.3,0.6
	c-3.4,1.3-3.7,3.8-2.7,6.1c0.9,2.1,3,3.6,5.4,3.6c6.3-0.1,7.9,11.2,7.8,15.4l0.1,122.8c-0.1,1.8-0.3,4.9-0.3,5.1
	c-0.3,2.1,0.4,4.6-5.6,8.1l-2.1,1.3c-1,0.6-1.4,1.9-0.9,3l2,4.3c0.6,1.2,2,1.7,3.2,1.1c2-1,16.2-8.4,28.7-14.3
	c1.7-0.8,6.6-3.2,7.2-3.4c0.2,0,0.3-0.1,0.4-0.2l1.3-0.6c3.3-1.3,3.7-3.8,2.8-6c-0.9-2.2-3.1-3.7-5.5-3.9c-3.9-0.3-7.5-3.1-8-12.1
	c0-6.9,0-20.6,0-36.7c3.4,0,7.1,0.1,11.1,0.2c5.7,0.2,12,0.9,18.1,2.7c6.1,1.7,11.9,4.5,16.2,8.8c2.2,2.1,4.1,4.6,5.6,7.6
	c0.8,1.5,1.5,3.1,2.1,4.8c0.3,0.9,0.6,1.7,0.8,2.7c0.4,1.2,0.7,2.4,1.1,3.6c2.9,9.8,6.6,19.8,11.7,29.5c5,9.7,11.3,19.2,19.1,27.4
	c7.8,8.2,17.1,15.2,27.4,19.9c10.2,4.7,21.1,7.1,31.5,7.5c10.4,0.5,20.4-1,29.4-3.4c9-2.5,17.1-6.1,24.1-10.5l1.3-0.8l0.7-0.5
	l0.6-0.4l1.1-0.8l1.3-1c1.6-1.4,3.1-2.7,4.4-4.2c2.7-2.9,4.7-6.2,6-9.6c1.3-3.4,1.9-6.8,1.7-10C322.1,235.2,321.3,232.2,320.2,229.8
	z"/>
</svg>
