<svg version="1.1" id="Layer_1" xmlns="http://www.w3.org/2000/svg" xmlns:xlink="http://www.w3.org/1999/xlink" x="0px" y="0px"
	 viewBox="0 0 836.9 576" style="enable-background:new 0 0 836.9 576;" xml:space="preserve">
<g>
	<g>

			<ellipse transform="matrix(0.9774 -0.2116 0.2116 0.9774 -45.658 53.4974)" cx="227.1" cy="240.1" rx="15.1" ry="6.5"/>

			<ellipse transform="matrix(0.9883 -0.1525 0.1525 0.9883 -44.7879 34.1865)" cx="200.4" cy="309" rx="14.3" ry="12.5"/>

			<ellipse transform="matrix(0.9883 -0.1525 0.1525 0.9883 -49.5324 43.3887)" cx="258" cy="344.5" rx="14.3" ry="12.5"/>
		<path d="M307.4,241.3l-10.6-36.2l0,0c0,0,0,0,0,0c0-0.2-0.2-0.3-0.3-0.3L180,220.1c-0.6,0.1-1.1,0.4-1.3,1l0,0.1
			L154.4,276c-0.3,0.6-0.4,1.4-0.3,2.1c0.1,0.4,28.2,91.5,28.2,91.5l0.6-0.2l-20.3-88.8l112.5-17.4l31.1,106l0.2,0l-27.9-108
			l18.1-55.2l9.9,36.9L307.4,241.3z M183.7,222.3l112.5-16.8l-21.1,53.8l-111.2,13.5L183.7,222.3z"/>
	</g>
	<path d="M574.9,234.7c-0.1-1.7-0.2-3.4-0.4-5.1c-0.2-1.7-0.4-3.4-0.7-5c-0.3-1.7-0.6-3.3-0.9-5c-0.3-1.7-0.7-3.3-1.1-5
		l0,0l-0.4-1.7l-1.8-0.6c-1.4-0.5-3.1-1.2-4.6-2c-1.6-0.8-3.1-1.7-4.5-2.6l-2.1-1.5l-2.1-1.6l-2-1.7l-1.9-1.9
		c-1.2-1.3-2.3-2.6-3.4-4l-0.8-1l-0.7-1.1c-0.4-0.7-0.9-1.3-1.4-2.2l-2.7-4.9c-0.9-1.8-2-3.4-3-5.1c-1.1-1.6-2.1-3.3-3.2-4.8
		c-1.1-1.6-2.2-3.1-3.4-4.6c-2.4-3-4.8-6-7.3-8.9c-2.5-2.9-5.1-5.7-7.7-8.4c-1.3-1.4-2.7-2.7-4-4.1c-0.6-0.6-1.2-1.2-1.8-1.7
		l6.4-9.9l0,0l0.9-1.4l-0.4-1.4c-0.6-2.1-1.1-4.3-1.8-6.4c-0.7-2.1-1.3-4.2-2.1-6.3c-0.8-2.1-1.6-4.1-2.5-6.1c-0.9-2-1.9-4-2.9-6
		c-1-2-2.1-3.9-3.3-5.8c-1.2-1.9-2.4-3.7-3.6-5.5c-1-1.6-2.2-3.1-3.3-4.5c1.6-0.3,4.3-0.9,7.5-2.2c2.6-1,5.6-2.4,8.6-4.4
		c1.5-1,3-2.1,4.5-3.4c1.5-1.3,2.9-2.8,4.1-4.5c1.2-1.8,2.4-3.8,2.8-6.4c0.5-2.5-0.1-5.4-1.4-7.4c-0.7-1-1.4-1.9-2.2-2.5
		c-0.8-0.7-1.6-1.3-2.3-1.7c-0.8-0.5-1.6-0.8-2.3-1.2c-0.4-0.2-0.7-0.3-1.1-0.5c-0.4-0.1-0.7-0.2-1.1-0.3c-0.7-0.2-1.4-0.4-2-0.6
		c-0.6-0.1-1.3-0.2-1.8-0.3c-0.6-0.1-1.1-0.2-1.6-0.2c0.2-0.5,0.3-1.1,0.4-1.7l0.2-1.2c0-0.4,0-0.8,0-1.2c0-1.7-0.6-3.3-1.3-4.7
		c-0.3-0.7-0.8-1.3-1.3-1.9c-0.4-0.6-1-1-1.5-1.5c-0.5-0.5-1-0.9-1.5-1.3c-0.5-0.4-1-0.8-1.6-1c-0.5-0.3-1-0.6-1.6-0.9l-0.4-0.2
		l-0.2-0.1l-0.4-0.1l-0.7-0.3c-0.8-0.4-2.2-0.7-3.3-1c-2.3-0.4-4.4-0.3-6.3,0.1c-1.1,0.3-2,0.6-2.9,1c0.2-1.2,0.2-2.5,0-3.8
		c-0.3-2.2-1.5-4.4-2.9-5.9c-1.5-1.6-3.1-2.7-4.7-3.5l-1.2-0.6l-1.3-0.5l-2.1-0.7c-0.7-0.3-1.5-0.5-2.3-0.7
		c-0.8-0.2-1.6-0.5-2.4-0.6c-3.1-0.7-6.4-1.1-9.5-1c-3.2,0.1-6.3,0.7-9,1.9c-1.7,0.7-3.2,1.6-4.5,2.6c0,0,0,0-0.1,0
		c-0.4-0.2-0.9-0.5-1.4-0.8c-0.5-0.3-1.1-0.5-1.7-0.8c-0.6-0.2-1.3-0.5-2-0.7c-0.7-0.2-1.5-0.4-2.4-0.6c-0.8-0.1-1.7-0.3-2.7-0.3
		c-0.9,0-1.9-0.1-2.9,0c-2,0.1-4.1,0.5-6.2,1.2c-2.1,0.7-4.1,1.7-6.1,2.9c-0.9,0.6-1.9,1.3-2.8,2c-0.9,0.7-1.7,1.5-2.5,2.3l-0.6,0.6
		l-0.2,0.1l-0.1,0.1l0,0l-0.2,0.2l-0.3,0.3l-1,1.2c-0.2,0.2-0.5,0.5-0.7,0.8c-0.2-0.1-0.4-0.2-0.6-0.2c-1-0.3-2.1-0.8-3.5-1
		c-1.4-0.3-3-0.6-4.7-0.8c-3.5-0.3-7.8-0.2-12.3,1.3c-2.2,0.8-4.5,1.9-6.6,3.4c-2.1,1.5-3.9,3.5-5.4,5.7c-0.6,1.1-1.4,2.2-1.8,3.4
		c-0.3,0.6-0.5,1.2-0.8,1.8l-0.5,1.8c-0.2,0.5-0.3,1-0.4,1.5c-0.1,0-0.3,0-0.4,0c-1.8-0.2-4.4-0.2-7.5,0.4
		c-3.1,0.6-6.7,1.9-10.1,4.5c-1.7,1.3-3.3,2.9-4.5,4.8c-0.7,0.9-1.2,1.9-1.7,3c-0.4,1.1-0.9,2.1-1.2,3.2l0,0.2
		c-0.8,0.1-1.7,0.3-2.6,0.6c-1.4,0.4-3,0.9-4.6,1.6c-1.6,0.8-3.4,1.7-5.1,2.9c-1.7,1.2-3.4,2.7-5,4.6c-1.5,1.8-2.9,3.9-4,6.2
		c-0.6,1.1-0.9,2.4-1.4,3.6c-0.3,1.2-0.7,2.5-0.8,3.8l-0.2,1.9c0,0.6,0,1.3-0.1,1.9c-0.1,1.3,0.1,2.5,0.1,3.7c0,0.4,0.1,0.8,0.1,1.2
		c-1.7,0.6-3.9,1.6-6.3,3.3c-1.3,1-2.7,2.2-4,3.6c-1.3,1.5-2.5,3.2-3.4,5.2c-0.9,2-1.6,4.2-1.9,6.5c-0.3,2.3-0.3,4.7,0.1,7
		c0.1,1.2,0.5,2.2,0.7,3.4c0.2,0.5,0.3,1.1,0.5,1.6c-1.3,1.3-2.7,3-4.2,5.3c-1.8,2.8-3.7,6.3-4.8,10.4c-0.6,2.1-1,4.3-1.2,6.6
		c-0.1,2.3,0,4.7,0.5,7.1c0.5,2.4,1.2,4.7,2.4,6.8c0.3,0.5,0.5,1.1,0.8,1.6c0.3,0.5,0.7,1,1,1.5c0.1,0.1,0.1,0.2,0.2,0.3
		c-1.3,0.9-2.8,2.1-4.3,4c-0.9,1.2-1.8,2.6-2.4,4.3c-0.7,1.7-1.1,3.6-1.1,5.6c0,2,0.3,4.2,1,6.2c0.7,2,1.7,3.9,2.9,5.5l0.9,1.2
		l1,1.1c0.6,0.8,1.4,1.4,2.1,2.1c0.7,0.7,1.4,1.2,2.2,1.8c0.2,0.1,0.3,0.3,0.5,0.4c-1.1,1.1-2.4,2.6-3.6,4.5
		c-1.5,2.4-2.9,5.7-3.3,9.5c-0.2,1.9-0.2,4,0.2,6c0.3,2.1,1.1,4.1,2.1,6c0.7,1.2,1.4,2.3,2.3,3.4c-0.2,0.2-0.5,0.5-0.8,0.7
		c-1.1,1.1-2.5,2.7-3.8,5c-1.3,2.3-2.5,5.3-2.7,9c-0.1,1.8,0.1,3.8,0.7,5.7c0.6,2,1.7,3.8,2.9,5.4c0.9,1.1,2,2,3.1,2.9
		c-0.7,0.6-1.5,1.4-2.3,2.3c-0.9,1.1-1.9,2.3-2.7,3.9c-0.8,1.5-1.5,3.2-1.8,5.2c-0.3,1.9-0.4,4.1,0,6.2c0.5,2.1,1.3,4.2,2.5,6
		c0.6,0.9,1.3,1.7,1.9,2.5c0.7,0.7,1.4,1.5,2.2,2.1c0.2,0.1,0.3,0.3,0.5,0.4c-1.2,0.5-2.8,1.4-4.4,2.8c-1.7,1.5-3.5,3.6-4.7,6.3
		c-0.6,1.4-1.1,2.9-1.3,4.5c-0.3,1.6-0.2,3.3-0.1,4.9c0.2,1.6,0.6,3.2,1.2,4.7c0.3,0.7,0.6,1.4,1,2.1c0.4,0.7,0.7,1.3,1.1,1.9
		c0.8,1.2,1.7,2.2,2.6,3.2c0.9,0.9,1.8,1.7,2.7,2.3c0.9,0.7,1.7,1.2,2.5,1.6c0.5,0.3,0.9,0.5,1.3,0.7c-1.6,3.3-2.8,6.7-3.4,10
		c-1.5,7.2-0.2,14,2.2,18.7c2.4,4.7,5.5,7.5,7.6,9.1c1.1,0.8,2,1.3,2.6,1.6c0.6,0.3,0.9,0.5,0.9,0.5s-0.2-0.3-0.6-0.8
		c-0.4-0.6-1-1.4-1.6-2.5c-1.4-2.2-3.1-5.4-4.2-9.7c-1.2-4.3-1.5-9.6-0.2-15.5c1.4-5.9,4.5-12.4,9.1-18.7c0.6-0.8,1.2-1.7,1.9-2.5
		c0.6-0.9,1.3-1.7,1.9-2.7c1.3-1.8,2.5-3.8,3.6-5.8c2.2-4.1,4.1-8.6,5.3-13.4c1.2-4.8,1.8-9.8,2-14.9c0.1-5.1,0-10.2-0.2-15.4
		c-0.5-10.3-1-21-1.5-31.8c-0.4-10.8-0.9-21.7-1.2-32.6c-0.2-5.5-0.3-10.9-0.4-16.4l0-4.1l0-4c0.1-2.7,0.2-5.3,0.4-7.9
		c0.9-10.5,3-20.7,6.5-30.1c3.5-9.4,8.2-18,13.6-25.5c5.4-7.5,11.4-14,17.5-19.4c12.2-10.9,24.1-17.8,32.7-22.1
		c3.9-1.9,7.1-3.3,9.5-4.3c-0.1,0.2-0.3,0.5-0.4,0.7c-0.7,1.3-1.4,2.5-2,3.9c-0.6,1.3-1.2,2.6-1.7,3.9c-0.6,1.3-1.1,2.6-1.6,4
		c-1,2.7-1.8,5.4-2.4,8.2c1.4-2.5,2.9-4.9,4.4-7.3c1.5-2.4,3-4.7,4.7-7c1.6-2.3,3.2-4.5,5-6.6c0.9-1,1.8-2.1,2.7-3.1
		c0.9-1,1.9-2,2.8-3c0.9-1,1.9-1.9,2.9-2.8c1-0.9,2-1.8,3.1-2.5c1-0.8,2.1-1.5,3.2-2.3c1.1-0.7,2.2-1.4,3.3-1.9
		c0.6-0.3,1.1-0.6,1.7-0.8c0.6-0.2,1.1-0.5,1.7-0.7c0.6-0.2,1.2-0.4,1.8-0.6l1.8-0.5c0.4-0.1,0.8-0.1,1.2-0.2
		c-0.3,0.8-0.5,1.6-0.7,2.5c-0.4,1.6-0.7,3.2-0.8,4.8c-0.1,1.6-0.1,3.3,0.1,5c0.1,0.8,0.3,1.7,0.5,2.5l0.2,0.9l0.1,0.7
		c0.1,1.1,0.2,2.3,0.1,3.6c-0.1,2.5-0.6,5.1-1.2,7.7c-0.7,2.6-1.5,5.1-2.7,7.5c-1.1,2.4-2.5,4.7-4.2,6.7c-0.8,1-1.7,2-2.7,2.9
		c-1,0.9-2.1,1.6-3.3,2.3c-1.2,0.6-2.4,1.2-3.8,1.6c-1.3,0.5-2.7,0.6-4.1,0.8c1.4,0.3,2.9,0.4,4.3,0.3c1.5,0,2.9-0.4,4.4-0.8
		c1.4-0.4,2.8-1,4.2-1.8c1.3-0.8,2.6-1.6,3.7-2.6c1.2-1,2.2-2.1,3.2-3.3c1-1.2,1.9-2.4,2.7-3.7c0.9-1.3,1.6-2.6,2.2-3.9
		c0.7-1.4,1.3-2.7,1.8-4.2c1-2.9,1.8-5.8,2.2-8.9c0.1-0.6,0.1-1.3,0.2-1.9c2.2,0.9,4.3,1.8,6.4,2.8c1.9,0.9,3.8,1.9,5.6,3
		c1.8,1.1,3.6,2.2,5.4,3.4c1.7,1.2,3.4,2.4,5.1,3.7c1.7,1.3,3.3,2.6,4.8,4c1.6,1.4,3,2.9,4.5,4.3c1.4,1.5,2.8,3,4.1,4.7
		c1.4,1.6,2.6,3.2,3.9,4.8c1.2,1.7,2.6,3.2,3.7,5c1.2,1.7,2.2,3.5,3.3,5.2c1,1.8,2,3.6,2.9,5.5c0.9,1.9,1.8,3.7,2.5,5.7
		c0.8,1.9,1.5,3.9,2.2,5.8c0.7,1.9,1.2,4,1.9,5.9c0.4,1.5,0.8,3,1.1,4.5l-7.7,11.1l-1.8,2.7l2.5,2.4l0,0c1.3,1.2,2.7,2.5,4,3.8
		l3.9,3.9c2.6,2.6,5.1,5.3,7.6,8c2.4,2.8,4.9,5.5,7.1,8.4c1.2,1.4,2.2,2.9,3.3,4.4c1.1,1.5,2.1,3,3.1,4.5c0.9,1.5,2,3,2.8,4.6
		l2.7,4.9c0.5,0.8,1.1,1.7,1.7,2.6c0.6,0.9,1.2,1.7,1.8,2.5c1.2,1.6,2.6,3.1,3.9,4.6l2.2,2.1l2.3,2c0.8,0.6,1.6,1.2,2.4,1.8
		c0.8,0.6,1.6,1.1,2.5,1.7c1.7,1.1,3.4,2.1,5.2,2.9c1.3,0.6,2.5,1.2,3.9,1.7c0.2,1,0.4,2,0.6,3c0.3,1.6,0.5,3.1,0.7,4.7
		c0.2,1.6,0.4,3.1,0.5,4.7c0.1,1.6,0.2,3.1,0.3,4.7c0,1.5,0,3.1-0.1,4.6c0,0.8-0.1,1.5-0.2,2.2c-0.1,0.7-0.2,1.4-0.4,2.1l-0.2,1
		l-0.3,0.9c-0.1,0.3-0.2,0.6-0.3,0.9l-0.4,0.7l-0.2,0.4c0,0-0.1,0.1-0.1,0.1l-0.2,0.2l-0.7,1c-0.5,0.7-0.9,1.1-1.3,1.7
		c-0.9,1.1-1.9,2.1-3,3c-1,0.8-2.1,1.5-3,1.8c-0.6,0.2-0.1,0.1-1.3,0.1l-2.5,0.1c-1.7,0.1-3.3,0.2-5,0.3c-3.4,0.3-6.7,0.6-10.2,1.3
		c-1.7,0.4-3.5,0.8-5.3,1.5c-0.8,0.3-1.6,0.7-2.4,1.2l-0.2-0.2c0-0.1,0-0.1,0-0.2c-0.3-1.6-0.9-3.3-1.7-5c-0.4-0.9-0.8-1.7-1.3-2.6
		c-0.5-0.9-1-1.7-1.6-2.5c-1.1-1.6-2.4-3.1-3.7-4.4c-1.3-1.3-2.7-2.4-4-3.2c-1.3-0.9-2.4-1.5-3.3-1.9c-0.9-0.4-1.4-0.6-1.4-0.6
		s0,0.6,0.2,1.5c0.2,0.9,0.5,2.2,1,3.7c0.5,1.4,1.2,3,2,4.6c0.4,0.8,0.9,1.6,1.4,2.4c0.5,0.8,1,1.6,1.5,2.4c0.5,0.7,1,1.4,1.6,2.1
		c-0.5,0.6-1,1.2-1.6,1.8l-1.8,1.9c-1.2,1.3-2.4,2.5-3.7,3.6c-0.6,0.6-1.3,1.1-1.9,1.6c-0.3,0.3-0.6,0.5-1,0.7
		c-0.3,0.2-0.6,0.5-1,0.7l-0.5,0.3c-0.2-0.7-0.4-1.4-0.6-2.1c-0.6-2-1.2-4-2-5.9c-1.5-3.9-3.4-7.6-5.7-11.2
		c-2.3-3.6-5.1-6.9-8.4-9.7c-3.2-2.9-6.9-5.3-11-7.1c-4-1.7-8.3-2.8-12.6-3.3c-1.1-0.1-2.2-0.2-3.2-0.3l-3.2,0
		c-1.9,0-3.9,0.1-5.8,0.1c-7.6,0-15.3-0.6-22.3-2.3c-3.5-0.9-6.9-2.2-9.8-3.9c-2.9-1.8-5.3-4.1-7.2-6.9c-0.9-1.4-1.7-2.9-2.3-4.6
		c-0.6-1.6-1.1-3.3-1.4-5.1c-0.7-3.5-1-7.2-1-11l0.2-5.8c0.1-2,0.1-3.9,0.1-5.9c0.1-4,0-8-0.3-12c-0.3-4-0.8-8-2-11.9
		c-0.6-1.9-1.5-3.9-2.9-5.4c-1.3-1.6-3.1-2.6-5-3.4c1.7,1.1,3.1,2.4,4.1,4c1,1.6,1.5,3.4,1.8,5.3c0.6,3.7,0.5,7.6,0.3,11.5
		c-0.2,3.9-0.6,7.7-1,11.6c-0.2,1.9-0.4,3.9-0.7,5.8c-0.3,2-0.5,3.9-0.7,5.9c-0.3,4.1-0.4,8.3,0.2,12.5c0.3,2.1,0.8,4.2,1.4,6.3
		c0.7,2.1,1.6,4.1,2.7,6.1c1.2,1.9,2.5,3.8,4.1,5.4c1.6,1.6,3.3,3.1,5.2,4.3c3.7,2.4,7.8,4.1,11.9,5.2c3.5,1,7,1.6,10.5,2.1
		c-0.1,0.1-0.2,0.2-0.3,0.3c-0.4,0.5-0.8,1.1-1.3,1.6c-0.3,0.6-0.7,1.3-1.1,2.1c-0.2,0.8-0.5,1.6-0.7,2.5c-0.1,0.9-0.3,1.8-0.2,2.7
		c0.1,3.7,1.3,7.8,3.2,11.7c1.9,4,4.4,8,7.4,11.9c3,3.9,6.3,7.9,10,11.7c3.7,3.9,7.7,7.7,11.8,11.4c4.2,3.7,8.5,7.3,13,10.8
		c4.5,3.4,9.1,6.8,13.7,9.9c4.4,2.9,8.2,6.1,10.9,9.9c2.7,3.7,4.3,8,4.5,12.2c0.1,2.1-0.1,4.2-0.5,6.3c-0.4,2-1,4-1.7,5.9
		c-1.4,3.7-3.2,7-5,9.9c-1.8,2.8-3.5,5.2-5,7.1c-1.5,1.9-2.7,3.4-3.6,4.4c-0.9,1-1.3,1.5-1.3,1.5s0.6-0.4,1.6-1.2
		c1-0.8,2.6-2,4.4-3.7c1.8-1.7,4-3.8,6.3-6.4c2.2-2.7,4.7-5.8,6.7-9.8c2-3.9,3.7-8.6,3.9-14c0.2-5.3-1.3-11.2-4.6-16.1
		c-1.6-2.4-3.5-4.8-5.6-6.7c-1-1.1-2.2-1.9-3.3-2.9c-1.1-0.9-2.4-1.8-3.5-2.6c-4.5-3.2-8.8-6.4-13.2-9.9c-4.4-3.4-8.7-6.9-12.8-10.3
		c-4.1-3.5-8.2-7-11.9-10.6c-3.7-3.5-7.3-7-10.4-10.5c-3.1-3.5-5.9-6.9-8-10.3c-2.1-3.4-3.7-6.7-4.2-9.8c-0.5-3.1,0.1-5.8,1.4-7.7
		c0.3-0.4,0.6-0.7,0.8-1.1c4.1,0.4,8.1,0.6,12.2,0.7c2.1,0,4,0,6,0l2.7,0c0.9,0,1.8,0.1,2.7,0.2c3.5,0.4,6.9,1.2,10.1,2.6
		c3.2,1.4,6.2,3.2,8.9,5.5c2.7,2.3,5.1,4.9,7.2,7.9c2.1,3,3.9,6.2,5.4,9.5c0.8,1.7,1.4,3.4,2.1,5.2c0.6,1.7,1.2,3.6,1.6,5.2l0,0
		l0.6,3.3l3-0.4c0.7-0.1,1.5-0.2,2.1-0.4c0.6-0.2,1.2-0.4,1.7-0.6l1.5-0.8l1.4-0.8c0.5-0.3,0.8-0.6,1.3-0.9c0.4-0.3,0.8-0.6,1.2-0.9
		c0.8-0.6,1.5-1.2,2.3-1.9c1.4-1.3,2.8-2.6,4.1-4c0.4-0.4,0.8-0.9,1.2-1.3l3.9,4l5.9-1.2c-0.1,0.3-0.1,0.1,0.3-0.2
		c0.4-0.2,0.9-0.5,1.5-0.7c1.2-0.5,2.6-0.9,4.1-1.2c3-0.6,6.1-1,9.2-1.2c1.6-0.1,3.2-0.2,4.7-0.3l2.4-0.1l0.6,0l0.3,0l0.1,0l0.4,0
		l0.2,0c0.9-0.1,1.4-0.3,2-0.5c2.2-0.8,3.8-1.9,5.3-3.1c1.5-1.2,2.8-2.6,3.9-4c0.6-0.7,1.2-1.5,1.7-2.2l0.7-1l0.2-0.3
		c0.2-0.2,0.2-0.3,0.2-0.4l0.4-0.7l0.7-1.4c0.2-0.5,0.3-0.9,0.5-1.4l0.5-1.4l0.3-1.4c0.2-0.9,0.4-1.8,0.5-2.7
		c0.1-0.9,0.2-1.8,0.2-2.7C575,238.1,574.9,236.4,574.9,234.7z M316,143c0.5-1.6,0.9-3,1.3-4.3c0.2,0.5,0.5,1.1,0.8,1.6
		c0.5,0.9,1,1.8,1.6,2.7c1.1,1.7,2.3,3.3,3.5,4.6c1.2,1.4,2.4,2.6,3.5,3.7c1.1,1.1,2.3,2,3.3,2.8c0.8,0.6,1.5,1.1,2.1,1.5
		c-1,4.6-1.8,9.2-2.3,13.9c-0.3,2.8-0.5,5.6-0.6,8.4l-0.1,4.2l0,2.5c-0.4-0.3-0.8-0.6-1.2-1c-1-0.8-2-1.7-3.2-2.8
		c-0.6-0.5-1.1-1.1-1.7-1.6c-0.6-0.6-1.2-1.1-1.7-1.8c-1.1-1.2-2.2-2.6-3.2-4c-0.9-1.5-1.8-3-2.5-4.6c-0.7-1.6-1.2-3.3-1.6-5.1
		C312.6,156.8,314.3,148.9,316,143z M311,192.8c-0.6-1.2-0.9-2.5-1.1-3.7c-0.4-2.5-0.1-5.1,0.6-7.4c0.5-1.7,1.1-3.2,1.7-4.4
		c0.2,0.2,0.3,0.4,0.5,0.6c1.5,1.6,3.1,3,4.7,4.1c0.8,0.6,1.6,1.1,2.4,1.5c0.8,0.5,1.5,0.9,2.3,1.2c0.8,0.3,1.5,0.7,2.2,1
		c0.7,0.3,1.4,0.5,2,0.7c1,0.3,1.8,0.6,2.6,0.7c-0.1,5.2,0,10.5,0,15.8c0.1,3,0.1,5.9,0.3,8.9c-0.2-0.2-0.3-0.3-0.5-0.5
		c-0.8-0.7-1.8-1.5-2.8-2.3c-1-0.9-2.1-1.7-3.2-2.7c-1.1-1-2.3-1.9-3.4-3c-0.6-0.5-1.1-1-1.7-1.6c-0.6-0.5-1.1-1.1-1.6-1.7
		c-0.5-0.6-1.1-1.1-1.5-1.7l-0.7-0.9l-0.6-0.9C312.2,195.3,311.6,194,311,192.8z M313.6,217.7c0.1-1.4,0.3-2.7,0.5-3.9
		c0.4-1.9,0.8-3.6,1.2-5c1.4,0.9,2.9,1.7,4.3,2.4c1.4,0.7,2.8,1.2,4.1,1.7c1.3,0.4,2.5,0.8,3.6,1.1c0.7,0.2,1.4,0.3,2,0.4
		c0.3,7.2,0.8,14.4,1.5,21.4c0.3,3.1,0.6,6.2,1,9.3c-0.4-0.3-0.8-0.5-1.1-0.8c-0.9-0.6-1.9-1.3-2.9-2.1c-0.5-0.4-1.1-0.8-1.6-1.2
		c-0.5-0.4-1.1-0.9-1.7-1.3c-0.6-0.4-1.1-0.9-1.7-1.4c-0.6-0.5-1.1-0.9-1.7-1.5c-1.1-1-2.1-2.1-3-3.3c-1-1.1-1.7-2.4-2.4-3.6
		c-0.6-1.3-1.2-2.6-1.6-3.9c-0.3-1.4-0.6-2.7-0.7-4.1C313.5,220.5,313.5,219.1,313.6,217.7z M327.9,308.1c-1.2,1.8-2.4,3.5-3.7,5.1
		c-0.6,0.8-1.3,1.6-2,2.3c-0.7,0.8-1.4,1.6-2.1,2.4c-2.4,2.9-4.6,5.9-6.3,9c-0.4-0.9-0.9-1.9-1.5-3c-0.5-0.9-0.9-1.8-1.4-2.8
		c-0.4-1-0.9-2-1.3-3c-0.4-1-0.7-2.1-1-3.1c-0.3-1.1-0.5-2.1-0.6-3.2c-0.1-1-0.2-2.1-0.1-3.1c0.1-1,0.1-2.1,0.4-3.1
		c0.4-2.1,1.1-4.1,1.8-5.8c0.7-1.8,1.4-3.3,2-4.4c0,0,0-0.1,0-0.1c0.9,0.7,1.9,1.3,2.8,1.8c0.8,0.4,1.6,0.8,2.3,1.2
		c0.8,0.3,1.5,0.6,2.3,0.9c1.5,0.6,2.9,0.9,4.2,1.3c1.3,0.3,2.6,0.5,3.7,0.6c1.1,0.2,2.1,0.2,2.9,0.2c0.5,0,1,0,1.3,0
		C330.5,303.7,329.3,306,327.9,308.1z M333.3,296.3c-0.4,1.5-0.9,2.9-1.5,4.3c-0.3-0.2-0.7-0.5-1.1-0.8c-0.6-0.5-1.4-1-2.3-1.6
		c-0.9-0.6-1.9-1.3-2.9-2c-1-0.8-2.2-1.5-3.3-2.3c-0.6-0.4-1.2-0.8-1.8-1.3c-0.6-0.5-1.2-0.9-1.7-1.4c-0.6-0.5-1.1-1-1.7-1.4
		c-0.6-0.5-1-1-1.6-1.5c-0.5-0.5-0.9-1.1-1.4-1.6c-0.4-0.6-0.9-1.1-1.2-1.7c-0.8-1.1-1.2-2.3-1.7-3.5c-0.4-1.2-0.5-2.4-0.5-3.7
		c0-2.5,0.7-5.2,1.5-7.5c0.4-1.1,0.8-2,1.2-2.9c1.2,0.6,2.5,1.1,3.7,1.5c1.6,0.5,3.2,0.8,4.7,1c1.5,0.2,2.9,0.2,4.2,0.2
		c1.3,0,2.5-0.1,3.5-0.2c1-0.1,1.9-0.3,2.7-0.5c1.5-0.3,2.3-0.6,2.3-0.6s-0.8-0.4-2.1-1c-0.7-0.3-1.5-0.6-2.4-1
		c-0.9-0.4-2-0.7-3.1-1.2c-1.1-0.5-2.3-0.9-3.5-1.5c-1.2-0.5-2.4-1.1-3.6-1.7c-0.6-0.4-1.2-0.6-1.7-1c-0.5-0.4-1.1-0.7-1.6-1.1
		c-1-0.8-1.9-1.6-2.7-2.5c-0.7-0.9-1.4-1.9-1.8-2.9c-0.4-1.1-0.7-2.2-0.9-3.4c-0.3-2.4-0.2-5,0.1-7.3c0.3-2.3,0.6-4.3,0.9-5.7
		c0-0.2,0.1-0.5,0.1-0.7c0.2,0.3,0.5,0.5,0.7,0.8c0.7,0.8,1.4,1.4,2.2,2c0.7,0.6,1.5,1.2,2.3,1.7c0.8,0.5,1.5,1,2.3,1.4
		c0.8,0.4,1.5,0.8,2.3,1.1c0.8,0.3,1.5,0.6,2.2,0.9c0.7,0.2,1.4,0.4,2.1,0.6c1.3,0.4,2.6,0.6,3.8,0.8c0.9,0.2,1.8,0.2,2.5,0.3
		c0.8,6.8,1.6,13.5,2.2,20C335.2,277.6,335.7,287.6,333.3,296.3z M332.7,153.1c-0.2-0.3-0.3-0.6-0.5-0.9c-0.6-1.1-1.3-2.3-2-3.6
		c-0.7-1.3-1.5-2.7-2.2-4.2c-0.8-1.5-1.5-3-2.2-4.6c-0.3-0.8-0.7-1.6-1-2.5c-0.3-0.8-0.6-1.7-0.9-2.5c-0.2-0.8-0.5-1.7-0.7-2.5
		c-0.1-0.9-0.4-1.7-0.5-2.6c-0.3-1.7-0.3-3.4-0.3-5c0.1-1.6,0.4-3.2,0.8-4.8c0.5-1.5,1.1-3,1.8-4.4c0.7-1.4,1.5-2.6,2.4-3.8
		c1.2-1.7,2.4-3.1,3.5-4.2c0.2,1.2,0.5,2.3,0.9,3.4c0.3,1.1,0.7,2.1,1.1,3.1c0.4,1,0.8,2,1.2,2.9c0.5,0.9,0.9,1.8,1.3,2.6
		c0.5,0.8,1,1.6,1.4,2.3c0.9,1.5,1.9,2.8,2.7,3.9c0.8,1.1,1.7,2.1,2.4,2.8c0,0,0.1,0.1,0.1,0.1c-1.5,2.9-3,6-4.2,9.1
		C335.7,142.8,334,147.8,332.7,153.1z M352.9,111.7c-3.6,4.7-7.1,9.8-10.1,15.3c-0.2-0.7-0.5-1.5-0.7-2.4c-0.4-1.3-0.9-2.8-1.3-4.4
		c-0.2-0.8-0.5-1.6-0.7-2.5c-0.2-0.9-0.4-1.7-0.6-2.6c-0.2-0.9-0.4-1.8-0.6-2.8c-0.2-0.9-0.4-1.9-0.5-2.9c-0.3-1.9-0.5-3.9-0.6-5.9
		c0-1,0-2,0-3c0-0.5,0-1,0.1-1.5l0.2-1.4c0.1-1,0.4-1.9,0.5-2.8c0.3-0.9,0.5-1.8,0.9-2.7c0.6-1.8,1.5-3.4,2.5-5c1-1.6,2.1-3,3.3-4.3
		c1.2-1.3,2.4-2.5,3.6-3.5c1.5-1.3,2.9-2.4,4.1-3.3l-0.1,0.3c-0.2,1.1-0.2,2.2-0.3,3.3c-0.1,2.2,0.1,4.3,0.5,6.2
		c0.1,1,0.4,1.9,0.6,2.8c0.2,0.9,0.5,1.8,0.8,2.6c0.3,0.8,0.6,1.7,0.9,2.4c0.3,0.7,0.7,1.5,1,2.2c0.6,1.4,1.4,2.6,2,3.6
		c0.6,1.1,1.3,1.9,1.8,2.6c0.1,0.2,0.2,0.3,0.3,0.4C358.1,105.5,355.5,108.4,352.9,111.7z M372,92.4c-3.4,2.7-6.8,5.8-10.1,9.1
		c-0.1-0.8-0.3-1.8-0.4-3c-0.1-1.2-0.4-2.5-0.5-3.9c-0.2-1.4-0.4-2.9-0.5-4.5c-0.1-0.8-0.2-1.6-0.2-2.4c0-0.8-0.2-1.6-0.1-2.5
		c0-0.8,0-1.7,0-2.5c0.1-0.8,0.1-1.7,0.2-2.5c0.1-0.8,0.2-1.7,0.4-2.4l0.2-1.2l0.4-1.2c0.2-0.8,0.5-1.5,0.8-2.2
		c0.4-0.7,0.6-1.4,1.1-2.1c0.4-0.7,0.8-1.3,1.3-1.9c0.5-0.6,1-1.2,1.5-1.8c2.1-2.3,4.7-4.1,7-5.4c2.3-1.4,4.5-2.3,6-3
		c0,0.2-0.1,0.3-0.1,0.5c-0.3,1.2-0.3,2.3-0.4,3.5c-0.1,1.1-0.1,2.2,0,3.3c0,1.1,0.1,2.1,0.2,3.1c0.1,1,0.2,2,0.4,2.9
		c0.2,0.9,0.4,1.8,0.6,2.7c0.4,1.7,0.9,3.2,1.4,4.5c0.4,1.3,1,2.4,1.4,3.4c0.3,0.6,0.5,1.1,0.7,1.5C379.6,86.7,375.8,89.3,372,92.4z
		 M406.6,72.1c-4.5,1.9-9.8,4.3-15.7,7.6c-2.2,1.2-4.5,2.6-6.9,4.1c0-0.4,0-0.8,0-1.3c0-1,0-2.2,0.1-3.5c0.1-1.4,0-2.9,0.2-4.5
		c0-0.8,0.1-1.7,0.1-2.5c0.1-0.9,0.2-1.7,0.2-2.7c0-0.5,0.1-0.9,0.1-1.4c0.1-0.5,0.1-0.9,0.2-1.4c0.2-0.9,0.2-1.9,0.5-2.8
		c0.4-1.9,0.8-3.7,1.5-5.5l0.5-1.3c0.2-0.4,0.4-0.8,0.6-1.3c0.3-0.9,0.9-1.6,1.4-2.4c1-1.5,2.2-2.9,3.6-4c1.4-1.1,2.9-2.2,4.5-3
		c3.2-1.6,6.8-2.6,9.9-3.2c3.1-0.6,5.8-0.9,7.8-1.1c-0.2,0.2-0.3,0.5-0.5,0.7c-1.3,2-2.2,4-2.9,6c-0.3,1-0.6,2-0.9,3
		c-0.2,1-0.4,2-0.6,2.9c-0.1,1-0.2,1.9-0.3,2.8c0,0.9-0.1,1.7-0.1,2.6c0,1.6,0.2,3.1,0.3,4.4c0.2,1.3,0.5,2.4,0.7,3.3
		c0.3,1.2,0.6,2,0.8,2.5C410.2,70.6,408.5,71.3,406.6,72.1z M438.9,45.6c-0.7,0.3-1.4,0.7-2.1,1.1c-1.4,0.8-2.6,1.6-3.9,2.5
		c-1.2,0.9-2.4,1.9-3.5,2.9c-1.1,1-2.2,2.1-3.2,3.1c-1,1.1-2,2.2-2.9,3.4c-0.9,1.1-1.8,2.3-2.6,3.5c-0.9,1.2-1.6,2.4-2.4,3.7
		c-0.5,0.8-1,1.7-1.5,2.5c-1.3,0.4-2.9,0.9-4.8,1.6c0.1-0.5,0.3-1.3,0.5-2.4c0.4-1.8,1-4.3,1.9-7.1c0.4-1.4,1-2.9,1.6-4.5
		c0.3-0.8,0.7-1.5,1-2.3c0.4-0.8,0.7-1.6,1.1-2.3c0.5-0.7,0.8-1.6,1.3-2.3l0.7-1.1c0.2-0.4,0.5-0.7,0.7-1c0.5-0.7,0.9-1.2,1.7-2
		l1-1.1l0.1-0.2l0,0l0.1-0.1l0.1-0.1l0.5-0.5c0.7-0.6,1.3-1.3,2-1.9c0.7-0.5,1.4-1.1,2.1-1.7c0.7-0.5,1.5-1,2.2-1.5
		c0.7-0.5,1.5-0.8,2.2-1.3c1.5-0.8,3-1.4,4.5-1.9c1.5-0.5,3-0.8,4.4-1c0.7-0.1,1.4-0.1,2.1-0.2c0.7,0,1.3-0.1,1.9-0.1
		c0.8,0,1.5,0,2.1,0.1c-0.2,0.2-0.5,0.4-0.7,0.7c-1.8,1.8-3,3.8-3.9,5.5c-0.9,1.7-1.4,3.3-1.7,4.7c-0.3,0.1-0.5,0.2-0.8,0.3
		C440.3,44.9,439.6,45.3,438.9,45.6z M455.2,68.3c0-0.7,0-1.4,0-2.2c0-0.5-0.1-1-0.2-1.4l-0.2-1.1c-0.1-0.6-0.2-1.1-0.2-1.7
		c-0.1-1.1-0.1-2.3,0.1-3.5c0.1-1.2,0.4-2.4,0.7-3.5c0.3-1.2,0.7-2.3,1.2-3.5c0.2-0.6,0.5-1.1,0.8-1.7c0.3-0.5,0.6-1.1,0.8-1.5
		l3.8-6.1l-6.9,0c-1.6,0-3.2-0.1-4.8,0.2c-1.6,0.1-3.2,0.5-4.7,0.8l-1.3,0.4c1.4-1.9,3.4-4.1,6.1-5.9c1.7-1.1,3.7-2,5.9-2.5
		c2.2-0.6,4.6-0.7,7.1-0.5c2.5,0.2,5.1,0.7,7.8,1.4c0.7,0.2,1.3,0.4,1.9,0.6c0.6,0.2,1.3,0.4,2,0.7L477,38l0.8,0.3l0.8,0.4
		c1.1,0.5,2,1.2,2.6,1.8c0.6,0.7,0.9,1.2,1.1,1.9c0.4,1.4-0.3,3.8-1.4,5.9c-1.1,2.2-2.6,4.3-4.1,6.3c-1.5,2-3.1,3.8-4.5,5.5
		c-2.9,3.4-5.6,6.1-7.4,8c-1,1.1-1.8,1.9-2.3,2.4c-0.2-0.1-0.3-0.1-0.5-0.2C459.9,69.5,457.5,68.8,455.2,68.3z M477,77.1
		c-0.9-0.6-1.9-1.1-2.9-1.6c-1.9-1-3.9-2-5.9-2.8c-1.7-0.7-3.4-1.4-5.1-2c0.7-0.3,1.6-0.7,2.7-1.3c2.4-1.2,5.8-3.1,9.5-5.9
		c1.9-1.4,3.9-3,5.9-4.9c2-1.9,4-4.1,5.7-6.8c0.6-0.9,1.1-1.9,1.6-3c0.2,0,0.3-0.1,0.5-0.1c1.2-0.2,2.6-0.3,4-0.3
		c1.4,0.1,2.9,0.5,4.3,1.1c0.7,0.4,1.2,0.5,2.1,1.1l0.6,0.4l0.3,0.2l0.2,0.1c-0.3-0.2-0.1,0-0.2-0.1l0,0l0,0l0.1,0.1
		c0.3,0.3,0.7,0.5,1,0.8c1.3,1.1,2.5,2.3,2.9,3.4c0.4,1.1,0.5,2,0,3.4c-0.4,1.4-1.5,2.9-2.6,4.4c-1.2,1.5-2.6,2.9-3.9,4.3
		c-2.8,2.7-5.7,5.2-8.2,7.3c-2.6,2.1-4.7,3.9-6.2,5.2c-0.3,0.2-0.5,0.4-0.7,0.6c-1-0.7-2-1.3-3-2C478.9,78.2,478,77.6,477,77.1z
		 M495.3,91c-1.6-1.6-3.2-3-4.9-4.5c-1.7-1.4-3.4-2.8-5.2-4.1c-0.4-0.3-0.8-0.6-1.3-0.9c0.1,0,0.2,0,0.3-0.1
		c1.9-0.5,4.7-1.4,7.8-2.7c3.1-1.4,6.7-3.2,10.3-5.8c1.8-1.3,3.6-2.8,5.2-4.6c1.4-1.5,2.6-3.2,3.6-5.2c0.4,0.3,0.9,0.6,1.3,0.9
		c0.4,0.3,0.9,0.6,1.4,1c0.5,0.4,1,0.7,1.5,1.1c0.3,0.2,0.5,0.4,0.8,0.6c0.2,0.2,0.5,0.4,0.7,0.7c0.5,0.4,1,0.8,1.4,1.4
		c0.2,0.2,0.4,0.5,0.7,0.7c0.2,0.2,0.3,0.5,0.5,0.7c0.4,0.5,0.6,1,0.8,1.5c0.3,1,0.3,1.7,0.1,2.7c-0.2,1-0.8,2.2-1.7,3.3
		c-0.8,1.2-1.9,2.4-3,3.6c-1.1,1.2-2.3,2.3-3.5,3.4c-2.4,2.2-4.7,4.2-6.7,6c-2,1.8-3.7,3.3-4.9,4.5c-0.3,0.3-0.6,0.6-0.9,0.8
		c0,0,0,0-0.1-0.1C498.4,94.2,497,92.5,495.3,91z"/>
	<polygon points="472.3,281.3 473.5,282.3 492.5,249.2 491.1,248.4 	"/>
	<g>
		<path d="M692.3,228.1c-0.9-3.3-2.6-6.5-5-8.9c-0.3-0.3-0.6-0.6-0.9-0.9l-1.1-0.9c-0.9-0.7-1-0.7-2-1.3l-3.6-2.1
			c-9.6-5.5-19.2-10.9-28.7-16.3c-9.4-5.4-18.8-10.5-27.9-15.6c-9-5.1-17.8-9.8-26.2-14.4c-8.3-4.6-16.2-8.8-23.6-12.7
			c-1.8-1-3.6-1.9-5.4-2.9c-0.9-0.5-1.7-0.9-2.7-1.4c-1-0.5-2-0.9-3-1.2c-4.1-1.2-8.3-0.6-11.6,0.9c-1.7,0.7-3.2,1.8-4.4,2.9
			c-0.7,0.6-1.2,1.2-1.7,1.8c-0.5,0.7-1,1.4-1.3,2c-1.5,2.7-2.6,5-3.7,7.2c-2.1,4.1-3.9,7.2-5,9.5c-0.1,0.1,0.5,0.8,0.5,0.7
			c1.4-2.2,3.3-5.4,5.9-9.4c1.3-2,2.7-4.4,4.3-6.7c0.4-0.6,0.9-1.1,1.3-1.6c0.5-0.5,1-1,1.6-1.4c1.1-0.9,2.4-1.7,3.9-2.2
			c2.8-1,6.2-1.2,9.4-0.1c0.8,0.3,1.5,0.6,2.3,1.1c0.7,0.4,1.6,1,2.5,1.5c1.7,1,3.4,2.1,5.2,3.2c7.1,4.3,14.7,9,22.9,13.9
			c8.1,4.9,16.7,10.1,25.7,15.3c8.9,5.2,18.1,10.8,27.5,16.2c9.4,5.5,19,11,28.5,16.5l3.6,2.1c0.2,0.1,1.2,0.7,1.4,1l0.5,0.4
			c0.2,0.1,0.4,0.4,0.5,0.5c1.5,1.4,2.5,3.3,3.1,5.3c0.5,2,0.5,4.1-0.1,6.1c-0.1,0.5-0.4,1-0.5,1.5l-0.3,0.7
			c-0.1,0.2-0.2,0.5-0.4,0.8l-2,3.6c-5.4,9.4-10.5,18.8-15.6,27.9c-5.1,9-9.9,17.8-14.4,26.2c-4.6,8.3-8.8,16.2-12.7,23.6
			c-7.8,14.6-14.2,26.9-18.7,35.5c-2.2,4.3-3.9,7.7-5.1,10c-1.2,2.3-1.8,3.6-1.8,3.6s0.8-1.2,2.2-3.3c1.4-2.2,3.5-5.4,6.1-9.5
			c5.2-8.2,12.6-19.9,21.2-34c4.3-7.1,9-14.7,13.9-22.9c4.9-8.1,10.1-16.7,15.3-25.7c5.2-8.9,10.8-18.1,16.2-27.5l2-3.5
			c0.2-0.3,0.4-0.6,0.6-1l0.6-1.1c0.3-0.8,0.7-1.6,0.9-2.4C693.1,235,693.2,231.5,692.3,228.1z"/>
		<path d="M572.4,274.3c0,0-8.4,4.6-16.4,8.4c-4.4,2.1-7.6,3.2-11.3,4.5c-7.5,2.6-10.8,9-9.6,12.5
			c1.2,3.4,8.6,9,15.1,4.8c0,0-6.8,10.8-10.9,12.2c-0.1,0-0.2,0.2,0,0.3l7.8,5c0.1,0.1,0.3,0,0.2-0.2c-0.4-4.4,6.7-15,6.7-15
			c-1.1,7.6,7,12.1,10.6,11.8c3.6-0.3,8.1-5.2,7.7-13.4c-0.1-3.2-0.2-8.4-0.2-12.5C572.2,283.5,572.4,274.3,572.4,274.3z"/>
		<path d="M665.1,230.7c0,0-4.3,2.4-8.4,4.3c-2.2,1-3.9,1.6-5.8,2.3c-3.8,1.3-5.5,4.6-4.9,6.4s4.4,4.6,7.7,2.5
			c0,0-3.5,5.5-5.6,6.3c-0.1,0-0.1,0.1,0,0.1l4,2.6c0.1,0,0.1,0,0.1-0.1c-0.2-2.2,3.4-7.7,3.4-7.7c-0.6,3.9,3.6,6.2,5.4,6
			c1.9-0.2,4.2-2.7,3.9-6.8c0-1.6-0.1-4.3-0.1-6.4C665,235.4,665.1,230.7,665.1,230.7z"/>
	</g>
</g>
<path d="M581.3,497.8c0,1.9,0,10.6,0,14.2h0c0,0,0,0,0,0c0,0,0,0.1,0,0.1c0,0.2,0,0.4,0,0.5c0,0.2,0.2,0.3,0.3,0.4
	c0.2,0.2,0.6,0.4,1,0.5c0,0,0.1,0,0.1,0c0.5,0,1,0,1.3,0.2c0.4,0.4,0.5,1.5-0.5,1.5h-0.2c0,0,0,0-0.1,0c-0.1,0-0.2,0-0.3,0
	c-0.5,0-1.1-0.1-1.5-0.1c-0.8-0.1-1.4-0.1-1.7-0.1c-2.2,0-3.9,0.1-5.2,0.2c-0.1,0-0.3,0-0.6,0c-0.2,0-0.4-0.2-0.4-0.4v-0.7
	c0-0.2,0.1-0.3,0.3-0.4l0.4,0c0.7-0.1,1.2-0.2,1.4-0.3c0.2-0.1,0.6-0.3,0.8-0.6c0,0,0.1-0.1,0.1-0.3c0.2-0.4,0.2-0.8,0.2-1.2v-14
	l0-0.4c0,0-3.4,2.3-3.8,2.2c-0.6-0.1-1-1-0.7-1.2c6.6-4,5.3-4.8,6.4-4.8c1.4,0,2.1,0,2.1,0s0.4-0.1,0.4,0.7
	C581.3,494.3,581.3,496.6,581.3,497.8z"/>
<path d="M257.3,509.3c-0.3-0.1-0.6-0.1-0.7,0.3c-1.5,3.5-2.3,4.1-11.3,3.8c0,0-0.8-0.5-0.8-2.8c0-0.7,0-2.5,0-4.6
	c0.3,0,0.6,0.1,0.9,0.1c0.2,0,0.5,0.1,0.8,0.1c0.3,0,0.5,0.1,0.8,0.1c0.5,0,1.1,0.1,1.6,0c0.5,0,1.1-0.1,1.6-0.2
	c0.5-0.1,1-0.3,1.4-0.5c0.4-0.2,0.8-0.5,1-0.9c0.2-0.3,0.4-0.6,0.5-0.8c0.1-0.2,0.2-0.4,0.2-0.5c0-0.1,0.1-0.2,0.1-0.2l-0.3-0.2
	c0,0-0.1,0-0.2,0.1c-0.1,0.1-0.3,0.2-0.5,0.3c-0.2,0.1-0.4,0.2-0.7,0.3c-0.2,0.1-0.5,0.2-0.8,0.2c-0.3,0-0.6,0-1,0
	c-0.4,0-0.8-0.1-1.2-0.2c-0.4-0.1-0.9-0.1-1.4-0.2c-0.2,0-0.5-0.1-0.7-0.1c-0.2,0-0.5-0.1-0.8-0.1c-0.4-0.1-0.9-0.1-1.4-0.1
	c0-2.3,0-4.6,0-6.1h0c0,0,0,0,0,0c0,0,0-0.1,0-0.1c0-0.2,0-0.4,0-0.5c0-0.2,0.2-0.3,0.3-0.4c0.2-0.2,0.6-0.4,1-0.5c0,0,0.1,0,0.1,0
	c1.3,0,3.1,0,5.1,0.4c3.5,0.6,2.8,3,4.1,3c0.7,0,0.9-1,0.2-4c-0.3-1.6-1.6-1.1-4-1.1c-1.9,0-6.3,0.3-6.7,0.4
	c-0.8,0.1-1.3,0.1-1.6,0.1c-2.1,0-3.8-0.1-5-0.2c-0.1,0-0.2,0-0.5,0c-0.3,0-0.5,0.2-0.5,0.5v0.5c0,0.2,0.2,0.5,0.4,0.5l0.2,0
	c0.7,0.1,1.1,0.2,1.4,0.3c0.2,0.1,0.6,0.3,0.7,0.6c0,0,0.1,0.1,0.1,0.3c0.2,0.4,0.2,0.8,0.2,1.2v6.4c-0.2,0.1-0.4,0.2-0.5,0.3
	c-0.7,0.5-1.2,1.1-1.4,1.5c-0.1,0.2-0.2,0.4-0.3,0.5c0,0.1,0,0.1-0.1,0.1c0,0,0,0.1,0,0.1l0.3,0.2c0,0,0,0,0,0c0,0,0.1,0,0.1-0.1
	c0.1-0.1,0.3-0.1,0.5-0.2c0.4-0.2,0.8-0.3,1.4-0.5v4.8c0,0,0,2.5-1.3,2.8c-0.2,0-1.1,0.1-1.5,0.2c-0.4,0.1-0.2,0.7-0.3,1
	c-0.1,0.3,1.4,0.1,2.3,0.2c1.4,0.1,12.1-0.3,13.9,0c1.8,0.3,3.6-0.1,3.8-2.1c0.1-1.2,0.5-2.8,0.5-3.3
	C257.6,509.6,257.5,509.4,257.3,509.3z"/>
<path d="M271,494.2c0.4,0.1,0.8,0.5,0.9,1c0,0.3,0.1,0.6,0.1,1c0.1,1.1,0.2,2,0.2,2.6c0,0.2,0,0.5-0.1,0.6
	c-0.1,0.1-0.4,0.1-0.4,0.1l-0.6,0c-0.3,0-0.5-0.2-0.6-0.5c0,0,0,0,0,0c-0.2-0.6-0.8-2-1.3-2.5c-0.8-0.9-1.8-1.3-3-1.3
	c-1.1,0-2,0.3-2.6,0.8c-0.6,0.6-1,1.3-1,2.1c0,0.7,0.3,1.4,0.9,2c0.6,0.6,1.9,1.3,4,1.9c0.7,0.2,1.5,0.5,2.5,1
	c1,0.4,1.7,0.9,2.2,1.4c0.7,0.7,1.1,1.3,1.4,2c0.2,0.6,0.4,1.4,0.4,2.4c0,1-0.2,2-0.6,3c-0.2,0.5-0.5,1-1,1.5
	c-0.3,0.3-0.8,0.7-1.5,1.2c-0.7,0.4-1.4,0.8-2.2,1c-0.7,0.2-1.7,0.3-2.9,0.3c-0.8,0-1.7-0.1-2.8-0.3c0,0,0,0-0.1,0l-2-0.6
	c-0.6-0.2-0.9-0.3-1-0.4c-0.1,0-0.1-0.2-0.1-0.3c0-0.1,0-1.1-0.1-2.4c0-0.7,0-1.2,0-1.5l0,0c0-0.3,0.3-0.6,0.6-0.6l0.5,0
	c0.3,0,0.5,0.1,0.6,0.4c0.4,1,0.7,1.6,0.9,1.8c0.3,0.6,0.7,1,1.1,1.4c0.4,0.3,0.9,0.6,1.5,0.8c0.6,0.2,1.2,0.3,1.9,0.3
	c0.6,0,1.3-0.1,2-0.4c0.7-0.3,1.3-0.7,1.7-1.2c0.4-0.6,0.7-1.2,0.7-1.9c0-0.8-0.4-1.6-1.1-2.3c-0.5-0.4-1.7-1-3.8-1.7
	c-2-0.7-3.5-1.4-4.2-1.9c-0.8-0.6-1.4-1.3-1.9-2.2c-0.5-0.9-0.7-1.8-0.7-2.7c0-1.7,0.6-3.2,1.9-4.4c1.3-1.2,3.1-1.8,5.6-1.8
	c0.5,0,1.3,0.1,2.4,0.3C269.7,493.8,270.3,493.9,271,494.2z"/>
<path d="M294.8,495.6c-0.2-0.7-0.5-1.7-1.1-1.8c-0.7-0.1-1.5,1-5.7,0.9h-6.6c0,0-1.2,0.2-2.4-0.2c-1-0.3-2-1.4-2.7-1
	c-0.5,0.3-1,2.2-1,3c-0.1,1.2-0.5,2.8-0.5,3.2c0,0.2,0.1,0.4,0.4,0.5c0.3,0.1,0.6,0.1,0.7-0.3c1-2.3,1.7-3.3,4.7-3.7h1.8
	c0.3,0,0.5,0.2,0.5,0.5l0,14.9c0,0.4-0.1,0.8-0.2,1.1c-0.1,0.2-0.1,0.3-0.1,0.3c-0.2,0.3-0.5,0.5-0.7,0.6c-0.2,0.1-0.7,0.2-1.3,0.3
	l-0.4,0c-0.2,0-0.3,0.2-0.3,0.3v0.7c0,0.2,0.2,0.4,0.4,0.3c0.3,0,0.5,0,0.6,0c1.3-0.1,2.9-0.2,5-0.2c0.3,0,0.8,0,1.6,0.1
	c0.5,0,0.9,0.1,1.5,0.1c0.1,0,0.2,0,0.3,0c0,0,0,0,0.1,0h0.2c1,0.1,0.8-1,0.5-1.4c-0.3-0.1-0.8-0.1-1.3-0.2c0,0-0.1,0-0.1,0
	c-0.5-0.1-0.8-0.3-1-0.5c-0.1-0.1-0.3-0.3-0.3-0.4c0-0.1,0-0.3,0-0.5c0,0,0-0.1,0-0.1c0,0,0,0,0,0h0c0-3,0-12-0.1-15.5
	c0-0.3,0.2-0.5,0.5-0.5h0.3c0,0,1.6,0.2,2.5,0.3c3.5,0.6,2.8,3,4,3C295.3,499.6,295.5,498.6,294.8,495.6z"/>
<path d="M309.6,498.2c-0.3-0.6-0.6-1.2-1.1-1.7l-0.2-0.2c-0.1-0.1-0.1-0.1-0.2-0.2l-0.3-0.3c-0.3-0.2-0.5-0.4-0.8-0.6
	c-0.5-0.4-1.1-0.6-1.7-0.8c-0.2-0.1-0.4-0.1-0.5-0.1c-0.2-0.1-0.4-0.1-0.7-0.1c-0.2,0-0.4,0-0.6,0c-0.1,0-0.1,0-0.2,0
	c-0.7,0-1.4,0-1.4,0s-5.5-0.1-5.6,0c-0.1,0.2-0.2,0.6,0.1,0.6c0.3,0.1,0.9,0.1,1,0.1c0.8,0.2,0.8,1.7,0.8,1.7v8.5
	c0,0.2,0,0.5-0.1,0.7c0,0.1-0.1,0.2-0.1,0.2c-0.1,0.2-0.3,0.3-0.5,0.4c-0.1,0.1-0.4,0.1-0.9,0.2l-0.2,0c-0.1,0-0.2,0.1-0.2,0.2v0.5
	c0,0.1,0.1,0.2,0.2,0.2c0.2,0,0.3,0,0.4,0c0.8-0.1,1.9-0.1,3.2-0.1c0.2,0,0.6-0.1,1.1,0c0.4,0,0.7,0,0.9,0c0,0,0,0,0,0
	c0.6,0.1,1.1,0.1,1.7,0c0.6,0,1.1-0.1,1.7-0.3c0.6-0.2,1.2-0.5,1.7-0.8c0.3-0.2,0.5-0.4,0.8-0.6l0.3-0.3c0.1,0,0.1-0.1,0.2-0.2
	l0.2-0.2c0.4-0.5,0.8-1.1,1.1-1.7c0.3-0.6,0.4-1.5,0.5-2.2c0-0.2,0-0.3,0-0.5C310.1,500,309.8,498.8,309.6,498.2z M307.4,501
	c0,0.5-0.1,1.1-0.2,1.6c-0.1,0.4-0.2,0.9-0.4,1.3l-0.1,0.2c0,0.1,0,0.1-0.1,0.2l-0.2,0.3c-0.1,0.2-0.3,0.4-0.4,0.6
	c-0.2,0.2-0.3,0.4-0.5,0.5c-0.2,0.2-0.4,0.3-0.6,0.4c-0.4,0.3-0.8,0.4-1.3,0.4c-0.5,0.1-1,0-1.6-0.1c-0.1,0-0.2,0-0.3,0
	c-0.4-0.1-0.5-0.1-0.6-0.2c-0.1-0.1-0.2-0.2-0.2-0.3c0,0,0-0.2,0-0.3c0,0,0-0.1,0-0.1c0,0,0,0,0,0c0-2.2,0-7.5,0-8.7
	c0-0.8,0.1-1.2,0.3-1.4c0.1-0.1,0.2-0.2,0.3-0.3c0.2,0,0.3-0.1,0.5-0.1c0.5-0.1,1.1-0.1,1.6-0.1c0.5,0.1,1,0.2,1.5,0.5
	c0.2,0.1,0.4,0.3,0.6,0.4c0.2,0.2,0.4,0.3,0.5,0.5c0.2,0.2,0.3,0.4,0.4,0.6l0.2,0.3c0,0.1,0.1,0.1,0.1,0.2l0.1,0.2
	c0.2,0.4,0.3,0.9,0.4,1.3c0.1,0.4,0.2,1.1,0.2,1.6C307.5,500.6,307.5,500.9,307.4,501z"/>
<path d="M560.1,493c-4,0-7.3,5.1-7.3,11.4c0,6.3,3.2,11.4,7.3,11.4s7.3-5.1,7.3-11.4C567.3,498.1,564.1,493,560.1,493z
	 M562.7,509.9c-0.2,1.5-0.2,3.9-2.4,4.2c-2.1,0.4-2.7-2.6-2.7-4.4s-0.2-10.1,0.1-12.1c0.4-2,1.1-3,2.6-3c0,0,1.9-0.1,2.3,2.9
	C563,500.6,562.9,508.4,562.7,509.9z"/>
<path d="M602.1,493.2c0,0-9.4,1.2-11.6,9.2c-2.3,8,1.8,12.2,4.5,13c2.7,0.8,8-0.2,8.6-5.1c0.6-4.8-1.7-8.2-5.2-8
	c-3.5,0.3-2.9,1.3-2.9,1.5c0,0.2,0.5,0.4,0.8,0.2c0.3-0.1,2.9-0.5,3.4,2.8c0.5,3.3,0,7.1-1.8,7.4c-1.8,0.3-3.4,0.3-3.7-3.9
	c-0.3-4.2,0.2-9.9,2.5-12.3c2.3-2.3,4.9-3.2,6.1-3.5S603.4,492.8,602.1,493.2z"/>
<path d="M534.4,499.9l0.4,0c0.2,0,0.4-0.2,0.5-0.4c0.2-1.1,1-4.3,4.4-3.9c4.1,0.5,3.1,5.9,2.2,7.6
	c-0.9,1.6-3.4,4.8-8.6,10.6c-0.1,0.1-0.1,0.2-0.1,0.3v0.6c0,0.3,0.2,0.5,0.5,0.5h12.9c0.3,0,0.6-0.2,0.6-0.5l0.7-5
	c0-0.2-0.2-0.4-0.4-0.4l-0.8,0c-0.2,0-0.3,0.1-0.3,0.3l-0.4,1.2h-7.3c-0.1,0-0.2-0.1-0.1-0.2c1.2-1.1,7.4-6.7,8.1-9.4
	c0.8-3,0.2-7.7-6.3-7.8c-5.7,0-6.5,4.5-6.4,6.1C533.9,499.7,534.1,499.9,534.4,499.9z"/>
<path d="M309.5,510.4h-12.7c-0.5,0-0.6-0.3-0.6-0.7c0-0.4,0.1-0.7,0.6-0.7h12.7c0.5,0,0.6,0.3,0.6,0.7
	C310.1,510.1,310,510.4,309.5,510.4z"/>
<g>
	<path d="M219.2,471.5c-0.7,0-0.9,0.9-0.3,1.3c0.8,0.4,1.6,0.9,2.3,1.5h113.6l2.6-1.7c0.4-0.3,0.2-1-0.3-1H219.2z"/>
	<path d="M621.4,474.2c0.3,0,0.7-0.1,1-0.3c0.8-0.5,1.7-1,2.6-1.3c0.7-0.2,0.5-1.2-0.2-1.2H512.3c-0.5,0-0.8,0.7-0.3,1
		l2.6,1.7H621.4z"/>
	<path d="M225.3,476.6c-0.2,0-0.2,0.1-0.2,0.1c-0.2,0.4,0.4,0.6,0.8,0.9c0.2,0.2,0.5,0.4,0.8,0.4l99.1,0
		c0.2,0,0.3-0.1,0.5-0.1l1.2-0.8c0.2-0.1,0.1-0.4-0.1-0.4C279,476.6,227.9,476.6,225.3,476.6z"/>
	<path d="M617.2,477.9c0.3,0,0.6-0.1,0.8-0.3c0.4-0.3,0.5-0.4,0.8-0.7c0.1-0.1,0.1-0.2,0-0.3c0-0.1-0.1-0.1-0.4-0.1
		c-3.9,0-49.6,0-96.9,0c-0.3,0-0.4,0.4-0.2,0.5l1,0.7c0.2,0.1,0.3,0.2,0.5,0.2L617.2,477.9z"/>
	<path d="M187.5,535c-0.8,0.6-1.7,1.1-2.7,1.5c-0.7,0.3-0.4,1.3,0.4,1.3h151.7c0.5,0,0.8-0.7,0.3-1l-2.6-1.7H187.5z"/>
	<path d="M659,536.6c-1-0.4-2-0.8-3-1.3c-0.4-0.2-0.8-0.3-1.2-0.3H514.5l-2.6,1.7c-0.4,0.3-0.2,1,0.3,1l146.4,0
		C659.5,537.8,659.7,536.8,659,536.6z"/>
	<path d="M200.3,531.3c-0.4,0-0.7,0.1-0.9,0.4c-0.4,0.4-1.1,0.5-0.9,0.9c0,0,0,0.1,0.3,0.1c3.3,0,66.2,0,128.7,0
		c0.2,0,0.3-0.3,0.1-0.4l-1.2-0.8c-0.1-0.1-0.3-0.1-0.5-0.1H200.3z"/>
	<path d="M645,532.7c0.3,0,0.4,0,0.4-0.1c0.1-0.1,0-0.2-0.1-0.3c-0.4-0.3-0.5-0.4-1-0.7c-0.2-0.2-0.5-0.3-0.9-0.3H522.8
		c-0.2,0-0.4,0.1-0.5,0.2l-1,0.7c-0.2,0.2-0.1,0.5,0.2,0.5C582.7,532.7,640.2,532.7,645,532.7z"/>
</g>
<path d="M511.6,515.5c-0.7-0.2-1.3-0.2-1.7,0.7c-3.4,8.1-5.2,9.3-25.9,8.6c0,0-1.8-1.1-1.8-6.4c0-1.7,0-5.7,0-10.5
	c0.7,0.1,1.4,0.2,2.1,0.3c0.6,0.1,1.2,0.2,1.8,0.3c0.6,0.1,1.2,0.2,1.9,0.2c1.2,0.1,2.5,0.1,3.7,0.1c1.2,0,2.4-0.2,3.6-0.4
	c1.2-0.3,2.3-0.6,3.3-1.2c1-0.5,1.8-1.3,2.4-2c0.6-0.7,0.9-1.4,1.1-1.9c0.2-0.5,0.3-1,0.4-1.2c0.1-0.3,0.1-0.4,0.1-0.4
	c0-0.1,0-0.2,0-0.3c-0.1-0.2-0.3-0.3-0.5-0.2c0,0-0.1,0.1-0.4,0.2c-0.2,0.2-0.6,0.4-1.1,0.7c-0.4,0.3-1,0.6-1.5,0.8
	c-0.6,0.2-1.2,0.4-1.9,0.4c-0.7,0.1-1.5,0-2.3,0c-0.9-0.1-1.8-0.2-2.8-0.4c-1-0.2-2.1-0.3-3.2-0.5c-0.5-0.1-1.1-0.2-1.6-0.3
	c-0.6-0.1-1.1-0.2-1.8-0.3c-1-0.2-2.1-0.2-3.1-0.3c0-5.3,0-10.6,0-13.9h0c0,0,0-0.1,0-0.1c0-0.1,0-0.2,0-0.3c0-0.4,0.1-1,0.1-1.1
	c0-0.4,0.4-0.7,0.7-1c0.5-0.5,1.3-0.9,2.3-1.2c0.1,0,0.2,0,0.3-0.1c3,0,7,0.1,11.8,0.8c8.1,1.3,6.5,7,9.3,6.9
	c1.6-0.1,2.1-2.2,0.6-9.3c-0.8-3.6-3.7-2.6-9.2-2.6c-4.4,0-14.4,0.8-15.5,0.9c-1.8,0.1-3.1,0.2-3.7,0.2c-4.8,0-8.6-0.2-11.6-0.5
	c-0.2,0-0.5,0-1.1,0c-0.6,0-1.2,0.5-1.2,1.1v1.1c0,0.6,0.4,1,1,1.1l0.6,0.1c1.6,0.1,2.6,0.4,3.1,0.6c0.5,0.3,1.3,0.8,1.7,1.4
	c0,0.1,0.1,0.3,0.3,0.6c0.4,0.9,0.5,1.8,0.5,2.8V504c-0.4,0.2-0.8,0.5-1.2,0.8c-1.7,1.2-2.7,2.5-3.3,3.5c-0.3,0.5-0.5,0.9-0.6,1.2
	c-0.1,0.1-0.1,0.3-0.1,0.3c0,0.1,0,0.1,0,0.1c0,0.1,0,0.2,0.1,0.3c0.1,0.2,0.4,0.2,0.5,0.1c0,0,0,0,0.1-0.1c0.1,0,0.2-0.1,0.3-0.2
	c0.2-0.1,0.6-0.3,1.1-0.5c0.8-0.4,1.9-0.8,3.2-1.1v10.9c0,0,0.1,5.7-2.9,6.3c-0.4,0.1-2.6,0.3-3.5,0.5c-0.9,0.2-0.5,1.6-0.7,2.2
	c-0.1,0.7,3.1,0.3,5.3,0.5c3.3,0.2,27.8-0.8,32,0c4.2,0.7,8.3-0.3,8.7-4.7c0.2-2.8,1.2-6.5,1.3-7.5
	C512.5,516.2,512.1,515.7,511.6,515.5z"/>
<path d="M474.4,478.8c0,0,0,0,0-0.1c0-0.1,0-0.2,0-0.4c0-0.3,0.1-0.8,0.3-1.3c0.3-1.1,1-2.7,2.3-4.2
	c1.3-1.6,3.2-3.1,5.5-4.2c1.1-0.6,2.4-1,3.6-1.3c1.3-0.3,2.6-0.6,3.9-0.7c0.6-0.1,1.2-0.1,1.8-0.2c0.6,0,1.1-0.1,1.7-0.1
	c1.1-0.1,2.2-0.2,3.2-0.3c1-0.1,2-0.2,2.8-0.4c0.9-0.1,1.6-0.3,2.3-0.5c0.7-0.2,1.2-0.5,1.7-0.9c0.5-0.3,0.9-0.8,1.3-1.1
	c0.4-0.4,0.7-0.7,0.9-0.9c0.2-0.2,0.3-0.3,0.3-0.3c0.2-0.2,0.4-0.1,0.6,0c0.1,0.1,0.1,0.2,0.1,0.3c0,0,0,0.2,0,0.5
	c0,0.3,0,0.7-0.1,1.3c-0.1,0.6-0.2,1.3-0.6,2.1c-0.4,0.8-1,1.7-1.8,2.5c-0.8,0.8-1.8,1.4-2.9,2c-1.1,0.5-2.2,1-3.4,1.3
	c-1.2,0.3-2.4,0.6-3.6,0.8c-0.6,0.1-1.2,0.2-1.8,0.3c-0.6,0.1-1.2,0.1-1.8,0.2c-1.1,0.1-2.1,0.2-3.1,0.4c-1,0.2-2,0.4-2.9,0.6
	c-0.9,0.3-1.8,0.5-2.7,0.8c-0.8,0.3-1.6,0.7-2.3,1c-1.4,0.7-2.6,1.5-3.4,2.2c-0.4,0.3-0.7,0.6-0.9,0.8c-0.1,0.1-0.2,0.2-0.2,0.2
	c0,0-0.1,0.1-0.1,0.1c-0.1,0.2-0.4,0.2-0.6,0C474.5,479,474.4,478.9,474.4,478.8z"/>
<path d="M462.2,482.6c-0.8-3.6-3.7-2.6-9.2-2.6c-4.4,0-14.4,0.8-15.5,0.9c-1.8,0.1-3.1,0.2-3.7,0.2
	c-4.8,0-8.6-0.2-11.6-0.5c-0.2,0-0.5,0-1.1,0c-0.6,0-1.2,0.5-1.2,1.1v1.1c0,0.6,0.4,1,1,1.1l0.6,0.1c1.6,0.1,2.6,0.4,3.1,0.6
	c0.5,0.3,1.3,0.8,1.7,1.4c0,0.1,0.1,0.3,0.3,0.6c0.4,0.9,0.5,1.8,0.5,2.8v14.8c-0.4,0.2-0.8,0.5-1.2,0.8c-1.7,1.2-2.7,2.5-3.3,3.5
	c-0.3,0.5-0.5,0.9-0.6,1.2c-0.1,0.1-0.1,0.3-0.1,0.3c0,0.1,0,0.1,0,0.1c0,0.1,0,0.2,0.1,0.3c0.1,0.2,0.4,0.2,0.5,0.1
	c0,0,0,0,0.1-0.1c0.1,0,0.2-0.1,0.3-0.2c0.2-0.1,0.6-0.3,1.1-0.5c0.8-0.4,1.9-0.8,3.2-1.1v3.2l0,0v8.6c0,0.9-0.2,1.8-0.5,2.7
	c-0.1,0.4-0.2,0.6-0.3,0.7c-0.4,0.6-1.2,1.1-1.7,1.4c-0.5,0.3-1.5,0.5-3.1,0.6l-0.8,0.1c-0.4,0-0.7,0.4-0.7,0.8v1.6
	c0,0.5,0.4,0.8,0.8,0.8c0.8,0,1.2,0,1.4-0.1c2.9-0.3,6.8-0.5,11.6-0.5c0.6,0,1.9,0.1,3.7,0.2c1.1,0.1,2.2,0.2,3.4,0.3
	c0.3,0,0.5,0.1,0.7,0.1c0.1,0,0.1,0,0.2,0h0.5c2.2,0.2,2-2.4,1.1-3.3c-0.6-0.3-1.8-0.3-2.9-0.4c-0.1,0-0.2,0-0.3-0.1
	c-1.1-0.3-1.8-0.7-2.3-1.2c-0.3-0.3-0.7-0.6-0.7-1c0-0.2-0.1-0.7-0.1-1.1c0-0.1,0-0.2,0-0.3c0,0,0-0.1,0-0.1h0c0-1.9,0-4.3,0-7.1
	c0-0.9,0-1.9,0-2.9c0-1.1,0-2.3,0-3.6c0.7,0.1,1.4,0.2,2.1,0.3c0.6,0.1,1.2,0.2,1.8,0.3c0.6,0.1,1.2,0.2,1.9,0.2
	c1.2,0.1,2.5,0.1,3.7,0.1c1.2,0,2.4-0.2,3.6-0.4c1.2-0.3,2.3-0.6,3.3-1.2c1-0.5,1.8-1.3,2.4-2c0.6-0.7,0.9-1.4,1.1-1.9
	c0.2-0.5,0.3-1,0.4-1.2c0.1-0.3,0.1-0.4,0.1-0.4c0-0.1,0-0.2,0-0.3c-0.1-0.2-0.3-0.3-0.5-0.2c0,0-0.1,0.1-0.4,0.2
	c-0.2,0.2-0.6,0.4-1.1,0.7c-0.4,0.3-1,0.6-1.5,0.8c-0.6,0.2-1.2,0.4-1.9,0.4c-0.7,0.1-1.5,0-2.3,0c-0.9-0.1-1.8-0.2-2.8-0.4
	c-1-0.2-2.1-0.3-3.2-0.5c-0.5-0.1-1.1-0.2-1.6-0.3c-0.6-0.1-1.1-0.2-1.8-0.3c-1-0.2-2.1-0.2-3.1-0.3c0-5.3,0-10.6,0-13.9h0
	c0,0,0-0.1,0-0.1c0-0.1,0-0.2,0-0.3c0-0.4,0.1-1,0.1-1.1c0-0.4,0.4-0.7,0.7-1c0.5-0.5,1.3-0.9,2.3-1.2c0.1,0,0.2,0,0.3-0.1
	c3,0,7,0.1,11.8,0.8c8.1,1.3,6.5,7,9.3,6.9C463.2,491.8,463.7,489.7,462.2,482.6z"/>
<path d="M361.8,516.2c-0.4,0.6-2.8,5.1-3.4,5.9c-0.6,0.7-1.2,1.4-1.9,2c-0.4,0.3-0.7,0.5-1.1,0.7
	c-0.2,0.1-0.4,0.2-0.6,0.3c-0.2,0.1-0.4,0.2-0.6,0.2c-1,0.3-1.9,0.6-2.9,0.8c-1.9,0.4-3.8,0.5-5.7,0.3c-1.9-0.2-3.7-0.8-5.3-1.7
	c-0.8-0.4-1.5-1-2.3-1.6c-0.7-0.7-1.3-1.3-1.9-2c-0.6-0.7-1.1-1.5-1.6-2.2l-0.7-1.2c-0.2-0.2-0.2-0.4-0.3-0.6l-0.3-0.6
	c-0.7-1.6-1.2-3.3-1.5-4.9c-0.3-1.6-0.6-3.9-0.7-5.7c0-0.4,0-2.3,0-2.7c0.1-1.7,0.4-4,0.7-5.7c0.3-1.6,0.8-3.3,1.5-4.9l0.3-0.6
	c0.1-0.2,0.1-0.4,0.3-0.6l0.7-1.2c0.5-0.7,1-1.6,1.6-2.2c0.6-0.7,1.2-1.3,1.9-2c0.7-0.6,1.4-1.2,2.3-1.6c1.6-0.9,3.4-1.5,5.3-1.7
	c1.9-0.2,3.8-0.1,5.7,0.3c1,0.2,1.9,0.5,2.9,0.8c0.3,0.1,0.4,0.2,0.6,0.2c0.2,0.1,0.4,0.2,0.6,0.3c0.4,0.2,0.7,0.5,1.1,0.7
	c0.7,0.6,1.4,1.2,1.9,2c0.6,0.7,3,5.3,3.4,5.9c0.5,0.7,2,1.1,2.7,0.2c0.7-0.9-0.1-8.1-1-8.6l-0.3-0.2c-1-0.8-3.8-2.1-4.9-2.6
	c-0.5-0.3-1.1-0.5-1.7-0.7c-0.3-0.1-0.6-0.2-0.9-0.3c-0.3-0.1-0.6-0.1-0.8-0.2c-1-0.2-2.1-0.4-3.1-0.5c-2.1-0.3-4.3-0.5-6.5-0.4
	c-2.2,0.1-4.4,0.5-6.5,1.2c-2.1,0.7-4.3,1.7-6.1,3c-1,0.6-1.9,1.3-2.8,2.1l-1.3,1.1c-0.2,0.1-0.4,0.4-0.6,0.6l-0.7,0.7
	c-1.6,1.8-3,3.9-4,6.2c-1,2.3-1.6,5.5-1.8,8c-0.1,0.6-0.1,1.2-0.1,1.9c0,0.7,0,1.3,0.1,1.9c0.2,2.5,0.8,5.7,1.8,8
	c1,2.3,2.4,4.4,4,6.2l0.7,0.7c0.2,0.2,0.5,0.5,0.6,0.6l1.3,1.1c0.9,0.7,1.8,1.5,2.8,2.1c1.9,1.3,4,2.3,6.1,3
	c2.1,0.7,4.4,1.1,6.5,1.2c2.2,0.1,4.4-0.1,6.5-0.4c1-0.2,2.1-0.4,3.1-0.5c0.2,0,0.5-0.1,0.8-0.2c0.3-0.1,0.6-0.2,0.9-0.3
	c0.6-0.2,1.1-0.4,1.7-0.7c1.1-0.5,3.8-1.8,4.9-2.6l0.3-0.2c0.8-0.5,1.7-7.7,1-8.6C363.9,515.1,362.3,515.5,361.8,516.2z"/>
<path d="M416.2,526.1l-0.6-0.1c-1.6-0.1-2.6-0.4-3.1-0.6c-0.5-0.3-1-0.7-1.4-1.3c-0.2-0.3-1.3-3.5-3.4-8.1l-4-10.1
	l-6.8-15.7c-1.8-4.6-2.8-7.3-3-8c-0.2-0.5-0.4-1-0.5-1.6c-0.2-0.4-0.6-0.7-1-0.7c-0.5,0-0.8,0-1.1,0c-0.2,0-0.6,0-1.3,0
	c-0.3,0-0.6,0.2-0.7,0.5c-0.6,1.6-5.3,14.9-5.9,16.2c-0.5,1.3-1,2.6-1.4,3.8l-3.1,8.3c-1.3,0.5-2.4,1.1-3.4,1.8
	c-1.7,1.2-2.7,2.5-3.3,3.5c-0.3,0.5-0.5,0.9-0.6,1.2c-0.1,0.1-0.1,0.3-0.1,0.3c0,0.1,0,0.1,0,0.1c0,0.1,0,0.2,0.1,0.3
	c0.1,0.2,0.4,0.2,0.5,0.1c0,0,0,0,0.1-0.1c0.1,0,0.2-0.1,0.3-0.2c0.2-0.1,0.6-0.3,1.1-0.5c0.8-0.4,2-0.8,3.4-1.1
	c-1.6,4.3-2.7,7.7-3.6,9.1c-0.3,0.6-0.6,1-1,1.2c-0.5,0.4-2.1,1.1-4.7,2.1c-0.4,0.2-0.7,0.6-0.7,1c0,0.2,0,0.4,0,0.6
	c0,0.7,0.6,1.2,1.2,1.1c0.7-0.1,1.4-0.1,2.2-0.2c1.4-0.2,3.1-0.3,5.1-0.3c1.9,0,3.9,0.1,5.9,0.3c1.1,0.1,2,0.2,2.6,0.2
	c0.6,0,1.1-0.4,1.2-1c0-0.3,0-0.5,0-0.6c0-0.1,0-0.2,0-0.3c-0.1-0.5-0.4-0.9-0.9-0.9c-0.2,0-0.5-0.1-0.7-0.1c-0.5-0.1-1-0.1-1.3-0.2
	c-1.6-0.1-2.7-0.5-3.4-1c-0.5-0.3-0.7-0.8-0.7-1.2c0-0.7,0.2-2.4,0.6-3.5c0.4-1.1,0.9-2.8,1.6-5c0.2-0.6,0.3-1.2,0.5-1.5
	c0,0,0,0,0-0.1l0.1-0.2c0.6,0,1.2-0.1,1.8-0.1c1,0,2,0,3,0.1c1,0.1,2.1,0.2,3.1,0.4c0.6,0.1,1.2,0.2,1.8,0.3
	c0.6,0.1,1.2,0.2,1.9,0.2c1.2,0.1,2.5,0.1,3.7,0.1c0.3,0,0.6,0,0.9-0.1c0.7,1.6,1.2,3,1.6,4.3l1.1,3.1c0,0.1,0.1,0.2,0.1,0.3
	c0,0.4,0.1,1.2,0.1,1.4c0,0.4-0.1,0.7-0.4,1c-0.5,0.5-1.3,0.9-2.3,1.2c-0.3,0.1-1.4,0.2-3.2,0.5c-0.6,0.1-1,0.6-1,1.1
	c0,0.3,0,0.6,0,1c0,0.6,0.5,1.1,1.1,1.1l1.4,0c0.1,0,0.1,0,0.2,0c0.8-0.1,1.9-0.2,3.5-0.4c2.2-0.1,3.7-0.2,4.4-0.2
	c4.8,0,8.6,0.2,11.6,0.5c0.2,0,0.5,0,1.1,0c0.6,0,1.1-0.5,1.1-1.1v-1.1C417.2,526.6,416.8,526.1,416.2,526.1z M393.1,508.1
	c-0.5-0.1-1.1-0.2-1.6-0.3c-0.6-0.1-1.1-0.2-1.8-0.3c-1.3-0.2-2.6-0.3-3.9-0.3c-0.9,0-1.9,0.1-2.8,0.2l3-8.5l1-2.6
	c0.4-0.9,1.7-0.9,2.1,0c0.4,0.9,0.7,1.7,1.1,2.7l4,9.4C393.8,508.3,393.5,508.2,393.1,508.1z"/>
<path d="M821.5,467.8c-1-2-2.5-3.5-4.1-4.7c-1.6-1.2-3.5-2.1-5.3-2.7c-3.8-1.3-7.7-1.5-11.6-1.1
	c-0.5,0.1-0.9,0.1-1.5,0.2l-1.3,0.2l-1.4,0.3l-1.4,0.3c-1.8,0.5-3.6,1.1-5.3,1.7c-4.4,1.6-8.7,3.6-12.9,5.6
	c-4.1-3.5-7.8-7.3-11.4-11.3c-3.7-4-7.2-8.2-10.5-12.3l0.1-2.9c0-0.5,0-1.4,0-2.6l-0.3-17.7c0-1.1,0-2.2-0.1-3.1
	c-0.2-2.8-0.3-6.7-0.2-11.6c0-2.2,0-3.6,0-4.2c0-1.2-0.1-1.9-0.1-2.1c0-0.7,0.1-1.2,0.3-1.6c0.1-0.2,0.3-0.4,0.5-0.6
	c0.4-0.3,1.3-0.8,2.4-1.4c0.3-0.2,1.6-0.5,3.8-1c0.4-0.1,0.7-0.2,1.1-0.3c0.8-0.3,1.3-1,1.3-1.9v0c0-1.1-0.9-2-2-1.9l-0.1,0
	l-11.1,0.1l-9.9,0.1c-0.1,0-0.8,0.2-1.1,0.7c-1.2,2.2,1,3,1,3c0.8,0.2,1.7,0.5,2.7,0.7c2.5,0.4,4.1,1,4.8,1.8c0.4,0.5,0.6,1.8,0.6,4
	c0,0.7,0.1,3.2,0.5,7.6c0.2,2.3,0.2,4.8,0.2,7.6c0,1.7,0,3.3,0.1,4.7c0,2.3,0.1,12.8,0.1,16.2c-2.9-3.5-5.7-7-8.5-10.5
	c-3.9-4.9-7.6-9.6-11.2-14.1c-3.2-4.4-6.2-9.5-9.7-13.9c-1.8-2.2-3.7-4.4-5.7-6.3c-2-2-4.3-3.7-6.7-5.2c-4.9-2.9-10.3-4.5-15.2-5.3
	c-0.6-0.1-1.2-0.2-1.9-0.3l-0.9-0.1c-0.3,0-0.5,0-0.8,0l-0.8,0l-0.1,0c-0.2,0-0.1,0-0.2,0l-0.2,0l-0.4,0c-0.5,0-1.1,0-1.6,0
	c-1.1,0-2.1,0.1-3.2,0.1c-1,0.1-2.1,0.1-3,0.3c-4,0.5-7.6,1.7-10.5,3.5c-2.9,1.8-5,4.3-6.2,6.6c-1.3,2.4-1.8,4.6-2.2,6.4
	c-0.6,2.4-0.4,4.6-0.4,5.8c0,0.1,0,0.1,0,0.2c0,0.1,0,0.3,0,0.4c0,0,0,0.1,0,0.1l0,0c0.3,3.7,3.3,6.6,7,6.6c1.8,0,4.1-2.5,4.2-4.1
	c0,0.2,0.6,2.7,0.7,2.9c0.2,0.7,0.3,1.4,0.4,2c0.1,0.7,0.2,1.3,0.3,1.9c0.1,0.6,0.1,1.2,0.2,1.7c0.1,1.1,0.2,2.1,0.2,2.9
	c0.1,0.8,0.1,1.6,0.1,2.2c0,1.1,0,1.7,0.1,1.8c0,0.3,0,1-0.1,1.9c0,0.4,0,0.7,0,1.2c0,0.4-0.1,0.7-0.1,1.1c-0.1,0.8-0.1,1.6-0.2,2.8
	c-0.1,0.6-0.1,1.1-0.2,1.7c-0.1,0.6-0.2,1.2-0.3,1.9c-0.1,0.7-0.2,1.4-0.4,2.1c-0.2,0.7-0.3,1.5-0.5,2.2c-0.8,3-2.1,6.5-4.4,9.7
	c-0.3,0.4-0.6,0.8-0.9,1.2c-0.3,0.4-0.7,0.7-1.1,1.1c-0.7,0.8-1.6,1.4-2.4,2.1c-1.8,1.2-3.8,2.3-6.1,2.7l-0.9,0.2
	c-0.3,0-0.6,0.1-0.9,0.1c-0.5,0-1.1,0.1-1.7,0.1c-1.3-0.1-2.8-0.1-3.8-0.5c-1.1-0.2-2.3-0.7-3.4-1.2c-1.1-0.6-2.2-1.2-3.1-2
	c-1-0.7-1.9-1.7-2.7-2.6c-0.8-1-1.6-2-2.2-3.2c-0.7-1.1-1.2-2.3-1.7-3.4l-0.7-1.8c-0.2-0.6-0.4-1.2-0.6-1.8c-1.4-4.9-1.9-9.9-2-14.9
	l0-0.5l0-0.1l0-0.2l0-1.1l0-1.1l0-0.6l0-0.3l0-0.2c0.1-1.1,0.1-2.2,0.3-3.5c0.2-2.5,0.7-4.9,1.3-7.4c0.6-2.5,1.6-4.8,2.8-7
	c1.2-2.2,2.9-4.2,4.8-5.8c0.5-0.4,1-0.8,1.5-1.1c0.5-0.3,1.1-0.6,1.6-0.9c0.5-0.3,1.1-0.5,1.7-0.8c0.6-0.2,1.1-0.5,1.8-0.6
	c0.6-0.1,1.2-0.3,1.8-0.4c0.6-0.1,1.2-0.1,1.8-0.1l0.4,0l0.2,0l0,0l0.1,0l1,0.1c0.6,0.1,1.3,0.1,1.9,0.2c0.9,0.2,4.5-3.1,2.5-3.9
	c-0.7-0.1-1.4-0.2-2.2-0.3c-0.7-0.1-1.3-0.1-2-0.1l-1-0.1l-0.1,0l-0.2,0l-0.1,0l-0.3,0l-0.5,0c-0.7,0-1.4,0.1-2.2,0.1
	c-0.7,0.1-1.4,0.2-2.2,0.3c-2.9,0.6-5.9,1.3-8.7,2.8c-2.8,1.4-5.6,3.1-8.1,5.3c-0.7,0.5-1.2,1.1-1.8,1.7l-0.9,0.9
	c-0.3,0.3-0.5,0.6-0.8,1c-0.5,0.7-1.1,1.3-1.6,2c-0.5,0.7-1,1.4-1.4,2.1c-1.8,2.9-3.3,6.1-4.2,9.5c-0.5,1.6-0.7,3.6-1,5.4l-0.1,0.3
	l0,0.3l0,0.6L619,421l-0.1,1.1l0,0.3l0,0.4l0,0.2l0,0.7c0.1,1.7,0.2,3.5,0.5,5.2c0.2,1.7,0.7,3.4,1.2,5.1c1.1,3.3,2.5,6.5,4.5,9.3
	c0.5,0.7,0.9,1.4,1.5,2.1c0.5,0.7,1.1,1.3,1.6,2c1.2,1.2,2.3,2.4,3.6,3.5c1.2,1.1,2.6,2,3.9,2.9c1.4,0.8,2.7,1.7,4.2,2.3
	c1.4,0.7,2.9,1.2,4.3,1.7c1.5,0.3,2.9,0.8,4.5,1c1.6,0.3,2.8,0.3,4.2,0.4l0.1,0c0,0,0.3,0,0.2,0l0.1,0l0.3,0l0.5,0l1.1-0.1
	c0.4,0,0.7,0,1.1-0.1l1-0.2c2.8-0.3,5.4-1.3,7.9-2.3c1.2-0.6,2.5-1.1,3.5-1.8c0.6-0.3,1.1-0.7,1.7-1c0.5-0.4,1-0.7,1.6-1.1
	c4.1-3,7.3-6.6,9.6-10.2c0.6-0.9,1.1-1.8,1.5-2.7c0.5-0.9,0.9-1.7,1.2-2.6c0.3-0.9,0.7-1.7,1-2.5c0.3-0.8,0.4-1.6,0.7-2.3
	c0.5-1.4,0.6-2.9,0.8-4.2c0.1-0.6,0.2-1.2,0.2-1.7c0-0.4,0.1-0.8,0.1-1.2c0.1-1.4,0.1-2.1,0.1-2.1l0-0.3c0,0,0-0.9-0.1-2.5
	c0-0.4-0.1-0.9-0.1-1.4c0-0.5-0.2-1-0.2-1.6c-0.2-1.2-0.4-2.5-0.8-4c-0.7-3-2.2-6.5-4.5-10c-1.1-1.6-3.7-4.8-6.5-5.9
	c-3.9-1.5-8.4-1-10.6,0.3c0,0-0.2,0.1-0.6,0.4c0-0.2,0-0.3,0-0.3c0.2-1.3,0.6-2.8,1.3-4.4c1-2,2.6-4.1,5.2-5.5
	c2.5-1.5,5.8-2.3,9.4-2.4c0.9-0.1,1.8,0,2.8,0c1,0.1,1.9,0.2,2.9,0.3c0.5,0.1,1,0.1,1.5,0.2l0.4,0.1l0.2,0c0,0,0.2,0,0,0l0.1,0
	l0.8,0.2c0.3,0.1,0.5,0.1,0.8,0.2l0.6,0.3l0.6,0.2l0.7,0.3c1.8,0.9,3.4,2.2,4.8,3.8c1,1.1,1.9,2.3,2.8,3.5l0.3,25.7l-0.1,16.4v2.8
	c0,1.2-0.1,4.4-0.4,9.8c-0.1,1.9-0.4,3-0.9,3.4c-0.5,0.4-2,0.6-4.6,0.6c-0.3,0-0.5,0-0.8,0c-0.9-0.1-1.4-0.1-1.6-0.1
	c-0.2,0-0.4,0-0.7,0c-0.9,0.1-1.7,0.9-1.7,1.8c0,0.1,0,0.2,0,0.3c0,0.2,0,0.4,0,0.5c0,0.9,0.8,1.7,1.7,1.7h0c0.2,0,1.1-0.1,2.9-0.2
	c1.8-0.1,5.3-0.2,10.6-0.3c0.1,0,0.1,0,0.2,0c5.7,0.5,9,0.7,10.1,0.7l0.1,0c1,0,1.8-0.9,1.8-1.9l-0.1-1.1c0-0.7-0.5-1.3-1.2-1.5
	c0,0,0,0,0,0c-0.1,0-0.2,0-0.3,0c-3.5-0.2-6-0.5-7.5-0.8c-0.6-0.1-1.1-0.5-1.3-1.1c-0.1-0.3-0.2-0.5-0.3-0.7c-0.1-0.4-0.2-1-0.3-1.8
	c-0.3-3.2-0.5-6.2-0.6-9l-0.3-6.6c0,0,0-0.1,0-0.1l0-3.5c0-1.2,0-2.4-0.1-3.5l-0.4-24.7c1.5,2,3.1,4.2,4.8,6.4
	c3.3,4.3,6.8,8.8,10.3,13.4c0.5,0.6,1,1.3,1.5,1.9c0.5,0.6,0.9,1.1,1.4,1.7c0.8,1.1,1.7,2.2,2.6,3.4c1.8,2.4,3.6,4.9,5.5,7.4
	c3.8,5.1,7.8,10.2,12.4,15.1c4.6,4.9,9.6,9.7,15,14.2c3.2,2.6,6.5,5.1,10,7.4c-11.8,6.1-23.2,12.3-34.2,18.2
	c-11.9,6.3-23.4,12.2-34.6,17c-11.1,4.9-22.1,8.6-32.5,9.8c-5.2,0.6-10.3,0.5-15,0.2c-4.8-0.3-9.3-1.1-13.2-2.3c-4-1.2-7.5-3-10-5.2
	c-2.6-2.2-4.2-4.9-4.8-7.6c-0.6-2.6-0.3-5.2,0.4-7.2c0.5-1.5,1.3-2.8,2-3.9c0.9,2.9,3.6,4.9,6.7,4.9c3.9,0,7.1-3.2,7.1-7.1
	c0-3.9-3.2-7.1-7.1-7.1c-1.7,0-3.3,0.6-4.5,1.6c-0.1,0-0.2,0.1-0.3,0.2l0,0c0,0-0.1,0.1-0.3,0.2c-0.2,0.1-0.5,0.3-0.9,0.6
	c-0.8,0.6-1.9,1.5-3.2,3c-1.2,1.4-2.5,3.4-3.5,6.1c-0.9,2.6-1.4,5.9-0.7,9.5c0.7,3.6,2.8,7.2,6,10.1c3.1,2.9,7.2,4.9,11.5,6.5
	c4.4,1.5,9.2,2.5,14.3,3c2.5,0.3,5.2,0.4,7.8,0.5c2.6,0.1,5.5,0.1,8.3-0.1c11.2-0.8,23.2-3.5,35.1-7.9c12-4.4,23.8-10.5,35.6-17.4
	c11.8-6.9,23.5-14.7,35.6-22.1c0.1,0,0.1-0.1,0.2-0.1c0.7,0.4,1.4,0.8,2.2,1.2c3.2,1.7,6.7,3.3,10.2,4.5c3.6,1.2,7.3,2.2,11.1,2.5
	c1.9,0.2,3.9,0.1,5.7,0c0.9,0,1.9,0,2.8-0.1c0.9-0.1,1.9-0.1,2.8-0.3c1.9-0.2,3.8-0.6,5.6-1.2c1.9-0.6,3.7-1.5,5.4-2.8
	c1.7-1.3,3.2-3.1,3.8-5.4C822.9,472.2,822.5,469.7,821.5,467.8z M818.5,473.4c-0.4,1.2-1.2,2.4-2.4,3.3c-2.4,1.8-5.8,2.7-9.1,3.1
	c-0.8,0.1-1.7,0.2-2.5,0.2c-0.9,0.1-1.7,0.1-2.6,0.1c-1.7-0.1-3.3-0.4-4.9-0.8c-5.8-1.5-11.1-4.5-15.9-8.1c0.2-0.1,0.4-0.2,0.6-0.4
	c3.1-1.7,6.3-3.3,9.5-4.6c1.6-0.7,3.2-1.3,4.9-1.8l1.2-0.4l1.2-0.3l1.3-0.3c0.3-0.1,0.8-0.1,1.2-0.2c3.3-0.5,6.8-0.3,9.9,0.7
	c3.1,1,5.9,3,7.2,5.6C818.7,470.8,818.9,472.1,818.5,473.4z"/>
<path d="M224.2,392.2l0.8,0.1c2.3,0.2,3.8,0.5,4.6,0.9c0.8,0.4,1.5,1.1,2.1,2.1c0.1,0.2,0.3,0.6,0.8,1.8
	c0.7,1.9,2.1,5.4,4.1,9.7l5.7,14.3l9.6,22.2c2.5,6.5,3.9,10.3,4.3,11.4c0.3,0.7,0.5,1.5,0.8,2.2c0.1,0.4,0.5,0.7,0.9,0.7
	c0.6,0,1.1,0,1.6,0c0.3,0,0.8,0,1.8-0.1c0.2,0,0.4-0.1,0.5-0.4c0.2-0.6,0.9-2.4,1.7-4.8c2.2-6.3,6-16.7,6.5-18.1
	c0.7-1.9,1.4-3.6,2-5.3l6.5-17.3c0.6-1.7,1.2-3.4,1.8-4.9c1.7-4.8,3.1-8.6,4.1-10.4c0.5-0.9,1-1.5,1.5-1.9c0.7-0.6,2.9-1.6,6.8-3
	c0.4-0.2,0.7-0.5,0.7-0.9c0-0.3,0-0.6,0-0.8c0-0.3-0.1-0.6-0.3-0.8c-0.2-0.2-0.5-0.3-0.8-0.3c-0.9,0.1-2,0.2-3.1,0.3
	c-2,0.3-4.4,0.4-7.2,0.4c-2.7,0-5.6-0.1-8.4-0.4c-1.6-0.2-2.8-0.3-3.7-0.3c-0.5,0-1.1,0.4-1.1,1c0,0.3,0,0.6,0,0.8
	c0,0.1,0,0.2,0,0.4c0.1,0.4,0.4,0.8,0.8,0.9c0.3,0.1,0.7,0.1,1,0.1c0.8,0.1,1.5,0.2,2,0.4c2.2,0.2,3.9,0.7,5,1.6
	c0.8,0.6,1.2,1.3,1.2,2.2c0,1.1-0.3,3.5-0.9,5.1c-0.6,1.6-1.3,3.9-2.2,7c-0.3,0.9-0.5,1.6-0.6,2.2l0,0.1l-1.4,3.6l-6,17.2l-1.5,3.8
	c-0.3,0.8-1.1,1.3-2,1.3c-0.8,0-1.6-0.5-2-1.3c-0.5-1.2-1-2.5-1.6-3.7l-5.8-13.5c-2.7-6.1-4.7-11-5.9-14.5l-1.6-4.4
	c-0.1-0.2-0.1-0.4-0.1-0.5c-0.1-0.6-0.1-1.7-0.1-2c0-0.7,0.2-1.2,0.7-1.7c0.8-0.8,2-1.4,3.5-1.8c0.5-0.1,2-0.4,4.6-0.7
	c0.5-0.1,0.9-0.5,0.9-1l0-1.3c0-0.6-0.5-1-1-1h-2c0,0-0.1,0-0.1,0c-1.1,0.2-2.8,0.3-4.9,0.5c-3.2,0.2-5.2,0.3-6.2,0.3
	c-6.7,0-12.2-0.2-16.4-0.7c-0.2,0-0.7,0-1.5-0.1c0,0,0,0,0,0c-0.3,0-0.5,0.1-0.7,0.3c-0.2,0.2-0.3,0.5-0.3,0.7v1.5
	C223.3,391.7,223.7,392.1,224.2,392.2z"/>
<path d="M581.7,458.8c1.1,0,1.7-0.1,2-0.1c4.1-0.5,9.6-0.7,16.3-0.7c0.9,0,2.7,0.1,5.3,0.3c1.5,0.1,3.1,0.3,4.8,0.4
	c0.4,0,0.7,0.1,1,0.1c0.1,0,0.1,0,0.2,0h0.7c3.2,0.2,2.8-3.4,1.6-4.6c-0.8-0.5-2.5-0.5-4.1-0.5c-0.2,0-0.3-0.1-0.4-0.1
	c-1.5-0.4-2.6-1-3.3-1.7c-0.4-0.4-1-0.8-1-1.4c0-0.3-0.1-1-0.2-1.6c0-0.1,0-0.3,0-0.4c0-0.1,0-0.1,0-0.1c0-11.3,0-38.7,0-44.6
	c0-3.9,0.7-6.2,1.4-7.5c0.5-1,1.5-1.6,2.5-1.7c1.4-0.1,2.5-0.2,3.4-0.2c1.3-0.1,2.3-1.1,2.2-2.4c-0.1-2.7-4.1-2.6-4.1-2.6
	s-28.4-0.7-29,0.2c-0.6,0.9-0.8,2.8,0.5,3.2c1.3,0.3,4.5,0.6,5,0.7c4.2,0.9,4.1,8.9,4.1,8.9l0,43.9c0,1.3-0.2,2.6-0.7,3.8
	c-0.2,0.5-0.3,0.9-0.4,1c-0.6,0.9-1.7,1.6-2.4,2c-0.7,0.4-2.2,0.7-4.4,0.9l-1.2,0.1c-0.6,0.1-1,0.6-1,1.1v2.3
	C580.6,458.3,581.1,458.8,581.7,458.8z"/>
<path d="M507.6,408.6c0.9,0.3,1.8,0.2,2.4-1c3.2-7.7,5.4-11,15.5-12h5.9c1,0,1.8,0.8,1.8,1.8l0.2,48.9
	c0,1.3-0.2,2.6-0.7,3.8c-0.2,0.5-0.3,0.9-0.4,1c-0.6,0.9-1.7,1.6-2.4,2c-0.7,0.4-2.2,0.7-4.4,0.9l-1.2,0.1c-0.6,0.1-1,0.6-1,1.1v2.3
	c0,0.6,0.5,1.2,1.2,1.1c1.1,0,1.7-0.1,2-0.1c4.1-0.5,9.6-0.7,16.3-0.7c0.9,0,2.7,0.1,5.3,0.3c1.5,0.1,3.1,0.3,4.8,0.4
	c0.4,0,0.7,0.1,1,0.1c0.1,0,0.1,0,0.2,0h0.7c3.2,0.2,2.8-3.4,1.6-4.6c-0.8-0.5-2.5-0.5-4.1-0.5c-0.2,0-0.3-0.1-0.4-0.1
	c-1.5-0.4-2.6-1-3.3-1.7c-0.4-0.4-1-0.8-1-1.4c0-0.3-0.1-1-0.2-1.6c0-0.1,0-0.3,0-0.4c0-0.1,0-0.1,0-0.1h0c0-9.7-0.1-39.4-0.2-50.8
	c0-1,0.8-1.8,1.8-1.8h1.1c0,0,5.2,0.6,8.2,1c11.4,1.8,9.2,9.8,13.2,9.7c2.3-0.1,3-3.1,0.8-13.1c-0.5-2.3-1.7-5.6-3.5-5.9
	c-2.2-0.5-5,3.4-18.7,3.1h-21.8c0,0-4,0.5-7.7-0.7c-3.2-1.1-6.5-4.7-8.8-3.3c-1.8,1.1-3.2,7.3-3.4,10c-0.3,4-1.7,9.2-1.8,10.6
	C506.4,407.7,506.9,408.4,507.6,408.6z"/>
<path d="M365.5,393.8l0.8,0.1c2.2,0.2,3.7,0.5,4.4,0.9c0.7,0.4,1.8,1.1,2.4,2c0.1,0.1,0.2,0.4,0.4,0.9
	c0.5,1.2,0.8,2.6,0.8,3.9v42.8c0,0,0.2,8-4.1,8.9c-0.5,0.1-3.7,0.4-5,0.7c-1.3,0.3-0.7,2.2-0.9,3.1c-0.2,1,4.4,0.5,7.4,0.6
	c4.6,0.3,39.3-1.1,45.2-0.1c6,1,11.7-0.5,12.3-6.7c0.3-4,1.7-9.2,1.8-10.6c0-0.8-0.5-1.5-1.2-1.7c-0.9-0.3-1.8-0.2-2.4,1
	c-4.7,11.4-7.3,13.2-36.6,12.2c0,0-2.6-1.5-2.6-9c0-5.9,0-32.3,0-43.5h0c0,0,0-0.1,0-0.1c0-0.1,0-0.3,0-0.4c0-0.6,0.2-1.3,0.2-1.6
	c0-0.5,0.6-1,1-1.4c0.7-0.7,1.8-1.3,3.3-1.7c0.1,0,0.2,0,0.4-0.1c4.3,0,7.2-5.5,2.6-5.1h-0.7c-0.1,0-0.1,0-0.2,0
	c-0.3,0-0.6,0.1-1,0.1c-1.7,0.1-3.3,0.3-4.8,0.4c-2.6,0.2-17.4,0-21.6-0.5c-0.2,0-0.8,0-1.6-0.1c-0.9,0-1.6,0.7-1.6,1.6v1.5
	C364.1,393,364.7,393.7,365.5,393.8z"/>
<path d="M291.5,418.9l-0.1,0.3l0,0.3l0,0.6l-0.1,1.1l-0.1,1.1l0,0.3l0,0.4l0,0.2l0,0.7c0.1,1.7,0.2,3.5,0.5,5.2
	c0.2,1.7,0.7,3.4,1.2,5.1c1.1,3.3,2.5,6.5,4.5,9.3c0.5,0.7,0.9,1.4,1.5,2.1c0.5,0.7,1.1,1.3,1.6,2c1.2,1.2,2.3,2.4,3.6,3.5
	c1.2,1.1,2.6,2,3.9,2.9c1.4,0.8,2.7,1.7,4.2,2.3c1.4,0.7,2.9,1.2,4.3,1.7c1.5,0.3,2.9,0.8,4.5,1c1.6,0.3,2.8,0.3,4.2,0.4l0.1,0
	c0,0,0.3,0,0.2,0l0.1,0l0.3,0l0.5,0l1.1-0.1c0.4,0,0.7,0,1.1-0.1l1-0.2c2.8-0.3,5.4-1.3,7.9-2.3c1.2-0.6,2.5-1.1,3.5-1.8
	c0.6-0.3,1.1-0.7,1.7-1c0.5-0.4,1-0.7,1.6-1.1c4.1-3,7.3-6.6,9.6-10.2c0.6-0.9,1.1-1.8,1.5-2.7c0.5-0.9,0.9-1.7,1.2-2.6
	c0.3-0.9,0.7-1.7,1-2.5c0.3-0.8,0.4-1.6,0.7-2.3c0.5-1.4,0.6-2.9,0.8-4.2c0.1-0.6,0.2-1.2,0.2-1.7c0-0.4,0.1-0.8,0.1-1.2
	c0.1-1.4,0.1-2.1,0.1-2.1l0-0.3c0,0,0-0.9-0.1-2.5c0-0.4-0.1-0.9-0.1-1.4c0-0.5-0.2-1-0.2-1.6c-0.2-1.2-0.4-2.5-0.8-4
	c-0.7-3-2.2-6.5-4.5-10c-1.1-1.6-3.7-4.8-6.5-5.9c-3.9-1.5-8.4-1-10.6,0.3c0,0-4.3,2.6-4.3,6.7c0,3.9,3.2,7.1,7.1,7.1
	c1.8,0,4.1-2.5,4.2-4.1c0,0.2,0.6,2.7,0.7,2.9c0.2,0.7,0.3,1.4,0.4,2c0.1,0.7,0.2,1.3,0.3,1.9c0.1,0.6,0.1,1.2,0.2,1.7
	c0.1,1.1,0.2,2.1,0.2,2.9c0.1,0.8,0.1,1.6,0.1,2.2c0,1.1,0,1.7,0.1,1.8c0,0.3,0,1-0.1,1.9c0,0.4,0,0.7,0,1.2c0,0.4-0.1,0.7-0.1,1.1
	c-0.1,0.8-0.1,1.6-0.2,2.8c-0.1,0.6-0.1,1.1-0.2,1.7c-0.1,0.6-0.2,1.2-0.3,1.9c-0.1,0.7-0.2,1.4-0.4,2.1c-0.2,0.7-0.3,1.5-0.5,2.2
	c-0.8,3-2.1,6.5-4.4,9.7c-0.3,0.4-0.6,0.8-0.9,1.2c-0.3,0.4-0.7,0.7-1.1,1.1c-0.7,0.8-1.6,1.4-2.4,2.1c-1.8,1.2-3.8,2.3-6.1,2.7
	l-0.9,0.2c-0.3,0-0.6,0.1-0.9,0.1c-0.5,0-1.1,0.1-1.7,0.1c-1.3-0.1-2.8-0.1-3.8-0.5c-1.1-0.2-2.3-0.7-3.4-1.2
	c-1.1-0.6-2.2-1.2-3.1-2c-1-0.7-1.9-1.7-2.7-2.6c-0.8-1-1.6-2-2.2-3.2c-0.7-1.1-1.2-2.3-1.7-3.4l-0.7-1.8c-0.2-0.6-0.4-1.2-0.6-1.8
	c-1.4-4.9-1.9-9.9-2-14.9l0-0.5l0-0.1l0-0.2l0-1.1l0-1.1l0-0.6l0-0.3l0-0.2c0.1-1.1,0.1-2.2,0.3-3.5c0.2-2.5,0.7-4.9,1.3-7.4
	c0.6-2.5,1.6-4.8,2.8-7c1.2-2.2,2.9-4.2,4.8-5.8c0.5-0.4,1-0.8,1.5-1.1c0.5-0.3,1.1-0.6,1.6-0.9c0.5-0.3,1.1-0.5,1.7-0.8
	c0.6-0.2,1.1-0.5,1.8-0.6c0.6-0.1,1.2-0.3,1.8-0.4c0.6-0.1,1.2-0.1,1.8-0.1l0.4,0l0.2,0l0,0l0.1,0l1,0.1c0.6,0.1,1.3,0.1,1.9,0.2
	c0.9,0.2,4.5-3.1,2.5-3.9c-0.7-0.1-1.4-0.2-2.2-0.3c-0.7-0.1-1.3-0.1-2-0.1l-1-0.1l-0.1,0l-0.2,0l-0.1,0l-0.3,0l-0.5,0
	c-0.7,0-1.4,0.1-2.2,0.1c-0.7,0.1-1.4,0.2-2.2,0.3c-2.9,0.6-5.9,1.3-8.7,2.8c-2.8,1.4-5.6,3.1-8.1,5.3c-0.7,0.5-1.2,1.1-1.8,1.7
	l-0.9,0.9c-0.3,0.3-0.5,0.6-0.8,1c-0.5,0.7-1.1,1.3-1.6,2c-0.5,0.7-1,1.4-1.4,2.1c-1.8,2.9-3.3,6.1-4.2,9.5
	C292,415.1,291.8,417,291.5,418.9z"/>
<path d="M429.4,393c0.1,0,0.3,0,0.4,0c3.9,0.1,6.2,0.8,6.9,1.9c0.5,0.8,0.8,4.2,0.8,10.2v25.5c0,4.9,0.3,8.7,0.8,11.3
	c0.7,3.8,2,7,3.9,9.4c1.9,2.4,4.7,4.3,8.5,5.8c3.7,1.5,8.2,2.2,13.4,2.2c4.6,0,8.6-0.5,12-1.6c3.4-1.1,6.3-2.5,8.6-4.3
	c2.3-1.8,4.1-3.8,5.3-5.9c0.8-1.4,1.4-3.4,1.9-5.8c0.5-2.5,0.7-7.3,0.7-14.6l-0.1-10.8c-0.1-2.6,0.3-19.7,0.3-20.3
	c0-0.9,0.2-1.5,0.7-2c0.2-0.2,1-0.5,3.3-0.8c0,0,0.1,0,0.1,0c0.9,0,1.8-0.2,2.7-0.3c0.8-0.2,1.4-0.9,1.4-1.7l0,0
	c0-0.5-0.1-2.1-0.3-2.3c-0.2-0.2-0.9-0.2-0.9-0.2c-2.9,0.3-6.5,0.5-9.8,0.5l-9.7-0.5h-2.2c-1,0-1.8,0.8-1.8,1.8c0,0-0.2,1.5,0.1,2
	c0.2,0.4,0.4,0.5,0.7,0.5c0.4,0.1,4.5-0.1,4.5-0.1c1.3,0,2.6,0.6,3.6,1.7c0.6,0.7,1,2.1,1.1,4.2l0.2,2.8c0.9,10.8,0.9,20.5,0.9,29.1
	c0,4.9-0.3,8.6-1,10.9c-0.5,1.7-1.3,3.5-2.5,5.5c-0.6,0.9-1.6,1.9-3.1,3.1c-1.5,1.1-3,1.9-4.7,2.4c-2.8,0.9-5.8,1.3-9,1.3
	c-2.7,0-5.5-0.7-8.3-2.2c-2-1.1-3.5-2.5-4.5-4.4c-1.4-2.6-2.3-5.8-2.4-9.7l-0.7-13.3c0,0,0-0.1,0-0.1l-0.1-13.4c0-0.1,0-0.1,0-0.2
	l0.1-4.9l-0.1-1.9c0-0.7-0.1-1.6-0.1-2.8c0-3.7,0.2-5.9,0.6-6.4c0.6-0.8,1.9-1.2,3.7-1.2c2,0,5,0,5.4-0.3c0.4-0.3,0.4-1.1,0.4-1.1
	l-0.1-2.6c0,0,0-0.4-0.3-0.5c-0.2-0.1-1.7,0-3.8,0c-2,0-4.3,0.1-6.9,0.2c-2.6,0.1-5.2,0.2-7.9,0.2c-0.8,0-3.4-0.1-7.8-0.4
	c-1.9-0.1-3.6-0.2-5.3-0.2c-1,0-1.8,0.8-1.8,1.9l0,0.8C427.6,392.2,428.4,393,429.4,393z"/>
<path d="M156.1,394.1l0.8,0.1c2.2,0.2,3.7,0.5,4.4,0.9c0.7,0.4,1.8,1.1,2.4,2c0.1,0.1,0.2,0.4,0.4,0.9
	c0.5,1.2,0.8,2.6,0.8,3.9v20.9c-0.6,0.3-1.1,0.7-1.7,1.1c-2.3,1.7-3.9,3.6-4.7,5c-0.4,0.7-0.7,1.3-0.9,1.7c-0.1,0.2-0.1,0.4-0.2,0.5
	c0,0.1-0.1,0.2-0.1,0.2c0,0.1,0,0.3,0.1,0.4c0.2,0.3,0.5,0.3,0.8,0.2c0,0,0,0,0.1-0.1c0.1,0,0.2-0.1,0.4-0.2
	c0.3-0.2,0.9-0.4,1.5-0.7c1.1-0.5,2.7-1.1,4.6-1.6v15.4c0,0,0.2,8-4.1,8.9c-0.5,0.1-3.7,0.4-5,0.7c-1.3,0.3-0.8,2.2-0.9,3.1
	c-0.2,1,4.4,0.5,7.4,0.6c4.6,0.3,39.3-1.1,45.2-0.1s11.7-0.5,12.3-6.7c0.3-4,1.7-9.2,1.8-10.6c0-0.8-0.5-1.5-1.2-1.7
	c-0.9-0.3-1.8-0.2-2.4,1c-4.7,11.4-7.3,13.2-36.6,12.2c0,0-2.6-1.5-2.6-9c0-2.4,0-8.1,0-14.8c1,0.1,2,0.2,3,0.4
	c0.8,0.1,1.6,0.2,2.5,0.4c0.9,0.1,1.8,0.2,2.6,0.3c1.7,0.2,3.5,0.2,5.2,0.1c1.7-0.1,3.4-0.3,5.1-0.6c1.6-0.4,3.2-0.9,4.6-1.7
	c1.4-0.8,2.6-1.8,3.3-2.8c0.8-1,1.2-1.9,1.6-2.7c0.3-0.7,0.5-1.3,0.6-1.7c0.1-0.4,0.2-0.6,0.2-0.6c0-0.1,0-0.3-0.1-0.4
	c-0.1-0.3-0.5-0.4-0.8-0.2c0,0-0.2,0.1-0.6,0.3c-0.3,0.2-0.9,0.5-1.5,0.9c-0.6,0.4-1.4,0.8-2.2,1.1c-0.8,0.3-1.7,0.5-2.6,0.6
	c-1,0.1-2.1,0-3.3-0.1c-1.2-0.1-2.6-0.3-4-0.5c-1.5-0.2-3-0.5-4.5-0.7c-0.8-0.1-1.5-0.3-2.3-0.4c-0.8-0.1-1.6-0.3-2.5-0.4
	c-1.4-0.2-2.9-0.3-4.4-0.4c0-7.5,0-14.9,0-19.7h0c0,0,0-0.1,0-0.1c0-0.1,0-0.3,0-0.4c0-0.6,0.2-1.3,0.2-1.6c0-0.5,0.6-1,1-1.4
	c0.7-0.7,1.8-1.3,3.3-1.7c0.1,0,0.2,0,0.4-0.1c4.3,0,9.9,0.1,16.7,1.2c11.4,1.8,9.2,9.8,13.2,9.7c2.3-0.1,3-3.1,0.8-13.1
	c-1.1-5.1-5.2-3.7-12.9-3.6c-6.2,0-20.4,1.1-21.9,1.3c-2.6,0.2-4.4,0.3-5.3,0.3c-6.7,0-12.2-0.2-16.3-0.7c-0.2,0-0.8,0-1.6-0.1
	c-0.9,0-1.6,0.7-1.6,1.6v1.5C154.7,393.4,155.3,394.1,156.1,394.1z"/>
<path d="M222.8,489.9c-0.8-1.6-1.8-2.9-2.8-3.9c-1-1-2-1.6-2.9-2c-0.4-0.2-0.8-0.4-1.1-0.5c-0.3-0.2-0.6-0.3-0.8-0.3
	c-0.5-0.2-0.7-0.2-0.7-0.2l0,0c-0.9-0.4-1.9-0.7-3-0.7c-4,0-7.2,3.2-7.2,7.2c0,4,3.2,7.2,7.2,7.2c3.4,0,6.3-2.4,7-5.6
	c0.2,0.3,0.3,0.6,0.4,0.9c1,2.2,1.1,5.4-0.4,8.7c-0.7,1.6-1.9,3.2-3.3,4.7c-0.7,0.7-1.6,1.4-2.4,2l-0.6,0.4l-0.8,0.5l-0.4,0.2
	l-0.1,0c0.1-0.1,0,0,0,0l-0.1,0.1l-0.2,0.1l-0.8,0.4c-4.2,2.4-9.3,4.2-14.7,5.4c-5.5,1.2-11.4,1.5-17.3,0.8
	c-5.9-0.8-11.8-2.7-17-5.8c-5.2-3.1-9.8-7.4-13.6-12.3c-3.8-5-6.8-10.5-9.2-16.3c-2.4-5.8-4.3-11.8-5.6-17.7
	c-0.2-0.8-0.4-1.5-0.5-2.3c-0.2-0.9-0.5-1.9-0.8-2.8c-0.6-1.9-1.3-3.7-2.2-5.5c-0.9-1.8-1.9-3.5-3.1-5.1c-1.2-1.6-2.5-3.1-3.9-4.4
	c-1.8-1.7-3.7-3.1-5.7-4.3c1.6-0.6,3.1-1.4,4.7-2.2c3.5-1.8,6.9-4.2,10.1-7.2c3.2-3,6.1-6.7,8.4-10.8c1.1-2.1,2.1-4.3,2.9-6.5
	c0.8-2.2,1.4-4.6,1.8-6.9c0.4-2.3,0.7-4.7,0.8-7.1c0-0.6,0-1.2,0.1-1.8l0-1.9l-0.1-1.6c0-0.2,0-0.6-0.1-0.9l-0.1-1
	c-0.2-2.6-0.6-4.9-1.1-7.4c-0.6-2.5-1.3-4.9-2.3-7.3c-1.9-4.8-4.7-9.3-8.1-13.2c-6.7-7.9-15.6-13.5-24.9-16.7
	c-9.3-3.3-19-4.5-28.3-4.1c-9.3,0.3-18.3,2.2-26.6,4.9c-2.1,0.7-4.1,1.4-6.1,2.2c-2,0.8-3.9,1.6-5.9,2.6c-3.9,2-7.4,4.3-10.5,7
	c-6.2,5.4-10.6,12-13.3,18.6c-2.7,6.6-3.7,13.1-3.5,18.9c0.3,5.8,1.7,10.9,4.2,14.6c1.2,1.8,2.7,3.3,4.2,4.3c1.5,1,2.9,1.6,4.1,1.9
	c1.2,0.3,2.1,0.4,2.8,0.5c0.3,0,0.6,0,0.8,0c0.5,0.1,0.9,0.1,1.4,0.1c4.6,0,8.3-3.3,8.3-7.3c0-4.1-3.7-7.3-8.3-7.3
	c-4.4,0-8,3.1-8.3,6.9c-0.4-0.5-0.8-1-1.2-1.6c-1.8-2.8-3.1-7.2-3.1-12.2c0-5.1,1.1-10.9,3.7-16.6c2.6-5.7,6.8-11.3,12.4-15.7
	c2.8-2.2,6-4.1,9.3-5.6c1.7-0.8,3.5-1.4,5.4-2c1.9-0.6,3.8-1.2,5.7-1.7c7.7-2,16-2.8,24.3-2.4c4.1,0.2,8.2,0.8,12.2,1.6
	c4,0.9,7.9,2.1,11.6,3.7c7.3,3.2,13.7,8.1,17.7,14.2c4,6.1,5.5,13.1,5.7,19.9l0,0.6c0,0.2,0,0.4,0,0.7l0,1.6c0,0,0,0.2,0-0.1l0,0.1
	l0,0.2l0,0.3l0,0.7c0,0.4,0,0.9-0.1,1.3c-0.1,1.7-0.3,3.4-0.5,5.1c-0.2,1.6-0.5,3.2-0.9,4.7c-0.4,1.5-0.8,3-1.4,4.3
	c-2.2,5.5-6.1,9.8-10.8,12.8c-4.7,3.1-9.9,4.8-14.7,6.1c-2.4,0.6-4.7,1.1-6.9,1.5c-2.2,0.4-4.2,0.7-6,0.9c-2.1,0.3-4,0.5-5.6,0.6
	c0-17.8,0-36.6,0.1-45.3c0-1.3,0.2-3.9,0.2-4.1c0.2-1.4,1.1-3.8,3.7-5.4l1.4-0.9c0.7-0.4,0.9-1.3,0.6-2l-1.3-2.9
	c-0.4-0.8-1.3-1.1-2.1-0.7c-1.3,0.6-10.8,5.6-19.2,9.5c-1.1,0.5-4.4,2.1-4.8,2.2c-0.1,0-0.2,0.1-0.3,0.1l-0.9,0.4
	c-2.3,0.8-2.5,2.6-1.8,4.1c0.6,1.4,2,2.4,3.6,2.4c4.2,0,5.2,7.5,5.2,10.3l0.1,82c0,1.2-0.2,3.3-0.2,3.4c-0.2,1.4,0.3,3.1-3.7,5.4
	l-1.4,0.9c-0.7,0.4-0.9,1.3-0.6,2l1.3,2.9c0.4,0.8,1.3,1.1,2.1,0.7c1.3-0.6,10.8-5.6,19.2-9.5c1.1-0.5,4.4-2.1,4.8-2.2
	c0.1,0,0.2-0.1,0.3-0.1l0.9-0.4c2.2-0.8,2.5-2.5,1.8-4c-0.6-1.5-2.1-2.5-3.7-2.6c-2.6-0.2-5-2.1-5.4-8.1c0-4.6,0-13.7,0-24.5
	c2.2,0,4.7,0,7.4,0.2c3.8,0.2,8,0.6,12.1,1.8c4.1,1.2,7.9,3,10.8,5.8c1.5,1.4,2.7,3.1,3.8,5.1c0.5,1,1,2.1,1.4,3.2
	c0.2,0.6,0.4,1.2,0.6,1.8c0.2,0.8,0.5,1.6,0.7,2.4c2,6.6,4.4,13.2,7.8,19.7c3.3,6.5,7.5,12.8,12.7,18.3c5.2,5.5,11.4,10.2,18.3,13.3
	c6.8,3.1,14.1,4.7,21,5c7,0.3,13.6-0.6,19.6-2.3c6-1.7,11.4-4.1,16.1-7l0.9-0.6l0.5-0.3l0.4-0.3l0.8-0.6l0.8-0.7
	c1.1-0.9,2-1.8,2.9-2.8c1.8-2,3.1-4.2,4-6.4c0.9-2.3,1.2-4.6,1.2-6.7C224.1,493.5,223.6,491.5,222.8,489.9z"/>
</svg>
