<svg version="1.1" id="Layer_1" xmlns="http://www.w3.org/2000/svg" xmlns:xlink="http://www.w3.org/1999/xlink" x="0px" y="0px"
	 viewBox="0 0 1226.9 316.5" style="enable-background:new 0 0 1226.9 316.5;" xml:space="preserve">
<g>
	<g>
		<path d="M322.2,83.2l1.2,0.1c3.5,0.3,5.7,0.8,6.9,1.4c1.2,0.6,2.3,1.7,3.2,3.1c0.2,0.3,0.4,0.9,1.1,2.7c1.1,2.8,3.2,8.1,6.1,14.5
			l8.6,21.4l14.3,33.2c3.7,9.7,5.9,15.4,6.5,17.1c0.4,1.1,0.8,2.2,1.1,3.3c0.2,0.6,0.8,1,1.4,1c0.9,0,1.7,0.1,2.3,0.1
			c0.4,0,1.3,0,2.6-0.1c0.3,0,0.6-0.2,0.7-0.5c0.3-0.9,1.3-3.6,2.6-7.2c3.4-9.4,9-25.1,9.8-27.1c1.1-2.8,2.1-5.4,3-7.9l9.7-25.9
			c1-2.6,1.8-5,2.7-7.3c2.6-7.2,4.7-12.8,6.1-15.6c0.7-1.3,1.5-2.2,2.3-2.8c1.1-0.9,4.4-2.4,10.1-4.6c0.6-0.2,1-0.8,1-1.4
			c0-0.5,0-0.9,0-1.2c0-0.4-0.2-0.8-0.5-1.1s-0.7-0.4-1.2-0.4c-1.3,0.1-2.9,0.3-4.7,0.5c-3,0.4-6.6,0.6-10.9,0.6
			c-4.1,0-8.4-0.2-12.6-0.6c-2.3-0.2-4.2-0.4-5.5-0.5c-0.8,0-1.6,0.6-1.7,1.4c0,0.5-0.1,0.9-0.1,1.2c0,0.2,0,0.3,0.1,0.5
			c0.1,0.7,0.6,1.2,1.3,1.3c0.5,0.1,1,0.1,1.5,0.2c1.2,0.1,2.2,0.3,2.9,0.5c3.4,0.3,5.9,1.1,7.5,2.3c1.2,0.9,1.8,2,1.8,3.2
			c0,1.7-0.5,5.3-1.4,7.7s-2,5.9-3.3,10.5c-0.4,1.4-0.7,2.5-1,3.3l-0.1,0.2l-2.1,5.4l-9,25.8l-2.2,5.6c-0.5,1.2-1.6,2-2.9,2
			s-2.5-0.7-3-2c-0.7-1.8-1.5-3.7-2.3-5.6l-8.6-20.2c-4.1-9.1-7-16.4-8.8-21.8l-2.4-6.5c-0.1-0.3-0.2-0.5-0.2-0.8
			c-0.1-0.9-0.1-2.5-0.1-3c0-1,0.4-1.9,1.1-2.6c1.2-1.2,2.9-2.1,5.3-2.7c0.8-0.2,3-0.5,6.9-1.1c0.8-0.1,1.4-0.8,1.3-1.6l-0.1-2
			c0-0.8-0.7-1.5-1.6-1.5h-3.1c-0.1,0-0.1,0-0.2,0c-1.7,0.3-4.2,0.5-7.4,0.8c-4.7,0.3-7.8,0.5-9.3,0.5c-10.1,0-18.3-0.4-24.6-1.1
			c-0.3,0-1.1-0.1-2.3-0.1l0,0c-0.4,0-0.8,0.2-1.1,0.4c-0.3,0.3-0.5,0.7-0.5,1.1v2.2C320.9,82.5,321.5,83.1,322.2,83.2z"/>
		<path d="M919,205.7c1.2-0.7,2.5-1.4,3.8-1.9c1-0.4,0.7-1.8-0.4-1.8H314.7c-1.1,0-1.4,1.4-0.5,1.9c1.2,0.6,2.3,1.4,3.4,2.2h599.8
			C918,206.2,918.5,206,919,205.7z"/>
		<path d="M913.5,210.2c0.1-0.1,0.1-0.3,0.1-0.4c-0.1-0.1-0.2-0.2-0.6-0.2c-19.8,0-575.8,0.1-589.2,0c-0.3,0-0.3,0.1-0.3,0.1
			c-0.2,0.6,0.7,0.9,1.2,1.4c0.3,0.3,0.8,0.5,1.2,0.5h585.2c0.4,0,0.8-0.2,1.1-0.4C912.8,210.8,912.9,210.7,913.5,210.2z"/>
		<path d="M973.7,299.6c-1.5-0.5-3-1.2-4.5-1.9c-0.5-0.3-1.2-0.4-1.8-0.4H267.3c-1.3,0.8-2.6,1.6-4,2.2c-1.1,0.5-0.7,1.9,0.6,1.9
			h709.4C974.5,301.4,974.8,300,973.7,299.6z"/>
		<path d="M285,292.2c-0.6,0.5-1.6,0.8-1.3,1.4c0,0,0.1,0.1,0.4,0.1c15.2-0.1,646.3,0,668.8,0c0.4,0,0.6-0.1,0.6-0.2s0-0.3-0.1-0.4
			c-0.6-0.4-0.8-0.6-1.4-1.1c-0.4-0.3-0.8-0.4-1.3-0.4H286.4C285.8,291.7,285.3,291.9,285,292.2z"/>
		<path d="M858,183c1.6,0,2.6-0.1,3-0.1c6.2-0.7,14.4-1.1,24.5-1.1c1.4,0,4,0.1,7.9,0.4c2.3,0.2,4.7,0.4,7.2,0.6
			c0.5,0.1,1,0.1,1.5,0.2c0.1,0,0.2,0,0.3,0h1c4.7,0.4,4.2-5.1,2.3-6.9c-1.3-0.7-3.8-0.7-6.2-0.8c-0.2,0-0.4-0.1-0.6-0.1
			c-2.2-0.6-3.9-1.5-4.9-2.5c-0.6-0.6-1.5-1.3-1.5-2c0-0.4-0.2-1.5-0.2-2.4c0-0.2,0-0.4,0-0.6c0-0.1,0-0.2,0-0.2c0-16.9,0-58,0-66.8
			c0-5.8,1-9.2,2-11.2c0.7-1.4,2.2-2.4,3.8-2.5c2.1-0.2,3.8-0.3,5.1-0.3c1.9-0.1,3.4-1.7,3.4-3.6c-0.2-4-6.2-3.9-6.2-3.9
			s-42.5-1-43.4,0.3c-0.8,1.3-1.2,4.3,0.8,4.8s6.7,0.9,7.5,1.1c6.3,1.4,6.1,13.4,6.1,13.4v65.8c0,1.9-0.4,3.8-1.1,5.6
			c-0.3,0.8-0.5,1.3-0.6,1.4c-0.9,1.3-2.6,2.4-3.6,2.9c-1.1,0.6-3.3,1-6.6,1.3l-1.8,0.2c-0.9,0.1-1.5,0.8-1.5,1.7v3.5
			C856.2,182.2,857,183,858,183z"/>
		<path d="M746.9,107.8c1.4,0.4,2.8,0.3,3.5-1.6c4.8-11.5,8.2-16.4,23.2-18h8.8c1.5,0,2.7,1.2,2.7,2.7l0.2,73.2
			c0,1.9-0.4,3.8-1.1,5.6c-0.3,0.8-0.5,1.3-0.6,1.4c-0.9,1.3-2.6,2.4-3.6,2.9c-1.1,0.6-3.3,1-6.6,1.3l-1.8,0.2
			c-0.9,0.1-1.5,0.8-1.5,1.7v3.5c0,1,0.8,1.7,1.8,1.7c1.6,0,2.6-0.1,3-0.1c6.2-0.7,14.4-1.1,24.5-1.1c1.4,0,4,0.1,7.9,0.4
			c2.3,0.2,4.7,0.4,7.2,0.6c0.5,0.1,1,0.1,1.5,0.2c0.1,0,0.2,0,0.3,0h1c4.7,0.4,4.2-5.1,2.3-6.9c-1.3-0.7-3.8-0.7-6.2-0.8
			c-0.2,0-0.4-0.1-0.6-0.1c-2.2-0.6-3.9-1.5-4.9-2.5c-0.6-0.6-1.5-1.3-1.5-2c0-0.4-0.2-1.5-0.2-2.4c0-0.2,0-0.4,0-0.6
			c0-0.1,0-0.1,0-0.2l0,0c0-14.6-0.2-59.1-0.3-76.1c0-1.5,1.2-2.7,2.7-2.7h1.7c0,0,7.8,0.8,12.3,1.5c17.1,2.7,13.8,14.7,19.8,14.5
			c3.4-0.1,4.5-4.7,1.2-19.6c-0.8-3.4-2.6-8.3-5.2-8.9c-3.2-0.7-7.6,5-28,4.6h-32.7c0,0-6,0.8-11.6-1.1c-4.9-1.6-9.7-7.1-13.2-4.9
			c-2.7,1.6-4.8,10.9-5.1,14.9c-0.5,5.9-2.6,13.8-2.7,15.9C745.1,106.4,745.8,107.5,746.9,107.8z"/>
		<path d="M533.9,85.6l1.2,0.1c3.3,0.3,5.5,0.8,6.6,1.3c1.1,0.6,2.8,1.6,3.6,2.9c0.1,0.2,0.3,0.6,0.6,1.3c0.7,1.9,1.1,3.9,1.1,5.9
			v64.1c0,0,0.2,12-6.1,13.4c-0.8,0.2-5.5,0.6-7.5,1.1s-1.1,3.4-1.4,4.7c-0.3,1.5,6.7,0.7,11.1,1c6.9,0.5,58.9-1.6,67.8-0.1
			s17.6-0.7,18.4-10c0.5-5.9,2.6-13.8,2.7-15.9c0-1.2-0.7-2.2-1.8-2.5c-1.4-0.4-2.8-0.3-3.5,1.6c-7.1,17-11,19.7-54.8,18.3
			c0,0-3.9-2.2-3.9-13.5c0-8.8,0-48.3,0-65.2l0,0c0-0.1,0-0.1,0-0.2c0-0.2,0-0.4,0-0.6c0-0.9,0.2-2,0.2-2.4c0-0.8,0.9-1.5,1.5-2
			c1.1-1,2.7-1.9,4.9-2.5c0.1,0,0.3-0.1,0.6-0.1c6.4-0.1,10.8-8.2,3.8-7.6h-1c-0.1,0-0.2,0-0.3,0c-0.4,0.1-0.9,0.1-1.5,0.2
			c-2.5,0.2-4.9,0.4-7.2,0.6c-3.9,0.3-26.1,0-32.3-0.7c-0.4,0-1.1-0.1-2.3-0.1c-1.3,0-2.4,1-2.4,2.4v2.2
			C531.8,84.4,532.7,85.4,533.9,85.6z"/>
		<path d="M423.1,123.2l-0.1,0.5v0.4l-0.1,0.8l-0.1,1.7l-0.1,1.7v0.4v0.6v0.2v1c0.1,2.6,0.2,5.2,0.7,7.8c0.3,2.6,1.1,5.1,1.8,7.6
			c1.6,4.9,3.8,9.7,6.7,13.9c0.7,1.1,1.4,2.1,2.3,3.1c0.8,1,1.6,2,2.4,2.9c1.8,1.8,3.4,3.7,5.4,5.2c1.8,1.7,3.9,3,5.8,4.4
			c2.1,1.2,4.1,2.5,6.2,3.5c2.1,1.1,4.3,1.8,6.4,2.6c2.2,0.5,4.3,1.3,6.7,1.5c2.4,0.5,4.2,0.4,6.3,0.5h0.1c0,0,0.4,0,0.3,0h0.2h0.4
			h0.8l1.6-0.1c0.5,0,1.1,0,1.6-0.1l1.6-0.3c4.2-0.5,8.1-1.9,11.9-3.4c1.8-0.9,3.7-1.7,5.3-2.7c0.8-0.5,1.7-1,2.5-1.5
			c0.8-0.6,1.6-1.1,2.3-1.7c6.2-4.5,11-9.9,14.3-15.3c0.9-1.3,1.6-2.7,2.3-4s1.4-2.6,1.8-3.9c0.5-1.3,1-2.5,1.4-3.7s0.7-2.4,1-3.5
			c0.7-2.1,1-4.4,1.2-6.2c0.1-0.9,0.3-1.9,0.4-2.5c0-0.6,0.1-1.2,0.1-1.8c0.1-2.1,0.2-3.2,0.2-3.2v-0.4c0,0-0.1-1.3-0.2-3.7
			c0-0.6-0.1-1.3-0.1-2c-0.1-0.7-0.2-1.6-0.4-2.4c-0.3-1.8-0.6-3.8-1.3-6c-1.1-4.4-3.3-9.7-6.8-15.1c-1.6-2.4-5.5-7.2-9.7-8.9
			c-5.9-2.3-12.6-1.5-15.9,0.5c0,0-6.5,3.9-6.4,10.1c0,5.8,4.7,10.6,10.6,10.6c2.7,0,6.2-3.7,6.2-6.1c0.1,0.3,1,4,1,4.3
			c0.2,1.1,0.5,2,0.6,3.1c0.2,1,0.3,1.9,0.5,2.8c0.1,0.9,0.2,1.8,0.3,2.6c0.2,1.6,0.3,3.1,0.4,4.4c0.1,1.3,0.1,2.3,0.1,3.2
			c0,1.6,0.1,2.5,0.1,2.6c0,0.5,0,1.4-0.1,2.9c0,0.5,0,1.1,0,1.8c0,0.6-0.1,1-0.1,1.7c-0.1,1.2-0.1,2.4-0.3,4.1
			c-0.1,0.8-0.2,1.7-0.3,2.6c-0.1,0.9-0.3,1.9-0.5,2.8c-0.1,1-0.3,2-0.6,3.1c-0.2,1.1-0.4,2.2-0.8,3.3c-1.2,4.6-3.1,9.7-6.6,14.6
			c-0.5,0.6-0.9,1.2-1.4,1.8s-1,1.1-1.6,1.7c-1,1.2-2.3,2.1-3.6,3.1c-2.7,1.8-5.7,3.4-9.2,4.1l-1.3,0.3c-0.4,0.1-0.9,0.1-1.3,0.1
			c-0.8,0.1-1.6,0.1-2.5,0.2c-1.9-0.2-4.1-0.2-5.7-0.7c-1.7-0.3-3.4-1.1-5.1-1.8c-1.6-0.9-3.3-1.8-4.7-3c-1.5-1.1-2.8-2.6-4.1-3.9
			c-1.2-1.6-2.4-3-3.3-4.7c-1-1.6-1.8-3.4-2.6-5.1l-1-2.7c-0.4-0.9-0.6-1.8-0.8-2.7c-2.1-7.3-2.8-14.9-2.9-22.4v-0.7v-0.1v-0.3
			l0.1-1.7v-1.7v-0.8v-0.4v-0.3c0.2-1.7,0.1-3.3,0.4-5.2c0.3-3.7,1.1-7.4,1.9-11c0.9-3.7,2.3-7.2,4.2-10.5c1.8-3.3,4.3-6.3,7.2-8.7
			c0.8-0.6,1.5-1.1,2.3-1.7c0.8-0.5,1.6-0.9,2.4-1.4s1.7-0.8,2.5-1.1c0.9-0.3,1.7-0.7,2.6-0.8c0.9-0.2,1.8-0.4,2.7-0.6
			c0.9-0.1,1.8-0.1,2.7-0.2h0.7h0.3l0,0h0.1l1.5,0.1c0.9,0.1,2,0.1,2.8,0.3c1.4,0.3,6.7-4.6,3.8-5.9c-1.1-0.1-2.2-0.3-3.2-0.4
			c-1.1-0.2-2-0.1-3-0.2l-1.5-0.1h-0.2h-0.3h-0.1h-0.4H472c-1.1,0.1-2.2,0.1-3.2,0.2c-1.1,0.2-2.2,0.3-3.3,0.5
			c-4.3,0.8-8.8,2-13,4.1s-8.4,4.6-12.1,7.9c-1,0.8-1.8,1.7-2.7,2.6l-1.3,1.3c-0.4,0.5-0.8,1-1.2,1.4c-0.8,1-1.7,1.9-2.4,3
			c-0.7,1-1.5,2.1-2.2,3.2c-2.7,4.4-5,9.2-6.2,14.2C423.9,117.5,423.6,120.4,423.1,123.2z"/>
		<path d="M629.7,84.4c0.2,0,0.4,0,0.6,0c5.8,0.2,9.3,1.1,10.4,2.8c0.8,1.2,1.2,6.3,1.2,15.3v38.1c0,7.4,0.4,13,1.1,17
			c1.1,5.8,3,10.4,5.9,14s7.1,6.5,12.7,8.7s12.3,3.3,20.1,3.3c6.9,0,12.9-0.8,18-2.4c5.1-1.6,9.4-3.7,12.9-6.4
			c3.4-2.7,6.1-5.6,8-8.8c1.2-2.1,2.2-5,2.9-8.7s1.1-11,1.1-21.8l-0.2-16.2c-0.1-3.9,0.4-29.5,0.4-30.5c0-1.3,0.4-2.3,1.1-3
			c0.3-0.3,1.6-0.7,4.9-1.2c0.1,0,0.1,0,0.2,0c1.4-0.1,2.7-0.2,4-0.5c1.2-0.3,2.1-1.3,2.1-2.5v-0.1c0-0.7-0.1-3.2-0.4-3.5
			c-0.3-0.4-1.4-0.4-1.4-0.4c-4.4,0.5-9.8,0.7-14.6,0.7l-14.5-0.7h-3.3c-1.5,0-2.7,1.2-2.7,2.7c0,0-0.3,2.3,0.2,3
			c0.3,0.6,0.5,0.7,1,0.8s6.8-0.2,6.8-0.2c2,0,3.8,0.8,5.5,2.5c1,1.1,1.5,3.2,1.7,6.3l0.3,4.2c1.3,16.2,1.4,30.7,1.4,43.6
			c0,7.4-0.5,12.9-1.4,16.4c-0.7,2.6-2,5.3-3.8,8.2c-0.9,1.4-2.4,2.9-4.6,4.6c-2.2,1.7-4.5,2.9-7,3.6c-4.2,1.3-8.7,2-13.6,2
			c-4.1,0-8.3-1.1-12.5-3.4c-2.9-1.6-5.2-3.8-6.8-6.6c-2.2-3.8-3.4-8.7-3.6-14.5l-1-20c0-0.1,0-0.1,0-0.2l-0.1-20c0-0.1,0-0.2,0-0.2
			l0.1-7.4l-0.1-2.9c-0.1-1.1-0.1-2.5-0.1-4.2c0-5.6,0.3-8.8,0.9-9.5c0.9-1.2,2.8-1.8,5.6-1.8c3,0,7.5,0,8.1-0.4s0.7-1.7,0.7-1.7
			l-0.1-3.8c0,0,0-0.6-0.4-0.8s-2.6-0.1-5.6,0c-3,0-6.4,0.2-10.3,0.3c-3.9,0.2-7.8,0.3-11.9,0.3c-1.2,0-5.1-0.2-11.8-0.6
			c-2.8-0.2-5.4-0.2-8-0.2c-1.5,0-2.8,1.3-2.7,2.8v1.2C627,83.2,628.2,84.4,629.7,84.4z"/>
		<path d="M220.1,86.1l1.2,0.1c3.3,0.3,5.5,0.8,6.6,1.3c1.1,0.6,2.8,1.6,3.6,2.9c0.1,0.2,0.3,0.6,0.6,1.3c0.7,1.9,1.1,3.9,1.1,5.9
			V129c-0.9,0.5-1.7,1-2.5,1.6c-3.5,2.5-5.8,5.4-7,7.5c-0.6,1-1,2-1.3,2.6c-0.1,0.3-0.2,0.6-0.3,0.7c-0.1,0.2-0.1,0.3-0.1,0.3
			c-0.1,0.2,0,0.5,0.1,0.7c0.3,0.4,0.8,0.5,1.2,0.2c0,0,0.1,0,0.2-0.1s0.3-0.2,0.6-0.3c0.5-0.3,1.3-0.7,2.3-1.1
			c1.7-0.8,4.1-1.6,6.8-2.3v23.1c0,0,0.2,12-6.1,13.4c-0.8,0.2-5.5,0.6-7.5,1.1s-1.1,3.4-1.4,4.7c-0.3,1.5,6.7,0.7,11.1,1
			c6.9,0.5,58.9-1.6,67.8-0.1s17.6-0.7,18.4-10c0.5-5.9,2.6-13.8,2.7-15.9c0-1.2-0.7-2.2-1.8-2.5c-1.4-0.4-2.8-0.3-3.5,1.6
			c-7.1,17-11,19.7-54.8,18.3c0,0-3.9-2.2-3.9-13.5c0-3.5,0-12.1,0-22.2c1.5,0.2,3,0.3,4.5,0.6c1.2,0.2,2.4,0.4,3.7,0.5
			c1.3,0.2,2.6,0.3,3.9,0.4c2.6,0.2,5.2,0.3,7.8,0.2c2.6-0.1,5.1-0.4,7.6-0.9c2.5-0.6,4.8-1.4,6.9-2.5s3.8-2.7,5-4.1
			c1.2-1.5,1.9-2.9,2.3-4c0.5-1.1,0.7-2,0.9-2.6c0.2-0.6,0.3-0.9,0.3-0.9c0-0.2,0-0.4-0.1-0.6c-0.2-0.4-0.7-0.6-1.1-0.3
			c0,0-0.3,0.2-0.8,0.5s-1.3,0.8-2.2,1.4c-0.9,0.6-2,1.2-3.2,1.6c-1.2,0.5-2.5,0.7-4,0.8c-1.4,0.1-3.1,0.1-5-0.1
			c-1.8-0.1-3.9-0.4-6-0.7c-2.2-0.4-4.4-0.7-6.7-1.1c-1.2-0.2-2.3-0.4-3.5-0.6c-1.2-0.2-2.4-0.5-3.7-0.6c-2.2-0.3-4.4-0.5-6.6-0.5
			c0-11.2,0-22.3,0-29.5l0,0c0-0.1,0-0.1,0-0.2c0-0.2,0-0.4,0-0.6c0-0.9,0.2-2,0.2-2.4c0-0.8,0.9-1.5,1.5-2c1.1-1,2.7-1.9,4.9-2.5
			c0.1,0,0.3-0.1,0.6-0.1c6.4-0.1,14.9,0.2,25,1.8c17.1,2.7,13.8,14.7,19.8,14.5c3.4-0.1,4.5-4.7,1.2-19.6
			c-1.7-7.7-7.9-5.5-19.4-5.4c-9.3,0.1-30.5,1.7-32.8,1.9c-3.9,0.3-6.5,0.4-7.9,0.4c-10.1,0-18.2-0.4-24.5-1.1
			c-0.4,0-1.1-0.1-2.3-0.1c-1.3,0-2.4,1-2.4,2.4V84C218.1,85,219,86,220.1,86.1z"/>
		<path d="M1217.3,196.5c-1.5-2.9-3.7-5.3-6.1-7.1c-2.5-1.8-5.2-3.1-8-4.1c-5.6-1.9-11.6-2.3-17.3-1.7c-0.7,0.1-1.4,0.2-2.2,0.3
			l-2,0.4l-2.2,0.5l-2.1,0.5c-2.7,0.7-5.4,1.6-8,2.6c-6.7,2.5-13.1,5.3-19.3,8.3c-6.1-5.3-11.8-11-17.1-16.9
			c-5.5-6-10.7-12.3-15.8-18.5l0.1-4.4c0-0.8,0-2.1,0-3.9l-0.4-26.6c0-1.7-0.1-3.3-0.1-4.6c-0.3-4.2-0.4-10-0.3-17.3
			c0.1-3.3,0.1-5.5,0-6.4c-0.1-1.8-0.1-2.9-0.1-3.2c0-1,0.2-1.8,0.5-2.4c0.2-0.4,0.5-0.6,0.8-0.9c0.7-0.4,1.9-1.2,3.6-2.1
			c0.5-0.3,2.4-0.8,5.6-1.5c0.6-0.1,1.1-0.3,1.6-0.5c1.2-0.4,1.9-1.5,1.9-2.8l0,0c0-1.6-1.4-3-3-2.9h-0.2l-16.7,0.2l-14.8,0.2
			c-0.1,0.1-1.3,0.3-1.7,1c-1.9,3.2,1.5,4.5,1.5,4.5c1.1,0.4,2.5,0.7,4.1,1c3.8,0.6,6.2,1.5,7.2,2.6c0.6,0.7,1,2.7,1,6
			c0,1,0.2,4.8,0.7,11.4c0.2,3.4,0.4,7.2,0.3,11.3c0,2.6,0,4.9,0.1,7c0,3.5,0.2,19.1,0.1,24.3c-4.3-5.3-8.5-10.6-12.7-15.7
			c-5.8-7.3-11.4-14.3-16.9-21.2c-4.9-6.6-9.3-14.2-14.5-20.9c-2.6-3.4-5.5-6.5-8.5-9.5c-3-2.9-6.4-5.6-10-7.7
			c-7.3-4.3-15.4-6.7-22.7-7.9c-0.9-0.1-1.8-0.3-2.8-0.4l-1.4-0.1c-0.4,0-0.8,0-1.2-0.1l-1.2-0.1h-0.1c-0.3,0-0.2,0-0.3,0h-0.3h-0.6
			c-0.8,0-1.6,0-2.4,0c-1.6,0-3.2,0.1-4.7,0.2c-1.6,0.2-3.1,0.2-4.6,0.5c-6,0.8-11.4,2.5-15.8,5.2c-4.4,2.7-7.4,6.4-9.4,9.9
			c-1.9,3.5-2.6,6.9-3.3,9.5c-0.9,3.6-0.6,6.9-0.5,8.7c0,0.1,0,0.2,0,0.3c0,0.2,0,0.4,0,0.7v0.1l0,0c0.4,5.5,5,9.8,10.5,9.8
			c2.7,0,6.2-3.7,6.2-6.1c0.1,0.3,1,4,1,4.3c0.2,1.1,0.5,2,0.6,3.1c0.2,1,0.3,1.9,0.5,2.8c0.1,0.9,0.2,1.8,0.3,2.6
			c0.2,1.6,0.3,3.1,0.4,4.4c0.1,1.3,0.1,2.3,0.1,3.2c0,1.6,0.1,2.5,0.1,2.6c0,0.5,0,1.4-0.1,2.9c0,0.5,0,1.1,0,1.8
			c0,0.6-0.1,1-0.1,1.7c-0.1,1.2-0.1,2.4-0.3,4.1c-0.1,0.8-0.2,1.7-0.3,2.6c-0.1,0.9-0.3,1.9-0.5,2.8c-0.1,1-0.3,2-0.6,3.1
			c-0.2,1.1-0.4,2.2-0.8,3.3c-1.2,4.6-3.1,9.7-6.6,14.6c-0.5,0.6-0.9,1.2-1.4,1.8s-1,1.1-1.6,1.7c-1,1.2-2.3,2.1-3.6,3.1
			c-2.7,1.8-5.7,3.4-9.2,4.1l-1.3,0.3c-0.4,0.1-0.9,0.1-1.3,0.1c-0.8,0.1-1.6,0.1-2.5,0.2c-1.9-0.2-4.1-0.2-5.7-0.7
			c-1.7-0.3-3.4-1.1-5.1-1.8c-1.6-0.9-3.3-1.8-4.7-3c-1.5-1.1-2.8-2.6-4.1-3.9c-1.2-1.6-2.4-3-3.3-4.7c-1-1.6-1.8-3.4-2.6-5.1
			l-1-2.7c-0.4-0.9-0.6-1.8-0.8-2.7c-2.1-7.3-2.8-14.9-2.9-22.4v-0.7v-0.1v-0.3l0.1-1.7v-1.7v-0.8v-0.4v-0.3
			c0.2-1.7,0.1-3.3,0.4-5.2c0.3-3.7,1.1-7.4,1.9-11c0.9-3.7,2.3-7.2,4.2-10.5c1.8-3.3,4.3-6.3,7.2-8.7c0.8-0.6,1.5-1.1,2.3-1.7
			c0.8-0.5,1.6-0.9,2.4-1.4c0.8-0.5,1.7-0.8,2.5-1.1c0.9-0.3,1.7-0.7,2.6-0.8c0.9-0.2,1.8-0.4,2.7-0.6c0.9-0.1,1.8-0.1,2.7-0.2h0.7
			h0.3l0,0h0.1l1.5,0.1c0.9,0.1,2,0.1,2.8,0.3c1.4,0.3,6.7-4.6,3.8-5.9c-1.1-0.1-2.2-0.3-3.2-0.4c-1.1-0.2-2-0.1-3-0.2l-1.5-0.1
			h-0.2h-0.3h-0.1h-0.4h-0.8c-1.1,0.1-2.2,0.1-3.2,0.2c-1.1,0.2-2.2,0.3-3.3,0.5c-4.3,0.8-8.8,2-13,4.1s-8.4,4.6-12.1,7.9
			c-1,0.8-1.8,1.7-2.7,2.6l-1.3,1.3c-0.4,0.5-0.8,1-1.2,1.4c-0.8,1-1.7,1.9-2.4,3c-0.7,1-1.5,2.1-2.2,3.2c-2.7,4.4-5,9.2-6.2,14.2
			c-0.8,2.4-1.1,5.3-1.6,8.1l-0.1,0.5v0.4l-0.1,0.8l-0.1,1.7l-0.1,1.7v0.4v0.6v0.2v1c0.1,2.6,0.2,5.2,0.7,7.8
			c0.3,2.6,1.1,5.1,1.8,7.6c1.6,4.9,3.8,9.7,6.7,13.9c0.7,1.1,1.4,2.1,2.3,3.1c0.8,1,1.6,2,2.4,2.9c1.8,1.8,3.4,3.7,5.4,5.2
			c1.8,1.7,3.9,3,5.8,4.4c2.1,1.2,4.1,2.5,6.2,3.5c2.1,1.1,4.3,1.8,6.4,2.6c2.2,0.5,4.3,1.3,6.7,1.5c2.4,0.5,4.2,0.4,6.3,0.5h0.1
			c0,0,0.4,0,0.3,0h0.2h0.4h0.8l1.6-0.1c0.5,0,1.1,0,1.6-0.1l1.6-0.3c4.2-0.5,8.1-1.9,11.9-3.4c1.8-0.9,3.7-1.7,5.3-2.7
			c0.8-0.5,1.7-1,2.5-1.5c0.8-0.6,1.6-1.1,2.3-1.7c6.2-4.5,11-9.9,14.3-15.3c0.9-1.3,1.6-2.7,2.3-4c0.7-1.3,1.4-2.6,1.8-3.9
			c0.5-1.3,1-2.5,1.4-3.7s0.7-2.4,1-3.5c0.7-2.1,1-4.4,1.2-6.2c0.1-0.9,0.3-1.9,0.4-2.5c0-0.6,0.1-1.2,0.1-1.8
			c0.1-2.1,0.2-3.2,0.2-3.2v-0.4c0,0-0.1-1.3-0.2-3.7c0-0.6-0.1-1.3-0.1-2c-0.1-0.7-0.2-1.6-0.4-2.4c-0.3-1.8-0.6-3.8-1.3-6
			c-1.1-4.4-3.3-9.7-6.8-15.1c-1.6-2.4-5.5-7.2-9.7-8.9c-5.9-2.3-12.6-1.5-15.9,0.5c0,0-0.3,0.2-0.8,0.6c0-0.3,0.1-0.4,0-0.4
			c0.3-2,0.8-4.2,2-6.6c1.5-3,4-6.2,7.8-8.3c3.8-2.2,8.7-3.4,14.1-3.6c1.3-0.1,2.8,0,4.2,0c1.4,0.1,2.9,0.2,4.3,0.4
			c0.7,0.1,1.5,0.2,2.2,0.3l0.6,0.1h0.3c0,0,0.2,0,0,0h0.1l1.2,0.3c0.4,0.1,0.8,0.2,1.2,0.3l1,0.4l0.9,0.4l1,0.5
			c2.6,1.3,5.1,3.3,7.2,5.7c1.5,1.6,2.9,3.4,4.2,5.3l0.4,38.6l-0.2,24.6v4.2c0,1.8-0.2,6.7-0.5,14.7c-0.1,2.8-0.5,4.5-1.3,5.1
			c-0.7,0.6-3.1,0.9-6.9,0.9c-0.4,0-0.8,0-1.2,0c-1.3-0.1-2.1-0.1-2.4-0.1s-0.7,0-1.1,0c-1.4,0.1-2.5,1.3-2.5,2.7c0,0.1,0,0.3,0,0.4
			c0,0.3,0,0.5,0,0.8c0,1.4,1.2,2.5,2.6,2.5l0,0c0.3,0,1.7-0.1,4.4-0.3c2.7-0.2,8-0.4,15.9-0.5c0.1,0,0.2,0,0.3,0
			c8.5,0.7,13.5,1.1,15.1,1.1h0.2c1.5,0,2.7-1.3,2.6-2.8l-0.1-1.6c-0.1-1.1-0.8-2-1.8-2.2l0,0c-0.1,0-0.3,0-0.4-0.1
			c-5.2-0.3-9-0.7-11.3-1.2c-0.9-0.2-1.6-0.8-1.9-1.6c-0.2-0.4-0.3-0.8-0.4-1.1c-0.2-0.5-0.3-1.5-0.4-2.8c-0.4-4.8-0.7-9.3-0.8-13.5
			l-0.5-9.8c0-0.1,0-0.1,0-0.2l0.1-5.3c0-1.8,0-3.6-0.1-5.3l-0.6-37c2.3,3.1,4.7,6.2,7.2,9.6c5,6.4,10.1,13.1,15.5,20
			c0.7,0.9,1.5,1.9,2.3,2.9c0.7,0.8,1.4,1.7,2.1,2.5c1.3,1.6,2.6,3.3,3.9,5.1c2.7,3.7,5.5,7.4,8.2,11.1c5.6,7.6,11.7,15.3,18.6,22.6
			s14.4,14.5,22.5,21.2c4.7,3.9,9.7,7.7,14.9,11.2c-17.7,9.1-34.8,18.5-51.3,27.3c-17.8,9.5-35.1,18.2-51.8,25.5
			c-16.7,7.3-33.1,12.9-48.7,14.6c-7.7,0.9-15.4,0.8-22.5,0.3c-7.2-0.5-13.9-1.6-19.8-3.4c-6-1.8-11.2-4.4-15-7.8
			c-3.9-3.3-6.3-7.4-7.2-11.3c-0.9-4-0.4-7.7,0.6-10.7c0.8-2.3,1.9-4.2,3-5.8c1.4,4.3,5.4,7.4,10.1,7.4c5.8,0,10.6-4.7,10.6-10.6
			c0-5.8-4.7-10.6-10.6-10.6c-2.6,0-4.9,0.9-6.8,2.4c-0.2,0.1-0.3,0.1-0.4,0.2l0,0c0,0-0.2,0.1-0.5,0.3c-0.3,0.2-0.8,0.5-1.4,1
			c-1.2,0.9-2.9,2.3-4.8,4.5c-1.8,2.2-3.8,5.1-5.2,9.1c-1.4,3.9-2.1,8.9-1,14.2c1.1,5.4,4.2,10.8,8.9,15.1
			c4.7,4.3,10.7,7.4,17.3,9.7c6.6,2.3,13.8,3.7,21.4,4.5c3.8,0.4,7.7,0.7,11.7,0.8c4,0.1,8.2,0.1,12.4-0.2
			c16.8-1.1,34.7-5.3,52.6-11.9c17.9-6.5,35.7-15.8,53.4-26.1c17.7-10.3,35.2-22,53.3-33.1c0.1-0.1,0.2-0.1,0.3-0.2
			c1.1,0.6,2.2,1.2,3.3,1.8c4.9,2.6,10,4.9,15.3,6.8c5.3,1.8,10.9,3.2,16.7,3.7c2.9,0.2,5.8,0.2,8.6,0c1.3,0,2.8-0.1,4.2-0.2
			c1.4-0.1,2.8-0.2,4.2-0.4c2.8-0.4,5.6-0.9,8.4-1.9c2.8-0.9,5.6-2.2,8.1-4.1s4.7-4.6,5.7-8C1219.3,203,1218.7,199.4,1217.3,196.5z
			 M1212.8,204.9c-0.5,1.9-1.9,3.5-3.7,4.9c-3.7,2.7-8.7,4-13.7,4.6c-1.3,0.2-2.5,0.3-3.8,0.3c-1.3,0.1-2.5,0.1-3.9,0.1
			c-2.5-0.1-5-0.6-7.4-1.2c-8.7-2.2-16.7-6.8-23.8-12.2c0.3-0.2,0.6-0.4,1-0.5c4.7-2.5,9.4-4.9,14.2-6.9c2.4-1,4.9-1.9,7.3-2.7
			l1.8-0.5l1.8-0.5l2-0.4c0.5-0.1,1.2-0.2,1.8-0.3c5-0.7,10.1-0.5,14.8,1c4.6,1.5,8.9,4.5,10.8,8.4
			C1213.1,200.9,1213.3,203,1212.8,204.9z"/>
		<path d="M744.3,229.5c1.5,0,3.7,0,4-0.2s0.3-0.8,0.3-0.8l-0.1-1.9c0,0,0-0.3-0.2-0.4s-1.3,0-2.8,0s-3.2,0.1-5.1,0.2
			c-1.9,0.1-3.9,0.1-5.9,0.1c-0.6,0-2.5-0.1-5.8-0.3c-1.4-0.1-2.7-0.1-3.9-0.1c-0.8,0-1.4,0.6-1.3,1.4v0.6c0,0.7,0.6,1.3,1.3,1.3
			c0.1,0,0.2,0,0.3,0c2.9,0.1,4.6,0.6,5.1,1.4c0.4,0.6,0.6,3.1,0.6,7.5v18.8c0,3.6,0.2,6.4,0.6,8.4c0.5,2.8,1.5,5.2,2.9,6.9
			c1.4,1.8,3.5,3.2,6.3,4.3c2.8,1.1,6.1,1.6,9.9,1.6c3.4,0,6.4-0.4,8.9-1.2s4.7-1.8,6.4-3.2c1.7-1.3,3-2.8,3.9-4.4
			c0.6-1.1,1.1-2.5,1.4-4.3c0.3-1.8,0.5-5.4,0.5-10.8l-0.1-8c-0.1-1.9,0.2-14.6,0.2-15.1c0-0.7,0.2-1.1,0.5-1.5
			c0.2-0.2,0.8-0.4,2.4-0.6h0.1c0.7,0,1.3-0.1,2-0.3c0.6-0.1,1-0.6,1-1.3l0,0c0-0.3-0.1-1.6-0.2-1.7c-0.2-0.2-0.7-0.2-0.7-0.2
			c-2.2,0.2-4.8,0.4-7.2,0.4l-7.1-0.4h-1.6c-0.7,0-1.3,0.6-1.4,1.3c0,0-0.1,1.1,0.1,1.5c0.2,0.3,0.3,0.3,0.5,0.4
			c0.3,0,3.4-0.1,3.4-0.1c1,0,1.9,0.4,2.7,1.2c0.5,0.5,0.7,1.6,0.8,3.1l0.1,2.1c0.6,8,0.7,15.1,0.7,21.5c0,3.7-0.2,6.4-0.7,8.1
			c-0.3,1.3-1,2.6-1.9,4.1c-0.4,0.7-1.2,1.4-2.3,2.3c-1.1,0.8-2.2,1.4-3.5,1.8c-2.1,0.7-4.3,1-6.7,1c-2,0-4.1-0.6-6.2-1.7
			c-1.4-0.8-2.6-1.9-3.4-3.3c-1.1-1.9-1.7-4.3-1.8-7.1l-0.5-9.9v-0.1l-0.1-9.9v-0.1l0.1-3.7v-1.4c0-0.5,0-1.2,0-2.1
			c0-2.8,0.1-4.3,0.4-4.7C742,229.8,743,229.5,744.3,229.5z"/>
		<path d="M683.7,250.9v-0.8v-0.4v-0.2v-0.2c0.1-0.8,0.1-1.6,0.2-2.6c0.2-1.8,0.5-3.6,1-5.5c0.4-1.8,1.2-3.5,2-5.2
			c0.9-1.7,2.1-3.1,3.5-4.3c0.4-0.3,0.7-0.6,1.1-0.8c0.4-0.2,0.8-0.5,1.2-0.7s0.8-0.4,1.3-0.6c0.4-0.2,0.9-0.3,1.3-0.4
			c0.4-0.1,0.9-0.2,1.3-0.3c0.4,0,0.9-0.1,1.3-0.1h0.3h0.2l0,0h0.1h0.7c0.5,0,1,0,1.4,0.1c0.7,0.1,3.3-2.3,1.9-2.9
			c-0.5-0.1-1.1-0.1-1.6-0.2s-1,0-1.5-0.1h-0.7h-0.1h-0.1l0,0h-0.2h-0.4c-0.5,0-1.1,0.1-1.6,0.1c-0.5,0.1-1.1,0.2-1.6,0.2
			c-2.1,0.4-4.4,1-6.4,2c-2.1,1-4.1,2.3-6,3.9c-0.5,0.4-0.9,0.8-1.3,1.3l-0.7,0.7c-0.2,0.2-0.4,0.5-0.6,0.7c-0.4,0.5-0.8,1-1.2,1.5
			s-0.7,1-1.1,1.6c-1.3,2.2-2.5,4.5-3.1,7c-0.4,1.2-0.6,2.6-0.8,4v0.3v0.2v0.4l-0.1,0.8v0.8v0.2v0.3v0.1v0.5c0,1.3,0.1,2.6,0.4,3.8
			c0.2,1.3,0.5,2.5,0.9,3.7c0.8,2.4,1.9,4.8,3.3,6.9c0.3,0.5,0.7,1,1.1,1.5c0.4,0.5,0.8,1,1.2,1.4c0.9,0.9,1.7,1.8,2.7,2.6
			c0.9,0.8,1.9,1.5,2.9,2.2c1,0.6,2,1.2,3.1,1.7c1,0.5,2.1,0.9,3.2,1.3c1.1,0.3,2.1,0.6,3.3,0.7c1.2,0.2,2.1,0.2,3.1,0.3l0,0
			c0,0,0.2,0,0.1,0h0.1h0.2h0.4h0.8c0.3,0,0.5,0,0.8,0l0.8-0.1c2.1-0.2,4-0.9,5.9-1.7c0.9-0.4,1.8-0.8,2.6-1.3
			c0.4-0.2,0.8-0.5,1.2-0.7c0.4-0.3,0.8-0.6,1.2-0.8c3.1-2.2,5.4-4.9,7.1-7.5c0.4-0.7,0.8-1.3,1.1-2s0.7-1.3,0.9-1.9
			s0.5-1.2,0.7-1.8c0.2-0.6,0.3-1.2,0.5-1.7c0.3-1.1,0.5-2.2,0.6-3.1c0.1-0.4,0.1-0.9,0.2-1.3c0-0.3,0-0.6,0.1-0.9
			c0.1-1,0.1-1.6,0.1-1.6v-0.2c0,0,0-0.6-0.1-1.8c0-0.3,0-0.6-0.1-1c0-0.4-0.1-0.8-0.2-1.2c-0.1-0.9-0.3-1.9-0.6-3
			c-0.5-2.2-1.6-4.8-3.3-7.4c-0.8-1.2-2.7-3.6-4.8-4.4c-2.9-1.1-6.6-0.6-7.8,0.4l0,0c-1.9,0.8-3.2,2.6-3.2,4.8
			c0,2.9,2.3,5.2,5.2,5.2c1.3,0,2.6-0.5,3.5-1.4c0,0.2,0.1,0.3,0.1,0.5c0.1,0.5,0.2,1,0.3,1.5s0.2,0.9,0.2,1.4
			c0,0.4,0.1,0.9,0.1,1.3c0.1,0.8,0.1,1.5,0.2,2.2c0.1,0.6,0.1,1.2,0.1,1.6c0,0.8,0,1.2,0,1.3c0,0.2,0,0.7,0,1.4c0,0.3,0,0.5,0,0.9
			c0,0.3,0,0.5-0.1,0.8c0,0.6,0,1.2-0.2,2c0,0.4-0.1,0.8-0.1,1.3c-0.1,0.4-0.1,0.9-0.2,1.4c-0.1,0.5-0.2,1-0.3,1.5s-0.2,1.1-0.4,1.6
			c-0.6,2.3-1.5,4.8-3.3,7.2c-0.2,0.3-0.4,0.6-0.7,0.9c-0.2,0.3-0.5,0.5-0.8,0.8c-0.5,0.6-1.2,1-1.8,1.5c-1.3,0.9-2.8,1.7-4.5,2
			l-0.6,0.1c-0.2,0-0.4,0-0.6,0.1c-0.4,0-0.8,0.1-1.2,0.1c-1-0.1-2-0.1-2.8-0.4c-0.8-0.2-1.7-0.5-2.5-0.9c-0.8-0.5-1.6-0.9-2.3-1.5
			c-0.8-0.5-1.4-1.3-2-1.9c-0.6-0.8-1.2-1.5-1.6-2.3c-0.5-0.8-0.9-1.7-1.3-2.5l-0.5-1.3c-0.2-0.4-0.3-0.9-0.4-1.4
			c-1-3.6-1.4-7.4-1.4-11.1v-0.3v-0.1v-0.1L683.7,250.9z"/>
		<path d="M836.7,233.1c0-0.4,0.5-0.7,0.7-1c0.5-0.5,1.3-0.9,2.4-1.2c0.1,0,0.2,0,0.3-0.1c3.2,0,7.3,0.1,12.3,0.9
			c8.4,1.3,6.8,7.3,9.8,7.2c1.7-0.1,2.2-2.3,0.6-9.7c-0.8-3.8-3.9-2.7-9.6-2.7c-4.6,0-15.1,0.8-16.2,0.9c-1.9,0.1-3.2,0.2-3.9,0.2
			c-5,0-9-0.2-12.1-0.5c-0.2,0-0.6,0-1.2,0c-0.7,0-1.2,0.5-1.2,1.2v1.1c0,0.6,0.4,1.1,1,1.2l0.6,0.1c1.7,0.2,2.7,0.4,3.3,0.7
			c0.5,0.3,1.4,0.8,1.8,1.4c0,0.1,0.1,0.3,0.3,0.7c0.4,0.9,0.6,1.9,0.6,2.9v15.5c-0.4,0.3-0.8,0.5-1.2,0.8c-1.7,1.2-2.9,2.6-3.5,3.7
			c-0.3,0.5-0.5,1-0.6,1.3c-0.1,0.1-0.1,0.3-0.1,0.4s0,0.1,0,0.1l0.6,0.4c0,0,0,0,0.1-0.1c0.1,0,0.2-0.1,0.3-0.2
			c0.2-0.1,0.6-0.3,1.1-0.5c0.8-0.4,2-0.8,3.4-1.2V268c0,0,0.1,5.9-3,6.6c-0.4,0.1-2.7,0.3-3.7,0.5s-0.6,1.7-0.7,2.3
			c-0.1,0.7,3.3,0.3,5.5,0.5c3.4,0.2,29.1-0.8,33.5,0s8.7-0.4,9.1-4.9c0.2-2.9,1.3-6.8,1.3-7.8c0-0.6-0.3-1.1-0.9-1.2
			c-0.7-0.2-1.4-0.2-1.8,0.8c-3.5,8.4-5.4,9.7-27.1,9c0,0-1.9-1.1-1.9-6.7c0-1.8,0-6,0-10.9c0.7,0.1,1.5,0.2,2.2,0.3
			c0.6,0.1,1.2,0.2,1.8,0.3c0.7,0.1,1.3,0.2,1.9,0.2c1.3,0.1,2.6,0.1,3.8,0.1c1.3-0.1,2.5-0.2,3.7-0.5s2.4-0.7,3.4-1.2
			c1-0.6,1.9-1.3,2.5-2s0.9-1.4,1.2-2c0.2-0.5,0.4-1,0.5-1.3s0.1-0.5,0.1-0.5l-0.6-0.5c0,0-0.2,0.1-0.4,0.2
			c-0.3,0.2-0.6,0.4-1.1,0.7c-0.5,0.3-1,0.6-1.6,0.8c-0.6,0.2-1.2,0.4-2,0.4c-0.7,0.1-1.5,0-2.5,0c-0.9-0.1-1.9-0.2-3-0.4
			c-1.1-0.2-2.2-0.4-3.3-0.5c-0.6-0.1-1.1-0.2-1.7-0.3c-0.6-0.1-1.2-0.2-1.8-0.3c-1.1-0.2-2.2-0.2-3.3-0.3c0-5.5,0-11,0-14.5l0,0
			v-0.1c0-0.1,0-0.2,0-0.3C836.6,233.9,836.7,233.3,836.7,233.1z"/>
		<path d="M619,271.6c-0.2,0.4-0.3,0.6-0.3,0.7c-0.4,0.6-1.3,1.2-1.8,1.4c-0.5,0.3-1.6,0.5-3.3,0.7l-0.9,0.1
			c-0.4,0.1-0.7,0.4-0.7,0.8v1.7c0,0.5,0.4,0.9,0.9,0.8c0.8,0,1.3,0,1.5-0.1c3.1-0.4,7.1-0.5,12.1-0.5c0.7,0,2,0.1,3.9,0.2
			c1.1,0.1,2.3,0.2,3.6,0.3c0.3,0,0.5,0.1,0.7,0.1c0.1,0,0.1,0,0.2,0h0.5c2.3,0.2,2.1-2.5,1.2-3.4c-0.6-0.3-1.9-0.4-3-0.4
			c-0.1,0-0.2,0-0.3-0.1c-1.1-0.3-1.9-0.7-2.4-1.2c-0.3-0.3-0.7-0.6-0.7-1c0-0.2-0.1-0.8-0.1-1.2c0-0.1,0-0.2,0-0.3v-0.1l0,0
			c0-3.4,0-8.7,0-14.1c0.6,0,1.2-0.1,1.9-0.1c0.8,0,1.6,0,2.4,0c0.8,0,1.7,0,2.5,0.1c0.8,0,1.7,0.1,2.5,0.1c0.9,0,1.7,0.1,2.6,0.2
			c0.9,0.1,1.8,0.1,2.7,0.2l1.3,0.1c0.5,0,0.9,0,1.4,0c1.8,0.1,3.6,0,5.4,0c0.1,0,0.2,0,0.3,0v12.1c0,0.9-0.2,1.9-0.5,2.8
			c-0.2,0.4-0.3,0.6-0.3,0.7c-0.4,0.6-1.3,1.2-1.8,1.4c-0.5,0.3-1.6,0.5-3.3,0.7l-0.9,0.1c-0.4,0.1-0.7,0.4-0.7,0.8v1.7
			c0,0.5,0.4,0.9,0.9,0.8c0.8,0,1.3,0,1.5-0.1c3.1-0.4,7.1-0.5,12.1-0.5c0.7,0,2,0.1,3.9,0.2c1.1,0.1,2.3,0.2,3.6,0.3
			c0.3,0,0.5,0.1,0.7,0.1c0.1,0,0.1,0,0.2,0h0.5c2.3,0.2,2.1-2.5,1.2-3.4c-0.6-0.3-1.9-0.4-3-0.4c-0.1,0-0.2,0-0.3-0.1
			c-1.1-0.3-1.9-0.7-2.4-1.2c-0.3-0.3-0.7-0.6-0.7-1c0-0.2-0.1-0.8-0.1-1.2c0-0.1,0-0.2,0-0.3V270l0,0c0-3.7,0-9.7,0-15.6
			c1.1-0.4,2-0.9,2.8-1.5c1-0.7,1.8-1.5,2.3-2.1c0.6-0.6,0.9-1.2,1.2-1.5c0.2-0.4,0.4-0.6,0.4-0.6c0.1-0.1,0.1-0.3,0-0.4
			c-0.1-0.2-0.3-0.3-0.5-0.2c0,0-0.2,0.1-0.6,0.3c-0.4,0.2-1,0.5-1.7,0.8s-1.5,0.6-2.5,0.9c-0.4,0.1-0.9,0.2-1.4,0.3
			c0-6,0-11.3,0-13.3c0-2.9,0.5-4.6,1-5.5c0.4-0.7,1.1-1.2,1.9-1.2c1-0.1,1.9-0.1,2.5-0.2c1,0,1.7-0.8,1.7-1.8
			c-0.1-2-3.1-1.9-3.1-1.9s-21-0.5-21.4,0.2c-0.4,0.6-0.6,2.1,0.4,2.3c1,0.3,3.3,0.5,3.7,0.5c3.1,0.7,3,6.6,3,6.6v14.2
			c-0.1,0-0.1,0-0.2,0c-1.6-0.1-3.3-0.3-5-0.4s-3.6-0.3-5.3-0.5c-1.9-0.2-3.8-0.2-5.7-0.1s-3.7,0.2-5.5,0.5
			c-0.4,0.1-0.9,0.1-1.3,0.2c0-5.8,0-11,0-12.9c0-2.9,0.5-4.6,1-5.5c0.4-0.7,1.1-1.2,1.9-1.2c1-0.1,1.9-0.1,2.5-0.2
			c1,0,1.7-0.8,1.7-1.8c-0.1-2-3.1-1.9-3.1-1.9s-21-0.5-21.4,0.2c-0.4,0.6-0.6,2.1,0.4,2.3c1,0.3,3.3,0.5,3.7,0.5
			c3.1,0.7,3,6.6,3,6.6v17.6c-1.6,0.9-2.8,1.9-3.6,2.7c-0.6,0.6-1.1,1.1-1.3,1.4c-0.3,0.3-0.4,0.6-0.4,0.6c-0.1,0.1-0.1,0.3,0,0.4
			c0.1,0.2,0.3,0.3,0.5,0.2l0,0c0,0,0.2-0.1,0.6-0.3c0.4-0.2,1-0.4,1.7-0.6s1.6-0.5,2.6-0.8v11.3C619.6,269.7,619.4,270.7,619,271.6
			z"/>
		<path d="M554.2,233.1c0-0.4,0.5-0.7,0.7-1c0.5-0.5,1.3-0.9,2.4-1.2c0.1,0,0.2,0,0.3-0.1c3.2,0,7.3,0.1,12.3,0.9
			c8.4,1.3,6.8,7.3,9.8,7.2c1.7-0.1,2.2-2.3,0.6-9.7c-0.8-3.8-3.9-2.7-9.6-2.7c-4.6,0-15.1,0.8-16.2,0.9c-1.9,0.1-3.2,0.2-3.9,0.2
			c-5,0-9-0.2-12.1-0.5c-0.2,0-0.6,0-1.2,0c-0.7,0-1.2,0.5-1.2,1.2v1.1c0,0.6,0.4,1.1,1,1.2l0.6,0.1c1.7,0.2,2.7,0.4,3.3,0.7
			c0.5,0.3,1.4,0.8,1.8,1.4c0,0.1,0.1,0.3,0.3,0.7c0.4,0.9,0.6,1.9,0.6,2.9v15.5c-0.4,0.3-0.8,0.5-1.2,0.8c-1.7,1.2-2.9,2.6-3.5,3.7
			c-0.3,0.5-0.5,1-0.6,1.3c-0.1,0.1-0.1,0.3-0.1,0.4s0,0.1,0,0.1c0,0.1,0,0.2,0.1,0.3c0.1,0.2,0.4,0.2,0.6,0.1c0,0,0,0,0.1-0.1
			c0.1,0,0.2-0.1,0.3-0.2c0.2-0.1,0.6-0.3,1.1-0.5c0.8-0.4,2-0.8,3.4-1.2V268c0,0,0.1,5.9-3,6.6c-0.4,0.1-2.7,0.3-3.7,0.5
			c-1,0.3-0.6,1.7-0.7,2.3c-0.1,0.7,3.3,0.3,5.5,0.5c3.4,0.2,29.1-0.8,33.5,0s8.7-0.4,9.1-4.9c0.2-2.9,1.3-6.8,1.3-7.8
			c0-0.6-0.3-1.1-0.9-1.2c-0.7-0.2-1.4-0.2-1.8,0.8c-3.5,8.4-5.4,9.7-27.1,9c0,0-1.9-1.1-1.9-6.7c0-1.8,0-6,0-10.9
			c0.7,0.1,1.5,0.2,2.2,0.3c0.6,0.1,1.2,0.2,1.8,0.3c0.7,0.1,1.3,0.2,1.9,0.2c1.3,0.1,2.6,0.1,3.8,0.1c1.3-0.1,2.5-0.2,3.7-0.5
			s2.4-0.7,3.4-1.2c1-0.6,1.9-1.3,2.5-2s0.9-1.4,1.2-2c0.2-0.5,0.4-1,0.5-1.3s0.1-0.5,0.1-0.5c0-0.1,0-0.2,0-0.3
			c-0.1-0.2-0.4-0.3-0.6-0.2c0,0-0.2,0.1-0.4,0.2c-0.3,0.2-0.6,0.4-1.1,0.7c-0.5,0.3-1,0.6-1.6,0.8c-0.6,0.2-1.2,0.4-2,0.4
			c-0.7,0.1-1.5,0-2.5,0c-0.9-0.1-1.9-0.2-3-0.4c-1.1-0.2-2.2-0.4-3.3-0.5c-0.6-0.1-1.1-0.2-1.7-0.3c-0.6-0.1-1.2-0.2-1.8-0.3
			c-1.1-0.2-2.2-0.2-3.3-0.3c0-5.5,0-11,0-14.5l0,0v-0.1c0-0.1,0-0.2,0-0.3C554.1,233.9,554.2,233.3,554.2,233.1z"/>
		<path d="M381.2,238.7l0.3-0.6c0.1-0.2,0.1-0.4,0.3-0.6l0.8-1.3c0.5-0.8,1-1.6,1.7-2.3c0.6-0.8,1.3-1.4,2-2.1
			c0.7-0.6,1.5-1.2,2.4-1.6c1.7-1,3.6-1.5,5.5-1.8c2-0.2,4-0.1,6,0.3c1,0.2,2,0.5,3,0.8c0.3,0.1,0.5,0.2,0.7,0.3
			c0.2,0.1,0.4,0.2,0.6,0.3c0.4,0.2,0.8,0.5,1.1,0.8c0.7,0.6,1.4,1.3,2,2c0.6,0.8,3.1,5.4,3.5,6c0.5,0.7,2.1,1.1,2.8,0.3
			c0.8-0.9-0.1-8.3-1-8.8l-0.3-0.2c-1.1-0.8-4-2.2-5.1-2.7c-0.6-0.3-1.1-0.5-1.7-0.7c-0.3-0.1-0.6-0.2-0.9-0.3
			c-0.3-0.1-0.6-0.1-0.9-0.2c-1-0.2-2.2-0.4-3.3-0.6c-2.2-0.3-4.5-0.5-6.8-0.4s-4.6,0.5-6.8,1.2c-2.2,0.7-4.4,1.7-6.4,3.1
			c-1,0.6-2,1.4-2.9,2.1l-1.3,1.2c-0.2,0.2-0.4,0.4-0.7,0.7l-0.7,0.7c-1.7,1.8-3.1,4-4.2,6.4c-1,2.4-1.7,6.7-1.9,9.2
			c-0.2,2.6-0.1,5.9,0.5,8.4c0.3,1.2,0.7,2.4,1.1,3.6c0.5,1.2,1,2.3,1.6,3.4c1.2,2.2,2.7,4.2,4.5,6c0.9,0.9,1.9,1.8,3,2.6l0.4,0.3
			l0.1,0.1l0,0c0,0,0.2,0.1,0.1,0.1l0,0l0.2,0.1l0.7,0.4c0.5,0.3,1.2,0.6,1.8,0.8c2.3,0.9,4.7,1.3,7,1.5s4.6,0.3,6.8,0.2
			c2.2-0.1,4.5-0.3,6.7-0.7c6.5-1,8.6-2.2,8.6-2.2c1.4-0.7,2.3-2,2.5-3.5l0.2-1.7l0.2-11.9c0.2,0,0.4,0.1,0.6,0.1
			c0.8,0.2,3.1,0.3,4,0.5c0.8,0.2,1.7,0.4,2.5,0.6c0.9,0.2,1.8,0.4,2.7,0.6c1.3,0.3,2.7,0.5,4,0.8l-0.1,0.2
			c-1.9,5.3-3.4,9.5-4.3,11.2c-0.3,0.6-0.7,1-1,1.3c-0.5,0.4-2.1,1.1-4.9,2.2c-0.4,0.2-0.7,0.6-0.8,1.1c0,0.2,0,0.4,0,0.6
			c0,0.7,0.6,1.2,1.3,1.2c0.7-0.1,1.5-0.1,2.3-0.3c1.5-0.2,3.2-0.3,5.3-0.3c2,0,4.1,0.1,6.2,0.3c1.2,0.1,2.1,0.2,2.7,0.2
			c0.6,0.1,1.2-0.4,1.2-1.1c0-0.3,0-0.5,0-0.6s0-0.2,0-0.3c-0.1-0.5-0.5-0.9-1-1c-0.2,0-0.5-0.1-0.8-0.1c-0.6-0.1-1-0.1-1.4-0.3
			c-1.6-0.2-2.8-0.5-3.6-1.1c-0.5-0.4-0.7-0.8-0.7-1.3c0-0.7,0.2-2.5,0.7-3.7c0.4-1.2,1-2.9,1.6-5.2c0.2-0.7,0.4-1.2,0.5-1.6
			c0,0,0,0,0-0.1l0.4-0.9c0.1,0,0.2,0,0.4,0c0.9,0.1,1.8,0.2,2.7,0.2c1.8,0.1,3.5,0.2,5.1,0.1c1.7-0.1,3.2-0.2,4.7-0.5
			c0.9-0.2,1.8-0.4,2.5-0.7c1.2,2.8,2.1,5.2,2.7,7.1l1.2,3.2c0,0.1,0.1,0.2,0.1,0.3c0,0.4,0.1,1.2,0.1,1.4c0,0.4-0.1,0.7-0.4,1
			c-0.5,0.5-1.3,0.9-2.4,1.2c-0.4,0.1-1.5,0.3-3.3,0.5c-0.6,0.1-1,0.6-1,1.2c0,0.3,0,0.6,0,1c0,0.6,0.5,1.1,1.2,1.1h1.5
			c0.1,0,0.1,0,0.2,0c0.8-0.1,2-0.3,3.6-0.4c2.3-0.2,3.8-0.2,4.6-0.2c6.2-0.3,28,0.5,28.8,0.5s1.4-0.7,1.4-1.4v-0.8
			c0-0.5-0.4-1-0.9-1.1l0,0c-0.1,0-0.1,0-0.2,0c-2.6-0.1-4.4-0.3-5.6-0.6c-0.4-0.1-0.8-0.4-1-0.8c-0.1-0.2-0.1-0.4-0.2-0.5
			c-0.1-0.3-0.1-0.7-0.2-1.4c-0.2-2.4-0.3-4.6-0.4-6.7l-0.2-4.9v-0.1v-2.6c0-0.9,0-1.8,0-2.6l-0.3-19.6c0.6,1.4,1.3,3.2,2.2,5.2
			l4.2,10.6l7.1,16.4c1.8,4.8,2.9,7.6,3.2,8.4c0.2,0.5,0.4,1.1,0.6,1.6c0.2,0.4,0.6,0.8,1.1,0.8s0.9,0,1.2,0c0.2,0,0.6,0,1.3-0.1
			c0.3,0,0.6-0.2,0.7-0.5c0.6-1.7,5.9-15.6,6.4-17s1.1-2.6,1.6-3.8l5.4-12.3c1.3-3.5,2.9-6.7,4.1-9.1c0.1,0.8,0.1,1.3,0.1,1.3v32.8
			c0,0.8-0.1,1.5-0.4,2.2c-0.2,0.6-0.4,0.9-0.4,1c-0.4,0.6-1.3,1.2-1.8,1.4c-0.5,0.3-1.6,0.5-3.3,0.7l-1.6,0.2v3.3
			c1.3,0,2.1-0.1,2.4-0.1c3.1-0.4,7.1-0.5,12.1-0.5c0.7,0,2,0.1,3.9,0.2c1.1,0.1,2.3,0.2,3.6,0.3c0.3,0,0.5,0.1,0.7,0.1
			c0.1,0,0.1,0,0.2,0h0.5c2.3,0.2,2.1-2.5,1.2-3.4c-0.6-0.3-1.9-0.4-3-0.4c-0.1,0-0.2,0-0.3-0.1c-1.1-0.3-1.9-0.7-2.4-1.2
			c-0.3-0.3-0.7-0.6-0.7-1c0-0.2-0.1-0.8-0.1-1.2c0-0.1,0-0.2,0-0.3v-0.1l0,0c0-8.3,0-28.6,0-33c0-4.3,1.2-5.9,1.7-6.5
			c0.1-0.1,0.3-0.2,0.5-0.2c2-0.2,3.4-0.2,4.2-0.3c0.1,0,0.2-0.1,0.3-0.2c1.7-3.6-2.7-3.5-2.7-3.5s-7,0.2-13.2,0.2
			c-0.8,0-1.8,0.3-2.5,2l-0.6,1.5l0,0c-2.2,5.4-12.1,27.3-12.1,27.3l-1.2,2.8c-0.4,1-1.8,1-2.2,0c-0.4-0.9-0.8-1.8-1.2-2.8l-4.3-10
			c-2-4.5-3.5-8.1-4.3-10.7l-1.2-3.2c0-0.1-0.1-0.2-0.1-0.3c0-0.4-1.9-6.5-3.9-6.7c-5-0.4-9-0.4-12.1-0.8c-0.2,0-2.1,0-2.7,0
			c-0.7,0-1.2,0.5-1.2,1.2v1.1c0,0.6,0.4,1.1,1,1.2l0.6,0.1c1.2,0.1,2.8,0.3,3.9,0.4l0.2,20.1l-0.1,12.1v2.1c0,0.9-0.1,3.3-0.3,7.3
			c-0.1,1.4-0.3,2.2-0.7,2.5c-0.3,0.3-3.3,0.4-3.4,0.4l-0.6-0.1c-1.7-0.2-2.7-0.4-3.3-0.7c-0.5-0.3-1-0.7-1.4-1.4
			c-0.2-0.3-1.4-3.7-3.6-8.5l-4.2-10.6l-7.1-16.4c-1.8-4.8-2.9-7.6-3.2-8.4c-0.2-0.5-0.4-1.1-0.6-1.6c-0.2-0.4-0.6-0.8-1.1-0.8
			s-0.9,0-1.2,0c-0.2,0-0.6,0-1.3,0.1c-0.3,0-0.6,0.2-0.7,0.5c-0.6,1.7-5.6,15.6-6.1,16.9c-0.5,1.4-1,2.7-1.5,3.9l-2.4,6.4
			c-1.6-0.4-3.3-0.8-4.9-1.1l-1.2,0.4l-0.6-0.1l-0.7-0.1c-0.9-0.2-1.8-0.4-2.7-0.5c-1.8-0.3-5.1-0.6-6.9-0.7s-3.5-0.2-5.1-0.1
			c-0.8,0-1.6,0.1-2.4,0.2s-1.5,0.2-2.2,0.3c-0.7,0.1-1.4,0.3-2,0.4c-0.7,0.2-1.3,0.4-1.8,0.6c-1.1,0.4-2.1,0.8-2.8,1.3
			c-0.8,0.4-1.3,0.9-1.6,1.2c-0.3,0.3-0.5,0.6-0.5,0.6c-0.2,0.1-0.2,0.4,0,0.5c0.1,0.2,0.4,0.2,0.5,0c0,0,0.2-0.1,0.6-0.2
			s1-0.2,1.7-0.3c0.7-0.1,1.7-0.1,2.7-0.1c0.5,0,1.1,0.1,1.7,0.1c0.6,0.1,1.2,0.1,1.8,0.2c0.1,0,0.3,0,0.4,0.1
			c0.2,3.5,0.7,15.6-1.2,17.1c-2,1.6-4.9,1.7-7,1.8c-2,0.1-4-0.2-5.9-1c-1.8-0.8-3.5-1.9-4.9-3.1c-0.2-0.1-0.3-0.3-0.5-0.4l-0.2-0.2
			c-0.1-0.1-0.2-0.1-0.3-0.2l-0.6-0.5l-0.2-0.1l0,0c-0.1-0.1,0.1,0.1,0.1,0.1l0,0v-0.1l-0.2-0.2c-0.5-0.6-1-1.3-1.4-2
			c-0.9-1.5-1.5-3.2-2-5c-0.5-1.7-0.8-3.5-1-5.2c-0.3-1.7-0.4-4.2-0.4-5.9c0-1.7,0.1-5.1,0.5-6.8C380,242.1,380.5,240.4,381.2,238.7
			z M437.7,246.1l1.1-2.8c0.4-1,1.8-1,2.2,0c0.4,0.9,0.8,1.8,1.2,2.8l4.3,10c0,0.1,0.1,0.2,0.1,0.3c-0.5,0-0.9,0-1.4,0
			c-0.6,0-1.3-0.1-1.9-0.2c-0.7-0.1-1.4-0.2-2.1-0.3c-1.5-0.2-3-0.5-4.6-0.9c-0.5-0.1-1.1-0.2-1.7-0.4L437.7,246.1z"/>
		<path d="M790.3,231.3c1.5-1.4,3.6-2,6.2-2c2.7,0,5.1,1.1,7.2,3.2c1.2,1.2,2.7,4.5,3.1,6v0.1c0.2,0.6,0.8,1.1,1.5,1.1l1.5,0.1
			c0,0,0.8,0,1.1-0.2s0.2-0.9,0.2-1.4c0-1.5-0.2-3.6-0.5-6.3c-0.1-0.9-0.2-1.6-0.3-2.3c-0.2-1.1-1-2-2-2.3c-1.8-0.5-3.2-0.9-4.4-1.1
			c-2.5-0.4-4.4-0.7-5.7-0.7c-5.9,0-10.4,1.5-13.4,4.4s-4.6,6.5-4.6,10.7c0,2.1,0.5,4.2,1.6,6.5s2.6,4,4.5,5.4
			c1.9,1.3,5.3,2.9,10.2,4.6c4.9,1.7,7.9,3.1,9,4.1c1.8,1.7,2.8,3.5,2.8,5.4c0,1.6-0.5,3.1-1.6,4.4c-1.1,1.4-2.4,2.4-4.2,3
			c-1.7,0.6-3.3,0.9-4.8,0.9c-1.6,0-3.1-0.2-4.5-0.7s-2.6-1.1-3.6-2c-1-0.8-1.9-1.9-2.7-3.3c-0.3-0.5-1-2-2.1-4.4
			c-0.3-0.6-0.8-0.9-1.5-0.9h-1.2c-0.8,0-1.5,0.7-1.5,1.5c0,0.7,0,1.9,0.1,3.6c0.1,3.3,0.2,5.5,0.2,5.8s0.2,0.6,0.4,0.8
			c0.3,0.3,1.2,0.6,2.5,1l4.7,1.4h0.1c2.6,0.5,4.8,0.8,6.6,0.8c2.8,0,5.1-0.2,6.9-0.7c1.8-0.5,3.5-1.2,5.2-2.3s2.9-2,3.7-2.8
			c1.1-1.1,1.9-2.3,2.4-3.6c0.9-2.4,1.4-4.8,1.4-7.3c0-2.3-0.3-4.2-0.9-5.7c-0.6-1.5-1.7-3.1-3.3-4.7c-1.2-1.2-3-2.4-5.3-3.4
			s-4.3-1.8-5.9-2.3c-4.9-1.4-8-2.9-9.5-4.5s-2.3-3.2-2.3-4.9C788,234.3,788.8,232.6,790.3,231.3z"/>
	</g>
	<path d="M320.2,229.6c-1.1-2.4-2.7-4.4-4.2-5.8c-1.5-1.5-3.1-2.4-4.3-3.1c-0.6-0.4-1.2-0.6-1.7-0.8c-0.5-0.2-0.9-0.4-1.3-0.5
		c-0.7-0.2-1-0.4-1-0.4l0,0c-1.4-0.6-2.9-1-4.5-1c-5.9,0-10.7,4.8-10.7,10.7s4.8,10.7,10.7,10.7c5.1,0,9.4-3.6,10.5-8.5
		c0.2,0.4,0.5,0.8,0.7,1.3c1.6,3.3,1.7,8.2-0.5,13c-1.1,2.4-2.8,4.8-5,7c-1.1,1.1-2.4,2.1-3.7,3l-1,0.7l-1.2,0.7l-0.6,0.4h-0.1
		c0.2-0.1,0,0,0,0l-0.1,0.1l-0.3,0.2l-1.2,0.7c-6.3,3.5-13.9,6.3-22.1,8.1c-8.2,1.8-17.1,2.3-25.9,1.2c-8.9-1.2-17.7-4-25.5-8.7
		c-7.9-4.6-14.7-11.1-20.3-18.4c-5.6-7.4-10.1-15.8-13.7-24.4c-3.6-8.7-6.4-17.7-8.5-26.5c-0.3-1.1-0.5-2.3-0.8-3.4
		c-0.3-1.4-0.7-2.8-1.2-4.2c-0.9-2.8-1.9-5.6-3.2-8.2c-1.3-2.7-2.9-5.2-4.6-7.6c-1.8-2.4-3.7-4.6-5.8-6.6c-2.7-2.6-5.6-4.7-8.6-6.5
		c2.3-1,4.7-2,7.1-3.3c5.2-2.7,10.4-6.3,15.2-10.8s9.1-10,12.5-16.2c1.7-3.1,3.1-6.4,4.3-9.7c1.2-3.4,2.1-6.8,2.8-10.3
		c0.6-3.5,1.1-7.1,1.2-10.6c0.1-0.9,0.1-1.8,0.1-2.7v-2.9l-0.1-2.3c0-0.4,0-0.8-0.1-1.3l-0.1-1.5c-0.3-3.8-0.9-7.4-1.7-11.1
		c-0.8-3.7-2-7.3-3.5-10.9c-2.9-7.1-7-13.9-12.1-19.8c-10.1-11.8-23.4-20.2-37.3-25.1c-13.9-4.9-28.4-6.7-42.4-6.1
		c-14,0.5-27.4,3.2-39.9,7.3c-3.1,1-6.2,2.1-9.1,3.3c-3,1.2-5.8,2.5-8.8,3.9c-5.9,3-11.1,6.5-15.8,10.6c-9.3,8.1-15.9,18-19.9,27.9
		S7.3,80.9,7.7,89.6c0.4,8.7,2.6,16.4,6.4,21.9c1.8,2.8,4.1,4.9,6.3,6.5c2.2,1.5,4.4,2.4,6.2,2.9s3.2,0.7,4.1,0.7
		c0.5,0,0.9,0,1.1,0.1c0.7,0.1,1.4,0.2,2.1,0.2c6.9,0,12.4-4.9,12.4-11s-5.6-11-12.4-11c-6.6,0-12,4.6-12.4,10.4
		c-0.6-0.7-1.2-1.5-1.8-2.4c-2.8-4.2-4.6-10.7-4.6-18.3s1.7-16.3,5.6-24.9c3.9-8.5,10.1-16.9,18.5-23.5c4.2-3.3,8.9-6.2,14-8.4
		c2.5-1.1,5.3-2.2,8.1-3.1c2.8-0.9,5.7-1.8,8.6-2.5c11.6-3,24-4.2,36.4-3.6c6.2,0.3,12.3,1.2,18.3,2.5c6,1.3,11.9,3.1,17.4,5.5
		c11,4.8,20.6,12.1,26.5,21.2s8.3,19.6,8.6,29.8v0.9c0,0.3,0,0.6,0,1v2.3c0-0.1,0,0.3,0-0.1v0.1V87v0.5v1c0,0.7,0,1.3-0.1,2
		c-0.1,2.6-0.4,5.1-0.7,7.6c-0.4,2.4-0.8,4.8-1.3,7.1c-0.6,2.3-1.2,4.4-2.1,6.5c-3.2,8.3-9.1,14.8-16.2,19.3
		c-7,4.6-14.9,7.3-22.1,9.2c-3.6,0.9-7.1,1.7-10.3,2.3s-6.3,1.1-9,1.4c-3.2,0.4-6,0.7-8.3,0.9c0-26.7,0.1-54.8,0.1-67.8
		c0.1-2,0.3-5.9,0.4-6.1c0.3-2.1,1.6-5.8,5.6-8.1l2.1-1.3c1-0.6,1.4-1.9,0.9-3l-2-4.3c-0.6-1.2-2-1.7-3.2-1.1
		c-2,1-16.2,8.4-28.7,14.3c-1.7,0.8-6.6,3.2-7.2,3.4c-0.2,0-0.3,0.1-0.4,0.2l-1.3,0.6c-3.4,1.3-3.7,3.8-2.7,6.1
		c0.9,2.1,3,3.6,5.4,3.6c6.3-0.1,7.9,11.2,7.8,15.4l0.1,122.8c-0.1,1.8-0.3,4.9-0.3,5.1c-0.3,2.1,0.4,4.6-5.6,8.1l-2.1,1.3
		c-1,0.6-1.4,1.9-0.9,3l2,4.3c0.6,1.2,2,1.7,3.2,1.1c2-1,16.2-8.4,28.7-14.3c1.7-0.8,6.6-3.2,7.2-3.4c0.2,0,0.3-0.1,0.4-0.2l1.3-0.6
		c3.3-1.3,3.7-3.8,2.8-6s-3.1-3.7-5.5-3.9c-3.9-0.3-7.5-3.1-8-12.1c0-6.9,0-20.6,0-36.7c3.4,0,7.1,0.1,11.1,0.2
		c5.7,0.2,12,0.9,18.1,2.7c6.1,1.7,11.9,4.5,16.2,8.8c2.2,2.1,4.1,4.6,5.6,7.6c0.8,1.5,1.5,3.1,2.1,4.8c0.3,0.9,0.6,1.7,0.8,2.7
		c0.4,1.2,0.7,2.4,1.1,3.6c2.9,9.8,6.6,19.8,11.7,29.5c5,9.7,11.3,19.2,19.1,27.4c7.8,8.2,17.1,15.2,27.4,19.9
		c10.2,4.7,21.1,7.1,31.5,7.5c10.4,0.5,20.4-1,29.4-3.4c9-2.5,17.1-6.1,24.1-10.5l1.3-0.8l0.7-0.5l0.6-0.4l1.1-0.8l1.3-1
		c1.6-1.4,3.1-2.7,4.4-4.2c2.7-2.9,4.7-6.2,6-9.6s1.9-6.8,1.7-10C322.1,234.9,321.4,232,320.2,229.6z"/>
</g>
</svg>
