<svg version="1.1" id="Layer_1" xmlns="http://www.w3.org/2000/svg" xmlns:xlink="http://www.w3.org/1999/xlink" x="0px" y="0px"
	 viewBox="0 0 792 612" style="enable-background:new 0 0 792 612;" xml:space="preserve">
<g>
	<g>
		<ellipse transform="matrix(0.9774 -0.2116 0.2116 0.9774 -61.887 50.6868)" cx="205.9" cy="314.5" rx="15.7" ry="6.8"/>
		<ellipse transform="matrix(0.9883 -0.1525 0.1525 0.9883 -56.8612 31.6644)" cx="178" cy="386.5" rx="14.9" ry="13.1"/>
		<ellipse transform="matrix(0.9883 -0.1525 0.1525 0.9883 -61.8016 41.2607)" cx="238.1" cy="423.5" rx="14.9" ry="13.1"/>
		<path d="M289.7,315.9l-11-37.8l0,0l0,0c0-0.2-0.2-0.3-0.3-0.3l-121.6,15.9c-0.6,0.1-1.1,0.5-1.4,1v0.1L130.1,352
			c-0.3,0.7-0.4,1.4-0.3,2.2c0.1,0.5,29.4,95.5,29.4,95.5l0.6-0.2l-21.2-92.7l117.4-18l32.4,110.6h0.2l-29.1-112.7l18.9-57.6
			l10.3,38.5L289.7,315.9z M160.6,296L278,278.5l-22,56.1l-116,14.1L160.6,296z"/>
	</g>
	<path d="M568.8,308.9c-0.1-1.8-0.2-3.6-0.4-5.3c-0.2-1.8-0.4-3.5-0.7-5.2s-0.6-3.5-1-5.2s-0.7-3.4-1.2-5.2l0,0l-0.4-1.8l-1.9-0.6
		c-1.5-0.5-3.3-1.3-4.8-2.1c-1.6-0.8-3.2-1.8-4.7-2.8l-2.2-1.6l-2.1-1.7l-2.1-1.8l-1.9-1.9c-1.2-1.4-2.4-2.7-3.5-4.2l-0.8-1.1
		l-0.7-1.1c-0.5-0.8-1-1.4-1.4-2.3l-2.8-5.2c-0.9-1.9-2-3.5-3.1-5.3c-1.1-1.7-2.2-3.4-3.4-5s-2.3-3.3-3.6-4.8
		c-2.5-3.1-5-6.2-7.6-9.3c-2.6-3-5.3-5.9-8.1-8.8c-1.4-1.4-2.8-2.9-4.2-4.3c-0.6-0.6-1.2-1.2-1.8-1.8l6.6-10.4l0,0l1-1.5l-0.4-1.5
		c-0.6-2.2-1.2-4.4-1.9-6.6c-0.8-2.2-1.4-4.4-2.2-6.5c-0.8-2.2-1.6-4.3-2.6-6.4c-0.9-2.1-1.9-4.2-3-6.2c-1-2.1-2.2-4-3.4-6
		c-1.3-1.9-2.5-3.9-3.8-5.8c-1.1-1.6-2.3-3.2-3.4-4.7c1.7-0.3,4.5-0.9,7.9-2.3c2.7-1.1,5.8-2.5,9-4.6c1.6-1,3.2-2.2,4.7-3.6
		c1.5-1.3,3-2.9,4.3-4.7s2.5-4,2.9-6.7c0.5-2.6-0.1-5.6-1.5-7.7c-0.7-1-1.4-2-2.3-2.7c-0.8-0.8-1.6-1.3-2.4-1.8
		c-0.8-0.5-1.6-0.9-2.4-1.2c-0.4-0.2-0.8-0.3-1.2-0.5c-0.4-0.1-0.8-0.2-1.1-0.3c-0.7-0.2-1.4-0.4-2.1-0.6c-0.7-0.1-1.3-0.2-1.9-0.3
		c-0.6-0.1-1.2-0.2-1.7-0.2c0.2-0.6,0.3-1.1,0.4-1.7l0.2-1.2c0-0.4,0-0.9,0-1.3c0-1.7-0.6-3.5-1.4-4.9c-0.4-0.8-0.9-1.3-1.3-2
		c-0.5-0.6-1-1.1-1.5-1.6s-1.1-0.9-1.6-1.3s-1.1-0.8-1.6-1.1c-0.5-0.3-1.1-0.6-1.6-0.9l-0.4-0.2l-0.2-0.1l-0.4-0.2l-0.7-0.3
		c-0.8-0.4-2.3-0.8-3.5-1.1c-2.4-0.4-4.6-0.4-6.6,0.1c-1.1,0.3-2.1,0.6-3,1c0.2-1.2,0.2-2.6,0-4c-0.3-2.3-1.5-4.6-3.1-6.2
		c-1.5-1.6-3.2-2.8-4.9-3.6l-1.3-0.6l-1.4-0.5l-2.2-0.8c-0.7-0.3-1.6-0.5-2.4-0.7s-1.7-0.5-2.5-0.6c-3.3-0.8-6.6-1.2-9.9-1
		c-3.3,0.1-6.6,0.8-9.4,2c-1.7,0.7-3.3,1.7-4.7,2.7c0,0,0,0-0.1,0c-0.4-0.3-0.9-0.5-1.4-0.8s-1.1-0.5-1.8-0.8
		c-0.7-0.2-1.4-0.5-2.1-0.8c-0.8-0.2-1.6-0.4-2.5-0.6c-0.9-0.1-1.8-0.3-2.8-0.3s-2-0.1-3,0c-2.1,0.1-4.3,0.6-6.4,1.3
		c-2.2,0.7-4.3,1.8-6.3,3c-1,0.7-2,1.3-2.9,2.1c-0.9,0.7-1.8,1.6-2.7,2.3l-0.6,0.6l-0.2,0.2l-0.1,0.1l0,0l-0.2,0.2l-0.3,0.3
		l-1.1,1.2c-0.2,0.2-0.5,0.5-0.7,0.9c-0.2-0.1-0.4-0.2-0.7-0.2c-1-0.3-2.2-0.8-3.7-1.1c-1.4-0.4-3.1-0.7-4.9-0.8
		c-3.7-0.4-8.2-0.2-12.9,1.4c-2.3,0.8-4.7,2-6.9,3.6c-2.2,1.6-4,3.7-5.6,5.9c-0.7,1.2-1.4,2.3-1.9,3.6c-0.3,0.6-0.5,1.2-0.8,1.8
		l-0.6,1.9c-0.2,0.5-0.3,1-0.4,1.6c-0.1,0-0.3,0-0.4,0c-1.9-0.2-4.6-0.2-7.8,0.4c-3.2,0.6-7,2-10.5,4.7c-1.7,1.3-3.4,3-4.7,5
		c-0.7,1-1.3,2-1.8,3.1c-0.4,1.1-1,2.2-1.3,3.3v0.2c-0.8,0.1-1.7,0.3-2.7,0.6c-1.4,0.4-3.1,0.9-4.8,1.7c-1.7,0.8-3.5,1.8-5.3,3.1
		s-3.6,2.8-5.2,4.8c-1.6,1.9-3.1,4.1-4.1,6.5c-0.6,1.2-1,2.5-1.4,3.7c-0.3,1.3-0.7,2.6-0.8,3.9l-0.2,2c0,0.7-0.1,1.3-0.1,2
		c-0.1,1.3,0.1,2.6,0.1,3.9c0,0.4,0.1,0.8,0.2,1.3c-1.8,0.6-4.1,1.7-6.5,3.4c-1.4,1-2.8,2.3-4.2,3.8c-1.3,1.5-2.6,3.4-3.6,5.4
		c-1,2.1-1.7,4.4-2,6.8c-0.3,2.4-0.3,4.9,0.1,7.3c0.1,1.2,0.5,2.3,0.8,3.5c0.2,0.6,0.3,1.1,0.5,1.7c-1.3,1.3-2.9,3.2-4.4,5.5
		c-1.9,2.9-3.8,6.5-5.1,10.9c-0.7,2.2-1,4.5-1.2,6.9c-0.1,2.4,0,4.9,0.5,7.4s1.3,4.9,2.5,7.1c0.3,0.5,0.6,1.1,0.9,1.6s0.7,1,1,1.5
		c0.1,0.1,0.1,0.2,0.2,0.3c-1.3,0.9-3,2.2-4.5,4.2c-1,1.2-1.9,2.7-2.5,4.4c-0.7,1.7-1.2,3.7-1.2,5.9c0,2.1,0.3,4.4,1,6.4
		c0.7,2.1,1.8,4,3,5.7l1,1.3l1,1.2c0.7,0.8,1.4,1.5,2.2,2.1c0.7,0.7,1.5,1.3,2.3,1.9c0.2,0.1,0.4,0.3,0.5,0.4
		c-1.1,1.1-2.5,2.7-3.7,4.7c-1.6,2.6-3,5.9-3.5,9.9c-0.3,2-0.2,4.1,0.2,6.3c0.3,2.2,1.2,4.3,2.2,6.2c0.7,1.2,1.5,2.4,2.4,3.5
		c-0.2,0.2-0.5,0.5-0.8,0.8c-1.1,1.1-2.6,2.8-4,5.2c-1.4,2.4-2.6,5.5-2.8,9.3c-0.1,1.9,0.1,4,0.7,6c0.6,2.1,1.7,4,3.1,5.7
		c1,1.1,2.1,2.1,3.2,3c-0.8,0.7-1.6,1.5-2.4,2.4c-1,1.1-1.9,2.4-2.8,4c-0.8,1.6-1.6,3.4-1.9,5.4c-0.4,2-0.5,4.3,0,6.5
		s1.3,4.4,2.6,6.2c0.6,1,1.3,1.7,2,2.6c0.7,0.8,1.5,1.5,2.3,2.2c0.2,0.1,0.4,0.3,0.5,0.4c-1.2,0.5-2.9,1.4-4.6,2.9
		c-1.8,1.5-3.6,3.7-4.9,6.6c-0.7,1.4-1.1,3-1.4,4.7s-0.3,3.4-0.1,5.1c0.3,1.7,0.6,3.4,1.3,4.9c0.3,0.8,0.6,1.5,1,2.2s0.7,1.4,1.2,2
		c0.8,1.3,1.8,2.3,2.7,3.3c1,0.9,1.9,1.8,2.8,2.4c0.9,0.7,1.8,1.2,2.6,1.7c0.5,0.3,0.9,0.5,1.4,0.7c-1.7,3.5-2.9,7-3.6,10.5
		c-1.6,7.5-0.3,14.6,2.3,19.5c2.5,4.9,5.7,7.8,7.9,9.5c1.2,0.8,2.1,1.4,2.7,1.7c0.6,0.3,1,0.5,1,0.5s-0.2-0.3-0.6-0.9
		s-1-1.4-1.7-2.6c-1.4-2.2-3.2-5.6-4.4-10.1c-1.2-4.4-1.6-10-0.2-16.2s4.7-12.9,9.5-19.5c0.6-0.9,1.3-1.7,1.9-2.6
		c0.7-0.9,1.4-1.8,2-2.8c1.3-1.9,2.6-3.9,3.8-6.1c2.3-4.3,4.3-9,5.6-14c1.3-5,1.8-10.3,2-15.6c0.2-5.3,0-10.7-0.2-16.1
		c-0.5-10.8-1-21.9-1.5-33.2c-0.4-11.3-0.9-22.7-1.3-34.1c-0.2-5.7-0.3-11.4-0.4-17.1v-4.3v-4.2c0.1-2.8,0.2-5.5,0.4-8.3
		c0.9-10.9,3.1-21.6,6.8-31.4c3.6-9.8,8.5-18.8,14.1-26.6s11.9-14.6,18.2-20.3c12.7-11.3,25.1-18.6,34.1-23c4.1-2,7.4-3.5,9.9-4.5
		c-0.1,0.3-0.3,0.5-0.4,0.8c-0.7,1.3-1.4,2.7-2.1,4c-0.6,1.4-1.2,2.7-1.8,4.1c-0.6,1.4-1.1,2.8-1.6,4.2c-1,2.8-1.9,5.7-2.5,8.6
		c1.5-2.6,3-5.1,4.5-7.6c1.6-2.5,3.2-4.9,4.9-7.3c1.7-2.4,3.4-4.7,5.2-6.9c0.9-1.1,1.8-2.2,2.8-3.2c0.9-1.1,1.9-2.1,2.9-3.1
		s2-2,3-2.9c1.1-0.9,2.1-1.8,3.2-2.7c1.1-0.9,2.2-1.6,3.3-2.4c1.1-0.7,2.3-1.4,3.5-2c0.6-0.3,1.2-0.6,1.8-0.8
		c0.6-0.3,1.2-0.6,1.8-0.7c0.6-0.2,1.2-0.4,1.8-0.6l1.9-0.5c0.4-0.1,0.8-0.2,1.2-0.2c-0.3,0.8-0.6,1.7-0.8,2.6
		c-0.4,1.6-0.7,3.3-0.8,5c-0.1,1.7-0.1,3.5,0.1,5.2c0.1,0.9,0.3,1.7,0.5,2.6l0.2,1l0.1,0.7c0.1,1.1,0.2,2.4,0.1,3.7
		c-0.1,2.6-0.6,5.4-1.3,8c-0.7,2.7-1.6,5.3-2.8,7.8c-1.1,2.5-2.6,4.9-4.3,7c-0.9,1.1-1.8,2.1-2.9,3c-1,0.9-2.2,1.7-3.4,2.4
		c-1.2,0.7-2.5,1.3-3.9,1.7c-1.4,0.5-2.8,0.7-4.3,0.9c1.5,0.3,3,0.4,4.5,0.4s3.1-0.4,4.6-0.8c1.5-0.5,3-1.1,4.3-1.9
		c1.4-0.8,2.7-1.7,3.9-2.8c1.2-1,2.3-2.2,3.3-3.4s2-2.5,2.8-3.8c0.9-1.3,1.6-2.7,2.3-4.1c0.7-1.4,1.3-2.9,1.9-4.4
		c1.1-3,1.9-6.1,2.3-9.3c0.1-0.7,0.1-1.3,0.2-2c2.3,0.9,4.5,1.9,6.7,3c2,1,3.9,2,5.8,3.1s3.8,2.3,5.6,3.5c1.8,1.2,3.6,2.5,5.3,3.9
		c1.7,1.3,3.4,2.8,5,4.2c1.6,1.5,3.2,3,4.7,4.5c1.5,1.6,3,3.2,4.3,4.9c1.4,1.6,2.7,3.4,4.1,5.1c1.3,1.7,2.7,3.4,3.9,5.2
		c1.3,1.7,2.3,3.6,3.5,5.5c1,1.9,2.1,3.8,3,5.7s1.9,3.9,2.6,5.9c0.9,2,1.6,4,2.3,6.1c0.8,2,1.3,4.1,1.9,6.2c0.4,1.6,0.8,3.1,1.2,4.7
		l-8,11.6l-1.9,2.8l2.6,2.5l0,0c1.4,1.2,2.8,2.6,4.2,3.9l4.1,4.1c2.7,2.7,5.4,5.5,7.9,8.4c2.6,2.9,5.1,5.8,7.4,8.8
		c1.2,1.5,2.3,3,3.5,4.5c1.1,1.5,2.2,3.1,3.2,4.7s2,3.2,2.9,4.8l2.9,5.1c0.5,0.9,1.2,1.8,1.7,2.7c0.6,0.9,1.2,1.8,1.9,2.6
		c1.3,1.7,2.7,3.2,4.1,4.8l2.3,2.2l2.4,2c0.8,0.7,1.7,1.3,2.5,1.9s1.7,1.2,2.6,1.8c1.8,1.1,3.6,2.2,5.5,3.1c1.3,0.7,2.6,1.2,4,1.8
		c0.2,1,0.4,2.1,0.6,3.1c0.3,1.6,0.5,3.3,0.7,4.9s0.4,3.3,0.5,4.9c0.2,1.6,0.2,3.3,0.3,4.9c0,1.6,0,3.2-0.1,4.8
		c0,0.8-0.2,1.5-0.2,2.3c-0.1,0.8-0.2,1.5-0.4,2.2l-0.2,1.1l-0.3,1c-0.1,0.3-0.2,0.7-0.3,0.9l-0.4,0.8l-0.2,0.4l-0.1,0.1l-0.2,0.3
		l-0.7,1c-0.5,0.7-0.9,1.2-1.4,1.8c-1,1.2-2,2.2-3.1,3.1s-2.2,1.6-3.2,1.9c-0.6,0.2-0.1,0.1-1.4,0.1l-2.6,0.1
		c-1.7,0.1-3.5,0.2-5.2,0.3c-3.5,0.3-7,0.7-10.6,1.4c-1.8,0.4-3.6,0.8-5.5,1.6c-0.8,0.3-1.6,0.7-2.5,1.3L523,336c0-0.1,0-0.1,0-0.2
		c-0.3-1.6-0.9-3.4-1.7-5.2c-0.4-0.9-0.9-1.8-1.4-2.7c-0.5-0.9-1.1-1.7-1.7-2.6c-1.2-1.7-2.5-3.2-3.9-4.6c-1.4-1.3-2.8-2.5-4.1-3.4
		c-1.3-0.9-2.6-1.5-3.5-1.9s-1.5-0.6-1.5-0.6s0,0.6,0.2,1.6s0.5,2.3,1,3.8s1.2,3.2,2.1,4.8c0.4,0.8,0.9,1.7,1.4,2.5s1.1,1.6,1.6,2.5
		c0.5,0.7,1.1,1.5,1.7,2.2c-0.5,0.6-1.1,1.3-1.6,1.9l-1.9,2c-1.2,1.3-2.5,2.6-3.8,3.8c-0.7,0.6-1.3,1.2-2,1.7
		c-0.3,0.3-0.7,0.5-1,0.8c-0.3,0.2-0.7,0.5-1,0.7l-0.5,0.3c-0.2-0.7-0.4-1.5-0.6-2.2c-0.6-2.1-1.3-4.1-2.1-6.2
		c-1.6-4.1-3.6-8-6-11.7s-5.3-7.2-8.7-10.2c-3.4-3-7.2-5.6-11.5-7.4c-4.2-1.8-8.7-2.9-13.2-3.5c-1.1-0.1-2.2-0.2-3.4-0.3h-3.4
		c-2,0-4.1,0.1-6,0.1c-7.9,0-15.9-0.6-23.3-2.4c-3.7-0.9-7.2-2.2-10.2-4.1s-5.6-4.3-7.5-7.2c-1-1.5-1.7-3.1-2.4-4.7
		c-0.6-1.7-1.2-3.5-1.5-5.3c-0.8-3.7-1.1-7.6-1-11.5l0.2-6.1c0.1-2,0.1-4.1,0.1-6.2c0.1-4.2,0-8.3-0.3-12.5s-0.8-8.4-2.1-12.5
		c-0.6-2-1.6-4-3-5.7s-3.3-2.8-5.2-3.5c1.7,1.1,3.2,2.5,4.2,4.2s1.6,3.6,1.8,5.5c0.7,3.9,0.5,7.9,0.4,12c-0.2,4-0.6,8.1-1,12.1
		c-0.2,2-0.4,4-0.7,6.1c-0.3,2-0.5,4.1-0.7,6.2c-0.4,4.3-0.4,8.6,0.2,13c0.3,2.2,0.8,4.4,1.5,6.6s1.6,4.3,2.8,6.4
		c1.2,2,2.6,4,4.3,5.7c1.7,1.7,3.5,3.2,5.5,4.5c3.9,2.6,8.2,4.2,12.4,5.5c3.7,1,7.3,1.7,11,2.2c-0.1,0.1-0.2,0.2-0.3,0.3
		c-0.4,0.5-0.9,1.1-1.4,1.7c-0.4,0.7-0.7,1.4-1.1,2.2c-0.2,0.8-0.5,1.7-0.7,2.6c-0.1,0.9-0.3,1.9-0.2,2.8c0.1,3.9,1.3,8.1,3.3,12.2
		s4.6,8.3,7.8,12.4c3.1,4.1,6.6,8.2,10.5,12.2s8,8,12.4,11.9c4.3,3.9,8.9,7.6,13.6,11.3c4.7,3.6,9.5,7.1,14.3,10.3
		c4.6,3,8.5,6.4,11.4,10.3s4.4,8.3,4.7,12.8c0.1,2.2-0.1,4.4-0.5,6.6c-0.4,2.1-1,4.2-1.7,6.1c-1.5,3.9-3.4,7.3-5.2,10.3
		c-1.9,2.9-3.7,5.4-5.2,7.5c-1.6,2-2.8,3.6-3.7,4.6c-0.9,1-1.4,1.6-1.4,1.6s0.6-0.4,1.7-1.3c1.1-0.8,2.7-2.1,4.6-3.8
		c1.9-1.7,4.2-3.9,6.5-6.7c2.3-2.8,4.9-6.1,7-10.2s3.9-9,4.1-14.6c0.2-5.6-1.4-11.7-4.8-16.8c-1.7-2.5-3.6-5-5.8-7
		c-1.1-1.1-2.3-2-3.4-3.1c-1.2-0.9-2.5-1.9-3.6-2.7c-4.7-3.3-9.2-6.7-13.8-10.3c-4.6-3.5-9-7.2-13.4-10.8c-4.3-3.7-8.5-7.3-12.4-11
		s-7.6-7.3-10.9-11c-3.2-3.7-6.1-7.2-8.4-10.8c-2.2-3.5-3.8-7-4.3-10.2s0.1-6,1.5-8c0.3-0.4,0.6-0.7,0.9-1.1
		c4.3,0.5,8.5,0.7,12.7,0.7c2.2,0,4.2,0,6.3,0h2.8c0.9,0,1.8,0.1,2.8,0.2c3.7,0.4,7.2,1.3,10.6,2.7c3.3,1.4,6.5,3.3,9.3,5.7
		c2.8,2.4,5.3,5.2,7.5,8.3c2.2,3.1,4,6.4,5.7,10c0.8,1.8,1.5,3.6,2.2,5.4c0.6,1.8,1.2,3.7,1.6,5.4l0,0l0.6,3.4l3.2-0.4
		c0.7-0.1,1.5-0.2,2.2-0.4c0.6-0.2,1.2-0.4,1.8-0.7l1.6-0.8l1.4-0.9c0.5-0.3,0.9-0.6,1.3-0.9s0.9-0.6,1.3-0.9c0.8-0.6,1.6-1.3,2.4-2
		c1.5-1.3,2.9-2.7,4.3-4.1c0.4-0.4,0.8-0.9,1.3-1.3l4.1,4.1l6.2-1.3c-0.2,0.3-0.1,0.1,0.3-0.2c0.4-0.2,0.9-0.5,1.5-0.8
		c1.3-0.5,2.7-0.9,4.3-1.2c3.1-0.6,6.4-1,9.6-1.2c1.6-0.1,3.3-0.2,5-0.3l2.5-0.1h0.6h0.3h0.1h0.4h0.2c0.9-0.1,1.4-0.3,2-0.5
		c2.3-0.8,4-2,5.6-3.3c1.5-1.3,2.9-2.7,4.1-4.2c0.6-0.7,1.2-1.6,1.7-2.3l0.7-1l0.2-0.3c0.2-0.2,0.2-0.3,0.2-0.4l0.4-0.7l0.8-1.5
		c0.2-0.5,0.4-1,0.5-1.5l0.5-1.5l0.3-1.4c0.2-1,0.4-1.9,0.5-2.8s0.2-1.9,0.2-2.8C568.9,312.5,568.9,310.7,568.8,308.9z M298.7,213.3
		c0.5-1.6,1-3.1,1.4-4.5c0.3,0.6,0.5,1.1,0.8,1.7c0.5,1,1.1,1.9,1.6,2.8c1.2,1.8,2.4,3.4,3.6,4.8c1.2,1.5,2.5,2.7,3.7,3.9
		c1.2,1.1,2.4,2,3.4,2.9c0.8,0.6,1.6,1.2,2.2,1.6c-1.1,4.8-1.9,9.6-2.4,14.5c-0.3,2.9-0.5,5.8-0.6,8.7l-0.1,4.4v2.6
		c-0.4-0.3-0.8-0.7-1.2-1c-1-0.8-2.1-1.8-3.3-2.9c-0.6-0.5-1.2-1.1-1.8-1.7c-0.6-0.6-1.2-1.2-1.8-1.9c-1.2-1.3-2.3-2.7-3.3-4.2
		s-1.9-3.1-2.6-4.8s-1.3-3.5-1.6-5.3C295.1,227.6,296.9,219.4,298.7,213.3z M293.4,265.2c-0.6-1.3-1-2.6-1.2-3.9
		c-0.5-2.6-0.1-5.3,0.7-7.7c0.5-1.8,1.2-3.3,1.8-4.6c0.2,0.2,0.4,0.4,0.5,0.6c1.6,1.7,3.2,3.1,4.9,4.3c0.8,0.6,1.7,1.1,2.5,1.6
		s1.6,0.9,2.4,1.3s1.6,0.7,2.3,1c0.7,0.3,1.5,0.5,2.1,0.7c1,0.3,1.9,0.6,2.7,0.8c-0.1,5.4,0,11,0,16.5c0.1,3.1,0.1,6.2,0.3,9.3
		c-0.2-0.2-0.4-0.3-0.6-0.5c-0.8-0.8-1.8-1.6-2.9-2.4c-1-0.9-2.2-1.8-3.3-2.8c-1.2-1-2.4-2-3.5-3.1c-0.6-0.5-1.2-1.1-1.8-1.7
		c-0.6-0.6-1.2-1.1-1.7-1.7c-0.6-0.6-1.1-1.2-1.6-1.8l-0.8-0.9l-0.7-1C294.7,267.8,294,266.5,293.4,265.2z M296.1,291.2
		c0.1-1.4,0.3-2.8,0.6-4.1c0.4-2,0.8-3.8,1.2-5.2c1.5,1,3,1.8,4.5,2.5s3,1.3,4.3,1.8c1.4,0.5,2.6,0.8,3.8,1.1
		c0.8,0.2,1.5,0.3,2.1,0.5c0.3,7.5,0.8,15,1.6,22.3c0.3,3.3,0.7,6.5,1,9.7c-0.4-0.3-0.8-0.6-1.2-0.9c-0.9-0.7-1.9-1.3-3-2.2
		c-0.5-0.4-1.1-0.8-1.7-1.2c-0.6-0.4-1.1-0.9-1.7-1.4c-0.6-0.4-1.2-0.9-1.7-1.5c-0.6-0.5-1.2-1-1.7-1.6c-1.1-1.1-2.2-2.2-3.2-3.4
		c-1-1.2-1.8-2.5-2.5-3.8s-1.3-2.7-1.6-4.1c-0.3-1.4-0.7-2.9-0.7-4.3C296,294.1,296,292.7,296.1,291.2z M311,385.6
		c-1.2,1.9-2.5,3.6-3.9,5.3c-0.6,0.9-1.4,1.6-2.1,2.5c-0.7,0.8-1.4,1.7-2.1,2.5c-2.5,3-4.8,6.2-6.6,9.4c-0.5-0.9-1-2-1.6-3.2
		c-0.5-0.9-0.9-1.9-1.4-2.9s-0.9-2.1-1.3-3.1c-0.4-1.1-0.8-2.2-1.1-3.3c-0.3-1.1-0.5-2.2-0.7-3.3c-0.1-1.1-0.2-2.2-0.1-3.3
		c0.1-1.1,0.2-2.2,0.4-3.2c0.4-2.1,1.1-4.2,1.8-6.1c0.7-1.8,1.5-3.4,2.1-4.6c0,0,0-0.1,0.1-0.1c1,0.7,2,1.3,3,1.9
		c0.8,0.4,1.6,0.8,2.4,1.2c0.8,0.4,1.6,0.7,2.4,0.9c1.5,0.6,3.1,0.9,4.4,1.3c1.4,0.3,2.7,0.5,3.8,0.7c1.1,0.2,2.2,0.2,3,0.2
		c0.5,0,1,0,1.4,0C313.8,381,312.5,383.3,311,385.6z M316.7,373.2c-0.4,1.5-0.9,3-1.5,4.5c-0.3-0.2-0.7-0.5-1.2-0.8
		c-0.7-0.5-1.5-1-2.4-1.7c-0.9-0.6-1.9-1.3-3.1-2.1c-1.1-0.8-2.3-1.5-3.5-2.4c-0.6-0.4-1.2-0.8-1.8-1.3c-0.6-0.5-1.2-0.9-1.8-1.4
		c-0.6-0.5-1.2-1-1.8-1.5c-0.6-0.5-1.1-1.1-1.7-1.6c-0.5-0.5-1-1.1-1.5-1.7c-0.4-0.6-0.9-1.1-1.2-1.7c-0.8-1.1-1.3-2.4-1.7-3.6
		c-0.4-1.2-0.5-2.5-0.6-3.9c0-2.7,0.7-5.4,1.6-7.8c0.4-1.1,0.8-2.1,1.2-3.1c1.3,0.7,2.6,1.2,3.8,1.6c1.7,0.5,3.3,0.9,4.9,1
		c1.6,0.2,3,0.2,4.4,0.2c1.3,0,2.6-0.2,3.6-0.3c1.1-0.1,2-0.3,2.8-0.5c1.5-0.3,2.4-0.6,2.4-0.6s-0.8-0.4-2.2-1
		c-0.7-0.3-1.6-0.6-2.5-1c-1-0.4-2.1-0.8-3.2-1.3s-2.4-0.9-3.6-1.5c-1.3-0.5-2.5-1.2-3.8-1.8c-0.6-0.4-1.2-0.7-1.8-1
		c-0.5-0.4-1.2-0.7-1.7-1.2c-1.1-0.8-2-1.7-2.8-2.6s-1.4-1.9-1.9-3.1c-0.4-1.1-0.8-2.3-1-3.6c-0.4-2.5-0.2-5.2,0.1-7.6
		c0.3-2.4,0.7-4.5,0.9-6c0.1-0.3,0.1-0.5,0.1-0.7c0.3,0.3,0.5,0.6,0.8,0.8c0.7,0.8,1.5,1.5,2.3,2.1c0.8,0.7,1.6,1.2,2.4,1.7
		c0.8,0.6,1.6,1,2.4,1.4s1.6,0.9,2.4,1.2c0.8,0.3,1.6,0.6,2.3,0.9c0.8,0.2,1.5,0.4,2.2,0.7c1.4,0.4,2.7,0.6,3.9,0.9
		c1,0.2,1.8,0.3,2.6,0.3c0.8,7.1,1.6,14.1,2.3,20.9C318.7,353.7,319.2,364.1,316.7,373.2z M316.1,223.7c-0.2-0.3-0.3-0.6-0.5-0.9
		c-0.6-1.1-1.4-2.4-2.1-3.7c-0.7-1.4-1.6-2.8-2.3-4.4c-0.8-1.5-1.5-3.2-2.3-4.8c-0.3-0.9-0.7-1.7-1.1-2.6c-0.3-0.9-0.6-1.7-0.9-2.6
		c-0.2-0.9-0.5-1.8-0.7-2.7s-0.4-1.8-0.5-2.7c-0.3-1.8-0.3-3.5-0.3-5.2c0.1-1.7,0.4-3.4,0.9-5s1.1-3.1,1.9-4.5s1.6-2.7,2.5-3.9
		c1.3-1.7,2.5-3.2,3.6-4.4c0.2,1.2,0.6,2.4,0.9,3.6c0.3,1.1,0.7,2.2,1.1,3.3s0.8,2.1,1.3,3s0.9,1.9,1.4,2.8c0.5,0.8,1,1.7,1.5,2.5
		c0.9,1.6,2,2.9,2.8,4.1c0.9,1.2,1.7,2.1,2.5,2.9l0.1,0.1c-1.6,3.1-3.1,6.2-4.4,9.5C319.2,213,317.5,218.3,316.1,223.7z
		 M337.2,180.5c-3.8,4.9-7.4,10.2-10.5,16c-0.2-0.8-0.5-1.6-0.7-2.5c-0.4-1.4-0.9-2.9-1.3-4.6c-0.2-0.8-0.5-1.7-0.7-2.6
		c-0.2-0.9-0.4-1.8-0.7-2.7c-0.2-0.9-0.5-1.9-0.6-2.9c-0.2-1-0.4-2-0.5-3c-0.3-2-0.5-4.1-0.6-6.1c0-1,0-2.1,0-3.1c0-0.5,0-1,0.1-1.5
		l0.2-1.5c0.1-1,0.4-2,0.6-3c0.3-0.9,0.5-1.9,0.9-2.8c0.7-1.9,1.6-3.6,2.6-5.2c1-1.6,2.2-3.1,3.4-4.5c1.2-1.4,2.5-2.6,3.8-3.7
		c1.5-1.3,3-2.5,4.3-3.4l-0.1,0.4c-0.3,1.2-0.2,2.3-0.3,3.4c-0.1,2.3,0.1,4.4,0.5,6.5c0.1,1,0.4,2,0.7,3c0.2,1,0.5,1.9,0.8,2.7
		c0.3,0.9,0.6,1.7,0.9,2.5c0.4,0.8,0.7,1.5,1.1,2.3c0.7,1.5,1.5,2.7,2.1,3.8s1.3,2,1.9,2.7c0.1,0.2,0.2,0.3,0.3,0.5
		C342.6,174.1,339.8,177.2,337.2,180.5z M357.1,160.5c-3.5,2.9-7.1,6-10.6,9.5c-0.1-0.9-0.3-1.9-0.4-3.1c-0.1-1.2-0.4-2.6-0.6-4.1
		s-0.4-3.1-0.5-4.7c-0.1-0.8-0.2-1.7-0.2-2.5c0-0.9-0.2-1.7-0.1-2.6c0-0.9,0-1.8,0-2.6c0.1-0.9,0.1-1.8,0.2-2.6
		c0.1-0.9,0.2-1.7,0.4-2.6l0.2-1.3l0.4-1.2c0.2-0.8,0.6-1.6,0.8-2.3c0.4-0.7,0.7-1.5,1.1-2.2s0.9-1.4,1.3-2c0.5-0.6,1-1.3,1.6-1.8
		c2.2-2.4,4.9-4.2,7.3-5.7c2.4-1.4,4.7-2.4,6.3-3.2c0,0.2-0.1,0.4-0.1,0.5c-0.3,1.2-0.3,2.4-0.4,3.6c-0.1,1.2-0.1,2.3,0,3.5
		c0,1.1,0.1,2.2,0.2,3.3c0.1,1,0.2,2.1,0.4,3c0.2,1,0.4,1.9,0.6,2.8c0.4,1.8,1,3.3,1.4,4.7s1,2.5,1.4,3.5c0.3,0.6,0.5,1.2,0.7,1.6
		C365,154.5,361.1,157.3,357.1,160.5z M393.2,139.2c-4.7,1.9-10.2,4.5-16.4,8c-2.3,1.3-4.7,2.7-7.2,4.3c0-0.4,0-0.9,0-1.4
		c0-1,0-2.3,0.1-3.7s0-3,0.2-4.7c0-0.8,0.1-1.7,0.1-2.6c0.1-0.9,0.2-1.8,0.3-2.8c0-0.5,0.1-0.9,0.1-1.4c0.1-0.5,0.1-1,0.2-1.4
		c0.2-1,0.2-2,0.5-2.9c0.4-1.9,0.9-3.9,1.6-5.7l0.5-1.4c0.2-0.4,0.4-0.9,0.6-1.3c0.4-0.9,0.9-1.7,1.4-2.5c1.1-1.6,2.3-3,3.7-4.2
		c1.4-1.2,3-2.2,4.7-3.1c3.4-1.7,7.1-2.7,10.3-3.3c3.2-0.7,6.1-0.9,8.1-1.2c-0.2,0.2-0.3,0.5-0.5,0.7c-1.4,2.1-2.3,4.2-3.1,6.3
		c-0.4,1.1-0.7,2.1-0.9,3.1c-0.2,1-0.4,2-0.6,3c-0.1,1-0.2,2-0.3,2.9c0,0.9-0.1,1.8-0.1,2.7c0,1.7,0.2,3.3,0.4,4.6
		c0.2,1.4,0.5,2.5,0.7,3.5c0.3,1.2,0.6,2.1,0.8,2.6C397,137.7,395.2,138.4,393.2,139.2z M426.9,111.6c-0.7,0.3-1.5,0.7-2.2,1.2
		c-1.4,0.8-2.7,1.7-4,2.6c-1.3,1-2.5,2-3.7,3s-2.3,2.2-3.4,3.3c-1.1,1.1-2.1,2.3-3,3.5c-1,1.2-1.9,2.4-2.8,3.7
		c-0.9,1.2-1.7,2.5-2.5,3.8c-0.5,0.9-1,1.8-1.5,2.7c-1.4,0.4-3,1-5,1.7c0.1-0.5,0.3-1.3,0.5-2.5c0.4-1.9,1.1-4.5,2-7.4
		c0.5-1.5,1-3.1,1.6-4.7c0.3-0.8,0.7-1.6,1-2.4c0.4-0.8,0.8-1.6,1.2-2.4c0.5-0.8,0.8-1.6,1.4-2.4l0.8-1.1c0.2-0.4,0.5-0.8,0.8-1.1
		c0.5-0.7,0.9-1.3,1.7-2.1l1.1-1.2l0.2-0.2l0,0l0.1-0.1l0.1-0.1l0.5-0.5c0.7-0.7,1.4-1.4,2.1-2c0.8-0.6,1.5-1.2,2.2-1.8
		c0.8-0.5,1.5-1,2.3-1.5s1.6-0.9,2.3-1.3c1.6-0.8,3.2-1.4,4.7-1.9c1.6-0.5,3.1-0.8,4.6-1c0.7-0.1,1.5-0.1,2.1-0.2
		c0.7,0,1.4-0.1,2-0.1c0.8,0,1.5,0,2.2,0.1c-0.3,0.2-0.5,0.5-0.8,0.7c-1.9,1.9-3.1,3.9-4,5.8c-0.9,1.8-1.4,3.5-1.8,4.9
		c-0.3,0.1-0.5,0.2-0.8,0.3C428.4,110.9,427.7,111.2,426.9,111.6z M443.9,135.3c0-0.7,0-1.5,0-2.3c-0.1-0.5-0.1-1.1-0.2-1.5
		l-0.2-1.2c-0.1-0.6-0.2-1.1-0.2-1.8c-0.1-1.2-0.1-2.4,0.1-3.6s0.4-2.5,0.8-3.7c0.3-1.2,0.8-2.4,1.3-3.6c0.3-0.6,0.5-1.2,0.8-1.7
		s0.6-1.2,0.9-1.5l4-6.3H444c-1.7,0-3.3-0.1-5,0.2c-1.7,0.1-3.3,0.5-4.9,0.8l-1.4,0.4c1.5-2,3.5-4.3,6.3-6.2
		c1.8-1.2,3.8-2.1,6.1-2.6c2.3-0.6,4.8-0.7,7.4-0.6c2.6,0.2,5.3,0.7,8.1,1.5c0.7,0.2,1.4,0.4,2,0.6c0.7,0.2,1.3,0.4,2.1,0.7l2.2,0.8
		l0.8,0.4l0.9,0.4c1.1,0.6,2.1,1.2,2.7,1.9c0.6,0.7,1,1.3,1.2,2c0.4,1.5-0.3,3.9-1.4,6.2c-1.2,2.3-2.7,4.5-4.3,6.6
		c-1.6,2.1-3.2,4-4.7,5.7c-3.1,3.5-5.8,6.3-7.7,8.4c-1.1,1.1-1.9,1.9-2.4,2.5c-0.2-0.1-0.3-0.1-0.5-0.2
		C448.8,136.6,446.3,135.9,443.9,135.3z M466.7,144.5c-1-0.6-2-1.1-3-1.6c-2-1.1-4.1-2-6.1-2.9c-1.7-0.8-3.5-1.5-5.3-2.1
		c0.7-0.3,1.6-0.8,2.8-1.4c2.5-1.3,6-3.3,10-6.2c2-1.4,4-3.1,6.1-5.1s4.1-4.2,6-7.1c0.6-1,1.2-2,1.7-3.1c0.2,0,0.3-0.1,0.5-0.1
		c1.3-0.2,2.7-0.4,4.2-0.3s3,0.5,4.5,1.1c0.7,0.4,1.2,0.5,2.2,1.2l0.7,0.4l0.3,0.2l0.2,0.1c-0.4-0.2-0.1,0-0.2-0.1l0,0l0,0l0.1,0.1
		c0.4,0.3,0.7,0.6,1.1,0.8c1.4,1.1,2.6,2.4,3.1,3.6c0.4,1.1,0.5,2.1,0,3.6c-0.5,1.4-1.5,3-2.7,4.6c-1.2,1.5-2.7,3-4.1,4.5
		c-2.9,2.8-6,5.4-8.6,7.6c-2.7,2.2-4.9,4.1-6.4,5.4c-0.3,0.2-0.5,0.5-0.8,0.7c-1-0.7-2.1-1.4-3.1-2.1
		C468.7,145.6,467.7,145,466.7,144.5z M485.8,159c-1.6-1.6-3.4-3.2-5.1-4.7c-1.8-1.5-3.6-2.9-5.4-4.3c-0.4-0.3-0.9-0.6-1.3-0.9
		c0.1,0,0.2,0,0.3-0.1c2-0.5,4.9-1.4,8.1-2.8c3.3-1.4,7-3.3,10.8-6.1c1.9-1.4,3.7-2.9,5.5-4.8c1.4-1.5,2.8-3.3,3.8-5.5
		c0.4,0.3,0.9,0.6,1.4,1c0.5,0.3,1,0.7,1.5,1c0.5,0.4,1,0.8,1.5,1.2c0.3,0.2,0.5,0.4,0.8,0.6c0.2,0.2,0.5,0.5,0.8,0.7
		c0.5,0.5,1.1,0.9,1.5,1.4c0.2,0.3,0.5,0.5,0.7,0.7s0.4,0.5,0.6,0.8c0.4,0.5,0.6,1,0.8,1.5c0.3,1,0.3,1.8,0.1,2.8
		c-0.3,1-0.9,2.3-1.8,3.5c-0.8,1.3-1.9,2.5-3.1,3.7c-1.1,1.2-2.4,2.4-3.6,3.5c-2.5,2.3-4.9,4.4-7,6.3c-2.1,1.9-3.9,3.5-5.1,4.7
		c-0.3,0.3-0.6,0.6-0.9,0.9c0,0,0,0-0.1-0.1C489,162.3,487.5,160.6,485.8,159z"/>
	<polygon points="461.7,357.5 463,358.6 482.8,324 481.4,323.2 	"/>
	<g>
		<path d="M691.4,302.1c-0.9-3.5-2.7-6.7-5.3-9.3c-0.3-0.3-0.6-0.6-1-0.9l-1.2-0.9c-0.9-0.7-1.1-0.7-2.1-1.4l-3.7-2.2
			c-10-5.7-20.1-11.4-29.9-17c-9.9-5.6-19.7-11-29.1-16.3c-9.4-5.3-18.6-10.3-27.3-15c-8.7-4.8-17-9.2-24.6-13.3c-1.9-1-3.8-2-5.6-3
			c-0.9-0.5-1.7-1-2.8-1.5c-1-0.5-2.1-0.9-3.1-1.2c-4.3-1.2-8.6-0.6-12.1,0.9c-1.8,0.8-3.3,1.8-4.6,3.1c-0.7,0.6-1.2,1.3-1.8,1.9
			c-0.5,0.7-1,1.4-1.4,2.1c-1.5,2.8-2.7,5.2-3.9,7.5c-2.2,4.3-4,7.5-5.3,9.9c-0.1,0.1,0.5,0.8,0.6,0.7c1.5-2.3,3.5-5.7,6.1-9.8
			c1.4-2.1,2.8-4.6,4.5-7c0.4-0.7,0.9-1.2,1.4-1.7s1-1.1,1.6-1.5c1.2-0.9,2.5-1.7,4-2.3c3-1.1,6.5-1.3,9.8-0.1
			c0.8,0.3,1.6,0.7,2.4,1.1c0.8,0.4,1.7,1,2.6,1.5c1.8,1.1,3.6,2.2,5.4,3.3c7.4,4.5,15.4,9.4,23.9,14.5s17.4,10.5,26.8,16
			c9.3,5.5,18.9,11.2,28.7,16.9c9.8,5.7,19.8,11.5,29.8,17.2l3.8,2.1c0.2,0.1,1.3,0.8,1.5,1l0.5,0.4c0.2,0.2,0.4,0.4,0.6,0.5
			c1.6,1.5,2.6,3.4,3.2,5.5c0.5,2.1,0.5,4.3-0.1,6.4c-0.1,0.5-0.4,1-0.5,1.5l-0.4,0.7c-0.1,0.2-0.2,0.5-0.4,0.8l-2.1,3.7
			c-5.6,9.8-11,19.7-16.3,29.1s-10.3,18.6-15,27.3c-4.8,8.7-9.2,16.9-13.3,24.6c-8.2,15.2-14.8,28-19.5,37c-2.3,4.5-4.1,8-5.3,10.5
			c-1.2,2.4-1.9,3.7-1.9,3.7s0.8-1.2,2.3-3.5s3.7-5.6,6.3-9.9c5.4-8.5,13.1-20.7,22.1-35.5c4.5-7.4,9.4-15.4,14.5-23.9
			s10.5-17.4,16-26.8c5.5-9.3,11.2-18.9,16.9-28.7l2.1-3.7c0.2-0.3,0.4-0.7,0.6-1.1l0.6-1.2c0.3-0.8,0.7-1.6,0.9-2.5
			C692.2,309.3,692.2,305.6,691.4,302.1z"/>
		<path d="M566.2,350.3c0,0-8.8,4.8-17.1,8.8c-4.5,2.1-7.9,3.3-11.8,4.7c-7.8,2.7-11.2,9.4-10,13c1.3,3.6,9,9.4,15.8,5
			c0,0-7.1,11.3-11.4,12.8c-0.1,0-0.2,0.2,0,0.3l8.1,5.2c0.1,0.1,0.3,0,0.3-0.2c-0.4-4.6,7-15.6,7-15.6c-1.2,8,7.3,12.7,11.1,12.3
			c3.8-0.3,8.5-5.4,8-14c-0.1-3.3-0.2-8.8-0.2-13.1C566,359.8,566.2,350.3,566.2,350.3z"/>
		<path d="M663,304.8c0,0-4.5,2.5-8.8,4.5c-2.3,1.1-4,1.7-6,2.4c-4,1.4-5.7,4.8-5.1,6.6s4.6,4.8,8.1,2.6c0,0-3.6,5.8-5.8,6.5
			c-0.1,0-0.1,0.1,0,0.2l4.2,2.7c0.1,0,0.1,0,0.1-0.1c-0.2-2.3,3.6-8,3.6-8c-0.6,4.1,3.7,6.5,5.7,6.3c1.9-0.2,4.3-2.8,4.1-7.1
			c0-1.7-0.1-4.5-0.1-6.7C662.8,309.7,663,304.8,663,304.8z"/>
	</g>
</g>
<g id="etching">
</g>
</svg>
