<svg version="1.1" id="Layer_1" xmlns="http://www.w3.org/2000/svg" xmlns:xlink="http://www.w3.org/1999/xlink" x="0px" y="0px"
	 viewBox="0 0 836.9 576" style="enable-background:new 0 0 836.9 576;" xml:space="preserve">
<g>
	<g>
		<g>
			<ellipse transform="matrix(0.9774 -0.2116 0.2116 0.9774 -45.6645 53.4926)" cx="227.1" cy="240.1" rx="15.1" ry="6.5"/>
			<ellipse transform="matrix(0.9883 -0.1525 0.1525 0.9883 -44.7807 34.1739)" cx="200.4" cy="309" rx="14.3" ry="12.5"/>
			<ellipse transform="matrix(0.9883 -0.1525 0.1525 0.9883 -49.5213 43.3725)" cx="258" cy="344.5" rx="14.3" ry="12.5"/>
			<path d="M307.4,241.3l-10.6-36.2l0,0l0,0c0-0.2-0.2-0.3-0.3-0.3L180,220.1c-0.6,0.1-1.1,0.4-1.3,1v0.1L154.4,276
				c-0.3,0.6-0.4,1.4-0.3,2.1c0.1,0.4,28.2,91.5,28.2,91.5l0.6-0.2l-20.3-88.8l112.5-17.4l31.1,106h0.2l-27.9-108l18.1-55.2
				l9.9,36.9L307.4,241.3z M183.7,222.3l112.5-16.8l-21.1,53.8l-111.2,13.5L183.7,222.3z"/>
		</g>
		<path d="M574.9,234.7c-0.1-1.7-0.2-3.4-0.4-5.1c-0.2-1.7-0.4-3.4-0.7-5c-0.3-1.7-0.6-3.3-0.9-5c-0.3-1.7-0.7-3.3-1.1-5l0,0
			l-0.4-1.7l-1.8-0.6c-1.4-0.5-3.1-1.2-4.6-2c-1.6-0.8-3.1-1.7-4.5-2.6l-2.1-1.5l-2.1-1.6l-2-1.7l-1.9-1.9c-1.2-1.3-2.3-2.6-3.4-4
			l-0.8-1l-0.7-1.1c-0.4-0.7-0.9-1.3-1.4-2.2l-2.7-4.9c-0.9-1.8-2-3.4-3-5.1c-1.1-1.6-2.1-3.3-3.2-4.8c-1.1-1.6-2.2-3.1-3.4-4.6
			c-2.4-3-4.8-6-7.3-8.9s-5.1-5.7-7.7-8.4c-1.3-1.4-2.7-2.7-4-4.1c-0.6-0.6-1.2-1.2-1.8-1.7l6.4-9.9l0,0l0.9-1.4l-0.4-1.4
			c-0.6-2.1-1.1-4.3-1.8-6.4c-0.7-2.1-1.3-4.2-2.1-6.3s-1.6-4.1-2.5-6.1s-1.9-4-2.9-6s-2.1-3.9-3.3-5.8s-2.4-3.7-3.6-5.5
			c-1-1.6-2.2-3.1-3.3-4.5c1.6-0.3,4.3-0.9,7.5-2.2c2.6-1,5.6-2.4,8.6-4.4c1.5-1,3-2.1,4.5-3.4s2.9-2.8,4.1-4.5
			c1.2-1.8,2.4-3.8,2.8-6.4c0.5-2.5-0.1-5.4-1.4-7.4c-0.7-1-1.4-1.9-2.2-2.5c-0.8-0.7-1.6-1.3-2.3-1.7c-0.8-0.5-1.6-0.8-2.3-1.2
			c-0.4-0.2-0.7-0.3-1.1-0.5c-0.4-0.1-0.7-0.2-1.1-0.3c-0.7-0.2-1.4-0.4-2-0.6c-0.6-0.1-1.3-0.2-1.8-0.3c-0.6-0.1-1.1-0.2-1.6-0.2
			c0.2-0.5,0.3-1.1,0.4-1.7l0.2-1.2c0-0.4,0-0.8,0-1.2c0-1.7-0.6-3.3-1.3-4.7c-0.3-0.7-0.8-1.3-1.3-1.9c-0.4-0.6-1-1-1.5-1.5
			s-1-0.9-1.5-1.3c-0.5-0.4-1-0.8-1.6-1c-0.5-0.3-1-0.6-1.6-0.9l-0.4-0.2l-0.2-0.1l-0.4-0.1l-0.7-0.3c-0.8-0.4-2.2-0.7-3.3-1
			c-2.3-0.4-4.4-0.3-6.3,0.1c-1.1,0.3-2,0.6-2.9,1c0.2-1.2,0.2-2.5,0-3.8c-0.3-2.2-1.5-4.4-2.9-5.9c-1.5-1.6-3.1-2.7-4.7-3.5
			l-1.2-0.6l-1.3-0.5l-2.1-0.7c-0.7-0.3-1.5-0.5-2.3-0.7s-1.6-0.5-2.4-0.6c-3.1-0.7-6.4-1.1-9.5-1c-3.2,0.1-6.3,0.7-9,1.9
			c-1.7,0.7-3.2,1.6-4.5,2.6c0,0,0,0-0.1,0c-0.4-0.2-0.9-0.5-1.4-0.8s-1.1-0.5-1.7-0.8c-0.6-0.2-1.3-0.5-2-0.7s-1.5-0.4-2.4-0.6
			c-0.8-0.1-1.7-0.3-2.7-0.3c-0.9,0-1.9-0.1-2.9,0c-2,0.1-4.1,0.5-6.2,1.2s-4.1,1.7-6.1,2.9c-0.9,0.6-1.9,1.3-2.8,2
			s-1.7,1.5-2.5,2.3l-0.6,0.6l-0.2,0.1l-0.1,0.1l0,0l-0.2,0.2l-0.3,0.3l-1,1.2c-0.2,0.2-0.5,0.5-0.7,0.8c-0.2-0.1-0.4-0.2-0.6-0.2
			c-1-0.3-2.1-0.8-3.5-1c-1.4-0.3-3-0.6-4.7-0.8c-3.5-0.3-7.8-0.2-12.3,1.3c-2.2,0.8-4.5,1.9-6.6,3.4s-3.9,3.5-5.4,5.7
			c-0.6,1.1-1.4,2.2-1.8,3.4c-0.3,0.6-0.5,1.2-0.8,1.8l-0.5,1.8c-0.2,0.5-0.3,1-0.4,1.5c-0.1,0-0.3,0-0.4,0
			c-1.8-0.2-4.4-0.2-7.5,0.4s-6.7,1.9-10.1,4.5c-1.7,1.3-3.3,2.9-4.5,4.8c-0.7,0.9-1.2,1.9-1.7,3c-0.4,1.1-0.9,2.1-1.2,3.2V74
			c-0.8,0.1-1.7,0.3-2.6,0.6c-1.4,0.4-3,0.9-4.6,1.6c-1.6,0.8-3.4,1.7-5.1,2.9c-1.7,1.2-3.4,2.7-5,4.6c-1.5,1.8-2.9,3.9-4,6.2
			c-0.6,1.1-0.9,2.4-1.4,3.6c-0.3,1.2-0.7,2.5-0.8,3.8l-0.2,1.9c0,0.6,0,1.3-0.1,1.9c-0.1,1.3,0.1,2.5,0.1,3.7
			c0,0.4,0.1,0.8,0.1,1.2c-1.7,0.6-3.9,1.6-6.3,3.3c-1.3,1-2.7,2.2-4,3.6c-1.3,1.5-2.5,3.2-3.4,5.2c-0.9,2-1.6,4.2-1.9,6.5
			s-0.3,4.7,0.1,7c0.1,1.2,0.5,2.2,0.7,3.4c0.2,0.5,0.3,1.1,0.5,1.6c-1.3,1.3-2.7,3-4.2,5.3c-1.8,2.8-3.7,6.3-4.8,10.4
			c-0.6,2.1-1,4.3-1.2,6.6c-0.1,2.3,0,4.7,0.5,7.1c0.5,2.4,1.2,4.7,2.4,6.8c0.3,0.5,0.5,1.1,0.8,1.6s0.7,1,1,1.5
			c0.1,0.1,0.1,0.2,0.2,0.3c-1.3,0.9-2.8,2.1-4.3,4c-0.9,1.2-1.8,2.6-2.4,4.3c-0.7,1.7-1.1,3.6-1.1,5.6s0.3,4.2,1,6.2
			s1.7,3.9,2.9,5.5l0.9,1.2l1,1.1c0.6,0.8,1.4,1.4,2.1,2.1c0.7,0.7,1.4,1.2,2.2,1.8c0.2,0.1,0.3,0.3,0.5,0.4
			c-1.1,1.1-2.4,2.6-3.6,4.5c-1.5,2.4-2.9,5.7-3.3,9.5c-0.2,1.9-0.2,4,0.2,6c0.3,2.1,1.1,4.1,2.1,6c0.7,1.2,1.4,2.3,2.3,3.4
			c-0.2,0.2-0.5,0.5-0.8,0.7c-1.1,1.1-2.5,2.7-3.8,5s-2.5,5.3-2.7,9c-0.1,1.8,0.1,3.8,0.7,5.7c0.6,2,1.7,3.8,2.9,5.4
			c0.9,1.1,2,2,3.1,2.9c-0.7,0.6-1.5,1.4-2.3,2.3c-0.9,1.1-1.9,2.3-2.7,3.9c-0.8,1.5-1.5,3.2-1.8,5.2c-0.3,1.9-0.4,4.1,0,6.2
			c0.5,2.1,1.3,4.2,2.5,6c0.6,0.9,1.3,1.7,1.9,2.5c0.7,0.7,1.4,1.5,2.2,2.1c0.2,0.1,0.3,0.3,0.5,0.4c-1.2,0.5-2.8,1.4-4.4,2.8
			c-1.7,1.5-3.5,3.6-4.7,6.3c-0.6,1.4-1.1,2.9-1.3,4.5c-0.3,1.6-0.2,3.3-0.1,4.9c0.2,1.6,0.6,3.2,1.2,4.7c0.3,0.7,0.6,1.4,1,2.1
			s0.7,1.3,1.1,1.9c0.8,1.2,1.7,2.2,2.6,3.2c0.9,0.9,1.8,1.7,2.7,2.3c0.9,0.7,1.7,1.2,2.5,1.6c0.5,0.3,0.9,0.5,1.3,0.7
			c-1.6,3.3-2.8,6.7-3.4,10c-1.5,7.2-0.2,14,2.2,18.7c2.4,4.7,5.5,7.5,7.6,9.1c1.1,0.8,2,1.3,2.6,1.6c0.6,0.3,0.9,0.5,0.9,0.5
			s-0.2-0.3-0.6-0.8c-0.4-0.6-1-1.4-1.6-2.5c-1.4-2.2-3.1-5.4-4.2-9.7c-1.2-4.3-1.5-9.6-0.2-15.5c1.4-5.9,4.5-12.4,9.1-18.7
			c0.6-0.8,1.2-1.7,1.9-2.5c0.6-0.9,1.3-1.7,1.9-2.7c1.3-1.8,2.5-3.8,3.6-5.8c2.2-4.1,4.1-8.6,5.3-13.4c1.2-4.8,1.8-9.8,2-14.9
			c0.1-5.1,0-10.2-0.2-15.4c-0.5-10.3-1-21-1.5-31.8c-0.4-10.8-0.9-21.7-1.2-32.6c-0.2-5.5-0.3-10.9-0.4-16.4v-4.1v-4
			c0.1-2.7,0.2-5.3,0.4-7.9c0.9-10.5,3-20.7,6.5-30.1c3.5-9.4,8.2-18,13.6-25.5s11.4-14,17.5-19.4c12.2-10.9,24.1-17.8,32.7-22.1
			c3.9-1.9,7.1-3.3,9.5-4.3c-0.1,0.2-0.3,0.5-0.4,0.7c-0.7,1.3-1.4,2.5-2,3.9c-0.6,1.3-1.2,2.6-1.7,3.9c-0.6,1.3-1.1,2.6-1.6,4
			c-1,2.7-1.8,5.4-2.4,8.2c1.4-2.5,2.9-4.9,4.4-7.3s3-4.7,4.7-7c1.6-2.3,3.2-4.5,5-6.6c0.9-1,1.8-2.1,2.7-3.1c0.9-1,1.9-2,2.8-3
			s1.9-1.9,2.9-2.8s2-1.8,3.1-2.5c1-0.8,2.1-1.5,3.2-2.3c1.1-0.7,2.2-1.4,3.3-1.9c0.6-0.3,1.1-0.6,1.7-0.8s1.1-0.5,1.7-0.7
			s1.2-0.4,1.8-0.6l1.8-0.5c0.4-0.1,0.8-0.1,1.2-0.2c-0.3,0.8-0.5,1.6-0.7,2.5c-0.4,1.6-0.7,3.2-0.8,4.8c-0.1,1.6-0.1,3.3,0.1,5
			c0.1,0.8,0.3,1.7,0.5,2.5l0.2,0.9l0.1,0.7c0.1,1.1,0.2,2.3,0.1,3.6c-0.1,2.5-0.6,5.1-1.2,7.7c-0.7,2.6-1.5,5.1-2.7,7.5
			c-1.1,2.4-2.5,4.7-4.2,6.7c-0.8,1-1.7,2-2.7,2.9s-2.1,1.6-3.3,2.3c-1.2,0.6-2.4,1.2-3.8,1.6c-1.3,0.5-2.7,0.6-4.1,0.8
			c1.4,0.3,2.9,0.4,4.3,0.3c1.5,0,2.9-0.4,4.4-0.8c1.4-0.4,2.8-1,4.2-1.8c1.3-0.8,2.6-1.6,3.7-2.6c1.2-1,2.2-2.1,3.2-3.3
			c1-1.2,1.9-2.4,2.7-3.7c0.9-1.3,1.6-2.6,2.2-3.9c0.7-1.4,1.3-2.7,1.8-4.2c1-2.9,1.8-5.8,2.2-8.9c0.1-0.6,0.1-1.3,0.2-1.9
			c2.2,0.9,4.3,1.8,6.4,2.8c1.9,0.9,3.8,1.9,5.6,3s3.6,2.2,5.4,3.4c1.7,1.2,3.4,2.4,5.1,3.7c1.7,1.3,3.3,2.6,4.8,4
			c1.6,1.4,3,2.9,4.5,4.3c1.4,1.5,2.8,3,4.1,4.7c1.4,1.6,2.6,3.2,3.9,4.8c1.2,1.7,2.6,3.2,3.7,5c1.2,1.7,2.2,3.5,3.3,5.2
			c1,1.8,2,3.6,2.9,5.5c0.9,1.9,1.8,3.7,2.5,5.7c0.8,1.9,1.5,3.9,2.2,5.8c0.7,1.9,1.2,4,1.9,5.9c0.4,1.5,0.8,3,1.1,4.5l-7.7,11.1
			l-1.8,2.7l2.5,2.4l0,0c1.3,1.2,2.7,2.5,4,3.8l3.9,3.9c2.6,2.6,5.1,5.3,7.6,8c2.4,2.8,4.9,5.5,7.1,8.4c1.2,1.4,2.2,2.9,3.3,4.4
			s2.1,3,3.1,4.5c0.9,1.5,2,3,2.8,4.6l2.7,4.9c0.5,0.8,1.1,1.7,1.7,2.6c0.6,0.9,1.2,1.7,1.8,2.5c1.2,1.6,2.6,3.1,3.9,4.6l2.2,2.1
			l2.3,2c0.8,0.6,1.6,1.2,2.4,1.8c0.8,0.6,1.6,1.1,2.5,1.7c1.7,1.1,3.4,2.1,5.2,2.9c1.3,0.6,2.5,1.2,3.9,1.7c0.2,1,0.4,2,0.6,3
			c0.3,1.6,0.5,3.1,0.7,4.7c0.2,1.6,0.4,3.1,0.5,4.7c0.1,1.6,0.2,3.1,0.3,4.7c0,1.5,0,3.1-0.1,4.6c0,0.8-0.1,1.5-0.2,2.2
			c-0.1,0.7-0.2,1.4-0.4,2.1l-0.2,1l-0.3,0.9c-0.1,0.3-0.2,0.6-0.3,0.9l-0.4,0.7l-0.2,0.4l-0.1,0.1l-0.2,0.2l-0.7,1
			c-0.5,0.7-0.9,1.1-1.3,1.7c-0.9,1.1-1.9,2.1-3,3c-1,0.8-2.1,1.5-3,1.8c-0.6,0.2-0.1,0.1-1.3,0.1l-2.5,0.1c-1.7,0.1-3.3,0.2-5,0.3
			c-3.4,0.3-6.7,0.6-10.2,1.3c-1.7,0.4-3.5,0.8-5.3,1.5c-0.8,0.3-1.6,0.7-2.4,1.2l-0.2-0.2c0-0.1,0-0.1,0-0.2
			c-0.3-1.6-0.9-3.3-1.7-5c-0.4-0.9-0.8-1.7-1.3-2.6s-1-1.7-1.6-2.5c-1.1-1.6-2.4-3.1-3.7-4.4c-1.3-1.3-2.7-2.4-4-3.2
			c-1.3-0.9-2.4-1.5-3.3-1.9c-0.9-0.4-1.4-0.6-1.4-0.6s0,0.6,0.2,1.5s0.5,2.2,1,3.7c0.5,1.4,1.2,3,2,4.6c0.4,0.8,0.9,1.6,1.4,2.4
			s1,1.6,1.5,2.4c0.5,0.7,1,1.4,1.6,2.1c-0.5,0.6-1,1.2-1.6,1.8l-1.8,1.9c-1.2,1.3-2.4,2.5-3.7,3.6c-0.6,0.6-1.3,1.1-1.9,1.6
			c-0.3,0.3-0.6,0.5-1,0.7c-0.3,0.2-0.6,0.5-1,0.7l-0.5,0.3c-0.2-0.7-0.4-1.4-0.6-2.1c-0.6-2-1.2-4-2-5.9c-1.5-3.9-3.4-7.6-5.7-11.2
			s-5.1-6.9-8.4-9.7c-3.2-2.9-6.9-5.3-11-7.1c-4-1.7-8.3-2.8-12.6-3.3c-1.1-0.1-2.2-0.2-3.2-0.3h-3.2c-1.9,0-3.9,0.1-5.8,0.1
			c-7.6,0-15.3-0.6-22.3-2.3c-3.5-0.9-6.9-2.2-9.8-3.9c-2.9-1.8-5.3-4.1-7.2-6.9c-0.9-1.4-1.7-2.9-2.3-4.6c-0.6-1.6-1.1-3.3-1.4-5.1
			c-0.7-3.5-1-7.2-1-11l0.2-5.8c0.1-2,0.1-3.9,0.1-5.9c0.1-4,0-8-0.3-12s-0.8-8-2-11.9c-0.6-1.9-1.5-3.9-2.9-5.4
			c-1.3-1.6-3.1-2.6-5-3.4c1.7,1.1,3.1,2.4,4.1,4s1.5,3.4,1.8,5.3c0.6,3.7,0.5,7.6,0.3,11.5s-0.6,7.7-1,11.6
			c-0.2,1.9-0.4,3.9-0.7,5.8c-0.3,2-0.5,3.9-0.7,5.9c-0.3,4.1-0.4,8.3,0.2,12.5c0.3,2.1,0.8,4.2,1.4,6.3c0.7,2.1,1.6,4.1,2.7,6.1
			c1.2,1.9,2.5,3.8,4.1,5.4c1.6,1.6,3.3,3.1,5.2,4.3c3.7,2.4,7.8,4.1,11.9,5.2c3.5,1,7,1.6,10.5,2.1c-0.1,0.1-0.2,0.2-0.3,0.3
			c-0.4,0.5-0.8,1.1-1.3,1.6c-0.3,0.6-0.7,1.3-1.1,2.1c-0.2,0.8-0.5,1.6-0.7,2.5c-0.1,0.9-0.3,1.8-0.2,2.7c0.1,3.7,1.3,7.8,3.2,11.7
			c1.9,4,4.4,8,7.4,11.9s6.3,7.9,10,11.7c3.7,3.9,7.7,7.7,11.8,11.4c4.2,3.7,8.5,7.3,13,10.8c4.5,3.4,9.1,6.8,13.7,9.9
			c4.4,2.9,8.2,6.1,10.9,9.9c2.7,3.7,4.3,8,4.5,12.2c0.1,2.1-0.1,4.2-0.5,6.3c-0.4,2-1,4-1.7,5.9c-1.4,3.7-3.2,7-5,9.9
			c-1.8,2.8-3.5,5.2-5,7.1s-2.7,3.4-3.6,4.4c-0.9,1-1.3,1.5-1.3,1.5s0.6-0.4,1.6-1.2c1-0.8,2.6-2,4.4-3.7c1.8-1.7,4-3.8,6.3-6.4
			c2.2-2.7,4.7-5.8,6.7-9.8c2-3.9,3.7-8.6,3.9-14c0.2-5.3-1.3-11.2-4.6-16.1c-1.6-2.4-3.5-4.8-5.6-6.7c-1-1.1-2.2-1.9-3.3-2.9
			c-1.1-0.9-2.4-1.8-3.5-2.6c-4.5-3.2-8.8-6.4-13.2-9.9c-4.4-3.4-8.7-6.9-12.8-10.3c-4.1-3.5-8.2-7-11.9-10.6
			c-3.7-3.5-7.3-7-10.4-10.5s-5.9-6.9-8-10.3s-3.7-6.7-4.2-9.8c-0.5-3.1,0.1-5.8,1.4-7.7c0.3-0.4,0.6-0.7,0.8-1.1
			c4.1,0.4,8.1,0.6,12.2,0.7c2.1,0,4,0,6,0h2.7c0.9,0,1.8,0.1,2.7,0.2c3.5,0.4,6.9,1.2,10.1,2.6c3.2,1.4,6.2,3.2,8.9,5.5
			c2.7,2.3,5.1,4.9,7.2,7.9c2.1,3,3.9,6.2,5.4,9.5c0.8,1.7,1.4,3.4,2.1,5.2c0.6,1.7,1.2,3.6,1.6,5.2l0,0l0.6,3.3l3-0.4
			c0.7-0.1,1.5-0.2,2.1-0.4c0.6-0.2,1.2-0.4,1.7-0.6l1.5-0.8l1.4-0.8c0.5-0.3,0.8-0.6,1.3-0.9c0.4-0.3,0.8-0.6,1.2-0.9
			c0.8-0.6,1.5-1.2,2.3-1.9c1.4-1.3,2.8-2.6,4.1-4c0.4-0.4,0.8-0.9,1.2-1.3l3.9,4l5.9-1.2c-0.1,0.3-0.1,0.1,0.3-0.2
			c0.4-0.2,0.9-0.5,1.5-0.7c1.2-0.5,2.6-0.9,4.1-1.2c3-0.6,6.1-1,9.2-1.2c1.6-0.1,3.2-0.2,4.7-0.3l2.4-0.1h0.6h0.3h0.1h0.4h0.2
			c0.9-0.1,1.4-0.3,2-0.5c2.2-0.8,3.8-1.9,5.3-3.1s2.8-2.6,3.9-4c0.6-0.7,1.2-1.5,1.7-2.2l0.7-1l0.2-0.3c0.2-0.2,0.2-0.3,0.2-0.4
			l0.4-0.7l0.7-1.4c0.2-0.5,0.3-0.9,0.5-1.4l0.5-1.4l0.3-1.4c0.2-0.9,0.4-1.8,0.5-2.7s0.2-1.8,0.2-2.7
			C575,238.1,574.9,236.4,574.9,234.7z M316,143c0.5-1.6,0.9-3,1.3-4.3c0.2,0.5,0.5,1.1,0.8,1.6c0.5,0.9,1,1.8,1.6,2.7
			c1.1,1.7,2.3,3.3,3.5,4.6c1.2,1.4,2.4,2.6,3.5,3.7c1.1,1.1,2.3,2,3.3,2.8c0.8,0.6,1.5,1.1,2.1,1.5c-1,4.6-1.8,9.2-2.3,13.9
			c-0.3,2.8-0.5,5.6-0.6,8.4l-0.1,4.2v2.5c-0.4-0.3-0.8-0.6-1.2-1c-1-0.8-2-1.7-3.2-2.8c-0.6-0.5-1.1-1.1-1.7-1.6
			c-0.6-0.6-1.2-1.1-1.7-1.8c-1.1-1.2-2.2-2.6-3.2-4c-0.9-1.5-1.8-3-2.5-4.6s-1.2-3.3-1.6-5.1C312.6,156.8,314.3,148.9,316,143z
			 M311,192.8c-0.6-1.2-0.9-2.5-1.1-3.7c-0.4-2.5-0.1-5.1,0.6-7.4c0.5-1.7,1.1-3.2,1.7-4.4c0.2,0.2,0.3,0.4,0.5,0.6
			c1.5,1.6,3.1,3,4.7,4.1c0.8,0.6,1.6,1.1,2.4,1.5c0.8,0.5,1.5,0.9,2.3,1.2s1.5,0.7,2.2,1s1.4,0.5,2,0.7c1,0.3,1.8,0.6,2.6,0.7
			c-0.1,5.2,0,10.5,0,15.8c0.1,3,0.1,5.9,0.3,8.9c-0.2-0.2-0.3-0.3-0.5-0.5c-0.8-0.7-1.8-1.5-2.8-2.3c-1-0.9-2.1-1.7-3.2-2.7
			s-2.3-1.9-3.4-3c-0.6-0.5-1.1-1-1.7-1.6c-0.6-0.5-1.1-1.1-1.6-1.7c-0.5-0.6-1.1-1.1-1.5-1.7l-0.7-0.9l-0.6-0.9
			C312.2,195.3,311.6,194,311,192.8z M313.6,217.7c0.1-1.4,0.3-2.7,0.5-3.9c0.4-1.9,0.8-3.6,1.2-5c1.4,0.9,2.9,1.7,4.3,2.4
			s2.8,1.2,4.1,1.7c1.3,0.4,2.5,0.8,3.6,1.1c0.7,0.2,1.4,0.3,2,0.4c0.3,7.2,0.8,14.4,1.5,21.4c0.3,3.1,0.6,6.2,1,9.3
			c-0.4-0.3-0.8-0.5-1.1-0.8c-0.9-0.6-1.9-1.3-2.9-2.1c-0.5-0.4-1.1-0.8-1.6-1.2s-1.1-0.9-1.7-1.3c-0.6-0.4-1.1-0.9-1.7-1.4
			s-1.1-0.9-1.7-1.5c-1.1-1-2.1-2.1-3-3.3c-1-1.1-1.7-2.4-2.4-3.6c-0.6-1.3-1.2-2.6-1.6-3.9c-0.3-1.4-0.6-2.7-0.7-4.1
			C313.5,220.5,313.5,219.1,313.6,217.7z M327.9,308.1c-1.2,1.8-2.4,3.5-3.7,5.1c-0.6,0.8-1.3,1.6-2,2.3c-0.7,0.8-1.4,1.6-2.1,2.4
			c-2.4,2.9-4.6,5.9-6.3,9c-0.4-0.9-0.9-1.9-1.5-3c-0.5-0.9-0.9-1.8-1.4-2.8c-0.4-1-0.9-2-1.3-3s-0.7-2.1-1-3.1
			c-0.3-1.1-0.5-2.1-0.6-3.2c-0.1-1-0.2-2.1-0.1-3.1s0.1-2.1,0.4-3.1c0.4-2.1,1.1-4.1,1.8-5.8c0.7-1.8,1.4-3.3,2-4.4v-0.1
			c0.9,0.7,1.9,1.3,2.8,1.8c0.8,0.4,1.6,0.8,2.3,1.2c0.8,0.3,1.5,0.6,2.3,0.9c1.5,0.6,2.9,0.9,4.2,1.3c1.3,0.3,2.6,0.5,3.7,0.6
			c1.1,0.2,2.1,0.2,2.9,0.2c0.5,0,1,0,1.3,0C330.5,303.7,329.3,306,327.9,308.1z M333.3,296.3c-0.4,1.5-0.9,2.9-1.5,4.3
			c-0.3-0.2-0.7-0.5-1.1-0.8c-0.6-0.5-1.4-1-2.3-1.6s-1.9-1.3-2.9-2c-1-0.8-2.2-1.5-3.3-2.3c-0.6-0.4-1.2-0.8-1.8-1.3
			c-0.6-0.5-1.2-0.9-1.7-1.4c-0.6-0.5-1.1-1-1.7-1.4c-0.6-0.5-1-1-1.6-1.5c-0.5-0.5-0.9-1.1-1.4-1.6c-0.4-0.6-0.9-1.1-1.2-1.7
			c-0.8-1.1-1.2-2.3-1.7-3.5c-0.4-1.2-0.5-2.4-0.5-3.7c0-2.5,0.7-5.2,1.5-7.5c0.4-1.1,0.8-2,1.2-2.9c1.2,0.6,2.5,1.1,3.7,1.5
			c1.6,0.5,3.2,0.8,4.7,1s2.9,0.2,4.2,0.2c1.3,0,2.5-0.1,3.5-0.2s1.9-0.3,2.7-0.5c1.5-0.3,2.3-0.6,2.3-0.6s-0.8-0.4-2.1-1
			c-0.7-0.3-1.5-0.6-2.4-1s-2-0.7-3.1-1.2s-2.3-0.9-3.5-1.5c-1.2-0.5-2.4-1.1-3.6-1.7c-0.6-0.4-1.2-0.6-1.7-1s-1.1-0.7-1.6-1.1
			c-1-0.8-1.9-1.6-2.7-2.5c-0.7-0.9-1.4-1.9-1.8-2.9c-0.4-1.1-0.7-2.2-0.9-3.4c-0.3-2.4-0.2-5,0.1-7.3c0.3-2.3,0.6-4.3,0.9-5.7
			c0-0.2,0.1-0.5,0.1-0.7c0.2,0.3,0.5,0.5,0.7,0.8c0.7,0.8,1.4,1.4,2.2,2c0.7,0.6,1.5,1.2,2.3,1.7s1.5,1,2.3,1.4s1.5,0.8,2.3,1.1
			s1.5,0.6,2.2,0.9c0.7,0.2,1.4,0.4,2.1,0.6c1.3,0.4,2.6,0.6,3.8,0.8c0.9,0.2,1.8,0.2,2.5,0.3c0.8,6.8,1.6,13.5,2.2,20
			C335.2,277.6,335.7,287.6,333.3,296.3z M332.7,153.1c-0.2-0.3-0.3-0.6-0.5-0.9c-0.6-1.1-1.3-2.3-2-3.6s-1.5-2.7-2.2-4.2
			c-0.8-1.5-1.5-3-2.2-4.6c-0.3-0.8-0.7-1.6-1-2.5c-0.3-0.8-0.6-1.7-0.9-2.5c-0.2-0.8-0.5-1.7-0.7-2.5c-0.1-0.9-0.4-1.7-0.5-2.6
			c-0.3-1.7-0.3-3.4-0.3-5c0.1-1.6,0.4-3.2,0.8-4.8c0.5-1.5,1.1-3,1.8-4.4c0.7-1.4,1.5-2.6,2.4-3.8c1.2-1.7,2.4-3.1,3.5-4.2
			c0.2,1.2,0.5,2.3,0.9,3.4c0.3,1.1,0.7,2.1,1.1,3.1s0.8,2,1.2,2.9c0.5,0.9,0.9,1.8,1.3,2.6c0.5,0.8,1,1.6,1.4,2.3
			c0.9,1.5,1.9,2.8,2.7,3.9c0.8,1.1,1.7,2.1,2.4,2.8l0.1,0.1c-1.5,2.9-3,6-4.2,9.1C335.7,142.8,334,147.8,332.7,153.1z M352.9,111.7
			c-3.6,4.7-7.1,9.8-10.1,15.3c-0.2-0.7-0.5-1.5-0.7-2.4c-0.4-1.3-0.9-2.8-1.3-4.4c-0.2-0.8-0.5-1.6-0.7-2.5
			c-0.2-0.9-0.4-1.7-0.6-2.6s-0.4-1.8-0.6-2.8c-0.2-0.9-0.4-1.9-0.5-2.9c-0.3-1.9-0.5-3.9-0.6-5.9c0-1,0-2,0-3c0-0.5,0-1,0.1-1.5
			l0.2-1.4c0.1-1,0.4-1.9,0.5-2.8c0.3-0.9,0.5-1.8,0.9-2.7c0.6-1.8,1.5-3.4,2.5-5s2.1-3,3.3-4.3c1.2-1.3,2.4-2.5,3.6-3.5
			c1.5-1.3,2.9-2.4,4.1-3.3l-0.1,0.3c-0.2,1.1-0.2,2.2-0.3,3.3c-0.1,2.2,0.1,4.3,0.5,6.2c0.1,1,0.4,1.9,0.6,2.8s0.5,1.8,0.8,2.6
			c0.3,0.8,0.6,1.7,0.9,2.4c0.3,0.7,0.7,1.5,1,2.2c0.6,1.4,1.4,2.6,2,3.6c0.6,1.1,1.3,1.9,1.8,2.6c0.1,0.2,0.2,0.3,0.3,0.4
			C358.1,105.5,355.5,108.4,352.9,111.7z M372,92.4c-3.4,2.7-6.8,5.8-10.1,9.1c-0.1-0.8-0.3-1.8-0.4-3s-0.4-2.5-0.5-3.9
			c-0.2-1.4-0.4-2.9-0.5-4.5c-0.1-0.8-0.2-1.6-0.2-2.4s-0.2-1.6-0.1-2.5c0-0.8,0-1.7,0-2.5c0.1-0.8,0.1-1.7,0.2-2.5s0.2-1.7,0.4-2.4
			l0.2-1.2l0.4-1.2c0.2-0.8,0.5-1.5,0.8-2.2c0.4-0.7,0.6-1.4,1.1-2.1c0.4-0.7,0.8-1.3,1.3-1.9s1-1.2,1.5-1.8c2.1-2.3,4.7-4.1,7-5.4
			c2.3-1.4,4.5-2.3,6-3c0,0.2-0.1,0.3-0.1,0.5c-0.3,1.2-0.3,2.3-0.4,3.5c-0.1,1.1-0.1,2.2,0,3.3c0,1.1,0.1,2.1,0.2,3.1
			s0.2,2,0.4,2.9c0.2,0.9,0.4,1.8,0.6,2.7c0.4,1.7,0.9,3.2,1.4,4.5c0.4,1.3,1,2.4,1.4,3.4c0.3,0.6,0.5,1.1,0.7,1.5
			C379.6,86.7,375.8,89.3,372,92.4z M406.6,72.1c-4.5,1.9-9.8,4.3-15.7,7.6c-2.2,1.2-4.5,2.6-6.9,4.1c0-0.4,0-0.8,0-1.3
			c0-1,0-2.2,0.1-3.5c0.1-1.4,0-2.9,0.2-4.5c0-0.8,0.1-1.7,0.1-2.5c0.1-0.9,0.2-1.7,0.2-2.7c0-0.5,0.1-0.9,0.1-1.4
			c0.1-0.5,0.1-0.9,0.2-1.4c0.2-0.9,0.2-1.9,0.5-2.8c0.4-1.9,0.8-3.7,1.5-5.5l0.5-1.3c0.2-0.4,0.4-0.8,0.6-1.3
			c0.3-0.9,0.9-1.6,1.4-2.4c1-1.5,2.2-2.9,3.6-4s2.9-2.2,4.5-3c3.2-1.6,6.8-2.6,9.9-3.2c3.1-0.6,5.8-0.9,7.8-1.1
			c-0.2,0.2-0.3,0.5-0.5,0.7c-1.3,2-2.2,4-2.9,6c-0.3,1-0.6,2-0.9,3c-0.2,1-0.4,2-0.6,2.9c-0.1,1-0.2,1.9-0.3,2.8
			c0,0.9-0.1,1.7-0.1,2.6c0,1.6,0.2,3.1,0.3,4.4c0.2,1.3,0.5,2.4,0.7,3.3c0.3,1.2,0.6,2,0.8,2.5C410.2,70.6,408.5,71.3,406.6,72.1z
			 M438.9,45.6c-0.7,0.3-1.4,0.7-2.1,1.1c-1.4,0.8-2.6,1.6-3.9,2.5c-1.2,0.9-2.4,1.9-3.5,2.9s-2.2,2.1-3.2,3.1c-1,1.1-2,2.2-2.9,3.4
			c-0.9,1.1-1.8,2.3-2.6,3.5c-0.9,1.2-1.6,2.4-2.4,3.7c-0.5,0.8-1,1.7-1.5,2.5c-1.3,0.4-2.9,0.9-4.8,1.6c0.1-0.5,0.3-1.3,0.5-2.4
			c0.4-1.8,1-4.3,1.9-7.1c0.4-1.4,1-2.9,1.6-4.5c0.3-0.8,0.7-1.5,1-2.3c0.4-0.8,0.7-1.6,1.1-2.3c0.5-0.7,0.8-1.6,1.3-2.3l0.7-1.1
			c0.2-0.4,0.5-0.7,0.7-1c0.5-0.7,0.9-1.2,1.7-2l1-1.1l0.1-0.2l0,0l0.1-0.1l0.1-0.1l0.5-0.5c0.7-0.6,1.3-1.3,2-1.9
			c0.7-0.5,1.4-1.1,2.1-1.7c0.7-0.5,1.5-1,2.2-1.5s1.5-0.8,2.2-1.3c1.5-0.8,3-1.4,4.5-1.9s3-0.8,4.4-1c0.7-0.1,1.4-0.1,2.1-0.2
			c0.7,0,1.3-0.1,1.9-0.1c0.8,0,1.5,0,2.1,0.1c-0.2,0.2-0.5,0.4-0.7,0.7c-1.8,1.8-3,3.8-3.9,5.5s-1.4,3.3-1.7,4.7
			c-0.3,0.1-0.5,0.2-0.8,0.3C440.3,44.9,439.6,45.3,438.9,45.6z M455.2,68.3c0-0.7,0-1.4,0-2.2c0-0.5-0.1-1-0.2-1.4l-0.2-1.1
			c-0.1-0.6-0.2-1.1-0.2-1.7c-0.1-1.1-0.1-2.3,0.1-3.5c0.1-1.2,0.4-2.4,0.7-3.5c0.3-1.2,0.7-2.3,1.2-3.5c0.2-0.6,0.5-1.1,0.8-1.7
			c0.3-0.5,0.6-1.1,0.8-1.5l3.8-6.1h-6.9c-1.6,0-3.2-0.1-4.8,0.2c-1.6,0.1-3.2,0.5-4.7,0.8l-1.3,0.4c1.4-1.9,3.4-4.1,6.1-5.9
			c1.7-1.1,3.7-2,5.9-2.5c2.2-0.6,4.6-0.7,7.1-0.5c2.5,0.2,5.1,0.7,7.8,1.4c0.7,0.2,1.3,0.4,1.9,0.6c0.6,0.2,1.3,0.4,2,0.7L477,38
			l0.8,0.3l0.8,0.4c1.1,0.5,2,1.2,2.6,1.8c0.6,0.7,0.9,1.2,1.1,1.9c0.4,1.4-0.3,3.8-1.4,5.9c-1.1,2.2-2.6,4.3-4.1,6.3
			c-1.5,2-3.1,3.8-4.5,5.5c-2.9,3.4-5.6,6.1-7.4,8c-1,1.1-1.8,1.9-2.3,2.4c-0.2-0.1-0.3-0.1-0.5-0.2
			C459.9,69.5,457.5,68.8,455.2,68.3z M477,77.1c-0.9-0.6-1.9-1.1-2.9-1.6c-1.9-1-3.9-2-5.9-2.8c-1.7-0.7-3.4-1.4-5.1-2
			c0.7-0.3,1.6-0.7,2.7-1.3c2.4-1.2,5.8-3.1,9.5-5.9c1.9-1.4,3.9-3,5.9-4.9s4-4.1,5.7-6.8c0.6-0.9,1.1-1.9,1.6-3
			c0.2,0,0.3-0.1,0.5-0.1c1.2-0.2,2.6-0.3,4-0.3c1.4,0.1,2.9,0.5,4.3,1.1c0.7,0.4,1.2,0.5,2.1,1.1L500,51l0.3,0.2l0.2,0.1
			c-0.3-0.2-0.1,0-0.2-0.1l0,0l0,0l0.1,0.1c0.3,0.3,0.7,0.5,1,0.8c1.3,1.1,2.5,2.3,2.9,3.4s0.5,2,0,3.4c-0.4,1.4-1.5,2.9-2.6,4.4
			c-1.2,1.5-2.6,2.9-3.9,4.3c-2.8,2.7-5.7,5.2-8.2,7.3c-2.6,2.1-4.7,3.9-6.2,5.2c-0.3,0.2-0.5,0.4-0.7,0.6c-1-0.7-2-1.3-3-2
			C478.9,78.2,478,77.6,477,77.1z M495.3,91c-1.6-1.6-3.2-3-4.9-4.5c-1.7-1.4-3.4-2.8-5.2-4.1c-0.4-0.3-0.8-0.6-1.3-0.9
			c0.1,0,0.2,0,0.3-0.1c1.9-0.5,4.7-1.4,7.8-2.7c3.1-1.4,6.7-3.2,10.3-5.8c1.8-1.3,3.6-2.8,5.2-4.6c1.4-1.5,2.6-3.2,3.6-5.2
			c0.4,0.3,0.9,0.6,1.3,0.9c0.4,0.3,0.9,0.6,1.4,1s1,0.7,1.5,1.1c0.3,0.2,0.5,0.4,0.8,0.6c0.2,0.2,0.5,0.4,0.7,0.7
			c0.5,0.4,1,0.8,1.4,1.4c0.2,0.2,0.4,0.5,0.7,0.7c0.2,0.2,0.3,0.5,0.5,0.7c0.4,0.5,0.6,1,0.8,1.5c0.3,1,0.3,1.7,0.1,2.7
			s-0.8,2.2-1.7,3.3c-0.8,1.2-1.9,2.4-3,3.6s-2.3,2.3-3.5,3.4c-2.4,2.2-4.7,4.2-6.7,6s-3.7,3.3-4.9,4.5c-0.3,0.3-0.6,0.6-0.9,0.8
			c0,0,0,0-0.1-0.1C498.4,94.2,497,92.5,495.3,91z"/>
		<polygon points="472.3,281.3 473.5,282.3 492.5,249.2 491.1,248.4 		"/>
		<g>
			<path d="M692.3,228.1c-0.9-3.3-2.6-6.5-5-8.9c-0.3-0.3-0.6-0.6-0.9-0.9l-1.1-0.9c-0.9-0.7-1-0.7-2-1.3l-3.6-2.1
				c-9.6-5.5-19.2-10.9-28.7-16.3c-9.4-5.4-18.8-10.5-27.9-15.6c-9-5.1-17.8-9.8-26.2-14.4c-8.3-4.6-16.2-8.8-23.6-12.7
				c-1.8-1-3.6-1.9-5.4-2.9c-0.9-0.5-1.7-0.9-2.7-1.4s-2-0.9-3-1.2c-4.1-1.2-8.3-0.6-11.6,0.9c-1.7,0.7-3.2,1.8-4.4,2.9
				c-0.7,0.6-1.2,1.2-1.7,1.8c-0.5,0.7-1,1.4-1.3,2c-1.5,2.7-2.6,5-3.7,7.2c-2.1,4.1-3.9,7.2-5,9.5c-0.1,0.1,0.5,0.8,0.5,0.7
				c1.4-2.2,3.3-5.4,5.9-9.4c1.3-2,2.7-4.4,4.3-6.7c0.4-0.6,0.9-1.1,1.3-1.6c0.5-0.5,1-1,1.6-1.4c1.1-0.9,2.4-1.7,3.9-2.2
				c2.8-1,6.2-1.2,9.4-0.1c0.8,0.3,1.5,0.6,2.3,1.1c0.7,0.4,1.6,1,2.5,1.5c1.7,1,3.4,2.1,5.2,3.2c7.1,4.3,14.7,9,22.9,13.9
				c8.1,4.9,16.7,10.1,25.7,15.3c8.9,5.2,18.1,10.8,27.5,16.2c9.4,5.5,19,11,28.5,16.5l3.6,2.1c0.2,0.1,1.2,0.7,1.4,1l0.5,0.4
				c0.2,0.1,0.4,0.4,0.5,0.5c1.5,1.4,2.5,3.3,3.1,5.3c0.5,2,0.5,4.1-0.1,6.1c-0.1,0.5-0.4,1-0.5,1.5l-0.3,0.7
				c-0.1,0.2-0.2,0.5-0.4,0.8l-2,3.6c-5.4,9.4-10.5,18.8-15.6,27.9c-5.1,9-9.9,17.8-14.4,26.2c-4.6,8.3-8.8,16.2-12.7,23.6
				c-7.8,14.6-14.2,26.9-18.7,35.5c-2.2,4.3-3.9,7.7-5.1,10c-1.2,2.3-1.8,3.6-1.8,3.6s0.8-1.2,2.2-3.3c1.4-2.2,3.5-5.4,6.1-9.5
				c5.2-8.2,12.6-19.9,21.2-34c4.3-7.1,9-14.7,13.9-22.9c4.9-8.1,10.1-16.7,15.3-25.7c5.2-8.9,10.8-18.1,16.2-27.5l2-3.5
				c0.2-0.3,0.4-0.6,0.6-1l0.6-1.1c0.3-0.8,0.7-1.6,0.9-2.4C693.1,235,693.2,231.5,692.3,228.1z"/>
			<path d="M572.4,274.3c0,0-8.4,4.6-16.4,8.4c-4.4,2.1-7.6,3.2-11.3,4.5c-7.5,2.6-10.8,9-9.6,12.5c1.2,3.4,8.6,9,15.1,4.8
				c0,0-6.8,10.8-10.9,12.2c-0.1,0-0.2,0.2,0,0.3l7.8,5c0.1,0.1,0.3,0,0.2-0.2c-0.4-4.4,6.7-15,6.7-15c-1.1,7.6,7,12.1,10.6,11.8
				c3.6-0.3,8.1-5.2,7.7-13.4c-0.1-3.2-0.2-8.4-0.2-12.5C572.2,283.5,572.4,274.3,572.4,274.3z"/>
			<path d="M665.1,230.7c0,0-4.3,2.4-8.4,4.3c-2.2,1-3.9,1.6-5.8,2.3c-3.8,1.3-5.5,4.6-4.9,6.4s4.4,4.6,7.7,2.5c0,0-3.5,5.5-5.6,6.3
				c-0.1,0-0.1,0.1,0,0.1l4,2.6c0.1,0,0.1,0,0.1-0.1c-0.2-2.2,3.4-7.7,3.4-7.7c-0.6,3.9,3.6,6.2,5.4,6c1.9-0.2,4.2-2.7,3.9-6.8
				c0-1.6-0.1-4.3-0.1-6.4C665,235.4,665.1,230.7,665.1,230.7z"/>
		</g>
	</g>
	<g>
		<g>
			<path d="M224,392.1l0.8,0.1c2.3,0.2,3.8,0.5,4.6,1c0.8,0.4,1.5,1.1,2.1,2.1c0.1,0.2,0.3,0.6,0.8,1.8c0.7,1.9,2.1,5.4,4.1,9.7
				l5.7,14.3l9.6,22.2c2.5,6.5,3.9,10.3,4.3,11.4c0.3,0.7,0.5,1.5,0.8,2.2c0.1,0.4,0.5,0.7,0.9,0.7c0.6,0,1.1,0,1.6,0
				c0.3,0,0.9,0,1.8-0.1c0.2,0,0.4-0.1,0.5-0.4c0.2-0.6,0.9-2.4,1.7-4.8c2.2-6.3,6-16.8,6.5-18.1c0.7-1.9,1.4-3.6,2-5.3l6.5-17.3
				c0.6-1.7,1.2-3.4,1.8-4.9c1.7-4.8,3.1-8.6,4.1-10.4c0.5-0.9,1-1.5,1.5-1.9c0.7-0.6,2.9-1.6,6.8-3c0.4-0.2,0.7-0.5,0.7-0.9
				c0-0.3,0-0.6,0-0.8c0-0.3-0.1-0.6-0.3-0.8c-0.2-0.2-0.5-0.3-0.8-0.3c-0.9,0.1-2,0.2-3.1,0.3c-2,0.3-4.4,0.4-7.3,0.4
				c-2.7,0-5.6-0.1-8.5-0.4c-1.6-0.2-2.8-0.3-3.7-0.3c-0.5,0-1.1,0.4-1.1,1c0,0.3,0,0.6,0,0.8c0,0.1,0,0.2,0,0.4
				c0.1,0.4,0.4,0.8,0.8,0.9c0.3,0.1,0.7,0.1,1,0.1c0.8,0.1,1.5,0.2,2,0.4c2.3,0.2,3.9,0.7,5,1.6c0.8,0.6,1.2,1.3,1.2,2.2
				c0,1.1-0.3,3.5-0.9,5.2c-0.6,1.6-1.3,4-2.2,7c-0.3,0.9-0.5,1.6-0.6,2.2v0.1l-1.4,3.6l-6,17.3l-1.5,3.8c-0.3,0.8-1.1,1.3-2,1.3
				c-0.8,0-1.6-0.5-2-1.3c-0.5-1.2-1-2.5-1.6-3.8l-5.8-13.5c-2.7-6.1-4.7-11-5.9-14.5l-1.6-4.4c-0.1-0.2-0.1-0.4-0.1-0.5
				c-0.1-0.6-0.1-1.7-0.1-2c0-0.7,0.2-1.3,0.7-1.7c0.8-0.8,2-1.4,3.5-1.8c0.5-0.1,2-0.4,4.6-0.7c0.5-0.1,0.9-0.5,0.9-1V390
				c0-0.6-0.5-1-1-1h-2h-0.1c-1.1,0.2-2.8,0.3-4.9,0.5c-3.2,0.2-5.2,0.3-6.2,0.3c-6.7,0-12.3-0.2-16.4-0.7c-0.2,0-0.7,0-1.5-0.1l0,0
				c-0.3,0-0.5,0.1-0.7,0.3c-0.2,0.2-0.3,0.5-0.3,0.7v1.5C223.1,391.6,223.5,392,224,392.1z"/>
			<path d="M622.8,474c0.8-0.5,1.7-0.9,2.6-1.3c0.6-0.3,0.4-1.2-0.2-1.2H218.9c-0.7,0-0.9,0.9-0.3,1.3c0.8,0.4,1.6,0.9,2.3,1.5
				h400.9C622.2,474.3,622.5,474.1,622.8,474z"/>
			<path d="M619.2,477c0.1-0.1,0.1-0.2,0.1-0.3c0-0.1-0.1-0.1-0.4-0.1c-13.2,0-384.9,0.1-393.8,0c-0.2,0-0.2,0.1-0.2,0.1
				c-0.2,0.4,0.4,0.6,0.8,0.9c0.2,0.2,0.5,0.4,0.8,0.4h391.1c0.3,0,0.5-0.1,0.8-0.3C618.7,477.4,618.8,477.3,619.2,477z"/>
			<path d="M659.4,536.7c-1-0.4-2-0.8-3-1.3c-0.4-0.2-0.8-0.3-1.2-0.3h-468c-0.8,0.6-1.7,1.1-2.7,1.5c-0.7,0.3-0.4,1.3,0.4,1.3
				h474.2C659.9,537.9,660.2,536.9,659.4,536.7z"/>
			<path d="M199.1,531.8c-0.4,0.4-1.1,0.6-0.9,0.9c0,0,0,0.1,0.3,0.1c10.1-0.1,432,0,447,0c0.3,0,0.4,0,0.4-0.1s0-0.2-0.1-0.3
				c-0.4-0.3-0.5-0.4-1-0.7c-0.2-0.2-0.5-0.3-0.9-0.3H200C199.7,531.4,199.3,531.6,199.1,531.8z"/>
			<path d="M582.1,458.8c1.1,0,1.7-0.1,2-0.1c4.2-0.5,9.6-0.7,16.3-0.7c0.9,0,2.7,0.1,5.3,0.3c1.5,0.1,3.1,0.3,4.8,0.4
				c0.4,0,0.7,0.1,1,0.1c0.1,0,0.1,0,0.2,0h0.7c3.2,0.2,2.8-3.4,1.6-4.6c-0.8-0.5-2.5-0.5-4.1-0.5c-0.2,0-0.3-0.1-0.4-0.1
				c-1.5-0.4-2.6-1-3.3-1.7c-0.4-0.4-1-0.8-1-1.4c0-0.3-0.1-1-0.2-1.6c0-0.1,0-0.3,0-0.4s0-0.1,0-0.1c0-11.3,0-38.8,0-44.6
				c0-3.9,0.7-6.2,1.4-7.5c0.5-1,1.5-1.6,2.5-1.7c1.4-0.1,2.5-0.2,3.4-0.2c1.3-0.1,2.3-1.1,2.2-2.4c-0.1-2.7-4.1-2.6-4.1-2.6
				s-28.4-0.7-29,0.2c-0.6,0.9-0.8,2.8,0.5,3.2c1.3,0.3,4.5,0.6,5,0.7c4.2,1,4.1,8.9,4.1,8.9v44c0,1.3-0.2,2.6-0.7,3.8
				c-0.2,0.5-0.3,0.9-0.4,1c-0.6,0.9-1.7,1.6-2.4,2s-2.2,0.7-4.4,0.9l-1.2,0.1c-0.6,0.1-1,0.6-1,1.1v2.3
				C580.9,458.3,581.4,458.8,582.1,458.8z"/>
			<path d="M507.8,408.5c0.9,0.3,1.8,0.2,2.4-1c3.2-7.7,5.5-11,15.5-12h5.9c1,0,1.8,0.8,1.8,1.8l0.2,48.9c0,1.3-0.2,2.6-0.7,3.8
				c-0.2,0.5-0.3,0.9-0.4,1c-0.6,0.9-1.7,1.6-2.4,2s-2.2,0.7-4.4,0.9l-1.2,0.1c-0.6,0.1-1,0.6-1,1.1v2.3c0,0.6,0.5,1.2,1.2,1.1
				c1.1,0,1.7-0.1,2-0.1c4.1-0.5,9.6-0.7,16.3-0.7c0.9,0,2.7,0.1,5.3,0.3c1.5,0.1,3.1,0.3,4.8,0.4c0.4,0,0.7,0.1,1,0.1
				c0.1,0,0.1,0,0.2,0h0.7c3.2,0.2,2.8-3.4,1.6-4.6c-0.8-0.5-2.5-0.5-4.1-0.5c-0.2,0-0.3-0.1-0.4-0.1c-1.5-0.4-2.6-1-3.3-1.7
				c-0.4-0.4-1-0.8-1-1.4c0-0.3-0.1-1-0.2-1.6c0-0.1,0-0.3,0-0.4s0-0.1,0-0.1l0,0c0-9.7-0.1-39.5-0.2-50.9c0-1,0.8-1.8,1.8-1.8h1.1
				c0,0,5.2,0.6,8.2,1c11.4,1.8,9.2,9.8,13.2,9.7c2.3-0.1,3-3.1,0.8-13.1c-0.5-2.3-1.7-5.6-3.5-5.9c-2.2-0.5-5.1,3.4-18.7,3.1h-21.8
				c0,0-4,0.5-7.7-0.7c-3.3-1.1-6.5-4.7-8.8-3.3c-1.8,1.1-3.2,7.3-3.4,10c-0.3,4-1.7,9.2-1.8,10.6
				C506.6,407.6,507.1,408.3,507.8,408.5z"/>
			<path d="M365.5,393.7l0.8,0.1c2.2,0.2,3.7,0.5,4.4,0.9c0.7,0.4,1.8,1.1,2.4,2c0.1,0.1,0.2,0.4,0.4,0.9c0.5,1.2,0.8,2.6,0.8,3.9
				v42.9c0,0,0.2,8-4.1,8.9c-0.5,0.1-3.7,0.4-5,0.7c-1.3,0.3-0.8,2.2-0.9,3.2c-0.2,1,4.4,0.5,7.4,0.6c4.6,0.3,39.3-1.1,45.3-0.1
				s11.8-0.5,12.3-6.7c0.3-4,1.7-9.2,1.8-10.6c0-0.8-0.5-1.5-1.2-1.7c-0.9-0.3-1.8-0.2-2.4,1c-4.8,11.4-7.3,13.2-36.6,12.2
				c0,0-2.6-1.5-2.6-9c0-5.9,0-32.3,0-43.6l0,0v-0.1c0-0.1,0-0.3,0-0.4c0-0.6,0.2-1.3,0.2-1.6c0-0.5,0.6-1,1-1.4
				c0.7-0.7,1.8-1.3,3.3-1.7c0.1,0,0.2,0,0.4-0.1c4.3,0,7.2-5.5,2.6-5.1h-0.7c-0.1,0-0.1,0-0.2,0c-0.3,0-0.6,0.1-1,0.1
				c-1.7,0.1-3.3,0.3-4.8,0.4c-2.6,0.2-17.5,0-21.6-0.5c-0.2,0-0.8,0-1.6-0.1c-0.9,0-1.6,0.7-1.6,1.6v1.5
				C364.1,392.9,364.7,393.6,365.5,393.7z"/>
			<path d="M291.4,418.8l-0.1,0.3v0.3v0.6l-0.1,1.1l-0.1,1.1v0.3v0.4v0.2v0.7c0.1,1.7,0.2,3.5,0.5,5.2c0.2,1.7,0.7,3.4,1.2,5.1
				c1.1,3.3,2.5,6.5,4.5,9.3c0.5,0.7,0.9,1.4,1.5,2.1c0.5,0.7,1.1,1.3,1.6,2c1.2,1.2,2.3,2.4,3.6,3.5c1.2,1.1,2.6,2,3.9,3
				c1.4,0.8,2.7,1.7,4.2,2.3c1.4,0.7,2.9,1.2,4.3,1.7c1.5,0.3,2.9,0.8,4.5,1c1.6,0.3,2.8,0.3,4.2,0.4h0.1c0,0,0.3,0,0.2,0h0.1h0.3
				h0.5l1.1-0.1c0.4,0,0.7,0,1.1-0.1l1-0.2c2.8-0.3,5.4-1.3,8-2.3c1.2-0.6,2.5-1.1,3.5-1.8c0.6-0.3,1.1-0.7,1.7-1
				c0.5-0.4,1-0.7,1.6-1.1c4.2-3,7.3-6.6,9.6-10.2c0.6-0.9,1.1-1.8,1.5-2.7c0.5-0.9,0.9-1.7,1.2-2.6c0.3-0.9,0.7-1.7,1-2.5
				s0.4-1.6,0.7-2.3c0.5-1.4,0.6-2.9,0.8-4.2c0.1-0.6,0.2-1.2,0.2-1.7c0-0.4,0.1-0.8,0.1-1.2c0.1-1.4,0.1-2.2,0.1-2.2v-0.3
				c0,0,0-0.9-0.1-2.5c0-0.4-0.1-0.9-0.1-1.4s-0.2-1-0.2-1.6c-0.2-1.2-0.4-2.5-0.8-4c-0.7-3-2.2-6.5-4.5-10.1
				c-1.1-1.6-3.7-4.8-6.5-5.9c-4-1.5-8.4-1-10.6,0.3c0,0-4.3,2.6-4.3,6.7c0,3.9,3.2,7.1,7.1,7.1c1.8,0,4.1-2.5,4.2-4.1
				c0,0.2,0.7,2.7,0.7,2.9c0.2,0.7,0.3,1.4,0.4,2c0.1,0.7,0.2,1.3,0.3,1.9c0.1,0.6,0.1,1.2,0.2,1.7c0.1,1.1,0.2,2.1,0.2,2.9
				c0.1,0.8,0.1,1.6,0.1,2.2c0,1.1,0,1.7,0.1,1.8c0,0.3,0,1-0.1,1.9c0,0.4,0,0.7,0,1.2c0,0.4-0.1,0.7-0.1,1.1
				c-0.1,0.8-0.1,1.6-0.2,2.8c-0.1,0.6-0.1,1.1-0.2,1.7s-0.2,1.2-0.3,1.9c-0.1,0.7-0.2,1.4-0.4,2.1c-0.2,0.7-0.3,1.5-0.5,2.2
				c-0.8,3-2.1,6.5-4.4,9.7c-0.3,0.4-0.6,0.8-0.9,1.2c-0.3,0.4-0.7,0.7-1.1,1.1c-0.7,0.8-1.6,1.4-2.4,2.1c-1.8,1.2-3.8,2.3-6.1,2.7
				l-0.9,0.2c-0.3,0-0.6,0.1-0.9,0.1c-0.5,0-1.1,0.1-1.7,0.1c-1.3-0.1-2.8-0.1-3.8-0.5c-1.1-0.2-2.3-0.7-3.4-1.2
				c-1.1-0.6-2.2-1.2-3.2-2c-1-0.7-1.9-1.7-2.7-2.6c-0.8-1-1.6-2-2.2-3.2c-0.7-1.1-1.2-2.3-1.7-3.4l-0.7-1.8
				c-0.2-0.6-0.4-1.2-0.6-1.8c-1.4-4.9-1.9-10-2-15v-0.5v-0.1v-0.2v-1.1v-1.1v-0.6v-0.3v-0.2c0.1-1.1,0.1-2.2,0.3-3.5
				c0.2-2.5,0.7-4.9,1.3-7.4c0.6-2.5,1.6-4.8,2.8-7c1.2-2.2,2.9-4.2,4.8-5.8c0.5-0.4,1-0.8,1.5-1.1c0.5-0.3,1.1-0.6,1.6-0.9
				s1.1-0.5,1.7-0.8c0.6-0.2,1.2-0.5,1.8-0.6c0.6-0.1,1.2-0.3,1.8-0.4c0.6-0.1,1.2-0.1,1.8-0.1h0.4h0.2l0,0h0.1l1,0.1
				c0.6,0.1,1.3,0.1,1.9,0.2c0.9,0.2,4.5-3.1,2.5-3.9c-0.7-0.1-1.4-0.2-2.2-0.3c-0.7-0.1-1.3-0.1-2-0.1l-1-0.1h-0.1h-0.2h-0.1h-0.3
				h-0.5c-0.7,0-1.4,0.1-2.2,0.1c-0.7,0.1-1.5,0.2-2.2,0.3c-2.9,0.6-5.9,1.3-8.7,2.8c-2.8,1.4-5.6,3.1-8.1,5.3
				c-0.7,0.5-1.2,1.1-1.8,1.7l-0.9,0.9c-0.3,0.3-0.5,0.6-0.8,1c-0.5,0.7-1.1,1.3-1.6,2s-1,1.4-1.5,2.1c-1.8,2.9-3.3,6.1-4.2,9.5
				C291.9,415,291.7,416.9,291.4,418.8z"/>
			<path d="M429.5,392.9c0.1,0,0.3,0,0.4,0c3.9,0.1,6.2,0.8,6.9,1.9c0.5,0.8,0.8,4.2,0.8,10.2v25.5c0,4.9,0.3,8.7,0.8,11.3
				c0.7,3.8,2,7,3.9,9.4s4.7,4.3,8.5,5.8s8.2,2.2,13.5,2.2c4.6,0,8.6-0.5,12-1.6s6.3-2.5,8.6-4.3s4.1-3.8,5.3-5.9
				c0.8-1.4,1.5-3.4,1.9-5.8c0.5-2.5,0.7-7.3,0.7-14.6l-0.1-10.9c-0.1-2.6,0.3-19.7,0.3-20.4c0-0.9,0.2-1.6,0.7-2
				c0.2-0.2,1-0.5,3.3-0.8h0.1c0.9,0,1.8-0.2,2.7-0.3c0.8-0.2,1.4-0.9,1.4-1.7l0,0c0-0.5-0.1-2.1-0.3-2.3c-0.2-0.2-0.9-0.2-0.9-0.2
				c-2.9,0.3-6.5,0.5-9.8,0.5l-9.7-0.5h-2.2c-1,0-1.8,0.8-1.8,1.8c0,0-0.2,1.5,0.1,2c0.2,0.4,0.4,0.5,0.7,0.5
				c0.4,0.1,4.6-0.1,4.6-0.1c1.3,0,2.6,0.6,3.6,1.7c0.6,0.7,1,2.1,1.1,4.2l0.2,2.8c0.9,10.8,0.9,20.5,0.9,29.1c0,5-0.3,8.6-1,11
				c-0.5,1.7-1.3,3.5-2.5,5.5c-0.6,0.9-1.6,2-3.1,3.1s-3,1.9-4.7,2.4c-2.8,0.9-5.8,1.3-9.1,1.3c-2.7,0-5.5-0.7-8.4-2.2
				c-2-1.1-3.5-2.5-4.6-4.4c-1.5-2.6-2.3-5.8-2.4-9.7l-0.7-13.4v-0.1l-0.1-13.4c0-0.1,0-0.1,0-0.2l0.1-4.9l-0.1-1.9
				c0-0.7-0.1-1.6-0.1-2.8c0-3.7,0.2-5.9,0.6-6.4c0.6-0.8,1.9-1.2,3.7-1.2c2,0,5,0,5.4-0.3s0.4-1.1,0.4-1.1l-0.1-2.6
				c0,0,0-0.4-0.3-0.5c-0.2-0.1-1.7,0-3.8,0c-2,0-4.3,0.1-6.9,0.2s-5.2,0.2-7.9,0.2c-0.8,0-3.4-0.1-7.9-0.4
				c-1.9-0.1-3.6-0.2-5.3-0.2c-1,0-1.8,0.8-1.8,1.9v0.8C427.7,392.1,428.5,392.8,429.5,392.9z"/>
			<path d="M155.8,394l0.8,0.1c2.2,0.2,3.7,0.5,4.4,0.9s1.8,1.1,2.4,2c0.1,0.1,0.2,0.4,0.4,0.9c0.5,1.2,0.8,2.6,0.8,3.9v21
				c-0.6,0.3-1.1,0.7-1.7,1.1c-2.4,1.7-3.9,3.6-4.7,5c-0.4,0.7-0.7,1.3-0.9,1.7c-0.1,0.2-0.1,0.4-0.2,0.5c0,0.1-0.1,0.2-0.1,0.2
				c0,0.1,0,0.3,0.1,0.4c0.2,0.3,0.5,0.3,0.8,0.2c0,0,0,0,0.1-0.1c0.1,0,0.2-0.1,0.4-0.2c0.3-0.2,0.9-0.4,1.5-0.7
				c1.1-0.5,2.7-1.1,4.6-1.6v15.5c0,0,0.2,8-4.1,8.9c-0.5,0.1-3.7,0.4-5,0.7c-1.3,0.3-0.8,2.2-0.9,3.2c-0.2,1,4.4,0.5,7.4,0.6
				c4.6,0.3,39.3-1.1,45.3-0.1s11.8-0.5,12.3-6.7c0.3-4,1.7-9.2,1.8-10.6c0-0.8-0.5-1.5-1.2-1.7c-0.9-0.3-1.8-0.2-2.4,1
				c-4.8,11.4-7.3,13.2-36.6,12.2c0,0-2.6-1.5-2.6-9c0-2.4,0-8.1,0-14.8c1,0.1,2,0.2,3,0.4c0.8,0.1,1.6,0.2,2.5,0.4
				c0.9,0.1,1.8,0.2,2.6,0.3c1.7,0.2,3.5,0.2,5.2,0.1s3.4-0.3,5.1-0.6c1.6-0.4,3.2-0.9,4.6-1.7c1.4-0.8,2.6-1.8,3.3-2.8
				c0.8-1,1.2-1.9,1.6-2.7c0.3-0.7,0.5-1.3,0.6-1.7c0.1-0.4,0.2-0.6,0.2-0.6c0-0.1,0-0.3-0.1-0.4c-0.1-0.3-0.5-0.4-0.8-0.2
				c0,0-0.2,0.1-0.6,0.3c-0.3,0.2-0.9,0.5-1.5,0.9s-1.4,0.8-2.2,1.1c-0.8,0.3-1.7,0.5-2.6,0.6c-1,0.1-2.1,0-3.3-0.1s-2.6-0.3-4-0.5
				c-1.5-0.2-3-0.5-4.5-0.7c-0.8-0.1-1.5-0.3-2.3-0.4s-1.6-0.3-2.5-0.4c-1.5-0.2-2.9-0.3-4.4-0.4c0-7.5,0-14.9,0-19.7l0,0v-0.1
				c0-0.1,0-0.3,0-0.4c0-0.6,0.2-1.3,0.2-1.6c0-0.5,0.6-1,1-1.4c0.7-0.7,1.8-1.3,3.3-1.7c0.1,0,0.2,0,0.4-0.1
				c4.3,0,9.9,0.1,16.7,1.2c11.4,1.8,9.2,9.8,13.2,9.7c2.3-0.1,3-3.1,0.8-13.1c-1.1-5.1-5.3-3.7-12.9-3.6c-6.2,0-20.4,1.1-21.9,1.3
				c-2.6,0.2-4.4,0.3-5.3,0.3c-6.7,0-12.2-0.2-16.3-0.7c-0.2,0-0.8,0-1.6-0.1c-0.9,0-1.6,0.7-1.6,1.6v1.5
				C154.4,393.3,155,393.9,155.8,394z"/>
			<path d="M822.2,467.8c-1-2-2.5-3.5-4.1-4.8c-1.6-1.2-3.5-2.1-5.4-2.7c-3.8-1.3-7.8-1.5-11.6-1.1c-0.5,0.1-0.9,0.1-1.5,0.2
				l-1.3,0.2l-1.4,0.3l-1.4,0.3c-1.8,0.5-3.6,1.1-5.4,1.7c-4.5,1.6-8.7,3.6-12.9,5.6c-4.1-3.5-7.9-7.4-11.4-11.3
				c-3.7-4-7.2-8.2-10.5-12.4l0.1-2.9c0-0.5,0-1.4,0-2.6l-0.3-17.8c0-1.1,0-2.2-0.1-3.1c-0.2-2.8-0.3-6.7-0.2-11.6
				c0-2.2,0-3.6,0-4.3c0-1.2-0.1-1.9-0.1-2.1c0-0.7,0.1-1.2,0.3-1.6c0.1-0.2,0.3-0.4,0.5-0.6c0.4-0.3,1.3-0.8,2.4-1.4
				c0.3-0.2,1.6-0.5,3.8-1c0.4-0.1,0.7-0.2,1.1-0.3c0.8-0.3,1.3-1,1.3-1.9l0,0c0-1.1-0.9-2-2-2H762l-11.1,0.1l-9.9,0.1
				c-0.1,0-0.8,0.2-1.1,0.7c-1.2,2.2,1,3,1,3c0.8,0.2,1.7,0.5,2.7,0.7c2.5,0.4,4.1,1,4.8,1.8c0.4,0.5,0.6,1.8,0.6,4
				c0,0.7,0.1,3.2,0.5,7.7c0.2,2.3,0.2,4.8,0.2,7.6c0,1.7,0,3.3,0.1,4.7c0,2.3,0.1,12.8,0.1,16.3c-2.9-3.5-5.7-7.1-8.5-10.5
				c-3.9-4.9-7.6-9.6-11.3-14.2c-3.2-4.4-6.2-9.5-9.7-14c-1.8-2.2-3.7-4.4-5.7-6.3c-2-2-4.3-3.7-6.7-5.2c-4.9-2.9-10.3-4.5-15.2-5.3
				c-0.6-0.1-1.2-0.2-1.9-0.3l-0.9-0.1c-0.3,0-0.5,0-0.8,0h-0.8h-0.1c-0.2,0-0.1,0-0.2,0h-0.2h-0.4c-0.5,0-1.1,0-1.6,0
				c-1.1,0-2.1,0.1-3.2,0.1c-1,0.1-2.1,0.1-3.1,0.3c-4,0.5-7.6,1.7-10.5,3.5s-5,4.3-6.3,6.6c-1.3,2.4-1.8,4.6-2.2,6.4
				c-0.6,2.4-0.4,4.6-0.4,5.8c0,0.1,0,0.1,0,0.2s0,0.3,0,0.4v0.1l0,0c0.3,3.7,3.3,6.6,7,6.6c1.8,0,4.1-2.5,4.2-4.1
				c0,0.2,0.7,2.7,0.7,2.9c0.2,0.7,0.3,1.4,0.4,2c0.1,0.7,0.2,1.3,0.3,1.9s0.1,1.2,0.2,1.7c0.1,1.1,0.2,2.1,0.2,2.9
				c0.1,0.8,0.1,1.6,0.1,2.2c0,1.1,0,1.7,0.1,1.8c0,0.3,0,1-0.1,1.9c0,0.4,0,0.7,0,1.2c0,0.4-0.1,0.7-0.1,1.1
				c-0.1,0.8-0.1,1.6-0.2,2.8c-0.1,0.6-0.1,1.1-0.2,1.7c-0.1,0.6-0.2,1.2-0.3,1.9c-0.1,0.7-0.2,1.4-0.4,2.1s-0.3,1.5-0.5,2.2
				c-0.8,3-2.1,6.5-4.4,9.7c-0.3,0.4-0.6,0.8-0.9,1.2c-0.3,0.4-0.7,0.7-1.1,1.1c-0.7,0.8-1.6,1.4-2.4,2.1c-1.8,1.2-3.8,2.3-6.1,2.7
				l-0.9,0.2c-0.3,0-0.6,0.1-0.9,0.1c-0.5,0-1.1,0.1-1.7,0.1c-1.3-0.1-2.8-0.1-3.8-0.5c-1.1-0.2-2.3-0.7-3.4-1.2
				c-1.1-0.6-2.2-1.2-3.2-2c-1-0.7-1.9-1.7-2.7-2.6c-0.8-1-1.6-2-2.2-3.2c-0.7-1.1-1.2-2.3-1.7-3.4l-0.7-1.8
				c-0.2-0.6-0.4-1.2-0.6-1.8c-1.4-4.9-1.9-10-2-15v-0.5v-0.1v-0.2v-1.1v-1.1v-0.6v-0.3v-0.2c0.1-1.1,0.1-2.2,0.3-3.5
				c0.2-2.5,0.7-4.9,1.3-7.4s1.6-4.8,2.8-7s2.9-4.2,4.8-5.8c0.5-0.4,1-0.8,1.5-1.1c0.5-0.3,1.1-0.6,1.6-0.9s1.1-0.5,1.7-0.8
				c0.6-0.2,1.2-0.5,1.8-0.6s1.2-0.3,1.8-0.4s1.2-0.1,1.8-0.1h0.4h0.2l0,0h0.1l1,0.1c0.6,0.1,1.3,0.1,1.9,0.2
				c0.9,0.2,4.5-3.1,2.5-3.9c-0.7-0.1-1.4-0.2-2.2-0.3c-0.7-0.1-1.3-0.1-2-0.1l-1-0.1h-0.1h-0.2h-0.1h-0.3H652
				c-0.7,0-1.4,0.1-2.2,0.1c-0.7,0.1-1.5,0.2-2.2,0.3c-2.9,0.6-5.9,1.3-8.7,2.8c-2.8,1.4-5.6,3.1-8.1,5.3c-0.7,0.5-1.2,1.1-1.8,1.7
				l-0.9,0.9c-0.3,0.3-0.5,0.6-0.8,1c-0.5,0.7-1.1,1.3-1.6,2s-1,1.4-1.5,2.1c-1.8,2.9-3.3,6.1-4.2,9.5c-0.5,1.6-0.7,3.6-1,5.4
				l-0.1,0.3v0.3v0.6l-0.1,1.1l-0.1,1.1v0.3v0.4v0.2v0.7c0.1,1.7,0.2,3.5,0.5,5.2c0.2,1.7,0.7,3.4,1.2,5.1c1.1,3.3,2.5,6.5,4.5,9.3
				c0.5,0.7,0.9,1.4,1.5,2.1c0.5,0.7,1.1,1.3,1.6,2c1.2,1.2,2.3,2.4,3.6,3.5c1.2,1.1,2.6,2,3.9,3c1.4,0.8,2.7,1.7,4.2,2.3
				c1.4,0.7,2.9,1.2,4.3,1.7c1.5,0.3,2.9,0.8,4.5,1c1.6,0.3,2.8,0.3,4.2,0.4h0.1c0,0,0.3,0,0.2,0h0.1h0.3h0.5l1.1-0.1
				c0.4,0,0.7,0,1.1-0.1l1-0.2c2.8-0.3,5.4-1.3,8-2.3c1.2-0.6,2.5-1.1,3.5-1.8c0.6-0.3,1.1-0.7,1.7-1c0.5-0.4,1-0.7,1.6-1.1
				c4.2-3,7.3-6.6,9.6-10.2c0.6-0.9,1.1-1.8,1.5-2.7c0.5-0.9,0.9-1.7,1.2-2.6s0.7-1.7,1-2.5s0.4-1.6,0.7-2.3
				c0.5-1.4,0.6-2.9,0.8-4.2c0.1-0.6,0.2-1.2,0.2-1.7c0-0.4,0.1-0.8,0.1-1.2c0.1-1.4,0.1-2.2,0.1-2.2v-0.3c0,0,0-0.9-0.1-2.5
				c0-0.4-0.1-0.9-0.1-1.4s-0.2-1-0.2-1.6c-0.2-1.2-0.4-2.5-0.8-4c-0.7-3-2.2-6.5-4.5-10.1c-1.1-1.6-3.7-4.8-6.5-5.9
				c-4-1.5-8.4-1-10.6,0.3c0,0-0.2,0.1-0.6,0.4c0-0.2,0-0.3,0-0.3c0.2-1.3,0.6-2.8,1.3-4.4c1-2,2.6-4.1,5.2-5.6
				c2.5-1.5,5.8-2.3,9.4-2.4c0.9-0.1,1.8,0,2.8,0c1,0.1,1.9,0.2,2.9,0.3c0.5,0.1,1,0.1,1.5,0.2l0.4,0.1h0.2c0,0,0.2,0,0,0h0.1
				l0.8,0.2c0.3,0.1,0.5,0.1,0.8,0.2l0.6,0.3l0.6,0.2l0.7,0.3c1.8,0.9,3.4,2.2,4.8,3.8c1,1.1,1.9,2.3,2.8,3.5l0.3,25.8l-0.1,16.4
				v2.8c0,1.2-0.1,4.5-0.4,9.8c-0.1,1.9-0.4,3-0.9,3.4s-2,0.6-4.6,0.6c-0.3,0-0.5,0-0.8,0c-0.9-0.1-1.4-0.1-1.6-0.1
				c-0.2,0-0.4,0-0.7,0c-0.9,0.1-1.7,0.9-1.7,1.8c0,0.1,0,0.2,0,0.3c0,0.2,0,0.4,0,0.5c0,0.9,0.8,1.7,1.8,1.7l0,0
				c0.2,0,1.1-0.1,2.9-0.2c1.8-0.1,5.3-0.2,10.6-0.3c0.1,0,0.1,0,0.2,0c5.7,0.5,9.1,0.8,10.1,0.8h0.1c1,0,1.8-0.9,1.8-1.9l-0.1-1.1
				c0-0.7-0.5-1.3-1.2-1.5l0,0c-0.1,0-0.2,0-0.3,0c-3.5-0.2-6-0.5-7.5-0.8c-0.6-0.1-1.1-0.5-1.3-1.1c-0.1-0.3-0.2-0.5-0.3-0.7
				c-0.1-0.4-0.2-1-0.3-1.8c-0.3-3.2-0.5-6.2-0.6-9l-0.3-6.6V433v-3.5c0-1.2,0-2.4-0.1-3.5l-0.4-24.8c1.5,2.1,3.1,4.2,4.8,6.4
				c3.3,4.3,6.8,8.8,10.3,13.4c0.5,0.6,1,1.3,1.5,1.9s0.9,1.1,1.4,1.7c0.8,1.1,1.7,2.2,2.6,3.4c1.8,2.4,3.6,4.9,5.5,7.4
				c3.8,5.1,7.8,10.2,12.4,15.1c4.6,4.9,9.6,9.7,15,14.2c3.2,2.6,6.5,5.1,10,7.5c-11.8,6.1-23.2,12.4-34.3,18.2
				c-11.9,6.3-23.5,12.2-34.6,17.1s-22.1,8.6-32.5,9.8c-5.2,0.6-10.3,0.5-15.1,0.2s-9.3-1.1-13.3-2.3s-7.5-3-10-5.2
				c-2.6-2.2-4.2-4.9-4.8-7.6c-0.6-2.6-0.3-5.2,0.4-7.2c0.5-1.6,1.3-2.8,2-3.9c0.9,2.9,3.6,4.9,6.7,4.9c3.9,0,7.1-3.2,7.1-7.1
				s-3.2-7.1-7.1-7.1c-1.7,0-3.3,0.6-4.5,1.6c-0.1,0-0.2,0.1-0.3,0.2l0,0c0,0-0.1,0.1-0.3,0.2s-0.5,0.3-0.9,0.6
				c-0.8,0.6-1.9,1.5-3.2,3c-1.2,1.5-2.6,3.4-3.5,6.1c-0.9,2.6-1.4,5.9-0.7,9.5s2.8,7.2,6,10.1c3.1,2.9,7.2,4.9,11.6,6.5
				c4.4,1.5,9.2,2.5,14.3,3c2.5,0.3,5.2,0.4,7.8,0.5s5.5,0.1,8.3-0.1c11.3-0.8,23.2-3.5,35.2-7.9s23.9-10.5,35.7-17.4
				s23.5-14.7,35.6-22.1c0.1,0,0.1-0.1,0.2-0.1c0.7,0.4,1.4,0.8,2.2,1.2c3.3,1.8,6.7,3.3,10.2,4.6c3.6,1.2,7.3,2.2,11.1,2.5
				c1.9,0.2,3.9,0.1,5.8,0c0.9,0,1.9,0,2.8-0.1c0.9-0.1,1.9-0.1,2.8-0.3c1.9-0.2,3.8-0.6,5.6-1.2c1.9-0.6,3.7-1.5,5.4-2.8
				s3.2-3.1,3.8-5.4C823.6,472.2,823.2,469.7,822.2,467.8z M819.2,473.4c-0.4,1.2-1.3,2.4-2.5,3.3c-2.4,1.8-5.8,2.7-9.1,3.1
				c-0.8,0.1-1.7,0.2-2.5,0.2c-0.9,0.1-1.7,0.1-2.6,0.1c-1.7-0.1-3.3-0.4-4.9-0.8c-5.8-1.5-11.1-4.5-15.9-8.1
				c0.2-0.1,0.4-0.2,0.6-0.4c3.1-1.7,6.3-3.3,9.5-4.6c1.6-0.7,3.3-1.3,4.9-1.8l1.2-0.4l1.2-0.3l1.3-0.3c0.3-0.1,0.8-0.1,1.2-0.2
				c3.3-0.5,6.8-0.3,9.9,0.7c3.1,1,5.9,3,7.2,5.6C819.4,470.8,819.6,472.1,819.2,473.4z"/>
			<path d="M506.1,489.9c1,0,2.5,0,2.7-0.1s0.2-0.5,0.2-0.5V488c0,0,0-0.2-0.1-0.3c-0.1-0.1-0.9,0-1.9,0s-2.1,0.1-3.4,0.1
				c-1.3,0.1-2.6,0.1-3.9,0.1c-0.4,0-1.7-0.1-3.9-0.2c-0.9-0.1-1.8-0.1-2.6-0.1c-0.5,0-0.9,0.4-0.9,0.9v0.4c0,0.5,0.4,0.9,0.9,0.9
				c0.1,0,0.1,0,0.2,0c1.9,0.1,3.1,0.4,3.4,0.9c0.3,0.4,0.4,2.1,0.4,5v12.6c0,2.4,0.1,4.3,0.4,5.6c0.3,1.9,1,3.4,1.9,4.6
				c0.9,1.2,2.3,2.1,4.2,2.9c1.8,0.7,4.1,1.1,6.6,1.1c2.3,0,4.2-0.3,5.9-0.8s3.1-1.2,4.2-2.1c1.1-0.9,2-1.9,2.6-2.9
				c0.4-0.7,0.7-1.7,0.9-2.9s0.3-3.6,0.3-7.2l-0.1-5.4c0-1.3,0.1-9.7,0.1-10.1s0.1-0.8,0.3-1c0.1-0.1,0.5-0.2,1.6-0.4c0,0,0,0,0.1,0
				c0.5,0,0.9-0.1,1.3-0.2c0.4-0.1,0.7-0.4,0.7-0.8l0,0c0-0.2,0-1.1-0.1-1.2s-0.5-0.1-0.5-0.1c-1.4,0.2-3.2,0.2-4.8,0.2l-4.8-0.2
				h-1.1c-0.5,0-0.9,0.4-0.9,0.9c0,0-0.1,0.8,0.1,1c0.1,0.2,0.2,0.2,0.3,0.3c0.2,0,2.2-0.1,2.2-0.1c0.7,0,1.3,0.3,1.8,0.8
				c0.3,0.4,0.5,1,0.5,2.1l0.1,1.4c0.4,5.3,0.5,10.1,0.5,14.4c0,2.4-0.2,4.2-0.5,5.4c-0.2,0.8-0.6,1.8-1.2,2.7
				c-0.3,0.5-0.8,1-1.5,1.5c-0.7,0.6-1.5,1-2.3,1.2c-1.4,0.4-2.9,0.7-4.5,0.7c-1.3,0-2.7-0.4-4.1-1.1c-1-0.5-1.7-1.3-2.2-2.2
				c-0.7-1.3-1.1-2.9-1.2-4.8l-0.3-6.6c0,0,0,0,0-0.1v-6.6v-0.1v-2.4v-0.9c0-0.4,0-0.8,0-1.4c0-1.8,0.1-2.9,0.3-3.1
				C504.6,490.1,505.2,489.9,506.1,489.9z"/>
			<path d="M465.6,504.2v-0.6v-0.3v-0.1v-0.1c0.1-0.6,0-1.1,0.1-1.7c0.1-1.2,0.3-2.4,0.6-3.6s0.8-2.4,1.4-3.5
				c0.6-1.1,1.4-2.1,2.4-2.9c0.2-0.2,0.5-0.4,0.7-0.6c0.3-0.2,0.5-0.3,0.8-0.5s0.6-0.3,0.8-0.4c0.3-0.1,0.6-0.2,0.9-0.3
				c0.3-0.1,0.6-0.1,0.9-0.2c0.3,0,0.6,0,0.9-0.1h0.2h0.1l0,0l0,0h0.5c0.3,0,0.7,0,0.9,0.1c0.5,0.1,2.2-1.5,1.2-1.9
				c-0.4,0-0.7-0.1-1.1-0.1c-0.4-0.1-0.6,0-1-0.1h-0.5h-0.1h-0.1l0,0h-0.1h-0.3c-0.4,0-0.7,0-1.1,0.1c-0.4,0.1-0.7,0.1-1.1,0.2
				c-1.4,0.3-2.9,0.7-4.3,1.4c-1.4,0.7-2.8,1.5-4,2.6c-0.3,0.3-0.6,0.6-0.9,0.9l-0.4,0.4c-0.1,0.2-0.3,0.3-0.4,0.5
				c-0.3,0.3-0.5,0.6-0.8,1c-0.2,0.3-0.5,0.7-0.7,1.1c-0.9,1.4-1.6,3-2.1,4.7c-0.3,0.8-0.4,1.8-0.5,2.7v0.2v0.1v0.3v0.6v0.6v0.1v0.2
				v0.1v0.3c0,0.9,0.1,1.7,0.2,2.6c0.1,0.9,0.4,1.7,0.6,2.5c0.5,1.6,1.2,3.2,2.2,4.6c0.2,0.4,0.5,0.7,0.7,1c0.3,0.3,0.5,0.7,0.8,1
				c0.6,0.6,1.1,1.2,1.8,1.7c0.6,0.5,1.3,1,1.9,1.5c0.7,0.4,1.3,0.8,2.1,1.1c0.7,0.4,1.4,0.6,2.1,0.9c0.7,0.2,1.4,0.4,2.2,0.5
				s1.4,0.1,2.1,0.2l0,0h0.1h0.1h0.1h0.3h0.5c0.2,0,0.4,0,0.5,0l0.5-0.1c1.4-0.2,2.7-0.6,3.9-1.1c0.6-0.3,1.2-0.5,1.8-0.9
				c0.3-0.2,0.6-0.3,0.8-0.5c0.3-0.2,0.5-0.4,0.8-0.6c2-1.5,3.6-3.3,4.7-5c0.3-0.4,0.5-0.9,0.8-1.3c0.2-0.4,0.5-0.9,0.6-1.3
				c0.2-0.4,0.3-0.8,0.5-1.2c0.1-0.4,0.2-0.8,0.3-1.1c0.2-0.7,0.3-1.4,0.4-2.1c0-0.3,0.1-0.6,0.1-0.8s0-0.4,0-0.6
				c0-0.7,0.1-1.1,0.1-1.1v-0.1c0,0,0-0.4-0.1-1.2c0-0.2,0-0.4,0-0.7c0-0.2-0.1-0.5-0.1-0.8c-0.1-0.6-0.2-1.2-0.4-2
				c-0.4-1.5-1.1-3.2-2.2-5c-0.5-0.8-1.8-2.4-3.2-2.9c-2-0.8-4.4-0.4-5.2,0.3l0,0c-1.2,0.5-2.1,1.8-2.1,3.2c0,1.9,1.6,3.5,3.5,3.5
				c0.9,0,1.7-0.3,2.3-0.9c0,0.1,0,0.2,0.1,0.3c0.1,0.3,0.2,0.7,0.2,1c0.1,0.3,0.1,0.6,0.2,0.9c0,0.3,0.1,0.6,0.1,0.9
				c0.1,0.5,0.1,1,0.1,1.4s0,0.8,0,1.1c0,0.5,0,0.8,0,0.9c0,0.2,0,0.5,0,0.9c0,0.2,0,0.4,0,0.6c0,0.2,0,0.3,0,0.5
				c0,0.4,0,0.8-0.1,1.4c0,0.3-0.1,0.6-0.1,0.9c0,0.3-0.1,0.6-0.2,0.9c0,0.3-0.1,0.7-0.2,1c-0.1,0.3-0.1,0.7-0.3,1.1
				c-0.4,1.5-1,3.2-2.2,4.8c-0.1,0.2-0.3,0.4-0.5,0.6c-0.2,0.2-0.3,0.4-0.5,0.6c-0.3,0.4-0.8,0.7-1.2,1c-0.9,0.6-1.9,1.1-3,1.3
				l-0.4,0.1c-0.1,0-0.3,0-0.4,0c-0.3,0-0.5,0-0.8,0.1c-0.6-0.1-1.4-0.1-1.9-0.2c-0.5-0.1-1.1-0.4-1.7-0.6c-0.5-0.3-1.1-0.6-1.6-1
				s-0.9-0.8-1.4-1.3c-0.4-0.5-0.8-1-1.1-1.6c-0.3-0.5-0.6-1.1-0.9-1.7l-0.3-0.9c-0.1-0.3-0.2-0.6-0.3-0.9c-0.7-2.4-0.9-4.9-1-7.4
				v-0.2l0,0v-0.1L465.6,504.2z"/>
			<path d="M567.9,492.3c0-0.3,0.3-0.5,0.5-0.7c0.3-0.3,0.9-0.6,1.6-0.8c0,0,0.1,0,0.2,0c2.1,0,4.9,0.1,8.2,0.6
				c5.6,0.9,4.6,4.9,6.5,4.8c1.1,0,1.5-1.5,0.4-6.5c-0.6-2.5-2.6-1.8-6.4-1.8c-3.1,0-10.1,0.6-10.8,0.6c-1.3,0.1-2.2,0.1-2.6,0.1
				c-3.3,0-6-0.1-8.1-0.4c-0.1,0-0.4,0-0.8,0c-0.4,0-0.8,0.3-0.8,0.8v0.7c0,0.4,0.3,0.7,0.7,0.8h0.4c1.1,0.1,1.8,0.3,2.2,0.4
				c0.4,0.2,0.9,0.5,1.2,1c0,0.1,0.1,0.2,0.2,0.4c0.2,0.6,0.4,1.3,0.4,1.9v10.3c-0.3,0.2-0.6,0.3-0.8,0.5c-1.2,0.8-1.9,1.8-2.3,2.5
				c-0.2,0.3-0.3,0.6-0.4,0.8c0,0.1-0.1,0.2-0.1,0.2c0,0.1,0,0.1,0,0.1l0.4,0.3c0,0,0,0,0.1,0c0,0,0.1-0.1,0.2-0.1
				c0.2-0.1,0.4-0.2,0.7-0.4c0.6-0.3,1.3-0.5,2.3-0.8v7.6c0,0,0.1,3.9-2,4.4c-0.3,0.1-1.8,0.2-2.5,0.4c-0.6,0.2-0.4,1.1-0.5,1.6
				s2.2,0.2,3.7,0.3c2.3,0.1,19.4-0.5,22.4,0c2.9,0.5,5.8-0.2,6.1-3.3c0.2-2,0.9-4.5,0.9-5.2c0-0.4-0.2-0.7-0.6-0.8
				c-0.5-0.1-0.9-0.1-1.2,0.5c-2.3,5.6-3.6,6.5-18.1,6c0,0-1.3-0.7-1.3-4.4c0-1.2,0-4,0-7.3c0.5,0.1,1,0.1,1.5,0.2
				c0.4,0.1,0.8,0.1,1.2,0.2c0.4,0.1,0.9,0.1,1.3,0.1c0.9,0.1,1.7,0.1,2.6,0.1c0.8,0,1.7-0.1,2.5-0.3s1.6-0.4,2.3-0.8
				c0.7-0.4,1.3-0.9,1.6-1.4c0.4-0.5,0.6-0.9,0.8-1.3c0.2-0.4,0.2-0.7,0.3-0.9s0.1-0.3,0.1-0.3l-0.4-0.3c0,0-0.1,0.1-0.3,0.2
				c-0.2,0.1-0.4,0.3-0.7,0.5s-0.7,0.4-1.1,0.5c-0.4,0.2-0.8,0.2-1.3,0.3c-0.5,0-1,0-1.6,0s-1.3-0.1-2-0.2c-0.7-0.1-1.5-0.2-2.2-0.4
				c-0.4-0.1-0.8-0.1-1.1-0.2c-0.4-0.1-0.8-0.1-1.2-0.2c-0.7-0.1-1.4-0.2-2.2-0.2c0-3.7,0-7.4,0-9.7l0,0c0,0,0,0,0-0.1s0-0.1,0-0.2
				C567.8,492.8,567.9,492.4,567.9,492.3z"/>
			<path d="M422.4,518c-0.1,0.3-0.2,0.4-0.2,0.5c-0.3,0.4-0.8,0.8-1.2,1c-0.4,0.2-1.1,0.3-2.2,0.4l-0.6,0.1c-0.3,0-0.5,0.3-0.5,0.6
				v1.1c0,0.3,0.3,0.6,0.6,0.6c0.5,0,0.9,0,1,0c2-0.2,4.7-0.4,8.1-0.4c0.4,0,1.3,0,2.6,0.1c0.7,0.1,1.5,0.1,2.4,0.2
				c0.2,0,0.3,0,0.5,0.1h0.1h0.3c1.6,0.1,1.4-1.7,0.8-2.3c-0.4-0.2-1.2-0.2-2-0.2c-0.1,0-0.1,0-0.2,0c-0.7-0.2-1.3-0.5-1.6-0.8
				c-0.2-0.2-0.5-0.4-0.5-0.7c0-0.1-0.1-0.5-0.1-0.8c0-0.1,0-0.1,0-0.2c0,0,0,0,0-0.1l0,0c0-2.3,0-5.8,0-9.5c0.4,0,0.8,0,1.2,0
				c0.5,0,1.1,0,1.6,0c0.6,0,1.1,0,1.7,0s1.1,0.1,1.7,0.1s1.1,0.1,1.7,0.1c0.6,0.1,1.2,0.1,1.8,0.1l0.9,0.1c0.3,0,0.6,0,0.9,0
				c1.2,0.1,2.4,0,3.6,0c0.1,0,0.1,0,0.2,0v8.1c0,0.6-0.1,1.3-0.4,1.9c-0.1,0.3-0.2,0.4-0.2,0.5c-0.3,0.4-0.8,0.8-1.2,1
				c-0.4,0.2-1.1,0.3-2.2,0.4l-0.6,0.1c-0.3,0-0.5,0.3-0.5,0.6v1.1c0,0.3,0.3,0.6,0.6,0.6c0.5,0,0.9,0,1,0c2-0.2,4.7-0.4,8.1-0.4
				c0.4,0,1.3,0,2.6,0.1c0.7,0.1,1.5,0.1,2.4,0.2c0.2,0,0.3,0,0.5,0.1h0.1h0.3c1.6,0.1,1.4-1.7,0.8-2.3c-0.4-0.2-1.2-0.2-2-0.2
				c-0.1,0-0.1,0-0.2,0c-0.7-0.2-1.3-0.5-1.6-0.8c-0.2-0.2-0.5-0.4-0.5-0.7c0-0.1-0.1-0.5-0.1-0.8c0-0.1,0-0.1,0-0.2c0,0,0,0,0-0.1
				l0,0c0-2.5,0-6.5,0-10.4c0.7-0.3,1.3-0.6,1.9-1c0.7-0.5,1.2-1,1.6-1.4s0.6-0.8,0.8-1c0.2-0.2,0.3-0.4,0.3-0.4
				c0.1-0.1,0.1-0.2,0-0.3s-0.2-0.2-0.4-0.1c0,0-0.1,0.1-0.4,0.2c-0.3,0.1-0.6,0.3-1.1,0.5s-1,0.4-1.7,0.6c-0.3,0.1-0.6,0.1-1,0.2
				c0-4,0-7.6,0-8.9c0-1.9,0.3-3,0.7-3.7c0.2-0.5,0.7-0.8,1.2-0.8c0.7-0.1,1.2-0.1,1.7-0.1c0.6,0,1.1-0.6,1.1-1.2
				c-0.1-1.3-2-1.3-2-1.3s-14-0.3-14.3,0.1s-0.4,1.4,0.2,1.6s2.2,0.3,2.5,0.4c2.1,0.5,2,4.4,2,4.4v9.5h-0.1
				c-1.1-0.1-2.2-0.2-3.4-0.3c-1.1-0.1-2.4-0.2-3.6-0.3c-1.3-0.1-2.5-0.1-3.8-0.1s-2.5,0.1-3.7,0.3c-0.3,0-0.6,0.1-0.9,0.1
				c0-3.9,0-7.3,0-8.6c0-1.9,0.3-3,0.7-3.7c0.2-0.5,0.7-0.8,1.2-0.8c0.7-0.1,1.2-0.1,1.7-0.1c0.6,0,1.1-0.6,1.1-1.2
				c-0.1-1.3-2-1.3-2-1.3s-14-0.3-14.3,0.1s-0.4,1.4,0.2,1.6s2.2,0.3,2.5,0.4c2.1,0.5,2,4.4,2,4.4v11.8c-1,0.6-1.9,1.2-2.4,1.8
				c-0.4,0.4-0.7,0.7-0.9,1c-0.2,0.2-0.3,0.4-0.3,0.4c0,0.1-0.1,0.2,0,0.3s0.2,0.2,0.4,0.1l0,0c0,0,0.1-0.1,0.4-0.2
				c0.3-0.1,0.6-0.3,1.1-0.4c0.5-0.2,1.1-0.3,1.8-0.5v7.5C422.7,516.7,422.6,517.4,422.4,518z"/>
			<path d="M379,492.3c0-0.3,0.3-0.5,0.5-0.7c0.3-0.3,0.9-0.6,1.6-0.8c0,0,0.1,0,0.2,0c2.1,0,4.9,0.1,8.2,0.6
				c5.6,0.9,4.6,4.9,6.5,4.8c1.1,0,1.5-1.5,0.4-6.5c-0.6-2.5-2.6-1.8-6.4-1.8c-3.1,0-10.1,0.6-10.8,0.6c-1.3,0.1-2.2,0.1-2.6,0.1
				c-3.3,0-6-0.1-8.1-0.4c-0.1,0-0.4,0-0.8,0s-0.8,0.3-0.8,0.8v0.7c0,0.4,0.3,0.7,0.7,0.8h0.4c1.1,0.1,1.8,0.3,2.2,0.4
				c0.4,0.2,0.9,0.5,1.2,1c0,0.1,0.1,0.2,0.2,0.4c0.2,0.6,0.4,1.3,0.4,1.9v10.3c-0.3,0.2-0.6,0.3-0.8,0.5c-1.2,0.8-1.9,1.8-2.3,2.5
				c-0.2,0.3-0.3,0.6-0.4,0.8c0,0.1-0.1,0.2-0.1,0.2c0,0.1,0,0.1,0,0.1c0,0.1,0,0.1,0,0.2c0.1,0.1,0.3,0.2,0.4,0.1c0,0,0,0,0.1,0
				c0,0,0.1-0.1,0.2-0.1c0.2-0.1,0.4-0.2,0.7-0.4c0.6-0.3,1.3-0.5,2.3-0.8v7.6c0,0,0.1,3.9-2,4.4c-0.3,0.1-1.8,0.2-2.5,0.4
				c-0.6,0.2-0.4,1.1-0.5,1.6s2.2,0.2,3.7,0.3c2.3,0.1,19.4-0.5,22.4,0c2.9,0.5,5.8-0.2,6.1-3.3c0.2-2,0.9-4.5,0.9-5.2
				c0-0.4-0.2-0.7-0.6-0.8c-0.5-0.1-0.9-0.1-1.2,0.5c-2.3,5.6-3.6,6.5-18.1,6c0,0-1.3-0.7-1.3-4.4c0-1.2,0-4,0-7.3
				c0.5,0.1,1,0.1,1.5,0.2c0.4,0.1,0.8,0.1,1.2,0.2c0.4,0.1,0.9,0.1,1.3,0.1c0.9,0.1,1.7,0.1,2.6,0.1c0.8,0,1.7-0.1,2.5-0.3
				s1.6-0.4,2.3-0.8c0.7-0.4,1.3-0.9,1.6-1.4c0.4-0.5,0.6-0.9,0.8-1.3c0.2-0.4,0.2-0.7,0.3-0.9c0.1-0.2,0.1-0.3,0.1-0.3
				c0-0.1,0-0.1,0-0.2c-0.1-0.1-0.2-0.2-0.4-0.1c0,0-0.1,0.1-0.3,0.2c-0.2,0.1-0.4,0.3-0.7,0.5c-0.3,0.2-0.7,0.4-1.1,0.5
				c-0.4,0.2-0.8,0.2-1.3,0.3c-0.5,0-1,0-1.6,0s-1.3-0.1-2-0.2c-0.7-0.1-1.5-0.2-2.2-0.4c-0.4-0.1-0.8-0.1-1.1-0.2
				c-0.4-0.1-0.8-0.1-1.2-0.2c-0.7-0.1-1.4-0.2-2.2-0.2c0-3.7,0-7.4,0-9.7l0,0c0,0,0,0,0-0.1s0-0.1,0-0.2
				C378.9,492.8,379,492.4,379,492.3z"/>
			<path d="M263.4,496l0.2-0.4c0.1-0.1,0.1-0.2,0.2-0.4l0.5-0.8c0.4-0.5,0.7-1.1,1.1-1.5c0.4-0.5,0.9-0.9,1.3-1.4
				c0.5-0.4,1-0.8,1.6-1.1c1.1-0.6,2.4-1,3.7-1.2c1.3-0.2,2.7-0.1,4,0.2c0.7,0.1,1.3,0.3,2,0.6c0.2,0.1,0.3,0.1,0.4,0.2
				c0.1,0,0.3,0.1,0.4,0.2c0.3,0.1,0.5,0.3,0.8,0.5c0.5,0.4,0.9,0.8,1.3,1.3s2.1,3.6,2.4,4c0.3,0.5,1.4,0.7,1.9,0.2
				c0.5-0.6-0.1-5.5-0.7-5.9l-0.2-0.1c-0.7-0.5-2.7-1.4-3.4-1.8c-0.4-0.2-0.8-0.3-1.2-0.5c-0.2-0.1-0.4-0.1-0.6-0.2
				s-0.4-0.1-0.6-0.1c-0.7-0.1-1.4-0.3-2.2-0.4c-1.5-0.2-3-0.3-4.5-0.3c-1.5,0.1-3.1,0.3-4.6,0.8s-3,1.2-4.3,2.1
				c-0.7,0.4-1.3,0.9-1.9,1.4l-0.9,0.8c-0.1,0.1-0.3,0.3-0.4,0.4l-0.5,0.5c-1.1,1.2-2.1,2.7-2.8,4.3c-0.7,1.6-1.1,4.5-1.3,6.2
				c-0.2,1.7-0.1,3.9,0.3,5.6c0.2,0.8,0.4,1.6,0.7,2.4c0.3,0.8,0.7,1.5,1.1,2.3c0.8,1.4,1.8,2.8,3,4c0.6,0.6,1.2,1.2,2,1.7l0.3,0.2
				h0.1l0,0l0.1,0.1l0,0l0.1,0.1l0.5,0.3c0.3,0.2,0.8,0.4,1.2,0.5c1.5,0.6,3.1,0.9,4.7,1c1.5,0.1,3,0.2,4.6,0.2c1.5,0,3-0.2,4.5-0.4
				c4.3-0.6,5.8-1.4,5.8-1.4c0.9-0.4,1.5-1.3,1.7-2.3l0.1-1.1l0.2-8c0.1,0,0.3,0.1,0.4,0.1c0.6,0.1,2.1,0.2,2.7,0.4
				c0.6,0.1,1.1,0.3,1.7,0.4c0.6,0.1,1.2,0.3,1.8,0.4c0.9,0.2,1.8,0.4,2.7,0.5v0.1c-1.3,3.5-2.3,6.4-2.9,7.5
				c-0.2,0.4-0.4,0.7-0.7,0.9c-0.3,0.3-1.4,0.8-3.3,1.5c-0.3,0.1-0.5,0.4-0.5,0.7c0,0.2,0,0.3,0,0.4c0,0.5,0.4,0.8,0.8,0.8
				c0.5,0,1-0.1,1.6-0.2c1-0.1,2.2-0.2,3.5-0.2s2.7,0.1,4.1,0.2c0.8,0.1,1.4,0.1,1.8,0.2c0.4,0,0.8-0.3,0.8-0.7c0-0.2,0-0.3,0-0.4
				c0-0.1,0-0.1,0-0.2c-0.1-0.3-0.3-0.6-0.6-0.7c-0.2,0-0.3,0-0.5-0.1c-0.4,0-0.7-0.1-0.9-0.2c-1.1-0.1-1.9-0.3-2.4-0.7
				c-0.3-0.2-0.5-0.5-0.5-0.9c0-0.5,0.1-1.7,0.4-2.5s0.7-2,1.1-3.5c0.1-0.5,0.2-0.8,0.3-1.1l0,0l0.2-0.6c0.1,0,0.2,0,0.2,0
				c0.6,0.1,1.2,0.1,1.8,0.2c1.2,0.1,2.3,0.1,3.4,0.1s2.2-0.2,3.1-0.4c0.6-0.1,1.2-0.3,1.7-0.5c0.8,1.9,1.4,3.5,1.8,4.7l0.8,2.2
				c0,0.1,0,0.1,0,0.2c0,0.3,0,0.8,0,1c0,0.3-0.1,0.5-0.3,0.7c-0.3,0.3-0.9,0.6-1.6,0.8c-0.2,0.1-1,0.2-2.2,0.3
				c-0.4,0.1-0.7,0.4-0.7,0.8c0,0.2,0,0.4,0,0.7c0,0.4,0.4,0.8,0.8,0.8h1h0.1c0.5-0.1,1.4-0.2,2.4-0.3c1.5-0.1,2.5-0.1,3-0.2
				c4.2-0.2,18.7,0.4,19.2,0.4s1-0.4,0.9-0.9V521c0-0.4-0.3-0.6-0.6-0.7l0,0h-0.1c-1.7-0.1-3-0.2-3.7-0.4c-0.3-0.1-0.5-0.3-0.6-0.5
				c-0.1-0.1-0.1-0.3-0.1-0.4c0-0.2-0.1-0.5-0.1-0.9c-0.1-1.6-0.2-3.1-0.3-4.4l-0.1-3.2c0,0,0,0,0-0.1v-1.7c0-0.6,0-1.2,0-1.7
				l-0.2-13.1c0.4,0.9,0.9,2.1,1.5,3.5l2.8,7.1l4.7,11c1.2,3.2,1.9,5.1,2.1,5.6c0.1,0.4,0.3,0.7,0.4,1.1c0.1,0.3,0.4,0.5,0.7,0.5
				c0.3,0,0.6,0,0.8,0c0.1,0,0.4,0,0.9,0c0.2,0,0.4-0.1,0.5-0.3c0.4-1.1,3.9-10.4,4.3-11.3c0.4-0.9,0.7-1.7,1-2.5l3.6-8.3
				c0.9-2.3,1.9-4.5,2.7-6.1c0,0.5,0,0.9,0,0.9V517c0,0.5-0.1,1-0.3,1.5c-0.1,0.4-0.2,0.6-0.3,0.7c-0.3,0.4-0.8,0.8-1.2,1
				c-0.4,0.2-1.1,0.3-2.2,0.4l-1.1,0.1v2.2c0.9,0,1.4,0,1.6-0.1c2-0.2,4.7-0.4,8.1-0.4c0.4,0,1.3,0,2.6,0.1c0.7,0.1,1.5,0.1,2.4,0.2
				c0.2,0,0.3,0,0.5,0.1h0.1h0.3c1.6,0.1,1.4-1.7,0.8-2.3c-0.4-0.2-1.2-0.2-2-0.2c-0.1,0-0.1,0-0.2,0c-0.7-0.2-1.3-0.5-1.6-0.8
				c-0.2-0.2-0.5-0.4-0.5-0.7c0-0.1-0.1-0.5-0.1-0.8c0-0.1,0-0.1,0-0.2c0,0,0,0,0-0.1l0,0c0-5.6,0-19.1,0-22s0.8-4,1.1-4.3
				c0.1-0.1,0.2-0.1,0.3-0.1c1.3-0.1,2.3-0.2,2.8-0.2c0.1,0,0.2-0.1,0.2-0.1c1.2-2.4-1.8-2.3-1.8-2.3s-4.7,0.1-8.8,0.1
				c-0.5,0-1.2,0.2-1.6,1.3l-0.4,1l0,0c-1.5,3.6-8.1,18.3-8.1,18.3l-0.8,1.9c-0.3,0.7-1.2,0.7-1.4,0c-0.2-0.6-0.5-1.2-0.8-1.9
				l-2.8-6.7c-1.3-3-2.3-5.4-2.9-7.2l-0.8-2.2c0-0.1,0-0.1,0-0.2c0-0.3-1.3-4.4-2.6-4.5c-3.3-0.3-6-0.3-8.1-0.5c-0.1,0-1.4,0-1.8,0
				s-0.8,0.3-0.8,0.8v0.7c0,0.4,0.3,0.7,0.7,0.8h0.4c0.8,0.1,1.9,0.2,2.6,0.3l0.1,13.5v8.1v1.4c0,0.6-0.1,2.2-0.2,4.8
				c0,0.9-0.2,1.5-0.4,1.7c-0.2,0.2-2.2,0.3-2.3,0.3h-0.4c-1.1-0.1-1.8-0.3-2.2-0.4c-0.4-0.2-0.7-0.5-1-0.9
				c-0.1-0.2-0.9-2.5-2.4-5.7l-2.8-7.1l-4.7-11c-1.2-3.2-1.9-5.1-2.1-5.6c-0.1-0.4-0.3-0.7-0.4-1.1c-0.1-0.3-0.4-0.5-0.7-0.5
				c-0.3,0-0.6,0-0.8,0c-0.1,0-0.4,0-0.9,0c-0.2,0-0.4,0.1-0.5,0.3c-0.4,1.1-3.7,10.4-4.1,11.3s-0.7,1.8-1,2.6l-1.6,4.3
				c-1.1-0.2-2.2-0.5-3.3-0.8l-0.9-0.2l-0.4-0.1l-0.5-0.1c-0.6-0.1-1.2-0.2-1.8-0.4c-1.2-0.2-3.4-0.4-4.6-0.4
				c-1.2-0.1-2.3-0.1-3.4-0.1c-0.6,0-1.1,0.1-1.6,0.1c-0.5,0.1-1,0.1-1.5,0.2c-0.5,0.1-0.9,0.2-1.4,0.3c-0.4,0.1-0.8,0.2-1.2,0.4
				c-0.8,0.3-1.4,0.6-1.9,0.9c-0.5,0.3-0.9,0.6-1.1,0.8s-0.3,0.4-0.3,0.4c-0.1,0.1-0.1,0.3,0,0.4c0.1,0.1,0.3,0.1,0.4,0
				c0,0,0.1,0,0.4-0.1s0.6-0.1,1.1-0.2c0.5-0.1,1.1-0.1,1.8,0c0.3,0,0.7,0,1.1,0.1c0.4,0,0.8,0.1,1.2,0.1c0.1,0,0.2,0,0.3,0
				c0.1,2.3,0.5,10.4-0.8,11.4s-3.3,1.2-4.6,1.2c-1.3,0-2.7-0.2-3.9-0.7c-1.2-0.5-2.3-1.3-3.3-2.1c-0.1-0.1-0.2-0.2-0.3-0.3
				l-0.2-0.1c0,0-0.1-0.1-0.2-0.2l-0.4-0.4l-0.1-0.1l0,0c-0.1,0,0.1,0,0,0l0,0l0,0l-0.1-0.1c-0.3-0.4-0.7-0.8-1-1.4
				c-0.6-1-1-2.2-1.3-3.3c-0.3-1.2-0.5-2.3-0.7-3.5s-0.3-2.8-0.3-3.9c0-1.1,0.1-3.4,0.3-4.6C262.6,498.2,262.9,497.1,263.4,496z
				 M301.2,500.9l0.7-1.8c0.3-0.7,1.2-0.7,1.4,0c0.2,0.6,0.5,1.2,0.8,1.9l2.8,6.7c0,0.1,0.1,0.1,0.1,0.2c-0.3,0-0.6,0-1,0
				s-0.9-0.1-1.3-0.1c-0.5-0.1-0.9-0.1-1.4-0.2c-1-0.2-2-0.4-3.1-0.6c-0.4-0.1-0.7-0.2-1.1-0.2L301.2,500.9z"/>
			<path d="M536.8,491c1-0.9,2.4-1.4,4.2-1.4s3.4,0.7,4.8,2.1c0.8,0.8,1.8,3,2.1,4c0,0,0,0,0,0.1c0.1,0.4,0.5,0.7,1,0.8l1,0.1
				c0,0,0.6,0,0.7-0.1s0.2-0.6,0.2-0.9c0-1-0.1-2.4-0.3-4.2c-0.1-0.6-0.1-1.1-0.2-1.5c-0.1-0.7-0.7-1.3-1.4-1.5
				c-1.2-0.4-2.2-0.6-2.9-0.8c-1.7-0.3-2.9-0.4-3.8-0.4c-4,0-7,1-9,2.9c-2,2-3,4.3-3,7.1c0,1.4,0.4,2.8,1.1,4.3
				c0.7,1.5,1.7,2.7,3,3.6s3.5,1.9,6.8,3.1c3.3,1.1,5.3,2.1,6,2.7c1.2,1.1,1.8,2.3,1.8,3.6c0,1.1-0.4,2-1.1,3
				c-0.7,0.9-1.6,1.6-2.8,2s-2.2,0.6-3.2,0.6c-1.1,0-2.1-0.2-3-0.5s-1.7-0.8-2.4-1.3c-0.7-0.6-1.3-1.3-1.8-2.2
				c-0.2-0.4-0.7-1.3-1.4-2.9c-0.2-0.4-0.6-0.6-1-0.6h-0.8c-0.6,0-1,0.5-1,1s0,1.3,0.1,2.4c0.1,2.2,0.1,3.7,0.1,3.9s0.2,0.4,0.2,0.5
				c0.2,0.2,0.8,0.4,1.7,0.7l3.2,0.9h0.1c1.7,0.3,3.2,0.5,4.4,0.5c1.9,0,3.4-0.2,4.6-0.5c1.2-0.3,2.4-0.8,3.5-1.5s2-1.3,2.5-1.9
				c0.7-0.8,1.3-1.6,1.6-2.4c0.6-1.6,0.9-3.2,0.9-4.9c0-1.5-0.2-2.8-0.6-3.8c-0.4-1-1.1-2.1-2.2-3.2c-0.8-0.8-2-1.6-3.5-2.3
				s-2.9-1.2-3.9-1.5c-3.2-0.9-5.4-1.9-6.4-3c-1-1-1.5-2.1-1.5-3.2C535.3,493.1,535.8,491.9,536.8,491z"/>
		</g>
		<path d="M222.6,489.9c-0.8-1.6-1.8-2.9-2.8-3.9s-2-1.6-2.9-2.1c-0.4-0.2-0.8-0.4-1.1-0.5c-0.3-0.2-0.6-0.3-0.8-0.3
			c-0.5-0.2-0.7-0.2-0.7-0.2l0,0c-0.9-0.4-1.9-0.7-3-0.7c-4,0-7.2,3.2-7.2,7.2s3.2,7.2,7.2,7.2c3.4,0,6.3-2.4,7-5.7
			c0.2,0.3,0.3,0.6,0.4,0.9c1,2.2,1.1,5.5-0.4,8.7c-0.7,1.6-1.9,3.2-3.3,4.7c-0.7,0.7-1.6,1.4-2.4,2l-0.6,0.4l-0.8,0.5l-0.4,0.3
			h-0.1c0.1-0.1,0,0,0,0l-0.1,0.1l-0.2,0.1l-0.8,0.4c-4.2,2.4-9.3,4.2-14.7,5.4c-5.5,1.2-11.4,1.5-17.3,0.8
			c-5.9-0.8-11.8-2.7-17-5.8c-5.3-3.1-9.8-7.4-13.6-12.3c-3.8-5-6.8-10.5-9.2-16.3s-4.3-11.8-5.7-17.7c-0.2-0.8-0.4-1.5-0.5-2.3
			c-0.2-0.9-0.5-1.9-0.8-2.8c-0.6-1.9-1.3-3.7-2.2-5.5s-1.9-3.5-3.1-5.1c-1.2-1.6-2.5-3.1-3.9-4.4c-1.8-1.7-3.8-3.1-5.8-4.3
			c1.6-0.6,3.1-1.4,4.7-2.2c3.5-1.8,6.9-4.2,10.2-7.2c3.2-3,6.1-6.7,8.4-10.8c1.1-2.1,2.1-4.3,2.9-6.5c0.8-2.3,1.4-4.6,1.8-6.9
			c0.4-2.3,0.7-4.7,0.8-7.1c0-0.6,0-1.2,0.1-1.8v-1.9l-0.1-1.6c0-0.2,0-0.6-0.1-0.9l-0.1-1c-0.2-2.6-0.6-4.9-1.1-7.4
			c-0.6-2.5-1.3-4.9-2.3-7.3c-1.9-4.8-4.7-9.3-8.1-13.2c-6.8-7.9-15.6-13.5-24.9-16.7c-9.3-3.3-19-4.5-28.3-4.1
			c-9.3,0.3-18.3,2.2-26.6,4.9c-2.1,0.7-4.1,1.4-6.1,2.2c-2,0.8-3.9,1.6-5.9,2.6c-3.9,2-7.4,4.3-10.5,7.1
			c-6.2,5.4-10.6,12.1-13.3,18.6c-2.7,6.6-3.7,13.2-3.5,19c0.3,5.8,1.7,10.9,4.3,14.6c1.2,1.8,2.7,3.3,4.2,4.3s2.9,1.6,4.1,1.9
			s2.1,0.4,2.8,0.5c0.3,0,0.6,0,0.8,0c0.5,0.1,0.9,0.1,1.4,0.1c4.6,0,8.3-3.3,8.3-7.4s-3.7-7.4-8.3-7.4c-4.4,0-8,3.1-8.3,6.9
			c-0.4-0.5-0.8-1-1.2-1.6c-1.8-2.8-3.1-7.2-3.1-12.2c0-5.1,1.1-10.9,3.7-16.6s6.8-11.3,12.4-15.7c2.8-2.2,6-4.1,9.3-5.6
			c1.7-0.8,3.6-1.4,5.4-2.1c1.9-0.6,3.8-1.2,5.7-1.7c7.8-2,16.1-2.8,24.3-2.4c4.1,0.2,8.2,0.8,12.3,1.6c4,0.9,7.9,2.1,11.6,3.7
			c7.3,3.2,13.8,8.1,17.7,14.2c4,6.1,5.5,13.1,5.8,19.9v0.6c0,0.2,0,0.4,0,0.7v1.6c0,0,0,0.2,0-0.1v0.1v0.2v0.3v0.7
			c0,0.4,0,0.9-0.1,1.3c-0.1,1.8-0.3,3.4-0.5,5.1c-0.2,1.6-0.5,3.2-0.9,4.7s-0.8,3-1.4,4.3c-2.2,5.5-6.1,9.9-10.8,12.9
			c-4.7,3.1-10,4.8-14.7,6.1c-2.4,0.6-4.7,1.2-6.9,1.5c-2.2,0.4-4.2,0.7-6,0.9c-2.1,0.3-4,0.5-5.6,0.6c0-17.9,0-36.7,0.1-45.3
			c0-1.3,0.2-4,0.2-4.1c0.2-1.4,1.1-3.9,3.7-5.4l1.4-0.9c0.7-0.4,0.9-1.3,0.6-2l-1.3-2.9c-0.4-0.8-1.3-1.1-2.1-0.7
			c-1.3,0.6-10.8,5.6-19.2,9.5c-1.1,0.5-4.4,2.1-4.8,2.2c-0.1,0-0.2,0.1-0.3,0.1l-0.9,0.4c-2.3,0.8-2.5,2.6-1.8,4.1
			c0.6,1.4,2,2.4,3.6,2.4c4.2,0,5.3,7.5,5.2,10.3l0.1,82.1c0,1.2-0.2,3.3-0.2,3.4c-0.2,1.4,0.3,3.1-3.7,5.4l-1.4,0.9
			c-0.7,0.4-0.9,1.3-0.6,2l1.3,2.9c0.4,0.8,1.3,1.1,2.1,0.7c1.3-0.6,10.8-5.6,19.2-9.5c1.1-0.5,4.4-2.1,4.8-2.2
			c0.1,0,0.2-0.1,0.3-0.1l0.9-0.4c2.2-0.8,2.5-2.5,1.8-4c-0.6-1.5-2.1-2.5-3.7-2.6c-2.6-0.2-5-2.1-5.4-8.1c0-4.6,0-13.8,0-24.5
			c2.3,0,4.7,0,7.4,0.2c3.8,0.2,8,0.6,12.1,1.8c4.1,1.2,7.9,3,10.8,5.9c1.5,1.4,2.7,3.1,3.8,5.1c0.5,1,1,2.1,1.4,3.2
			c0.2,0.6,0.4,1.2,0.6,1.8c0.2,0.8,0.5,1.6,0.7,2.4c2,6.6,4.4,13.2,7.8,19.7c3.3,6.5,7.5,12.8,12.8,18.3
			c5.2,5.5,11.5,10.2,18.3,13.3s14.1,4.7,21,5c7,0.3,13.6-0.6,19.6-2.3s11.5-4.1,16.1-7l0.9-0.6l0.5-0.3l0.4-0.3l0.8-0.6l0.8-0.7
			c1.1-0.9,2-1.8,2.9-2.8c1.8-2,3.1-4.2,4-6.4c0.9-2.3,1.2-4.6,1.2-6.7C223.9,493.5,223.4,491.5,222.6,489.9z"/>
	</g>
</g>
</svg>
