<svg version="1.1" id="Layer_1" xmlns="http://www.w3.org/2000/svg" xmlns:xlink="http://www.w3.org/1999/xlink" x="0px" y="0px"
	 viewBox="0 0 936.9 612" style="enable-background:new 0 0 936.9 612;" xml:space="preserve">
<g>
	<g>
		<path class="logo-svg" d="M364.2,236.1c0.3,1.4,0.9,2.7,1.6,3.9s1.5,2.5,2.4,3.6c0.9,1.2,2,2.2,3,3.3c0.5,0.5,1.1,1,1.7,1.5
			s1.1,1,1.7,1.4c0.6,0.5,1.1,0.9,1.7,1.3c0.6,0.4,1.1,0.8,1.6,1.2c1,0.8,2,1.4,2.9,2.1c0.4,0.3,0.8,0.6,1.1,0.8
			c-0.3-3.1-0.7-6.2-1-9.3c-0.7-7.1-1.2-14.2-1.5-21.4c-0.6-0.1-1.3-0.2-2-0.4c-1.1-0.3-2.3-0.6-3.6-1.1c-1.3-0.5-2.7-1-4.1-1.7
			s-2.9-1.4-4.3-2.4c-0.4,1.4-0.8,3.1-1.2,5c-0.2,1.2-0.4,2.6-0.5,3.9c-0.1,1.4-0.1,2.8-0.1,4.2
			C363.6,233.3,363.9,234.7,364.2,236.1z"/>
		<path class="logo-svg" d="M361.7,265c0.4,1.1,1.1,2,1.8,2.9c0.7,0.9,1.7,1.7,2.7,2.5c0.5,0.4,1.1,0.7,1.6,1.1s1.2,0.6,1.7,1
			c1.2,0.6,2.4,1.2,3.6,1.7c1.2,0.6,2.4,1,3.5,1.5s2.1,0.8,3.1,1.2c0.9,0.4,1.7,0.7,2.4,1c1.4,0.6,2.1,1,2.1,1s-0.8,0.3-2.3,0.6
			c-0.7,0.1-1.6,0.4-2.7,0.5c-1,0.1-2.2,0.3-3.5,0.2c-1.3,0-2.7,0-4.2-0.2s-3.1-0.5-4.7-1c-1.2-0.4-2.4-0.9-3.7-1.5
			c-0.4,0.9-0.8,1.9-1.2,2.9c-0.8,2.3-1.5,4.9-1.5,7.5c0,1.3,0.1,2.5,0.5,3.7s0.9,2.4,1.7,3.5c0.3,0.6,0.8,1.1,1.2,1.7
			c0.5,0.5,0.9,1.1,1.4,1.6c0.6,0.5,1,1,1.6,1.5s1.1,1,1.7,1.4c0.6,0.5,1.2,0.9,1.7,1.4c0.6,0.5,1.2,0.8,1.8,1.3
			c1.1,0.9,2.3,1.6,3.3,2.3c1.1,0.7,2.1,1.4,2.9,2c0.9,0.6,1.7,1.1,2.3,1.6c0.4,0.3,0.8,0.6,1.1,0.8c0.6-1.4,1-2.8,1.5-4.3
			c2.4-8.7,1.9-18.7,1-28.8c-0.6-6.5-1.4-13.2-2.2-20c-0.7,0-1.5-0.1-2.5-0.3c-1.1-0.2-2.4-0.4-3.8-0.8c-0.7-0.2-1.4-0.4-2.1-0.6
			c-0.7-0.3-1.4-0.6-2.2-0.9c-0.8-0.3-1.5-0.7-2.3-1.1c-0.8-0.4-1.6-0.8-2.3-1.4c-0.8-0.5-1.6-1-2.3-1.7c-0.8-0.6-1.5-1.2-2.2-2
			c-0.3-0.2-0.5-0.5-0.7-0.8c0,0.2-0.1,0.4-0.1,0.7c-0.3,1.4-0.6,3.4-0.9,5.7c-0.3,2.3-0.4,4.9-0.1,7.3
			C360.9,262.8,361.2,263.9,361.7,265z"/>
		<path class="logo-svg" d="M373.2,142.3c0.2,0.9,0.5,1.7,0.7,2.5c0.3,0.8,0.6,1.7,0.9,2.5s0.7,1.6,1,2.5c0.8,1.6,1.4,3.2,2.2,4.6
			c0.7,1.5,1.5,2.9,2.2,4.2s1.4,2.5,2,3.6c0.2,0.3,0.3,0.6,0.5,0.9c1.3-5.2,3-10.3,4.9-15.1c1.3-3.2,2.7-6.2,4.2-9.1l-0.1-0.1
			c-0.7-0.8-1.5-1.7-2.4-2.8c-0.8-1.1-1.8-2.4-2.7-3.9c-0.5-0.8-0.9-1.5-1.4-2.3s-0.9-1.7-1.3-2.6c-0.5-0.9-0.9-1.9-1.2-2.9
			c-0.4-1-0.8-2-1.1-3.1c-0.3-1.1-0.6-2.2-0.9-3.4c-1,1.1-2.3,2.6-3.5,4.2c-0.8,1.2-1.6,2.4-2.4,3.8c-0.7,1.4-1.3,2.8-1.8,4.4
			c-0.4,1.5-0.7,3.1-0.8,4.8c0,1.6,0,3.3,0.3,5C372.7,140.6,373,141.4,373.2,142.3z"/>
		<path class="logo-svg" d="M377.4,311c-1.1-0.2-2.3-0.3-3.7-0.6c-1.3-0.4-2.8-0.7-4.2-1.3c-0.7-0.3-1.5-0.6-2.3-0.9
			c-0.8-0.4-1.5-0.8-2.3-1.2c-0.9-0.5-1.9-1.1-2.8-1.8v0.1c-0.5,1.1-1.3,2.6-2,4.4s-1.4,3.8-1.8,5.8c-0.2,1-0.3,2.1-0.4,3.1
			c0,1,0,2.1,0.1,3.1s0.3,2.1,0.6,3.2c0.3,1,0.6,2.1,1,3.1s0.8,2,1.3,3s0.9,1.9,1.4,2.8c0.6,1.2,1.1,2.2,1.5,3
			c1.7-3.1,3.8-6.1,6.3-9c0.7-0.8,1.4-1.6,2.1-2.4c0.6-0.8,1.4-1.5,2-2.3c1.3-1.6,2.6-3.3,3.7-5.1c1.4-2.1,2.7-4.4,3.7-6.9
			c-0.4,0-0.8,0-1.3,0C379.4,311.2,378.5,311.2,377.4,311z"/>
		<path class="logo-svg" d="M364.6,208.2c0.5,0.6,1,1.2,1.5,1.7c0.5,0.6,1.1,1.1,1.6,1.7c0.5,0.6,1.1,1.1,1.7,1.6c1.1,1.1,2.3,2,3.4,3
			s2.2,1.8,3.2,2.7c1,0.8,1.9,1.6,2.8,2.3c0.2,0.2,0.4,0.3,0.5,0.5c-0.1-3-0.2-5.9-0.3-8.9c-0.1-5.2-0.1-10.6,0-15.8
			c-0.8-0.2-1.6-0.4-2.6-0.7c-0.6-0.2-1.3-0.4-2-0.7s-1.4-0.6-2.2-1c-0.8-0.3-1.5-0.8-2.3-1.2c-0.8-0.5-1.6-0.9-2.4-1.5
			c-1.6-1.1-3.2-2.5-4.7-4.1c-0.2-0.2-0.3-0.4-0.5-0.6c-0.6,1.2-1.2,2.7-1.7,4.4c-0.7,2.3-1.1,4.9-0.6,7.4c0.2,1.3,0.6,2.5,1.1,3.7
			c0.6,1.2,1.3,2.5,2.2,3.7l0.6,0.9L364.6,208.2z"/>
		<path class="logo-svg" d="M345.6,216l-111.9,16.3l-19.8,50.5l111.2-13.5L345.6,216z M278.5,256.5c-8.1,1.8-15.4,0.3-16.1-3.2
			c-0.8-3.5,5.2-7.8,13.4-9.6c8.1-1.8,15.4-0.3,16.1,3.2S286.6,254.7,278.5,256.5z"/>
		<path class="logo-svg" d="M365.6,178.9c0.7,1.6,1.6,3.2,2.5,4.6c1,1.4,2,2.8,3.2,4c0.5,0.7,1.1,1.2,1.7,1.8s1.1,1.1,1.7,1.6
			c1.1,1,2.2,2,3.2,2.8c0.4,0.3,0.8,0.7,1.2,1v-2.5l0.1-4.2c0.1-2.8,0.3-5.6,0.6-8.4c0.5-4.7,1.3-9.4,2.3-13.9
			c-0.6-0.4-1.4-0.9-2.1-1.5c-1-0.8-2.2-1.7-3.3-2.8c-1.1-1.1-2.4-2.3-3.5-3.7c-1.2-1.4-2.3-3-3.5-4.6c-0.5-0.9-1-1.8-1.6-2.7
			c-0.3-0.5-0.5-1-0.8-1.6c-0.4,1.3-0.9,2.7-1.3,4.3c-1.7,5.9-3.4,13.7-1.9,20.8C364.4,175.5,364.9,177.3,365.6,178.9z"/>
		<path class="logo-svg" d="M462.6,77.6c-0.2,1.1-0.4,1.9-0.5,2.4c1.9-0.7,3.5-1.2,4.8-1.6c0.5-0.9,1-1.7,1.5-2.5
			c0.8-1.2,1.6-2.5,2.4-3.7s1.7-2.4,2.6-3.5c0.9-1.2,1.9-2.3,2.9-3.4s2.1-2.2,3.2-3.1c1.1-1,2.3-2,3.5-2.9c1.3-0.9,2.5-1.8,3.9-2.5
			c0.7-0.4,1.4-0.8,2.1-1.1s1.4-0.7,2.1-1c0.3-0.1,0.5-0.2,0.8-0.3c0.3-1.3,0.8-2.9,1.7-4.7c0.9-1.8,2.1-3.7,3.9-5.5
			c0.2-0.2,0.5-0.4,0.7-0.7c-0.7,0-1.4,0-2.1-0.1c-0.6,0-1.2,0-1.9,0.1c-0.7,0.1-1.4,0.1-2.1,0.2c-1.4,0.2-2.9,0.5-4.4,1
			s-3,1.1-4.5,1.9c-0.7,0.5-1.5,0.8-2.2,1.3s-1.5,1-2.2,1.5c-0.7,0.6-1.4,1.2-2.1,1.7c-0.7,0.6-1.4,1.3-2,1.9l-0.5,0.5l-0.1,0.1
			l-0.1,0.1l0,0l-0.1,0.2l-1,1.1c-0.8,0.8-1.1,1.4-1.7,2c-0.3,0.3-0.5,0.6-0.7,1l-0.7,1.1c-0.5,0.7-0.8,1.5-1.3,2.3
			c-0.4,0.8-0.7,1.6-1.1,2.3c-0.3,0.8-0.7,1.6-1,2.3c-0.6,1.5-1.1,3.1-1.6,4.5C463.6,73.3,463,75.8,462.6,77.6z"/>
		<path class="logo-svg" d="M388.5,119.5c0.1,1,0.4,1.9,0.5,2.9c0.2,0.9,0.4,1.9,0.6,2.8s0.4,1.8,0.6,2.6c0.2,0.9,0.5,1.7,0.7,2.5
			c0.4,1.6,0.9,3,1.3,4.4c0.2,0.9,0.5,1.7,0.7,2.4c3-5.5,6.4-10.7,10.1-15.3c2.5-3.2,5.2-6.2,7.8-9c-0.1-0.1-0.2-0.3-0.3-0.4
			c-0.5-0.7-1.2-1.6-1.8-2.6c-0.6-1.1-1.4-2.2-2-3.6c-0.3-0.7-0.7-1.4-1-2.2c-0.3-0.8-0.6-1.6-0.9-2.4s-0.6-1.7-0.8-2.6
			c-0.2-0.9-0.5-1.8-0.6-2.8c-0.3-2-0.5-4-0.5-6.2c0.1-1.1,0.1-2.2,0.3-3.3l0.1-0.3c-1.3,0.9-2.7,2-4.1,3.3
			c-1.2,1.1-2.5,2.2-3.6,3.5c-1.2,1.3-2.3,2.7-3.3,4.3c-1,1.6-1.9,3.2-2.5,5c-0.4,0.9-0.5,1.8-0.9,2.7c-0.2,0.9-0.5,1.9-0.5,2.8
			l-0.2,1.4c0,0.5-0.1,1-0.1,1.5c-0.1,1-0.1,2,0,3C388,115.6,388.2,117.5,388.5,119.5z"/>
		<path class="logo-svg" d="M542.1,88.8c-3.2,1.3-5.9,2.2-7.8,2.7c-0.1,0-0.2,0-0.3,0.1c0.4,0.3,0.8,0.6,1.3,0.9c1.8,1.3,3.5,2.7,5.2,4.1
			c1.7,1.5,3.3,2.9,4.9,4.5c1.6,1.5,3.1,3.2,4.5,4.9c0,0,0,0,0.1,0.1c0.2-0.2,0.5-0.5,0.9-0.8c1.2-1.1,2.9-2.7,4.9-4.5
			s4.4-3.8,6.7-6c1.2-1.1,2.4-2.2,3.5-3.4c1.1-1.2,2.2-2.4,3-3.6c0.9-1.2,1.5-2.4,1.7-3.3c0.2-1,0.2-1.8-0.1-2.7
			c-0.2-0.5-0.4-1-0.8-1.5c-0.2-0.2-0.3-0.5-0.5-0.7s-0.5-0.5-0.7-0.7c-0.4-0.5-0.9-0.9-1.4-1.4c-0.2-0.2-0.5-0.4-0.7-0.7
			c-0.3-0.2-0.5-0.4-0.8-0.6c-0.5-0.4-1-0.8-1.5-1.1c-0.5-0.3-1-0.7-1.4-1c-0.5-0.3-0.9-0.7-1.3-0.9c-1,2.1-2.3,3.8-3.6,5.2
			c-1.7,1.8-3.5,3.3-5.2,4.6C548.8,85.6,545.2,87.4,542.1,88.8z"/>
		<path class="logo-svg" d="M525.4,73.5c-3.8,2.8-7.1,4.7-9.5,5.9c-1.1,0.6-2.1,1-2.7,1.3c1.7,0.6,3.4,1.3,5.1,2c2,0.9,4,1.8,5.9,2.8
			c1,0.5,1.9,1,2.9,1.6c1,0.5,1.9,1.1,2.8,1.7c1,0.6,2,1.3,3,2c0.2-0.2,0.5-0.4,0.7-0.6c1.5-1.3,3.6-3,6.2-5.2
			c2.5-2.1,5.4-4.6,8.2-7.3c1.4-1.4,2.8-2.8,3.9-4.3c1.2-1.5,2.2-3,2.6-4.4c0.5-1.4,0.4-2.3,0-3.4c-0.5-1.1-1.6-2.3-2.9-3.4
			c-0.4-0.3-0.7-0.5-1-0.8l-0.1-0.1l0,0l0,0c0.1,0-0.2-0.1,0.2,0.1l-0.2-0.1l-0.3-0.2l-0.6-0.4c-0.9-0.6-1.4-0.7-2.1-1.1
			c-1.4-0.6-2.9-1-4.3-1.1c-1.4-0.1-2.8,0-4,0.3c-0.2,0-0.3,0.1-0.5,0.1c-0.5,1.1-1,2.1-1.6,3c-1.7,2.7-3.8,4.9-5.7,6.8
			C529.3,70.5,527.3,72.1,525.4,73.5z"/>
		<path class="logo-svg" d="M537.6,254.7c-2.7-2.3-5.7-4.1-8.9-5.5s-6.6-2.2-10.1-2.6c-0.9-0.1-1.8-0.2-2.7-0.2h-2.7c-2,0-3.9,0-6,0
			c-4.1-0.1-8.1-0.3-12.2-0.7c-0.3,0.3-0.6,0.7-0.8,1.1c-1.3,1.9-2,4.6-1.4,7.7c0.5,3.1,2.1,6.4,4.2,9.8s4.9,6.8,8,10.3
			s6.7,7,10.4,10.5c2.2,2.1,4.5,4.1,6.9,6.2l18.8-32.9l0.5,0.3C540.3,257.3,539,255.9,537.6,254.7z"/>
		<path class="logo-svg" d="M494.2,53.5l1.3-0.4c1.6-0.4,3.1-0.7,4.7-0.8c1.6-0.2,3.2-0.2,4.8-0.2h6.9l-3.8,6.1c-0.2,0.3-0.6,1-0.8,1.5
			c-0.3,0.5-0.6,1.1-0.8,1.7c-0.5,1.1-0.9,2.3-1.2,3.5c-0.4,1.2-0.6,2.4-0.7,3.5c-0.1,1.2-0.2,2.3-0.1,3.5c0,0.6,0.2,1.1,0.2,1.7
			l0.2,1.1c0.1,0.4,0.1,1,0.2,1.4c0.1,0.8,0.1,1.5,0,2.2c2.4,0.6,4.7,1.3,7,2.1c0.2,0.1,0.3,0.1,0.5,0.2c0.5-0.5,1.3-1.3,2.3-2.4
			c1.8-1.9,4.5-4.7,7.4-8c1.5-1.7,3-3.5,4.5-5.5s3-4.1,4.1-6.3s1.7-4.5,1.4-5.9c-0.2-0.7-0.5-1.3-1.1-1.9c-0.6-0.6-1.5-1.3-2.6-1.8
			l-0.8-0.4L527,48l-2.1-0.8c-0.7-0.3-1.3-0.5-2-0.7c-0.6-0.2-1.3-0.4-1.9-0.6c-2.6-0.8-5.3-1.2-7.8-1.4s-4.9,0-7.1,0.5
			s-4.1,1.4-5.9,2.5C497.6,49.3,495.6,51.6,494.2,53.5z"/>
		<path class="logo-svg" d="M410.5,100.1c0.1,1.6,0.3,3.1,0.5,4.5c0.1,1.4,0.4,2.7,0.5,3.9c0.1,1.1,0.3,2.1,0.4,3
			c3.3-3.4,6.7-6.4,10.1-9.1c3.8-3.1,7.6-5.8,11.2-8.1c-0.2-0.4-0.4-0.9-0.7-1.5c-0.4-0.9-0.9-2-1.4-3.4c-0.4-1.3-1-2.8-1.4-4.5
			c-0.2-0.9-0.4-1.7-0.6-2.7c-0.2-0.9-0.3-1.9-0.4-2.9c-0.2-1-0.2-2-0.2-3.1s-0.1-2.2,0-3.3c0.1-1.1,0.1-2.3,0.4-3.5
			c0-0.2,0.1-0.3,0.1-0.5c-1.6,0.7-3.7,1.7-6,3c-2.4,1.4-5,3.2-7,5.4c-0.5,0.5-1,1.2-1.5,1.8c-0.4,0.6-0.9,1.3-1.3,1.9
			s-0.7,1.4-1.1,2.1c-0.3,0.8-0.6,1.5-0.8,2.2l-0.4,1.2l-0.2,1.2c-0.2,0.8-0.3,1.6-0.4,2.4s-0.1,1.7-0.2,2.5s0,1.7,0,2.5
			c-0.1,0.8,0.1,1.7,0.1,2.5C410.3,98.5,410.4,99.3,410.5,100.1z"/>
		<path class="logo-svg" d="M456.6,82.1c1.9-0.8,3.6-1.5,5.2-2c-0.2-0.4-0.5-1.3-0.8-2.5c-0.2-0.9-0.5-2-0.7-3.3s-0.3-2.8-0.3-4.4
			c0-0.8,0-1.7,0.1-2.6s0.2-1.8,0.3-2.8c0.2-0.9,0.4-1.9,0.6-2.9c0.3-1,0.5-2,0.9-3c0.7-2,1.6-4,2.9-6c0.1-0.2,0.3-0.4,0.5-0.7
			c-1.9,0.2-4.7,0.5-7.8,1.1c-3.1,0.6-6.6,1.6-9.9,3.2c-1.6,0.8-3.1,1.8-4.5,3s-2.5,2.6-3.6,4c-0.4,0.8-1,1.5-1.4,2.4
			c-0.2,0.4-0.4,0.8-0.6,1.3l-0.5,1.3c-0.7,1.8-1.1,3.6-1.5,5.5c-0.2,0.9-0.3,1.9-0.5,2.8c-0.1,0.5-0.1,0.9-0.2,1.4
			c0,0.5-0.1,0.9-0.1,1.4c-0.1,0.9-0.2,1.8-0.2,2.7c0,0.9-0.1,1.7-0.1,2.5c-0.1,1.6-0.1,3.1-0.2,4.5s-0.1,2.5-0.1,3.5
			c0,0.5,0,0.9,0,1.3c2.3-1.5,4.6-2.9,6.9-4.1C446.8,86.4,452.1,83.9,456.6,82.1z"/>
		<path class="logo-svg" d="M861.6,473.9c-3.1-1-6.6-1.2-9.9-0.7c-0.4,0.1-0.9,0.1-1.2,0.2l-1.3,0.3L848,474l-1.2,0.4
			c-1.6,0.5-3.3,1.1-4.9,1.8c-3.2,1.3-6.4,2.9-9.5,4.6c-0.2,0.1-0.4,0.2-0.6,0.4c4.8,3.6,10.1,6.7,15.9,8.1c1.6,0.4,3.2,0.7,4.9,0.8
			c0.9,0,1.7,0,2.6-0.1c0.9,0,1.7-0.1,2.5-0.2c3.3-0.4,6.7-1.3,9.1-3.1c1.2-0.9,2.1-2,2.5-3.3c0.4-1.2,0.2-2.6-0.4-3.9
			C867.5,476.9,864.7,474.9,861.6,473.9z"/>
		<path class="logo-svg" d="M883,472.4c-1.7-3.5-4.3-6.5-7.7-9c-2.5-1.9-5.4-3.3-8.7-4.5c-3.8-1.3-7.9-1.9-12.1-1.9
			c-1.5,0-3.1,0.1-4.6,0.2c-0.7,0.1-1.2,0.1-1.9,0.3c-0.1,0-2,0.3-2.1,0.4l-1.5,0.3c-0.1,0-1.8,0.5-1.9,0.5c-2,0.5-4.1,1.2-6.4,2
			c-2.1,0.8-4.2,1.6-6.4,2.6c-1.6-1.6-3.2-3.3-4.9-5.2c-2.3-2.5-4.6-5.2-7.3-8.4c0-0.4,0-0.9,0-1.5l-0.2-17.7c0-1.3-0.1-2.5-0.1-3.7
			c-0.2-2.5-0.2-6.1-0.2-10.6v-0.1h0.1c5.6-2,9.3-7.2,9.3-13.2c0-3.7-1.4-7.2-4.1-9.9c-2.6-2.6-6.1-4.1-9.9-4.1l-11.5,0.1l-9.9,0.1
			c-1.3,0-2.5,0.2-3.7,0.6c-3.4,1.1-6,3.2-7.7,6.1c-0.6,1.1-1.1,2.2-1.4,3.3c-1.6-1.9-3.3-3.7-5-5.3c-2.8-2.7-5.8-5-8.9-6.9
			c-5.6-3.3-12.3-5.7-19.5-6.8h-0.2c-0.8-0.1-1.6-0.2-2.3-0.3l-1.1-0.1c-0.4,0-0.8-0.1-1.1-0.1h-0.9c-0.4,0-0.7,0-0.9,0h-2.4
			c-0.9,0-1.8,0-2.7,0.1c-0.3,0-0.6,0-0.9,0c-0.3,0-0.5,0-0.8,0.1c-0.2,0-0.5,0-0.7,0.1c-0.8,0.1-1.8,0.1-2.9,0.3
			c-5.8,0.8-10.8,2.5-15,5.1c-0.6,0.3-1.1,0.7-1.6,1.1c-0.3-0.1-0.6-0.1-0.9-0.1l-2-0.3c-1.2-0.2-2.1-0.2-2.7-0.2h-0.2h0.1
			c-0.2,0-1.3-0.1-1.4-0.1h-0.8c-0.2,0-0.5,0-0.7,0l-3,0.1c-0.4,0-0.8,0.1-1.1,0.1l-2.1,0.3c-0.2,0-0.4,0.1-0.7,0.1
			c-3.2,0.6-7.5,1.6-11.7,3.8c-3.4,1.7-6.4,3.6-9.1,5.7c-1.3-2.5-3.3-4.6-5.8-6c1.6-0.9,3-2.2,4-3.8l2.2-3.4
			c0.4-0.7,0.9-1.5,1.6-2.4c1.3-1.9,2.8-4.3,4.5-7.1c7.3-11.6,14.3-22.8,21.3-34.2c4.3-7.1,9-14.7,14-23l2.3-3.9
			c4.2-7,8.6-14.3,13.1-21.9c1.8-3.1,3.7-6.2,5.5-9.3l0.2-0.4c3.4-5.8,7-11.8,10.5-17.9l2-3.4c0.4-0.6,0.7-1.3,0.9-1.7l0.6-1.1
			c0.2-0.4,0.4-0.8,0.5-1.2l0.2-0.4c0.3-0.7,0.7-1.7,1-3c1.5-5.2,1.6-10.9,0.2-16.4c-1.4-5.6-4.3-10.6-8.3-14.5l-0.2-0.2
			c-0.4-0.4-0.8-0.8-1.2-1.2c-0.1-0.1-0.2-0.2-0.4-0.3c0,0-1.2-1-1.3-1c-1-0.8-1.7-1.2-2.2-1.5c-0.1-0.1-0.3-0.2-0.5-0.3
			s-0.3-0.2-0.5-0.3l-3.7-2.1l-28.7-16.3c-6.1-3.5-12.3-6.9-18.3-10.3c-3.3-1.8-6.5-3.6-9.7-5.4c-7.3-4.1-14.3-7.9-21-11.6l-5.2-2.9
			c-8.3-4.5-16.3-8.8-23.3-12.6c0,0-6.3-3.4-6.6-3.5c-0.7-0.4-1.3-0.7-2.1-1.1c-1.5-0.8-3.1-1.4-5-2c-2.5-0.7-5.2-1.1-7.8-1.1
			c-4.1,0-8.3,0.9-12,2.6c-2.8,1.2-5.3,2.9-7.6,5c-1.2,1-2,2-2.6,2.7l-0.2,0.2c-0.2,0.2-0.3,0.4-0.5,0.6c-0.7,1-1.6,2.1-2.3,3.4
			c-0.2,0.3-0.4,0.7-0.5,1c-1.2-1.3-2.5-2.7-3.7-4l1.1-1.8l0.9-1.4c1.9-2.9,2.4-6.5,1.5-9.8l-0.4-1.4c-0.2-0.6-0.3-1.2-0.5-1.9V142
			c-0.4-1.4-0.8-2.9-1.3-4.5c0-0.1-0.1-0.3-0.1-0.4c-0.2-0.6-0.4-1.3-0.6-2c-0.5-1.4-1-3.1-1.7-4.7l-0.2-0.5c-0.7-1.9-1.5-4-2.5-6.2
			c-1-2.3-2.1-4.5-3.1-6.5c-0.8-1.6-1.7-3.1-2.5-4.5c1.5-0.8,3-1.7,4.4-2.6c1.8-1.2,3.8-2.6,5.8-4.4c2.2-2,4.2-4.2,6-6.6
			c1.6-2.3,3.9-6.1,4.7-11.2c0.9-5.4-0.2-11.1-3-15.8c-0.1-0.2-0.3-0.4-0.4-0.6l-0.1-0.1c-0.8-1.2-2.1-2.9-3.9-4.5
			c-1.5-1.4-2.9-2.3-3.9-2.9c-1.5-1-2.8-1.6-3.7-1.9l-0.9-0.4c-0.4-1.6-1-3.2-1.8-4.8c-0.7-1.4-1.5-2.5-2-3.1c0,0-0.3-0.5-0.4-0.6
			c-0.9-1.2-1.8-2.1-2.3-2.6l-0.1-0.1c-1.1-1.1-2.1-1.9-2.6-2.3l-0.3-0.2c-0.8-0.6-1.8-1.4-3.2-2.1l-1.5-0.8l-0.4-0.2
			c-0.4-0.2-0.8-0.4-1.1-0.5l-0.5-0.2c0,0-0.5-0.2-0.7-0.3c-1.3-0.5-2.9-1-5-1.6c-0.3-0.1-0.5-0.1-0.8-0.2c-0.6-0.1-1.3-0.2-1.9-0.3
			c-1-1.8-2.1-3.4-3.5-4.8c-2.3-2.4-5-4.4-8.1-6c-0.1,0-1.6-0.7-1.6-0.7c-0.2-0.1-0.4-0.2-0.6-0.3l-1.3-0.5
			c-0.1-0.1-0.3-0.1-0.5-0.2l-2-0.7c-1-0.4-2-0.6-2.8-0.9l-0.9-0.2c-0.7-0.2-1.6-0.4-2.6-0.6c-3.7-0.8-7.3-1.3-10.8-1.3
			c-0.6,0-1.2,0-1.7,0c-4.7,0.2-9.3,1.1-13.3,2.9c-0.1,0.1-0.3,0.1-0.4,0.2c-0.3-0.1-0.6-0.2-0.9-0.3c-0.3-0.1-0.5-0.2-0.8-0.2h-0.2
			c-0.8-0.2-1.8-0.5-2.9-0.7c-0.2,0-0.4-0.1-0.6-0.1l-0.5-0.1c-0.8-0.1-1.9-0.3-3.2-0.3c-0.1,0-1,0-1,0c-0.4,0-0.9,0-1.3,0
			c-0.8,0-1.5,0-2.2,0.1c-3.1,0.2-6.1,0.8-8.9,1.8c-2.8,0.9-5.6,2.2-8.6,4c-0.2,0.1-0.5,0.3-0.7,0.4l-0.8,0.5
			c-0.8,0.5-1.6,1.1-2.4,1.7l-0.3,0.2c-0.6,0.5-1.2,1-1.7,1.5c-1.4-0.3-2.7-0.5-4-0.6c-1.4-0.1-2.9-0.2-4.3-0.2
			c-4.5,0-8.9,0.7-13,2.1c-3.5,1.2-6.8,2.9-9.8,5.1c-3,2.2-5.6,4.9-8.1,8.5c-0.2,0.3-0.4,0.7-0.6,1c-0.1,0.2-0.2,0.4-0.4,0.7
			c-0.3,0.6-0.7,1.2-1.1,2c-0.6,0.1-1.2,0.2-1.8,0.3c-5.7,1.1-10.8,3.4-15,6.7c-2.8,2.1-5.2,4.6-7.1,7.4c-0.8,1.1-1.4,2.2-2,3.2
			c-1.1,0.4-2.3,0.8-3.5,1.4c-1.7,0.8-4.4,2.1-7.1,4.1c-2.9,2.1-5.2,4.2-7,6.5c-2.4,2.8-4.3,5.8-5.7,8.9c-0.8,1.6-1.2,3-1.6,4.2
			L370,99c-0.2,0.4-0.3,0.9-0.4,1.3c-0.1,0.2-0.1,0.5-0.2,0.8c-0.3,1-0.6,2.5-0.8,4.1l-0.2,1.9c0,0.2,0,0.4-0.1,0.5
			c0,0.2,0,0.3,0,0.5c-0.4,0.3-0.8,0.5-1.1,0.8c-2.1,1.6-4.1,3.3-5.8,5.3l-0.2,0.2c-2.1,2.4-3.8,5-5.2,7.9c-1.4,3.1-2.4,6.4-3,9.8
			c0,0.1,0,0.3-0.1,0.4c-0.4,3.5-0.4,6.8,0.1,10.1c0,0.1,0,0.2,0,0.3c-0.4,0.5-0.8,1.1-1.2,1.7c-2.9,4.4-5,9-6.3,13.7
			c-0.8,2.7-1.3,5.7-1.6,9.1v0.2c-0.2,3.4,0,6.7,0.7,10.1c0,0.1,0,0.2,0.1,0.3c0.4,1.9,0.9,3.7,1.5,5.3c-1.3,1.9-2.4,3.9-3.3,6.1
			c-1.3,3.3-2,6.6-2,9.9c0,1.4,0.1,2.9,0.2,4.3l-112.8,14.7c-4.7,0.6-8.8,3.7-10.7,8.1l-24.2,54.8c-1.2,2.8-1.6,5.8-1.2,8.8
			c0.2,1.1,0.2,1.3,28.6,93.3c0.6,1.9,1.7,3.6,3,5l0,0c-6.3,0-11.3-0.2-15-0.7h-0.3c-0.6-0.1-1.6-0.1-2.4-0.1h-0.3
			c-0.6,0-1.1,0-1.7,0.1c-0.6-2.1-1.3-4.1-2.1-6.2c-2.4-6-5.8-11.6-10.1-16.5c-7.8-9.1-18.2-16.1-30-20.3c-9.1-3.2-18.9-4.9-29-4.9
			c-1.3,0-2.5,0-3.8,0.1c-9.9,0.4-20,2.2-29.9,5.5c-2.2,0.7-4.5,1.5-6.9,2.5c-2.6,1-4.7,2-6.7,3c-4.7,2.4-9.1,5.3-13,8.7
			c-7.2,6.2-12.9,14.3-16.6,23.2c-3.2,7.8-4.7,16.1-4.4,24c0.4,8.1,2.5,15.3,6.3,20.7c2,2.9,4.5,5.5,7.4,7.5
			c2.4,1.6,4.9,2.8,7.6,3.6c2.1,0.6,3.9,0.8,5.1,0.9c0.1,0,0.4,0,0.7,0c0.9,0.1,1.7,0.2,2.5,0.2c10.6,0,20.2-7.7,21.2-17.6l0.1,70.5
			c-5.5,3.7-7.6,10.9-4.8,17l1.3,2.9c2.2,4.8,7,7.8,12.3,7.8c2.1,0,4.2-0.5,6-1.4c0.3-0.1,0.9-0.5,1.8-0.9
			c3.2-1.6,10.6-5.5,17.1-8.5c0.4-0.2,1-0.5,1.7-0.8s1.8-0.9,2.3-1.1c0.4-0.1,0.7-0.3,1.1-0.4l0.6-0.3c3.8-1.6,6.7-4.4,8.2-7.9
			c1.6-3.7,1.6-7.9,0-11.8c-1.6-3.7-4.5-6.7-8.1-8.4v-9.6c1.6,0.2,3,0.5,4.3,0.9c2.6,0.7,4.5,1.7,5.8,3c0.6,0.5,1,1.2,1.5,2.1
			c0.1,0.3,0.4,0.8,0.7,1.7c0.1,0.3,0.2,0.7,0.3,1.1l0.7,2.4c2.4,8.1,5.2,15.2,8.6,21.8c4.1,8,9.1,15.1,14.7,21.1
			c6.5,6.8,14.1,12.4,22,16c6.8,3.1,14.2,5.1,21.6,5.8c-0.3,1.6-0.2,3.2,0.1,4.8c1.3,5.9,6.4,10,12.5,10H709
			c6.3,0,11.6-4.5,12.6-10.6c0.2-1.4,0.2-2.8,0-4.2c10.9-1.2,22.4-3.9,34.2-8.2c11.2-4.1,23.2-9.9,37.6-18.3
			c7.1-4.1,14.1-8.6,21-12.9c3-1.9,6.1-3.9,9.3-5.8c2.7,1.3,5.3,2.4,8,3.3c5,1.7,9.6,2.7,14.1,3.1c1.1,0.1,2.4,0.1,3.6,0.1
			c1.2,0,2.4,0,3.7-0.1c1.1,0,2.2-0.1,3.1-0.1c1.3-0.1,2.5-0.2,3.6-0.4c2.8-0.4,5.4-0.9,7.8-1.7c3.4-1.1,6.4-2.6,9-4.6
			c2.8-2.2,6.5-5.9,8-11.6C885.9,482.7,885.3,477.2,883,472.4z M204.2,288.1c-0.1-0.8,0-1.5,0.3-2.1l24.2-54.8v-0.1
			c0.2-0.6,0.8-0.9,1.3-1l116.5-15.2c0.2,0,0.3,0.1,0.3,0.3l0,0l0,0l10.6,36.2l-0.1,0.1c1.1-1.6,2.1-2.8,3-3.7
			c0.3-0.3,0.6-0.5,0.8-0.7c-0.8-1-1.6-2.2-2.3-3.4c-0.9-1.9-1.7-3.9-2.1-6s-0.4-4.1-0.2-6c0.4-3.8,1.8-7.1,3.3-9.5
			c1.2-2,2.5-3.5,3.6-4.5c-0.2-0.1-0.3-0.3-0.5-0.4c-0.7-0.5-1.5-1.1-2.2-1.8c-0.7-0.6-1.4-1.3-2.1-2.1l-1-1.1l-0.9-1.2
			c-1.2-1.6-2.2-3.5-2.9-5.5c-0.7-2-1-4.1-1-6.2c0-2,0.5-4,1.1-5.6c0.7-1.7,1.5-3.1,2.4-4.3c1.5-1.9,3-3.2,4.3-4
			c-0.1-0.1-0.1-0.2-0.2-0.3c-0.3-0.5-0.7-1-1-1.5s-0.6-1-0.8-1.6c-1.1-2.1-1.9-4.5-2.4-6.8c-0.5-2.4-0.6-4.8-0.5-7.1
			c0.2-2.3,0.5-4.6,1.2-6.6c1.2-4.2,3-7.7,4.8-10.4c1.5-2.2,3-4,4.2-5.3c-0.2-0.5-0.4-1.1-0.5-1.6c-0.2-1.1-0.6-2.2-0.7-3.4
			c-0.4-2.3-0.4-4.7-0.1-7s1-4.5,1.9-6.5c1-2,2.2-3.7,3.4-5.2c1.3-1.5,2.7-2.6,4-3.6c2.3-1.7,4.5-2.7,6.3-3.3
			c-0.1-0.4-0.1-0.8-0.1-1.2c-0.1-1.2-0.2-2.5-0.1-3.7c0-0.6,0-1.3,0.1-1.9l0.2-1.9c0.1-1.3,0.5-2.5,0.8-3.8
			c0.4-1.2,0.8-2.4,1.4-3.6c1-2.3,2.4-4.4,4-6.2c1.5-1.8,3.3-3.3,5-4.6c1.7-1.3,3.5-2.2,5.1-2.9c1.6-0.8,3.2-1.2,4.6-1.6
			c0.9-0.3,1.8-0.5,2.6-0.6v-0.2c0.3-1.1,0.8-2.1,1.2-3.2c0.5-1,1.1-2,1.7-3c1.3-1.9,2.9-3.5,4.5-4.8c3.4-2.6,7-3.9,10.1-4.5
			s5.7-0.6,7.5-0.4c0.1,0,0.3,0,0.4,0c0.1-0.5,0.2-1,0.4-1.5l0.5-1.8c0.2-0.6,0.5-1.2,0.8-1.8c0.5-1.2,1.2-2.3,1.8-3.4
			c1.5-2.1,3.3-4.1,5.4-5.7c2.1-1.5,4.3-2.7,6.6-3.4c4.5-1.5,8.8-1.6,12.3-1.3c1.8,0.2,3.3,0.5,4.7,0.8c1.4,0.3,2.6,0.7,3.5,1
			c0.2,0.1,0.4,0.2,0.6,0.2c0.2-0.3,0.5-0.6,0.7-0.8l1-1.2l0.3-0.3l0.2-0.2l0,0l0.1-0.1l0.2-0.1l0.6-0.6c0.9-0.8,1.7-1.5,2.5-2.3
			c0.9-0.7,1.9-1.3,2.8-2c2-1.2,4-2.2,6.1-2.9s4.2-1.1,6.2-1.2c1-0.1,2,0,2.9,0s1.8,0.2,2.7,0.3c0.8,0.2,1.6,0.4,2.4,0.6
			c0.7,0.2,1.4,0.5,2,0.7c0.6,0.3,1.2,0.5,1.7,0.8s1,0.6,1.4,0.8c0,0,0,0,0.1,0c1.3-1,2.8-1.9,4.5-2.6c2.7-1.2,5.9-1.8,9-1.9
			c3.2-0.1,6.4,0.2,9.5,1c0.8,0.2,1.6,0.4,2.4,0.6c0.8,0.2,1.6,0.4,2.3,0.7l2.1,0.7l1.3,0.5l1.2,0.6c1.6,0.8,3.3,1.9,4.7,3.5
			c1.5,1.5,2.6,3.7,2.9,5.9c0.2,1.3,0.2,2.6,0,3.8c0.9-0.4,1.8-0.7,2.9-1c1.9-0.4,4.1-0.5,6.3-0.1c1.1,0.3,2.5,0.7,3.3,1l0.7,0.3
			l0.4,0.1l0.2,0.1l0.4,0.2c0.5,0.3,1,0.6,1.6,0.9c0.5,0.3,1.1,0.6,1.6,1s1,0.7,1.5,1.3c0.5,0.5,1,0.9,1.5,1.5
			c0.4,0.6,0.9,1.2,1.3,1.9c0.7,1.4,1.3,3.1,1.3,4.7c0,0.4,0,0.8,0,1.2l-0.2,1.2c-0.1,0.6-0.2,1.1-0.4,1.7c0.5,0,1,0.1,1.6,0.2
			s1.2,0.2,1.8,0.3c0.6,0.2,1.3,0.4,2,0.6c0.4,0.1,0.7,0.2,1.1,0.3c0.4,0.2,0.7,0.3,1.1,0.5c0.8,0.3,1.5,0.7,2.3,1.2s1.6,1,2.3,1.7
			c0.8,0.6,1.5,1.6,2.2,2.5c1.3,2.1,1.9,4.9,1.4,7.4c-0.4,2.5-1.5,4.6-2.8,6.4s-2.7,3.3-4.1,4.5c-1.4,1.3-3,2.4-4.5,3.4
			c-3,2-6,3.4-8.6,4.4c-3.2,1.3-5.9,1.9-7.5,2.2c1.1,1.5,2.3,3,3.3,4.5c1.3,1.8,2.4,3.7,3.6,5.5c1.1,1.9,2.3,3.8,3.3,5.8
			s2,3.9,2.9,6c0.9,2,1.7,4.1,2.5,6.1c0.8,2.1,1.4,4.2,2.1,6.3c0.6,2.1,1.2,4.2,1.8,6.4l0.4,1.4l-0.9,1.4l0,0l-6.4,9.9
			c0.6,0.6,1.2,1.2,1.8,1.7c1.3,1.3,2.7,2.7,4,4.1c2.6,2.8,5.2,5.6,7.7,8.4c2.5,2.9,4.9,5.9,7.3,8.9c0.2,0.2,0.3,0.5,0.5,0.7l0,0
			c1.2-2.3,2.9-5.4,5-9.5c1.1-2.2,2.3-4.5,3.7-7.2c0.3-0.6,0.8-1.3,1.3-2c0.5-0.6,1.1-1.3,1.7-1.8c1.2-1.2,2.7-2.2,4.4-2.9
			c3.3-1.5,7.5-2.1,11.6-0.9c1,0.3,2,0.7,3,1.2s1.8,0.9,2.7,1.4c1.7,0.9,3.5,1.9,5.4,2.9c7.3,3.9,15.2,8.1,23.6,12.7
			c8.3,4.6,17.1,9.3,26.2,14.4c9,5.1,18.4,10.2,27.9,15.6c9.5,5.4,19.1,10.8,28.7,16.3l3.6,2.1c1,0.6,1.2,0.7,2,1.3l1.1,0.9
			c0.3,0.3,0.6,0.6,0.9,0.9c2.5,2.4,4.2,5.6,5,8.9c0.8,3.3,0.8,6.9-0.2,10.2c-0.2,0.8-0.6,1.6-0.9,2.4l-0.6,1.1
			c-0.2,0.4-0.4,0.8-0.6,1l-2,3.5c-5.4,9.4-10.9,18.6-16.2,27.5c-5.2,8.9-10.4,17.5-15.3,25.7c-4.9,8.2-9.6,15.8-13.9,22.9
			c-8.6,14.2-16,25.9-21.2,34c-2.6,4.1-4.7,7.3-6.1,9.5c-1.4,2.2-2.2,3.3-2.2,3.3s0.6-1.2,1.8-3.6c1.2-2.3,2.9-5.7,5.1-10
			c4.4-8.6,10.8-20.9,18.7-35.5c3.9-7.3,8.2-15.2,12.7-23.6c4.6-8.3,9.3-17.1,14.4-26.2c5.1-9,10.2-18.4,15.6-27.9l2-3.6
			c0.2-0.3,0.3-0.6,0.4-0.8l0.3-0.7c0.2-0.5,0.4-0.9,0.5-1.5c0.6-2,0.6-4.1,0.1-6.1s-1.6-3.9-3.1-5.3c-0.2-0.2-0.4-0.4-0.5-0.5
			l-0.5-0.4c-0.2-0.2-1.2-0.8-1.4-1l-3.6-2.1c-9.6-5.5-19.1-11.1-28.5-16.5s-18.6-10.9-27.5-16.2c-8.9-5.2-17.5-10.4-25.7-15.3
			c-8.2-4.9-15.8-9.6-22.9-13.9c-1.8-1.1-3.5-2.1-5.2-3.2c-0.8-0.5-1.7-1.1-2.5-1.5c-0.7-0.4-1.5-0.8-2.3-1.1
			c-3.1-1.2-6.5-1-9.4,0.1c-1.4,0.5-2.7,1.3-3.9,2.2c-0.6,0.4-1.1,1-1.6,1.4c-0.4,0.5-0.9,1-1.3,1.6c-1.6,2.3-3,4.7-4.3,6.7
			c-2.5,4-4.5,7.2-5.9,9.4l0,0c0.8,1.1,1.6,2.2,2.4,3.3c1.1,1.6,2.2,3.2,3.2,4.8c1,1.7,2.1,3.3,3,5.1l2.7,4.9
			c0.4,0.8,0.9,1.4,1.4,2.2l0.7,1.1l0.8,1c1,1.4,2.2,2.7,3.4,4l1.9,1.9l2,1.7l2.1,1.6l2.1,1.5c1.5,0.9,3,1.9,4.5,2.6
			c1.5,0.8,3.2,1.5,4.6,2l1.8,0.6l0.4,1.7l0,0c0.4,1.7,0.8,3.3,1.1,5c0.3,1.6,0.7,3.3,0.9,5c0.3,1.7,0.5,3.3,0.7,5s0.3,3.4,0.4,5.1
			c0,1.7,0.1,3.5,0,5.2c0,0.9-0.1,1.8-0.2,2.7c-0.1,0.9-0.2,1.8-0.5,2.7l-0.3,1.4l-0.5,1.4c-0.2,0.5-0.3,0.9-0.5,1.4l-0.7,1.4
			l-0.4,0.7c-0.1,0.1-0.1,0.2-0.2,0.4l-0.2,0.3l-0.7,1c-0.5,0.7-1.1,1.5-1.7,2.2c-1.2,1.4-2.4,2.7-3.9,4c-1.5,1.2-3.1,2.4-5.3,3.1
			c-0.6,0.2-1.1,0.4-2,0.5h-0.2h-0.4h-0.1h-0.3h-0.6l-2.4,0.1c-1.6,0.1-3.2,0.1-4.7,0.3c-3.1,0.2-6.3,0.6-9.2,1.2
			c-1.5,0.3-2.9,0.7-4.1,1.2c-0.6,0.2-1.1,0.5-1.5,0.7s-0.4,0.4-0.3,0.2l-5.9,1.2l-3.9-4c-0.4,0.4-0.8,0.9-1.2,1.3
			c-1.3,1.4-2.7,2.7-4.1,4c-0.7,0.6-1.5,1.3-2.3,1.9c-0.4,0.3-0.8,0.6-1.2,0.9s-0.8,0.6-1.3,0.9l-1.4,0.8l-1.5,0.8
			c-0.5,0.2-1.2,0.4-1.7,0.6c-0.6,0.2-1.4,0.3-2.1,0.4l-3,0.4l-0.6-3.3l0,0c-0.4-1.6-1-3.5-1.6-5.2s-1.3-3.5-2.1-5.2
			c-1.5-3.4-3.3-6.6-5.4-9.5c-0.8-1.1-1.6-2.1-2.5-3.1l-18.8,32.8c1.3,1.1,2.5,2.2,3.8,3.3c4.2,3.5,8.4,7,12.8,10.3
			c4.4,3.4,8.8,6.7,13.2,9.9c1.1,0.8,2.3,1.7,3.5,2.6c1.1,1,2.3,1.9,3.3,2.9c2.1,2,4,4.3,5.6,6.7c3.2,4.9,4.8,10.8,4.6,16.1
			c-0.2,5.4-1.9,10.1-3.9,14c-2,4-4.4,7.1-6.7,9.8c-2.3,2.7-4.4,4.8-6.3,6.4c-1.8,1.7-3.4,2.9-4.4,3.7c-1,0.8-1.6,1.2-1.6,1.2
			s0.5-0.5,1.3-1.5c0.9-1,2.1-2.5,3.6-4.4s3.2-4.3,5-7.1c1.7-2.8,3.6-6.1,5-9.9c0.7-1.9,1.3-3.8,1.7-5.9c0.4-2,0.6-4.2,0.5-6.3
			c-0.2-4.3-1.7-8.5-4.5-12.2c-2.8-3.8-6.5-7-10.9-9.9c-4.6-3.1-9.2-6.5-13.7-9.9c-4.5-3.5-8.8-7.1-13-10.8
			c-4.2-3.7-8.1-7.5-11.8-11.4c-3.7-3.8-7.1-7.8-10-11.7c-3-3.9-5.5-7.9-7.4-11.9c-1.9-3.9-3.2-8-3.2-11.7c-0.1-0.9,0.1-1.9,0.2-2.7
			c0.1-0.9,0.4-1.7,0.7-2.5c0.4-0.7,0.7-1.4,1.1-2.1c0.5-0.6,0.9-1.1,1.3-1.6c0.1-0.1,0.2-0.2,0.3-0.3c-3.5-0.4-7-1.1-10.5-2.1
			c-4.1-1.2-8.1-2.8-11.9-5.2c-1.9-1.2-3.6-2.7-5.2-4.3s-2.9-3.5-4.1-5.4c-1.1-2-2-4-2.7-6.1c-0.6-2.1-1.2-4.2-1.4-6.3
			c-0.6-4.2-0.5-8.4-0.2-12.5c0.2-2.1,0.4-4,0.7-5.9c0.3-2,0.5-3.9,0.7-5.8c0.4-3.9,0.8-7.7,1-11.6c0.2-3.9,0.3-7.7-0.3-11.5
			c-0.3-1.9-0.8-3.7-1.8-5.3c-0.9-1.6-2.4-3-4.1-4c1.8,0.7,3.6,1.8,5,3.4c1.3,1.6,2.3,3.5,2.9,5.4c1.3,3.9,1.7,8,2,11.9
			c0.3,4,0.4,8,0.3,12c0,2,0,4-0.1,5.9l-0.2,5.8c0,3.8,0.2,7.5,1,11c0.3,1.8,0.8,3.5,1.4,5.1s1.4,3.1,2.3,4.6
			c1.8,2.8,4.3,5.1,7.2,6.9c2.9,1.8,6.2,3,9.8,3.9c7.1,1.7,14.7,2.3,22.3,2.3c1.9,0,3.9,0,5.8-0.1h3.2c1.1,0.1,2.2,0.2,3.2,0.3
			c4.3,0.5,8.6,1.6,12.6,3.3s7.7,4.2,11,7.1c3.2,2.9,6.1,6.2,8.4,9.7c2.3,3.5,4.2,7.3,5.7,11.2c0.7,1.9,1.4,3.9,2,5.9
			c0.2,0.7,0.4,1.4,0.6,2.1l0.5-0.3c0.3-0.2,0.6-0.5,1-0.7c0.3-0.2,0.6-0.5,1-0.7c0.6-0.5,1.3-1.1,1.9-1.6c1.3-1.2,2.5-2.4,3.7-3.6
			l1.8-1.9c0.5-0.6,1.1-1.2,1.6-1.8c-0.5-0.7-1.1-1.4-1.6-2.1c-0.5-0.8-1.1-1.6-1.5-2.4c-0.5-0.8-0.9-1.6-1.4-2.4
			c-0.8-1.6-1.5-3.2-2-4.6c-0.5-1.4-0.8-2.7-1-3.7c-0.2-0.9-0.2-1.5-0.2-1.5s0.6,0.2,1.4,0.6c0.9,0.4,2.1,1,3.3,1.9
			c1.3,0.9,2.6,1.9,4,3.2c1.3,1.3,2.6,2.8,3.7,4.4c0.5,0.8,1.1,1.6,1.6,2.5c0.5,0.8,0.9,1.7,1.3,2.6c0.8,1.7,1.3,3.4,1.7,5
			c0,0.1,0,0.1,0,0.2l0.2,0.2c0.8-0.5,1.6-0.9,2.4-1.2c1.8-0.7,3.6-1.2,5.3-1.5c3.4-0.7,6.8-1.1,10.2-1.3c1.7-0.1,3.4-0.2,5-0.3
			l2.5-0.1c1.2,0,0.7,0.1,1.3-0.1c0.9-0.3,2-1,3-1.8c1-0.9,2-1.9,3-3c0.5-0.6,0.8-1,1.3-1.7l0.7-1l0.2-0.2l0.1-0.1l0.2-0.4l0.4-0.7
			c0.1-0.3,0.2-0.6,0.3-0.9l0.3-0.9l0.2-1c0.2-0.7,0.3-1.4,0.4-2.1c0.1-0.7,0.2-1.4,0.2-2.2c0.1-1.5,0.1-3,0.1-4.6
			c-0.1-1.6-0.1-3.1-0.3-4.7c-0.1-1.6-0.3-3.1-0.5-4.7c-0.2-1.6-0.4-3.1-0.7-4.7c-0.2-1-0.4-2-0.6-3c-1.4-0.5-2.6-1.1-3.9-1.7
			c-1.8-0.9-3.5-1.9-5.2-2.9c-0.8-0.6-1.7-1.1-2.5-1.7c-0.8-0.6-1.6-1.2-2.4-1.8l-2.3-2l-2.2-2.1c-1.4-1.5-2.7-2.9-3.9-4.6
			c-0.6-0.8-1.2-1.6-1.8-2.5s-1.2-1.8-1.7-2.6l-2.7-4.9c-0.8-1.6-1.8-3.1-2.8-4.6s-2-3-3.1-4.5s-2.2-2.9-3.3-4.4
			c-2.3-2.9-4.7-5.7-7.1-8.4c-2.5-2.7-5-5.4-7.6-8l-3.9-3.9c-1.3-1.3-2.7-2.6-4-3.8l0,0l-2.5-2.4l1.8-2.7l7.7-11.1
			c-0.4-1.5-0.7-3-1.1-4.5c-0.6-2-1.1-4-1.9-5.9c-0.7-2-1.4-3.9-2.2-5.8c-0.8-1.9-1.6-3.8-2.5-5.7c-0.9-1.9-1.9-3.7-2.9-5.5
			c-1.1-1.8-2.1-3.6-3.3-5.2c-1.1-1.7-2.5-3.3-3.7-5c-1.3-1.6-2.5-3.3-3.9-4.8c-1.3-1.6-2.7-3.1-4.1-4.7c-1.5-1.5-2.9-3-4.5-4.3
			c-1.6-1.4-3.2-2.8-4.8-4c-1.7-1.3-3.3-2.5-5.1-3.7c-1.7-1.2-3.5-2.3-5.4-3.4c-1.8-1.1-3.7-2-5.6-3c-2.1-1-4.2-2-6.4-2.8
			c0,0.7-0.1,1.3-0.2,1.9c-0.4,3.1-1.2,6.1-2.2,8.9c-0.5,1.4-1.1,2.8-1.8,4.2c-0.7,1.4-1.4,2.7-2.2,3.9c-0.8,1.3-1.7,2.5-2.7,3.7
			c-1,1.1-2,2.3-3.2,3.3s-2.4,1.9-3.7,2.6c-1.3,0.8-2.7,1.4-4.2,1.8s-2.9,0.7-4.4,0.8c-1.5,0.1-2.9-0.1-4.3-0.3
			c1.4-0.2,2.8-0.4,4.1-0.8c1.3-0.4,2.6-1,3.8-1.6c1.1-0.7,2.3-1.4,3.3-2.3s1.9-1.8,2.7-2.9c1.7-2,3.1-4.3,4.2-6.7
			c1.1-2.4,2-4.9,2.7-7.5c0.6-2.5,1.1-5.2,1.2-7.7c0.1-1.2,0-2.5-0.1-3.6l-0.1-0.7l-0.2-0.9c-0.2-0.8-0.4-1.7-0.5-2.5
			c-0.3-1.7-0.2-3.4-0.1-5s0.4-3.3,0.8-4.8c0.2-0.8,0.5-1.6,0.7-2.5c-0.4,0.1-0.8,0.2-1.2,0.2l-1.8,0.5c-0.6,0.2-1.2,0.4-1.8,0.6
			c-0.6,0.2-1.2,0.5-1.7,0.7c-0.6,0.2-1.2,0.5-1.7,0.8c-1.1,0.6-2.2,1.2-3.3,1.9c-1.1,0.7-2.2,1.4-3.2,2.3c-1.1,0.8-2,1.7-3.1,2.5
			c-1,0.9-2,1.8-2.9,2.8s-1.9,1.9-2.8,3c-0.9,1-1.8,2.1-2.7,3.1c-1.8,2.1-3.4,4.3-5,6.6c-1.6,2.3-3.2,4.6-4.7,7s-3,4.8-4.4,7.3
			c0.6-2.8,1.5-5.5,2.4-8.2c0.5-1.4,1-2.7,1.6-4s1.1-2.6,1.7-3.9s1.3-2.6,2-3.9c0.1-0.3,0.3-0.5,0.4-0.7c-2.4,1-5.6,2.4-9.5,4.3
			c-8.6,4.2-20.5,11.2-32.7,22.1c-6,5.4-12.1,11.9-17.5,19.4s-10.1,16.1-13.6,25.5s-5.7,19.6-6.5,30.1c-0.2,2.6-0.3,5.3-0.4,7.9v4
			v4.1c0.1,5.5,0.2,10.9,0.4,16.4c0.3,10.9,0.8,21.9,1.2,32.6c0.5,10.8,1,21.5,1.5,31.8c0.2,5.2,0.3,10.3,0.2,15.4
			c-0.2,5.1-0.8,10.1-2,14.9s-3.1,9.3-5.3,13.4c-1.1,2-2.4,4-3.6,5.8c-0.6,0.9-1.3,1.8-1.9,2.7c-0.6,0.8-1.2,1.7-1.9,2.5
			c-4.7,6.3-7.8,12.8-9.1,18.7c-1.3,5.9-0.9,11.2,0.2,15.5s2.9,7.5,4.2,9.7c0.7,1.1,1.2,1.9,1.6,2.5s0.6,0.8,0.6,0.8
			s-0.3-0.2-0.9-0.5s-1.5-0.8-2.6-1.6c-2.1-1.6-5.2-4.4-7.6-9.1s-3.7-11.4-2.2-18.7c0.6-3.4,1.8-6.7,3.4-10
			c-0.4-0.2-0.8-0.4-1.3-0.7c-0.8-0.4-1.6-0.9-2.5-1.6c-0.9-0.6-1.8-1.4-2.7-2.3c-0.9-0.9-1.8-1.9-2.6-3.2c-0.4-0.6-0.8-1.2-1.1-1.9
			c-0.4-0.6-0.7-1.4-1-2.1c-0.6-1.4-1-3-1.2-4.7c-0.1-1.6-0.2-3.3,0.1-4.9c0.3-1.6,0.7-3.1,1.3-4.5c1.2-2.7,3-4.8,4.7-6.3
			c1.6-1.4,3.2-2.3,4.4-2.8c-0.2-0.1-0.3-0.3-0.5-0.4c-0.7-0.6-1.5-1.4-2.2-2.1c-0.6-0.8-1.3-1.6-1.9-2.5c-1.2-1.8-2-3.8-2.5-6
			c-0.5-2.1-0.4-4.3,0-6.2c0.3-2,1-3.7,1.8-5.2s1.7-2.8,2.7-3.9c0.8-0.9,1.6-1.7,2.3-2.3c-1.1-0.8-2.1-1.8-3.1-2.9
			c-1.3-1.6-2.4-3.5-2.9-5.4c-0.6-1.9-0.8-3.9-0.7-5.7c0.2-3.6,1.4-6.6,2.7-8.9l0,0l-9.9-35.9L328,270.4l27.9,108h-0.2l-31.1-106
			l-112.5,17.4l20.3,88.8l-0.6,0.2C232.4,379.7,204.2,288.6,204.2,288.1z M312.3,517.9c0.2,1.2,0.4,2.3,0.7,3.5
			c0.3,1.2,0.8,2.3,1.3,3.3c0.3,0.5,0.6,1,1,1.4l0.1,0.1l0,0l0,0c0,0-0.1-0.1,0,0l0,0l0.1,0.1l0.4,0.4c0.1,0.1,0.1,0.1,0.2,0.2
			l0.2,0.1c0.1,0.1,0.2,0.2,0.3,0.3c1,0.8,2,1.6,3.3,2.1c1.2,0.5,2.6,0.7,3.9,0.7s3.3-0.2,4.6-1.2c1.3-1,0.9-9.1,0.8-11.4
			c-0.1,0-0.2,0-0.3,0c-0.4,0-0.8-0.1-1.2-0.1c-0.4,0-0.8-0.1-1.1-0.1c-0.7,0-1.3,0-1.8,0s-0.9,0.1-1.1,0.2
			c-0.3,0.1-0.4,0.1-0.4,0.1c-0.1,0.1-0.3,0.1-0.4,0s-0.1-0.3,0-0.4c0,0,0.1-0.2,0.3-0.4c0.2-0.2,0.6-0.5,1.1-0.8s1.1-0.6,1.9-0.9
			c0.4-0.1,0.8-0.2,1.2-0.4c0.4-0.1,0.9-0.2,1.4-0.3s1-0.1,1.5-0.2c0.5,0,1-0.1,1.6-0.1c1.1,0,2.2,0,3.4,0.1
			c1.2,0.1,3.4,0.3,4.6,0.4c0.6,0.1,1.2,0.2,1.8,0.4l0.5,0.1l0.4,0.1l0.9,0.2c1.1,0.3,2.2,0.5,3.3,0.8l1.6-4.3
			c0.3-0.8,0.6-1.7,1-2.6s3.7-10.2,4.1-11.3c0.1-0.2,0.3-0.3,0.5-0.3c0.5,0,0.7,0,0.9,0c0.2,0,0.5,0,0.8,0s0.6,0.2,0.7,0.5
			c0.1,0.4,0.3,0.7,0.4,1.1c0.2,0.5,0.9,2.4,2.1,5.6l4.7,11l2.8,7.1c1.4,3.2,2.2,5.4,2.4,5.7c0.3,0.4,0.6,0.7,1,0.9s1.1,0.3,2.2,0.4
			h0.4c0.1,0,2-0.1,2.3-0.3s0.4-0.8,0.4-1.7c0.1-2.6,0.2-4.3,0.2-4.8v-1.4v-8.1l-0.1-13.5c-0.7-0.1-1.8-0.2-2.6-0.3h-0.4
			c-0.4,0-0.7-0.4-0.7-0.8v-0.7c0-0.4,0.4-0.8,0.8-0.8s1.7,0,1.8,0c2,0.2,4.8,0.2,8.1,0.5c1.3,0.1,2.6,4.2,2.6,4.5
			c0,0.1,0,0.1,0,0.2l0.8,2.2c0.6,1.8,1.5,4.1,2.9,7.2l2.8,6.7c0.3,0.6,0.5,1.3,0.8,1.9c0.3,0.6,1.2,0.6,1.4,0l0.8-1.9
			c0,0,6.6-14.6,8.1-18.3l0,0l0.4-1c0.4-1.1,1.1-1.3,1.6-1.3c4.1,0,8.8-0.1,8.8-0.1s2.9-0.1,1.8,2.3c0,0.1-0.1,0.1-0.2,0.1
			c-0.5,0-1.5,0-2.8,0.2c-0.1,0-0.2,0.1-0.3,0.1c-0.3,0.3-1.1,1.4-1.1,4.3s0,16.5,0,22l0,0c0,0,0,0,0,0.1s0,0.1,0,0.2
			c0,0.3,0.1,0.7,0.1,0.8c0,0.3,0.3,0.5,0.5,0.7c0.3,0.3,0.9,0.6,1.6,0.8c0,0,0.1,0,0.2,0c0.8,0,1.6,0,2,0.2
			c0.6,0.6,0.8,2.4-0.8,2.3h-0.3h-0.1c-0.1,0-0.3,0-0.5-0.1c-0.8-0.1-1.6-0.1-2.4-0.2c-1.3-0.1-2.2-0.1-2.6-0.1
			c-3.3,0-6,0.1-8.1,0.4c-0.2,0-0.7,0-1.6,0.1V530l1.1-0.1c1.1-0.1,1.8-0.3,2.2-0.4c0.4-0.2,0.9-0.5,1.2-1c0-0.1,0.1-0.3,0.3-0.7
			c0.2-0.5,0.3-1,0.3-1.5v-21.9c0,0,0-0.4,0-0.9c-0.8,1.6-1.9,3.7-2.7,6.1l-3.6,8.3c-0.3,0.8-0.7,1.6-1,2.5
			c-0.4,0.9-3.9,10.2-4.3,11.3c-0.1,0.2-0.3,0.3-0.5,0.3c-0.5,0-0.7,0-0.9,0c-0.2,0-0.5,0-0.8,0s-0.6-0.2-0.7-0.5
			c-0.1-0.4-0.3-0.7-0.4-1.1c-0.2-0.5-0.9-2.4-2.1-5.6l-4.7-11l-2.8-7.1c-0.6-1.4-1.1-2.6-1.5-3.5l0.2,13.1c0,0.6,0,1.1,0,1.7v1.7
			c0,0,0,0,0,0.1l0.1,3.2c0,1.4,0.1,2.8,0.3,4.4c0,0.4,0.1,0.7,0.1,0.9c0,0.1,0.1,0.2,0.1,0.4c0.1,0.3,0.4,0.5,0.6,0.5
			c0.8,0.2,2,0.3,3.7,0.4h0.1l0,0c0.3,0.1,0.6,0.4,0.6,0.7v0.5c0,0.5-0.4,0.9-0.9,0.9s-15.1-0.6-19.2-0.4c-0.5,0-1.5,0.1-3,0.2
			c-1.1,0.1-1.9,0.2-2.4,0.3h-0.1h-1c-0.4,0-0.8-0.3-0.8-0.8c0-0.3,0-0.5,0-0.7c0-0.4,0.3-0.7,0.7-0.8c1.2-0.2,2-0.3,2.2-0.3
			c0.7-0.2,1.3-0.5,1.6-0.8c0.2-0.2,0.3-0.4,0.3-0.7c0-0.2,0-0.7,0-1c0-0.1,0-0.1,0-0.2l-0.8-2.2c-0.4-1.3-1-2.8-1.8-4.7
			c-0.5,0.2-1.1,0.4-1.7,0.5c-1,0.2-2,0.3-3.1,0.4c-1.1,0-2.3,0-3.4-0.1c-0.6-0.1-1.2-0.1-1.8-0.2c-0.1,0-0.2,0-0.2,0l-0.2,0.6l0,0
			c-0.1,0.3-0.2,0.6-0.3,1.1c-0.4,1.5-0.8,2.7-1.1,3.5c-0.3,0.8-0.4,2-0.4,2.5c0,0.3,0.2,0.6,0.5,0.9c0.5,0.4,1.3,0.6,2.4,0.7
			c0.2,0.1,0.5,0.1,0.9,0.2c0.2,0,0.4,0,0.5,0.1c0.3,0.1,0.6,0.3,0.6,0.7c0,0.1,0,0.2,0,0.2c0,0.1,0,0.2,0,0.4
			c0,0.4-0.4,0.8-0.8,0.7c-0.4,0-1-0.1-1.8-0.2c-1.4-0.1-2.8-0.2-4.1-0.2c-1.4,0-2.6,0.1-3.5,0.2c-0.6,0.1-1.1,0.1-1.6,0.2
			c-0.5,0-0.8-0.3-0.8-0.8c0-0.1,0-0.2,0-0.4c0-0.3,0.2-0.6,0.5-0.7c1.9-0.7,2.9-1.2,3.3-1.5c0.2-0.2,0.5-0.5,0.7-0.9
			c0.6-1.2,1.6-4,2.9-7.5v-0.1c-0.9-0.2-1.8-0.3-2.7-0.5c-0.6-0.1-1.2-0.3-1.8-0.4c-0.6-0.1-1.1-0.3-1.7-0.4
			c-0.6-0.1-2.1-0.2-2.7-0.4c-0.1,0-0.3-0.1-0.4-0.1l-0.2,8l-0.1,1.1c-0.1,1-0.7,1.9-1.7,2.3c0,0-1.4,0.8-5.8,1.4
			c-1.5,0.2-3,0.4-4.5,0.4s-3,0-4.6-0.2c-1.5-0.1-3.1-0.4-4.7-1c-0.4-0.2-0.8-0.4-1.2-0.5l-0.5-0.3l-0.1-0.1l0,0l-0.1-0.1l0,0h-0.1
			l-0.3-0.2c-0.8-0.5-1.4-1.1-2-1.7c-1.2-1.2-2.2-2.6-3-4c-0.4-0.7-0.7-1.5-1.1-2.3c-0.3-0.8-0.6-1.6-0.7-2.4
			c-0.4-1.6-0.5-3.9-0.3-5.6c0.1-1.7,0.6-4.6,1.3-6.2c0.7-1.6,1.6-3,2.8-4.3l0.5-0.5c0.1-0.1,0.3-0.3,0.4-0.4l0.9-0.8
			c0.6-0.5,1.3-1,1.9-1.4c1.3-0.9,2.8-1.6,4.3-2.1s3-0.8,4.6-0.8c1.5-0.1,3,0.1,4.5,0.3c0.7,0.1,1.5,0.2,2.2,0.4
			c0.2,0,0.4,0.1,0.6,0.1s0.4,0.1,0.6,0.2c0.4,0.1,0.8,0.3,1.2,0.5c0.7,0.3,2.7,1.3,3.4,1.8l0.2,0.1c0.6,0.4,1.2,5.3,0.7,5.9
			s-1.6,0.3-1.9-0.2c-0.3-0.4-2-3.5-2.4-4s-0.9-1-1.3-1.3c-0.2-0.2-0.5-0.4-0.8-0.5c-0.1-0.1-0.3-0.1-0.4-0.2s-0.3-0.1-0.4-0.2
			c-0.7-0.2-1.3-0.4-2-0.6c-1.3-0.3-2.7-0.4-4-0.2c-1.3,0.2-2.6,0.6-3.7,1.2c-0.6,0.3-1.1,0.7-1.6,1.1s-0.9,0.9-1.3,1.4
			s-0.8,1-1.1,1.5l-0.5,0.8c-0.1,0.2-0.1,0.3-0.2,0.4l-0.2,0.4c-0.5,1.1-0.8,2.2-1.1,3.4c-0.2,1.1-0.3,3.4-0.3,4.6
			C312.1,515.1,312.1,516.7,312.3,517.9z M694,541.4c0.3,0,0.6,0.1,0.9,0.3c0.4,0.3,0.5,0.4,1,0.7c0.1,0.1,0.1,0.2,0.1,0.3
			c-0.1,0.1-0.2,0.1-0.4,0.1c-15,0-436.9-0.1-447,0c-0.2,0-0.3-0.1-0.3-0.1c-0.2-0.4,0.5-0.6,0.9-0.9c0.2-0.2,0.6-0.4,0.9-0.4
			L694,541.4L694,541.4z M428.9,503.3L428.9,503.3c0,2.3,0,6,0,9.7c0.7,0,1.5,0.1,2.2,0.2c0.4,0.1,0.8,0.1,1.2,0.2
			c0.4,0.1,0.8,0.1,1.1,0.2c0.8,0.1,1.5,0.2,2.2,0.4c0.7,0.1,1.4,0.2,2,0.2s1.2,0.1,1.6,0c0.5,0,0.9-0.1,1.3-0.3
			c0.4-0.1,0.8-0.4,1.1-0.5c0.3-0.2,0.6-0.4,0.7-0.5c0.2-0.1,0.3-0.2,0.3-0.2c0.1-0.1,0.3,0,0.4,0.1c0,0.1,0,0.1,0,0.2
			c0,0,0,0.1-0.1,0.3s-0.2,0.5-0.3,0.9c-0.2,0.4-0.4,0.8-0.8,1.3s-1,1-1.6,1.4c-0.7,0.4-1.5,0.6-2.3,0.8s-1.7,0.3-2.5,0.3
			s-1.7,0-2.6-0.1c-0.4,0-0.9-0.1-1.3-0.1c-0.4-0.1-0.8-0.1-1.2-0.2c-0.5-0.1-1-0.1-1.5-0.2c0,3.3,0,6.1,0,7.3
			c0,3.7,1.3,4.4,1.3,4.4c14.5,0.5,15.7-0.4,18.1-6c0.3-0.6,0.7-0.6,1.2-0.5c0.4,0.1,0.6,0.4,0.6,0.8c0,0.7-0.7,3.3-0.9,5.2
			c-0.3,3.1-3.1,3.8-6.1,3.3c-2.9-0.5-20.1,0.2-22.4,0c-1.5-0.1-3.8,0.2-3.7-0.3c0.1-0.4-0.2-1.4,0.5-1.6c0.6-0.2,2.2-0.3,2.5-0.4
			c2.1-0.5,2-4.4,2-4.4v-7.6c-0.9,0.2-1.7,0.5-2.3,0.8c-0.3,0.1-0.6,0.3-0.7,0.4c-0.1,0-0.2,0.1-0.2,0.1h-0.1
			c-0.1,0.1-0.3,0-0.4-0.1c0-0.1-0.1-0.1,0-0.2c0,0,0,0,0-0.1s0-0.1,0.1-0.2c0.1-0.2,0.2-0.5,0.4-0.8c0.4-0.7,1.2-1.6,2.3-2.5
			c0.3-0.2,0.5-0.4,0.8-0.5v-10.3c0-0.7-0.1-1.3-0.4-1.9c-0.1-0.2-0.2-0.4-0.2-0.4c-0.3-0.4-0.8-0.8-1.2-1c-0.4-0.2-1.1-0.3-2.2-0.4
			h-0.4c-0.4,0-0.7-0.4-0.7-0.8V499c0-0.4,0.4-0.8,0.8-0.8s0.7,0,0.8,0c2,0.2,4.7,0.4,8.1,0.4c0.4,0,1.3,0,2.6-0.1
			c0.7-0.1,7.8-0.6,10.8-0.6c3.8,0,5.8-0.7,6.4,1.8c1.1,4.9,0.7,6.4-0.4,6.5c-2,0.1-0.9-3.9-6.5-4.8c-3.3-0.5-6.1-0.6-8.2-0.6
			c-0.1,0-0.1,0-0.2,0c-0.7,0.2-1.3,0.5-1.6,0.8c-0.2,0.2-0.5,0.4-0.5,0.7c0,0.1-0.1,0.5-0.1,0.8
			C428.9,503.1,428.9,503.2,428.9,503.3L428.9,503.3z M471,519.1c-0.5,0.2-0.9,0.3-1.1,0.4c-0.3,0.1-0.4,0.2-0.4,0.2l0,0
			c-0.1,0.1-0.3,0-0.4-0.1c0-0.1,0-0.2,0-0.3c0,0,0.1-0.1,0.3-0.4c0.2-0.2,0.5-0.6,0.9-1c0.6-0.5,1.4-1.2,2.4-1.8v-11.8
			c0,0,0.1-3.9-2-4.4c-0.3-0.1-1.8-0.2-2.5-0.4c-0.6-0.2-0.5-1.1-0.2-1.6c0.3-0.4,14.3-0.1,14.3-0.1s2-0.1,2,1.3
			c0,0.6-0.5,1.2-1.1,1.2c-0.4,0-1,0.1-1.7,0.1c-0.5,0-1,0.4-1.2,0.8c-0.3,0.6-0.7,1.8-0.7,3.7c0,1.3,0,4.7,0,8.6
			c0.3-0.1,0.6-0.1,0.9-0.1c1.2-0.2,2.4-0.3,3.7-0.3c1.3,0,2.5,0,3.8,0.1c1.2,0.1,2.4,0.2,3.6,0.3c1.1,0.1,2.3,0.2,3.4,0.3h0.1v-9.5
			c0,0,0.1-3.9-2-4.4c-0.3-0.1-1.8-0.2-2.5-0.4c-0.6-0.2-0.5-1.1-0.2-1.6c0.3-0.4,14.3-0.1,14.3-0.1s2-0.1,2,1.3
			c0,0.6-0.5,1.2-1.1,1.2c-0.4,0-1,0.1-1.7,0.1c-0.5,0-1,0.4-1.2,0.8c-0.3,0.6-0.7,1.8-0.7,3.7c0,1.3,0,4.9,0,8.9
			c0.3-0.1,0.7-0.1,1-0.2c0.6-0.2,1.2-0.4,1.7-0.6c0.5-0.2,0.9-0.4,1.1-0.5c0.3-0.1,0.4-0.2,0.4-0.2c0.1-0.1,0.3,0,0.4,0.1
			c0,0.1,0,0.2,0,0.3c0,0-0.1,0.1-0.3,0.4c-0.2,0.2-0.4,0.6-0.8,1s-0.9,0.9-1.6,1.4c-0.5,0.4-1.2,0.7-1.9,1c0,4,0,8,0,10.4l0,0
			c0,0,0,0,0,0.1s0,0.1,0,0.2c0,0.3,0.1,0.7,0.1,0.8c0,0.3,0.3,0.5,0.5,0.7c0.3,0.3,0.9,0.6,1.6,0.8c0,0,0.1,0,0.2,0
			c0.8,0,1.6,0,2,0.2c0.6,0.6,0.8,2.4-0.8,2.3h-0.3h-0.1c-0.1,0-0.3,0-0.5-0.1c-0.8-0.1-1.6-0.1-2.4-0.2c-1.3-0.1-2.2-0.1-2.6-0.1
			c-3.3,0-6,0.1-8.1,0.4c-0.1,0-0.5,0-1,0c-0.3,0-0.6-0.2-0.6-0.6v-1.1c0-0.3,0.2-0.5,0.5-0.6l0.6-0.1c1.1-0.1,1.8-0.3,2.2-0.4
			c0.4-0.2,0.9-0.5,1.2-1c0-0.1,0.1-0.2,0.2-0.5c0.2-0.6,0.4-1.2,0.4-1.9V518c-0.1,0-0.1,0-0.2,0c-1.2,0-2.4,0.1-3.6,0
			c-0.3,0-0.6,0-0.9,0l-0.9-0.1c-0.6,0-1.2-0.1-1.8-0.1c-0.6-0.1-1.1-0.1-1.7-0.1s-1.1-0.1-1.7-0.1s-1.1,0-1.7,0c-0.5,0-1.1,0-1.6,0
			c-0.4,0-0.8,0-1.2,0c0,3.6,0,7.2,0,9.5l0,0c0,0,0,0,0,0.1s0,0.1,0,0.2c0,0.3,0.1,0.7,0.1,0.8c0,0.3,0.3,0.5,0.5,0.7
			c0.3,0.3,0.9,0.6,1.6,0.8c0,0,0.1,0,0.2,0c0.8,0,1.6,0,2,0.2c0.6,0.6,0.8,2.4-0.8,2.3h-0.3H483c-0.1,0-0.3,0-0.5-0.1
			c-0.8-0.1-1.6-0.1-2.4-0.2c-1.3-0.1-2.2-0.1-2.6-0.1c-3.3,0-6,0.1-8.1,0.4c-0.1,0-0.5,0-1,0c-0.3,0-0.6-0.2-0.6-0.6v-1.1
			c0-0.3,0.2-0.5,0.5-0.6l0.6-0.1c1.1-0.1,1.8-0.3,2.2-0.4c0.4-0.2,0.9-0.5,1.2-1c0-0.1,0.1-0.2,0.2-0.5c0.2-0.6,0.4-1.2,0.4-1.9
			v-7.5C472.1,518.7,471.5,518.9,471,519.1z M515.6,514.8v0.2c0,2.5,0.3,5,1,7.4c0.1,0.3,0.2,0.6,0.3,0.9l0.3,0.9
			c0.3,0.6,0.5,1.2,0.9,1.7c0.3,0.6,0.7,1,1.1,1.6c0.4,0.4,0.8,0.9,1.4,1.3c0.5,0.4,1,0.7,1.6,1c0.6,0.2,1.1,0.5,1.7,0.6
			c0.5,0.2,1.2,0.2,1.9,0.2c0.3,0,0.5,0,0.8-0.1c0.1,0,0.3,0,0.4,0l0.4-0.1c1.1-0.2,2.1-0.7,3-1.3c0.4-0.3,0.9-0.6,1.2-1
			c0.2-0.2,0.4-0.4,0.5-0.6c0.2-0.2,0.3-0.4,0.5-0.6c1.2-1.6,1.8-3.3,2.2-4.8c0.1-0.4,0.2-0.7,0.3-1.1c0.1-0.4,0.2-0.7,0.2-1
			c0.1-0.3,0.1-0.6,0.2-0.9c0-0.3,0.1-0.6,0.1-0.9c0.1-0.6,0.1-1,0.1-1.4c0-0.2,0-0.3,0-0.5s0-0.4,0-0.6c0-0.5,0-0.8,0-0.9
			c0-0.1,0-0.3,0-0.9c0-0.3,0-0.7,0-1.1c0-0.4,0-0.9-0.1-1.4c0-0.3-0.1-0.6-0.1-0.9s-0.1-0.6-0.2-0.9c0-0.3-0.1-0.7-0.2-1
			c0-0.1,0-0.2-0.1-0.3c-0.6,0.6-1.4,0.9-2.3,0.9c-1.9,0-3.5-1.6-3.5-3.5c0-1.4,0.9-2.7,2.1-3.2l0,0c0.8-0.7,3.3-1,5.2-0.3
			c1.4,0.5,2.7,2.1,3.2,2.9c1.1,1.8,1.9,3.5,2.2,5c0.2,0.7,0.3,1.4,0.4,2c0,0.3,0.1,0.6,0.1,0.8s0,0.5,0,0.7c0,0.8,0.1,1.2,0.1,1.2
			v0.1c0,0,0,0.4-0.1,1.1c0,0.2,0,0.4,0,0.6c0,0.2-0.1,0.5-0.1,0.8c-0.1,0.6-0.2,1.4-0.4,2.1c-0.1,0.4-0.2,0.7-0.3,1.1
			c-0.2,0.4-0.3,0.8-0.5,1.2s-0.4,0.8-0.6,1.3c-0.2,0.4-0.5,0.9-0.8,1.3c-1.1,1.8-2.7,3.6-4.7,5c-0.3,0.2-0.5,0.4-0.8,0.6
			c-0.3,0.2-0.6,0.3-0.8,0.5c-0.5,0.4-1.2,0.6-1.8,0.9c-1.2,0.5-2.5,1-3.9,1.1l-0.5,0.1c-0.2,0-0.4,0-0.5,0h-0.5h-0.3h-0.1h-0.1
			h-0.1l0,0c-0.7-0.1-1.3,0-2.1-0.2c-0.8-0.1-1.5-0.3-2.2-0.5c-0.7-0.3-1.4-0.5-2.1-0.9c-0.7-0.3-1.4-0.7-2.1-1.1
			c-0.6-0.5-1.3-0.9-1.9-1.5c-0.6-0.5-1.2-1.1-1.8-1.7c-0.3-0.3-0.5-0.6-0.8-1c-0.3-0.3-0.5-0.7-0.7-1c-1-1.4-1.7-3-2.2-4.6
			c-0.2-0.8-0.5-1.7-0.6-2.5c-0.2-0.8-0.2-1.7-0.2-2.6v-0.3v-0.1v-0.2v-0.1v-0.6v-0.6v-0.3v-0.1v-0.2c0.1-0.9,0.2-1.9,0.5-2.7
			c0.4-1.7,1.2-3.3,2.1-4.7c0.2-0.4,0.5-0.7,0.7-1.1c0.3-0.3,0.5-0.7,0.8-1c0.1-0.2,0.3-0.3,0.4-0.5l0.4-0.4
			c0.3-0.3,0.6-0.6,0.9-0.9c1.2-1.1,2.6-1.9,4-2.6s2.9-1.1,4.3-1.4c0.4-0.1,0.7-0.1,1.1-0.2c0.4,0,0.7,0,1.1-0.1h0.3h0.1l0,0h0.1
			h0.1h0.5c0.3,0,0.6,0,1,0.1c0.4,0,0.7,0.1,1.1,0.1c1,0.4-0.8,2-1.2,1.9c-0.3-0.1-0.6-0.1-0.9-0.1h-0.5l0,0l0,0h-0.1h-0.2
			c-0.3,0-0.6,0-0.9,0.1c-0.3,0.1-0.6,0.1-0.9,0.2c-0.3,0.1-0.6,0.2-0.9,0.3c-0.3,0.1-0.6,0.2-0.8,0.4c-0.3,0.1-0.5,0.3-0.8,0.5
			c-0.2,0.2-0.5,0.4-0.7,0.6c-0.9,0.8-1.8,1.8-2.4,2.9c-0.6,1.1-1.1,2.3-1.4,3.5c-0.3,1.2-0.5,2.4-0.6,3.6c-0.1,0.6-0.1,1.2-0.1,1.7
			v0.1v0.1v0.3v0.6v0.6L515.6,514.8L515.6,514.8z M554,505v0.9v2.4v0.1v6.6c0,0,0,0,0,0.1l0.3,6.6c0.1,1.9,0.5,3.5,1.2,4.8
			c0.5,0.9,1.3,1.7,2.2,2.2c1.4,0.7,2.8,1.1,4.1,1.1c1.6,0,3.1-0.2,4.5-0.7c0.8-0.2,1.6-0.6,2.3-1.2c0.7-0.6,1.2-1.1,1.5-1.5
			c0.6-1,1-1.9,1.2-2.7c0.3-1.2,0.5-3,0.5-5.4c0-4.3,0-9.1-0.5-14.4l-0.1-1.4c-0.1-1-0.2-1.7-0.5-2.1c-0.5-0.5-1.1-0.8-1.8-0.8
			c0,0-2.1,0.1-2.2,0.1c-0.2,0-0.2-0.1-0.3-0.3c-0.1-0.2-0.1-1-0.1-1c0-0.5,0.4-0.9,0.9-0.9h1.1l4.8,0.2c1.6,0,3.4-0.1,4.8-0.2
			c0,0,0.3,0,0.5,0.1c0.1,0.1,0.1,0.9,0.1,1.2l0,0c0,0.4-0.3,0.8-0.7,0.8c-0.4,0.1-0.9,0.1-1.3,0.2c0,0,0,0-0.1,0
			c-1.1,0.2-1.5,0.3-1.6,0.4c-0.2,0.2-0.3,0.5-0.3,1c0,0.3-0.2,8.8-0.1,10.1l0.1,5.4c0,3.6-0.1,6-0.3,7.2s-0.5,2.2-0.9,2.9
			c-0.6,1.1-1.5,2-2.6,2.9s-2.5,1.6-4.2,2.1s-3.7,0.8-5.9,0.8c-2.6,0-4.8-0.4-6.6-1.1c-1.8-0.7-3.2-1.7-4.2-2.9
			c-0.9-1.2-1.6-2.7-1.9-4.6c-0.2-1.3-0.4-3.2-0.4-5.6v-12.6c0-3-0.1-4.7-0.4-5c-0.4-0.5-1.5-0.9-3.4-0.9c-0.1,0-0.1,0-0.2,0
			c-0.5,0-0.9-0.4-0.9-0.9v-0.4c0-0.5,0.4-0.9,0.9-0.9c0.8,0,1.7,0,2.6,0.1c2.2,0.1,3.5,0.2,3.9,0.2c1.3,0,2.6,0,3.9-0.1
			c1.3-0.1,2.4-0.1,3.4-0.1s1.7-0.1,1.9,0c0.1,0.1,0.1,0.3,0.1,0.3v1.3c0,0,0,0.4-0.2,0.5s-1.7,0.1-2.7,0.1c-0.9,0-1.5,0.2-1.8,0.6
			c-0.2,0.2-0.3,1.3-0.3,3.1C554,504.2,554,504.6,554,505z M586.8,507.6c1,1,3.1,2,6.4,3c1.1,0.3,2.4,0.8,3.9,1.5
			c1.5,0.7,2.7,1.5,3.5,2.3c1.1,1.1,1.8,2.1,2.2,3.2c0.4,1,0.6,2.3,0.6,3.8c0,1.7-0.3,3.3-0.9,4.9c-0.3,0.8-0.9,1.6-1.6,2.4
			c-0.5,0.5-1.4,1.1-2.5,1.9c-1.1,0.7-2.3,1.2-3.5,1.5s-2.7,0.5-4.6,0.5c-1.2,0-2.7-0.2-4.4-0.5h-0.1l-3.2-0.9
			c-0.9-0.2-1.5-0.5-1.7-0.7c-0.1-0.1-0.2-0.3-0.2-0.5s0-1.7-0.1-3.9c0-1.1-0.1-2-0.1-2.4c0-0.6,0.5-1,1-1h0.8c0.4,0,0.8,0.2,1,0.6
			c0.7,1.6,1.2,2.6,1.4,2.9c0.6,0.9,1.2,1.6,1.8,2.2c0.7,0.6,1.5,1,2.4,1.3s1.9,0.5,3,0.5c1,0,2-0.2,3.2-0.6c1.2-0.4,2.1-1.1,2.8-2
			s1.1-1.9,1.1-3c0-1.3-0.6-2.5-1.8-3.6c-0.7-0.7-2.8-1.6-6-2.7c-3.3-1.1-5.6-2.2-6.8-3.1c-1.3-0.9-2.3-2.1-3-3.6
			c-0.7-1.5-1.1-3-1.1-4.3c0-2.8,1-5.2,3-7.1c2-2,5-2.9,9-2.9c0.9,0,2.1,0.1,3.8,0.4c0.8,0.1,1.8,0.4,2.9,0.8
			c0.7,0.2,1.2,0.8,1.4,1.5c0.1,0.4,0.1,1,0.2,1.5c0.2,1.8,0.3,3.2,0.3,4.2c0,0.3,0,0.8-0.2,0.9c-0.2,0.2-0.7,0.1-0.7,0.1l-1-0.1
			c-0.5,0-0.8-0.3-1-0.8c0,0,0,0,0-0.1c-0.3-1-1.3-3.2-2.1-4c-1.4-1.4-2.9-2.1-4.8-2.1c-1.7,0-3.1,0.5-4.2,1.4c-1,0.9-1.5,2-1.5,3.4
			C585.3,505.5,585.8,506.6,586.8,507.6z M617.8,503.3L617.8,503.3c0,2.3,0,6,0,9.7c0.7,0,1.5,0.1,2.2,0.2c0.4,0.1,0.8,0.1,1.2,0.2
			c0.4,0.1,0.8,0.1,1.1,0.2c0.8,0.1,1.5,0.2,2.2,0.4c0.7,0.1,1.4,0.2,2,0.2s1.2,0.1,1.6,0c0.5,0,0.9-0.1,1.3-0.3
			c0.4-0.1,0.8-0.4,1.1-0.5c0.3-0.2,0.6-0.4,0.7-0.5c0.2-0.1,0.3-0.2,0.3-0.2l0.4,0.3c0,0,0,0.1-0.1,0.3s-0.2,0.5-0.3,0.9
			c-0.2,0.4-0.4,0.8-0.8,1.3c-0.4,0.5-1,1-1.6,1.4c-0.7,0.4-1.5,0.6-2.3,0.8s-1.7,0.3-2.5,0.3s-1.7,0-2.6-0.1
			c-0.4,0-0.9-0.1-1.3-0.1c-0.4-0.1-0.8-0.1-1.2-0.2c-0.5-0.1-1-0.1-1.5-0.2c0,3.3,0,6.1,0,7.3c0,3.7,1.3,4.4,1.3,4.4
			c14.5,0.5,15.7-0.4,18.1-6c0.3-0.6,0.7-0.6,1.2-0.5c0.4,0.1,0.6,0.4,0.6,0.8c0,0.7-0.7,3.3-0.9,5.2c-0.3,3.1-3.1,3.8-6.1,3.3
			c-2.9-0.5-20.1,0.2-22.4,0c-1.5-0.1-3.8,0.2-3.7-0.3c0.1-0.4-0.2-1.4,0.5-1.6c0.6-0.2,2.2-0.3,2.5-0.4c2.1-0.5,2-4.4,2-4.4v-7.6
			c-0.9,0.2-1.7,0.5-2.3,0.8c-0.3,0.1-0.6,0.3-0.7,0.4c-0.1,0-0.2,0.1-0.2,0.1h-0.1l-0.4-0.3c0,0,0,0,0-0.1s0-0.1,0.1-0.2
			c0.1-0.2,0.2-0.5,0.4-0.8c0.4-0.7,1.2-1.6,2.3-2.5c0.3-0.2,0.5-0.4,0.8-0.5v-10.3c0-0.7-0.1-1.3-0.4-1.9c-0.1-0.2-0.2-0.4-0.2-0.4
			c-0.3-0.4-0.8-0.8-1.2-1s-1.1-0.3-2.2-0.4h-0.4c-0.4,0-0.7-0.4-0.7-0.8V499c0-0.4,0.4-0.8,0.8-0.8c0.4,0,0.7,0,0.8,0
			c2,0.2,4.7,0.4,8.1,0.4c0.4,0,1.3,0,2.6-0.1c0.7-0.1,7.8-0.6,10.8-0.6c3.8,0,5.8-0.7,6.4,1.8c1.1,4.9,0.7,6.4-0.4,6.5
			c-2,0.1-0.9-3.9-6.5-4.8c-3.3-0.5-6.1-0.6-8.2-0.6c-0.1,0-0.1,0-0.2,0c-0.7,0.2-1.3,0.5-1.6,0.8c-0.2,0.2-0.5,0.4-0.5,0.7
			c0,0.1-0.1,0.5-0.1,0.8C617.8,503.1,617.8,503.2,617.8,503.3L617.8,503.3z M276.4,488c-0.3,0-0.6-0.1-0.8-0.4
			c-0.3-0.4-0.9-0.6-0.8-0.9c0,0,0-0.1,0.2-0.1c8.9,0.1,380.6,0,393.8,0c0.2,0,0.3,0,0.4,0.1c0,0.1,0,0.2-0.1,0.3
			c-0.4,0.3-0.5,0.4-0.8,0.7c-0.2,0.2-0.5,0.3-0.8,0.3H276.4z M270.9,484.3c-0.7-0.6-1.5-1.1-2.3-1.5c-0.6-0.3-0.4-1.3,0.3-1.3
			h406.2c0.7,0,0.9,0.9,0.2,1.2c-0.9,0.4-1.7,0.8-2.6,1.3c-0.3,0.2-0.7,0.3-1,0.3H270.9z M298.3,399c2.2-0.2,3.8-0.3,4.9-0.5h0.1h2
			c0.6,0,1,0.5,1,1v1.3c0,0.5-0.4,1-0.9,1c-2.6,0.4-4.1,0.6-4.6,0.7c-1.6,0.4-2.8,1.1-3.5,1.8c-0.5,0.5-0.7,1.1-0.7,1.7
			c0,0.3,0,1.4,0.1,2c0,0.2,0.1,0.4,0.1,0.5l1.6,4.4c1.2,3.6,3.2,8.5,5.9,14.5l5.8,13.5c0.5,1.3,1.1,2.5,1.6,3.8
			c0.3,0.8,1.1,1.3,2,1.3s1.6-0.5,2-1.3l1.5-3.8l6-17.3l1.4-3.6v-0.1c0.2-0.5,0.4-1.2,0.6-2.2c0.9-3.1,1.6-5.4,2.2-7s0.9-4,0.9-5.2
			c0-0.8-0.4-1.6-1.2-2.2c-1.1-0.8-2.7-1.4-5-1.6c-0.5-0.1-1.2-0.3-2-0.4c-0.4,0-0.7-0.1-1-0.1c-0.4-0.1-0.8-0.4-0.8-0.9
			c0-0.1,0-0.3,0-0.4c0-0.2,0-0.5,0-0.8c0-0.6,0.6-1,1.1-1c0.9,0.1,2.1,0.2,3.7,0.3c2.9,0.3,5.7,0.4,8.5,0.4s5.3-0.1,7.3-0.4
			c1.2-0.2,2.2-0.3,3.1-0.3c0.3,0,0.6,0.1,0.8,0.3c0.2,0.2,0.3,0.5,0.3,0.8c0,0.2,0,0.5,0,0.8c0,0.4-0.3,0.8-0.7,0.9
			c-3.8,1.5-6.1,2.5-6.8,3c-0.5,0.4-1,1-1.5,1.9c-1,1.8-2.4,5.6-4.1,10.4c-0.6,1.5-1.2,3.2-1.8,4.9l-6.5,17.3
			c-0.6,1.7-1.3,3.4-2,5.3c-0.5,1.4-4.3,11.9-6.5,18.1c-0.9,2.4-1.5,4.2-1.7,4.8c-0.1,0.2-0.3,0.3-0.5,0.4c-0.9,0-1.5,0.1-1.8,0.1
			c-0.4,0-0.9,0-1.6,0c-0.4,0-0.8-0.3-0.9-0.7c-0.3-0.7-0.5-1.5-0.8-2.2c-0.4-1.1-1.8-4.9-4.3-11.4l-9.6-22.2l-5.7-14.3
			c-2-4.3-3.3-7.8-4.1-9.7c-0.5-1.2-0.6-1.6-0.8-1.8c-0.6-0.9-1.3-1.6-2.1-2.1c-0.8-0.4-2.3-0.7-4.6-1l-0.8-0.1
			c-0.5-0.1-0.9-0.5-0.9-1v-1.5c0-0.3,0.1-0.5,0.3-0.7c0.2-0.2,0.5-0.3,0.7-0.3l0,0c0.8,0,1.3,0,1.5,0.1c4.1,0.5,9.7,0.7,16.4,0.7
			C293.1,399.3,295.1,399.2,298.3,399z M306.1,342.1c7.8-1.2,14.9,3.4,16,10.2c1.1,6.8-4.4,13.4-12.2,14.6
			c-7.8,1.2-14.9-3.4-16-10.2S298.3,343.3,306.1,342.1z M355.2,433v0.5c0.1,5,0.5,10.1,2,15c0.2,0.6,0.3,1.2,0.6,1.8l0.7,1.8
			c0.5,1.1,1,2.4,1.7,3.4c0.6,1.2,1.4,2.1,2.2,3.2c0.9,0.9,1.7,1.9,2.7,2.6c1,0.8,2.1,1.4,3.2,2c1.1,0.5,2.3,1,3.4,1.2
			c1,0.4,2.5,0.4,3.8,0.5c0.6,0,1.1-0.1,1.7-0.1c0.3,0,0.6,0,0.9-0.1l0.9-0.2c2.3-0.4,4.3-1.5,6.1-2.7c0.9-0.7,1.7-1.3,2.4-2.1
			c0.4-0.4,0.7-0.7,1.1-1.1c0.3-0.4,0.6-0.8,0.9-1.2c2.3-3.3,3.6-6.7,4.4-9.7c0.2-0.7,0.4-1.5,0.5-2.2c0.2-0.7,0.3-1.4,0.4-2.1
			s0.2-1.3,0.3-1.9c0.1-0.6,0.1-1.2,0.2-1.7c0.2-1.1,0.2-2,0.2-2.8c0-0.4,0.1-0.7,0.1-1.1s0-0.8,0-1.2c0-1,0-1.6,0.1-1.9
			c0-0.1,0-0.7-0.1-1.8c0-0.6,0-1.3-0.1-2.2c-0.1-0.8-0.1-1.8-0.2-2.9c-0.1-0.5-0.1-1.1-0.2-1.7s-0.2-1.2-0.3-1.9
			c-0.1-0.7-0.2-1.3-0.4-2c0-0.2-0.7-2.7-0.7-2.9c0,1.6-2.3,4.1-4.2,4.1c-3.9,0-7-3.2-7.1-7.1c0-4.1,4.3-6.7,4.3-6.7
			c2.2-1.3,6.7-1.9,10.6-0.3c2.8,1.1,5.4,4.3,6.5,5.9c2.3,3.6,3.8,7.1,4.5,10.1c0.5,1.5,0.6,2.8,0.8,4c0.1,0.6,0.2,1.1,0.2,1.6
			s0.1,1,0.1,1.4c0.1,1.6,0.1,2.5,0.1,2.5v0.3c0,0,0,0.7-0.1,2.2c0,0.4,0,0.7-0.1,1.2c0,0.5-0.2,1.1-0.2,1.7
			c-0.2,1.2-0.4,2.7-0.8,4.2c-0.2,0.7-0.4,1.5-0.7,2.3c-0.3,0.8-0.6,1.6-1,2.5c-0.3,0.9-0.8,1.7-1.2,2.6c-0.5,0.9-0.9,1.8-1.5,2.7
			c-2.3,3.6-5.4,7.2-9.6,10.2c-0.5,0.4-1,0.7-1.6,1.1c-0.6,0.3-1.1,0.7-1.7,1c-1.1,0.7-2.4,1.2-3.5,1.8c-2.5,1-5.1,1.9-8,2.3l-1,0.2
			c-0.4,0-0.7,0-1.1,0.1l-1.1,0.1h-0.5h-0.3h-0.1c0.1,0-0.2,0-0.2,0h-0.1c-1.3-0.1-2.6-0.1-4.2-0.4c-1.6-0.2-3-0.6-4.5-1
			c-1.4-0.5-2.9-1-4.3-1.7c-1.5-0.6-2.8-1.5-4.2-2.3c-1.3-0.9-2.7-1.8-3.9-3c-1.3-1-2.4-2.3-3.6-3.5c-0.5-0.6-1.1-1.3-1.6-2
			c-0.6-0.7-1-1.4-1.5-2.1c-2-2.8-3.4-6-4.5-9.3c-0.5-1.7-1-3.3-1.2-5.1c-0.3-1.7-0.4-3.5-0.5-5.2v-0.7V433v-0.4v-0.3l0.1-1.1
			l0.1-1.1v-0.6v-0.3l0.1-0.3c0.3-1.8,0.5-3.8,1-5.4c0.8-3.4,2.4-6.6,4.2-9.5c0.5-0.7,1-1.4,1.5-2.1s1.1-1.3,1.6-2
			c0.3-0.3,0.5-0.7,0.8-1l0.9-0.9c0.6-0.6,1.2-1.2,1.8-1.7c2.5-2.2,5.3-3.9,8.1-5.3c2.8-1.4,5.8-2.2,8.7-2.8
			c0.7-0.1,1.5-0.2,2.2-0.3c0.7,0,1.5-0.1,2.2-0.1h0.5h0.3h0.1h0.2h0.1l1,0.1c0.7,0.1,1.3,0,2,0.1s1.4,0.2,2.2,0.3
			c2,0.9-1.6,4.1-2.5,3.9c-0.5-0.1-1.3-0.1-1.9-0.2l-1-0.1h-0.1l0,0h-0.2h-0.4c-0.6,0-1.2,0.1-1.8,0.1c-0.6,0.1-1.2,0.3-1.8,0.4
			c-0.6,0.1-1.2,0.4-1.8,0.6c-0.6,0.2-1.2,0.4-1.7,0.8c-0.5,0.3-1.1,0.6-1.6,0.9c-0.5,0.4-1,0.8-1.5,1.1c-1.9,1.6-3.6,3.6-4.8,5.8
			c-1.2,2.2-2.2,4.6-2.8,7c-0.6,2.5-1.1,4.9-1.3,7.4c-0.2,1.3-0.2,2.3-0.3,3.5v0.2v0.3v0.6v1.1v1.1L355.2,433L355.2,433z
			 M438.3,409.4L438.3,409.4c0,11.3,0,37.7,0,43.6c0,7.5,2.6,9,2.6,9c29.3,1,31.9-0.8,36.6-12.2c0.5-1.3,1.4-1.3,2.4-1
			c0.7,0.2,1.2,0.9,1.2,1.7c-0.1,1.4-1.5,6.6-1.8,10.6c-0.5,6.2-6.3,7.7-12.3,6.7s-40.7,0.4-45.3,0.1c-3-0.2-7.6,0.4-7.4-0.6
			c0.2-0.9-0.4-2.8,0.9-3.2c1.3-0.3,4.5-0.6,5-0.7c4.2-1,4.1-8.9,4.1-8.9v-42.9c0-1.3-0.3-2.7-0.8-3.9c-0.2-0.5-0.3-0.8-0.4-0.9
			c-0.6-0.9-1.7-1.6-2.4-2c-0.7-0.4-2.2-0.7-4.4-0.9l-0.8-0.1c-0.8-0.1-1.4-0.8-1.4-1.6v-1.5c0-0.9,0.7-1.6,1.6-1.6
			c0.8,0,1.3,0,1.6,0.1c4.2,0.5,19,0.6,21.6,0.5c1.5-0.1,3.1-0.3,4.8-0.4c0.4,0,0.7-0.1,1-0.1c0.1,0,0.1,0,0.2,0h0.7
			c4.7-0.4,1.7,5.1-2.6,5.1c-0.2,0-0.3,0.1-0.4,0.1c-1.5,0.4-2.6,1-3.3,1.7c-0.4,0.4-1,0.8-1,1.4c0,0.3-0.1,1-0.2,1.6
			c0,0.1,0,0.3,0,0.4C438.2,409.3,438.3,409.3,438.3,409.4z M501.4,413.4l0.1,1.9l-0.1,4.9c0,0.1,0,0.1,0,0.2l0.1,13.4v0.1l0.7,13.4
			c0.2,3.9,1,7.1,2.4,9.7c1.1,1.9,2.6,3.4,4.6,4.4c2.8,1.5,5.6,2.2,8.4,2.2c3.2,0,6.3-0.4,9.1-1.3c1.7-0.5,3.2-1.3,4.7-2.4
			s2.5-2.1,3.1-3.1c1.2-2,2.1-3.8,2.5-5.5c0.6-2.4,1-6,1-11c0-8.6,0-18.3-0.9-29.1l-0.2-2.8c-0.1-2.1-0.5-3.5-1.1-4.2
			c-1.1-1.1-2.3-1.7-3.6-1.7c0,0-4.2,0.2-4.6,0.1c-0.3-0.1-0.5-0.1-0.7-0.5c-0.3-0.5-0.1-2-0.1-2c0-1,0.8-1.8,1.8-1.8h2.2l9.7,0.5
			c3.2,0,6.8-0.2,9.8-0.5c0,0,0.7,0,0.9,0.2s0.3,1.9,0.3,2.3l0,0c0,0.8-0.6,1.5-1.4,1.7c-0.9,0.2-1.8,0.3-2.7,0.3h-0.1
			c-2.2,0.3-3,0.6-3.3,0.8c-0.5,0.4-0.7,1.1-0.7,2c0,0.6-0.3,17.7-0.3,20.4l0.1,10.9c0,7.3-0.2,12.1-0.7,14.6s-1.1,4.4-1.9,5.8
			c-1.2,2.1-3,4.1-5.3,5.9s-5.2,3.2-8.6,4.3c-3.4,1.1-7.5,1.6-12,1.6c-5.2,0-9.7-0.7-13.5-2.2c-3.7-1.5-6.6-3.4-8.5-5.8
			s-3.2-5.5-3.9-9.4c-0.5-2.6-0.8-6.4-0.8-11.3v-25.5c0-6-0.3-9.4-0.8-10.2c-0.7-1.1-3.1-1.7-6.9-1.9c-0.1,0-0.3,0-0.4,0
			c-1,0-1.8-0.8-1.8-1.8v-0.8c0-1,0.8-1.9,1.8-1.9c1.7,0,3.5,0.1,5.3,0.2c4.5,0.3,7.1,0.4,7.9,0.4c2.7,0,5.3-0.1,7.9-0.2
			s4.9-0.2,6.9-0.2s3.5-0.1,3.8,0c0.2,0.1,0.3,0.5,0.3,0.5l0.1,2.6c0,0-0.1,0.8-0.4,1.1c-0.4,0.3-3.4,0.3-5.4,0.3
			c-1.9,0-3.1,0.4-3.7,1.2c-0.4,0.5-0.6,2.6-0.6,6.4C501.4,411.8,501.4,412.7,501.4,413.4z M622.4,315.3c0.4,8.2-4.1,13.1-7.7,13.4
			c-3.6,0.3-11.8-4.2-10.6-11.8c0,0-7.1,10.6-6.7,15c0,0.1-0.1,0.2-0.2,0.2l-7.8-5c-0.1-0.1-0.1-0.2,0-0.3
			c4.1-1.4,10.9-12.2,10.9-12.2c-6.5,4.2-13.9-1.4-15.1-4.8c-1.2-3.4,2.1-9.9,9.6-12.5c3.8-1.3,6.9-2.5,11.3-4.5
			c8-3.8,16.4-8.4,16.4-8.4s-0.2,9.2-0.3,18.5C622.1,306.9,622.3,312.2,622.4,315.3z M600.3,400.2c13.7,0.3,16.5-3.6,18.7-3.1
			c1.8,0.4,3,3.6,3.5,5.9c2.2,10,1.5,13-0.8,13.1c-4,0.1-1.8-7.9-13.2-9.7c-3-0.5-8.2-1-8.2-1h-1.1c-1,0-1.8,0.8-1.8,1.8
			c0,11.4,0.2,41.1,0.2,50.9l0,0v0.1c0,0.1,0,0.3,0,0.4c0,0.6,0.2,1.3,0.2,1.6c0,0.5,0.6,1,1,1.4c0.7,0.7,1.8,1.3,3.3,1.7
			c0.1,0,0.2,0,0.4,0.1c1.6,0,3.3,0,4.1,0.5c1.2,1.2,1.6,4.8-1.6,4.6h-0.7c-0.1,0-0.1,0-0.2,0c-0.3,0-0.6-0.1-1-0.1
			c-1.7-0.1-3.3-0.3-4.8-0.4c-2.6-0.2-4.4-0.3-5.3-0.3c-6.7,0-12.2,0.2-16.3,0.7c-0.3,0-1,0.1-2,0.1c-0.6,0-1.2-0.5-1.2-1.1V465
			c0-0.6,0.4-1.1,1-1.1l1.2-0.1c2.2-0.2,3.7-0.5,4.4-0.9s1.8-1.1,2.4-2c0.1-0.1,0.2-0.4,0.4-1c0.5-1.2,0.7-2.5,0.7-3.8l-0.2-48.9
			c0-1-0.8-1.8-1.8-1.8h-5.9c-10,1.1-12.3,4.4-15.5,12c-0.5,1.3-1.4,1.3-2.4,1c-0.7-0.2-1.2-0.9-1.2-1.7c0.1-1.4,1.5-6.6,1.8-10.6
			c0.2-2.7,1.6-8.9,3.4-10c2.3-1.4,5.6,2.2,8.8,3.3c3.7,1.2,7.7,0.7,7.7,0.7h22L600.3,400.2L600.3,400.2z M637,403.5
			c-0.5-0.1-3.7-0.4-5-0.7c-1.3-0.3-1.1-2.3-0.5-3.2c0.6-0.9,29-0.2,29-0.2s4-0.1,4.1,2.6c0.1,1.3-1,2.4-2.2,2.4
			c-0.9,0-2,0.1-3.4,0.2c-1.1,0.1-2,0.7-2.5,1.7c-0.7,1.3-1.4,3.6-1.4,7.5c0,5.9,0,33.3,0,44.6v0.1c0,0.1,0,0.3,0,0.4
			c0,0.6,0.2,1.3,0.2,1.6c0,0.5,0.6,1,1,1.4c0.7,0.7,1.8,1.3,3.3,1.7c0.1,0,0.2,0,0.4,0.1c1.6,0,3.3,0,4.1,0.5
			c1.2,1.2,1.6,4.8-1.6,4.6h-0.7c-0.1,0-0.1,0-0.2,0c-0.3,0-0.6-0.1-1-0.1c-1.7-0.1-3.3-0.3-4.8-0.4c-2.6-0.2-4.4-0.3-5.3-0.3
			c-6.7,0-12.2,0.2-16.3,0.7c-0.3,0-1,0.1-2,0.1c-0.6,0-1.2-0.5-1.2-1.1v-2.3c0-0.6,0.4-1.1,1-1.1l1.2-0.1c2.2-0.2,3.7-0.5,4.4-0.9
			s1.8-1.1,2.4-2c0.1-0.1,0.2-0.4,0.4-1c0.5-1.2,0.7-2.5,0.7-3.8v-44C641.1,412.5,641.2,404.5,637,403.5z M715.1,256.6
			c0.2,4.2-2.1,6.7-3.9,6.8c-1.9,0.2-6-2.1-5.4-6c0,0-3.6,5.4-3.4,7.7c0,0.1-0.1,0.1-0.1,0.1l-4-2.6c-0.1,0,0-0.1,0-0.1
			c2.1-0.7,5.6-6.3,5.6-6.3c-3.3,2.1-7.1-0.7-7.7-2.5c-0.6-1.8,1.1-5,4.9-6.4c1.9-0.7,3.6-1.3,5.8-2.3c4.1-1.9,8.4-4.3,8.4-4.3
			s-0.1,4.7-0.1,9.5C715,252.3,715,255,715.1,256.6z M252.3,331.4c-7.8,1.2-14.9-3.4-16-10.2c-1.1-6.8,4.4-13.4,12.2-14.6
			c7.8-1.2,14.9,3.4,16,10.2S260.1,330.2,252.3,331.4z M204.4,401c0-0.9,0.7-1.6,1.6-1.6c0.8,0,1.3,0,1.6,0.1
			c4.1,0.5,9.6,0.7,16.3,0.7c0.9,0,2.7-0.1,5.3-0.3c1.5-0.1,15.7-1.2,21.9-1.3c7.7-0.1,11.8-1.5,12.9,3.6c2.2,10,1.5,13-0.8,13.1
			c-4,0.1-1.8-7.9-13.2-9.7c-6.8-1.1-12.4-1.2-16.7-1.2c-0.2,0-0.3,0.1-0.4,0.1c-1.5,0.4-2.6,1-3.3,1.7c-0.4,0.4-1,0.8-1,1.4
			c0,0.3-0.1,1-0.2,1.6c0,0.1,0,0.3,0,0.4s0,0.1,0,0.1l0,0c0,4.8,0,12.2,0,19.7c1.5,0,3,0.1,4.4,0.4c0.9,0.1,1.7,0.3,2.5,0.4
			s1.6,0.3,2.3,0.4c1.5,0.2,3,0.5,4.5,0.7c1.4,0.2,2.8,0.4,4,0.5s2.4,0.1,3.3,0.1c1-0.1,1.8-0.3,2.6-0.6c0.8-0.3,1.5-0.7,2.2-1.1
			c0.6-0.4,1.2-0.7,1.5-0.9c0.4-0.2,0.6-0.3,0.6-0.3c0.3-0.1,0.6,0,0.8,0.2c0.1,0.1,0.1,0.3,0.1,0.4c0,0-0.1,0.2-0.2,0.6
			s-0.3,1-0.6,1.7c-0.3,0.7-0.8,1.7-1.6,2.7s-1.9,2-3.3,2.8c-1.4,0.8-3,1.3-4.6,1.7c-1.6,0.4-3.3,0.5-5.1,0.6
			c-1.7,0.1-3.5,0-5.2-0.1c-0.9-0.1-1.7-0.2-2.6-0.3c-0.9-0.1-1.7-0.2-2.5-0.4c-1-0.2-2-0.3-3-0.4c0,6.7,0,12.4,0,14.8
			c0,7.5,2.6,9,2.6,9c29.3,1,31.9-0.8,36.6-12.2c0.5-1.3,1.4-1.3,2.4-1c0.7,0.2,1.2,0.9,1.2,1.7c-0.1,1.4-1.5,6.6-1.8,10.6
			c-0.5,6.2-6.3,7.7-12.3,6.7s-40.7,0.4-45.3,0.1c-3-0.2-7.6,0.4-7.4-0.6c0.2-0.9-0.4-2.8,0.9-3.2c1.3-0.3,4.5-0.6,5-0.7
			c4.2-1,4.1-8.9,4.1-8.9v-15.5c-1.8,0.5-3.4,1.1-4.6,1.6c-0.6,0.3-1.2,0.5-1.5,0.7c-0.2,0.1-0.3,0.2-0.4,0.2
			c-0.1,0-0.1,0.1-0.1,0.1c-0.3,0.2-0.6,0.1-0.8-0.2c-0.1-0.1-0.1-0.3-0.1-0.4c0,0,0-0.1,0.1-0.2c0-0.1,0.1-0.3,0.2-0.5
			c0.2-0.4,0.4-1,0.9-1.7c0.8-1.4,2.4-3.3,4.7-5c0.5-0.4,1.1-0.7,1.7-1.1v-21c0-1.3-0.3-2.7-0.8-3.9c-0.2-0.5-0.3-0.8-0.4-0.9
			c-0.6-0.9-1.7-1.6-2.4-2s-2.2-0.7-4.4-0.9l-0.8-0.1c-0.8-0.1-1.4-0.8-1.4-1.6L204.4,401L204.4,401z M226.8,533.3
			c-7-0.3-14.2-1.9-21-5s-13.1-7.8-18.3-13.3s-9.4-11.8-12.8-18.3c-3.4-6.5-5.8-13.2-7.8-19.7c-0.2-0.8-0.5-1.6-0.7-2.4
			c-0.2-0.6-0.4-1.2-0.6-1.8c-0.4-1.1-0.9-2.2-1.4-3.2c-1.1-2-2.3-3.7-3.8-5.1c-2.9-2.8-6.7-4.7-10.8-5.9c-4.1-1.2-8.3-1.6-12.1-1.8
			c-2.7-0.1-5.2-0.2-7.4-0.2c0,10.7,0,19.9,0,24.5c0.4,6,2.8,7.9,5.4,8.1c1.6,0.1,3,1.1,3.7,2.6c0.6,1.5,0.4,3.2-1.8,4l-0.9,0.4
			c-0.1,0-0.2,0.1-0.3,0.1c-0.4,0.1-3.7,1.7-4.8,2.2c-8.4,3.9-17.9,8.9-19.2,9.5c-0.8,0.4-1.7,0.1-2.1-0.7l-1.3-2.9
			c-0.3-0.7-0.1-1.6,0.6-2l1.4-0.9c4-2.3,3.5-4,3.7-5.4c0-0.1,0.2-2.2,0.2-3.4l-0.1-82.1c0-2.8-1-10.4-5.2-10.3c-1.5,0-3-1-3.6-2.4
			c-0.6-1.5-0.4-3.2,1.8-4.1l0.9-0.4c0.1,0,0.2-0.1,0.3-0.1c0.4-0.1,3.7-1.7,4.8-2.2c8.4-3.9,17.9-8.9,19.2-9.5
			c0.8-0.4,1.7-0.1,2.1,0.7l1.3,2.9c0.3,0.7,0.1,1.6-0.6,2l-1.4,0.9c-2.7,1.6-3.5,4-3.7,5.4c0,0.1-0.2,2.8-0.2,4.1
			c0,8.7,0,27.5-0.1,45.3c1.6-0.1,3.5-0.3,5.6-0.6c1.8-0.2,3.9-0.5,6-0.9c2.2-0.4,4.5-0.9,6.9-1.5c4.8-1.3,10.1-3.1,14.7-6.1
			c4.7-3,8.6-7.3,10.8-12.9c0.5-1.4,1-2.8,1.4-4.3s0.6-3.1,0.9-4.7c0.2-1.6,0.4-3.3,0.5-5.1c0-0.4,0-0.9,0.1-1.3v-0.7v-0.3v-0.2
			v-0.1c0,0.3,0,0,0,0.1v-1.6c0-0.3,0-0.5,0-0.7v-0.6c-0.2-6.8-1.8-13.8-5.8-19.9c-3.9-6.1-10.4-11-17.7-14.2
			c-3.7-1.6-7.6-2.8-11.6-3.7c-4-0.9-8.1-1.4-12.3-1.6c-8.3-0.4-16.5,0.4-24.3,2.4c-1.9,0.5-3.8,1.1-5.7,1.7
			c-1.9,0.6-3.7,1.3-5.4,2.1c-3.4,1.5-6.6,3.4-9.3,5.6c-5.6,4.4-9.8,10-12.4,15.7s-3.7,11.5-3.7,16.6s1.2,9.4,3.1,12.2
			c0.4,0.6,0.8,1.1,1.2,1.6c0.3-3.9,3.9-6.9,8.3-6.9c4.6,0,8.3,3.3,8.3,7.4s-3.7,7.4-8.3,7.4c-0.5,0-1,0-1.4-0.1c-0.2,0-0.4,0-0.8,0
			c-0.6-0.1-1.6-0.1-2.8-0.5c-1.2-0.3-2.6-0.9-4.1-1.9s-2.9-2.5-4.2-4.3c-2.5-3.7-4-8.8-4.3-14.6c-0.2-5.8,0.8-12.4,3.5-19
			c2.7-6.6,7-13.2,13.3-18.6c3.1-2.7,6.6-5.1,10.5-7.1c2-1,3.9-1.8,5.9-2.6c2-0.8,4-1.6,6.1-2.2c8.3-2.7,17.3-4.6,26.6-4.9
			c9.3-0.4,19,0.8,28.3,4.1c9.3,3.2,18.2,8.8,24.9,16.7c3.4,3.9,6.1,8.4,8.1,13.2c1,2.4,1.7,4.8,2.3,7.3s0.9,4.9,1.1,7.4l0.1,1
			c0,0.3,0,0.7,0.1,0.9l0.1,1.6v1.9c0,0.6,0,1.2-0.1,1.8c-0.1,2.4-0.4,4.7-0.8,7.1c-0.4,2.3-1.1,4.7-1.8,6.9
			c-0.8,2.2-1.8,4.4-2.9,6.5c-2.3,4.1-5.2,7.8-8.4,10.8s-6.7,5.4-10.2,7.2c-1.6,0.8-3.2,1.6-4.7,2.2c2,1.2,4,2.6,5.8,4.3
			c1.4,1.3,2.7,2.8,3.9,4.4s2.2,3.3,3.1,5.1c0.9,1.8,1.6,3.6,2.2,5.5c0.3,0.9,0.5,1.9,0.8,2.8c0.2,0.7,0.4,1.5,0.5,2.3
			c1.4,5.9,3.3,11.9,5.7,17.7c2.4,5.8,5.4,11.4,9.2,16.3s8.3,9.2,13.6,12.3c5.2,3.2,11.1,5.1,17,5.8s11.9,0.4,17.3-0.8
			c5.5-1.2,10.5-3,14.7-5.4l0.8-0.4l0.2-0.1l0.1-0.1c0,0,0.1-0.1,0,0h0.1l0.4-0.3l0.8-0.5l0.6-0.4c0.9-0.6,1.7-1.3,2.4-2
			c1.5-1.4,2.6-3.1,3.3-4.7c1.5-3.2,1.4-6.5,0.4-8.7c-0.1-0.3-0.3-0.6-0.4-0.9c-0.7,3.2-3.6,5.7-7,5.7c-4,0-7.2-3.2-7.2-7.2
			s3.2-7.2,7.2-7.2c1.1,0,2.1,0.2,3,0.7l0,0c0,0,0.2,0.1,0.7,0.2c0.2,0.1,0.5,0.2,0.8,0.3c0.3,0.1,0.7,0.3,1.1,0.5
			c0.8,0.5,1.9,1.1,2.9,2.1s2.1,2.2,2.8,3.9c0.8,1.6,1.3,3.6,1.4,5.7s-0.3,4.5-1.2,6.7c-0.9,2.3-2.2,4.5-4,6.4
			c-0.9,1-1.8,1.9-2.9,2.8l-0.8,0.7l-0.8,0.6L264,523l-0.5,0.3l-0.9,0.6c-4.7,2.9-10.1,5.3-16.1,7
			C240.4,532.7,233.8,533.7,226.8,533.3z M709.1,547.9H234.9c-0.8,0-1.1-0.9-0.4-1.3c0.9-0.4,1.8-0.9,2.7-1.5h468
			c0.4,0,0.8,0.1,1.2,0.3c1,0.5,2,0.9,3,1.3C710.2,546.9,709.9,547.9,709.1,547.9z M873,484.4c-0.6,2.3-2.1,4.1-3.8,5.4
			s-3.5,2.1-5.4,2.8c-1.9,0.6-3.8,1-5.6,1.2c-0.9,0.1-1.9,0.2-2.8,0.3c-0.9,0.1-1.9,0.1-2.8,0.1c-1.9,0.1-3.8,0.2-5.8,0
			c-3.8-0.3-7.6-1.2-11.1-2.5c-3.6-1.3-7-2.8-10.2-4.6c-0.7-0.4-1.5-0.8-2.2-1.2c-0.1,0-0.1,0.1-0.2,0.1
			c-12.1,7.4-23.8,15.2-35.6,22.1c-11.8,6.9-23.7,13.1-35.7,17.4c-12,4.4-23.9,7.2-35.2,7.9c-2.8,0.2-5.6,0.2-8.3,0.1
			c-2.7-0.1-5.3-0.2-7.8-0.5c-5.1-0.5-9.9-1.5-14.3-3c-4.4-1.5-8.4-3.6-11.6-6.5c-3.2-2.8-5.3-6.5-6-10.1c-0.7-3.6-0.3-6.9,0.7-9.5
			c0.9-2.6,2.3-4.6,3.5-6.1s2.4-2.4,3.2-3c0.4-0.3,0.7-0.5,0.9-0.6s0.3-0.2,0.3-0.2l0,0c0.1-0.1,0.2-0.1,0.3-0.2
			c1.2-1,2.8-1.6,4.5-1.6c3.9,0,7.1,3.2,7.1,7.1s-3.2,7.1-7.1,7.1c-3.2,0-5.8-2.1-6.7-4.9c-0.7,1-1.5,2.3-2,3.9
			c-0.7,2-1,4.5-0.4,7.2c0.6,2.6,2.2,5.3,4.8,7.6c2.6,2.2,6.1,4,10,5.2c4,1.2,8.5,2,13.3,2.3s9.9,0.4,15.1-0.2
			c10.4-1.2,21.4-4.9,32.5-9.8c11.2-4.9,22.7-10.7,34.6-17.1c11.1-5.9,22.5-12.1,34.3-18.2c-3.5-2.3-6.8-4.9-10-7.5
			c-5.4-4.5-10.4-9.3-15-14.2c-4.6-4.9-8.7-10-12.4-15.1c-1.9-2.5-3.7-5-5.5-7.4c-0.9-1.2-1.8-2.4-2.6-3.4c-0.5-0.6-0.9-1.1-1.4-1.7
			s-1.1-1.3-1.5-1.9c-3.6-4.6-7-9.1-10.3-13.4c-1.7-2.2-3.3-4.3-4.8-6.4l0.4,24.8c0,1.1,0.1,2.3,0.1,3.5v3.5v0.1l0.3,6.6
			c0.1,2.8,0.3,5.8,0.6,9c0.1,0.9,0.2,1.5,0.3,1.8c0.1,0.2,0.1,0.4,0.3,0.7c0.2,0.6,0.7,1,1.3,1.1c1.5,0.3,4,0.6,7.5,0.8
			c0.1,0,0.2,0,0.3,0l0,0c0.7,0.2,1.2,0.8,1.2,1.5l0.1,1.1c0.1,1-0.7,1.9-1.8,1.9h-0.1c-1.1,0-4.4-0.3-10.1-0.8c-0.1,0-0.1,0-0.2,0
			c-5.3,0.1-8.9,0.2-10.6,0.3c-1.8,0.1-2.8,0.2-2.9,0.2l0,0c-0.9,0-1.7-0.7-1.8-1.7c0-0.2,0-0.4,0-0.5s0-0.2,0-0.3
			c0-0.9,0.7-1.7,1.7-1.8c0.3,0,0.5,0,0.7,0s0.7,0,1.6,0.1c0.3,0,0.5,0,0.8,0c2.6,0,4.1-0.2,4.6-0.6s0.8-1.6,0.9-3.4
			c0.2-5.4,0.4-8.6,0.4-9.8v-2.8l0.1-16.4l-0.3-25.8c-0.9-1.2-1.8-2.5-2.8-3.5c-1.4-1.6-3-2.9-4.8-3.8l-0.7-0.3l-0.6-0.2l-0.6-0.3
			c-0.2-0.1-0.5-0.1-0.8-0.2l-0.8-0.2h-0.1c0.1,0,0,0,0,0H738l-0.4-0.1c-0.5-0.1-1-0.1-1.5-0.2c-1-0.1-1.9-0.2-2.9-0.3
			c-0.9,0-1.9-0.1-2.8,0c-3.6,0.1-6.9,0.9-9.4,2.4c-2.6,1.4-4.2,3.6-5.2,5.6c-0.8,1.6-1.1,3.1-1.3,4.4c0,0,0,0.1,0,0.3
			c0.3-0.2,0.6-0.4,0.6-0.4c2.2-1.3,6.7-1.9,10.6-0.3c2.8,1.1,5.4,4.3,6.5,5.9c2.3,3.6,3.8,7.1,4.5,10.1c0.5,1.5,0.6,2.8,0.8,4
			c0.1,0.6,0.2,1.1,0.2,1.6s0.1,1,0.1,1.4c0.1,1.6,0.1,2.5,0.1,2.5v0.3c0,0,0,0.7-0.1,2.2c0,0.4,0,0.7-0.1,1.2
			c0,0.5-0.2,1.1-0.2,1.7c-0.2,1.2-0.4,2.7-0.8,4.2c-0.2,0.7-0.4,1.5-0.7,2.3s-0.6,1.6-1,2.5c-0.3,0.9-0.8,1.7-1.2,2.6
			c-0.5,0.9-0.9,1.8-1.5,2.7c-2.3,3.6-5.4,7.2-9.6,10.2c-0.5,0.4-1,0.7-1.6,1.1c-0.6,0.3-1.1,0.7-1.7,1c-1.1,0.7-2.4,1.2-3.5,1.8
			c-2.5,1-5.1,1.9-8,2.3l-1,0.2c-0.4,0-0.7,0-1.1,0.1l-1.1,0.1h-0.5h-0.3h-0.1c0.1,0-0.2,0-0.2,0h-0.1c-1.3-0.1-2.6-0.1-4.2-0.4
			c-1.6-0.2-3-0.6-4.5-1c-1.4-0.5-2.9-1-4.3-1.7c-1.5-0.6-2.8-1.5-4.2-2.3c-1.3-0.9-2.7-1.8-3.9-3c-1.3-1-2.4-2.3-3.6-3.5
			c-0.5-0.6-1.1-1.3-1.6-2c-0.6-0.7-1-1.4-1.5-2.1c-2-2.8-3.4-6-4.5-9.3c-0.5-1.7-1-3.3-1.2-5.1c-0.3-1.7-0.4-3.5-0.5-5.2v-0.7v-0.2
			v-0.4v-0.3l0.1-1.1l0.1-1.1v-0.6v-0.3l0.1-0.3c0.3-1.8,0.5-3.8,1-5.4c0.8-3.4,2.4-6.6,4.2-9.5c0.5-0.7,1-1.4,1.5-2.1
			s1.1-1.3,1.6-2c0.3-0.3,0.5-0.7,0.8-1l0.9-0.9c0.6-0.6,1.2-1.2,1.8-1.7c2.5-2.2,5.3-3.9,8.1-5.3s5.8-2.2,8.7-2.8
			c0.7-0.1,1.5-0.2,2.2-0.3c0.7,0,1.5-0.1,2.2-0.1h0.5h0.3h0.1h0.2h0.1l1,0.1c0.7,0.1,1.3,0,2,0.1s1.4,0.2,2.2,0.3
			c2,0.9-1.6,4.1-2.5,3.9c-0.5-0.1-1.3-0.1-1.9-0.2l-1-0.1h-0.1l0,0h-0.2h-0.4c-0.6,0-1.2,0.1-1.8,0.1c-0.6,0.1-1.2,0.3-1.8,0.4
			s-1.2,0.4-1.8,0.6s-1.2,0.4-1.7,0.8c-0.5,0.3-1.1,0.6-1.6,0.9c-0.5,0.4-1,0.8-1.5,1.1c-1.9,1.6-3.6,3.6-4.8,5.8
			c-1.2,2.2-2.2,4.6-2.8,7c-0.6,2.5-1.1,4.9-1.3,7.4c-0.2,1.3-0.2,2.3-0.3,3.5v0.2v0.3v0.6v1.1v1.1v0.2v0.1v0.5c0.1,5,0.5,10.1,2,15
			c0.2,0.6,0.3,1.2,0.6,1.8l0.7,1.8c0.5,1.1,1,2.4,1.7,3.4c0.6,1.2,1.4,2.1,2.2,3.2c0.9,0.9,1.7,1.9,2.7,2.6c1,0.8,2.1,1.4,3.2,2
			c1.1,0.5,2.3,1,3.4,1.2c1,0.4,2.5,0.4,3.8,0.5c0.6,0,1.1-0.1,1.7-0.1c0.3,0,0.6,0,0.9-0.1l0.9-0.2c2.3-0.4,4.3-1.5,6.1-2.7
			c0.9-0.7,1.7-1.3,2.4-2.1c0.4-0.4,0.7-0.7,1.1-1.1c0.3-0.4,0.6-0.8,0.9-1.2c2.3-3.3,3.6-6.7,4.4-9.7c0.2-0.7,0.4-1.5,0.5-2.2
			c0.2-0.7,0.3-1.4,0.4-2.1c0.1-0.7,0.2-1.3,0.3-1.9s0.1-1.2,0.2-1.7c0.2-1.1,0.2-2,0.2-2.8c0-0.4,0.1-0.7,0.1-1.1s0-0.8,0-1.2
			c0-1,0-1.6,0.1-1.9c0-0.1,0-0.7-0.1-1.8c0-0.6,0-1.3-0.1-2.2c-0.1-0.8-0.1-1.8-0.2-2.9c-0.1-0.5-0.1-1.1-0.2-1.7
			c-0.1-0.6-0.2-1.2-0.3-1.9c-0.1-0.7-0.2-1.3-0.4-2c0-0.2-0.7-2.7-0.7-2.9c0,1.6-2.3,4.1-4.2,4.1c-3.7,0-6.8-2.9-7-6.6l0,0
			c0,0,0,0,0-0.1s0-0.3,0-0.4s0-0.1,0-0.2c-0.1-1.2-0.3-3.4,0.4-5.8c0.5-1.8,1-4,2.2-6.4c1.3-2.3,3.3-4.8,6.3-6.6
			c2.9-1.8,6.6-3,10.5-3.5c1-0.2,2-0.2,3.1-0.3c1,0,2.1-0.1,3.2-0.1c0.5,0,1.1,0,1.6,0h0.4h0.2c0.1,0,0,0,0.2,0h0.1h0.8
			c0.3,0,0.5,0,0.8,0l0.9,0.1c0.7,0.1,1.3,0.2,1.9,0.3c4.9,0.8,10.3,2.4,15.2,5.3c2.4,1.4,4.6,3.2,6.7,5.2c2,2,3.9,4.1,5.7,6.3
			c3.5,4.5,6.5,9.6,9.7,14c3.6,4.6,7.4,9.3,11.3,14.2c2.8,3.4,5.7,7,8.5,10.5c0-3.5-0.1-13.9-0.1-16.3c0-1.4-0.1-3-0.1-4.7
			c0-2.8-0.1-5.3-0.2-7.6c-0.3-4.4-0.5-7-0.5-7.7c0-2.2-0.2-3.5-0.6-4c-0.7-0.8-2.3-1.3-4.8-1.8c-1.1-0.2-2-0.4-2.7-0.7
			c0,0-2.3-0.8-1-3c0.3-0.5,1-0.7,1.1-0.7l9.9-0.1l11.1-0.1h0.1c1.1,0,2,0.9,2,2l0,0c0,0.8-0.5,1.6-1.3,1.9
			c-0.4,0.1-0.7,0.2-1.1,0.3c-2.2,0.5-3.4,0.8-3.8,1c-1.2,0.6-2,1.1-2.4,1.4c-0.2,0.2-0.4,0.3-0.5,0.6c-0.2,0.4-0.3,0.9-0.3,1.6
			c0,0.2,0,0.9,0.1,2.1c0,0.6,0,2,0,4.3c-0.1,4.9,0,8.8,0.2,11.6c0.1,0.9,0.1,1.9,0.1,3.1l0.3,17.8c0,1.2,0,2.1,0,2.6l-0.1,2.9
			c3.4,4.2,6.8,8.3,10.5,12.4c3.6,3.9,7.4,7.8,11.4,11.3c4.2-2,8.5-3.9,12.9-5.6c1.7-0.6,3.5-1.2,5.4-1.7l1.4-0.3l1.4-0.3l1.3-0.2
			c0.6-0.1,1-0.1,1.5-0.2c3.8-0.4,7.8-0.2,11.6,1.1c1.9,0.6,3.7,1.5,5.4,2.7c1.6,1.2,3.1,2.8,4.1,4.8
			C873.2,479.7,873.6,482.2,873,484.4z"/>
		<path class="logo-svg" d="M353.4,517.5c0.5,0.1,1,0.1,1.4,0.2c0.4,0,0.9,0.1,1.3,0.1c0.3,0,0.7,0,1,0c0-0.1-0.1-0.1-0.1-0.2l-2.8-6.7
			c-0.3-0.6-0.5-1.3-0.8-1.9s-1.2-0.6-1.4,0l-0.7,1.8l-2,5.7c0.4,0.1,0.8,0.2,1.1,0.2C351.4,517.1,352.4,517.3,353.4,517.5z"/>
	</g>
</g>
</svg>
