<svg version="1.1" id="Layer_1" xmlns="http://www.w3.org/2000/svg" xmlns:xlink="http://www.w3.org/1999/xlink" x="0px" y="0px"
	 viewBox="0 0 792 792" style="enable-background:new 0 0 792 792;" xml:space="preserve">
<g>
	<g>
		<path fill="#241300" d="M20.1,691.5v-591c0-10.4,8.4-18.8,18.8-18.8c238.3,0,476.6,0,714.9,0c10.4,0,18.8,8.4,18.8,18.8c0,153.1,0,433.1,0,586.2
			c0,13-10.5,23.6-23.6,23.6c-236.7,0-473.5,0-710.2,0C28.5,710.3,20.1,701.9,20.1,691.5z M689.1,230.8c0-1.2-1.4-1.9-2.3-1.1
			c0,0-0.1,0.1-0.1,0.1C596.1,304.5,494,403.1,398.1,479.1c-1.4,1-2.3,1-3.6,0c-8.6-6.6-240.6-202.5-288.5-249.4c0,0,0,0-0.1,0
			c-0.9-0.7-2.3,0-2.3,1.1c0,0.2,0,0.4,0,0.7c0,88.2,0,303.4,0,391.5c0,0.6,0,1.3,0,1.9c0,1.2,0.5,1.9,1.8,1.9c0.8,0,1.5,0,2.3,0
			c39.9,0,79.8,0,119.7,0c152.7,0,305.4,0,458.1,0c3.6,0,3.6,0,3.6-3.1C689.1,535.1,689.1,319.4,689.1,230.8
			C689.1,230.8,689.1,230.8,689.1,230.8z M160.5,165.4c0,0.1-0.1,0.3-0.1,0.4c0.5,0.4,0.9,0.8,1.4,1.2
			c72.9,62.4,157.8,145.1,231.7,206.8c1.7,1.4,4.3,1.4,6,0c74.1-61.9,158.8-144.4,231.7-206.8c0.5-0.4,1-0.8,1.9-1.6
			C475.1,165.4,317.8,165.4,160.5,165.4z"/>
	</g>
</g>
</svg>
